<svg width="39" height="39" viewBox="0 0 39 39" fill="none" xmlns="http://www.w3.org/2000/svg">
<path d="M12 20.7083H14.82L13.5 16.6956L12 20.7083ZM26.79 19.5C26.4274 19.497 26.0722 19.6013 25.7693 19.7994C25.4663 19.9976 25.2295 20.2808 25.0886 20.6131C24.9478 20.9453 24.9094 21.3117 24.9784 21.6657C25.0473 22.0197 25.2204 22.3454 25.4757 22.6014C25.731 22.8574 26.057 23.0322 26.4124 23.1037C26.7678 23.1751 27.1365 23.1399 27.4718 23.0026C27.8071 22.8653 28.0938 22.6321 28.2955 22.3325C28.4973 22.0329 28.605 21.6805 28.605 21.3199C28.605 20.8398 28.4143 20.3792 28.0743 20.0383C27.7344 19.6974 27.2727 19.5039 26.79 19.5ZM35.295 5.00049H3.705C3.22131 4.99257 2.74087 5.08048 2.29169 5.2591C1.84251 5.43772 1.43357 5.70347 1.08872 6.04086C0.743871 6.37826 0.470004 6.78054 0.283085 7.22427C0.0961664 7.66799 -6.55111e-05 8.14428 3.34597e-08 8.62537V30.3746C3.34597e-08 31.336 0.384026 32.258 1.0676 32.9378C1.75117 33.6176 2.67829 33.9995 3.645 33.9995H35.295C35.7787 34.0074 36.2591 33.9195 36.7083 33.7409C37.1575 33.5623 37.5664 33.2965 37.9113 32.9591C38.2561 32.6217 38.53 32.2195 38.7169 31.7757C38.9038 31.332 39.0001 30.8557 39 30.3746V8.62537C39.0001 8.14428 38.9038 7.66799 38.7169 7.22427C38.53 6.78054 38.2561 6.37826 37.9113 6.04086C37.5664 5.70347 37.1575 5.43772 36.7083 5.2591C36.2591 5.08048 35.7787 4.99257 35.295 5.00049ZM19.095 26.7498H17.805C17.5526 26.7495 17.3065 26.6721 17.0998 26.528C16.8932 26.3839 16.7362 26.1801 16.65 25.9442L16.095 24.3332H10.755L10.2 25.9442C10.1138 26.1801 9.95678 26.3839 9.75017 26.528C9.54355 26.6721 9.29736 26.7495 9.045 26.7498H7.755C7.56109 26.7489 7.37021 26.7019 7.1983 26.6126C7.0264 26.5234 6.87847 26.3945 6.76687 26.2368C6.65528 26.0791 6.58326 25.8971 6.55684 25.7061C6.53042 25.5151 6.55036 25.3205 6.615 25.1387L10.695 13.5331C10.8195 13.1765 11.0523 12.8672 11.3614 12.648C11.6705 12.4289 12.0404 12.3107 12.42 12.3099H14.43C14.8096 12.3107 15.1795 12.4289 15.4886 12.648C15.7977 12.8672 16.0305 13.1765 16.155 13.5331L20.235 25.1984C20.2881 25.3766 20.2992 25.5647 20.2673 25.7479C20.2354 25.9311 20.1614 26.1045 20.0511 26.2546C19.9408 26.4047 19.7971 26.5275 19.6313 26.6134C19.4654 26.6993 19.2819 26.7459 19.095 26.7498ZM32.25 25.5415C32.25 25.8619 32.122 26.1693 31.8941 26.3959C31.6663 26.6225 31.3572 26.7498 31.035 26.7498H29.835C29.6596 26.7505 29.4864 26.7119 29.328 26.6371C29.1696 26.5622 29.0302 26.4528 28.92 26.3172C28.2472 26.6047 27.5223 26.7519 26.79 26.7498C26.0479 26.7884 25.3057 26.6764 24.6085 26.4207C23.9113 26.1649 23.2738 25.7706 22.7348 25.2619C22.1957 24.7532 21.7665 24.1407 21.4731 23.4617C21.1798 22.7827 21.0285 22.0514 21.0285 21.3124C21.0285 20.5734 21.1798 19.8422 21.4731 19.1632C21.7665 18.4842 22.1957 17.8717 22.7348 17.363C23.2738 16.8543 23.9113 16.46 24.6085 16.2042C25.3057 15.9484 26.0479 15.8365 26.79 15.8751C27.4091 15.8833 28.0226 15.9943 28.605 16.2033V13.5331C28.6089 13.2113 28.7403 12.904 28.9705 12.6778C29.2008 12.4516 29.5114 12.3248 29.835 12.3248H31.035C31.3572 12.3248 31.6663 12.4521 31.8941 12.6787C32.122 12.9053 32.25 13.2127 32.25 13.5331V25.5415Z" fill="url(#paint0_linear_280_516)"/>
<defs>
<linearGradient id="paint0_linear_280_516" x1="-4.00847" y1="2.61996" x2="42.8077" y2="12.2578" gradientUnits="userSpaceOnUse">
<stop stopColor="#FC365F"/>
<stop offset="0.984375" stopColor="#A00BFB"/>
</linearGradient>
</defs>
</svg>
