<svg width="39" height="39" viewBox="0 0 39 39" fill="none" xmlns="http://www.w3.org/2000/svg">
<path fill-rule="evenodd" clip-rule="evenodd" d="M6.09375 9.14062H3.65625C3.17119 9.14062 2.70623 9.33319 2.36377 9.67627C2.02069 10.0187 1.82812 10.4837 1.82812 10.9688C1.82812 12.4977 1.82812 15.2837 1.82812 18.2812C1.82812 18.6176 2.10113 18.8906 2.4375 18.8906C2.77387 18.8906 3.04688 18.6176 3.04688 18.2812V10.9688C3.04688 10.8073 3.11086 10.6519 3.22542 10.5379C3.33938 10.4234 3.49477 10.3594 3.65625 10.3594H6.09375V23.1562C6.09375 24.166 6.91214 24.9844 7.92188 24.9844H31.6875C32.1726 24.9844 32.6375 24.7918 32.98 24.4487C33.3231 24.1063 33.5156 23.6413 33.5156 23.1562C33.5156 21.2233 33.5156 17.6719 33.5156 17.6719C33.5156 17.3355 33.2426 17.0625 32.9062 17.0625C32.5699 17.0625 32.2969 17.3355 32.2969 17.6719V23.1562C32.2969 23.3177 32.2329 23.4731 32.1183 23.5871C32.0044 23.7016 31.849 23.7656 31.6875 23.7656H7.92188C7.5855 23.7656 7.3125 23.4926 7.3125 23.1562V3.65625C7.3125 3.31988 7.5855 3.04688 7.92188 3.04688H31.6875C32.0239 3.04688 32.2969 3.31988 32.2969 3.65625V15.2344C32.2969 15.5708 32.5699 15.8438 32.9062 15.8438C33.2426 15.8438 33.5156 15.5708 33.5156 15.2344V10.3594H35.3438C35.5052 10.3594 35.6606 10.4234 35.7746 10.5379C35.8891 10.6519 35.9531 10.8073 35.9531 10.9688V26.2031H3.04688V20.7188C3.04688 20.3824 2.77387 20.1094 2.4375 20.1094C2.10113 20.1094 1.82812 20.3824 1.82812 20.7188C1.82812 24.1623 1.82812 27.5157 1.82812 29.25C1.82812 29.7351 2.02069 30.2 2.36377 30.5425C2.70623 30.8856 3.17119 31.0781 3.65625 31.0781H6.09375C6.43012 31.0781 6.70312 30.8051 6.70312 30.4688C6.70312 30.1324 6.43012 29.8594 6.09375 29.8594H3.65625C3.49477 29.8594 3.33938 29.7954 3.22542 29.6808C3.11086 29.5669 3.04688 29.4115 3.04688 29.25V27.4219H35.9531V29.25C35.9531 29.4115 35.8891 29.5669 35.7746 29.6808C35.6606 29.7954 35.5052 29.8594 35.3438 29.8594H8.53125C8.19488 29.8594 7.92188 30.1324 7.92188 30.4688C7.92188 30.8051 8.19488 31.0781 8.53125 31.0781H16.213C16.1155 32.7125 15.692 34.824 14.1308 35.9531H13.1016C12.7652 35.9531 12.4922 36.2261 12.4922 36.5625C12.4922 36.8989 12.7652 37.1719 13.1016 37.1719H25.8984C26.2348 37.1719 26.5078 36.8989 26.5078 36.5625C26.5078 36.2261 26.2348 35.9531 25.8984 35.9531H24.8692C23.308 34.8233 22.8845 32.7125 22.787 31.0781H35.3438C35.8288 31.0781 36.2938 30.8856 36.6362 30.5425C36.9793 30.2 37.1719 29.7351 37.1719 29.25C37.1719 25.5767 37.1719 14.6421 37.1719 10.9688C37.1719 10.4837 36.9793 10.0187 36.6362 9.67627C36.2938 9.33319 35.8288 9.14062 35.3438 9.14062H33.5156V3.65625C33.5156 2.64652 32.6972 1.82812 31.6875 1.82812H7.92188C6.91214 1.82812 6.09375 2.64652 6.09375 3.65625V9.14062ZM21.5682 31.0781H17.4318C17.3373 32.6205 16.9534 34.5394 15.8565 35.9531H23.1435C22.0466 34.5394 21.6627 32.6198 21.5682 31.0781ZM17.9351 19.5H17.3672C17.0308 19.5 16.7578 19.773 16.7578 20.1094C16.7578 20.4457 17.0308 20.7188 17.3672 20.7188H17.4781L17.1015 21.7236C16.9833 22.0387 17.1429 22.3903 17.458 22.5079C17.773 22.6261 18.1246 22.4664 18.2423 22.1514L18.7797 20.7188H20.2203L20.7577 22.1514C20.8754 22.4664 21.227 22.6261 21.542 22.5079C21.8571 22.3903 22.0167 22.0387 21.8985 21.7236L21.5219 20.7188H21.6328C21.9692 20.7188 22.2422 20.4457 22.2422 20.1094C22.2422 19.773 21.9692 19.5 21.6328 19.5H21.0649L20.0704 16.8486C19.9814 16.611 19.7541 16.4531 19.5 16.4531C19.2459 16.4531 19.0186 16.611 18.9296 16.8486L17.9351 19.5ZM19.2367 19.5H19.7633L19.5 18.798L19.2367 19.5ZM9.31917 13.2277L10.5379 14.4465C10.7756 14.6847 11.1619 14.6847 11.3996 14.4465L13.817 12.0297C14.0546 11.7914 14.0546 11.4057 13.817 11.1674C13.5787 10.9298 13.193 10.9298 12.9547 11.1674L10.9688 13.154L10.1808 12.366C9.94317 12.1284 9.55683 12.1284 9.31917 12.366C9.08152 12.6037 9.08152 12.99 9.31917 13.2277ZM16.4531 14.625H24.9844C25.3207 14.625 25.5938 14.352 25.5938 14.0156C25.5938 13.6792 25.3207 13.4062 24.9844 13.4062H16.4531C16.1167 13.4062 15.8438 13.6792 15.8438 14.0156C15.8438 14.352 16.1167 14.625 16.4531 14.625ZM16.4531 12.1875H29.25C29.5864 12.1875 29.8594 11.9145 29.8594 11.5781C29.8594 11.2417 29.5864 10.9688 29.25 10.9688H16.4531C16.1167 10.9688 15.8438 11.2417 15.8438 11.5781C15.8438 11.9145 16.1167 12.1875 16.4531 12.1875ZM16.4531 8.53125H24.9844C25.3207 8.53125 25.5938 8.25825 25.5938 7.92188C25.5938 7.5855 25.3207 7.3125 24.9844 7.3125H16.4531C16.1167 7.3125 15.8438 7.5855 15.8438 7.92188C15.8438 8.25825 16.1167 8.53125 16.4531 8.53125ZM9.31917 7.13395L10.5379 8.3527C10.7756 8.59097 11.1619 8.59097 11.3996 8.3527L13.817 5.93592C14.0546 5.69766 14.0546 5.31192 13.817 5.07366C13.5787 4.836 13.193 4.836 12.9547 5.07366L10.9688 7.06022L10.1808 6.2723C9.94317 6.03464 9.55683 6.03464 9.31917 6.2723C9.08152 6.50995 9.08152 6.8963 9.31917 7.13395ZM16.4531 6.09375H29.25C29.5864 6.09375 29.8594 5.82075 29.8594 5.48438C29.8594 5.148 29.5864 4.875 29.25 4.875H16.4531C16.1167 4.875 15.8438 5.148 15.8438 5.48438C15.8438 5.82075 16.1167 6.09375 16.4531 6.09375Z" fill="url(#paint0_linear_297_1348)"/>
<defs>
<linearGradient id="paint0_linear_297_1348" x1="-1.80455" y1="-1.07255" x2="41.4081" y2="5.54245" gradientUnits="userSpaceOnUse">
<stop stop-color="#FC365F"/>
<stop offset="0.984375" stop-color="#A00BFB"/>
</linearGradient>
</defs>
</svg>
