<svg width="60" height="60" viewBox="0 0 60 60" fill="none" xmlns="http://www.w3.org/2000/svg">
<path d="M24.8437 15.6562C22.4062 15.6562 19.875 16.5938 18 18.4688C16.125 20.3438 15.1875 22.7812 15.1875 25.3125C15.1875 27.75 16.125 30.2812 18 32.1562C19.875 34.0312 22.3125 34.9687 24.8437 34.9687C27.2812 34.9687 29.8125 34.0312 31.6875 32.1562C33.5625 30.2812 34.5 27.8437 34.5 25.3125C34.5 22.875 33.5625 20.3438 31.6875 18.4688C29.7187 16.6875 27.2812 15.6562 24.8437 15.6562ZM24.8437 33.0937C22.875 33.0937 20.9062 32.3438 19.3125 30.8438C17.8125 29.3438 17.0625 27.375 17.0625 25.3125C17.0625 23.3437 17.8125 21.375 19.3125 19.7812C20.8125 18.2812 22.7812 17.5312 24.8437 17.5312C26.8125 17.5312 28.7813 18.2812 30.375 19.7812H23.9062V29.9062H31.125C30.9375 30.1875 30.6563 30.5625 30.375 30.8438C28.7813 32.3438 26.8125 33.0937 24.8437 33.0937ZM32.0625 28.0312H25.6875V21.6562H31.5938C32.1562 22.7812 32.5312 24 32.5312 25.3125C32.625 26.25 32.4375 27.1875 32.0625 28.0312Z" fill="url(#paint0_linear_297_1382)"/>
<path d="M36.0938 19.875C35.5312 18.6563 34.6875 17.5313 33.6563 16.5C31.2188 14.0625 28.0312 12.8438 24.75 12.8438C21.5625 12.8438 18.2812 14.0625 15.8437 16.5C13.4062 18.9375 12.1875 22.125 12.1875 25.4063C12.1875 27.8438 12.9375 30.2812 14.3438 32.4375L2.90625 43.7813L6.28125 47.1562L6.9375 46.5L17.8125 35.7188C19.9688 37.125 22.4062 37.875 24.8438 37.875C28.0312 37.875 31.3125 36.6562 33.75 34.2188C34.9688 33 35.9062 31.5 36.5625 29.9063H57.0938V19.875H36.0938ZM16.3125 34.5938L6.375 44.5313L5.625 43.7813L15.5625 33.8438L16.3125 34.5938ZM32.3438 32.9062C30.2812 34.9688 27.5625 36 24.75 36C22.0312 36 19.3125 34.9688 17.1562 32.9062C15.0937 30.8437 14.0625 28.125 14.0625 25.3125C14.0625 22.5938 15.0937 19.875 17.1562 17.7188C19.2187 15.6562 21.9375 14.625 24.75 14.625C27.4688 14.625 30.1875 15.6562 32.3438 17.7188C34.4062 19.7813 35.4375 22.5 35.4375 25.3125C35.4375 28.125 34.4062 30.8437 32.3438 32.9062ZM55.2188 28.0313H37.0312C37.2188 27.0938 37.3125 26.25 37.3125 25.3125C37.3125 24.0938 37.125 22.875 36.75 21.6563H55.125V28.0313H55.2188Z" fill="url(#paint1_linear_297_1382)"/>
<path d="M47.9062 31.2188H36.4688V33.0938H47.9062V31.2188Z" fill="url(#paint2_linear_297_1382)"/>
<defs>
<linearGradient id="paint0_linear_297_1382" x1="13.2025" y1="14.0713" x2="36.8148" y2="17.6858" gradientUnits="userSpaceOnUse">
<stop stop-color="#FC365F"/>
<stop offset="0.984375" stop-color="#A00BFB"/>
</linearGradient>
<linearGradient id="paint1_linear_297_1382" x1="-2.66321" y1="10.0277" x2="61.3972" y2="25.5143" gradientUnits="userSpaceOnUse">
<stop stop-color="#FC365F"/>
<stop offset="0.984375" stop-color="#A00BFB"/>
</linearGradient>
<linearGradient id="paint2_linear_297_1382" x1="35.2932" y1="31.0649" x2="42.9385" y2="38.2039" gradientUnits="userSpaceOnUse">
<stop stop-color="#FC365F"/>
<stop offset="0.984375" stop-color="#A00BFB"/>
</linearGradient>
</defs>
</svg>
