<svg width="39" height="39" viewBox="0 0 39 39" fill="none" xmlns="http://www.w3.org/2000/svg">
<g clipPath="url(#clip0_297_1362)">
<path d="M30.7318 2.51774C30.4765 1.94271 30.1008 1.38651 29.5682 0.946995C29.0397 0.50855 28.3313 0.20927 27.5894 0.18939C26.8475 0.160063 26.1223 0.414401 25.5583 0.814075C24.9922 1.21801 24.5715 1.75114 24.2775 2.31725C23.9834 2.88549 23.8097 3.48771 23.7124 4.08886C23.6203 4.7073 23.5994 5.24827 23.5554 5.81918L23.3273 9.20121L23.1086 12.5812C23.0427 13.512 22.9935 14.4433 23.049 15.3825C22.7371 15.1946 22.4326 14.9979 22.1427 14.7823C22.0527 14.7211 21.968 14.6552 21.8832 14.585C21.7734 14.1769 21.653 13.773 21.5641 13.3649C21.3893 12.6612 21.2438 11.948 21.1047 11.2344C20.8253 9.80815 20.5762 8.37238 20.3418 6.93197L19.9964 4.77372L19.9525 4.49173C19.9326 4.40329 19.9222 4.31806 19.9022 4.21964C19.8625 4.02289 19.8123 3.83505 19.7631 3.64729C19.6574 3.27686 19.5234 2.90591 19.3487 2.54485C18.9992 1.83173 18.4853 1.14634 17.7571 0.653962C17.0434 0.16113 16.0912 -0.106234 15.1577 0.039788C14.9181 0.0768837 14.713 0.124034 14.4639 0.217649C14.3791 0.250022 14.2892 0.287727 14.1646 0.34897C14.0547 0.404956 13.9553 0.456753 13.8559 0.522641C13.4656 0.77119 13.137 1.10924 12.8974 1.47966C12.4192 2.23041 12.2737 3.06549 12.2549 3.8493C12.2496 5.42575 12.7038 6.90386 13.2229 8.29301C13.7366 9.66281 14.2305 11.0425 14.7088 12.4222C14.9328 13.0835 15.1577 13.7543 15.3973 14.421C15.2781 14.4063 15.1577 14.4021 15.0384 14.4063C14.4744 14.4252 13.9407 14.6229 13.5012 14.9085C12.8796 15.3183 12.4423 15.8822 12.1471 16.4923C12.0267 16.394 11.8949 16.306 11.7526 16.2458C11.3769 16.0774 10.9593 16.0292 10.5617 16.0642C9.76016 16.1287 9.02868 16.5435 8.53265 17.1185C8.02725 17.6956 7.77817 18.4271 7.73422 19.1271C7.69233 19.8465 7.82426 20.4702 7.95916 21.1106C8.10464 21.7457 8.30452 22.3737 8.59329 22.9738C8.85174 23.5116 9.16991 24.0359 9.60104 24.5021C9.59685 25.4647 9.65025 26.778 9.74859 27.621C9.87313 28.5889 10.0583 29.5568 10.3712 30.5034C10.6914 31.442 11.1121 32.3807 11.7892 33.1838C11.9995 33.4319 12.236 33.6636 12.4934 33.8724C12.2329 34.0817 12.0005 34.3355 11.8456 34.653C11.6028 35.126 11.5965 35.7371 11.8288 36.231C12.059 36.7291 12.4493 37.1068 12.8585 37.4088C13.274 37.7101 13.7281 37.931 14.1875 38.1167C16.0428 38.8335 18.0007 38.9785 19.8958 38.9999C21.8077 38.979 23.7655 38.8335 25.6146 38.0696C26.5135 37.6808 27.4458 37.1059 27.9178 36.1368C28.1396 35.6581 28.193 35.0846 28.0036 34.5834C27.8623 34.1742 27.5546 33.8341 27.1894 33.6128C27.3464 33.4318 27.4918 33.2439 27.6174 33.0482C28.2945 32.019 28.644 30.8711 28.8239 29.7295C29.1567 27.4356 29.3754 25.2057 29.5334 22.935C29.6914 20.6741 29.7855 18.4159 29.952 16.1703C30.1163 13.9242 30.3611 11.69 30.7221 9.47055C30.8121 8.91594 30.9084 8.36187 31.012 7.80879C31.1197 7.25578 31.2108 6.66659 31.2505 6.07748C31.3241 4.90412 31.2393 3.67821 30.7318 2.51774ZM10.362 24.1276C9.59388 23.2675 9.20464 22.0761 8.95769 20.9203C8.85098 20.3391 8.75363 19.7216 8.78821 19.1937C8.82691 18.6537 9.01528 18.1447 9.35958 17.757C9.70067 17.3667 10.1883 17.1071 10.7022 16.9978C11.1166 16.9183 11.5351 16.9314 11.894 17.1286C11.8773 17.1783 11.8595 17.2286 11.8448 17.2782C11.4116 19.0708 11.5319 20.9057 12.1693 22.6088C12.3838 23.1576 12.658 23.6908 13.0106 24.1852C12.6254 24.5091 12.1912 24.7613 11.7538 24.7931C11.2305 24.8371 10.746 24.5441 10.362 24.1276ZM30.1731 6.01547C30.1417 6.55439 30.0579 7.08492 29.9606 7.64479C29.8654 8.20617 29.7775 8.76817 29.6969 9.33161C29.3683 11.5851 29.1591 13.8533 29.0335 16.1177C28.9037 18.3822 28.8452 20.6415 28.7258 22.8913C28.6651 24.0167 28.5898 25.1401 28.4914 26.2613C28.3889 27.3841 28.3041 28.5086 28.0111 29.579C27.8761 30.1169 27.7087 30.6433 27.5287 31.1575C27.3434 31.6703 27.1468 32.1778 26.8737 32.6388C26.5995 33.0966 26.2751 33.523 25.8639 33.85C25.4495 34.1733 24.9639 34.3983 24.3989 34.4862L24.4491 34.9523C25.0843 34.9586 25.7646 34.7608 26.3055 34.3988C26.4928 34.2774 26.6623 34.1372 26.8235 33.9907C27.0851 34.2026 27.2609 34.4736 27.3268 34.7671C27.4053 35.1119 27.3205 35.4682 27.128 35.7738C26.7482 36.399 25.9842 36.8233 25.189 37.1111C24.3781 37.3921 23.5022 37.5674 22.6117 37.6626C21.7222 37.7647 20.8087 37.8054 19.9056 37.7992C18.9858 37.806 18.0816 37.7647 17.1859 37.6679C16.2923 37.5784 15.4112 37.412 14.5887 37.1494C13.7861 36.8794 12.9876 36.4786 12.6225 35.8742C12.4362 35.5807 12.387 35.2396 12.5011 34.8974C12.5837 34.652 12.7449 34.4161 12.95 34.201C12.9626 34.2094 12.9752 34.2189 12.9876 34.2267C13.4512 34.5045 13.9723 34.6933 14.5019 34.7824L14.6159 34.3256C13.6982 34.0666 12.9646 33.4691 12.4508 32.7303C11.9381 31.9863 11.5907 31.1287 11.3605 30.2403C11.1219 29.3525 10.9753 28.4341 10.8874 27.5092C10.812 26.7861 10.7796 26.0578 10.7556 25.3263C11.0967 25.4524 11.4839 25.5047 11.847 25.4414C12.4822 25.3295 12.9604 24.9878 13.3381 24.5996C13.4386 24.7163 13.5369 24.8356 13.651 24.9454C13.831 25.1097 14.0309 25.2646 14.2601 25.3959C14.3794 25.4571 14.5039 25.5178 14.6442 25.5602C14.7791 25.602 14.9434 25.6255 15.0386 25.635C15.5472 25.6962 16.106 25.6585 16.5895 25.3818C17.0782 25.0998 17.3628 24.6215 17.4926 24.1664C17.6276 23.7065 17.6475 23.2471 17.6276 22.8013C17.5826 21.905 17.3587 21.0459 17.0939 20.2161L16.6146 20.3422C16.8438 21.1589 17.0196 21.994 17.0395 22.8201C17.0437 23.2283 17.0144 23.6364 16.8889 24.0021C16.7748 24.3683 16.5603 24.678 16.2505 24.8465C15.946 25.0108 15.5369 25.0391 15.1486 24.9878C15.0189 24.969 14.953 24.9548 14.8787 24.9267C14.7992 24.8983 14.7196 24.856 14.6443 24.8094C14.4853 24.7111 14.3346 24.584 14.1954 24.4479C13.6314 23.8755 13.2327 23.1247 12.9627 22.3508C12.6938 21.5717 12.5535 20.755 12.5243 19.9341C12.5044 19.526 12.5191 19.1085 12.5536 18.7046C12.5934 18.2871 12.6488 17.8888 12.7587 17.5179C12.9838 16.7624 13.4222 16.0727 14.0553 15.6689C14.3702 15.4721 14.724 15.3544 15.0735 15.345C15.2985 15.3403 15.4973 15.3544 15.7327 15.3733C15.8761 15.7772 16.392 17.2417 16.5468 17.6409L17.0209 17.4997C16.9109 17.1056 16.4359 15.6501 16.3302 15.2561C16.2863 15.0824 16.2412 14.9087 16.1963 14.7349C15.9713 13.8905 15.7568 13.0461 15.5224 12.1968C15.1384 10.7799 14.6895 9.37663 14.2405 7.97857C13.7811 6.60885 13.4076 5.21963 13.4431 3.87291C13.4473 3.20686 13.5771 2.54965 13.8962 2.04265C14.0553 1.78946 14.2604 1.57389 14.5094 1.41431C14.5701 1.37196 14.6391 1.33425 14.6998 1.30135C14.749 1.27834 14.8337 1.24064 14.9238 1.20293C15.0336 1.16104 15.2032 1.10932 15.3476 1.0857C15.9513 0.972665 16.6107 1.12333 17.1495 1.47083C17.6978 1.81772 18.1363 2.34825 18.446 2.94841C18.6062 3.24868 18.7349 3.56784 18.8353 3.89172C18.8907 4.06022 18.9347 4.22505 18.9755 4.38874C18.9943 4.46416 19.009 4.56249 19.0299 4.64666L19.0791 4.90984L19.4935 7.06809C19.7781 8.50431 20.0722 9.93954 20.406 11.3663C20.5808 12.0842 20.766 12.7973 20.9753 13.5057C21.0255 13.6794 21.0747 13.8531 21.1291 14.0221C21.0203 13.9562 20.9052 13.9003 20.7848 13.8532C20.2176 13.6135 19.5333 13.5853 18.9452 13.8014C18.3466 14.008 17.8674 14.4491 17.5922 14.9603C17.3138 15.4809 17.229 16.0485 17.2688 16.6073C17.3086 17.1562 17.5231 17.7098 17.8475 18.1602C18.1719 18.6154 18.5852 18.9953 19.0341 19.3051C19.8828 19.8916 20.8203 20.2861 21.8186 20.5347L21.6585 22.8949C21.3896 22.9514 21.1594 23.0498 20.925 23.1576C20.6058 23.3218 20.317 23.5238 20.0575 23.7535C19.5437 24.2087 19.1544 24.7623 18.8551 25.3347C18.2607 26.4889 17.9824 27.7326 17.817 28.9616L18.3109 29.0276C18.516 27.8357 18.8352 26.6491 19.4233 25.6068C19.7183 25.0909 20.0867 24.6169 20.5357 24.2464C20.7607 24.0586 21.0044 23.899 21.265 23.7818C21.5098 23.6646 21.8227 23.5799 22.0321 23.5751L22.4276 23.5799L22.4172 23.2142L22.3272 20.3563L22.3419 20.1973L22.143 20.1267C21.195 19.7845 20.2563 19.3429 19.4736 18.7658C18.6898 18.1935 18.0714 17.4332 18.0274 16.5464C18.0012 16.1147 18.0766 15.6642 18.2817 15.2938C18.4857 14.9276 18.8195 14.6319 19.2193 14.4958C19.6179 14.3598 20.0669 14.3787 20.4614 14.5476C20.5608 14.5853 20.656 14.6366 20.7502 14.6931L20.8758 14.7774L21.015 14.8899C21.1846 15.0217 21.3488 15.1578 21.5236 15.2844C21.5644 15.3174 21.6042 15.3503 21.6482 15.3781C21.7287 15.4346 21.8083 15.4952 21.8889 15.547C22.682 16.1053 23.5496 16.5652 24.4526 16.9362C24.9413 17.1423 25.4509 17.3207 25.9145 17.5086C26.1437 17.6023 26.3687 17.71 26.5078 17.8183L26.5926 17.8978C26.6229 17.9355 26.6021 17.8978 26.6428 17.9821C26.668 18.0291 26.7077 18.1605 26.7276 18.2641C26.917 19.1834 26.9578 20.1974 27.0615 21.1827C27.1567 22.1726 27.2362 23.1672 27.4905 24.1665L27.9792 24.0729C27.8097 23.1201 27.795 22.1254 27.7354 21.1402C27.6799 20.1409 27.6506 19.1604 27.4706 18.1234C27.4413 17.9821 27.4204 17.8744 27.346 17.6912C27.3366 17.6588 27.2561 17.5129 27.1964 17.4521C27.1368 17.3768 27.0719 17.3208 27.0071 17.269C26.7382 17.0623 26.4775 16.955 26.2285 16.8421C25.7252 16.6354 25.2406 16.4622 24.7718 16.2603C24.3899 16.1006 24.0215 15.9217 23.6605 15.7302C23.9295 14.7136 24.0477 13.6839 24.1377 12.6537L24.4328 9.27273L24.6892 5.89169C24.7384 5.33655 24.7614 4.74637 24.8336 4.24569C24.9162 3.73184 25.0596 3.23063 25.2908 2.78068C25.521 2.33233 25.8402 1.93731 26.2316 1.65524C26.624 1.37638 27.0896 1.2168 27.5543 1.23409C28.5003 1.24612 29.3238 1.98857 29.7235 2.91779C30.1406 3.85402 30.239 4.94335 30.1731 6.01547Z" fill="url(#paint0_linear_297_1362)"/>
</g>
<defs>
<linearGradient id="paint0_linear_297_1362" x1="5.3061" y1="-3.20073" x2="34.521" y2="-0.500512" gradientUnits="userSpaceOnUse">
<stop stopColor="#FC365F"/>
<stop offset="0.984375" stopColor="#A00BFB"/>
</linearGradient>
<clipPath id="clip0_297_1362">
<rect width="39" height="39" fill="white"/>
</clipPath>
</defs>
</svg>
