<svg width="39" height="39" viewBox="0 0 39 39" fill="none" xmlns="http://www.w3.org/2000/svg">
<g clipPath="url(#clip0_297_1503)">
<path d="M11.3225 6.29042C11.3225 5.25 10.4759 4.40332 9.43544 4.40332C8.39502 4.40332 7.54834 5.25 7.54834 6.29042C7.54834 7.33084 8.39502 8.17751 9.43544 8.17751C10.4759 8.17751 11.3225 7.33084 11.3225 6.29042ZM8.8064 6.29042C8.8064 5.94319 9.08821 5.66138 9.43544 5.66138C9.78266 5.66138 10.0645 5.94319 10.0645 6.29042C10.0645 6.63764 9.78266 6.91945 9.43544 6.91945C9.08821 6.91945 8.8064 6.63764 8.8064 6.29042Z" fill="url(#paint0_linear_297_1503)"/>
<path d="M14.4677 8.17751C15.5081 8.17751 16.3548 7.33084 16.3548 6.29042C16.3548 5.25 15.5081 4.40332 14.4677 4.40332C13.4272 4.40332 12.5806 5.25 12.5806 6.29042C12.5806 7.33084 13.4272 8.17751 14.4677 8.17751ZM14.4677 5.66138C14.8149 5.66138 15.0967 5.94319 15.0967 6.29042C15.0967 6.63764 14.8149 6.91945 14.4677 6.91945C14.1204 6.91945 13.8386 6.63764 13.8386 6.29042C13.8386 5.94319 14.1204 5.66138 14.4677 5.66138Z" fill="url(#paint1_linear_297_1503)"/>
<path d="M10.0645 21.3872C11.4521 21.3872 12.5806 20.2588 12.5806 18.8711C12.5806 17.4835 11.4521 16.355 10.0645 16.355C8.67682 16.355 7.54834 17.4835 7.54834 18.8711C7.54834 20.2588 8.67682 21.3872 10.0645 21.3872ZM10.0645 17.613C10.7577 17.613 11.3225 18.1773 11.3225 18.8711C11.3225 19.5649 10.7577 20.1292 10.0645 20.1292C9.37065 20.1292 8.8064 19.5649 8.8064 18.8711C8.8064 18.1773 9.37065 17.613 10.0645 17.613Z" fill="url(#paint2_linear_297_1503)"/>
<path d="M16.355 16.355H13.8389V17.613H16.355V16.355Z" fill="url(#paint3_linear_297_1503)"/>
<path d="M16.355 18.8711H13.8389V20.1292H16.355V18.8711Z" fill="url(#paint4_linear_297_1503)"/>
<path d="M16.3548 22.645H7.54834V23.9031H16.3548V22.645Z" fill="url(#paint5_linear_297_1503)"/>
<path d="M24.5323 0C22.001 0 19.522 0.668032 17.3386 1.92295C17.2235 1.90094 17.1053 1.8871 16.9839 1.8871H12.5806V0H11.3226V1.8871H6.91935C5.87894 1.8871 5.03226 2.73377 5.03226 3.77419V10.0645C5.03226 11.1049 5.87894 11.9516 6.91935 11.9516H7.54839V13.8387H5.66129H5.03226H4.40323C2.66898 13.8387 1.25806 15.2496 1.25806 16.9839V18.2419V18.871V27.2126C0.490016 27.8479 0 28.8072 0 29.879V30.1935H1.25806V29.879C1.25806 28.665 2.24565 27.6774 3.45968 27.6774C4.67371 27.6774 5.66129 28.665 5.66129 29.879V30.1935H6.91935V29.879C6.91935 29.1412 6.68535 28.4587 6.29032 27.8963V25.9822C6.79732 26.7043 7.43768 27.3245 8.17742 27.8083V39H15.7258V27.8083C16.4649 27.3245 17.1053 26.7043 17.6129 25.9822V27.8963C17.2179 28.4587 16.9839 29.1412 16.9839 29.879V30.1935H18.2419V29.879C18.2419 28.665 19.2295 27.6774 20.4435 27.6774C21.6576 27.6774 22.6452 28.665 22.6452 29.879V30.1935H23.9032V29.879C23.9032 29.5431 23.8529 29.2192 23.763 28.9116C24.0196 28.9254 24.2762 28.9355 24.5323 28.9355C32.5103 28.9355 39 22.4458 39 14.4677C39 6.48973 32.5103 0 24.5323 0ZM5.03226 22.0161V26.8012C4.55985 26.559 4.02644 26.4194 3.45968 26.4194C3.13195 26.4194 2.81681 26.4678 2.51613 26.5533V18.871H5.03226V22.0161ZM5.03226 17.6129H2.51613V16.9839C2.51613 15.9435 3.36281 15.0968 4.40323 15.0968H5.03226V17.6129ZM6.91935 10.6935C6.57213 10.6935 6.29032 10.4117 6.29032 10.0645V3.77419C6.29032 3.42697 6.57213 3.14516 6.91935 3.14516H16.9839C17.3311 3.14516 17.6129 3.42697 17.6129 3.77419V10.0645C17.6129 10.4117 17.3311 10.6935 16.9839 10.6935H14.4677V9.43548C14.4677 8.74229 13.9029 8.17742 13.2097 8.17742H10.6935C9.99973 8.17742 9.43548 8.74229 9.43548 9.43548V10.6935H6.91935ZM15.0968 11.9516V13.8387H8.80645V11.9516H15.0968ZM10.6935 10.6935V9.43548H13.2097V10.6935H10.6935ZM14.4677 30.1935H13.2097V31.4516H14.4677V32.7097H13.2097V33.9677H14.4677V35.2258H13.2097V36.4839H14.4677V37.7419H9.43548V36.4839H10.6935V35.2258H9.43548V33.9677H10.6935V32.7097H9.43548V31.4516H10.6935V30.1935H9.43548V28.4549C10.2167 28.7612 11.0634 28.9355 11.9516 28.9355C12.8398 28.9355 13.6865 28.7612 14.4677 28.4549V30.1935ZM17.6129 22.0161C17.6129 25.138 15.0735 27.6774 11.9516 27.6774C8.82973 27.6774 6.29032 25.138 6.29032 22.0161V15.0968H17.6129V22.0161ZM16.3548 13.8387V11.9516H16.9839C17.4984 11.9516 17.9645 11.7434 18.3055 11.4081C18.4615 12.3567 18.9181 13.204 19.5786 13.8463C19.5516 13.8456 19.527 13.8387 19.5 13.8387H18.871H18.2419H16.3548ZM21.3871 26.5533C21.0864 26.4678 20.7706 26.4194 20.4435 26.4194C19.8768 26.4194 19.3434 26.559 18.871 26.8012V22.0161V18.871H21.3871V26.5533ZM21.3871 17.6129H18.871V15.0968H19.5C20.5404 15.0968 21.3871 15.9435 21.3871 16.9839V17.6129ZM21.9501 15.0364C22.1772 15.0729 22.408 15.0968 22.6452 15.0968H26.4194C28.1536 15.0968 29.5645 16.5077 29.5645 18.2419C29.5645 19.9762 28.1536 21.3871 26.4194 21.3871H22.6452V18.871V18.2419V16.9839C22.6452 16.2448 22.3785 15.5736 21.9501 15.0364ZM36.9494 18.9314L35.8146 18.4615L35.3327 19.6239L36.4663 20.0938C35.9026 21.2846 35.1686 22.3759 34.2911 23.3396L33.4268 22.4753L32.5373 23.3648L33.4016 24.2291C32.4379 25.1059 31.3466 25.8406 30.1558 26.4043L29.6859 25.2707L28.5235 25.7526L28.9934 26.8874C27.7862 27.3226 26.4999 27.5843 25.16 27.6479V26.4194H23.902V27.6579C23.6095 27.6441 23.3182 27.6221 23.0289 27.5894C22.9106 27.4547 22.7835 27.327 22.6452 27.2126V22.6452H23.9032V25.1613H25.1613V22.6452H26.4194C28.8468 22.6452 30.8226 20.6694 30.8226 18.2419C30.8226 15.8145 28.8468 13.8387 26.4194 13.8387H22.6452C20.9109 13.8387 19.5 12.4278 19.5 10.6935C19.5 8.95931 20.9109 7.54839 22.6452 7.54839H26.4194C28.1536 7.54839 29.5645 8.95931 29.5645 10.6935H30.8226C30.8226 8.26611 28.8468 6.29032 26.4194 6.29032H25.1613V3.77419H23.9032V6.29032H22.6452C21.0424 6.29032 19.6415 7.15398 18.871 8.43721V3.77419C18.871 3.37476 18.7445 3.00489 18.5313 2.69981C18.654 2.6369 18.7798 2.58344 18.9043 2.52494L19.3773 3.66726L20.5398 3.18542L20.0649 2.03932C21.2946 1.59648 22.5879 1.34173 23.9032 1.27945V2.51613H25.1613V1.29015C26.5011 1.35368 27.7875 1.61535 28.9946 2.05065L28.5247 3.18542L29.6872 3.66726L30.1571 2.53374C31.3478 3.09735 32.4392 3.83206 33.4029 4.70894L32.5386 5.57323L33.428 6.46268L34.2923 5.59839C35.1692 6.56206 35.9039 7.65344 36.4675 8.84419L35.334 9.31408L35.8158 10.4765L36.9506 10.0066C37.3859 11.2138 37.6476 12.5001 37.7111 13.84H36.4839V15.098H37.7099C37.6463 16.4379 37.3846 17.7242 36.9494 18.9314Z" fill="url(#paint6_linear_297_1503)"/>
<path d="M33.3386 37.7417H32.0806V38.9998H33.3386V37.7417Z" fill="url(#paint7_linear_297_1503)"/>
<path d="M33.3386 35.2256H32.0806V36.4837H33.3386V35.2256Z" fill="url(#paint8_linear_297_1503)"/>
<path d="M34.5969 36.4839H33.3389V37.742H34.5969V36.4839Z" fill="url(#paint9_linear_297_1503)"/>
<path d="M32.0808 36.4839H30.8228V37.742H32.0808V36.4839Z" fill="url(#paint10_linear_297_1503)"/>
<path d="M20.7581 33.9678H19.5V35.2258H20.7581V33.9678Z" fill="url(#paint11_linear_297_1503)"/>
<path d="M20.7581 31.4517H19.5V32.7097H20.7581V31.4517Z" fill="url(#paint12_linear_297_1503)"/>
<path d="M22.0164 32.7095H20.7583V33.9675H22.0164V32.7095Z" fill="url(#paint13_linear_297_1503)"/>
<path d="M19.4998 32.7095H18.2417V33.9675H19.4998V32.7095Z" fill="url(#paint14_linear_297_1503)"/>
<path d="M37.742 28.3066H36.4839V29.5647H37.742V28.3066Z" fill="url(#paint15_linear_297_1503)"/>
<path d="M37.742 25.7905H36.4839V27.0486H37.742V25.7905Z" fill="url(#paint16_linear_297_1503)"/>
<path d="M38.9998 27.0483H37.7417V28.3064H38.9998V27.0483Z" fill="url(#paint17_linear_297_1503)"/>
<path d="M36.4837 27.0483H35.2256V28.3064H36.4837V27.0483Z" fill="url(#paint18_linear_297_1503)"/>
</g>
<defs>
<linearGradient id="paint0_linear_297_1503" x1="7.16042" y1="4.09357" x2="11.7749" y2="4.79996" gradientUnits="userSpaceOnUse">
<stop stopColor="#FC365F"/>
<stop offset="0.984375" stopColor="#A00BFB"/>
</linearGradient>
<linearGradient id="paint1_linear_297_1503" x1="12.1926" y1="4.09357" x2="16.8071" y2="4.79996" gradientUnits="userSpaceOnUse">
<stop stopColor="#FC365F"/>
<stop offset="0.984375" stopColor="#A00BFB"/>
</linearGradient>
<linearGradient id="paint2_linear_297_1503" x1="7.03112" y1="15.942" x2="13.1838" y2="16.8838" gradientUnits="userSpaceOnUse">
<stop stopColor="#FC365F"/>
<stop offset="0.984375" stopColor="#A00BFB"/>
</linearGradient>
<linearGradient id="paint3_linear_297_1503" x1="13.5803" y1="16.2517" x2="16.4588" y2="17.133" gradientUnits="userSpaceOnUse">
<stop stopColor="#FC365F"/>
<stop offset="0.984375" stopColor="#A00BFB"/>
</linearGradient>
<linearGradient id="paint4_linear_297_1503" x1="13.5803" y1="18.7678" x2="16.4588" y2="19.6492" gradientUnits="userSpaceOnUse">
<stop stopColor="#FC365F"/>
<stop offset="0.984375" stopColor="#A00BFB"/>
</linearGradient>
<linearGradient id="paint5_linear_297_1503" x1="6.6432" y1="22.5418" x2="11.7727" y2="28.0383" gradientUnits="userSpaceOnUse">
<stop stopColor="#FC365F"/>
<stop offset="0.984375" stopColor="#A00BFB"/>
</linearGradient>
<linearGradient id="paint6_linear_297_1503" x1="-4.00847" y1="-3.20074" x2="43.6745" y2="4.09856" gradientUnits="userSpaceOnUse">
<stop stopColor="#FC365F"/>
<stop offset="0.984375" stopColor="#A00BFB"/>
</linearGradient>
<linearGradient id="paint7_linear_297_1503" x1="31.9513" y1="37.6384" x2="33.4894" y2="37.8739" gradientUnits="userSpaceOnUse">
<stop stopColor="#FC365F"/>
<stop offset="0.984375" stopColor="#A00BFB"/>
</linearGradient>
<linearGradient id="paint8_linear_297_1503" x1="31.9513" y1="35.1223" x2="33.4894" y2="35.3578" gradientUnits="userSpaceOnUse">
<stop stopColor="#FC365F"/>
<stop offset="0.984375" stopColor="#A00BFB"/>
</linearGradient>
<linearGradient id="paint9_linear_297_1503" x1="33.2096" y1="36.3806" x2="34.7477" y2="36.6161" gradientUnits="userSpaceOnUse">
<stop stopColor="#FC365F"/>
<stop offset="0.984375" stopColor="#A00BFB"/>
</linearGradient>
<linearGradient id="paint10_linear_297_1503" x1="30.6934" y1="36.3806" x2="32.2316" y2="36.6161" gradientUnits="userSpaceOnUse">
<stop stopColor="#FC365F"/>
<stop offset="0.984375" stopColor="#A00BFB"/>
</linearGradient>
<linearGradient id="paint11_linear_297_1503" x1="19.3707" y1="33.8645" x2="20.9089" y2="34.1" gradientUnits="userSpaceOnUse">
<stop stopColor="#FC365F"/>
<stop offset="0.984375" stopColor="#A00BFB"/>
</linearGradient>
<linearGradient id="paint12_linear_297_1503" x1="19.3707" y1="31.3484" x2="20.9089" y2="31.5839" gradientUnits="userSpaceOnUse">
<stop stopColor="#FC365F"/>
<stop offset="0.984375" stopColor="#A00BFB"/>
</linearGradient>
<linearGradient id="paint13_linear_297_1503" x1="20.629" y1="32.6062" x2="22.1672" y2="32.8417" gradientUnits="userSpaceOnUse">
<stop stopColor="#FC365F"/>
<stop offset="0.984375" stopColor="#A00BFB"/>
</linearGradient>
<linearGradient id="paint14_linear_297_1503" x1="18.1124" y1="32.6062" x2="19.6506" y2="32.8417" gradientUnits="userSpaceOnUse">
<stop stopColor="#FC365F"/>
<stop offset="0.984375" stopColor="#A00BFB"/>
</linearGradient>
<linearGradient id="paint15_linear_297_1503" x1="36.3546" y1="28.2034" x2="37.8927" y2="28.4389" gradientUnits="userSpaceOnUse">
<stop stopColor="#FC365F"/>
<stop offset="0.984375" stopColor="#A00BFB"/>
</linearGradient>
<linearGradient id="paint16_linear_297_1503" x1="36.3546" y1="25.6873" x2="37.8927" y2="25.9227" gradientUnits="userSpaceOnUse">
<stop stopColor="#FC365F"/>
<stop offset="0.984375" stopColor="#A00BFB"/>
</linearGradient>
<linearGradient id="paint17_linear_297_1503" x1="37.6124" y1="26.9451" x2="39.1506" y2="27.1806" gradientUnits="userSpaceOnUse">
<stop stopColor="#FC365F"/>
<stop offset="0.984375" stopColor="#A00BFB"/>
</linearGradient>
<linearGradient id="paint18_linear_297_1503" x1="35.0963" y1="26.9451" x2="36.6344" y2="27.1806" gradientUnits="userSpaceOnUse">
<stop stopColor="#FC365F"/>
<stop offset="0.984375" stopColor="#A00BFB"/>
</linearGradient>
<clipPath id="clip0_297_1503">
<rect width="39" height="39" fill="white"/>
</clipPath>
</defs>
</svg>
