<svg width="39" height="39" viewBox="0 0 39 39" fill="none" xmlns="http://www.w3.org/2000/svg">
<g clipPath="url(#clip0_297_1444)">
<path d="M29.8998 9.1001C24.8819 9.1001 20.7998 13.1821 20.7998 18.2001C20.7998 23.2182 24.8819 27.3001 29.8998 27.3001C34.9178 27.3001 38.9999 23.2181 38.9999 18.2C38.9999 13.182 34.9179 9.1001 29.8998 9.1001ZM29.8998 26C25.5988 26 22.0998 22.5011 22.0998 18.2C22.0998 13.899 25.5988 10.4 29.8998 10.4C34.2009 10.4 37.6998 13.899 37.6998 18.2C37.6998 22.5011 34.2009 26 29.8998 26Z" fill="url(#paint0_linear_297_1444)"/>
<path d="M29.8998 14.95C30.6167 14.95 31.1998 15.533 31.1998 16.25C31.1998 16.6088 31.491 16.9 31.8498 16.9C32.2085 16.9 32.4998 16.6088 32.4998 16.25C32.4998 15.0423 31.6677 14.0329 30.5498 13.7423V13.65C30.5498 13.2912 30.2585 13 29.8998 13C29.541 13 29.2498 13.2912 29.2498 13.65V13.7423C28.1318 14.0328 27.2998 15.0423 27.2998 16.25C27.2998 17.684 28.4659 18.85 29.8998 18.85C30.6167 18.85 31.1998 19.433 31.1998 20.15C31.1998 20.867 30.6168 21.4501 29.8998 21.4501C29.1828 21.4501 28.5998 20.867 28.5998 20.15C28.5998 19.7913 28.3086 19.5001 27.9498 19.5001C27.591 19.5001 27.2998 19.7913 27.2998 20.15C27.2998 21.3577 28.1318 22.3672 29.2498 22.6578V22.7501C29.2498 23.1088 29.541 23.4 29.8998 23.4C30.2585 23.4 30.5498 23.1088 30.5498 22.7501V22.6578C31.6677 22.3672 32.4998 21.3577 32.4998 20.15C32.4998 18.7161 31.3336 17.5501 29.8998 17.5501C29.1828 17.5501 28.5998 16.967 28.5998 16.25C28.5998 15.533 29.1828 14.95 29.8998 14.95Z" fill="url(#paint1_linear_297_1444)"/>
<path d="M9.10017 7.8C9.45894 7.8 9.75014 7.50879 9.75014 7.15003V4.54997C9.75014 2.75796 11.2081 1.29995 13.0002 1.29995H26.0002C27.7922 1.29995 29.2502 2.75788 29.2502 4.54997V7.14995C29.2502 7.50872 29.5414 7.79992 29.9002 7.79992C30.259 7.79992 30.5502 7.50872 30.5502 7.14995V4.54997C30.5502 2.04103 28.5091 0 26.0001 0H13.0002C10.4911 0 8.4502 2.04103 8.4502 4.54997V7.14995C8.45012 7.50879 8.74132 7.8 9.10017 7.8Z" fill="url(#paint2_linear_297_1444)"/>
<path d="M9.10003 9.1001C4.08197 9.1001 0 13.1821 0 18.2V29.9C0 34.9181 4.08197 39.0001 9.10003 39.0001C14.1181 39.0001 18.2001 34.9181 18.2001 29.9V24.05C18.2001 23.6913 17.9088 23.4001 17.5501 23.4001C17.1913 23.4001 16.9001 23.6913 16.9001 24.05V29.9C16.9001 34.2011 13.4011 37.7 9.1001 37.7C4.79906 37.7 1.3001 34.2011 1.3001 29.9V18.2C1.3001 14.1187 4.45324 10.7654 8.45013 10.4332V20.8H3.25003C2.89126 20.8 2.60005 21.0912 2.60005 21.45C2.60005 21.8088 2.89126 22.1 3.25003 22.1H17.55C17.9088 22.1 18.2 21.8088 18.2 21.45V18.2C18.2 13.1821 14.118 9.1001 9.10003 9.1001ZM16.9 20.8001H9.75V10.4333C13.7468 10.7654 16.9 14.1188 16.9 18.2001V20.8001Z" fill="url(#paint3_linear_297_1444)"/>
</g>
<defs>
<linearGradient id="paint0_linear_297_1444" x1="18.9292" y1="7.60642" x2="41.1813" y2="11.0128" gradientUnits="userSpaceOnUse">
<stop stopColor="#FC365F"/>
<stop offset="0.984375" stopColor="#A00BFB"/>
</linearGradient>
<linearGradient id="paint1_linear_297_1444" x1="26.7653" y1="12.1465" x2="33.2341" y2="12.6416" gradientUnits="userSpaceOnUse">
<stop stopColor="#FC365F"/>
<stop offset="0.984375" stopColor="#A00BFB"/>
</linearGradient>
<linearGradient id="paint2_linear_297_1444" x1="6.17873" y1="-0.640149" x2="29.4537" y2="9.45484" gradientUnits="userSpaceOnUse">
<stop stopColor="#FC365F"/>
<stop offset="0.984375" stopColor="#A00BFB"/>
</linearGradient>
<linearGradient id="paint3_linear_297_1444" x1="-1.87062" y1="6.6462" x2="20.7069" y2="8.74996" gradientUnits="userSpaceOnUse">
<stop stopColor="#FC365F"/>
<stop offset="0.984375" stopColor="#A00BFB"/>
</linearGradient>
<clipPath id="clip0_297_1444">
<rect width="39" height="39" fill="white"/>
</clipPath>
</defs>
</svg>
