<svg width="39" height="39" viewBox="0 0 39 39" fill="none" xmlns="http://www.w3.org/2000/svg">
<path d="M34.125 22.5209V19.5C34.125 19.069 33.9537 18.6557 33.649 18.351C33.3443 18.0462 32.9309 17.875 32.5 17.875C32.069 17.875 31.6556 18.0462 31.3509 18.351C31.0462 18.6557 30.875 19.069 30.875 19.5V21.125H8.12495V6.5H19.5C19.9309 6.5 20.3443 6.3288 20.649 6.02405C20.9537 5.7193 21.125 5.30598 21.125 4.875C21.125 4.44402 20.9537 4.0307 20.649 3.72595C20.3443 3.4212 19.9309 3.25 19.5 3.25H8.12495C7.263 3.25 6.43635 3.59241 5.82685 4.2019C5.21736 4.8114 4.87495 5.63805 4.87495 6.5V22.5209L1.6867 33.6797C1.6178 33.9216 1.60597 34.1761 1.65212 34.4233C1.69828 34.6705 1.80117 34.9036 1.95269 35.1042C2.10422 35.3049 2.30025 35.4677 2.52535 35.5797C2.75046 35.6918 2.9985 35.7501 3.24995 35.75H35.75C36.0014 35.7501 36.2494 35.6918 36.4745 35.5797C36.6997 35.4677 36.8957 35.3049 37.0472 35.1042C37.1987 34.9036 37.3016 34.6705 37.3478 34.4233C37.3939 34.1761 37.3821 33.9216 37.3132 33.6797L34.125 22.5209ZM5.4047 32.5L7.7252 24.375H31.2747L33.5952 32.5H5.4047ZM36.725 6.825H35.7045C35.5694 6.82211 35.4384 6.77874 35.3283 6.70052C35.2182 6.62229 35.1341 6.51281 35.087 6.38625V6.37812C35.0318 6.25527 35.0148 6.11873 35.0379 5.98609C35.0611 5.85344 35.1235 5.73077 35.217 5.63387L35.9384 4.91237C36.0001 4.85187 36.0491 4.77967 36.0825 4.70001C36.116 4.62035 36.1332 4.53483 36.1332 4.44844C36.1332 4.36205 36.116 4.27652 36.0825 4.19686C36.0491 4.1172 36.0001 4.04501 35.9384 3.9845L35.0268 3.07288C34.9663 3.01121 34.8941 2.96223 34.8145 2.92879C34.7348 2.89536 34.6493 2.87814 34.5629 2.87814C34.4765 2.87814 34.391 2.89536 34.3113 2.92879C34.2317 2.96223 34.1595 3.01121 34.0989 3.07288L33.3775 3.79437C33.2806 3.88799 33.1578 3.95029 33.0251 3.97319C32.8924 3.99608 32.7558 3.97851 32.6332 3.92275H32.6235C32.4973 3.87514 32.3883 3.79091 32.3104 3.68088C32.2325 3.57084 32.1893 3.44003 32.1863 3.30525V2.275C32.1863 2.10261 32.1178 1.93728 31.9959 1.81538C31.874 1.69348 31.7087 1.625 31.5363 1.625H30.225C30.0526 1.625 29.8872 1.69348 29.7653 1.81538C29.6434 1.93728 29.575 2.10261 29.575 2.275V3.2955C29.572 3.43028 29.5288 3.56109 29.4509 3.67113C29.373 3.78116 29.264 3.86539 29.1378 3.913H29.1281C29.0055 3.96876 28.8689 3.98633 28.7362 3.96344C28.6034 3.94054 28.4807 3.87824 28.3838 3.78463L27.6623 3.06313C27.6018 3.00146 27.5296 2.95248 27.45 2.91904C27.3703 2.88561 27.2848 2.86839 27.1984 2.86839C27.112 2.86839 27.0265 2.88561 26.9468 2.91904C26.8672 2.95248 26.795 3.00146 26.7344 3.06313L25.8228 3.97475C25.7612 4.03526 25.7122 4.10745 25.6787 4.18711C25.6453 4.26677 25.6281 4.3523 25.6281 4.43869C25.6281 4.52508 25.6453 4.6106 25.6787 4.69026C25.7122 4.76992 25.7612 4.84212 25.8228 4.90262L26.5443 5.62413C26.6378 5.72102 26.7002 5.84369 26.7233 5.97634C26.7465 6.10898 26.7294 6.24552 26.6743 6.36837V6.3765C26.6272 6.50306 26.5431 6.61254 26.433 6.69077C26.3229 6.76899 26.1919 6.81236 26.0568 6.81525H25.025C24.8526 6.81525 24.6872 6.88373 24.5653 7.00563C24.4434 7.12753 24.375 7.29286 24.375 7.46525V8.775C24.375 8.94739 24.4434 9.11272 24.5653 9.23462C24.6872 9.35652 24.8526 9.425 25.025 9.425H26.0455C26.1802 9.42798 26.311 9.4712 26.4211 9.54909C26.5311 9.62698 26.6153 9.736 26.663 9.86212V9.87187C26.7181 9.99473 26.7351 10.1313 26.712 10.2639C26.6888 10.3966 26.6264 10.5192 26.5329 10.6161L25.8115 11.3376C25.7498 11.3981 25.7008 11.4703 25.6674 11.55C25.6339 11.6296 25.6167 11.7152 25.6167 11.8016C25.6167 11.888 25.6339 11.9735 25.6674 12.0531C25.7008 12.1328 25.7498 12.205 25.8115 12.2655L26.7231 13.1771C26.7836 13.2388 26.8558 13.2878 26.9354 13.3212C27.0151 13.3546 27.1006 13.3719 27.187 13.3719C27.2734 13.3719 27.3589 13.3546 27.4386 13.3212C27.5182 13.2878 27.5904 13.2388 27.651 13.1771L28.3724 12.4556C28.4694 12.3621 28.592 12.2998 28.7247 12.2766C28.8573 12.2534 28.9938 12.2705 29.1167 12.3256H29.1265C29.2528 12.3729 29.3621 12.457 29.44 12.5671C29.518 12.6772 29.561 12.8082 29.5636 12.9431V13.975C29.5636 14.1474 29.6321 14.3127 29.754 14.4346C29.8759 14.5565 30.0412 14.625 30.2136 14.625H31.525C31.6973 14.625 31.8627 14.5565 31.9846 14.4346C32.1065 14.3127 32.175 14.1474 32.1749 13.975V12.948C32.1775 12.8131 32.2205 12.6821 32.2985 12.572C32.3764 12.4619 32.4857 12.3777 32.6121 12.3305H32.6218C32.7447 12.2754 32.8812 12.2583 33.0139 12.2815C33.1465 12.3047 33.2692 12.367 33.3661 12.4605L34.0876 13.182C34.1481 13.2437 34.2203 13.2926 34.2999 13.3261C34.3796 13.3595 34.4651 13.3767 34.5515 13.3767C34.6379 13.3767 34.7234 13.3595 34.8031 13.3261C34.8828 13.2926 34.9549 13.2437 35.0155 13.182L35.9271 12.2704C35.9887 12.2099 36.0377 12.1377 36.0712 12.058C36.1046 11.9784 36.1218 11.8928 36.1218 11.8064C36.1218 11.72 36.1046 11.6345 36.0712 11.5549C36.0377 11.4752 35.9887 11.403 35.9271 11.3425L35.2056 10.621C35.1121 10.5241 35.0497 10.4014 35.0266 10.2688C35.0034 10.1361 35.0205 9.99961 35.0756 9.87675V9.867C35.1232 9.74087 35.2074 9.63186 35.3175 9.55396C35.4275 9.47607 35.5583 9.43286 35.6931 9.42987H36.725C36.8103 9.42987 36.8948 9.41306 36.9737 9.3804C37.0526 9.34773 37.1242 9.29985 37.1846 9.23949C37.2449 9.17914 37.2928 9.10748 37.3255 9.02862C37.3581 8.94976 37.375 8.86523 37.375 8.77987V7.475C37.375 7.30261 37.3065 7.13728 37.1846 7.01538C37.0627 6.89348 36.8973 6.825 36.725 6.825ZM30.875 10.075C30.4893 10.075 30.1123 9.96063 29.7916 9.74637C29.4709 9.5321 29.221 9.22755 29.0734 8.87123C28.9258 8.51492 28.8872 8.12284 28.9624 7.74457C29.0377 7.36631 29.2234 7.01885 29.4961 6.74614C29.7688 6.47343 30.1163 6.28771 30.4945 6.21247C30.8728 6.13723 31.2649 6.17584 31.6212 6.32343C31.9775 6.47103 32.282 6.72096 32.4963 7.04164C32.7106 7.36231 32.825 7.73933 32.825 8.125C32.825 8.64217 32.6195 9.13816 32.2538 9.50386C31.8881 9.86955 31.3921 10.075 30.875 10.075Z" fill="url(#paint0_linear_297_1468)"/>
<defs>
<linearGradient id="paint0_linear_297_1468" x1="-2.05001" y1="-1.17565" x2="41.563" y2="5.81872" gradientUnits="userSpaceOnUse">
<stop stopColor="#FC365F"/>
<stop offset="0.984375" stopColor="#A00BFB"/>
</linearGradient>
</defs>
</svg>
