<svg width="39" height="39" viewBox="0 0 39 39" fill="none" xmlns="http://www.w3.org/2000/svg">
<path d="M29.5942 31.0669C29.3093 31.0669 29.0782 31.298 29.0782 31.5829V32.6523C29.0782 34.0576 27.9349 35.2009 26.5296 35.2009H8.14888C8.75384 34.6544 9.21735 33.8703 9.21735 32.7903V27.744C9.21735 27.459 8.98632 27.228 8.70136 27.228C8.4164 27.228 8.18537 27.459 8.18537 27.744V32.7903C8.18537 34.7748 5.95727 35.1917 5.86388 35.2083C5.84864 35.2109 5.83463 35.2162 5.81993 35.2201C5.7775 35.2089 5.73378 35.2009 5.68785 35.2009C4.58556 35.2009 3.68879 34.3042 3.68879 33.2019V29.8322H6.47516C6.76012 29.8322 6.99115 29.6012 6.99115 29.3162C6.99115 29.0312 6.76012 28.8002 6.47516 28.8002H3.17273C2.88777 28.8002 2.65674 29.0312 2.65674 29.3162V33.202C2.65674 34.8733 4.01648 36.2331 5.68777 36.2331C5.73355 36.2331 5.77704 36.2251 5.81932 36.214C5.86159 36.2251 5.90501 36.2331 5.95064 36.2331H26.5295C28.5039 36.2331 30.1102 34.6268 30.1102 32.6524V31.583C30.1102 31.298 29.8792 31.0669 29.5942 31.0669Z" fill="url(#paint0_linear_297_1452)"/>
<path d="M8.70105 10.3629C8.98608 10.3629 9.21703 10.1319 9.21703 9.84693V3.79858H29.0779V10.543C29.0779 10.828 29.3089 11.059 29.5939 11.059C29.8788 11.059 30.1098 10.8279 30.1098 10.543V3.28259C30.1098 2.99763 29.8788 2.7666 29.5939 2.7666H8.70105C8.41609 2.7666 8.18506 2.99763 8.18506 3.28259V9.84693C8.18513 10.132 8.41609 10.3629 8.70105 10.3629Z" fill="url(#paint1_linear_297_1452)"/>
<path d="M18.3671 7.08887C18.082 7.08887 17.8511 7.3199 17.8511 7.60486C17.8511 7.88989 18.0821 8.12084 18.3671 8.12084H26.6885C26.9735 8.12084 27.2044 7.88981 27.2044 7.60486C27.2044 7.3199 26.9735 7.08887 26.6885 7.08887H18.3671Z" fill="url(#paint2_linear_297_1452)"/>
<path d="M11.5018 7.08887C11.2169 7.08887 10.9858 7.3199 10.9858 7.60486C10.9858 7.88989 11.2169 8.12084 11.5018 8.12084H15.1904C15.4753 8.12084 15.7064 7.88981 15.7064 7.60486C15.7064 7.3199 15.4753 7.08887 15.1904 7.08887H11.5018Z" fill="url(#paint3_linear_297_1452)"/>
<path d="M26.6882 33.0325C26.9732 33.0325 27.2042 32.8014 27.2042 32.5165C27.2042 32.2316 26.9732 32.0005 26.6882 32.0005H23.1049C22.8198 32.0005 22.5889 32.2316 22.5889 32.5165C22.5889 32.8014 22.8198 33.0325 23.1049 33.0325H26.6882Z" fill="url(#paint4_linear_297_1452)"/>
<path d="M10.9858 32.5165C10.9858 32.8014 11.2169 33.0325 11.5018 33.0325H19.6009C19.8858 33.0325 20.1169 32.8014 20.1169 32.5165C20.1169 32.2316 19.8858 32.0005 19.6009 32.0005H11.5018C11.2169 32.0004 10.9858 32.2315 10.9858 32.5165Z" fill="url(#paint5_linear_297_1452)"/>
<path d="M15.5479 28.3491H11.5018C11.2169 28.3491 10.9858 28.5801 10.9858 28.865C10.9858 29.1501 11.2169 29.381 11.5018 29.381H15.5479C15.833 29.381 16.0639 29.1501 16.0639 28.865C16.064 28.5801 15.833 28.3491 15.5479 28.3491Z" fill="url(#paint6_linear_297_1452)"/>
<path d="M27.1056 20.9688H18.7631C18.7606 20.9688 18.7583 20.9694 18.7558 20.9695C18.7369 20.9697 18.7184 20.9728 18.6998 20.9751C18.6842 20.977 18.6684 20.9777 18.6533 20.981C18.6397 20.984 18.6268 20.9892 18.6135 20.9934C18.5946 20.9991 18.5755 21.004 18.5576 21.0117C18.5469 21.0164 18.5373 21.023 18.5269 21.0284C18.508 21.0382 18.4888 21.0474 18.4715 21.0593C18.4592 21.0677 18.4486 21.0783 18.4371 21.0877C18.4232 21.0991 18.4086 21.1096 18.396 21.1224C18.3851 21.1334 18.3763 21.1463 18.3664 21.1583C18.3549 21.1723 18.3428 21.1854 18.3328 21.2005C18.3256 21.2114 18.3203 21.2239 18.3138 21.2354C18.3036 21.2539 18.2931 21.272 18.2851 21.2917C18.2843 21.2938 18.283 21.2955 18.2821 21.2975C18.1997 21.5093 18.1052 21.7198 18.0014 21.923C17.8718 22.1768 17.9724 22.4875 18.2261 22.6172C18.3013 22.6557 18.3815 22.6739 18.4604 22.6739C18.6481 22.6739 18.8292 22.571 18.9204 22.3925C18.9859 22.2641 19.0474 22.133 19.1061 22.0007H27.1054C27.3904 22.0007 27.6214 21.7697 27.6214 21.4847C27.6216 21.1997 27.3906 20.9688 27.1056 20.9688Z" fill="url(#paint7_linear_297_1452)"/>
<path d="M21.1678 18.7753H22.525C22.81 18.7753 23.0411 18.5442 23.0411 18.2593V16.8528C23.0411 16.7141 23.1538 16.6013 23.2925 16.6013H24.9905C25.0816 16.6013 25.1413 16.6479 25.169 16.6757C25.1965 16.7035 25.2427 16.7637 25.242 16.8549L25.2305 18.2881C25.2294 18.4256 25.2833 18.5579 25.3802 18.6555C25.4771 18.7532 25.609 18.8082 25.7466 18.8082H27.1544C27.4395 18.8082 27.6704 18.5771 27.6704 18.2922C27.6704 18.0072 27.4395 17.7762 27.1544 17.7762H26.2667L26.274 16.8631C26.2768 16.5183 26.1446 16.1936 25.9016 15.9488C25.6588 15.7041 25.3353 15.5693 24.9905 15.5693H23.2926C22.5849 15.5693 22.0091 16.1452 22.0091 16.8529V17.7433H21.1678C20.8829 17.7433 20.6519 17.9743 20.6519 18.2593C20.6518 18.5442 20.8828 18.7753 21.1678 18.7753Z" fill="url(#paint8_linear_297_1452)"/>
<path d="M11.9073 26.687C12.5102 26.687 13.1111 26.6185 13.6933 26.4833C13.9709 26.4189 14.1437 26.1418 14.0792 25.8641C14.0149 25.5865 13.7379 25.4133 13.46 25.4782C12.9542 25.5955 12.4319 25.655 11.9073 25.655C8.13683 25.655 5.06924 22.5874 5.06924 18.8169C5.06924 15.0463 8.13683 11.9788 11.9073 11.9788C12.8034 11.9788 13.6743 12.1492 14.4957 12.4855C14.7595 12.5935 15.0608 12.4671 15.1687 12.2035C15.2767 11.9398 15.1504 11.6384 14.8867 11.5304C13.9405 11.1431 12.9381 10.9468 11.9073 10.9468C7.56768 10.9468 4.03711 14.4773 4.03711 18.8169C4.03719 23.1565 7.56775 26.687 11.9073 26.687Z" fill="url(#paint9_linear_297_1452)"/>
<path d="M11.9077 16.9289C11.9889 16.9289 12.0703 16.9341 12.1498 16.9443C12.433 16.9809 12.691 16.7806 12.7271 16.498C12.7633 16.2153 12.5635 15.9568 12.2809 15.9207C12.1581 15.905 12.0325 15.897 11.9077 15.897C10.2977 15.897 8.98779 17.2068 8.98779 18.8169C8.98779 20.4269 10.2976 21.7367 11.9077 21.7367C12.1926 21.7367 12.4237 21.5057 12.4237 21.2208C12.4237 20.9357 12.1926 20.7048 11.9077 20.7048C10.8666 20.7048 10.0198 19.8579 10.0198 18.8169C10.0198 17.7759 10.8666 16.9289 11.9077 16.9289Z" fill="url(#paint10_linear_297_1452)"/>
<path d="M35.7602 29.9004L32.1341 26.2743C31.9326 26.0728 31.6058 26.0728 31.4043 26.2743C31.2028 26.4758 31.2028 26.8026 31.4043 27.0041L35.0304 30.6301C35.4059 31.0057 35.4059 31.6166 35.0305 31.9923C34.6549 32.3677 34.0438 32.368 33.6682 31.9923L28.8597 27.1837C31.0312 25.4032 32.4194 22.701 32.4194 19.6804C32.4194 14.3313 28.0675 9.97949 22.7185 9.97949C17.3694 9.97949 13.0176 14.3313 13.0176 19.6804C13.0176 25.0294 17.3694 29.3812 22.7185 29.3812C24.6726 29.3812 26.4924 28.7984 28.0168 27.8004L32.9385 32.7219C33.3274 33.1109 33.8383 33.3053 34.3493 33.3053C34.8602 33.3053 35.3711 33.1109 35.7601 32.7219C36.5381 31.9441 36.5381 30.6784 35.7602 29.9004ZM22.7185 28.3493C17.9384 28.3493 14.0496 24.4604 14.0496 19.6804C14.0496 14.9003 17.9384 11.0115 22.7185 11.0115C27.4985 11.0115 31.3874 14.9003 31.3874 19.6804C31.3874 24.4604 27.4985 28.3493 22.7185 28.3493Z" fill="url(#paint11_linear_297_1452)"/>
<path d="M22.7184 12.5835C18.8052 12.5835 15.6216 15.7671 15.6216 19.6804C15.6216 23.5936 18.8052 26.7772 22.7184 26.7772C26.6316 26.7772 29.8152 23.5936 29.8152 19.6804C29.8152 15.7672 26.6316 12.5835 22.7184 12.5835ZM22.7184 25.7452C19.3743 25.7452 16.6536 23.0245 16.6536 19.6804C16.6536 16.3362 19.3743 13.6155 22.7184 13.6155C26.0626 13.6155 28.7832 16.3362 28.7832 19.6804C28.7832 23.0245 26.0625 25.7452 22.7184 25.7452Z" fill="url(#paint12_linear_297_1452)"/>
<path d="M18.6316 17.5701C18.6412 17.6194 18.6482 17.668 18.6565 17.7169C18.6888 17.917 18.7132 18.1188 18.7278 18.3218C18.7281 18.3281 18.7286 18.3345 18.7291 18.3407C18.7339 18.4102 18.7374 18.4797 18.7401 18.5493C18.7431 18.6367 18.7456 18.7246 18.7456 18.8168C18.7456 18.939 18.7411 19.0625 18.7346 19.1851C18.7311 19.2517 18.7278 19.3185 18.7224 19.3844C18.699 19.6685 18.9104 19.9176 19.1943 19.941C19.2087 19.9422 19.223 19.9427 19.2372 19.9427C19.503 19.9427 19.7287 19.7386 19.7509 19.469C19.7552 19.4174 19.7572 19.3651 19.7605 19.3131C19.761 19.3071 19.7629 19.3015 19.7632 19.2954C19.7644 19.2774 19.7639 19.2592 19.7648 19.2411C19.7724 19.0998 19.7776 18.9581 19.7776 18.8168C19.7776 18.7136 19.7751 18.6105 19.7711 18.5076C19.7684 18.4297 19.7638 18.353 19.759 18.2775C19.7581 18.2654 19.7574 18.2533 19.7565 18.2413C19.7406 18.0101 19.7139 17.7845 19.676 17.5575C19.6664 17.4981 19.6567 17.4387 19.6458 17.3796C19.6446 17.3736 19.644 17.3679 19.6428 17.362C19.6425 17.3604 19.6418 17.359 19.6415 17.3574C19.5943 17.1058 19.5356 16.8566 19.4641 16.6111C19.3843 16.3375 19.0981 16.1802 18.8244 16.2601C18.5508 16.3398 18.3937 16.6262 18.4734 16.8998C18.5376 17.1203 18.5901 17.3441 18.6316 17.5701Z" fill="url(#paint13_linear_297_1452)"/>
<defs>
<linearGradient id="paint0_linear_297_1452" x1="-0.164966" y1="26.489" x2="28.0435" y2="39.6536" gradientUnits="userSpaceOnUse">
<stop stop-color="#FC365F"/>
<stop offset="0.984375" stop-color="#A00BFB"/>
</linearGradient>
<linearGradient id="paint1_linear_297_1452" x1="5.9316" y1="2.08604" x2="29.5043" y2="11.6268" gradientUnits="userSpaceOnUse">
<stop stop-color="#FC365F"/>
<stop offset="0.984375" stop-color="#A00BFB"/>
</linearGradient>
<linearGradient id="paint2_linear_297_1452" x1="16.8897" y1="7.00417" x2="20.891" y2="12.5557" gradientUnits="userSpaceOnUse">
<stop stop-color="#FC365F"/>
<stop offset="0.984375" stop-color="#A00BFB"/>
</linearGradient>
<linearGradient id="paint3_linear_297_1452" x1="10.5007" y1="7.00417" x2="14.4641" y2="9.77946" gradientUnits="userSpaceOnUse">
<stop stop-color="#FC365F"/>
<stop offset="0.984375" stop-color="#A00BFB"/>
</linearGradient>
<linearGradient id="paint4_linear_297_1452" x1="22.1145" y1="31.9158" x2="26.0466" y2="34.6078" gradientUnits="userSpaceOnUse">
<stop stop-color="#FC365F"/>
<stop offset="0.984375" stop-color="#A00BFB"/>
</linearGradient>
<linearGradient id="paint5_linear_297_1452" x1="10.0473" y1="31.9158" x2="14.0781" y2="37.3753" gradientUnits="userSpaceOnUse">
<stop stop-color="#FC365F"/>
<stop offset="0.984375" stop-color="#A00BFB"/>
</linearGradient>
<linearGradient id="paint6_linear_297_1452" x1="10.4639" y1="28.2644" x2="14.5176" y2="31.3182" gradientUnits="userSpaceOnUse">
<stop stop-color="#FC365F"/>
<stop offset="0.984375" stop-color="#A00BFB"/>
</linearGradient>
<linearGradient id="paint7_linear_297_1452" x1="16.9503" y1="20.8288" x2="23.8507" y2="26.8235" gradientUnits="userSpaceOnUse">
<stop stop-color="#FC365F"/>
<stop offset="0.984375" stop-color="#A00BFB"/>
</linearGradient>
<linearGradient id="paint8_linear_297_1452" x1="19.9305" y1="15.3035" x2="27.8421" y2="17.928" gradientUnits="userSpaceOnUse">
<stop stop-color="#FC365F"/>
<stop offset="0.984375" stop-color="#A00BFB"/>
</linearGradient>
<linearGradient id="paint9_linear_297_1452" x1="2.88902" y1="9.65497" x2="16.7031" y2="11.1557" gradientUnits="userSpaceOnUse">
<stop stop-color="#FC365F"/>
<stop offset="0.984375" stop-color="#A00BFB"/>
</linearGradient>
<linearGradient id="paint10_linear_297_1452" x1="8.60302" y1="15.4177" x2="13.2427" y2="15.873" gradientUnits="userSpaceOnUse">
<stop stop-color="#FC365F"/>
<stop offset="0.984375" stop-color="#A00BFB"/>
</linearGradient>
<linearGradient id="paint11_linear_297_1452" x1="10.6201" y1="8.06513" x2="39.1394" y2="12.4309" gradientUnits="userSpaceOnUse">
<stop stop-color="#FC365F"/>
<stop offset="0.984375" stop-color="#A00BFB"/>
</linearGradient>
<linearGradient id="paint12_linear_297_1452" x1="14.1627" y1="11.4186" x2="31.5164" y2="14.0751" gradientUnits="userSpaceOnUse">
<stop stop-color="#FC365F"/>
<stop offset="0.984375" stop-color="#A00BFB"/>
</linearGradient>
<linearGradient id="paint13_linear_297_1452" x1="18.3165" y1="15.9353" x2="19.9694" y2="16.0258" gradientUnits="userSpaceOnUse">
<stop stop-color="#FC365F"/>
<stop offset="0.984375" stop-color="#A00BFB"/>
</linearGradient>
</defs>
</svg>
