<svg width="39" height="39" viewBox="0 0 39 39" fill="none" xmlns="http://www.w3.org/2000/svg">
<g clipPath="url(#clip0_297_1470)">
<path d="M31.816 4.88525C31.4759 4.88525 31.2002 5.161 31.2002 5.50103V5.58314C31.2002 5.92325 31.4759 6.19891 31.816 6.19891C32.156 6.19891 32.4317 5.92317 32.4317 5.58314V5.50103C32.4317 5.16092 32.1561 4.88525 31.816 4.88525Z" fill="url(#paint0_linear_297_1470)"/>
<path d="M24.5585 26.3213C23.0355 26.3213 21.7964 27.5604 21.7964 29.0834C21.7964 30.6063 23.0355 31.8454 24.5585 31.8454C26.0814 31.8454 27.3205 30.6064 27.3205 29.0834C27.3206 27.5603 26.0815 26.3213 24.5585 26.3213ZM24.5585 30.6139C23.7145 30.6139 23.0279 29.9273 23.0279 29.0834C23.0279 28.2395 23.7145 27.5528 24.5585 27.5528C25.4024 27.5528 26.089 28.2394 26.089 29.0834C26.0891 29.9273 25.4024 30.6139 24.5585 30.6139Z" fill="url(#paint1_linear_297_1470)"/>
<path d="M34.2789 4.88525C33.9388 4.88525 33.6631 5.161 33.6631 5.50103V5.58314C33.6631 5.92325 33.9388 6.19891 34.2789 6.19891C34.619 6.19891 34.8946 5.92317 34.8946 5.58314V5.50103C34.8946 5.16092 34.619 4.88525 34.2789 4.88525Z" fill="url(#paint2_linear_297_1470)"/>
<path d="M35.1 2.46317H16.0105V2.25789C16.0105 1.01286 14.9977 0 13.7526 0H7.18423C5.9392 0 4.92634 1.01286 4.92634 2.25789V2.46317H3.9C1.74959 2.46317 0 4.21276 0 6.36317V30.9947C0 33.1451 1.74959 34.8947 3.9 34.8947H16.7382C17.5942 35.5152 18.7705 35.6146 19.7435 35.0528L20.3174 34.7214C20.7751 35.0666 21.2701 35.3527 21.7962 35.5765V36.2379C21.7962 37.7609 23.0352 38.9999 24.5583 38.9999C26.0813 38.9999 27.3203 37.7609 27.3203 36.2379V35.5765C27.8465 35.3528 28.3415 35.0666 28.7991 34.7214L29.373 35.0528C30.3461 35.6146 31.5223 35.5151 32.3782 34.8947H35.0998C37.2503 34.8947 38.9998 33.1451 38.9998 30.9947V6.36317C39 4.21276 37.2504 2.46317 35.1 2.46317ZM6.15789 2.25789C6.15789 1.69193 6.61827 1.23155 7.18423 1.23155H13.7527C14.3186 1.23155 14.779 1.69193 14.779 2.25789V7.38943H6.15789V2.25789ZM1.23155 6.36317C1.23155 4.89183 2.42866 3.69472 3.9 3.69472H4.92634V7.38943H1.23155V6.36317ZM32.0796 33.426C31.6576 34.1568 30.7197 34.4081 29.9889 33.9861L29.0501 33.4442C28.8241 33.3136 28.5402 33.3398 28.3419 33.5096C27.7949 33.9777 27.175 34.3361 26.4994 34.5749C26.2533 34.6619 26.0888 34.8946 26.0888 35.1555V36.2379C26.0888 37.0818 25.4023 37.7684 24.5583 37.7684C23.7144 37.7684 23.0277 37.0818 23.0277 36.2379V35.1555C23.0277 34.8945 22.8632 34.6619 22.6173 34.5749C21.9416 34.3362 21.3217 33.9777 20.7747 33.5096C20.6605 33.4118 20.5178 33.3617 20.3742 33.3617C20.2686 33.3617 20.1623 33.3889 20.0664 33.4442L19.1277 33.9861C18.5589 34.3146 17.8648 34.2351 17.386 33.8394C17.3682 33.8218 17.3493 33.8055 17.3294 33.7901C17.2165 33.687 17.1173 33.5652 17.037 33.4258C16.6151 32.695 16.8664 31.757 17.5972 31.3351L18.535 30.7936C18.7608 30.6633 18.88 30.4048 18.8326 30.1484C18.768 29.7985 18.7352 29.4402 18.7352 29.0833C18.7352 28.7264 18.7679 28.3681 18.8326 28.0183C18.88 27.7619 18.7608 27.5035 18.535 27.3731L17.5972 26.8317C16.8664 26.4097 16.615 25.4718 17.037 24.7409C17.2414 24.3869 17.5715 24.1337 17.9664 24.0278C18.3615 23.9222 18.7738 23.9763 19.1278 24.1807L20.0666 24.7226C20.2927 24.8532 20.5765 24.827 20.7748 24.6572C21.3218 24.1891 21.9417 23.8308 22.6173 23.5919C22.8634 23.5048 23.0278 23.2723 23.0278 23.0113V21.929C23.0278 21.085 23.7144 20.3984 24.5583 20.3984C25.4023 20.3984 26.0889 21.085 26.0889 21.929V23.0113C26.0889 23.2723 26.2533 23.5049 26.4994 23.5919C27.1751 23.8308 27.795 24.1892 28.3419 24.6572C28.5402 24.8269 28.8241 24.8531 29.0501 24.7226L29.9889 24.1807C30.343 23.9763 30.7552 23.9221 31.1503 24.0278C31.5452 24.1336 31.8752 24.3869 32.0796 24.7409C32.2841 25.095 32.3383 25.5074 32.2325 25.9023C32.1267 26.2973 31.8734 26.6273 31.5193 26.8317L30.5816 27.3731C30.3558 27.5035 30.2366 27.7619 30.284 28.0182C30.3486 28.3683 30.3814 28.7266 30.3814 29.0834C30.3814 29.44 30.3486 29.7984 30.284 30.1487C30.2367 30.405 30.3558 30.6634 30.5816 30.7938L31.5193 31.3352C31.8734 31.5396 32.1266 31.8697 32.2325 32.2646C32.3383 32.6595 32.284 33.0719 32.0796 33.426ZM37.7685 30.9947C37.7685 32.4661 36.5713 33.6632 35.1 33.6632H33.3285C33.5421 33.1182 33.5764 32.5217 33.4222 31.9459C33.2312 31.2332 32.7742 30.6376 32.1352 30.2687L31.5615 29.9375C31.5957 29.6542 31.6131 29.3684 31.6131 29.0836C31.6131 28.7988 31.5959 28.513 31.5615 28.2298L32.1352 27.8985C32.7742 27.5296 33.2313 26.9339 33.4222 26.2213C33.613 25.5087 33.5151 24.7643 33.1462 24.1255C32.7773 23.4865 32.1816 23.0294 31.469 22.8385C30.7564 22.6475 30.012 22.7456 29.3732 23.1145L28.7993 23.4458C28.3417 23.1006 27.8467 22.8145 27.3205 22.5907V21.9293C27.3205 20.4062 26.0815 19.1672 24.5584 19.1672C23.0354 19.1672 21.7964 20.4063 21.7964 21.9293V22.5906C21.2702 22.8144 20.7752 23.1006 20.3176 23.4457L19.7437 23.1144C18.4248 22.3529 16.7321 22.8065 15.9705 24.1254C15.2091 25.4443 15.6625 27.137 16.9815 27.8986L17.5552 28.2298C17.521 28.513 17.5037 28.7988 17.5037 29.0836C17.5037 29.3686 17.5209 29.6543 17.5553 29.9375L16.9815 30.2688C15.7859 30.9591 15.3015 32.4146 15.7885 33.6632H3.9C2.42866 33.6632 1.23155 32.4661 1.23155 30.9947V8.62106H37.7684V30.9947H37.7685ZM37.7685 7.38951H16.0105V3.69472H35.1C36.5713 3.69472 37.7685 4.89183 37.7685 6.36317V7.38951Z" fill="url(#paint3_linear_297_1470)"/>
<path d="M16.1338 12.7262H34.197C34.5371 12.7262 34.8128 12.4504 34.8128 12.1104C34.8128 11.7703 34.537 11.4946 34.197 11.4946H16.1338C15.7937 11.4946 15.5181 11.7704 15.5181 12.1104C15.5181 12.4504 15.7938 12.7262 16.1338 12.7262Z" fill="url(#paint4_linear_297_1470)"/>
<path d="M6.28084 30.7896H13.6703C14.0104 30.7896 14.286 30.5139 14.286 30.1738C14.286 29.8337 14.0103 29.5581 13.6703 29.5581H6.28084C5.71488 29.5581 5.2545 29.0977 5.2545 28.5317V17.858C5.2545 17.292 5.71488 16.8316 6.28084 16.8316H32.5545C33.1205 16.8316 33.5808 17.292 33.5808 17.858V21.9633C33.5808 22.3034 33.8566 22.579 34.1966 22.579C34.5367 22.579 34.8124 22.3033 34.8124 21.9633V17.858C34.8124 16.613 33.7995 15.6001 32.5545 15.6001H6.28084C5.03581 15.6001 4.02295 16.613 4.02295 17.858V28.5316C4.02295 29.7768 5.03581 30.7896 6.28084 30.7896Z" fill="url(#paint5_linear_297_1470)"/>
<path d="M4.63872 12.7262H10.3861C10.7262 12.7262 11.0019 12.4504 11.0019 12.1104C11.0019 11.7703 10.7262 11.4946 10.3861 11.4946H4.63872C4.29862 11.4946 4.02295 11.7704 4.02295 12.1104C4.02295 12.4504 4.29862 12.7262 4.63872 12.7262Z" fill="url(#paint6_linear_297_1470)"/>
<path d="M24.5583 24.1753C21.8518 24.1753 19.6499 26.3772 19.6499 29.0837C19.6499 31.7903 21.8518 33.9922 24.5583 33.9922C27.2649 33.9922 29.4668 31.7903 29.4668 29.0837C29.4668 26.3772 27.2649 24.1753 24.5583 24.1753ZM24.5583 32.7605C22.531 32.7605 20.8815 31.111 20.8815 29.0837C20.8815 27.0562 22.531 25.4068 24.5583 25.4068C26.5857 25.4068 28.2352 27.0563 28.2352 29.0837C28.2352 31.111 26.5857 32.7605 24.5583 32.7605Z" fill="url(#paint7_linear_297_1470)"/>
<path d="M29.3526 4.88525C29.0125 4.88525 28.7368 5.161 28.7368 5.50103V5.58314C28.7368 5.92325 29.0126 6.19891 29.3526 6.19891C29.6927 6.19891 29.9684 5.92317 29.9684 5.58314V5.50103C29.9684 5.16092 29.6927 4.88525 29.3526 4.88525Z" fill="url(#paint8_linear_297_1470)"/>
</g>
<defs>
<linearGradient id="paint0_linear_297_1470" x1="31.0736" y1="4.77744" x2="32.5835" y2="4.99413" gradientUnits="userSpaceOnUse">
<stop stop-color="#FC365F"/>
<stop offset="0.984375" stop-color="#A00BFB"/>
</linearGradient>
<linearGradient id="paint1_linear_297_1470" x1="21.2286" y1="25.8679" x2="27.9826" y2="26.9018" gradientUnits="userSpaceOnUse">
<stop stop-color="#FC365F"/>
<stop offset="0.984375" stop-color="#A00BFB"/>
</linearGradient>
<linearGradient id="paint2_linear_297_1470" x1="33.5365" y1="4.77744" x2="35.0464" y2="4.99413" gradientUnits="userSpaceOnUse">
<stop stop-color="#FC365F"/>
<stop offset="0.984375" stop-color="#A00BFB"/>
</linearGradient>
<linearGradient id="paint3_linear_297_1470" x1="-4.00845" y1="-3.20074" x2="43.6743" y2="4.09852" gradientUnits="userSpaceOnUse">
<stop stop-color="#FC365F"/>
<stop offset="0.984375" stop-color="#A00BFB"/>
</linearGradient>
<linearGradient id="paint4_linear_297_1470" x1="13.5349" y1="11.3936" x2="17.1107" y2="19.9694" gradientUnits="userSpaceOnUse">
<stop stop-color="#FC365F"/>
<stop offset="0.984375" stop-color="#A00BFB"/>
</linearGradient>
<linearGradient id="paint5_linear_297_1470" x1="0.858372" y1="14.3535" x2="36.0012" y2="25.2582" gradientUnits="userSpaceOnUse">
<stop stop-color="#FC365F"/>
<stop offset="0.984375" stop-color="#A00BFB"/>
</linearGradient>
<linearGradient id="paint6_linear_297_1470" x1="3.30564" y1="11.3936" x2="8.28859" y2="15.7161" gradientUnits="userSpaceOnUse">
<stop stop-color="#FC365F"/>
<stop offset="0.984375" stop-color="#A00BFB"/>
</linearGradient>
<linearGradient id="paint7_linear_297_1470" x1="18.6409" y1="23.3696" x2="30.6434" y2="25.207" gradientUnits="userSpaceOnUse">
<stop stop-color="#FC365F"/>
<stop offset="0.984375" stop-color="#A00BFB"/>
</linearGradient>
<linearGradient id="paint8_linear_297_1470" x1="28.6102" y1="4.77744" x2="30.1202" y2="4.99413" gradientUnits="userSpaceOnUse">
<stop stop-color="#FC365F"/>
<stop offset="0.984375" stop-color="#A00BFB"/>
</linearGradient>
<clipPath id="clip0_297_1470">
<rect width="39" height="39" fill="white"/>
</clipPath>
</defs>
</svg>
