<svg width="60" height="60" viewBox="0 0 60 60" fill="none" xmlns="http://www.w3.org/2000/svg">
<path d="M41.7296 20.7718C41.7296 17.7428 40.5288 15.0006 38.6021 12.9485C39.6416 11.434 41.3712 10.4482 43.3427 10.4482C46.515 10.4482 49.0869 13.0202 49.0869 16.1925C49.0869 19.3648 46.515 21.9368 43.3427 21.9368C42.7423 21.9368 42.1777 21.8203 41.64 21.65C41.6669 21.3632 41.7296 21.0765 41.7296 20.7718ZM30.259 28.8012C34.6949 28.8012 38.2885 25.2077 38.2885 20.7718C38.2885 16.3359 34.6949 12.7424 30.259 12.7424C25.8232 12.7424 22.2296 16.3359 22.2296 20.7718C22.2296 25.2077 25.8232 28.8012 30.259 28.8012ZM30.259 33.7031C20.4284 33.7031 16.4943 35.6656 16.4943 41.5712V49.4482H44.0238V41.5712C44.0238 35.6298 40.0897 33.7031 30.259 33.7031ZM19.8638 25.5482C19.0394 25.4944 18.1612 25.4586 17.1754 25.4586C10.1407 25.4586 7.31787 26.8655 7.31787 31.0863V37.9777H13.5371C15.0336 32.798 19.8459 31.1043 24.3356 30.5397C22.382 29.3568 20.8227 27.6272 19.8638 25.5482ZM17.1754 21.9457C17.7758 21.9457 18.3404 21.8292 18.8781 21.659C18.8512 21.3632 18.7885 21.0765 18.7885 20.7718C18.7885 17.7428 19.9893 15.0006 21.916 12.9485C20.8765 11.443 19.1469 10.4482 17.1754 10.4482C14.0031 10.4482 11.4312 13.0202 11.4312 16.1925C11.4312 19.3648 13.9941 21.9457 17.1754 21.9457ZM43.3427 25.4496C42.3569 25.4496 41.4787 25.4855 40.6543 25.5482C39.6954 27.6272 38.1272 29.3568 36.1825 30.5397C40.6722 31.0953 45.4845 32.798 46.981 37.9777H53.2002V31.0863C53.2002 26.8297 50.3863 25.4496 43.3427 25.4496Z" fill="url(#paint0_linear_297_1346)"/>
<defs>
<linearGradient id="paint0_linear_297_1346" x1="2.60202" y1="7.2475" x2="58.2106" y2="17.2623" gradientUnits="userSpaceOnUse">
<stop stop-color="#FC365F"/>
<stop offset="0.984375" stop-color="#A00BFB"/>
</linearGradient>
</defs>
</svg>
