<svg width="39" height="39" viewBox="0 0 39 39" fill="none" xmlns="http://www.w3.org/2000/svg">
<g clipPath="url(#clip0_297_1365)">
<path d="M22.1211 27.8326L23.0583 26.8954L22.1689 26.0059L21.2316 26.9432C20.902 26.7243 20.5296 26.5645 20.1289 26.4827V25.1611H18.8709V26.4827C18.4702 26.5645 18.0978 26.7243 17.7682 26.9432L16.8309 26.0059L15.9415 26.8954L16.8787 27.8326C16.6598 28.1622 16.5001 28.5346 16.4183 28.9353H15.0967V30.1934H16.4183C16.5001 30.5941 16.6598 30.9665 16.8787 31.2961L15.9415 32.2333L16.8309 33.1228L17.7682 32.1855C18.0978 32.4044 18.4702 32.5642 18.8709 32.646V33.9676H20.1289V32.646C20.5296 32.5642 20.902 32.4044 21.2316 32.1855L22.1689 33.1228L23.0583 32.2333L22.1211 31.2961C22.34 30.9665 22.4998 30.5941 22.5815 30.1934H23.9031V28.9353H22.5815C22.4998 28.5346 22.34 28.1622 22.1211 27.8326ZM19.4999 31.4515C18.4595 31.4515 17.6128 30.6048 17.6128 29.5644C17.6128 28.5239 18.4595 27.6773 19.4999 27.6773C20.5403 27.6773 21.387 28.5239 21.387 29.5644C21.387 30.6048 20.5403 31.4515 19.4999 31.4515Z" fill="url(#paint0_linear_297_1365)"/>
<path d="M27.4936 24.6864L23.4691 24.1014L21.5015 20.1146C21.2184 19.5421 20.7196 19.132 20.1289 18.9603V18.2419H23.9031C24.9435 18.2419 25.7902 17.3953 25.7902 16.3548V15.7258H27.0483V14.4677H25.5701L33.1184 0H22.2639L19.4999 5.29771L16.7359 0H5.88135L13.4297 14.4677H11.9515V15.7258H13.2096V16.3548C13.2096 17.3953 14.0563 18.2419 15.0967 18.2419H18.8709V18.9609C18.2802 19.1326 17.7814 19.5428 17.4983 20.1158L15.5313 24.102L11.5068 24.687C10.3261 24.8581 9.43538 25.8872 9.43538 27.0805C9.43538 27.7284 9.70146 28.3599 10.1657 28.8128L13.0775 31.651L12.178 36.8965C12.088 37.4205 12.2333 37.9545 12.5761 38.3609C13.107 38.9899 14.0657 39.1761 14.7891 38.7937L19.4999 36.3165L24.2101 38.7924C24.4667 38.9283 24.7567 39 25.048 39C25.5795 39 26.0808 38.7666 26.4237 38.3603C26.7665 37.9539 26.9112 37.4199 26.8218 36.8959L25.9223 31.6504L28.8341 28.8116C29.2983 28.3599 29.5644 27.7284 29.5644 27.0805C29.5644 25.8872 28.6737 24.8581 27.4936 24.6864ZM31.0426 1.25806L24.2176 14.3394L23.3546 12.6851L29.3166 1.25806H31.0426ZM27.8975 1.25806L22.6451 11.3257L21.782 9.67137L26.1714 1.25806H27.8975ZM23.0263 1.25806H24.7523L21.0725 8.3114L20.2094 6.65705L23.0263 1.25806ZM15.9735 1.25806L22.8652 14.4677H21.1392L14.2475 1.25806H15.9735ZM7.95715 1.25806H9.68322L11.8043 5.32287L12.9196 4.74102L11.1023 1.25806H12.8284L19.7201 14.4677H17.994L13.5757 5.99971L12.4604 6.58156L16.5749 14.4677H14.8488L7.95715 1.25806ZM15.0967 16.9839C14.7501 16.9839 14.4676 16.7014 14.4676 16.3548V15.7258H24.5322V16.3548C24.5322 16.7014 24.2497 16.9839 23.9031 16.9839H15.0967ZM27.9553 27.9114L24.5699 31.212L25.5814 37.1091C25.6185 37.3249 25.5223 37.4777 25.4619 37.5501C25.4008 37.6218 25.2669 37.7419 25.048 37.7419C24.9605 37.7419 24.8737 37.7206 24.7963 37.6797L19.4999 34.8956L14.2034 37.6803C14.1267 37.7205 14.0393 37.7419 13.9518 37.7419C13.7329 37.7419 13.5983 37.6218 13.5379 37.5494C13.4769 37.4771 13.3807 37.3249 13.4184 37.1085L14.4299 31.2113L11.0444 27.9114C10.8211 27.6944 10.6934 27.3912 10.6934 27.0805C10.6934 26.508 11.1206 26.0143 11.6873 25.9319L16.3661 25.2519L18.6262 20.6725C18.7922 20.3372 19.1269 20.129 19.4999 20.129C19.8729 20.129 20.2076 20.3372 20.373 20.6719L22.6331 25.2519L27.3125 25.9319C27.8786 26.0143 28.3063 26.508 28.3063 27.0805C28.3063 27.3912 28.1787 27.6944 27.9553 27.9114Z" fill="url(#paint1_linear_297_1365)"/>
</g>
<defs>
<linearGradient id="paint0_linear_297_1365" x1="14.1354" y1="22.5664" x2="25.7933" y2="23.887" gradientUnits="userSpaceOnUse">
<stop stop-color="#FFBC21"/>
<stop offset="0.1344" stop-color="#FD843A"/>
<stop offset="0.2742" stop-color="#FC5554"/>
<stop offset="0.4301" stop-color="#FC365F"/>
<stop offset="0.6129" stop-color="#F02E6B"/>
<stop offset="0.817759" stop-color="#DD3578"/>
<stop offset="1" stop-color="#81399D"/>
</linearGradient>
<linearGradient id="paint1_linear_297_1365" x1="2.9083" y1="-11.4911" x2="39.2" y2="-8.61986" gradientUnits="userSpaceOnUse">
<stop stop-color="#FFBC21"/>
<stop offset="0.1344" stop-color="#FD843A"/>
<stop offset="0.2742" stop-color="#FC5554"/>
<stop offset="0.4301" stop-color="#FC365F"/>
<stop offset="0.6129" stop-color="#F02E6B"/>
<stop offset="0.817759" stop-color="#DD3578"/>
<stop offset="1" stop-color="#81399D"/>
</linearGradient>
<clipPath id="clip0_297_1365">
<rect width="39" height="39" fill="white"/>
</clipPath>
</defs>
</svg>
