<svg width="60" height="60" viewBox="0 0 60 60" fill="none" xmlns="http://www.w3.org/2000/svg">
<path fill-rule="evenodd" clip-rule="evenodd" d="M13.7353 22.6588C13.7353 21.0138 14.786 19.6153 16.2525 19.0966V13.8733H8.75C8.06035 13.8733 7.5 14.4337 7.5 15.1233V45.1233C7.5 45.8129 8.06035 46.3733 8.75 46.3733H24.9575C25.6479 46.3733 26.2075 46.9329 26.2075 47.6233C26.2075 48.3137 25.6479 48.8733 24.9575 48.8733H8.75C6.67965 48.8733 5 47.1937 5 45.1233V15.1233C5 13.0529 6.67965 11.3733 8.75 11.3733H16.2525V8.90234C16.2525 8.21198 16.8121 7.65234 17.5025 7.65234C18.1929 7.65234 18.7525 8.21198 18.7525 8.90234V11.3733H30.0025C30.6929 11.3733 31.2525 11.933 31.2525 12.6233L31.2521 12.6557L31.2525 12.6881V34.0221C32.7313 34.5351 33.7928 35.9404 33.7928 37.5941C33.7928 39.2477 32.7314 40.6514 31.2525 41.1639V46.3733H51.25C51.9396 46.3733 52.5 45.8129 52.5 45.1233V15.1233C52.5 14.4337 51.9396 13.8733 51.25 13.8733H35.0025C34.3121 13.8733 33.7525 13.3137 33.7525 12.6233C33.7525 11.933 34.3121 11.3733 35.0025 11.3733H41.2525V8.92484C41.2525 8.23448 41.8121 7.67484 42.5025 7.67484C43.1929 7.67484 43.7525 8.23448 43.7525 8.92484V11.3733H51.25C53.3204 11.3733 55 13.0529 55 15.1233V45.1233C55 47.1937 53.3204 48.8733 51.25 48.8733H31.2525V51.2506C31.2525 51.9409 30.6929 52.5006 30.0025 52.5006C29.3121 52.5006 28.7525 51.9409 28.7525 51.2506V41.1563C27.286 40.6377 26.2352 39.2392 26.2352 37.5941C26.2352 35.9489 27.286 34.5489 28.7525 34.0297V13.8733H18.7525V19.0891C20.2314 19.6014 21.2928 21.0053 21.2928 22.6588C21.2928 24.3124 20.2312 25.7178 18.7525 26.2309V42.5648C18.7525 43.2552 18.1929 43.8148 17.5025 43.8148C16.8121 43.8148 16.2525 43.2552 16.2525 42.5648V26.2233C14.786 25.7039 13.7353 24.3039 13.7353 22.6588ZM17.5513 23.9383C17.5351 23.9377 17.5189 23.9373 17.5025 23.9373C17.4896 23.9373 17.4768 23.9376 17.464 23.9379C16.7816 23.9122 16.2353 23.3494 16.2353 22.6588C16.2353 21.9528 16.807 21.3813 17.5127 21.3813C18.2207 21.3813 18.7927 21.9526 18.7927 22.6588C18.7927 23.3531 18.2406 23.9179 17.5513 23.9383ZM41.2525 33.7233C39.786 33.2039 38.7352 31.8039 38.7352 30.1588C38.7352 28.5138 39.786 27.1153 41.2525 26.5966V17.6873C41.2525 16.9969 41.8121 16.4373 42.5025 16.4373C43.1929 16.4373 43.7525 16.9969 43.7525 17.6873V26.5891C45.2314 27.1014 46.2927 28.5053 46.2927 30.1588C46.2927 31.8124 45.2312 33.2178 43.7525 33.7309V42.5648C43.7525 43.2552 43.1929 43.8148 42.5025 43.8148C41.8121 43.8148 41.2525 43.2552 41.2525 42.5648V33.7233ZM43.7927 30.1588C43.7927 29.4526 43.2207 28.8813 42.5127 28.8813C41.807 28.8813 41.2353 29.4528 41.2353 30.1588C41.2353 30.8658 41.8079 31.4388 42.5127 31.4388C43.2199 31.4388 43.7927 30.8659 43.7927 30.1588ZM31.2928 37.5941C31.2928 36.8869 30.7199 36.3141 30.0128 36.3141C29.3079 36.3141 28.7352 36.8872 28.7352 37.5941C28.7352 38.3002 29.307 38.8716 30.0128 38.8716C30.7208 38.8716 31.2928 38.3004 31.2928 37.5941Z" fill="url(#paint0_linear_297_1496)"/>
<defs>
<linearGradient id="paint0_linear_297_1496" x1="-0.139064" y1="3.97164" x2="60.6547" y2="14.347" gradientUnits="userSpaceOnUse">
<stop stop-color="#FC365F"/>
<stop offset="0.984375" stop-color="#A00BFB"/>
</linearGradient>
</defs>
</svg>
