<svg width="39" height="39" viewBox="0 0 39 39" fill="none" xmlns="http://www.w3.org/2000/svg">
<path d="M4.875 12.1875V34.125H26.8125V12.1875H4.875ZM3.65625 9.75H28.0312C28.3545 9.75 28.6645 9.8784 28.893 10.107C29.1216 10.3355 29.25 10.6455 29.25 10.9688V35.3438C29.25 35.667 29.1216 35.977 28.893 36.2055C28.6645 36.4341 28.3545 36.5625 28.0312 36.5625H3.65625C3.33302 36.5625 3.02302 36.4341 2.79446 36.2055C2.5659 35.977 2.4375 35.667 2.4375 35.3438V10.9688C2.4375 10.6455 2.5659 10.3355 2.79446 10.107C3.02302 9.8784 3.33302 9.75 3.65625 9.75ZM36.5625 3.65625V30.4688C36.5625 30.792 36.4341 31.102 36.2055 31.3305C35.977 31.5591 35.667 31.6875 35.3438 31.6875H31.6875V29.25H34.125V4.875H14.625V7.3125H12.1875V3.65625C12.1875 3.33302 12.3159 3.02302 12.5445 2.79446C12.773 2.5659 13.083 2.4375 13.4062 2.4375H35.3438C35.667 2.4375 35.977 2.5659 36.2055 2.79446C36.4341 3.02302 36.5625 3.33302 36.5625 3.65625ZM9.75 25.5938H21.9375V28.0312H9.75V25.5938ZM9.75 18.2812H21.9375V20.7188H9.75V18.2812Z" fill="url(#paint0_linear_297_1411)"/>
<defs>
<linearGradient id="paint0_linear_297_1411" x1="-1.06991" y1="-0.363151" x2="40.6527" y2="6.02374" gradientUnits="userSpaceOnUse">
<stop stopColor="#FC365F"/>
<stop offset="0.984375" stopColor="#A00BFB"/>
</linearGradient>
</defs>
</svg>
