<svg width="39" height="39" viewBox="0 0 39 39" fill="none" xmlns="http://www.w3.org/2000/svg">
<path d="M10.2348 34.4539C9.89803 34.4539 9.62549 34.7267 9.62549 35.0632V35.9193C9.62549 36.2558 9.89803 36.5286 10.2348 36.5286C10.5715 36.5286 10.8441 36.2557 10.8441 35.9193V35.0632C10.8441 34.7266 10.5715 34.4539 10.2348 34.4539ZM12.8822 36.5286C13.219 36.5286 13.4915 36.2558 13.4915 35.9193V35.0632C13.4915 34.7267 13.219 34.4539 12.8822 34.4539C12.5455 34.4539 12.2729 34.7268 12.2729 35.0632V35.9193C12.2729 36.2557 12.5455 36.5286 12.8822 36.5286ZM15.5292 36.5286C15.8659 36.5286 16.1385 36.2558 16.1385 35.9193V35.0632C16.1385 34.7267 15.8659 34.4539 15.5292 34.4539C15.1924 34.4539 14.9199 34.7268 14.9199 35.0632V35.9193C14.9198 36.2557 15.1924 36.5286 15.5292 36.5286ZM18.1767 36.5286C18.5135 36.5286 18.786 36.2558 18.786 35.9193V35.0632C18.786 34.7267 18.5135 34.4539 18.1767 34.4539C17.8399 34.4539 17.5674 34.7268 17.5674 35.0632V35.9193C17.5674 36.2557 17.8399 36.5286 18.1767 36.5286ZM20.8237 36.5286C21.1604 36.5286 21.433 36.2558 21.433 35.9193V35.0632C21.433 34.7267 21.1604 34.4539 20.8237 34.4539C20.4869 34.4539 20.2144 34.7268 20.2144 35.0632V35.9193C20.2143 36.2557 20.4868 36.5286 20.8237 36.5286ZM23.4712 36.5286C23.8079 36.5286 24.0805 36.2558 24.0805 35.9193V35.0632C24.0805 34.7267 23.8079 34.4539 23.4712 34.4539C23.1344 34.4539 22.8619 34.7268 22.8619 35.0632V35.9193C22.8618 36.2557 23.1343 36.5286 23.4712 36.5286ZM26.1181 36.5286C26.4548 36.5286 26.7274 36.2558 26.7274 35.9193V35.0632C26.7274 34.7267 26.4548 34.4539 26.1181 34.4539C25.7813 34.4539 25.5088 34.7268 25.5088 35.0632V35.9193C25.5087 36.2557 25.7812 36.5286 26.1181 36.5286ZM12.8822 28.6551C12.5455 28.6551 12.2729 28.928 12.2729 29.2644V30.1202C12.2729 30.4567 12.5455 30.7294 12.8822 30.7294C13.219 30.7294 13.4915 30.4566 13.4915 30.1202V29.2644C13.4917 28.9279 13.2191 28.6551 12.8822 28.6551ZM15.5292 28.6551C15.1924 28.6551 14.9199 28.928 14.9199 29.2644V30.1202C14.9199 30.4567 15.1924 30.7294 15.5292 30.7294C15.8659 30.7294 16.1385 30.4566 16.1385 30.1202V29.2644C16.1386 28.9279 15.866 28.6551 15.5292 28.6551ZM18.1767 28.6551C17.8399 28.6551 17.5674 28.928 17.5674 29.2644V30.1202C17.5674 30.4567 17.8399 30.7294 18.1767 30.7294C18.5135 30.7294 18.786 30.4566 18.786 30.1202V29.2644C18.7861 28.9279 18.5135 28.6551 18.1767 28.6551ZM20.8237 28.6551C20.4869 28.6551 20.2144 28.928 20.2144 29.2644V30.1202C20.2144 30.4567 20.4869 30.7294 20.8237 30.7294C21.1604 30.7294 21.433 30.4566 21.433 30.1202V29.2644C21.433 28.9279 21.1604 28.6551 20.8237 28.6551ZM23.4712 28.6551C23.1344 28.6551 22.8619 28.928 22.8619 29.2644V30.1202C22.8619 30.4567 23.1344 30.7294 23.4712 30.7294C23.8079 30.7294 24.0805 30.4566 24.0805 30.1202V29.2644C24.0805 28.9279 23.808 28.6551 23.4712 28.6551ZM26.1181 28.6551C25.7813 28.6551 25.5088 28.928 25.5088 29.2644V30.1202C25.5088 30.4567 25.7813 30.7294 26.1181 30.7294C26.4548 30.7294 26.7274 30.4566 26.7274 30.1202V29.2644C26.7274 28.9279 26.4549 28.6551 26.1181 28.6551ZM28.7656 30.7295C29.1023 30.7295 29.3749 30.4567 29.3749 30.1202V29.2644C29.3749 28.9279 29.1023 28.6551 28.7656 28.6551C28.4288 28.6551 28.1563 28.928 28.1563 29.2644V30.1202C28.1563 30.4567 28.4288 30.7295 28.7656 30.7295ZM10.2348 22.8563C9.89803 22.8563 9.62549 23.1292 9.62549 23.4656V24.3213C9.62549 24.6579 9.89803 24.9306 10.2348 24.9306C10.5715 24.9306 10.8441 24.6578 10.8441 24.3213V23.4656C10.8441 23.1291 10.5715 22.8563 10.2348 22.8563ZM12.8822 24.9307C13.219 24.9307 13.4915 24.6579 13.4915 24.3214V23.4657C13.4915 23.1292 13.219 22.8564 12.8822 22.8564C12.5455 22.8564 12.2729 23.1292 12.2729 23.4657V24.3214C12.2729 24.6579 12.5455 24.9307 12.8822 24.9307ZM15.5292 24.9307C15.8659 24.9307 16.1385 24.6579 16.1385 24.3214V23.4657C16.1385 23.1292 15.8659 22.8564 15.5292 22.8564C15.1924 22.8564 14.9199 23.1292 14.9199 23.4657V24.3214C14.9198 24.6579 15.1924 24.9307 15.5292 24.9307ZM18.1767 24.9307C18.5135 24.9307 18.786 24.6579 18.786 24.3214V23.4657C18.786 23.1292 18.5135 22.8564 18.1767 22.8564C17.8399 22.8564 17.5674 23.1292 17.5674 23.4657V24.3214C17.5674 24.6579 17.8399 24.9307 18.1767 24.9307ZM20.8237 24.9307C21.1604 24.9307 21.433 24.6579 21.433 24.3214V23.4657C21.433 23.1292 21.1604 22.8564 20.8237 22.8564C20.4869 22.8564 20.2144 23.1292 20.2144 23.4657V24.3214C20.2143 24.6579 20.4868 24.9307 20.8237 24.9307ZM23.4712 24.9307C23.8079 24.9307 24.0805 24.6579 24.0805 24.3214V23.4657C24.0805 23.1292 23.8079 22.8564 23.4712 22.8564C23.1344 22.8564 22.8619 23.1292 22.8619 23.4657V24.3214C22.8618 24.6579 23.1343 24.9307 23.4712 24.9307ZM26.1181 24.9307C26.4548 24.9307 26.7274 24.6579 26.7274 24.3214V23.4657C26.7274 23.1292 26.4548 22.8564 26.1181 22.8564C25.7813 22.8564 25.5088 23.1292 25.5088 23.4657V24.3214C25.5087 24.6579 25.7812 24.9307 26.1181 24.9307Z" fill="url(#paint0_linear_297_1338)"/>
<path d="M32.0078 19.6738V16.5157C32.0078 15.4517 31.1421 14.5862 30.0779 14.5862H21.441V10.0044C22.7707 9.97595 25.8406 9.6775 27.8667 7.6511C30.4416 5.06842 30.2221 0.763338 30.2112 0.581516C30.1934 0.272944 29.947 0.0266039 29.6387 0.00847496C29.4555 0.00101011 25.1507 -0.220345 22.5685 2.35404C21.7152 3.20708 21.1725 4.24485 20.8231 5.26053C20.4737 4.2447 19.9309 3.20678 19.0777 2.35343C16.4946 -0.221793 12.1922 -0.00104653 12.0077 0.00847496C11.6994 0.0266039 11.4531 0.27302 11.4352 0.581516C11.4245 0.763262 11.2048 5.06842 13.7804 7.65171C15.8148 9.68664 18.9019 9.97838 20.2222 10.0045V14.5861H11.5691C10.5051 14.5861 9.6392 15.4516 9.6392 16.5156V19.6737C9.6392 19.9252 9.69093 20.1642 9.7789 20.3848H8.92159C7.85762 20.3848 6.9917 21.2504 6.9917 22.3143V25.4724C6.9917 26.5364 7.85762 27.4023 8.92159 27.4023H9.7789C9.691 27.6228 9.63928 27.8617 9.63928 28.1131V31.2712C9.63928 31.5228 9.691 31.7617 9.77898 31.9823H8.92167C7.8577 31.9823 6.99178 32.8478 6.99178 33.9118V37.0699C6.99178 38.1339 7.85762 38.9998 8.92167 38.9998H27.4305C28.4945 38.9998 29.3604 38.1339 29.3604 37.0699V33.9118C29.3604 33.6604 29.3088 33.4215 29.2209 33.2011H30.0781C31.1421 33.2011 32.008 32.3353 32.008 31.2712V28.1131C32.008 27.0491 31.1422 26.1836 30.0781 26.1836H29.2208C29.3088 25.963 29.3604 25.724 29.3604 25.4724V22.3143C29.3604 22.0629 29.3088 21.824 29.2209 21.6035H30.0781C31.142 21.6037 32.0078 20.7378 32.0078 19.6738ZM23.4297 3.21622C25.1173 1.53366 27.822 1.26044 28.9949 1.22479C28.9597 2.39799 28.6866 5.103 27.0043 6.78998C25.3107 8.48389 22.6066 8.75049 21.4373 8.78256C21.4695 7.61332 21.7361 4.90953 23.4297 3.21622ZM14.6427 6.79059C12.9605 5.10293 12.6867 2.39799 12.6516 1.22479C13.8245 1.26051 16.5298 1.53359 18.2168 3.21562C19.911 4.90983 20.1776 7.61507 20.2097 8.78386C19.0422 8.75346 16.3423 8.49044 14.6427 6.79059ZM10.858 19.6738V16.5157C10.858 16.1239 11.177 15.8049 11.5692 15.8049H30.078C30.4702 15.8049 30.7892 16.1239 30.7892 16.5157V19.6738C30.7892 20.0659 30.4702 20.3849 30.078 20.3849C25.3309 20.3849 16.3158 20.3849 11.5692 20.3849C11.177 20.3849 10.858 20.066 10.858 19.6738ZM28.1416 33.912V37.0701C28.1416 37.4623 27.8226 37.7813 27.4304 37.7813H8.92167C8.52953 37.7813 8.21053 37.4623 8.21053 37.0701V33.912C8.21053 33.5202 8.52946 33.2012 8.92167 33.2012C13.6688 33.2012 22.6839 33.2012 27.4305 33.2012C27.8227 33.2012 28.1416 33.5202 28.1416 33.912ZM30.7891 28.1132V31.2713C30.7891 31.6634 30.4702 31.9825 30.0779 31.9825C25.3308 31.9825 16.3157 31.9825 11.5691 31.9825C11.177 31.9825 10.858 31.6635 10.858 31.2713V28.1132C10.858 27.7214 11.1769 27.4024 11.5691 27.4024C16.3185 27.4024 25.3315 27.4024 30.0779 27.4024C30.4701 27.4025 30.7891 27.7214 30.7891 28.1132ZM28.1416 22.3145V25.4726C28.1416 25.8647 27.8226 26.1837 27.4304 26.1837C22.681 26.1837 13.668 26.1837 8.92159 26.1837C8.52946 26.1837 8.21045 25.8648 8.21045 25.4726V22.3145C8.21045 21.9227 8.52938 21.6037 8.92159 21.6037C13.6687 21.6037 22.6838 21.6037 27.4304 21.6037C27.8226 21.6037 28.1416 21.9227 28.1416 22.3145Z" fill="url(#paint1_linear_297_1338)"/>
<path d="M12.8822 17.0576C12.5455 17.0576 12.2729 17.3305 12.2729 17.6669V18.5226C12.2729 18.8592 12.5455 19.1319 12.8822 19.1319C13.219 19.1319 13.4915 18.8591 13.4915 18.5226V17.6669C13.4917 17.3304 13.2192 17.0576 12.8822 17.0576ZM15.5292 17.0576C15.1925 17.0576 14.9199 17.3305 14.9199 17.6669V18.5226C14.9199 18.8592 15.1925 19.1319 15.5292 19.1319C15.866 19.1319 16.1385 18.8591 16.1385 18.5226V17.6669C16.1386 17.3304 15.8661 17.0576 15.5292 17.0576ZM18.1767 17.0576C17.84 17.0576 17.5674 17.3305 17.5674 17.6669V18.5226C17.5674 18.8592 17.84 19.1319 18.1767 19.1319C18.5135 19.1319 18.786 18.8591 18.786 18.5226V17.6669C18.7861 17.3304 18.5136 17.0576 18.1767 17.0576ZM20.8237 17.0576C20.4869 17.0576 20.2144 17.3305 20.2144 17.6669V18.5226C20.2144 18.8592 20.4869 19.1319 20.8237 19.1319C21.1605 19.1319 21.433 18.8591 21.433 18.5226V17.6669C21.433 17.3304 21.1605 17.0576 20.8237 17.0576ZM23.4712 17.0576C23.1344 17.0576 22.8619 17.3305 22.8619 17.6669V18.5226C22.8619 18.8592 23.1344 19.1319 23.4712 19.1319C23.808 19.1319 24.0805 18.8591 24.0805 18.5226V17.6669C24.0806 17.3304 23.808 17.0576 23.4712 17.0576ZM26.1181 17.0576C25.7813 17.0576 25.5088 17.3305 25.5088 17.6669V18.5226C25.5088 18.8592 25.7813 19.1319 26.1181 19.1319C26.4549 19.1319 26.7274 18.8591 26.7274 18.5226V17.6669C26.7275 17.3304 26.4549 17.0576 26.1181 17.0576ZM28.7656 19.132C29.1024 19.132 29.3749 18.8592 29.3749 18.5227V17.667C29.3749 17.3305 29.1024 17.0577 28.7656 17.0577C28.4289 17.0577 28.1563 17.3305 28.1563 17.667V18.5227C28.1563 18.8592 28.4289 19.132 28.7656 19.132Z" fill="url(#paint2_linear_297_1338)"/>
<defs>
<linearGradient id="paint0_linear_297_1338" x1="7.59562" y1="21.7342" x2="31.1559" y2="26.9439" gradientUnits="userSpaceOnUse">
<stop stopColor="#FC365F"/>
<stop offset="0.984375" stopColor="#A00BFB"/>
</linearGradient>
<linearGradient id="paint1_linear_297_1338" x1="4.42049" y1="-3.20073" x2="35.4242" y2="-0.156389" gradientUnits="userSpaceOnUse">
<stop stopColor="#FC365F"/>
<stop offset="0.984375" stopColor="#A00BFB"/>
</linearGradient>
<linearGradient id="paint2_linear_297_1338" x1="10.5152" y1="16.8874" x2="18.7688" y2="27.3038" gradientUnits="userSpaceOnUse">
<stop stopColor="#FC365F"/>
<stop offset="0.984375" stopColor="#A00BFB"/>
</linearGradient>
</defs>
</svg>
