<svg width="39" height="39" viewBox="0 0 39 39" fill="none" xmlns="http://www.w3.org/2000/svg">
<g clipPath="url(#clip0_297_1329)">
<path d="M33.2872 5.7129C29.6126 2.14417 24.6814 0.164625 19.5592 0.20206C14.4369 0.239494 9.53513 2.2909 5.91308 5.91296C2.29103 9.53501 0.239616 14.4368 0.202182 19.559C0.164747 24.6813 2.14429 29.6125 5.71302 33.2871C9.38763 36.8558 14.3189 38.8354 19.4411 38.798C24.5633 38.7605 29.4651 36.7091 33.0872 33.0871C36.7092 29.465 38.7606 24.5632 38.7981 19.441C38.8355 14.3188 36.856 9.3875 33.2872 5.7129ZM31.4972 20.0713H37.8476C37.7906 21.9813 37.4341 23.8705 36.7911 25.6699H31.4972V20.0713ZM31.4972 18.9287V16.4531C31.4997 14.2145 30.872 12.0203 29.6858 10.1217L32.8713 6.93622C35.941 10.1906 37.7114 14.4571 37.8476 18.9287H31.4972ZM1.15261 20.0713H7.50306V25.6699H2.20911C1.56619 23.8705 1.20968 21.9813 1.15261 20.0713ZM7.50306 16.4531V18.9287H1.15261C1.28887 14.4571 3.05929 10.1906 6.12892 6.93622L9.31443 10.1217C8.1283 12.0203 7.50057 14.2145 7.50306 16.4531ZM9.97865 9.16729L6.93634 6.1288C10.1907 3.05917 14.4573 1.28875 18.9288 1.15249V4.46977C17.1849 4.55382 15.4804 5.01776 13.9345 5.82915C12.3885 6.64054 11.0385 7.77981 9.97865 9.16729ZM20.0714 1.15249C24.543 1.28875 28.8096 3.05917 32.0639 6.1288L29.0216 9.16729C27.9618 7.77981 26.6117 6.64054 25.0658 5.82915C23.5198 5.01776 21.8153 4.55382 20.0714 4.46977V1.15249ZM19.5001 37.8574C11.9759 37.8574 5.49517 33.3062 2.66614 26.8125H8.07435C8.22586 26.8125 8.37117 26.7523 8.47831 26.6452C8.58545 26.538 8.64564 26.3927 8.64564 26.2412V16.4531C8.64564 10.4675 13.5145 5.59864 19.5001 5.59864C25.4857 5.59864 30.3546 10.4675 30.3546 16.4531V26.2412C30.3546 26.3927 30.4148 26.538 30.5219 26.6452C30.6291 26.7523 30.7744 26.8125 30.9259 26.8125H36.3341C33.5051 33.3062 27.0244 37.8574 19.5001 37.8574Z" fill="url(#paint0_linear_297_1329)"/>
<path d="M20.0713 25.8413V15.6914C20.0713 15.5399 20.0111 15.3946 19.904 15.2874C19.7968 15.1803 19.6515 15.1201 19.5 15.1201C19.3485 15.1201 19.2032 15.1803 19.096 15.2874C18.9889 15.3946 18.9287 15.5399 18.9287 15.6914V25.8413C18.2351 25.9829 17.6189 26.3769 17.1993 26.9471C16.7798 27.5172 16.5869 28.2229 16.658 28.9271C16.7292 29.6314 17.0593 30.2842 17.5844 30.7589C18.1095 31.2336 18.7921 31.4965 19.5 31.4965C20.2079 31.4965 20.8905 31.2336 21.4156 30.7589C21.9407 30.2842 22.2708 29.6314 22.342 28.9271C22.4131 28.2229 22.2202 27.5172 21.8007 26.9471C21.3812 26.3769 20.7649 25.9829 20.0713 25.8413ZM19.5 30.3545C19.161 30.3545 18.8297 30.254 18.5478 30.0657C18.266 29.8773 18.0463 29.6097 17.9166 29.2965C17.7869 28.9833 17.7529 28.6387 17.8191 28.3063C17.8852 27.9738 18.0484 27.6684 18.2881 27.4287C18.5278 27.189 18.8332 27.0258 19.1656 26.9597C19.4981 26.8936 19.8427 26.9275 20.1559 27.0572C20.469 27.1869 20.7367 27.4066 20.925 27.6885C21.1134 27.9703 21.2139 28.3017 21.2139 28.6406C21.2135 29.095 21.0328 29.5307 20.7114 29.8521C20.3901 30.1734 19.9544 30.3541 19.5 30.3545Z" fill="url(#paint1_linear_297_1329)"/>
</g>
<defs>
<linearGradient id="paint0_linear_297_1329" x1="-3.76538" y1="-2.96613" x2="43.4248" y2="4.25774" gradientUnits="userSpaceOnUse">
<stop stop-color="#FC365F"/>
<stop offset="0.984375" stop-color="#A00BFB"/>
</linearGradient>
<linearGradient id="paint1_linear_297_1329" x1="16.0564" y1="13.7761" x2="23.1845" y2="14.1568" gradientUnits="userSpaceOnUse">
<stop stop-color="#FC365F"/>
<stop offset="0.984375" stop-color="#A00BFB"/>
</linearGradient>
<clipPath id="clip0_297_1329">
<rect width="39" height="39" fill="white"/>
</clipPath>
</defs>
</svg>
