<svg width="39" height="39" viewBox="0 0 39 39" fill="none" xmlns="http://www.w3.org/2000/svg">
<path fill-rule="evenodd" clip-rule="evenodd" d="M15.1009 2.10095C15.4057 1.79621 15.819 1.625 16.25 1.625H29.25C31.9425 1.625 34.125 3.80762 34.125 6.5V13C34.125 13.8975 33.3975 14.625 32.5 14.625C31.6025 14.625 30.875 13.8975 30.875 13V6.5C30.875 5.60255 30.1475 4.875 29.25 4.875H17.875V13C17.875 13.8975 17.1475 14.625 16.25 14.625H8.125V32.5C8.125 33.3975 8.85255 34.125 9.75 34.125H16.25C17.1475 34.125 17.875 34.8525 17.875 35.75C17.875 36.6475 17.1475 37.375 16.25 37.375H9.75C7.05762 37.375 4.875 35.1925 4.875 32.5V13C4.875 12.569 5.04621 12.1557 5.35095 11.8509L15.1009 2.10095ZM10.4231 11.375H14.625V7.17309L10.4231 11.375ZM32.7789 30.4808C33.6295 29.1964 34.125 27.656 34.125 26C34.125 21.5127 30.4873 17.875 26 17.875C21.5127 17.875 17.875 21.5127 17.875 26C17.875 30.4873 21.5127 34.125 26 34.125C27.656 34.125 29.1964 33.6295 30.4808 32.7789L34.601 36.899C35.2355 37.5336 36.2645 37.5336 36.899 36.899C37.5336 36.2645 37.5336 35.2355 36.899 34.601L32.7789 30.4808ZM21.125 26C21.125 23.3075 23.3075 21.125 26 21.125C28.6925 21.125 30.875 23.3075 30.875 26C30.875 28.6925 28.6925 30.875 26 30.875C23.3075 30.875 21.125 28.6925 21.125 26Z" fill="url(#paint0_linear_297_1389)"/>
<defs>
<linearGradient id="paint0_linear_297_1389" x1="1.53461" y1="-1.30902" x2="41.4289" y2="4.24281" gradientUnits="userSpaceOnUse">
<stop stopColor="#FC365F"/>
<stop offset="0.984375" stopColor="#A00BFB"/>
</linearGradient>
</defs>
</svg>
