<svg width="39" height="39" viewBox="0 0 39 39" fill="none" xmlns="http://www.w3.org/2000/svg">
<path d="M19.5 2.03122C16.3229 1.98208 13.2559 3.1946 10.9714 5.40302C8.68681 7.61143 7.37105 10.6355 7.3125 13.8125C7.31747 15.3943 7.64714 16.9584 8.28108 18.4077C8.91503 19.857 9.83976 21.1607 10.998 22.2381L10.9753 33.9625C10.9459 34.4718 11.0476 34.9802 11.2706 35.4391C11.4937 35.8979 11.8306 36.292 12.2493 36.5836C12.6638 36.8286 13.1342 36.9632 13.6155 36.9746C14.0969 36.9859 14.5731 36.8737 14.9987 36.6486L19.3375 34.5881C19.4351 34.5687 19.5356 34.5687 19.6332 34.5881L24.0013 36.6502C24.4305 36.8586 24.9005 36.9696 25.3776 36.9752C25.8617 36.979 26.3366 36.8437 26.7459 36.5852C27.167 36.2949 27.5064 35.9012 27.7315 35.4419C27.9566 34.9826 28.0598 34.4732 28.0312 33.9625V22.2121C29.1813 21.1354 30.0989 19.8348 30.7277 18.3903C31.3565 16.9458 31.6831 15.3879 31.6875 13.8125C31.629 10.6355 30.3132 7.61143 28.0286 5.40302C25.7441 3.1946 22.6771 1.98208 19.5 2.03122ZM25.5938 33.9625C25.5938 34.3135 25.4946 34.489 25.4475 34.5182C25.4004 34.5475 25.2769 34.5475 25.0477 34.437L20.6781 32.3748C20.3058 32.2133 19.9042 32.1299 19.4984 32.1299C19.0925 32.1299 18.691 32.2133 18.3186 32.3748L13.9571 34.4353C13.728 34.5458 13.585 34.5393 13.5574 34.5182C13.5298 34.4971 13.4111 34.3118 13.4127 33.9592L13.4322 24.0158C15.2916 25.053 17.3858 25.5963 19.5149 25.5937C21.644 25.5911 23.7369 25.0429 25.5938 24.0012V33.9625ZM19.5 23.1562C16.9691 23.2063 14.5215 22.2509 12.6939 20.4994C10.8662 18.7479 9.80757 16.3432 9.75 13.8125C9.808 11.2818 10.8668 8.87741 12.6943 7.12599C14.5219 5.37458 16.9692 4.41903 19.5 4.46872C22.0308 4.41903 24.4781 5.37458 26.3057 7.12599C28.1332 8.87741 29.192 11.2818 29.25 13.8125C29.1924 16.3432 28.1338 18.7479 26.3061 20.4994C24.4785 22.2509 22.0309 23.2063 19.5 23.1562Z" fill="url(#paint0_linear_297_1327)"/>
<defs>
<linearGradient id="paint0_linear_297_1327" x1="7.7415" y1="32.1522" x2="31.2618" y2="8.63197" gradientUnits="userSpaceOnUse">
<stop stop-color="#EA40AD"/>
<stop offset="1" stop-color="#9641ED"/>
</linearGradient>
</defs>
</svg>
