<svg width="60" height="60" viewBox="0 0 60 60" fill="none" xmlns="http://www.w3.org/2000/svg">
<path fill-rule="evenodd" clip-rule="evenodd" d="M43.0742 47.1513L26.8984 49C25.6836 45.4787 20.1729 38.6695 11 35.9934C12.03 31.9748 14.5697 31.1517 18.0689 31.9131C18.6983 32.054 20.3269 32.6526 21.4669 32.9871C21.6782 33.5241 22.6597 35.8613 22.6597 35.8613L23.7293 35.5532C23.3288 32.4501 22.1624 23.1672 21.3041 13.9856C20.996 10.658 25.4591 10.165 26.1106 13.8447C26.6035 16.6485 27.9724 26.8425 27.9724 26.8425L29.4205 26.8733C29.4205 26.8733 29.4954 15.0199 29.469 12.6475C29.4293 9.3023 34.2491 8.92816 34.3107 12.6739C34.3415 15.2532 34.4119 27.6392 34.4119 27.6392L35.5607 27.9473C35.5607 27.9473 37.2641 16.7101 37.5502 14.3905C37.9552 11.0761 42.6692 11.4723 42.2115 15.1828C41.9078 17.6917 40.1075 29.3382 40.1075 29.3382L41.1551 29.7123C41.1551 29.7123 44.0822 21.5739 44.6412 19.8044C45.5215 16.9302 49.725 18.2683 48.7126 21.4902C46.0263 29.8466 44.1385 38.4384 43.0742 47.1513Z" fill="url(#paint0_linear_297_1371)"/>
<defs>
<linearGradient id="paint0_linear_297_1371" x1="7.10779" y1="6.79926" x2="53.4685" y2="13.6903" gradientUnits="userSpaceOnUse">
<stop stopColor="#FC365F"/>
<stop offset="0.984375" stopColor="#A00BFB"/>
</linearGradient>
</defs>
</svg>
