<svg width="39" height="39" viewBox="0 0 39 39" fill="none" xmlns="http://www.w3.org/2000/svg">
<g clipPath="url(#clip0_297_1409)">
<path d="M38.6417 29.0849L34.0814 24.5271C34.597 24.1524 35.004 23.6478 35.2611 23.0647C35.6621 21.5964 35.475 20.0296 34.7395 18.697C34.42 18.0164 34.2118 17.2889 34.1229 16.5424C34.2117 15.8311 34.415 15.1389 34.7249 14.4925C35.4861 13.1279 35.6779 11.518 35.2587 10.0127C34.4917 8.65198 33.2178 7.64969 31.7148 7.22438C31.0397 6.98531 30.4076 6.63881 29.8429 6.19825C29.3745 5.60723 29.0042 4.94476 28.7461 4.23619C28.3241 2.77458 27.3493 1.53487 26.0285 0.78003C24.5604 0.375339 22.9922 0.562614 21.6607 1.30162C20.9779 1.62191 20.2479 1.83012 19.4988 1.91827C18.7875 1.82948 18.0953 1.62618 17.449 1.31625C16.0851 0.552943 14.4746 0.360179 12.9691 0.78003C11.6079 1.54762 10.6056 2.82247 10.1808 4.32637C9.94174 5.00149 9.59525 5.63358 9.15469 6.19825C8.56367 6.66663 7.9012 7.03696 7.19263 7.29506C5.73102 7.71706 4.4913 8.69187 3.73647 10.0127C3.33546 11.481 3.52257 13.0478 4.25806 14.3804C4.57834 15.0633 4.78656 15.7933 4.87471 16.5424C4.78592 17.2536 4.58261 17.9458 4.27268 18.5922C3.51149 19.9568 3.31966 21.5667 3.73891 23.072C3.99692 23.6518 4.39982 24.1554 4.90883 24.5344L0.358302 29.0825C0.221625 29.2191 0.119403 29.3863 0.0600723 29.5702C0.000741207 29.7542 -0.0139968 29.9496 0.0170749 30.1403C0.0480665 30.3309 0.123895 30.5114 0.23831 30.6669C0.352725 30.8224 0.502453 30.9485 0.67516 31.0348L5.18669 33.2918L7.44368 37.8033C7.52999 37.976 7.65609 38.1258 7.81161 38.2402C7.96713 38.3546 8.14761 38.4304 8.33818 38.4614C8.40187 38.4717 8.46622 38.4774 8.53073 38.4785C8.69088 38.4788 8.84951 38.4475 8.99756 38.3864C9.14561 38.3254 9.28017 38.2357 9.39355 38.1226L15.0311 32.4826C15.8223 32.3318 16.5952 32.0973 17.3369 31.7831C18.0197 31.4628 18.7497 31.2546 19.4988 31.1664C20.2101 31.2552 20.9023 31.4585 21.5486 31.7685C22.3334 32.1107 23.1555 32.3602 23.9981 32.5119L29.604 38.1178C29.717 38.2317 29.8514 38.3223 29.9995 38.3842C30.1475 38.4461 30.3064 38.4781 30.4669 38.4785C30.5321 38.4784 30.5973 38.4735 30.6618 38.4639C30.8524 38.4329 31.0329 38.357 31.1884 38.2426C31.3439 38.1282 31.47 37.9785 31.5564 37.8058L33.8133 33.2942L38.3249 31.0373C38.4976 30.951 38.6473 30.8248 38.7617 30.6693C38.8761 30.5138 38.952 30.3333 38.983 30.1428C39.014 29.952 38.9993 29.7566 38.94 29.5727C38.8806 29.3888 38.7784 29.2216 38.6417 29.0849ZM19.4988 28.7291C18.444 28.8 17.4112 29.0644 16.4521 29.509C15.4772 29.8917 14.4657 30.2841 13.9026 30.0501C13.3396 29.8162 12.9033 28.8315 12.4817 27.8565C12.1194 26.8631 11.5755 25.9457 10.8779 25.1511C10.1049 24.4782 9.21298 23.9557 8.248 23.6107C7.27306 23.1841 6.2445 22.743 5.98858 22.1263C5.73266 21.5097 6.14213 20.4762 6.53698 19.4794C6.97361 18.5563 7.23636 17.5607 7.31206 16.5424C7.24119 15.4875 6.9768 14.4548 6.53211 13.4957C6.14944 12.5207 5.75703 11.5092 5.99101 10.9462C6.225 10.3832 7.20969 9.94689 8.18463 9.52523C9.17805 9.16294 10.0955 8.61911 10.8901 7.92146C11.563 7.1485 12.0854 6.25654 12.4305 5.29156C12.857 4.31662 13.2982 3.28806 13.9148 3.03214C14.8328 2.93313 15.7587 3.12496 16.5618 3.58054C17.4848 4.01718 18.4805 4.27993 19.4988 4.35562C20.5536 4.28475 21.5864 4.02036 22.5455 3.57567C23.5204 3.193 24.5246 2.79328 25.0949 3.03458C25.6653 3.27587 26.0943 4.25325 26.5159 5.22819C26.8782 6.22161 27.422 7.13902 28.1197 7.93365C28.8927 8.60654 29.7846 9.12899 30.7496 9.47405C31.7245 9.90058 32.7531 10.3417 33.009 10.9584C33.2649 11.575 32.8555 12.6085 32.4606 13.6054C32.024 14.5284 31.7612 15.524 31.6855 16.5424C31.7564 17.5972 32.0208 18.6299 32.4655 19.589C32.8481 20.564 33.2406 21.5755 33.0066 22.1385C32.7726 22.7015 31.7879 23.1378 30.813 23.5595C29.8195 23.9218 28.9021 24.4656 28.1075 25.1633C27.4346 25.9362 26.9122 26.8282 26.5671 27.7932C26.1406 28.7681 25.6994 29.7967 25.0828 30.0526C24.4661 30.3085 23.4351 29.899 22.4358 29.5042C21.5127 29.0675 20.5171 28.8048 19.4988 28.7291ZM8.86465 35.2003L7.18288 31.8367C7.06508 31.6016 6.87442 31.411 6.63935 31.2932L3.27581 29.6114L7.10732 25.7799L7.28281 25.8579C7.95793 26.097 8.59002 26.4435 9.15469 26.884C9.62194 27.4713 9.99222 28.1296 10.2515 28.8339C10.6536 29.9785 11.3337 31.0052 12.2306 31.8221L8.86465 35.2003ZM32.3582 31.3005C32.1232 31.4183 31.9325 31.609 31.8147 31.844L30.1329 35.2076L26.7694 31.844C27.7036 31.0087 28.4085 29.9481 28.8168 28.7632C29.0558 28.0881 29.4023 27.456 29.8429 26.8913C30.4302 26.4241 31.0885 26.0538 31.7928 25.7945L31.8561 25.7653L35.7096 29.6187L32.3582 31.3005ZM29.2482 16.5424C29.2482 13.9567 28.221 11.4769 26.3927 9.6485C24.5643 7.82013 22.0845 6.79297 19.4988 6.79297C16.9131 6.79297 14.4333 7.82013 12.6049 9.6485C10.7766 11.4769 9.7494 13.9567 9.7494 16.5424C9.7494 19.1281 10.7766 21.6079 12.6049 23.4362C14.4333 25.2646 16.9131 26.2917 19.4988 26.2917C22.0845 26.2917 24.5643 25.2646 26.3927 23.4362C28.221 21.6079 29.2482 19.1281 29.2482 16.5424ZM19.4988 23.8544C17.5595 23.8544 15.6997 23.084 14.3284 21.7128C12.9571 20.3415 12.1868 18.4816 12.1868 16.5424C12.1868 14.6031 12.9571 12.7432 14.3284 11.372C15.6997 10.0007 17.5595 9.23031 19.4988 9.23031C21.4381 9.23031 23.2979 10.0007 24.6692 11.372C26.0405 12.7432 26.8108 14.6031 26.8108 16.5424C26.8108 18.4816 26.0405 20.3415 24.6692 21.7128C23.2979 23.084 21.4381 23.8544 19.4988 23.8544Z" fill="url(#paint0_linear_297_1409)"/>
</g>
<defs>
<linearGradient id="paint0_linear_297_1409" x1="-4.007" y1="-2.54928" x2="43.6099" y2="4.94785" gradientUnits="userSpaceOnUse">
<stop stopColor="#FC365F"/>
<stop offset="0.984375" stopColor="#A00BFB"/>
</linearGradient>
<clipPath id="clip0_297_1409">
<rect width="39" height="39" fill="white"/>
</clipPath>
</defs>
</svg>
