<svg width="39" height="39" viewBox="0 0 39 39" fill="none" xmlns="http://www.w3.org/2000/svg">
<path d="M10.3778 26.8857C9.9951 26.8863 9.62121 27.0004 9.30338 27.2135C8.98554 27.4266 8.73804 27.7292 8.59216 28.0829C8.44628 28.4367 8.40857 28.8258 8.48382 29.2009C8.55906 29.5761 8.74387 29.9206 9.01488 30.1907C9.28589 30.4609 9.63092 30.6446 10.0063 30.7187C10.3818 30.7928 10.7707 30.7538 11.124 30.6068C11.4773 30.4598 11.7791 30.2114 11.9912 29.8929C12.2033 29.5744 12.3162 29.2001 12.3156 28.8175C12.314 28.3046 12.1091 27.8133 11.7459 27.4512C11.3826 27.0891 10.8906 26.8857 10.3778 26.8857ZM10.3778 29.5365C10.2364 29.5359 10.0984 29.4935 9.98112 29.4146C9.86384 29.3357 9.77254 29.2238 9.71872 29.0931C9.6649 28.9624 9.65098 28.8187 9.67871 28.6801C9.70643 28.5415 9.77456 28.4142 9.87452 28.3142C9.97447 28.2143 10.1018 28.1461 10.2404 28.1184C10.379 28.0907 10.5227 28.1046 10.6534 28.1584C10.7841 28.2122 10.896 28.3035 10.9749 28.4208C11.0538 28.5381 11.0962 28.6761 11.0968 28.8175C11.0971 28.912 11.0788 29.0056 11.0427 29.093C11.0067 29.1804 10.9538 29.2598 10.8869 29.3266C10.8201 29.3935 10.7407 29.4464 10.6533 29.4824C10.5659 29.5185 10.4723 29.5368 10.3778 29.5365Z" fill="url(#paint0_linear_297_1413)"/>
<path d="M29.6339 26.8857C29.2512 26.8863 28.8773 27.0004 28.5595 27.2135C28.2416 27.4266 27.9941 27.7292 27.8483 28.0829C27.7024 28.4367 27.6647 28.8258 27.7399 29.2009C27.8152 29.5761 28 29.9206 28.271 30.1907C28.542 30.4609 28.887 30.6446 29.2624 30.7187C29.6379 30.7928 30.0268 30.7538 30.3801 30.6068C30.7334 30.4598 31.0352 30.2114 31.2473 29.8929C31.4594 29.5744 31.5723 29.2001 31.5717 28.8175C31.5701 28.3046 31.3652 27.8133 31.002 27.4512C30.6387 27.0891 30.1468 26.8857 29.6339 26.8857ZM29.6339 29.5365C29.4925 29.5359 29.3545 29.4935 29.2372 29.4146C29.1199 29.3357 29.0286 29.2238 28.9748 29.0931C28.921 28.9624 28.9071 28.8187 28.9348 28.6801C28.9625 28.5415 29.0307 28.4142 29.1306 28.3142C29.2306 28.2143 29.3579 28.1461 29.4965 28.1184C29.6351 28.0907 29.7788 28.1046 29.9095 28.1584C30.0402 28.2122 30.1521 28.3035 30.231 28.4208C30.3099 28.5381 30.3523 28.6761 30.3529 28.8175C30.3533 28.912 30.3349 29.0056 30.2988 29.093C30.2628 29.1804 30.2099 29.2598 30.143 29.3266C30.0762 29.3935 29.9968 29.4464 29.9094 29.4824C29.822 29.5185 29.7284 29.5368 29.6339 29.5365Z" fill="url(#paint1_linear_297_1413)"/>
<path d="M31.3951 15.0699L28.8905 12.4191C28.8336 12.3581 28.7647 12.3093 28.6882 12.2757C28.6117 12.2422 28.5292 12.2246 28.4457 12.2241H25.6426C25.481 12.2241 25.326 12.2883 25.2117 12.4026C25.0974 12.5169 25.0332 12.6719 25.0332 12.8335V16.8188C25.0332 16.9804 25.0974 17.1354 25.2117 17.2497C25.326 17.364 25.481 17.4282 25.6426 17.4282H30.9502C31.1119 17.4282 31.2668 17.364 31.3811 17.2497C31.4954 17.1354 31.5596 16.9804 31.5596 16.8188V15.4904C31.5588 15.3347 31.5002 15.1848 31.3951 15.0699ZM30.3409 16.2094H26.252V13.4429H28.1837L30.3409 15.728V16.2094Z" fill="url(#paint2_linear_297_1413)"/>
<path d="M36.5747 17.5682L30.2859 10.0302C30.1666 9.88708 30.0176 9.77153 29.8493 9.69157C29.681 9.61161 29.4973 9.56915 29.3109 9.56711H23.6498C23.3126 9.56871 22.9895 9.70341 22.751 9.94191C22.5125 10.1804 22.3779 10.5034 22.3763 10.8407V18.8601H21.6084V12.8334C21.6084 12.6717 21.5442 12.5167 21.43 12.4025C21.3157 12.2882 21.1607 12.224 20.9991 12.224H16.9589V6.19727C16.9589 6.03565 16.8947 5.88065 16.7804 5.76637C16.6661 5.65209 16.5111 5.58789 16.3495 5.58789H9.71344C9.55182 5.58789 9.39682 5.65209 9.28254 5.76637C9.16826 5.88065 9.10406 6.03565 9.10406 6.19727V12.224H5.07C4.90838 12.224 4.75339 12.2882 4.63911 12.4025C4.52483 12.5167 4.46063 12.6717 4.46063 12.8334V18.8601H2.74219C2.58057 18.8601 2.42557 18.9243 2.31129 19.0386C2.19701 19.1528 2.13281 19.3078 2.13281 19.4695V26.1055C2.13281 26.2672 2.19701 26.4222 2.31129 26.5364C2.42557 26.6507 2.58057 26.7149 2.74219 26.7149H6.30094C5.98186 27.3328 5.8073 28.0151 5.79042 28.7103C5.77354 29.4055 5.91478 30.0954 6.20348 30.728C6.49219 31.3607 6.92082 31.9195 7.45703 32.3623C7.99323 32.805 8.62301 33.1202 9.29882 33.2841C9.97464 33.4479 10.6789 33.4562 11.3583 33.3081C12.0378 33.16 12.6747 32.8596 13.2211 32.4294C13.7675 31.9992 14.209 31.4506 14.5124 30.8249C14.8157 30.1991 14.973 29.5127 14.9723 28.8173C14.9715 28.085 14.7938 27.3638 14.4544 26.7149H25.5572C25.2377 27.3324 25.0628 28.0144 25.0455 28.7095C25.0282 29.4045 25.1691 30.0944 25.4575 30.727C25.7458 31.3596 26.1742 31.9184 26.7101 32.3613C27.2461 32.8041 27.8756 33.1194 28.5513 33.2833C29.2269 33.4472 29.931 33.4555 30.6103 33.3075C31.2896 33.1595 31.9264 32.8591 32.4726 32.4289C33.0188 31.9988 33.4601 31.4502 33.7633 30.8245C34.0664 30.1989 34.2234 29.5125 34.2225 28.8173C34.2237 28.0855 34.0481 27.3642 33.7106 26.7149H36.2578C36.4194 26.7149 36.5744 26.6507 36.6887 26.5364C36.803 26.4222 36.8672 26.2672 36.8672 26.1055V18.3848C36.8668 18.087 36.7635 17.7985 36.5747 17.5682ZM20.3897 13.4427V18.8601H14.9723V13.4427H20.3897ZM10.3228 6.80664H15.7402V12.224H10.3228V6.80664ZM13.7536 13.4427V18.8601H12.3155V13.4427H13.7536ZM5.67937 13.4427H11.0967V18.8601H5.67937V13.4427ZM10.3777 32.1932C9.72502 32.1943 9.08615 32.0056 8.53888 31.65C7.99161 31.2945 7.55958 30.7874 7.29542 30.1906C7.03125 29.5938 6.94637 28.9331 7.05111 28.2889C7.15585 27.6447 7.44569 27.0449 7.88531 26.5626C7.90914 26.5375 7.93152 26.511 7.95234 26.4834C8.33886 26.0818 8.8189 25.7823 9.34951 25.6117C9.88013 25.4411 10.4448 25.4047 10.9929 25.5057C11.541 25.6068 12.0555 25.8422 12.4904 26.1908C12.9253 26.5394 13.267 26.9904 13.4849 27.5034C13.7028 28.0164 13.7901 28.5754 13.7391 29.1304C13.688 29.6854 13.5001 30.2191 13.1923 30.6838C12.8845 31.1484 12.4662 31.5295 11.975 31.7929C11.4839 32.0563 10.935 32.1938 10.3777 32.1932ZM22.3763 25.4962H13.5403C12.6897 24.6823 11.5579 24.2281 10.3807 24.2281C9.20349 24.2281 8.07167 24.6823 7.22109 25.4962H3.35156V20.0788H22.3763V25.4962ZM29.6339 32.1932C28.9668 32.1938 28.3145 31.9966 27.7595 31.6265C27.2045 31.2563 26.7717 30.73 26.5159 30.1139C26.26 29.4978 26.1926 28.8197 26.3222 28.1653C26.4517 27.5109 26.7724 26.9096 27.2437 26.4375C27.715 25.9653 28.3157 25.6436 28.9699 25.5128C29.624 25.3821 30.3022 25.4483 30.9188 25.703C31.5353 25.9577 32.0625 26.3896 32.4336 26.9439C32.8047 27.4982 33.0031 28.1502 33.0037 28.8173C33.0042 29.7117 32.6495 30.5697 32.0177 31.2028C31.3858 31.8358 30.5284 32.1921 29.6339 32.1932ZM35.6484 22.8454H34.2103V21.4073H35.6484V22.8454ZM35.6484 20.1885H34.2103C33.8874 20.1895 33.5779 20.3182 33.3496 20.5465C33.1212 20.7749 32.9925 21.0843 32.9916 21.4073V22.8454C32.9925 23.1683 33.1212 23.4778 33.3496 23.7061C33.5779 23.9345 33.8874 24.0632 34.2103 24.0641H35.6484V25.4962H32.7905C31.9409 24.6827 30.8101 24.2286 29.6339 24.2286C28.4577 24.2286 27.3269 24.6827 26.4773 25.4962H23.595V10.8407C23.5964 10.8266 23.6026 10.8134 23.6126 10.8034C23.6226 10.7934 23.6358 10.7872 23.6498 10.7859L29.3475 10.8102L35.6484 18.3848V20.1885Z" fill="url(#paint3_linear_297_1413)"/>
<defs>
<linearGradient id="paint0_linear_297_1413" x1="8.04833" y1="26.5682" x2="12.7794" y2="27.2924" gradientUnits="userSpaceOnUse">
<stop stop-color="#FC365F"/>
<stop offset="0.984375" stop-color="#A00BFB"/>
</linearGradient>
<linearGradient id="paint1_linear_297_1413" x1="27.3044" y1="26.5682" x2="32.0355" y2="27.2924" gradientUnits="userSpaceOnUse">
<stop stop-color="#FC365F"/>
<stop offset="0.984375" stop-color="#A00BFB"/>
</linearGradient>
<linearGradient id="paint2_linear_297_1413" x1="24.3624" y1="11.797" x2="32.2386" y2="13.3091" gradientUnits="userSpaceOnUse">
<stop stop-color="#FC365F"/>
<stop offset="0.984375" stop-color="#A00BFB"/>
</linearGradient>
<linearGradient id="paint3_linear_297_1413" x1="-1.43723" y1="3.30424" x2="40.4944" y2="11.3169" gradientUnits="userSpaceOnUse">
<stop stop-color="#FC365F"/>
<stop offset="0.984375" stop-color="#A00BFB"/>
</linearGradient>
</defs>
</svg>
