<svg width="60" height="60" viewBox="0 0 60 60" fill="none" xmlns="http://www.w3.org/2000/svg">
<g clip-path="url(#clip0_297_1526)">
<path fill-rule="evenodd" clip-rule="evenodd" d="M14.887 36.4028C15.0219 34.4748 15.111 32.5416 15.3047 30.6199C15.4392 28.4386 15.2911 26.249 14.8641 24.1056C14.5881 22.3519 14.7876 20.7605 15.9881 19.3725C16.2263 19.0857 16.4219 18.766 16.5687 18.4233C17.1645 17.173 18.1228 16.1308 19.319 15.4325C20.2664 14.833 21.2561 14.2965 22.2413 13.7571C23.3983 13.1335 24.6723 12.7571 25.9824 12.6519C26.4796 12.6062 26.9733 12.5142 27.4681 12.4885C28.2118 12.41 28.9614 12.4031 29.7064 12.4679C30.8858 12.6428 32.0253 12.8359 33.2035 12.401C33.7504 12.2298 34.3426 12.2794 34.8533 12.5393C35.3714 12.7547 35.8753 13.0028 36.3619 13.2822C37.2204 13.7928 38.0415 14.3638 38.819 14.9908C39.5443 15.581 40.1825 16.2709 40.7144 17.0399C41.7798 18.7347 42.4878 20.6292 42.795 22.6073C43.1409 24.4519 43.0499 26.3518 42.5293 28.1548C42.4293 28.4485 42.3937 28.7603 42.4247 29.069C42.7867 31.474 43.0211 33.8965 43.127 36.3262C43.1344 36.4502 43.1241 36.6159 43.1961 36.6839C43.3104 36.7919 43.5299 36.9319 43.6276 36.8868C44.5956 36.4502 45.555 35.9954 46.4927 35.4982C46.5908 35.431 46.6726 35.3426 46.7319 35.2395C46.7913 35.1364 46.8267 35.0213 46.8356 34.9028C46.8299 34.1553 46.7584 33.4085 46.6967 32.6634C46.6504 32.1034 46.5573 31.5491 46.5281 30.9908C46.4743 29.5563 46.344 28.1257 46.1378 26.7051C45.8133 24.6742 45.5933 22.6268 45.3184 20.5908C45.1115 19.3564 44.696 18.1663 44.0898 17.0713C43.1768 15.2949 41.9729 13.6837 40.5281 12.3045C38.4555 10.3045 35.8493 9.49932 33.2139 8.73304C32.5532 8.53473 31.8474 8.54571 31.1933 8.76446C29.8948 9.21008 28.5442 9.48609 27.175 9.58561C24.5798 9.95023 22.0534 10.6994 19.679 11.8085C18.3024 12.4226 17.1272 13.413 16.2887 14.6656C14.979 16.5702 13.7881 18.5702 13.3664 20.8942C13.1001 22.3616 12.9561 23.8525 12.7767 25.3353C12.6567 26.3239 12.5481 27.3182 12.483 28.3113C12.3944 28.9927 12.3944 29.6826 12.483 30.3639C12.6978 31.5944 12.7954 32.8424 12.7744 34.0913C12.8024 37.277 12.7744 40.4639 12.8081 43.6513C12.7982 44.7764 12.5739 45.8892 12.147 46.9302C12.0401 47.258 11.8593 47.5568 11.6184 47.8034C11.3775 48.0501 11.0831 48.238 10.7579 48.3525C10.057 48.6092 9.33441 48.8025 8.59898 48.9302C7.41444 49.0703 6.21381 48.9022 5.11328 48.4422C4.49976 48.202 3.93966 47.8432 3.46498 47.3863C2.99031 46.9293 2.61041 46.3832 2.34703 45.7793C1.99731 45.049 1.68127 44.3022 1.33098 43.5708C0.570526 41.856 0.132556 40.0157 0.0389902 38.1422C-0.161936 36.0195 0.172008 33.8803 1.01039 31.9199C1.20873 31.53 1.35919 31.1174 1.45842 30.6913C1.56256 30.1379 1.77915 29.6118 2.09486 29.1455C2.41058 28.6792 2.81871 28.2827 3.29387 27.9805C3.59502 27.7605 3.84412 27.4708 4.13497 27.233C5.45497 26.1559 6.90756 25.5839 8.64927 26.0153C9.19499 26.1508 9.32069 26.0553 9.43841 25.5233C9.58698 24.8525 9.63954 24.1628 9.81382 23.5022C10.8161 19.6908 12.0155 15.9559 14.2812 12.6622C14.5622 12.2493 14.8709 11.856 15.2053 11.4851C17.4874 8.88898 20.4915 7.03185 23.8338 6.15076C26.9693 5.31522 30.201 4.896 33.4459 4.9039C33.8197 4.87617 34.1956 4.89538 34.5647 4.96107C37.2819 5.70049 39.9722 6.50735 42.1327 8.46107C42.7339 9.00449 43.3744 9.50449 43.9761 10.0462C45.4011 11.3732 46.4633 13.0424 47.0619 14.8953C47.5577 16.1768 47.8761 17.5201 48.0082 18.8879C48.0092 18.9507 48.0145 19.0133 48.0241 19.0753C48.3893 20.5892 48.6675 22.1228 48.8573 23.6685C48.8612 23.7631 48.886 23.8556 48.9299 23.9395C48.9738 24.0234 49.0357 24.0966 49.1112 24.1537C49.1866 24.2109 49.2738 24.2507 49.3664 24.2702C49.4591 24.2898 49.5548 24.2886 49.647 24.2668C50.0778 24.2045 50.5041 24.0953 50.9321 24.0216C52.1693 23.7838 53.4501 23.9518 54.5841 24.5005C55.096 24.7285 55.5626 25.0467 55.9618 25.4399C57.7189 27.3181 58.9548 29.6228 59.547 32.1256C59.9805 34.0787 60.1064 36.0874 59.9201 38.0793C59.907 38.3921 59.8439 38.7008 59.7333 38.9936C59.1618 40.3685 58.5876 41.7456 57.959 43.0948C57.5137 43.9235 56.9091 44.6561 56.1801 45.2508C55.718 45.6755 55.1422 45.9565 54.523 46.0593C53.2376 46.326 51.9209 46.4089 50.6122 46.3056C50.1157 46.2596 49.6244 46.1692 49.1441 46.0354C48.6216 45.9108 48.1543 45.6184 47.8138 45.203C47.4732 44.7877 47.2781 44.2721 47.2584 43.7353C47.1756 42.9302 47.2161 42.1125 47.1915 41.3011C47.1955 40.9289 47.1663 40.5572 47.1041 40.1902C47.0767 40.0594 46.7916 39.8508 46.707 39.8851C45.6093 40.3199 44.5184 40.7771 43.4498 41.2782C43.2738 41.3611 43.1596 41.6708 43.107 41.8965C42.9516 42.565 42.8087 43.2365 42.7213 43.9142C42.6059 45.0345 42.1776 46.0997 41.4853 46.9879C41.0573 47.5233 40.7058 48.1205 40.331 48.6959C39.5009 49.9528 38.3806 50.9915 37.0647 51.7245C35.551 52.5896 33.9922 53.3776 32.4699 54.2291C31.2555 54.8828 29.884 55.188 28.507 55.1108C27.0712 55.1062 25.6467 54.8581 24.2939 54.377C23.4735 54.0823 22.6371 53.8343 21.7887 53.6342C21.2431 53.4943 20.752 53.1939 20.379 52.7719C19.1217 51.3816 17.9956 49.878 17.015 48.2805C16.9112 48.1241 16.827 47.9556 16.7642 47.7788C15.8613 45.1205 15.015 42.4456 14.9636 39.6022C14.9442 38.5393 14.9602 37.4759 14.9602 36.4159C14.939 36.4062 14.9144 36.4039 14.887 36.4028ZM5.64244 35.2096C5.59185 35.2213 5.54278 35.2388 5.49616 35.2616C5.47045 35.2771 5.46297 35.3233 5.44754 35.3548L5.58698 35.1548C5.82012 35.1456 5.98702 35.0662 5.98702 34.7965C6.16705 34.8 6.34647 34.7755 6.51897 34.7239C6.82926 34.573 7.15441 34.5096 7.31898 34.8319C7.45306 35.1008 7.4808 35.4103 7.39669 35.6988C7.20128 36.1512 6.96121 36.5831 6.6801 36.9879C6.05896 37.9834 5.41331 38.9622 4.80531 39.9628C4.67714 40.2346 4.57865 40.5195 4.51158 40.8125C4.13729 40.9485 4.20354 41.2879 4.15897 41.5753C4.11275 41.5898 4.06819 41.6089 4.02588 41.6325C4.00094 41.6517 3.97995 41.6756 3.96414 41.7028L4.10589 41.5205C4.24003 41.4543 4.34837 41.3454 4.41385 41.2109C4.47933 41.0764 4.4982 40.924 4.46756 40.7776C4.68846 40.7049 4.89956 40.6053 5.09612 40.4811C5.77212 39.9359 6.42416 39.3576 7.09159 38.8011C7.23273 38.6811 7.65725 38.8496 7.70068 39.0559C7.77842 39.2867 7.78898 39.5348 7.73102 39.7713C7.43217 40.457 7.08074 41.1159 6.72816 41.7759C6.40416 42.3793 6.04246 42.965 5.71903 43.5679C5.64623 43.7355 5.59897 43.9131 5.57896 44.0948C5.58114 44.1556 5.59949 44.2148 5.63211 44.2662C5.70468 44.4325 5.80354 44.4456 5.91783 44.2988C6.37211 43.7068 6.81215 43.1022 7.28243 42.5273C7.41658 42.3958 7.5856 42.3054 7.76953 42.267C7.95346 42.2287 8.1446 42.2439 8.32017 42.3108C8.47452 42.4152 8.60093 42.5559 8.68847 42.7204C8.77602 42.885 8.822 43.0684 8.8224 43.2548C8.78992 43.5026 8.7311 43.7462 8.64697 43.9816C8.44754 44.5056 8.21615 45.017 8.01444 45.5382C7.94589 45.7099 7.91112 45.8933 7.91211 46.0782C7.91211 46.1719 8.04358 46.3428 8.11272 46.3416C8.41953 46.3501 8.7259 46.3141 9.02239 46.2348C9.98525 45.9256 10.2619 45.5793 10.0973 44.5776C10.0061 43.6516 9.99325 42.7195 10.059 41.7914C10.059 40.6696 10.0624 39.5451 10.0144 38.4256C9.95729 37.1199 9.8361 35.8165 9.76639 34.5108C9.71553 33.5771 9.72872 32.6393 9.66357 31.7068C9.62777 31.1492 9.53198 30.597 9.37786 30.0599C9.2893 29.7639 9.08826 29.5145 8.81787 29.3651C8.42536 29.17 7.99414 29.0653 7.55587 29.0588C7.11761 29.0523 6.68344 29.144 6.28529 29.3273C5.11814 29.9568 4.24612 31.0209 3.8584 32.2891C3.84754 32.3228 3.9156 32.3965 3.96303 32.4319C4.01046 32.4673 4.08525 32.489 4.11154 32.4668C4.50354 32.165 4.86982 31.8239 5.28125 31.5525C5.69441 31.2796 6.13238 31.0462 6.58928 30.8554C6.80494 30.8203 7.02614 30.8465 7.22761 30.9311C7.42907 31.0156 7.60271 31.1551 7.72872 31.3336C7.81215 31.4675 7.85291 31.6236 7.84556 31.7812C7.83821 31.9388 7.7831 32.0904 7.68757 32.2159C7.25442 32.8228 6.78874 33.4073 6.33217 34.0005C6.1436 34.2451 5.91497 34.4696 6.00697 34.8239C5.74012 34.8102 5.64529 34.9668 5.64244 35.2096ZM50.9767 38.9085C51.1064 38.8311 51.209 38.7154 51.2704 38.5774C51.3317 38.4394 51.3489 38.2858 51.3195 38.1376C51.7875 38.0119 52.2504 37.8611 52.7236 37.7691C52.8312 37.7576 52.9401 37.7678 53.0438 37.7989C53.1475 37.8301 53.244 37.8816 53.3276 37.9504C53.4111 38.0192 53.4802 38.104 53.5306 38.1999C53.581 38.2957 53.6119 38.4006 53.6213 38.5085C53.6434 39.1357 53.4509 39.7517 53.0755 40.2548C52.5904 41.0513 52.0802 41.833 51.6002 42.6319C51.4059 42.9548 51.7144 43.0416 51.915 43.1582C52.0454 43.2472 52.204 43.2851 52.3606 43.2648C52.5171 43.2445 52.6608 43.1673 52.7642 43.0479C52.9346 42.8207 53.187 42.669 53.4676 42.6252C53.7482 42.5813 54.0348 42.6487 54.2664 42.813C54.3716 42.8766 54.4955 42.9018 54.6172 42.8844C54.7388 42.867 54.8507 42.8081 54.9339 42.7176C55.5817 42.1235 56.0204 41.336 56.1847 40.4725C56.6938 38.6052 56.7632 36.6454 56.3876 34.7468C56.0773 33.1639 55.7522 31.5822 55.4219 30.001C55.359 29.6988 55.2304 29.4113 55.147 29.1108C54.9036 28.3997 54.455 27.7768 53.8578 27.3205C53.5805 27.1184 53.2641 26.9764 52.9288 26.9034C52.5935 26.8304 52.2467 26.828 51.9104 26.8965C51.2899 26.9365 51.4692 27.5565 51.2247 27.8679C50.9741 28.2233 50.6841 28.5492 50.3601 28.8393C50.1367 29.0107 49.9676 29.2431 49.8735 29.5085C49.7794 29.7739 49.7642 30.0609 49.8299 30.3348C49.8712 30.5134 49.9233 30.6893 49.9858 30.8616C50.1516 30.8235 50.3106 30.7603 50.4573 30.6742C50.8939 30.3279 51.283 29.9125 51.7447 29.6056C52.0607 29.4143 52.4142 29.2932 52.7812 29.2508C52.9209 29.2418 53.0606 29.2681 53.1874 29.3273C53.3141 29.3866 53.424 29.4767 53.5067 29.5896C53.5894 29.7024 53.6424 29.8343 53.6607 29.973C53.679 30.1118 53.6621 30.2529 53.6115 30.3833C53.473 30.6612 53.3204 30.9318 53.1544 31.1942C52.8139 31.7782 52.471 32.362 52.1258 32.9456C52.0786 32.9636 52.0336 32.9868 51.9916 33.0148C51.9693 33.0331 51.9641 33.0719 51.9504 33.1033C51.9938 33.0353 52.0367 32.9662 52.079 32.8982C52.3849 32.9114 52.6888 32.9556 52.9858 33.0302C53.8561 33.3433 54.0282 34.0748 53.6716 34.6251C53.2339 35.2959 52.7916 35.9616 52.3573 36.6336C52.0247 37.1479 51.7001 37.6679 51.3721 38.1856C51.2482 38.2712 51.1506 38.3895 51.0901 38.5273C51.0295 38.6651 51.0085 38.8171 51.0293 38.9662C50.783 38.9702 50.6761 39.1239 50.6293 39.3399C50.4788 39.4305 50.3362 39.5335 50.203 39.6479C50.1504 39.7005 50.1675 39.8262 50.1527 39.9194C50.2515 39.8822 50.4041 39.8708 50.4384 39.8051C50.5026 39.639 50.5492 39.4666 50.5773 39.2908C50.711 39.1605 50.8441 39.0336 50.9767 38.9085ZM40.6024 30.0513C40.5653 29.2468 40.5333 28.3725 40.4801 27.4988C40.4554 27.1257 40.4075 26.7545 40.3367 26.3873C40.3187 26.2313 40.2477 26.0863 40.1356 25.9763C40.0235 25.8664 39.877 25.7983 39.7207 25.7833C39.5344 25.7616 39.3458 25.7788 39.159 25.7628C37.7213 25.6844 36.3144 25.3166 35.0224 24.6813C33.7304 24.046 32.58 23.1563 31.6401 22.0656C31.3544 21.7348 31.0898 21.3839 30.787 21.0702C30.7464 21.0224 30.6958 20.984 30.6388 20.958C30.5818 20.9319 30.5197 20.9187 30.457 20.9193C30.3942 20.9199 30.3324 20.9343 30.2759 20.9614C30.2193 20.9886 30.1695 21.0279 30.1299 21.0765C29.5739 21.6656 29.0739 22.3125 28.4813 22.8605C26.0002 25.1689 22.9789 26.8172 19.695 27.6542C17.7995 28.145 18.0607 28.0622 18.0642 29.9182C18.063 30.1058 18.0722 30.2933 18.0916 30.4799C18.4463 32.9493 18.6404 35.4391 18.6727 37.9336C18.6717 38.2463 18.6977 38.5585 18.7504 38.8668C19.2232 42.0203 20.2896 45.0557 21.8933 47.8119C22.3766 48.7672 23.1288 49.5604 24.0573 50.0936C25.0527 50.5976 26.0739 51.0508 27.0859 51.5193C27.2024 51.5666 27.3269 51.5912 27.4527 51.5919C28.3827 51.7019 29.325 51.6438 30.2344 51.4205C32.4669 50.8127 34.5464 49.7419 36.3378 48.2776C37.9624 46.8862 38.8887 45.0896 39.7196 43.2005C39.7329 43.1722 39.7401 43.1415 39.7408 43.1103C39.7415 43.0791 39.7356 43.0481 39.7236 43.0193C39.6253 42.8839 39.5052 42.653 39.3972 42.6553C38.8362 42.6476 38.2758 42.6966 37.7247 42.8016C36.3513 43.2132 34.9413 43.4909 33.5144 43.6308C33.3991 43.6596 33.2931 43.7173 33.2063 43.7985C33.1195 43.8797 33.0548 43.9816 33.0184 44.0948C32.8689 44.9607 32.4944 45.7722 31.9327 46.4479C31.1973 47.5073 29.1544 47.9216 28.1784 47.5062C27.0618 47.0826 26.0892 46.3491 25.375 45.3919C24.9968 44.8876 24.7636 44.2895 24.7006 43.6622C24.6377 43.035 24.7474 42.4025 25.0179 41.8331C25.2861 41.2885 25.6638 40.805 26.1274 40.413C26.5909 40.0209 27.1303 39.7287 27.7119 39.5545C28.2935 39.3803 28.9048 39.328 29.5075 39.4007C30.1103 39.4734 30.6915 39.6696 31.215 39.977C31.3236 40.0391 31.4267 40.1104 31.523 40.1902C31.7698 40.4256 32.0844 40.5771 32.4223 40.6231C32.7602 40.6692 33.104 40.6075 33.4047 40.4468C34.2676 40.0872 35.1773 39.8522 36.1064 39.749C37.0899 39.5935 38.0498 39.3147 38.9636 38.9194C39.2961 38.8249 39.5861 38.6191 39.785 38.3363C39.9839 38.0536 40.0796 37.7111 40.0561 37.3662C39.9904 36.4309 40.0466 35.491 40.2236 34.5702C40.663 33.0925 40.5624 31.6096 40.6024 30.0502V30.0513ZM20.7876 20.825H20.8847C20.8943 21.379 20.9325 21.9321 20.999 22.4822C21.0813 22.9015 21.2218 23.3071 21.4167 23.6874C21.4739 23.7541 21.5474 23.8049 21.63 23.8349C21.7125 23.8649 21.8014 23.8732 21.8881 23.8588C21.9597 23.8152 22.0187 23.7537 22.0593 23.6803C22.0999 23.607 22.1207 23.5243 22.1196 23.4405C21.8475 22.3019 21.7153 21.1345 21.7259 19.9639C21.7259 19.6382 21.4258 19.3165 21.287 18.9828C21.2167 18.8165 21.1442 18.7719 21.0144 18.9028C20.9299 18.9862 20.8024 19.0862 20.799 19.1816C20.7773 19.7302 20.7876 20.2776 20.7876 20.825ZM38.0333 19.2336C38.0292 19.1467 38.0039 19.0622 37.9595 18.9873C37.7443 18.647 37.4364 18.3752 37.072 18.204C36.7076 18.0327 36.3018 17.969 35.9024 18.0205C35.779 18.0382 35.6584 18.2616 35.5933 18.4147C35.5664 18.5345 35.5869 18.66 35.6504 18.7651C35.8172 19.0908 35.9276 18.7707 36.0504 18.7079C36.2139 18.629 36.3978 18.4222 36.5184 18.4542C36.6343 18.483 36.7432 18.5347 36.8388 18.6063C36.9344 18.6778 37.0147 18.7677 37.075 18.8708C37.267 19.3851 37.3607 19.9376 37.5041 20.4708C37.5471 20.5688 37.6049 20.6595 37.6756 20.7399C37.716 20.6935 37.7486 20.6408 37.7721 20.5839C37.8578 20.1656 37.9356 19.7434 38.0333 19.2348V19.2336ZM33.2619 17.1959C33.319 17.4245 33.403 17.7673 33.4904 18.1102C33.9442 17.8691 33.7236 17.4108 33.8207 17.0548C33.8271 16.9372 33.8014 16.8201 33.7464 16.7159C33.7287 16.6662 33.6533 16.5896 33.6207 16.5976C33.522 16.6114 33.4308 16.6581 33.3619 16.7302C33.307 16.8804 33.2733 17.0375 33.2619 17.197V17.1959ZM25.8258 21.3193C25.8227 21.1993 25.8132 21.0795 25.7973 20.9605C25.7762 20.9043 25.7454 20.8523 25.7064 20.8068C25.6414 20.9394 25.5936 21.0798 25.5642 21.2245C25.5585 21.3005 25.6675 21.3839 25.7241 21.4628C25.7578 21.4171 25.7921 21.3679 25.8258 21.3205V21.3193Z" fill="url(#paint0_linear_297_1526)"/>
</g>
<defs>
<linearGradient id="paint0_linear_297_1526" x1="-6.1869" y1="0.769135" x2="66.4858" y2="14.0622" gradientUnits="userSpaceOnUse">
<stop stop-color="#FC365F"/>
<stop offset="0.984375" stop-color="#A00BFB"/>
</linearGradient>
<clipPath id="clip0_297_1526">
<rect width="60" height="60" fill="white"/>
</clipPath>
</defs>
</svg>
