<svg width="60" height="60" viewBox="0 0 60 60" fill="none" xmlns="http://www.w3.org/2000/svg">
<g clipPath="url(#clip0_297_1426)">
<path d="M24.8166 6.09082C25.0719 6.09082 25.3233 5.98715 25.5035 5.80572C25.6849 5.62559 25.7886 5.37419 25.7886 5.11889C25.7886 4.8636 25.6849 4.6122 25.5035 4.43207C25.3233 4.25064 25.0719 4.14697 24.8166 4.14697C24.5614 4.14697 24.31 4.25064 24.1298 4.43207C23.9484 4.6122 23.8447 4.86231 23.8447 5.11889C23.8447 5.37419 23.9484 5.62559 24.1298 5.80572C24.31 5.98715 24.5614 6.09082 24.8166 6.09082Z" fill="url(#paint0_linear_297_1426)"/>
<path d="M20.6697 18.5312H34.147C34.6838 18.5312 35.1189 18.0961 35.1189 17.5593C35.1189 17.0226 34.6838 16.5874 34.147 16.5874H20.6697C20.1329 16.5874 19.6978 17.0226 19.6978 17.5593C19.6978 18.0961 20.1329 18.5312 20.6697 18.5312Z" fill="url(#paint1_linear_297_1426)"/>
<path d="M34.1469 26.9546H32.0735C31.5367 26.9546 31.1016 27.3898 31.1016 27.9265C31.1016 28.4633 31.5367 28.8984 32.0735 28.8984H34.1469C34.6837 28.8984 35.1188 28.4633 35.1188 27.9265C35.1188 27.3898 34.6837 26.9546 34.1469 26.9546Z" fill="url(#paint2_linear_297_1426)"/>
<path d="M20.6697 28.8984H27.9267C28.4635 28.8984 28.8986 28.4633 28.8986 27.9265C28.8986 27.3898 28.4635 26.9546 27.9267 26.9546H20.6697C20.1329 26.9546 19.6978 27.3898 19.6978 27.9265C19.6978 28.4633 20.1329 28.8984 20.6697 28.8984Z" fill="url(#paint3_linear_297_1426)"/>
<path d="M22.7431 37.3218H20.6697C20.1329 37.3218 19.6978 37.7569 19.6978 38.2937C19.6978 38.8305 20.1329 39.2656 20.6697 39.2656H22.7431C23.2799 39.2656 23.715 38.8305 23.715 38.2937C23.715 37.7569 23.2799 37.3218 22.7431 37.3218Z" fill="url(#paint4_linear_297_1426)"/>
<path d="M20.6697 23.7148H34.147C34.6838 23.7148 35.1189 23.2797 35.1189 22.7429C35.1189 22.2062 34.6838 21.771 34.147 21.771H20.6697C20.1329 21.771 19.6978 22.2062 19.6978 22.7429C19.6978 23.2797 20.1329 23.7148 20.6697 23.7148Z" fill="url(#paint5_linear_297_1426)"/>
<path d="M20.6697 34.082H24.8165C25.3533 34.082 25.7885 33.6469 25.7885 33.1101C25.7885 32.5733 25.3533 32.1382 24.8165 32.1382H20.6697C20.1329 32.1382 19.6978 32.5733 19.6978 33.1101C19.6978 33.6469 20.1329 34.082 20.6697 34.082Z" fill="url(#paint6_linear_297_1426)"/>
<path d="M34.1467 32.1382H28.9631C28.4264 32.1382 27.9912 32.5733 27.9912 33.1101C27.9912 33.6469 28.4264 34.082 28.9631 34.082H34.1467C34.6835 34.082 35.1186 33.6469 35.1186 33.1101C35.1186 32.5733 34.6835 32.1382 34.1467 32.1382Z" fill="url(#paint7_linear_297_1426)"/>
<path d="M16.5228 16.5874H15.4861C14.9493 16.5874 14.5142 17.0226 14.5142 17.5593C14.5142 18.0961 14.9493 18.5312 15.4861 18.5312H16.5228C17.0596 18.5312 17.4947 18.0961 17.4947 17.5593C17.4947 17.0226 17.0596 16.5874 16.5228 16.5874Z" fill="url(#paint8_linear_297_1426)"/>
<path d="M16.5228 26.9546H15.4861C14.9493 26.9546 14.5142 27.3898 14.5142 27.9265C14.5142 28.4633 14.9493 28.8984 15.4861 28.8984H16.5228C17.0596 28.8984 17.4947 28.4633 17.4947 27.9265C17.4947 27.3898 17.0596 26.9546 16.5228 26.9546Z" fill="url(#paint9_linear_297_1426)"/>
<path d="M16.5228 37.3218H15.4861C14.9493 37.3218 14.5142 37.7569 14.5142 38.2937C14.5142 38.8305 14.9493 39.2656 15.4861 39.2656H16.5228C17.0596 39.2656 17.4947 38.8305 17.4947 38.2937C17.4947 37.7569 17.0596 37.3218 16.5228 37.3218Z" fill="url(#paint10_linear_297_1426)"/>
<path d="M16.5228 21.771H15.4861C14.9493 21.771 14.5142 22.2062 14.5142 22.7429C14.5142 23.2797 14.9493 23.7148 15.4861 23.7148H16.5228C17.0596 23.7148 17.4947 23.2797 17.4947 22.7429C17.4947 22.2062 17.0596 21.771 16.5228 21.771Z" fill="url(#paint11_linear_297_1426)"/>
<path d="M16.5228 32.1382H15.4861C14.9493 32.1382 14.5142 32.5733 14.5142 33.1101C14.5142 33.6469 14.9493 34.082 15.4861 34.082H16.5228C17.0596 34.082 17.4947 33.6469 17.4947 33.1101C17.4947 32.5733 17.0596 32.1382 16.5228 32.1382Z" fill="url(#paint12_linear_297_1426)"/>
<path d="M16.5228 42.5054H15.4861C14.9493 42.5054 14.5142 42.9405 14.5142 43.4773C14.5142 44.0141 14.9493 44.4492 15.4861 44.4492H16.5228C17.0596 44.4492 17.4947 44.0141 17.4947 43.4773C17.4947 42.9405 17.0596 42.5054 16.5228 42.5054Z" fill="url(#paint13_linear_297_1426)"/>
<path d="M53.8445 37.3218H44.4493V8.22894C44.4493 5.9781 42.618 4.14687 40.3672 4.14687H34.9589C34.5522 2.94298 33.4129 2.07343 32.0734 2.07343H28.9094C27.9491 0.782073 26.4279 0 24.8164 0C23.205 0 21.6837 0.782073 20.7235 2.07343H17.5594C16.22 2.07343 15.0806 2.94298 14.674 4.14687H9.26567C7.01482 4.14687 5.18359 5.9781 5.18359 8.22894V51.7711C5.18359 54.0219 7.01482 55.8531 9.26567 55.8531H23.3137C25.395 58.3835 28.5489 60 32.0734 60C38.3259 60 43.4125 54.9133 43.4125 48.6609V45.417L54.0263 43.3954C54.4848 43.3081 54.8164 42.9073 54.8164 42.4406V38.2937C54.8164 37.757 54.3813 37.3218 53.8445 37.3218ZM42.5054 8.22894V37.3218H40.3024V9.26566C40.3024 8.7289 39.8672 8.29374 39.3305 8.29374H35.1171C35.1176 8.27209 35.1188 8.25071 35.1188 8.22894V6.09071H40.3672C41.5462 6.09071 42.5054 7.04994 42.5054 8.22894ZM22.5551 42.5054H20.6696C20.1328 42.5054 19.6976 42.9406 19.6976 43.4773C19.6976 44.0141 20.1328 44.4492 20.6696 44.4492H21.5458C21.0228 45.752 20.7343 47.1733 20.7343 48.6609C20.7343 49.0326 20.7529 49.3998 20.788 49.7624H11.2743V10.2376H15.2733C15.8318 10.8724 16.6494 11.2743 17.5594 11.2743H32.0734C32.9836 11.2743 33.8011 10.8724 34.3595 10.2376H38.3585V37.3218H32.0734C28.0887 37.3218 24.5778 39.3882 22.5551 42.5054ZM17.5594 4.01728H21.2447C21.5907 4.01728 21.9106 3.83339 22.0847 3.53417C22.6643 2.5384 23.6855 1.94384 24.8164 1.94384C25.9474 1.94384 26.9685 2.5384 27.5482 3.53417C27.7222 3.83326 28.0422 4.01728 28.3882 4.01728H32.0734C32.6808 4.01728 33.175 4.5114 33.175 5.11879V8.22894C33.175 8.83633 32.6808 9.33045 32.0734 9.33045H17.5594C16.952 9.33045 16.4579 8.83633 16.4579 8.22894V5.11879C16.4579 4.5114 16.952 4.01728 17.5594 4.01728ZM9.26567 53.9093C8.08666 53.9093 7.12744 52.9501 7.12744 51.7711V8.22894C7.12744 7.04994 8.08666 6.09071 9.26567 6.09071H14.514V8.22894C14.514 8.25071 14.5152 8.27209 14.5157 8.29374H10.3024C9.76562 8.29374 9.33046 8.7289 9.33046 9.26566V50.7343C9.33046 51.2711 9.76562 51.7063 10.3024 51.7063H21.1502C21.3652 52.4767 21.66 53.214 22.0245 53.9093H9.26567ZM52.8726 41.6364L42.2588 43.658C41.8003 43.7453 41.4687 44.1461 41.4687 44.6128V48.6609C41.4687 53.8415 37.254 58.0562 32.0734 58.0562C26.8928 58.0562 22.6782 53.8415 22.6782 48.6609C22.6782 43.4803 26.8928 39.2657 32.0734 39.2657H52.8726V41.6364Z" fill="url(#paint14_linear_297_1426)"/>
<path d="M24.8813 48.661C24.8813 52.6268 28.1077 55.8532 32.0736 55.8532C36.0394 55.8532 39.2658 52.6268 39.2658 48.661C39.2658 47.8391 39.128 47.0326 38.8563 46.2637C38.6775 45.7575 38.1219 45.492 37.6161 45.6712C37.1101 45.85 36.8447 46.4053 37.0236 46.9114C37.2217 47.4716 37.322 48.0602 37.322 48.6608C37.322 51.5548 34.9676 53.9092 32.0736 53.9092C29.1796 53.9092 26.8252 51.555 26.8252 48.661C26.8252 45.767 29.1796 43.4126 32.0736 43.4126C32.9944 43.4126 33.9 43.6541 34.6922 44.1113C35.1569 44.3793 35.7515 44.2202 36.0198 43.7552C36.2881 43.2903 36.1287 42.696 35.6637 42.4276C34.5765 41.8004 33.335 41.4688 32.0736 41.4688C28.1077 41.4688 24.8813 44.6951 24.8813 48.661Z" fill="url(#paint15_linear_297_1426)"/>
</g>
<defs>
<linearGradient id="paint0_linear_297_1426" x1="23.6449" y1="3.98744" x2="26.0216" y2="4.35125" gradientUnits="userSpaceOnUse">
<stop stopColor="#FC365F"/>
<stop offset="0.984375" stopColor="#A00BFB"/>
</linearGradient>
<linearGradient id="paint1_linear_297_1426" x1="18.1127" y1="16.4279" x2="25.9097" y2="25.8968" gradientUnits="userSpaceOnUse">
<stop stopColor="#FC365F"/>
<stop offset="0.984375" stopColor="#A00BFB"/>
</linearGradient>
<linearGradient id="paint2_linear_297_1426" x1="30.6887" y1="26.7951" x2="35.2581" y2="28.2407" gradientUnits="userSpaceOnUse">
<stop stopColor="#FC365F"/>
<stop offset="0.984375" stopColor="#A00BFB"/>
</linearGradient>
<linearGradient id="paint3_linear_297_1426" x1="18.7521" y1="26.7951" x2="26.3015" y2="32.2652" gradientUnits="userSpaceOnUse">
<stop stopColor="#FC365F"/>
<stop offset="0.984375" stopColor="#A00BFB"/>
</linearGradient>
<linearGradient id="paint4_linear_297_1426" x1="19.2849" y1="37.1622" x2="23.8543" y2="38.6079" gradientUnits="userSpaceOnUse">
<stop stopColor="#FC365F"/>
<stop offset="0.984375" stopColor="#A00BFB"/>
</linearGradient>
<linearGradient id="paint5_linear_297_1426" x1="18.1127" y1="21.6115" x2="25.9097" y2="31.0804" gradientUnits="userSpaceOnUse">
<stop stopColor="#FC365F"/>
<stop offset="0.984375" stopColor="#A00BFB"/>
</linearGradient>
<linearGradient id="paint6_linear_297_1426" x1="19.0717" y1="31.9787" x2="25.2676" y2="34.9505" gradientUnits="userSpaceOnUse">
<stop stopColor="#FC365F"/>
<stop offset="0.984375" stopColor="#A00BFB"/>
</linearGradient>
<linearGradient id="paint7_linear_297_1426" x1="27.2586" y1="31.9787" x2="34.0405" y2="35.7853" gradientUnits="userSpaceOnUse">
<stop stopColor="#FC365F"/>
<stop offset="0.984375" stopColor="#A00BFB"/>
</linearGradient>
<linearGradient id="paint8_linear_297_1426" x1="14.2078" y1="16.4279" x2="17.7426" y2="17.2576" gradientUnits="userSpaceOnUse">
<stop stopColor="#FC365F"/>
<stop offset="0.984375" stopColor="#A00BFB"/>
</linearGradient>
<linearGradient id="paint9_linear_297_1426" x1="14.2078" y1="26.7951" x2="17.7426" y2="27.6248" gradientUnits="userSpaceOnUse">
<stop stopColor="#FC365F"/>
<stop offset="0.984375" stopColor="#A00BFB"/>
</linearGradient>
<linearGradient id="paint10_linear_297_1426" x1="14.2078" y1="37.1622" x2="17.7426" y2="37.9919" gradientUnits="userSpaceOnUse">
<stop stopColor="#FC365F"/>
<stop offset="0.984375" stopColor="#A00BFB"/>
</linearGradient>
<linearGradient id="paint11_linear_297_1426" x1="14.2078" y1="21.6115" x2="17.7426" y2="22.4412" gradientUnits="userSpaceOnUse">
<stop stopColor="#FC365F"/>
<stop offset="0.984375" stopColor="#A00BFB"/>
</linearGradient>
<linearGradient id="paint12_linear_297_1426" x1="14.2078" y1="31.9787" x2="17.7426" y2="32.8083" gradientUnits="userSpaceOnUse">
<stop stopColor="#FC365F"/>
<stop offset="0.984375" stopColor="#A00BFB"/>
</linearGradient>
<linearGradient id="paint13_linear_297_1426" x1="14.2078" y1="42.3458" x2="17.7426" y2="43.1755" gradientUnits="userSpaceOnUse">
<stop stopColor="#FC365F"/>
<stop offset="0.984375" stopColor="#A00BFB"/>
</linearGradient>
<linearGradient id="paint14_linear_297_1426" x1="0.0822684" y1="-4.92422" x2="61.2072" y2="2.81602" gradientUnits="userSpaceOnUse">
<stop stopColor="#FC365F"/>
<stop offset="0.984375" stopColor="#A00BFB"/>
</linearGradient>
<linearGradient id="paint15_linear_297_1426" x1="23.4029" y1="40.2882" x2="40.9899" y2="42.9804" gradientUnits="userSpaceOnUse">
<stop stopColor="#FC365F"/>
<stop offset="0.984375" stopColor="#A00BFB"/>
</linearGradient>
<clipPath id="clip0_297_1426">
<rect width="60" height="60" fill="white"/>
</clipPath>
</defs>
</svg>
