<svg width="39" height="39" viewBox="0 0 39 39" fill="none" xmlns="http://www.w3.org/2000/svg">
<path d="M37.7026 3H1.2974C0.582034 3 0 3.58203 0 4.2974V34.9544C0 35.6697 0.582034 36.2518 1.2974 36.2518H37.7026C38.418 36.2518 39 35.6697 39 34.9544V4.2974C39 3.58203 38.4179 3 37.7026 3ZM0.67864 26.8968H5.67455C5.86201 26.8968 6.01387 26.745 6.01387 26.5575C6.01387 26.37 5.86201 26.2182 5.67455 26.2182H0.67864V8.33387H38.3214V11.8336H31.2249C31.0375 11.8336 30.8856 11.9854 30.8856 12.1729C30.8856 12.3604 31.0375 12.5122 31.2249 12.5122H38.3214V28.6134H30.1319C29.9445 28.6134 29.7926 28.7652 29.7926 28.9527C29.7926 29.1402 29.9445 29.292 30.1319 29.292H38.3213V32.9645H0.67864V26.8968ZM1.2974 3.67864H37.7026C38.0438 3.67864 38.3214 3.95624 38.3214 4.2974V5.49955H13.5803C13.3928 5.49955 13.241 5.65141 13.241 5.83887C13.241 6.02633 13.3928 6.17819 13.5803 6.17819H38.3214V7.65523H0.67864V4.2974C0.67864 3.95624 0.956244 3.67864 1.2974 3.67864ZM37.7026 35.5731H1.2974C0.956244 35.5731 0.67864 35.2956 0.67864 34.9544V33.6431H38.3214V34.9544C38.3214 35.2956 38.0438 35.5731 37.7026 35.5731Z" fill="url(#paint0_linear_297_1351)"/>
<path d="M3.04129 6.89679C3.71266 6.89679 4.25885 6.3506 4.25885 5.67923C4.25885 5.00786 3.71266 4.46167 3.04129 4.46167C2.36992 4.46167 1.82373 5.00786 1.82373 5.67923C1.82373 6.3506 2.36992 6.89679 3.04129 6.89679ZM3.04129 5.14031C3.33845 5.14031 3.58021 5.38207 3.58021 5.67923C3.58021 5.97639 3.33845 6.21815 3.04129 6.21815C2.74413 6.21815 2.50237 5.97639 2.50237 5.67923C2.50237 5.38207 2.74413 5.14031 3.04129 5.14031Z" fill="url(#paint1_linear_297_1351)"/>
<path d="M6.43485 6.89679C7.10622 6.89679 7.65241 6.3506 7.65241 5.67923C7.65241 5.00786 7.10622 4.46167 6.43485 4.46167C5.76347 4.46167 5.21729 5.00786 5.21729 5.67923C5.21729 6.3506 5.76347 6.89679 6.43485 6.89679ZM6.43485 5.14031C6.73201 5.14031 6.97377 5.38207 6.97377 5.67923C6.97377 5.97639 6.73201 6.21815 6.43485 6.21815C6.13768 6.21815 5.89593 5.97639 5.89593 5.67923C5.89593 5.38207 6.13768 5.14031 6.43485 5.14031Z" fill="url(#paint2_linear_297_1351)"/>
<path d="M9.82791 6.89679C10.4993 6.89679 11.0455 6.3506 11.0455 5.67923C11.0455 5.00786 10.4993 4.46167 9.82791 4.46167C9.15654 4.46167 8.61035 5.00786 8.61035 5.67923C8.61035 6.3506 9.15654 6.89679 9.82791 6.89679ZM9.82791 5.14031C10.1251 5.14031 10.3668 5.38207 10.3668 5.67923C10.3668 5.97639 10.1251 6.21815 9.82791 6.21815C9.53075 6.21815 9.28899 5.97639 9.28899 5.67923C9.28899 5.38207 9.53075 5.14031 9.82791 5.14031Z" fill="url(#paint3_linear_297_1351)"/>
<path d="M11.3952 14.8763C11.3951 14.63 11.2715 14.3958 11.056 14.2338L5.04694 9.71555C4.88032 9.59036 4.68175 9.52417 4.47281 9.52417C4.17245 9.52417 3.88583 9.66676 3.70619 9.90557L3.2333 10.5344C2.91601 10.9563 3.00128 11.5578 3.42332 11.8752L7.28158 14.7762C7.32502 14.8089 7.34993 14.8453 7.34993 14.8764C7.34993 14.9075 7.32494 14.9441 7.28158 14.9768L3.42324 17.8777C3.00136 18.1951 2.91609 18.7965 3.2333 19.2184L3.70619 19.8476C3.88575 20.0863 4.17229 20.2288 4.47257 20.2288C4.68167 20.2288 4.88024 20.1626 5.04694 20.0372L11.0562 15.5191C11.2717 15.3569 11.3953 15.1226 11.3952 14.8763ZM10.6482 14.9768L4.63912 19.4947C4.5782 19.5405 4.51489 19.5501 4.47249 19.5501C4.38299 19.5501 4.30124 19.5098 4.24854 19.4397L3.77565 18.8106C3.68335 18.6877 3.7081 18.5126 3.83098 18.42L7.68932 15.5191C7.90489 15.357 8.02849 15.1226 8.02849 14.8762C8.02841 14.6299 7.90473 14.3957 7.68925 14.2337L3.83106 11.3328C3.7081 11.2403 3.68319 11.065 3.77565 10.9421L4.24846 10.3134C4.3014 10.243 4.38307 10.2027 4.47273 10.2027C4.51505 10.2027 4.57828 10.2122 4.63912 10.2578L10.6481 14.776C10.6915 14.8086 10.7165 14.8452 10.7165 14.8762C10.7165 14.9075 10.6915 14.9442 10.6482 14.9768Z" fill="url(#paint4_linear_297_1351)"/>
<path d="M18.6886 17.572H11.5663C10.8338 17.572 10.2378 18.1679 10.2378 18.9005C10.2378 19.6331 10.8338 20.2291 11.5663 20.2291H18.6886C19.4211 20.2291 20.0172 19.6331 20.0172 18.9005C20.0172 18.1679 19.4211 17.572 18.6886 17.572ZM18.6886 19.5504H11.5663C11.208 19.5504 10.9164 19.2588 10.9164 18.9004C10.9164 18.5422 11.2079 18.2506 11.5663 18.2506H18.6886C19.0469 18.2506 19.3385 18.5421 19.3385 18.9004C19.3385 19.2588 19.047 19.5504 18.6886 19.5504Z" fill="url(#paint5_linear_297_1351)"/>
<defs>
<linearGradient id="paint0_linear_297_1351" x1="-4.00847" y1="0.271016" x2="43.2679" y2="8.75915" gradientUnits="userSpaceOnUse">
<stop stopColor="#FC365F"/>
<stop offset="0.984375" stopColor="#A00BFB"/>
</linearGradient>
<linearGradient id="paint1_linear_297_1351" x1="1.57345" y1="4.26182" x2="4.55072" y2="4.71758" gradientUnits="userSpaceOnUse">
<stop stopColor="#FC365F"/>
<stop offset="0.984375" stopColor="#A00BFB"/>
</linearGradient>
<linearGradient id="paint2_linear_297_1351" x1="4.967" y1="4.26182" x2="7.94427" y2="4.71758" gradientUnits="userSpaceOnUse">
<stop stopColor="#FC365F"/>
<stop offset="0.984375" stopColor="#A00BFB"/>
</linearGradient>
<linearGradient id="paint3_linear_297_1351" x1="8.36007" y1="4.26182" x2="11.3373" y2="4.71758" gradientUnits="userSpaceOnUse">
<stop stopColor="#FC365F"/>
<stop offset="0.984375" stopColor="#A00BFB"/>
</linearGradient>
<linearGradient id="paint4_linear_297_1351" x1="2.1829" y1="8.64564" x2="12.4887" y2="9.87677" gradientUnits="userSpaceOnUse">
<stop stopColor="#FC365F"/>
<stop offset="0.984375" stopColor="#A00BFB"/>
</linearGradient>
<linearGradient id="paint5_linear_297_1351" x1="9.23266" y1="17.354" x2="18.521" y2="22.5871" gradientUnits="userSpaceOnUse">
<stop stopColor="#FC365F"/>
<stop offset="0.984375" stopColor="#A00BFB"/>
</linearGradient>
</defs>
</svg>
