<svg width="39" height="39" viewBox="0 0 39 39" fill="none" xmlns="http://www.w3.org/2000/svg">
<g clipPath="url(#clip0_297_1334)">
<path d="M31.6875 21.1819V16.25C31.6875 14.7416 31.0883 13.295 30.0217 12.2284C28.9551 11.1618 27.5084 10.5625 26 10.5625C24.4916 10.5625 23.045 11.1618 21.9783 12.2284C20.9117 13.295 20.3125 14.7416 20.3125 16.25V25.1875C20.3125 26.4805 19.7989 27.7205 18.8847 28.6347C17.9704 29.5489 16.7304 30.0625 15.4375 30.0625C14.1446 30.0625 12.9046 29.5489 11.9904 28.6347C11.0761 27.7205 10.5625 26.4805 10.5625 25.1875V22.75C12.6365 22.5416 14.5511 21.544 15.9103 19.9636C17.2694 18.3832 17.9692 16.3409 17.8648 14.259C17.7605 12.1772 16.86 10.215 15.3496 8.77847C13.8392 7.3419 11.8345 6.54077 9.75001 6.54077C7.66554 6.54077 5.66081 7.3419 4.15042 8.77847C2.64004 10.215 1.73955 12.1772 1.6352 14.259C1.53084 16.3409 2.23061 18.3832 3.58976 19.9636C4.94892 21.544 6.86349 22.5416 8.93751 22.75V25.1875C8.93751 26.9115 9.62233 28.5648 10.8413 29.7837C12.0603 31.0027 13.7136 31.6875 15.4375 31.6875C17.1614 31.6875 18.8147 31.0027 20.0337 29.7837C21.2527 28.5648 21.9375 26.9115 21.9375 25.1875V16.25C21.9375 15.1726 22.3655 14.1393 23.1274 13.3774C23.8893 12.6156 24.9226 12.1875 26 12.1875C27.0775 12.1875 28.1108 12.6156 28.8726 13.3774C29.6345 14.1393 30.0625 15.1726 30.0625 16.25V21.1819C28.4927 21.3797 27.049 22.1432 26.002 23.3294C24.9549 24.5155 24.3764 26.0429 24.375 27.625V32.5C24.375 34.224 25.0598 35.8773 26.2788 37.0962C27.4978 38.3152 29.1511 39 30.875 39C32.5989 39 34.2522 38.3152 35.4712 37.0962C36.6902 35.8773 37.375 34.224 37.375 32.5V27.625C37.3736 26.0429 36.7951 24.5155 35.7481 23.3294C34.701 22.1432 33.2573 21.3797 31.6875 21.1819ZM3.25001 14.625C3.25001 13.3395 3.63123 12.0828 4.34546 11.0138C5.05969 9.94492 6.07485 9.1118 7.26257 8.61983C8.45029 8.12786 9.75722 7.99914 11.0181 8.24994C12.279 8.50074 13.4372 9.11981 14.3462 10.0288C15.2552 10.9379 15.8743 12.0961 16.1251 13.357C16.3759 14.6178 16.2472 15.9248 15.7552 17.1125C15.2633 18.3002 14.4301 19.3154 13.3612 20.0296C12.2923 20.7438 11.0356 21.125 9.75001 21.125C8.0261 21.125 6.3728 20.4402 5.15381 19.2212C3.93483 18.0023 3.25001 16.349 3.25001 14.625ZM35.75 32.5C35.75 33.793 35.2364 35.033 34.3222 35.9472C33.4079 36.8614 32.1679 37.375 30.875 37.375C29.5821 37.375 28.3421 36.8614 27.4279 35.9472C26.5136 35.033 26 33.793 26 32.5V27.625C26 26.3321 26.5136 25.0921 27.4279 24.1779C28.3421 23.2637 29.5821 22.75 30.875 22.75C32.1679 22.75 33.4079 23.2637 34.3222 24.1779C35.2364 25.0921 35.75 26.3321 35.75 27.625V32.5Z" fill="url(#paint0_linear_297_1334)"/>
<path d="M10.5623 18.5413C11.0997 18.3463 11.5514 17.9686 11.8386 17.4743C12.1257 16.98 12.23 16.4005 12.1332 15.8372C12.0364 15.2738 11.7447 14.7623 11.309 14.3922C10.8733 14.0221 10.3214 13.8169 9.7498 13.8125C9.58911 13.8125 9.43202 13.7648 9.2984 13.6756C9.16479 13.5863 9.06065 13.4594 8.99915 13.3109C8.93766 13.1625 8.92157 12.9991 8.95292 12.8415C8.98427 12.6839 9.06165 12.5391 9.17528 12.4255C9.28891 12.3118 9.43368 12.2345 9.59129 12.2031C9.7489 12.1718 9.91227 12.1879 10.0607 12.2493C10.2092 12.3108 10.3361 12.415 10.4254 12.5486C10.5147 12.6822 10.5623 12.8393 10.5623 13C10.5623 13.2155 10.6479 13.4222 10.8003 13.5745C10.9527 13.7269 11.1593 13.8125 11.3748 13.8125C11.5903 13.8125 11.797 13.7269 11.9493 13.5745C12.1017 13.4222 12.1873 13.2155 12.1873 13C12.1859 12.4971 12.029 12.007 11.738 11.5968C11.4471 11.1866 11.0364 10.8764 10.5623 10.7087C10.5623 10.4933 10.4767 10.2866 10.3243 10.1342C10.172 9.98185 9.96529 9.89625 9.7498 9.89625C9.53432 9.89625 9.32765 9.98185 9.17528 10.1342C9.02291 10.2866 8.9373 10.4933 8.9373 10.7087C8.39994 10.9037 7.9482 11.2814 7.66105 11.7757C7.3739 12.27 7.26962 12.8495 7.36642 13.4128C7.46322 13.9762 7.75495 14.4877 8.19062 14.8578C8.62629 15.2279 9.17818 15.4331 9.7498 15.4375C9.9105 15.4375 10.0676 15.4852 10.2012 15.5744C10.3348 15.6637 10.439 15.7906 10.5005 15.9391C10.562 16.0875 10.578 16.2509 10.5467 16.4085C10.5153 16.5661 10.438 16.7109 10.3243 16.8245C10.2107 16.9382 10.0659 17.0155 9.90832 17.0469C9.75071 17.0782 9.58734 17.0621 9.43887 17.0007C9.29041 16.9392 9.16351 16.835 9.07424 16.7014C8.98496 16.5678 8.9373 16.4107 8.9373 16.25C8.9373 16.0345 8.8517 15.8278 8.69933 15.6755C8.54696 15.5231 8.34029 15.4375 8.1248 15.4375C7.90932 15.4375 7.70265 15.5231 7.55028 15.6755C7.39791 15.8278 7.3123 16.0345 7.3123 16.25C7.31372 16.7529 7.47064 17.243 7.76157 17.6532C8.05249 18.0634 8.46317 18.3736 8.9373 18.5413C8.9373 18.7567 9.02291 18.9634 9.17528 19.1158C9.32765 19.2681 9.53432 19.3538 9.7498 19.3538C9.96529 19.3538 10.172 19.2681 10.3243 19.1158C10.4767 18.9634 10.5623 18.7567 10.5623 18.5413ZM10.5623 3.25V0.8125C10.5623 0.597012 10.4767 0.390349 10.3243 0.237976C10.172 0.0856024 9.96529 0 9.7498 0C9.53432 0 9.32765 0.0856024 9.17528 0.237976C9.02291 0.390349 8.9373 0.597012 8.9373 0.8125V3.25C8.9373 3.46549 9.02291 3.67215 9.17528 3.82452C9.32765 3.9769 9.53432 4.0625 9.7498 4.0625C9.96529 4.0625 10.172 3.9769 10.3243 3.82452C10.4767 3.67215 10.5623 3.46549 10.5623 3.25ZM5.72793 5.24875C5.88336 5.38186 6.0833 5.45141 6.28779 5.44352C6.49227 5.43562 6.68625 5.35085 6.83095 5.20615C6.97565 5.06144 7.06042 4.86747 7.06832 4.66298C7.07622 4.45849 7.00666 4.25856 6.87356 4.10313L5.15106 2.38063C4.99562 2.24752 4.79569 2.17796 4.5912 2.18586C4.38671 2.19376 4.19274 2.27853 4.04803 2.42323C3.90333 2.56793 3.81856 2.76191 3.81066 2.96639C3.80277 3.17088 3.87232 3.37082 4.00543 3.52625L5.72793 5.24875ZM13.1948 5.4925C13.6417 5.4925 13.6498 5.37875 15.4942 3.52625C15.6273 3.37082 15.6968 3.17088 15.6889 2.96639C15.681 2.76191 15.5963 2.56793 15.4516 2.42323C15.3069 2.27853 15.1129 2.19376 14.9084 2.18586C14.7039 2.17796 14.504 2.24752 14.3486 2.38063L12.6261 4.10313C12.512 4.21628 12.434 4.36073 12.402 4.5182C12.37 4.67568 12.3854 4.8391 12.4463 4.98782C12.5072 5.13653 12.6108 5.26385 12.744 5.35369C12.8772 5.44352 13.0341 5.49183 13.1948 5.4925ZM30.0623 26V27.625C30.0623 27.8405 30.1479 28.0472 30.3003 28.1995C30.4527 28.3519 30.6593 28.4375 30.8748 28.4375C31.0903 28.4375 31.297 28.3519 31.4493 28.1995C31.6017 28.0472 31.6873 27.8405 31.6873 27.625V26C31.6873 25.7845 31.6017 25.5778 31.4493 25.4255C31.297 25.2731 31.0903 25.1875 30.8748 25.1875C30.6593 25.1875 30.4527 25.2731 30.3003 25.4255C30.1479 25.5778 30.0623 25.7845 30.0623 26Z" fill="url(#paint1_linear_297_1334)"/>
</g>
<defs>
<linearGradient id="paint0_linear_297_1334" x1="-2.04943" y1="3.87683" x2="41.4478" y2="11.2104" gradientUnits="userSpaceOnUse">
<stop stopColor="#FC365F"/>
<stop offset="0.984375" stopColor="#A00BFB"/>
</linearGradient>
<linearGradient id="paint1_linear_297_1334" x1="0.944799" y1="-2.33388" x2="35.0591" y2="2.78546" gradientUnits="userSpaceOnUse">
<stop stopColor="#FC365F"/>
<stop offset="0.984375" stopColor="#A00BFB"/>
</linearGradient>
<clipPath id="clip0_297_1334">
<rect width="39" height="39" fill="white"/>
</clipPath>
</defs>
</svg>
