<svg width="60" height="60" viewBox="0 0 60 60" fill="none" xmlns="http://www.w3.org/2000/svg">
<g clip-path="url(#clip0_297_1483)">
<path d="M11.28 51.03H48.72C52.02 46.89 54 41.7 54 36C54 22.77 43.26 12 30 12C16.74 12 6 22.77 6 36C6 41.7 7.98 46.89 11.28 51.03ZM27 18C27 16.35 28.35 15 30 15C31.65 15 33 16.35 33 18C33 19.68 31.65 21 30 21C28.35 21 27 19.68 27 18ZM12 24C12 22.35 13.35 21 15 21C16.65 21 18 22.35 18 24C18 25.68 16.65 27 15 27C13.35 27 12 25.68 12 24ZM25.56 34.2C28.08 31.71 45.09 23.7 45.09 23.7C45.09 23.7 37.11 40.74 34.62 43.23C32.1 45.75 28.08 45.75 25.56 43.23C23.07 40.74 23.07 36.69 25.56 34.2ZM9 39C9 37.35 10.35 36 12 36C13.65 36 15 37.35 15 39C15 40.68 13.65 42 12 42C10.35 42 9 40.68 9 39ZM27 39C27 37.35 28.35 36 30 36C31.65 36 33 37.35 33 39C33 40.68 31.65 42 30 42C28.35 42 27 40.68 27 39ZM45 39C45 37.35 46.35 36 48 36C49.65 36 51 37.35 51 39C51 40.68 49.65 42 48 42C46.35 42 45 40.68 45 39Z" fill="url(#paint0_linear_297_1483)"/>
</g>
<defs>
<linearGradient id="paint0_linear_297_1483" x1="1.0665" y1="8.79679" x2="59.0725" y2="19.7171" gradientUnits="userSpaceOnUse">
<stop stop-color="#FC365F"/>
<stop offset="0.984375" stop-color="#A00BFB"/>
</linearGradient>
<clipPath id="clip0_297_1483">
<rect width="60" height="60" fill="white"/>
</clipPath>
</defs>
</svg>
