<svg width="60" height="60" viewBox="0 0 60 60" fill="none" xmlns="http://www.w3.org/2000/svg">
<path d="M28.7542 5.4969C28.8407 5.55959 28.8771 5.67127 28.8442 5.77287L28.2083 7.72955C28.1342 7.95725 28.3949 8.14662 28.5885 8.00576L30.2529 6.79674C30.3394 6.73381 30.4566 6.73381 30.5432 6.79674L32.2076 8.00588C32.4012 8.14662 32.6619 7.95737 32.588 7.72967L31.9521 5.77299C31.919 5.67139 31.9553 5.55971 32.0419 5.49701L33.7063 4.27158C33.8999 4.13084 33.8006 3.80858 33.5612 3.80858H31.5038C31.3969 3.80858 31.3018 3.75573 31.2689 3.65389L30.6331 1.7053C30.5591 1.47783 30.2371 1.4817 30.1631 1.70916L29.5273 3.6519C29.4941 3.7535 29.3993 3.80858 29.2922 3.80858H27.2347C26.9956 3.80858 26.896 4.13084 27.0897 4.27158L28.7542 5.4969Z" fill="url(#paint0_linear_297_1487)"/>
<path d="M49.2056 12.4082C49.1301 12.3325 49.1118 12.2166 49.1603 12.1214L50.0944 10.288C50.2029 10.075 49.9751 9.84719 49.7618 9.9557L47.9286 10.8898C47.8334 10.9386 47.7176 10.92 47.6419 10.8445L46.1871 9.38969C46.018 9.22035 45.7311 9.3666 45.7685 9.60297L46.0903 11.635C46.1071 11.7407 46.0536 11.8454 45.9585 11.8939L44.1253 12.828C43.912 12.9365 43.9623 13.2546 44.1988 13.2919L46.2308 13.6139C46.3368 13.6307 46.4196 13.7136 46.4364 13.8193L46.7579 15.8513C46.7954 16.0878 47.1136 16.138 47.2221 15.9248L48.1562 14.0916C48.2047 13.9962 48.3094 13.943 48.4151 13.9598L50.4471 14.2816C50.6836 14.3191 50.8299 14.0321 50.6604 13.863L49.2056 12.4082Z" fill="url(#paint1_linear_297_1487)"/>
<path d="M58.3562 29.6426L56.4397 29.0068C56.3376 28.9736 56.3088 28.8788 56.3088 28.7717V26.7142C56.3088 26.4751 55.9623 26.3754 55.8218 26.5692L54.5929 28.2336C54.5298 28.3201 54.408 28.3565 54.3064 28.3236L52.3448 27.6875C52.1174 27.6135 51.9255 27.874 52.066 28.0676L53.2743 29.7323C53.337 29.8188 53.3367 29.936 53.2738 30.0226L52.0641 31.6872C51.9236 31.8808 52.1124 32.1413 52.3401 32.0674L54.2967 31.4315C54.3985 31.3986 54.5097 31.4347 54.5729 31.5213L55.822 33.1857C55.9625 33.3793 56.3088 33.28 56.3088 33.0406V30.9831C56.3088 30.876 56.3376 30.7812 56.4397 30.7483L58.3765 30.1122C58.6039 30.0386 58.5839 29.7166 58.3562 29.6426Z" fill="url(#paint2_linear_297_1487)"/>
<path d="M16.3717 12.7472C16.6082 12.7097 16.6585 12.3918 16.4454 12.283L14.6122 11.3489C14.5166 11.3004 14.4633 11.1958 14.4804 11.09L14.802 9.05802C14.8395 8.82153 14.5525 8.67552 14.3834 8.84474L12.9288 10.2995C12.8531 10.3752 12.737 10.3936 12.6419 10.3449L10.8085 9.41075C10.5954 9.30224 10.3676 9.53005 10.4763 9.7431L11.4102 11.5765C11.459 11.6718 11.4407 11.7875 11.3649 11.8633L9.91009 13.318C9.74099 13.4871 9.88701 13.7742 10.1234 13.7366L12.1554 13.4148C12.2613 13.3981 12.3655 13.4513 12.4143 13.5467L13.3484 15.3798C13.4571 15.5931 13.7751 15.5428 13.8123 15.3063L14.1344 13.2743C14.1511 13.1686 14.234 13.0858 14.3397 13.069L16.3717 12.7472Z" fill="url(#paint3_linear_297_1487)"/>
<path d="M7.96276 27.2976C8.10327 27.1043 7.91401 26.8435 7.68655 26.9177L5.72987 27.5533C5.62804 27.5865 5.51659 27.5502 5.45389 27.4636L4.24991 25.7991C4.1094 25.6055 3.80882 25.7048 3.80882 25.9442V28.0017C3.80882 28.1088 3.73452 28.2036 3.63245 28.2365L1.67296 28.8726C1.4455 28.9463 1.44362 29.2684 1.67143 29.3425L3.63292 29.978C3.73475 30.0112 3.8087 30.106 3.8087 30.2131V32.2706C3.8087 32.5098 4.10928 32.6094 4.24979 32.4157L5.45659 30.7512C5.51952 30.6648 5.62921 30.6283 5.73104 30.6615L7.68702 31.2973C7.91471 31.3713 8.10339 31.1108 7.96288 30.9172L6.7535 29.2528C6.69057 29.1661 6.69069 29.0489 6.75362 28.9623L7.96276 27.2976Z" fill="url(#paint4_linear_297_1487)"/>
<path d="M43.4122 30.1136C43.1889 25.2707 40.3932 21.0995 36.3579 18.9382C36.0397 18.7648 35.7117 18.6057 35.3769 18.4608C33.743 17.7505 31.9398 17.3564 30.0444 17.3564C22.9253 17.3564 17.1125 22.9171 16.6957 29.9337L16.6993 29.933V29.9568C16.6993 30.2157 16.687 31.3745 16.687 31.3745L16.4877 31.8163H17.8202C18.321 30.1757 19.8585 29.0545 21.6723 29.0545C23.8924 29.0545 25.6987 30.9091 25.6987 33.1292C25.6987 35.3491 23.8924 37.1196 21.6723 37.1196C19.5471 37.1196 17.8017 35.4491 17.6568 33.3398H16.0668C16.0329 33.3398 16.0008 33.394 15.9681 33.3895L14.2955 38.0611C14.0606 38.7126 14.5431 39.4335 15.2353 39.4335H16.6757L16.6649 46.8735C16.6649 48.3425 17.8562 49.5116 19.3252 49.5116H24.0821V56.5069C24.0821 57.5969 25.1768 58.4179 26.2668 58.4179H38.5051C39.5951 58.4179 40.4885 57.5969 40.4885 56.5069V42.4541C40.4885 40.5373 40.9943 38.6657 41.89 36.9704C42.8256 35.1995 43.3733 33.1938 43.4244 31.0636C43.4268 30.9568 43.4278 30.8475 43.4278 30.7382C43.4277 30.5293 43.4216 30.3202 43.4122 30.1136ZM30.2598 29.1209H29.1212V30.2685C29.1212 30.6691 28.7598 30.9937 28.3595 30.9937C27.9592 30.9937 27.5978 30.6691 27.5978 30.2685V29.1209H26.5663C26.166 29.1209 25.8411 28.7595 25.8411 28.3592C25.8411 27.9589 26.1659 27.5975 26.5663 27.5975H27.5978V26.575C27.5978 26.1747 27.9592 25.8498 28.3595 25.8498C28.7598 25.8498 29.1212 26.1746 29.1212 26.575V27.5975H30.2598C30.6601 27.5975 30.985 27.9589 30.985 28.3592C30.985 28.7595 30.6601 29.1209 30.2598 29.1209Z" fill="url(#paint5_linear_297_1487)"/>
<path d="M23.4971 34.9962C23.9586 34.5296 24.2487 33.8889 24.2487 33.1771C24.2487 31.7557 23.0938 30.6011 21.6725 30.6011C20.9684 30.6011 20.3277 30.8833 19.8611 31.3447C19.3894 31.814 19.0967 32.4626 19.0967 33.1772C19.0967 34.5983 20.2514 35.7532 21.6725 35.7532C22.3845 35.7531 23.0303 35.4631 23.4971 34.9962Z" fill="url(#paint6_linear_297_1487)"/>
<defs>
<linearGradient id="paint0_linear_297_1487" x1="26.2862" y1="1.00172" x2="34.6081" y2="2.33501" gradientUnits="userSpaceOnUse">
<stop stopColor="#FC365F"/>
<stop offset="0.984375" stopColor="#A00BFB"/>
</linearGradient>
<linearGradient id="paint1_linear_297_1487" x1="43.2971" y1="8.76297" x2="51.542" y2="10.0251" gradientUnits="userSpaceOnUse">
<stop stopColor="#FC365F"/>
<stop offset="0.984375" stopColor="#A00BFB"/>
</linearGradient>
<linearGradient id="paint2_linear_297_1487" x1="51.3456" y1="25.907" x2="59.3347" y2="27.0762" gradientUnits="userSpaceOnUse">
<stop stopColor="#FC365F"/>
<stop offset="0.984375" stopColor="#A00BFB"/>
</linearGradient>
<linearGradient id="paint3_linear_297_1487" x1="9.14382" y1="8.21805" x2="17.3886" y2="9.48015" gradientUnits="userSpaceOnUse">
<stop stopColor="#FC365F"/>
<stop offset="0.984375" stopColor="#A00BFB"/>
</linearGradient>
<linearGradient id="paint4_linear_297_1487" x1="0.832389" y1="25.137" x2="8.80771" y2="26.3021" gradientUnits="userSpaceOnUse">
<stop stopColor="#FC365F"/>
<stop offset="0.984375" stopColor="#A00BFB"/>
</linearGradient>
<linearGradient id="paint5_linear_297_1487" x1="11.2349" y1="13.9865" x2="47.3356" y2="17.9154" gradientUnits="userSpaceOnUse">
<stop stopColor="#FC365F"/>
<stop offset="0.984375" stopColor="#A00BFB"/>
</linearGradient>
<linearGradient id="paint6_linear_297_1487" x1="18.5671" y1="30.1782" x2="24.8662" y2="31.1425" gradientUnits="userSpaceOnUse">
<stop stopColor="#FC365F"/>
<stop offset="0.984375" stopColor="#A00BFB"/>
</linearGradient>
</defs>
</svg>
