<svg width="39" height="39" viewBox="0 0 39 39" fill="none" xmlns="http://www.w3.org/2000/svg">
<path fill-rule="evenodd" clip-rule="evenodd" d="M36.5919 0V39H4.44922V30.0784H3.30128C2.66761 30.0784 2.15332 29.5645 2.15332 28.9314C2.15332 28.2982 2.66761 27.7843 3.30128 27.7843H4.44922V20.902H3.30128C2.66761 20.902 2.15332 20.3881 2.15332 19.7549C2.15332 19.1217 2.66761 18.6079 3.30128 18.6079H4.44922V11.7255H3.30128C2.66761 11.7255 2.15332 11.2116 2.15332 10.5784C2.15332 9.94524 2.66761 9.43136 3.30128 9.43136H4.44922V0H36.5919ZM34.296 2.29411H6.74514V9.43138H7.8931C8.52677 9.43138 9.04104 9.94526 9.04104 10.5784C9.04104 11.2116 8.52677 11.7255 7.8931 11.7255H6.74514V18.6078H7.8931C8.52677 18.6078 9.04104 19.1217 9.04104 19.7549C9.04104 20.3881 8.52677 20.9019 7.8931 20.9019H6.74514V27.7843H7.8931C8.52677 27.7843 9.04104 28.2982 9.04104 28.9314C9.04104 29.5645 8.52677 30.0784 7.8931 30.0784H6.74514V36.7059H34.2961V2.29409L34.296 2.29411ZM13.006 8.63689H28.2122V10.931H13.006L13.006 8.63689ZM13.006 13.0006H25.9947V15.2947H13.006L13.006 13.0006ZM13.006 23.8647H28.2122V26.1588H13.006L13.006 23.8647ZM13.006 28.2284H25.9947V30.5225H13.006L13.006 28.2284Z" fill="url(#paint0_linear_297_1373)"/>
<defs>
<linearGradient id="paint0_linear_297_1373" x1="-1.38633" y1="-3.20074" x2="40.9331" y2="2.51983" gradientUnits="userSpaceOnUse">
<stop stopColor="#FC365F"/>
<stop offset="0.984375" stopColor="#A00BFB"/>
</linearGradient>
</defs>
</svg>
