<svg width="39" height="39" viewBox="0 0 39 39" fill="none" xmlns="http://www.w3.org/2000/svg">
<path d="M19.4999 24.7728C17.803 24.7728 16.1441 24.2696 14.7331 23.3268C13.3222 22.384 12.2224 21.044 11.573 19.4762C10.9236 17.9084 10.7537 16.1833 11.0848 14.5189C11.4158 12.8546 12.233 11.3258 13.4329 10.1258C14.6329 8.92589 16.1617 8.10872 17.826 7.77766C19.4904 7.4466 21.2156 7.61651 22.7833 8.26591C24.3511 8.91531 25.6912 10.015 26.6339 11.426C27.5767 12.837 28.0799 14.4958 28.0799 16.1928C28.0774 18.4676 27.1727 20.6485 25.5642 22.257C23.9556 23.8656 21.7747 24.7703 19.4999 24.7728ZM19.4999 9.1728C18.1115 9.1728 16.7543 9.58451 15.5998 10.3559C14.4454 11.1272 13.5456 12.2236 13.0143 13.5064C12.483 14.7891 12.3439 16.2006 12.6148 17.5623C12.8857 18.9241 13.5543 20.1749 14.536 21.1567C15.5178 22.1384 16.7686 22.807 18.1304 23.0779C19.4921 23.3488 20.9036 23.2098 22.1864 22.6784C23.4691 22.1471 24.5655 21.2473 25.3368 20.0929C26.1082 18.9385 26.5199 17.5812 26.5199 16.1928C26.5199 14.331 25.7803 12.5454 24.4638 11.2289C23.1473 9.9124 21.3617 9.1728 19.4999 9.1728ZM19.4999 27.2064L19.4531 27.2688C19.4666 27.2587 19.483 27.2532 19.4999 27.2532C19.5168 27.2532 19.5332 27.2587 19.5467 27.2688L19.4999 27.2064Z" fill="url(#paint0_linear_297_1342)"/>
<path d="M30.9661 13.8061C30.5863 13.5265 30.2633 13.1771 30.0145 12.7765C29.9765 12.2823 30.0294 11.7852 30.1705 11.3101C30.3486 10.865 30.4296 10.3871 30.4081 9.9082C30.3866 9.42932 30.263 8.96056 30.0457 8.53328C29.7038 8.19171 29.2936 7.92621 28.842 7.75416C28.3903 7.5821 27.9074 7.50738 27.4249 7.53488C26.9375 7.53986 26.4542 7.44427 26.0053 7.25408C25.6848 6.88459 25.4408 6.45507 25.2877 5.99048C24.9133 5.11688 24.4921 4.11848 23.5249 3.80648C23.0573 3.72895 22.5784 3.7529 22.1208 3.87671C21.6633 4.00053 21.2377 4.22131 20.8729 4.52408C20.4611 4.8175 19.9941 5.02446 19.5001 5.13248C19.0061 5.02446 18.5391 4.8175 18.1273 4.52408C17.7626 4.22131 17.337 4.00053 16.8794 3.87671C16.4218 3.7529 15.943 3.72895 15.4753 3.80648C14.5081 4.11848 14.0869 5.11688 13.7125 5.99048C13.5594 6.45507 13.3155 6.88459 12.9949 7.25408C12.5461 7.44427 12.0628 7.53986 11.5753 7.53488C11.0928 7.50738 10.6099 7.5821 10.1583 7.75416C9.70665 7.92621 9.29644 8.19171 8.95452 8.53328C8.73722 8.96056 8.61368 9.42932 8.59215 9.9082C8.57063 10.3871 8.65163 10.865 8.82972 11.3101C8.97089 11.7852 9.02376 12.2823 8.98572 12.7765C8.73691 13.1771 8.41393 13.5265 8.03412 13.8061C7.61822 14.0689 7.26367 14.418 6.99451 14.8298C6.72536 15.2416 6.54788 15.7065 6.47412 16.1929C6.54788 16.6793 6.72536 17.1441 6.99451 17.556C7.26367 17.9678 7.61822 18.3169 8.03412 18.5797C8.41393 18.8592 8.73691 19.2087 8.98572 19.6093C9.02376 20.1035 8.97089 20.6005 8.82972 21.0757C8.65163 21.5207 8.57063 21.9987 8.59215 22.4776C8.61368 22.9564 8.73722 23.4252 8.95452 23.8525C9.28316 24.1899 9.67991 24.4535 10.1184 24.6256C10.5568 24.7978 11.0269 24.8746 11.4973 24.8509H11.5753C12.0628 24.8459 12.5461 24.9415 12.9949 25.1317C13.0492 25.1703 13.0967 25.2178 13.1353 25.2721C13.3745 25.6205 13.5684 25.998 13.7125 26.3953C14.0869 27.2689 14.5081 28.2673 15.4753 28.5793C15.7933 28.6799 16.132 28.696 16.4581 28.6261C17.0542 28.4688 17.6188 28.2103 18.1273 27.8617C18.529 27.584 18.9785 27.383 19.4533 27.2689L19.5001 27.2065L19.5469 27.2689C20.0217 27.383 20.4713 27.584 20.8729 27.8617C21.3849 28.204 21.9484 28.4621 22.5421 28.6261C22.6855 28.6579 22.832 28.6736 22.9789 28.6729C23.1647 28.6709 23.3491 28.6393 23.5249 28.5793C24.4921 28.2673 24.9133 27.2689 25.2877 26.3953C25.4318 25.998 25.6258 25.6205 25.8649 25.2721C25.9035 25.2178 25.951 25.1703 26.0053 25.1317C26.4542 24.9415 26.9375 24.8459 27.4249 24.8509H27.5029C27.9734 24.8746 28.4434 24.7978 28.8819 24.6256C29.3203 24.4535 29.7171 24.1899 30.0457 23.8525C30.263 23.4252 30.3866 22.9564 30.4081 22.4776C30.4296 21.9987 30.3486 21.5207 30.1705 21.0757C30.0294 20.6005 29.9765 20.1035 30.0145 19.6093C30.2633 19.2087 30.5863 18.8592 30.9661 18.5797C31.382 18.3169 31.7366 17.9678 32.0057 17.556C32.2749 17.1441 32.4524 16.6793 32.5261 16.1929C32.4524 15.7065 32.2749 15.2416 32.0057 14.8298C31.7366 14.418 31.382 14.0689 30.9661 13.8061ZM29.9521 17.3941C29.3373 17.839 28.8483 18.4356 28.5325 19.1257C28.3724 19.8878 28.4154 20.6786 28.6573 21.4189C28.7821 21.9649 28.9537 22.6981 28.7821 22.9321C28.6105 23.1661 27.8461 23.2441 27.2845 23.2909C26.8045 23.3193 26.3287 23.3978 25.8649 23.5249C25.8493 23.5249 25.8337 23.5405 25.8181 23.5405C25.5538 23.6064 25.3048 23.723 25.0849 23.8837C24.5132 24.3918 24.0877 25.0435 23.8525 25.7713C23.6341 26.3017 23.3377 27.0037 23.0413 27.0973C22.7917 27.1753 22.1365 26.8009 21.6685 26.5201C21.2496 26.2535 20.8055 26.0288 20.3425 25.8493C20.3113 25.8493 20.2957 25.8337 20.2801 25.8337C20.2223 25.8036 20.1581 25.7876 20.0929 25.7869C20.0773 25.7713 20.0773 25.7713 20.0617 25.7713C19.6945 25.6673 19.3057 25.6673 18.9385 25.7713C18.9229 25.7713 18.9229 25.7713 18.9073 25.7869C18.8421 25.7876 18.778 25.8036 18.7201 25.8337C18.7045 25.8337 18.6889 25.8493 18.6577 25.8493C18.1948 26.0288 17.7506 26.2535 17.3317 26.5201C16.8637 26.8009 16.2085 27.1909 15.9589 27.0973C15.6625 27.0037 15.3661 26.3017 15.1477 25.7713C14.9125 25.0435 14.487 24.3918 13.9153 23.8837C13.7277 23.7431 13.5164 23.6374 13.2913 23.5717C13.2085 23.5294 13.1186 23.503 13.0261 23.4937C12.5963 23.3869 12.1577 23.3191 11.7157 23.2909C11.1541 23.2441 10.3897 23.1661 10.2181 22.9321C10.0465 22.6981 10.2181 21.9649 10.3429 21.4189C10.5849 20.6786 10.6279 19.8878 10.4677 19.1257C10.152 18.4356 9.6629 17.839 9.04812 17.3941C8.59572 17.0041 8.03412 16.5049 8.03412 16.1929C8.03412 15.8809 8.59572 15.3817 9.04812 14.9761C9.66551 14.5405 10.1556 13.9482 10.4677 13.2601C10.6279 12.498 10.5849 11.7071 10.3429 10.9669C10.2181 10.4209 10.0465 9.68768 10.2181 9.45368C10.3897 9.21968 11.1541 9.14168 11.7157 9.09488C12.4887 9.09697 13.2481 8.8923 13.9153 8.50208C14.487 7.99399 14.9125 7.34229 15.1477 6.61448C15.3661 6.08408 15.6625 5.38208 15.9589 5.28848C15.9823 5.27433 16.0099 5.26881 16.0369 5.27288C16.5006 5.39112 16.9392 5.59192 17.3317 5.86568C17.9695 6.32668 18.7173 6.61182 19.5001 6.69248C20.2829 6.61182 21.0307 6.32668 21.6685 5.86568C22.1365 5.58488 22.7917 5.21048 23.0413 5.28848C23.3377 5.38208 23.6341 6.08408 23.8525 6.61448C24.0877 7.34229 24.5132 7.99399 25.0849 8.50208C25.7521 8.8923 26.5116 9.09697 27.2845 9.09488C27.8461 9.14168 28.6105 9.21968 28.7821 9.45368C28.9537 9.68768 28.7821 10.4209 28.6573 10.9669C28.4154 11.7071 28.3724 12.498 28.5325 13.2601C28.8447 13.9482 29.3347 14.5405 29.9521 14.9761C30.4045 15.3817 30.9661 15.8809 30.9661 16.1929C30.9661 16.5049 30.4045 17.0041 29.9521 17.3941Z" fill="url(#paint1_linear_297_1342)"/>
<path d="M19.4532 27.2687L13.572 34.9751C13.4988 35.0713 13.4044 35.1495 13.2963 35.2036C13.1881 35.2577 13.0689 35.2862 12.948 35.2871C12.8794 35.2843 12.8114 35.2739 12.7452 35.2559C12.5968 35.2177 12.4629 35.1367 12.3603 35.023C12.2576 34.9093 12.1908 34.7678 12.168 34.6163L11.6844 31.0127L8.0964 31.4963C7.94381 31.5148 7.78914 31.4883 7.65139 31.4201C7.51364 31.3519 7.39878 31.245 7.32092 31.1125C7.24307 30.98 7.20559 30.8276 7.2131 30.6741C7.22061 30.5206 7.27278 30.3726 7.36319 30.2483L11.4972 24.8507H11.5752C12.0627 24.8457 12.5459 24.9413 12.9948 25.1315C13.0491 25.1701 13.0966 25.2176 13.1352 25.2719L9.74999 29.7023L12.246 29.3591C12.4522 29.3339 12.6602 29.3898 12.8261 29.5149C12.9919 29.64 13.1028 29.8246 13.1352 30.0299L13.4628 32.5415L16.458 28.6259C17.0541 28.4686 17.6187 28.2101 18.1272 27.8615C18.5289 27.5838 18.9784 27.3828 19.4532 27.2687ZM31.6836 31.1063C31.6072 31.2416 31.4922 31.351 31.3532 31.4205C31.2142 31.49 31.0577 31.5164 30.9036 31.4963L27.3156 31.0127L26.832 34.6163C26.8092 34.7678 26.7424 34.9093 26.6397 35.023C26.5371 35.1367 26.4032 35.2177 26.2548 35.2559C26.1886 35.2739 26.1206 35.2843 26.052 35.2871C25.9311 35.2862 25.8119 35.2577 25.7037 35.2036C25.5956 35.1495 25.5012 35.0713 25.428 34.9751L19.5468 27.2687C20.0216 27.3828 20.4711 27.5838 20.8728 27.8615C21.3848 28.2038 21.9483 28.4619 22.542 28.6259L25.5372 32.5415L25.8648 30.0299C25.8972 29.8246 26.008 29.64 26.1739 29.5149C26.3398 29.3898 26.5478 29.3339 26.754 29.3591L29.25 29.7023L25.8648 25.2719C25.9034 25.2176 25.9509 25.1701 26.0052 25.1315C26.4541 24.9413 26.9373 24.8457 27.4248 24.8507H27.5028L31.6368 30.2483C31.7278 30.371 31.7807 30.5177 31.789 30.6703C31.7973 30.8228 31.7607 30.9744 31.6836 31.1063ZM22.021 20.8898C21.8947 20.8899 21.7704 20.8588 21.659 20.7994L19.5 19.6652L17.341 20.7994C17.2123 20.8667 17.0674 20.8968 16.9225 20.8863C16.7777 20.8758 16.6386 20.825 16.5211 20.7397C16.4035 20.6544 16.3121 20.538 16.2571 20.4036C16.2022 20.2691 16.1858 20.122 16.21 19.9788L16.6218 17.5748L14.8762 15.8729C14.7719 15.7713 14.6981 15.6426 14.6632 15.5013C14.6282 15.3599 14.6335 15.2117 14.6785 15.0732C14.7235 14.9347 14.8063 14.8116 14.9176 14.7178C15.0289 14.6239 15.1642 14.5631 15.3083 14.5422L17.7216 14.1959L18.8011 12.0119C18.8724 11.8888 18.9748 11.7866 19.098 11.7156C19.2212 11.6446 19.3609 11.6072 19.5031 11.6072C19.6453 11.6072 19.7851 11.6446 19.9083 11.7156C20.0315 11.7866 20.1338 11.8888 20.2051 12.0119L21.2846 14.1959L23.698 14.5469C23.842 14.5678 23.9774 14.6286 24.0887 14.7225C24.1999 14.8163 24.2828 14.9394 24.3277 15.0779C24.3727 15.2163 24.378 15.3646 24.3431 15.5059C24.3081 15.6473 24.2344 15.776 24.1301 15.8776L22.3844 17.5795L22.7963 19.9835C22.8153 20.0954 22.8098 20.2101 22.7799 20.3197C22.75 20.4292 22.6966 20.5309 22.6234 20.6177C22.5501 20.7044 22.4589 20.7741 22.3559 20.822C22.2529 20.8698 22.1407 20.8945 22.0272 20.8945L22.021 20.8898ZM19.5 18.0054C19.626 18.0054 19.7502 18.0359 19.8619 18.0943L20.9851 18.684L20.7714 17.436C20.7497 17.3114 20.7587 17.1833 20.7976 17.0629C20.8365 16.9425 20.904 16.8334 20.9945 16.7449L21.904 15.8604L20.656 15.6779C20.5309 15.6595 20.4121 15.611 20.3099 15.5365C20.2078 15.4621 20.1252 15.3639 20.0694 15.2504L19.5078 14.1132L18.9462 15.2504C18.8904 15.3639 18.8078 15.4621 18.7057 15.5365C18.6035 15.611 18.4847 15.6595 18.3596 15.6779L17.1116 15.8604L18.0211 16.7449C18.1116 16.8334 18.1791 16.9425 18.218 17.0629C18.2568 17.1833 18.2658 17.3114 18.2442 17.436L18.0305 18.684L19.1537 18.0943C19.2607 18.0383 19.3792 18.0078 19.5 18.0054Z" fill="url(#paint2_linear_297_1342)"/>
<defs>
<linearGradient id="paint0_linear_297_1342" x1="9.15619" y1="5.99962" x2="30.2516" y2="8.81883" gradientUnits="userSpaceOnUse">
<stop stop-color="#FC365F"/>
<stop offset="0.984375" stop-color="#A00BFB"/>
</linearGradient>
<linearGradient id="paint1_linear_297_1342" x1="3.79646" y1="1.71751" x2="35.5805" y2="6.80588" gradientUnits="userSpaceOnUse">
<stop stop-color="#FC365F"/>
<stop offset="0.984375" stop-color="#A00BFB"/>
</linearGradient>
<linearGradient id="paint2_linear_297_1342" x1="4.686" y1="9.66376" x2="34.6829" y2="14.4298" gradientUnits="userSpaceOnUse">
<stop stop-color="#FC365F"/>
<stop offset="0.984375" stop-color="#A00BFB"/>
</linearGradient>
</defs>
</svg>
