<svg width="39" height="39" viewBox="0 0 39 39" fill="none" xmlns="http://www.w3.org/2000/svg">
<path d="M19.2563 22.3943C20.8044 22.3943 22.0594 21.1393 22.0594 19.5912C22.0594 18.0431 20.8044 16.7881 19.2563 16.7881C17.7081 16.7881 16.4531 18.0431 16.4531 19.5912C16.4531 21.1393 17.7081 22.3943 19.2563 22.3943Z" fill="url(#paint0_linear_280_952)"/>
<path d="M6.7336 9.32345C5.2711 9.59767 4.32657 10.9992 4.60079 12.4313C4.87501 13.8938 6.27657 14.8383 7.7086 14.5641C9.1711 14.2899 10.1156 12.8883 9.84142 11.4563C9.59767 10.0242 8.1961 9.0797 6.7336 9.32345ZM8.28751 10.6945C8.56173 10.6641 8.77501 10.8164 8.80548 11.0602C8.83595 11.3344 8.6836 11.5477 8.43985 11.5781C8.16563 11.6086 7.95235 11.4563 7.92188 11.2125C7.86095 10.9383 8.01329 10.725 8.28751 10.6945ZM5.51485 11.6695C5.48438 11.4563 5.63673 11.182 5.88048 11.1516C6.1547 11.1211 6.36798 11.2734 6.39845 11.5172C6.42892 11.7609 6.27657 12.0047 6.03282 12.0352C5.81954 12.0656 5.54532 11.9133 5.51485 11.6695ZM8.92735 13.3453C8.80548 13.4063 8.65313 13.3758 8.56173 13.2844C8.28751 12.9188 7.86095 12.7359 7.40392 12.7969C6.94688 12.8578 6.61173 13.2234 6.48985 13.65C6.45938 13.8024 6.30704 13.8633 6.18517 13.8328C6.03282 13.8024 5.97188 13.6805 6.00235 13.5281C6.1547 12.8883 6.67267 12.4008 7.31251 12.2789C7.95235 12.157 8.5922 12.4313 8.98829 12.9797C9.0797 13.132 9.01876 13.2844 8.92735 13.3453Z" fill="url(#paint1_linear_280_952)"/>
<path d="M31.9921 8.5922C30.5601 8.28751 29.0976 9.20158 28.7929 10.6641C28.4882 12.1266 29.4023 13.5586 30.8648 13.8633C32.3273 14.168 33.7593 13.2539 34.064 11.7914C34.3687 10.3289 33.4546 8.89689 31.9921 8.5922ZM29.9812 10.2375C30.0116 10.0242 30.2859 9.81095 30.5296 9.90236C30.8038 9.93283 30.9562 10.207 30.8648 10.4508C30.8343 10.725 30.5601 10.8774 30.3163 10.786C30.0726 10.6945 29.8898 10.5117 29.9812 10.2375ZM32.6929 12.4313C32.3273 12.9492 31.6569 13.2235 31.0171 13.0711C30.3773 12.9188 29.8898 12.4313 29.7374 11.7914C29.7069 11.6391 29.7984 11.5172 29.9202 11.4867C30.0726 11.4563 30.1944 11.5477 30.2249 11.6695C30.3468 12.1266 30.6819 12.4617 31.078 12.5227C31.5351 12.5836 31.9921 12.4617 32.2359 12.0656C32.2968 11.9438 32.5101 11.9133 32.6015 12.0047C32.7843 12.1875 32.7843 12.3399 32.6929 12.4313ZM33.2413 10.9383C33.2109 11.2125 32.9366 11.3649 32.6929 11.2735C32.4187 11.243 32.2663 10.9688 32.3577 10.725C32.3882 10.4508 32.6624 10.2985 32.9062 10.3899C33.1499 10.4508 33.3023 10.6945 33.2413 10.9383Z" fill="url(#paint2_linear_280_952)"/>
<path d="M28.2445 6.36816L26.6296 14.3814L30.2249 15.0822L29.8898 16.758C29.5546 16.758 29.25 16.8799 29.0367 17.1236L23.6132 22.4861C23.1867 22.9127 22.6687 23.126 22.1203 23.126H16.4226C15.9046 23.126 15.3257 22.9127 14.9296 22.4861L9.56714 17.1236C9.35386 16.9104 9.07964 16.7885 8.77495 16.758L8.59214 15.8439L12.0351 15.1432L10.4203 7.16035L2.40698 8.7752L4.02183 16.7885L7.73901 16.0268L7.92183 17.0018C7.89136 17.0322 7.86089 17.0627 7.79995 17.1236C7.31245 17.6111 7.31245 18.4033 7.79995 18.8604L15.3562 26.4775V32.7541H23.0648V26.4471L30.682 18.8908C31.139 18.4033 31.139 17.6111 30.682 17.1236L30.6515 17.0932L31.0171 15.2955L34.6429 15.9963L36.2578 7.98301L28.2445 6.36816ZM4.41792 16.1791L2.98589 9.14082L10.0546 7.73926L11.4867 14.7775L4.41792 16.1791ZM34.2468 15.4479L27.2085 14.0158L28.6406 6.97754L35.6789 8.40957L34.2468 15.4479Z" fill="url(#paint3_linear_280_952)"/>
<defs>
<linearGradient id="paint0_linear_280_952" x1="15.8769" y1="16.328" x2="22.7313" y2="17.3773" gradientUnits="userSpaceOnUse">
<stop stopColor="#FC365F"/>
<stop offset="0.984375" stopColor="#A00BFB"/>
</linearGradient>
<linearGradient id="paint1_linear_280_952" x1="4.0051" y1="8.84803" x2="10.5277" y2="9.8482" gradientUnits="userSpaceOnUse">
<stop stopColor="#FC365F"/>
<stop offset="0.984375" stopColor="#A00BFB"/>
</linearGradient>
<linearGradient id="paint2_linear_280_952" x1="28.1806" y1="8.09149" x2="34.7683" y2="9.09994" gradientUnits="userSpaceOnUse">
<stop stopColor="#FC365F"/>
<stop offset="0.984375" stopColor="#A00BFB"/>
</linearGradient>
<linearGradient id="paint3_linear_280_952" x1="-1.07224" y1="4.20266" x2="39.7119" y2="12.2122" gradientUnits="userSpaceOnUse">
<stop stopColor="#FC365F"/>
<stop offset="0.984375" stopColor="#A00BFB"/>
</linearGradient>
</defs>
</svg>
