<svg width="39" height="39" viewBox="0 0 39 39" fill="none" xmlns="http://www.w3.org/2000/svg">
<g clipPath="url(#clip0_280_940)">
<path d="M16.2948 19.3047L19.9159 22.9263L3.84212 39.0001L0.220947 35.3784L16.2948 19.3047ZM20.6787 22.164L17.0576 18.5424L23.2831 12.3164L26.9052 15.9375L20.6787 22.164Z" fill="url(#paint0_linear_280_940)"/>
<path d="M34.3384 19.7433L35.4165 19.7428V16.3809H38.7789V15.3028H35.4165V11.9409H34.3384V15.3028H30.9771V16.3809H34.3384V19.7433Z" fill="url(#paint1_linear_280_940)"/>
<path d="M35.5325 23.5289V22.4507H32.1707V19.0889H31.093V22.4507H27.7307V23.5289H31.093V26.8907H32.1707V23.5289H35.5325Z" fill="url(#paint2_linear_280_940)"/>
<path d="M27.3717 3.36178H24.0094V0H22.9312V3.36178H19.5698V4.44001H22.9312V7.80188H24.0094V4.44001H27.3717V3.36178Z" fill="url(#paint3_linear_280_940)"/>
<path d="M20.2247 6.609H16.8624V3.24658H15.7847V6.609H12.4224V7.68668H15.7847V11.049H16.8624V7.68668H20.2247V6.609Z" fill="url(#paint4_linear_280_940)"/>
</g>
<defs>
<linearGradient id="paint0_linear_280_940" x1="-2.5217" y1="10.1265" x2="30.1035" y2="15.1209" gradientUnits="userSpaceOnUse">
<stop stop-color="#FC365F"/>
<stop offset="0.984375" stop-color="#A00BFB"/>
</linearGradient>
<linearGradient id="paint1_linear_280_940" x1="30.1752" y1="11.3006" x2="39.7141" y2="12.7607" gradientUnits="userSpaceOnUse">
<stop stop-color="#FC365F"/>
<stop offset="0.984375" stop-color="#A00BFB"/>
</linearGradient>
<linearGradient id="paint2_linear_280_940" x1="26.9288" y1="18.4486" x2="36.4676" y2="19.9088" gradientUnits="userSpaceOnUse">
<stop stop-color="#FC365F"/>
<stop offset="0.984375" stop-color="#A00BFB"/>
</linearGradient>
<linearGradient id="paint3_linear_280_940" x1="18.7679" y1="-0.640303" x2="28.3068" y2="0.81991" gradientUnits="userSpaceOnUse">
<stop stop-color="#FC365F"/>
<stop offset="0.984375" stop-color="#A00BFB"/>
</linearGradient>
<linearGradient id="paint4_linear_280_940" x1="11.6204" y1="2.60623" x2="21.1599" y2="4.06652" gradientUnits="userSpaceOnUse">
<stop stop-color="#FC365F"/>
<stop offset="0.984375" stop-color="#A00BFB"/>
</linearGradient>
<clipPath id="clip0_280_940">
<rect width="39" height="39" fill="white"/>
</clipPath>
</defs>
</svg>
