<svg width="39" height="39" viewBox="0 0 39 39" fill="none" xmlns="http://www.w3.org/2000/svg">
<g clipPath="url(#clip0_280_958)">
<path d="M12.4041 13.2285C12.5966 13.2285 12.7906 13.1666 12.954 13.0388L14.6717 11.6966L15.9715 12.7968C16.2365 13.0208 16.5823 13.1198 16.9198 13.0694C17.2575 13.0187 17.5587 12.822 17.7461 12.5298L20.3177 8.51969L22.0722 10.4229C22.3203 10.6919 22.6658 10.8299 23.0191 10.8019C23.3728 10.7738 23.6919 10.5832 23.8943 10.2786L27.7622 4.45972L28.7607 5.23757C28.8844 5.3341 29.0158 5.38507 29.1404 5.38507C29.3871 5.38507 29.5676 5.19737 29.6115 4.8953L30.2327 0.614825C30.2608 0.421039 30.2236 0.25866 30.125 0.144625C29.9925 -0.00854574 29.7608 -0.0438169 29.5167 0.0568992L25.5181 1.70642C25.3041 1.79464 25.1731 1.94115 25.1489 2.11891C25.1247 2.29674 25.2119 2.47294 25.3944 2.61501L26.3475 3.35751L22.8466 8.62451L21.0787 6.70688C20.8289 6.43589 20.4812 6.299 20.126 6.32942C19.7704 6.36058 19.4523 6.55634 19.2533 6.86654L16.6076 10.9924L15.5321 10.0821C15.0673 9.68865 14.3548 9.67476 13.8748 10.0498L11.8529 11.6298C11.4638 11.9338 11.3948 12.4958 11.6989 12.8849C11.8752 13.1105 12.1383 13.2285 12.4041 13.2285Z" fill="url(#paint0_linear_280_958)"/>
<path d="M5.87204 30.8434C7.37974 30.8434 8.60634 29.6166 8.60634 28.1086C8.60634 26.6005 7.37974 25.3735 5.87204 25.3735C4.36409 25.3735 3.13733 26.6005 3.13733 28.1086C3.13741 29.6166 4.36409 30.8434 5.87204 30.8434Z" fill="url(#paint1_linear_280_958)"/>
<path d="M8.97092 31.8128C8.77204 31.4312 8.38093 31.1943 7.95036 31.1943C7.93959 31.1943 3.92402 31.1961 3.91612 31.1961C3.45719 31.1961 3.13769 31.4465 2.94686 31.8128L0.363023 36.7656C0.220952 37.0381 0.193409 37.3495 0.285575 37.6426C0.37774 37.9357 0.578515 38.1753 0.850736 38.3174C0.99141 38.3907 1.1422 38.4336 1.2989 38.4452C1.32669 38.4471 1.35448 38.4483 1.38219 38.4483C1.8126 38.4483 2.20362 38.2112 2.40267 37.8297L3.14937 36.3984V38.4327C3.14937 38.7455 3.40383 38.9999 3.71658 38.9999H8.18665C8.49949 38.9999 8.75395 38.7454 8.75395 38.4327V36.3711L9.51487 37.8297C9.71375 38.2112 10.1048 38.4481 10.5354 38.4483C10.5631 38.4483 10.5908 38.4471 10.6186 38.4452C10.7754 38.4336 10.9261 38.3907 11.0667 38.3174C11.3391 38.1753 11.5398 37.9357 11.632 37.6426C11.7241 37.3495 11.6966 37.0381 11.5546 36.7656L8.97092 31.8128Z" fill="url(#paint2_linear_280_958)"/>
<path d="M16.6921 28.1086C16.6921 29.6166 17.9189 30.8434 19.4268 30.8434C20.9345 30.8434 22.1611 29.6166 22.1611 28.1086C22.1611 26.6005 20.9345 25.3735 19.4268 25.3735C17.9189 25.3736 16.6921 26.6005 16.6921 28.1086Z" fill="url(#paint3_linear_280_958)"/>
<path d="M22.5257 31.8128C22.3268 31.4312 21.9357 31.1943 21.5051 31.1943C21.4943 31.1943 17.4788 31.1961 17.4709 31.1961C17.0153 31.1961 16.6924 31.4465 16.5016 31.8128L13.9179 36.7656C13.7757 37.0381 13.7482 37.3495 13.8404 37.6426C13.9326 37.9357 14.1333 38.1753 14.4056 38.3174C14.5462 38.3907 14.697 38.4336 14.8537 38.4452C14.8815 38.4471 14.9093 38.4483 14.937 38.4483C15.3674 38.4483 15.7585 38.2112 15.9575 37.8297L16.7042 36.3984V38.4327C16.7042 38.7455 16.9587 38.9999 17.2714 38.9999H21.7415C22.0543 38.9999 22.3088 38.7454 22.3088 38.4327V36.3711L23.0697 37.8297C23.2686 38.2112 23.6596 38.4481 24.0902 38.4483C24.118 38.4483 24.1457 38.4471 24.1735 38.4452C24.3303 38.4336 24.481 38.3907 24.6216 38.3174C24.8939 38.1753 25.0946 37.9357 25.1868 37.6426C25.279 37.3495 25.2514 37.0381 25.1094 36.7656L22.5257 31.8128Z" fill="url(#paint4_linear_280_958)"/>
<path d="M30.2197 28.1086C30.2197 29.6166 31.4465 30.8434 32.9544 30.8434C34.4621 30.8434 35.6887 29.6166 35.6887 28.1086C35.6887 26.6005 34.4621 25.3735 32.9544 25.3735C31.4465 25.3736 30.2197 26.6005 30.2197 28.1086Z" fill="url(#paint5_linear_280_958)"/>
<path d="M38.637 36.7656L36.0532 31.8128C35.8544 31.4312 35.4632 31.1943 35.0327 31.1943C35.0219 31.1943 31.0063 31.1961 30.9984 31.1961C30.5722 31.1961 30.22 31.4465 30.0292 31.8128L27.4454 36.7656C27.3034 37.0381 27.2758 37.3495 27.368 37.6426C27.4601 37.9357 27.6609 38.1753 27.9331 38.3174C28.0738 38.3907 28.2246 38.4336 28.3813 38.4452C28.4091 38.4471 28.4369 38.4483 28.4646 38.4483C28.895 38.4483 29.286 38.2112 29.4851 37.8297L30.2318 36.3984V38.4327C30.2318 38.7455 30.4862 38.9999 30.799 38.9999H35.269C35.5819 38.9999 35.8363 38.7454 35.8363 38.4327V36.3711L36.5973 37.8297C36.7962 38.2112 37.1872 38.4481 37.6178 38.4483C37.6455 38.4483 37.6732 38.4471 37.701 38.4452C37.8578 38.4336 38.0085 38.3907 38.1491 38.3174C38.4215 38.1753 38.6222 37.9357 38.7144 37.6426C38.8065 37.3495 38.779 37.0381 38.637 36.7656Z" fill="url(#paint6_linear_280_958)"/>
<path d="M5.9862 23.1311C6.32362 23.1311 6.59724 22.8576 6.59724 22.5201V20.4343H18.9026V22.5201C18.9026 22.8575 19.1762 23.1311 19.5137 23.1311C19.8511 23.1311 20.1247 22.8576 20.1247 22.5201V20.4343H32.4301V22.5201C32.4301 22.8575 32.7037 23.1311 33.0412 23.1311C33.3787 23.1311 33.6522 22.8576 33.6522 22.5201V20.0949C33.6522 19.6082 33.2563 19.2124 32.7697 19.2124H20.1246V16.5382L20.4009 16.8443C20.5216 16.9779 20.6877 17.0459 20.8546 17.0459C21.0006 17.0459 21.1471 16.9939 21.2639 16.8884C21.5144 16.6623 21.5341 16.276 21.308 16.0255L20.1373 14.7287C19.9783 14.5526 19.7527 14.4517 19.5185 14.4517C19.2843 14.4517 19.0587 14.5527 18.8998 14.7287L17.729 16.0255C17.5029 16.276 17.5226 16.6623 17.7731 16.8884C18.0235 17.1145 18.4099 17.0949 18.636 16.8443L18.9027 16.5489V19.2124H6.25776C5.77112 19.2124 5.37524 19.6082 5.37524 20.0949V22.5201C5.37516 22.8576 5.64878 23.1311 5.9862 23.1311Z" fill="url(#paint7_linear_280_958)"/>
</g>
<defs>
<linearGradient id="paint0_linear_280_958" x1="9.58392" y1="-1.08567" x2="31.9718" y2="3.7674" gradientUnits="userSpaceOnUse">
<stop stop-color="#FC365F"/>
<stop offset="0.984375" stop-color="#A00BFB"/>
</linearGradient>
<linearGradient id="paint1_linear_280_958" x1="2.57522" y1="24.9246" x2="9.26189" y2="25.948" gradientUnits="userSpaceOnUse">
<stop stop-color="#FC365F"/>
<stop offset="0.984375" stop-color="#A00BFB"/>
</linearGradient>
<linearGradient id="paint2_linear_280_958" x1="-0.945143" y1="30.5537" x2="12.6981" y2="33.6183" gradientUnits="userSpaceOnUse">
<stop stop-color="#FC365F"/>
<stop offset="0.984375" stop-color="#A00BFB"/>
</linearGradient>
<linearGradient id="paint3_linear_280_958" x1="16.13" y1="24.9246" x2="22.8167" y2="25.948" gradientUnits="userSpaceOnUse">
<stop stop-color="#FC365F"/>
<stop offset="0.984375" stop-color="#A00BFB"/>
</linearGradient>
<linearGradient id="paint4_linear_280_958" x1="12.6097" y1="30.5537" x2="26.2529" y2="33.6183" gradientUnits="userSpaceOnUse">
<stop stop-color="#FC365F"/>
<stop offset="0.984375" stop-color="#A00BFB"/>
</linearGradient>
<linearGradient id="paint5_linear_280_958" x1="29.6576" y1="24.9246" x2="36.3443" y2="25.948" gradientUnits="userSpaceOnUse">
<stop stop-color="#FC365F"/>
<stop offset="0.984375" stop-color="#A00BFB"/>
</linearGradient>
<linearGradient id="paint6_linear_280_958" x1="26.1373" y1="30.5537" x2="39.7805" y2="33.6183" gradientUnits="userSpaceOnUse">
<stop stop-color="#FC365F"/>
<stop offset="0.984375" stop-color="#A00BFB"/>
</linearGradient>
<linearGradient id="paint7_linear_280_958" x1="2.4689" y1="13.7393" x2="30.8039" y2="27.8707" gradientUnits="userSpaceOnUse">
<stop stop-color="#FC365F"/>
<stop offset="0.984375" stop-color="#A00BFB"/>
</linearGradient>
<clipPath id="clip0_280_958">
<rect width="39" height="39" fill="white"/>
</clipPath>
</defs>
</svg>
