<svg width="39" height="39" viewBox="0 0 39 39" fill="none" xmlns="http://www.w3.org/2000/svg">
<path d="M27.0513 20.6268C26.6672 20.2427 26.1566 20.0312 25.6135 20.0312C25.4818 20.0312 25.3521 20.0442 25.2256 20.0685L16.2802 11.1232L18.0136 9.38977C18.2913 9.11207 18.2913 8.66191 18.0136 8.38421L17.5749 7.94552L24.1559 1.36453C24.353 1.16742 24.4167 0.873322 24.319 0.612214C24.2211 0.351201 23.9798 0.171345 23.7017 0.152288C19.9254 -0.10626 16.224 1.25162 13.511 3.88147L13.0703 3.44079C12.937 3.30749 12.7561 3.23249 12.5675 3.23249C12.3789 3.23249 12.198 3.30739 12.0647 3.44079L5.00277 10.5027C4.72507 10.7804 4.72507 11.2306 5.00277 11.5083L5.68303 12.1886L4.43666 13.4349L3.75639 12.7547C3.47869 12.477 3.02844 12.477 2.75083 12.7547L0.208299 15.2972C0.0749003 15.4306 0 15.6115 0 15.8001C0 15.9887 0.0749003 16.1696 0.208299 16.3029L5.15172 21.2462C5.29052 21.3851 5.47255 21.4545 5.6545 21.4545C5.83644 21.4545 6.01847 21.3851 6.15728 21.2462L8.69971 18.7038C8.83311 18.5705 8.90801 18.3896 8.90801 18.201C8.90801 18.0124 8.83311 17.8315 8.69971 17.6982L8.01916 17.0176L9.26554 15.7713L9.94609 16.4518C10.0794 16.5851 10.2603 16.6601 10.4489 16.6601C10.6374 16.6601 10.8183 16.5852 10.9517 16.4518L12.6851 14.7184L21.631 23.6643C21.5076 24.3052 21.6934 24.9943 22.1886 25.4895L32.7975 36.0983C33.1816 36.4824 33.6922 36.6939 34.2353 36.6939C34.7785 36.6939 35.2891 36.4824 35.6732 36.0983L37.6602 34.1113C38.4529 33.3185 38.4529 32.0285 37.6602 31.2356L27.0513 20.6268ZM21.9353 1.57388L16.5693 6.93996L14.5162 4.88684C16.5361 2.93621 19.1654 1.77279 21.9353 1.57388ZM5.6545 19.7378L1.71673 15.8L3.25361 14.2631L7.19137 18.2009L5.6545 19.7378ZM7.0136 16.012L5.44231 14.4407L6.68869 13.1943L8.25998 14.7656L7.0136 16.012ZM10.4489 14.9434L6.51111 11.0056L12.5674 4.94932L16.5052 8.88708L10.4489 14.9434ZM15.2746 12.1288L23.9742 20.8283L22.3902 22.4122L13.6907 13.7127L15.2746 12.1288ZM36.6545 33.1057L34.6674 35.0927C34.552 35.2082 34.3986 35.2717 34.2352 35.2717C34.0719 35.2717 33.9184 35.2081 33.803 35.0927L23.1943 24.4839C22.9562 24.2457 22.9561 23.8582 23.1939 23.6199L25.1818 21.6319C25.2972 21.5168 25.4504 21.4534 25.6135 21.4534C25.7768 21.4534 25.9303 21.517 26.0458 21.6324L36.6546 32.2411C36.8928 32.4795 36.8928 32.8674 36.6545 33.1057Z" fill="url(#paint0_linear_280_948)"/>
<path d="M23.5603 16.1379C23.2826 16.4156 23.2826 16.8659 23.5603 17.1436C23.8381 17.4213 24.2883 17.4213 24.566 17.1436L26.0848 15.6247C27.8873 13.8223 28.7628 11.3712 28.4869 8.90017C28.3215 7.41951 28.8926 5.94663 30.0145 4.96022C30.3365 4.67712 30.6964 4.44294 31.0833 4.26299L30.4989 6.13606C30.2569 6.91161 30.3314 7.73495 30.7088 8.45446C31.0861 9.17398 31.7211 9.7034 32.4966 9.94536C34.0975 10.4449 35.8063 9.54858 36.306 7.94761L36.9095 6.01253C37.3322 6.70038 37.5641 7.49091 37.5772 8.32059C37.5968 9.56555 37.1229 10.736 36.2427 11.6162C35.7256 12.1332 35.1132 12.5081 34.4223 12.7305C33.1352 13.1448 31.9627 13.8559 31.0316 14.787L27.3159 18.5028C27.0382 18.7805 27.0382 19.2306 27.3159 19.5083C27.4548 19.6472 27.6368 19.7166 27.8187 19.7166C28.0007 19.7166 28.1827 19.6472 28.3216 19.5083L32.0373 15.7926C32.8096 15.0204 33.7849 14.4296 34.858 14.0842C35.7531 13.7961 36.5797 13.2904 37.2484 12.6218C38.4033 11.4669 39.025 9.93133 38.9993 8.29803C38.9736 6.66473 38.3021 5.14833 37.1089 4.02795C36.9303 3.86033 36.678 3.79633 36.4413 3.85872C36.2044 3.92101 36.0163 4.10086 35.9433 4.33466L34.9484 7.52399C34.6824 8.37634 33.7724 8.85352 32.9202 8.58767C32.5073 8.45883 32.1692 8.17695 31.9684 7.79392C31.7675 7.41079 31.7278 6.97248 31.8566 6.55958L32.8402 3.40675C32.9135 3.17143 32.8599 2.91488 32.6983 2.72876C32.5367 2.54256 32.2896 2.45353 32.047 2.49316C30.9386 2.67377 29.9111 3.15759 29.0755 3.89209C27.605 5.18492 26.8567 7.11612 27.0734 9.05793C27.3012 11.097 26.5743 13.1239 25.0792 14.619L23.5603 16.1379Z" fill="url(#paint1_linear_280_948)"/>
<path d="M20.0804 25.7385C18.2781 27.5409 17.4026 29.9918 17.6785 32.4631C17.8438 33.9436 17.2727 35.4165 16.1507 36.403C15.8287 36.6861 15.4687 36.9203 15.0821 37.1003L15.6664 35.2272C15.9084 34.4516 15.8338 33.6283 15.4565 32.9088C15.0791 32.1893 14.4442 31.6598 13.6687 31.4179C12.893 31.1759 12.0697 31.2504 11.3503 31.6278C10.6307 32.0051 10.1013 32.6401 9.85936 33.4155L9.2557 35.3506C8.83294 34.6627 8.60113 33.8723 8.58804 33.0425C8.56842 31.7975 9.04237 30.6271 9.9226 29.7468C10.4396 29.2298 11.0521 28.855 11.7431 28.6326C13.0301 28.2184 14.2025 27.5072 15.1337 26.5761L18.9089 22.8007C19.1866 22.523 19.1866 22.0728 18.9089 21.7952C18.6312 21.5175 18.181 21.5175 17.9034 21.7952L14.1281 25.5705C13.3559 26.3428 12.3805 26.9335 11.3074 27.2789C10.4123 27.5671 9.58564 28.0728 8.91713 28.7414C7.76224 29.8963 7.14048 31.4317 7.16617 33.065C7.19186 34.6983 7.86331 36.2148 9.0566 37.3352C9.23513 37.5028 9.48761 37.5668 9.72425 37.5044C9.96109 37.4421 10.1492 37.2623 10.2221 37.0285L11.217 33.8392C11.3458 33.4263 11.6278 33.0883 12.0108 32.8874C12.3938 32.6864 12.8322 32.6467 13.2452 32.7756C13.6581 32.9044 13.9962 33.1863 14.1971 33.5693C14.398 33.9524 14.4378 34.3908 14.3089 34.8037L13.3253 37.9565C13.252 38.1918 13.3056 38.4484 13.4672 38.6345C13.6034 38.7914 13.8 38.8794 14.0041 38.8794C14.0421 38.8794 14.0803 38.8763 14.1185 38.8701C15.2269 38.6895 16.2544 38.2056 17.0899 37.4712C18.5604 36.1782 19.3088 34.2471 19.092 32.3054C18.8644 30.2663 19.5913 28.2394 21.0862 26.7443C21.3639 26.4666 21.3639 26.0164 21.0862 25.7387C20.8084 25.4608 20.3582 25.4608 20.0804 25.7385Z" fill="url(#paint2_linear_280_948)"/>
<defs>
<linearGradient id="paint0_linear_280_948" x1="-3.93187" y1="-2.88045" x2="42.7394" y2="4.59254" gradientUnits="userSpaceOnUse">
<stop stopColor="#FC365F"/>
<stop offset="0.984375" stopColor="#A00BFB"/>
</linearGradient>
<linearGradient id="paint1_linear_280_948" x1="21.7437" y1="1.06959" x2="40.9527" y2="3.73969" gradientUnits="userSpaceOnUse">
<stop stopColor="#FC365F"/>
<stop offset="0.984375" stopColor="#A00BFB"/>
</linearGradient>
<linearGradient id="paint2_linear_280_948" x1="5.7132" y1="20.1677" x2="23.1205" y2="22.345" gradientUnits="userSpaceOnUse">
<stop stopColor="#FC365F"/>
<stop offset="0.984375" stopColor="#A00BFB"/>
</linearGradient>
</defs>
</svg>
