<svg width="39" height="39" viewBox="0 0 39 39" fill="none" xmlns="http://www.w3.org/2000/svg">
<g clipPath="url(#clip0_280_938)">
<path d="M0 31.707C0 33.735 0.715 35.451 2.145 36.855C3.575 38.259 5.304 38.974 7.332 39H31.707C33.709 39 35.425 38.285 36.855 36.855C38.285 35.425 39 33.709 39 31.707V7.332C39 5.304 38.285 3.575 36.855 2.145C35.425 0.715 33.709 0 31.707 0H25.584L28.626 4.875H31.707C32.357 4.875 32.929 5.122 33.423 5.616C33.917 6.11 34.151 6.682 34.125 7.332V31.707C34.125 32.383 33.891 32.955 33.423 33.423C32.955 33.891 32.383 34.125 31.707 34.125H7.332C6.656 34.125 6.071 33.891 5.577 33.423C5.083 32.955 4.849 32.383 4.875 31.707V7.332C4.875 6.656 5.109 6.084 5.577 5.616C6.045 5.148 6.63 4.901 7.332 4.875H10.374L13.416 0H7.332C5.304 0 3.575 0.715 2.145 2.145C0.715 3.575 0 5.304 0 7.332L0 31.707ZM7.332 31.707H31.707L26.832 24.375H12.207L7.332 31.707ZM12.207 9.75H17.082V19.5H21.957V9.75H26.832L19.5 0L12.207 9.75Z" fill="url(#paint0_linear_280_938)"/>
</g>
<defs>
<linearGradient id="paint0_linear_280_938" x1="-4.00847" y1="-3.20074" x2="43.6745" y2="4.09856" gradientUnits="userSpaceOnUse">
<stop stopColor="#FC365F"/>
<stop offset="0.984375" stopColor="#A00BFB"/>
</linearGradient>
<clipPath id="clip0_280_938">
<rect width="39" height="39" fill="white"/>
</clipPath>
</defs>
</svg>
