<svg width="209" height="127" viewBox="0 0 209 127" fill="none" xmlns="http://www.w3.org/2000/svg">
<g clip-path="url(#clip0_57_1828)">
<path d="M205.294 127C207.341 127 209 125.349 209 123.312C209 121.275 207.341 119.624 205.294 119.624C203.248 119.624 201.588 121.275 201.588 123.312C201.588 125.349 203.248 127 205.294 127Z" fill="url(#paint0_linear_57_1828)"/>
<path d="M171.689 127C173.736 127 175.395 125.349 175.395 123.312C175.395 121.275 173.736 119.624 171.689 119.624C169.642 119.624 167.983 121.275 167.983 123.312C167.983 125.349 169.642 127 171.689 127Z" fill="url(#paint1_linear_57_1828)"/>
<path d="M138.098 127C138.834 127.003 139.555 126.788 140.168 126.383C140.782 125.978 141.261 125.401 141.545 124.724C141.828 124.048 141.904 123.303 141.762 122.584C141.62 121.865 141.267 121.204 140.747 120.685C140.228 120.166 139.565 119.812 138.843 119.668C138.121 119.524 137.372 119.597 136.692 119.876C136.011 120.156 135.429 120.631 135.02 121.24C134.611 121.849 134.392 122.565 134.392 123.298C134.392 124.277 134.782 125.217 135.477 125.911C136.171 126.605 137.114 126.996 138.098 127Z" fill="url(#paint2_linear_57_1828)"/>
<path d="M104.507 127C105.243 127 105.962 126.783 106.574 126.376C107.185 125.969 107.662 125.391 107.944 124.715C108.225 124.038 108.299 123.294 108.155 122.576C108.012 121.858 107.657 121.198 107.137 120.68C106.617 120.163 105.954 119.81 105.233 119.667C104.511 119.524 103.763 119.598 103.083 119.878C102.404 120.158 101.823 120.632 101.414 121.241C101.005 121.85 100.787 122.566 100.787 123.298C100.787 123.784 100.883 124.266 101.07 124.715C101.257 125.164 101.531 125.572 101.877 125.916C102.222 126.259 102.632 126.532 103.083 126.718C103.535 126.904 104.019 127 104.507 127Z" fill="url(#paint3_linear_57_1828)"/>
<path d="M70.9019 127C72.9485 127 74.6077 125.349 74.6077 123.312C74.6077 121.275 72.9485 119.624 70.9019 119.624C68.8552 119.624 67.196 121.275 67.196 123.312C67.196 125.349 68.8552 127 70.9019 127Z" fill="url(#paint4_linear_57_1828)"/>
<path d="M38.7292 126.561C40.6221 125.786 41.5257 123.631 40.7475 121.747C39.9692 119.863 37.8038 118.964 35.9109 119.739C34.0179 120.513 33.1143 122.668 33.8926 124.552C34.6708 126.436 36.8363 127.335 38.7292 126.561Z" fill="url(#paint5_linear_57_1828)"/>
<path d="M3.71989 119.666C2.98298 119.663 2.26194 119.878 1.64806 120.284C1.03419 120.69 0.555214 121.268 0.271928 121.945C-0.0113575 122.622 -0.0862031 123.367 0.0568807 124.087C0.199965 124.806 0.554497 125.467 1.07557 125.985C1.59665 126.504 2.2607 126.857 2.98358 126.999C3.70647 127.142 4.45566 127.067 5.13594 126.785C5.81623 126.503 6.39707 126.027 6.80475 125.416C7.21242 124.805 7.42851 124.087 7.42573 123.354C7.42203 122.377 7.03045 121.441 6.33627 120.75C5.64209 120.059 4.70159 119.669 3.71989 119.666Z" fill="url(#paint6_linear_57_1828)"/>
<path d="M205.294 97.0904C207.341 97.0904 209 95.4392 209 93.4024C209 91.3655 207.341 89.7144 205.294 89.7144C203.248 89.7144 201.588 91.3655 201.588 93.4024C201.588 95.4392 203.248 97.0904 205.294 97.0904Z" fill="url(#paint7_linear_57_1828)"/>
<path d="M171.689 97.0904C173.736 97.0904 175.395 95.4392 175.395 93.4024C175.395 91.3655 173.736 89.7144 171.689 89.7144C169.643 89.7144 167.983 91.3655 167.983 93.4024C167.983 95.4392 169.643 97.0904 171.689 97.0904Z" fill="url(#paint8_linear_57_1828)"/>
<path d="M138.098 97.0906C138.835 97.0933 139.556 96.8782 140.17 96.4725C140.784 96.0668 141.263 95.4887 141.546 94.8117C141.829 94.1347 141.904 93.3891 141.761 92.6697C141.618 91.9503 141.264 91.2894 140.742 90.7708C140.221 90.2522 139.557 89.8994 138.834 89.757C138.111 89.6146 137.362 89.6891 136.682 89.971C136.002 90.2529 135.421 90.7296 135.013 91.3405C134.606 91.9515 134.389 92.6691 134.392 93.4025C134.396 94.3795 134.788 95.3154 135.482 96.0062C136.176 96.6971 137.116 97.0869 138.098 97.0906Z" fill="url(#paint9_linear_57_1828)"/>
<path d="M104.507 97.0906C105.243 97.0906 105.963 96.8731 106.575 96.4657C107.187 96.0582 107.664 95.4792 107.945 94.802C108.226 94.1247 108.299 93.3796 108.154 92.6611C108.01 91.9426 107.654 91.283 107.132 90.7658C106.611 90.2487 105.946 89.8972 105.224 89.756C104.501 89.6147 103.753 89.69 103.074 89.9724C102.394 90.2547 101.814 90.7314 101.407 91.342C101 91.9526 100.784 92.6697 100.787 93.4025C100.787 93.888 100.883 94.3687 101.071 94.817C101.258 95.2654 101.532 95.6726 101.877 96.0153C102.223 96.3579 102.633 96.6293 103.084 96.8138C103.536 96.9983 104.019 97.0924 104.507 97.0906Z" fill="url(#paint10_linear_57_1828)"/>
<path d="M70.9019 97.0904C72.9485 97.0904 74.6077 95.4392 74.6077 93.4024C74.6077 91.3655 72.9485 89.7144 70.9019 89.7144C68.8552 89.7144 67.196 91.3655 67.196 93.4024C67.196 95.4392 68.8552 97.0904 70.9019 97.0904Z" fill="url(#paint11_linear_57_1828)"/>
<path d="M38.7324 96.6618C40.6253 95.8872 41.529 93.7322 40.7507 91.8483C39.9724 89.9645 37.8069 89.0652 35.914 89.8398C34.0211 90.6143 33.1175 92.7694 33.8958 94.6532C34.674 96.537 36.8395 97.4363 38.7324 96.6618Z" fill="url(#paint12_linear_57_1828)"/>
<path d="M3.71992 97.0906C4.45624 97.0906 5.17595 96.8731 5.78798 96.4657C6.4 96.0582 6.87681 95.4792 7.15794 94.802C7.43907 94.1247 7.51201 93.3796 7.36733 92.6611C7.22266 91.9426 6.86685 91.283 6.34522 90.7658C5.82358 90.2487 5.15954 89.8972 4.43703 89.756C3.71453 89.6147 2.96619 89.69 2.28673 89.9724C1.60726 90.2547 1.0272 90.7314 0.620152 91.342C0.213101 91.9526 -0.00275206 92.6697 2.64911e-05 93.4025C2.29913e-05 93.888 0.0963316 94.3687 0.283444 94.817C0.470556 95.2654 0.744909 95.6726 1.09051 96.0153C1.43612 96.3579 1.84629 96.6293 2.29752 96.8138C2.74876 96.9983 3.23209 97.0924 3.71992 97.0906Z" fill="url(#paint13_linear_57_1828)"/>
<path d="M205.294 67.181C207.341 67.181 209 65.5298 209 63.493C209 61.4561 207.341 59.8049 205.294 59.8049C203.248 59.8049 201.588 61.4561 201.588 63.493C201.588 65.5298 203.248 67.181 205.294 67.181Z" fill="url(#paint14_linear_57_1828)"/>
<path d="M171.689 67.181C173.736 67.181 175.395 65.5298 175.395 63.493C175.395 61.4561 173.736 59.8049 171.689 59.8049C169.643 59.8049 167.983 61.4561 167.983 63.493C167.983 65.5298 169.643 67.181 171.689 67.181Z" fill="url(#paint15_linear_57_1828)"/>
<path d="M138.098 67.1951C138.834 67.1978 139.555 66.9831 140.168 66.578C140.782 66.1729 141.261 65.5956 141.545 64.9194C141.828 64.2432 141.904 63.4985 141.762 62.7794C141.62 62.0604 141.267 61.3994 140.747 60.8803C140.228 60.3612 139.565 60.0072 138.843 59.8632C138.121 59.7192 137.372 59.7917 136.692 60.0715C136.011 60.3513 135.429 60.8258 135.02 61.4349C134.611 62.044 134.392 62.7602 134.392 63.493C134.392 64.4724 134.782 65.4119 135.477 66.1058C136.171 66.7996 137.114 67.1914 138.098 67.1951Z" fill="url(#paint16_linear_57_1828)"/>
<path d="M104.507 67.195C105.243 67.195 105.962 66.9779 106.574 66.5712C107.185 66.1644 107.662 65.5862 107.944 64.9098C108.225 64.2333 108.299 63.4889 108.155 62.7708C108.012 62.0527 107.657 61.393 107.137 60.8753C106.617 60.3575 105.954 60.005 105.233 59.8621C104.511 59.7193 103.763 59.7926 103.083 60.0728C102.404 60.353 101.823 60.8275 101.414 61.4363C101.005 62.0451 100.787 62.7608 100.787 63.493C100.787 63.9791 100.883 64.4606 101.07 64.9098C101.257 65.3589 101.531 65.767 101.877 66.1107C102.222 66.4545 102.632 66.7272 103.083 66.9132C103.535 67.0993 104.019 67.195 104.507 67.195Z" fill="url(#paint17_linear_57_1828)"/>
<path d="M70.9019 67.181C72.9485 67.181 74.6077 65.5298 74.6077 63.493C74.6077 61.4561 72.9485 59.8049 70.9019 59.8049C68.8552 59.8049 67.196 61.4561 67.196 63.493C67.196 65.5298 68.8552 67.181 70.9019 67.181Z" fill="url(#paint18_linear_57_1828)"/>
<path d="M38.7304 66.764C40.6234 65.9894 41.527 63.8344 40.7487 61.9505C39.9704 60.0667 37.805 59.1675 35.9121 59.942C34.0192 60.7166 33.1155 62.8716 33.8938 64.7554C34.6721 66.6393 36.8375 67.5385 38.7304 66.764Z" fill="url(#paint19_linear_57_1828)"/>
<path d="M3.71989 67.195C4.45561 67.195 5.17485 66.9779 5.78658 66.5712C6.39831 66.1644 6.875 65.5862 7.15654 64.9098C7.43809 64.2333 7.51187 63.4889 7.36834 62.7708C7.2248 62.0527 6.87056 61.393 6.35033 60.8753C5.8301 60.3575 5.16716 60.005 4.44557 59.8621C3.72399 59.7193 2.97618 59.7926 2.29647 60.0728C1.61675 60.353 1.03572 60.8275 0.626979 61.4363C0.218236 62.0451 0 62.7608 0 63.493C0 64.4748 0.392022 65.4165 1.08963 66.1107C1.78724 66.805 2.73333 67.195 3.71989 67.195Z" fill="url(#paint20_linear_57_1828)"/>
<path d="M205.294 37.2855C207.341 37.2855 209 35.6343 209 33.5975C209 31.5606 207.341 29.9094 205.294 29.9094C203.248 29.9094 201.588 31.5606 201.588 33.5975C201.588 35.6343 203.248 37.2855 205.294 37.2855Z" fill="url(#paint21_linear_57_1828)"/>
<path d="M171.689 37.2855C173.736 37.2855 175.395 35.6343 175.395 33.5975C175.395 31.5606 173.736 29.9094 171.689 29.9094C169.643 29.9094 167.983 31.5606 167.983 33.5975C167.983 35.6343 169.643 37.2855 171.689 37.2855Z" fill="url(#paint22_linear_57_1828)"/>
<path d="M138.098 37.2436C138.835 37.2464 139.556 37.0313 140.17 36.6255C140.784 36.2198 141.263 35.6418 141.546 34.9648C141.829 34.2877 141.904 33.5422 141.761 32.8228C141.618 32.1034 141.264 31.4425 140.742 30.9239C140.221 30.4054 139.557 30.0525 138.834 29.9101C138.111 29.7677 137.362 29.8421 136.682 30.1241C136.002 30.406 135.421 30.8827 135.013 31.4936C134.606 32.1045 134.389 32.8222 134.392 33.5556C134.396 34.5326 134.788 35.4686 135.482 36.1594C136.176 36.8502 137.116 37.24 138.098 37.2436Z" fill="url(#paint23_linear_57_1828)"/>
<path d="M104.507 37.2436C105.243 37.2436 105.963 37.0261 106.575 36.6187C107.187 36.2113 107.664 35.6324 107.945 34.9551C108.226 34.2778 108.299 33.5328 108.154 32.8143C108.01 32.0958 107.654 31.4362 107.132 30.919C106.611 30.4018 105.946 30.0503 105.224 29.909C104.501 29.7678 103.753 29.8431 103.074 30.1254C102.394 30.4078 101.814 30.8844 101.407 31.4951C101 32.1057 100.784 32.8228 100.787 33.5556C100.787 34.0411 100.883 34.5218 101.071 34.9702C101.258 35.4186 101.532 35.8257 101.877 36.1684C102.223 36.511 102.633 36.7824 103.084 36.967C103.536 37.1515 104.019 37.2455 104.507 37.2436Z" fill="url(#paint24_linear_57_1828)"/>
<path d="M70.9019 37.2855C72.9485 37.2855 74.6077 35.6343 74.6077 33.5975C74.6077 31.5606 72.9485 29.9094 70.9019 29.9094C68.8552 29.9094 67.196 31.5606 67.196 33.5975C67.196 35.6343 68.8552 37.2855 70.9019 37.2855Z" fill="url(#paint25_linear_57_1828)"/>
<path d="M38.7339 36.8654C40.6268 36.0908 41.5304 33.9358 40.7521 32.0519C39.9739 30.1681 37.8084 29.2688 35.9155 30.0434C34.0226 30.8179 33.119 32.973 33.8972 34.8568C34.6755 36.7406 36.841 37.6399 38.7339 36.8654Z" fill="url(#paint26_linear_57_1828)"/>
<path d="M3.71992 37.2436C4.45624 37.2436 5.17595 37.0261 5.78798 36.6187C6.4 36.2113 6.87681 35.6324 7.15794 34.9551C7.43907 34.2778 7.51201 33.5328 7.36733 32.8143C7.22266 32.0958 6.86685 31.4362 6.34522 30.919C5.82358 30.4018 5.15954 30.0503 4.43703 29.909C3.71453 29.7678 2.96619 29.8431 2.28673 30.1254C1.60726 30.4078 1.0272 30.8844 0.620152 31.4951C0.213101 32.1057 -0.00275206 32.8228 2.64911e-05 33.5556C2.29913e-05 34.0411 0.0963316 34.5218 0.283444 34.9702C0.470556 35.4186 0.744909 35.8257 1.09051 36.1684C1.43612 36.511 1.84629 36.7824 2.29752 36.967C2.74876 37.1515 3.23209 37.2455 3.71992 37.2436Z" fill="url(#paint27_linear_57_1828)"/>
<path d="M205.294 7.37609C207.341 7.37609 209 5.72489 209 3.68804C209 1.65119 207.341 0 205.294 0C203.248 0 201.588 1.65119 201.588 3.68804C201.588 5.72489 203.248 7.37609 205.294 7.37609Z" fill="url(#paint28_linear_57_1828)"/>
<path d="M171.689 7.37609C173.736 7.37609 175.395 5.72489 175.395 3.68804C175.395 1.65119 173.736 0 171.689 0C169.643 0 167.983 1.65119 167.983 3.68804C167.983 5.72489 169.643 7.37609 171.689 7.37609Z" fill="url(#paint29_linear_57_1828)"/>
<path d="M138.098 7.39012C138.834 7.39288 139.555 7.17815 140.168 6.77305C140.782 6.36796 141.261 5.79068 141.545 5.11447C141.828 4.43827 141.904 3.69353 141.762 2.97449C141.62 2.25545 141.267 1.59451 140.747 1.07537C140.228 0.55624 139.565 0.202224 138.843 0.0582454C138.121 -0.0857335 137.372 -0.013233 136.692 0.266548C136.011 0.54633 135.429 1.02085 135.02 1.62994C134.611 2.23903 134.392 2.95529 134.392 3.68807C134.392 4.66749 134.782 5.60699 135.477 6.30086C136.171 6.99472 137.114 7.38642 138.098 7.39012Z" fill="url(#paint30_linear_57_1828)"/>
<path d="M104.507 7.39011C105.243 7.39011 105.962 7.17301 106.574 6.76622C107.185 6.35944 107.662 5.78128 107.944 5.10483C108.225 4.42838 108.299 3.68399 108.155 2.96587C108.012 2.24775 107.657 1.58807 107.137 1.07033C106.617 0.552598 105.954 0.200055 105.233 0.0572124C104.511 -0.0856306 103.763 -0.0122937 103.083 0.267903C102.404 0.548099 101.823 1.02259 101.414 1.63138C101.005 2.24017 100.787 2.95587 100.787 3.68806C100.787 4.17422 100.883 4.65568 101.07 5.10483C101.257 5.55398 101.531 5.96203 101.877 6.30579C102.222 6.64956 102.632 6.92227 103.083 7.10831C103.535 7.29435 104.019 7.39011 104.507 7.39011Z" fill="url(#paint31_linear_57_1828)"/>
<path d="M70.9019 7.37609C72.9485 7.37609 74.6077 5.72489 74.6077 3.68804C74.6077 1.65119 72.9485 0 70.9019 0C68.8552 0 67.196 1.65119 67.196 3.68804C67.196 5.72489 68.8552 7.37609 70.9019 7.37609Z" fill="url(#paint32_linear_57_1828)"/>
<path d="M38.7317 6.95368C40.6246 6.17914 41.5282 4.02408 40.7499 2.14024C39.9716 0.256401 37.8062 -0.642795 35.9133 0.131744C34.0204 0.906284 33.1167 3.06127 33.895 4.94511C34.6733 6.82895 36.8387 7.72822 38.7317 6.95368Z" fill="url(#paint33_linear_57_1828)"/>
<path d="M3.71989 7.39011C4.45561 7.39011 5.17485 7.17301 5.78658 6.76622C6.39831 6.35944 6.875 5.78128 7.15654 5.10483C7.43809 4.42838 7.51187 3.68399 7.36834 2.96587C7.2248 2.24775 6.87056 1.58807 6.35033 1.07033C5.8301 0.552598 5.16716 0.200055 4.44557 0.0572124C3.72399 -0.0856306 2.97618 -0.0122937 2.29647 0.267903C1.61675 0.548099 1.03572 1.02259 0.626979 1.63138C0.218236 2.24017 0 2.95587 0 3.68806C0 4.6699 0.392022 5.61153 1.08963 6.30579C1.78724 7.00005 2.73333 7.39011 3.71989 7.39011Z" fill="url(#paint34_linear_57_1828)"/>
</g>
<defs>
<linearGradient id="paint0_linear_57_1828" x1="200.827" y1="119.018" x2="209.886" y2="120.412" gradientUnits="userSpaceOnUse">
<stop stop-color="#FC365F"/>
<stop offset="0.984375" stop-color="#A00BFB"/>
</linearGradient>
<linearGradient id="paint1_linear_57_1828" x1="167.221" y1="119.018" x2="176.281" y2="120.412" gradientUnits="userSpaceOnUse">
<stop stop-color="#FC365F"/>
<stop offset="0.984375" stop-color="#A00BFB"/>
</linearGradient>
<linearGradient id="paint2_linear_57_1828" x1="133.627" y1="118.988" x2="142.722" y2="120.387" gradientUnits="userSpaceOnUse">
<stop stop-color="#FC365F"/>
<stop offset="0.984375" stop-color="#A00BFB"/>
</linearGradient>
<linearGradient id="paint3_linear_57_1828" x1="100.022" y1="118.988" x2="109.116" y2="120.387" gradientUnits="userSpaceOnUse">
<stop stop-color="#FC365F"/>
<stop offset="0.984375" stop-color="#A00BFB"/>
</linearGradient>
<linearGradient id="paint4_linear_57_1828" x1="66.4343" y1="119.018" x2="75.494" y2="120.412" gradientUnits="userSpaceOnUse">
<stop stop-color="#FC365F"/>
<stop offset="0.984375" stop-color="#A00BFB"/>
</linearGradient>
<linearGradient id="paint5_linear_57_1828" x1="31.5475" y1="120.87" x2="40.4513" y2="118.697" gradientUnits="userSpaceOnUse">
<stop stop-color="#FC365F"/>
<stop offset="0.984375" stop-color="#A00BFB"/>
</linearGradient>
<linearGradient id="paint6_linear_57_1828" x1="-0.778575" y1="119.058" x2="8.31545" y2="120.457" gradientUnits="userSpaceOnUse">
<stop stop-color="#FC365F"/>
<stop offset="0.984375" stop-color="#A00BFB"/>
</linearGradient>
<linearGradient id="paint7_linear_57_1828" x1="200.827" y1="89.109" x2="209.886" y2="90.5026" gradientUnits="userSpaceOnUse">
<stop stop-color="#FC365F"/>
<stop offset="0.984375" stop-color="#A00BFB"/>
</linearGradient>
<linearGradient id="paint8_linear_57_1828" x1="167.222" y1="89.109" x2="176.281" y2="90.5026" gradientUnits="userSpaceOnUse">
<stop stop-color="#FC365F"/>
<stop offset="0.984375" stop-color="#A00BFB"/>
</linearGradient>
<linearGradient id="paint9_linear_57_1828" x1="133.627" y1="89.0789" x2="142.722" y2="90.4777" gradientUnits="userSpaceOnUse">
<stop stop-color="#FC365F"/>
<stop offset="0.984375" stop-color="#A00BFB"/>
</linearGradient>
<linearGradient id="paint10_linear_57_1828" x1="100.022" y1="89.0789" x2="109.117" y2="90.4777" gradientUnits="userSpaceOnUse">
<stop stop-color="#FC365F"/>
<stop offset="0.984375" stop-color="#A00BFB"/>
</linearGradient>
<linearGradient id="paint11_linear_57_1828" x1="66.4343" y1="89.109" x2="75.494" y2="90.5026" gradientUnits="userSpaceOnUse">
<stop stop-color="#FC365F"/>
<stop offset="0.984375" stop-color="#A00BFB"/>
</linearGradient>
<linearGradient id="paint12_linear_57_1828" x1="31.5507" y1="90.9706" x2="40.4545" y2="88.7984" gradientUnits="userSpaceOnUse">
<stop stop-color="#FC365F"/>
<stop offset="0.984375" stop-color="#A00BFB"/>
</linearGradient>
<linearGradient id="paint13_linear_57_1828" x1="-0.764674" y1="89.0789" x2="8.32953" y2="90.4777" gradientUnits="userSpaceOnUse">
<stop stop-color="#FC365F"/>
<stop offset="0.984375" stop-color="#A00BFB"/>
</linearGradient>
<linearGradient id="paint14_linear_57_1828" x1="200.827" y1="59.1996" x2="209.886" y2="60.5931" gradientUnits="userSpaceOnUse">
<stop stop-color="#FC365F"/>
<stop offset="0.984375" stop-color="#A00BFB"/>
</linearGradient>
<linearGradient id="paint15_linear_57_1828" x1="167.222" y1="59.1996" x2="176.281" y2="60.5931" gradientUnits="userSpaceOnUse">
<stop stop-color="#FC365F"/>
<stop offset="0.984375" stop-color="#A00BFB"/>
</linearGradient>
<linearGradient id="paint16_linear_57_1828" x1="133.627" y1="59.1834" x2="142.722" y2="60.5822" gradientUnits="userSpaceOnUse">
<stop stop-color="#FC365F"/>
<stop offset="0.984375" stop-color="#A00BFB"/>
</linearGradient>
<linearGradient id="paint17_linear_57_1828" x1="100.022" y1="59.1834" x2="109.116" y2="60.5822" gradientUnits="userSpaceOnUse">
<stop stop-color="#FC365F"/>
<stop offset="0.984375" stop-color="#A00BFB"/>
</linearGradient>
<linearGradient id="paint18_linear_57_1828" x1="66.4343" y1="59.1996" x2="75.494" y2="60.5931" gradientUnits="userSpaceOnUse">
<stop stop-color="#FC365F"/>
<stop offset="0.984375" stop-color="#A00BFB"/>
</linearGradient>
<linearGradient id="paint19_linear_57_1828" x1="31.5488" y1="61.0729" x2="40.4525" y2="58.9007" gradientUnits="userSpaceOnUse">
<stop stop-color="#FC365F"/>
<stop offset="0.984375" stop-color="#A00BFB"/>
</linearGradient>
<linearGradient id="paint20_linear_57_1828" x1="-0.764671" y1="59.1834" x2="8.32949" y2="60.5822" gradientUnits="userSpaceOnUse">
<stop stop-color="#FC365F"/>
<stop offset="0.984375" stop-color="#A00BFB"/>
</linearGradient>
<linearGradient id="paint21_linear_57_1828" x1="200.827" y1="29.3041" x2="209.886" y2="30.6976" gradientUnits="userSpaceOnUse">
<stop stop-color="#FC365F"/>
<stop offset="0.984375" stop-color="#A00BFB"/>
</linearGradient>
<linearGradient id="paint22_linear_57_1828" x1="167.222" y1="29.3041" x2="176.281" y2="30.6976" gradientUnits="userSpaceOnUse">
<stop stop-color="#FC365F"/>
<stop offset="0.984375" stop-color="#A00BFB"/>
</linearGradient>
<linearGradient id="paint23_linear_57_1828" x1="133.627" y1="29.2319" x2="142.722" y2="30.6308" gradientUnits="userSpaceOnUse">
<stop stop-color="#FC365F"/>
<stop offset="0.984375" stop-color="#A00BFB"/>
</linearGradient>
<linearGradient id="paint24_linear_57_1828" x1="100.022" y1="29.2319" x2="109.117" y2="30.6308" gradientUnits="userSpaceOnUse">
<stop stop-color="#FC365F"/>
<stop offset="0.984375" stop-color="#A00BFB"/>
</linearGradient>
<linearGradient id="paint25_linear_57_1828" x1="66.4343" y1="29.3041" x2="75.494" y2="30.6976" gradientUnits="userSpaceOnUse">
<stop stop-color="#FC365F"/>
<stop offset="0.984375" stop-color="#A00BFB"/>
</linearGradient>
<linearGradient id="paint26_linear_57_1828" x1="31.5522" y1="31.1742" x2="40.456" y2="29.002" gradientUnits="userSpaceOnUse">
<stop stop-color="#FC365F"/>
<stop offset="0.984375" stop-color="#A00BFB"/>
</linearGradient>
<linearGradient id="paint27_linear_57_1828" x1="-0.764674" y1="29.2319" x2="8.32953" y2="30.6308" gradientUnits="userSpaceOnUse">
<stop stop-color="#FC365F"/>
<stop offset="0.984375" stop-color="#A00BFB"/>
</linearGradient>
<linearGradient id="paint28_linear_57_1828" x1="200.827" y1="-0.605358" x2="209.886" y2="0.788197" gradientUnits="userSpaceOnUse">
<stop stop-color="#FC365F"/>
<stop offset="0.984375" stop-color="#A00BFB"/>
</linearGradient>
<linearGradient id="paint29_linear_57_1828" x1="167.222" y1="-0.605358" x2="176.281" y2="0.788197" gradientUnits="userSpaceOnUse">
<stop stop-color="#FC365F"/>
<stop offset="0.984375" stop-color="#A00BFB"/>
</linearGradient>
<linearGradient id="paint30_linear_57_1828" x1="133.627" y1="-0.62157" x2="142.722" y2="0.777294" gradientUnits="userSpaceOnUse">
<stop stop-color="#FC365F"/>
<stop offset="0.984375" stop-color="#A00BFB"/>
</linearGradient>
<linearGradient id="paint31_linear_57_1828" x1="100.022" y1="-0.621567" x2="109.116" y2="0.777243" gradientUnits="userSpaceOnUse">
<stop stop-color="#FC365F"/>
<stop offset="0.984375" stop-color="#A00BFB"/>
</linearGradient>
<linearGradient id="paint32_linear_57_1828" x1="66.4343" y1="-0.605358" x2="75.494" y2="0.788199" gradientUnits="userSpaceOnUse">
<stop stop-color="#FC365F"/>
<stop offset="0.984375" stop-color="#A00BFB"/>
</linearGradient>
<linearGradient id="paint33_linear_57_1828" x1="31.55" y1="1.26259" x2="40.4538" y2="-0.909556" gradientUnits="userSpaceOnUse">
<stop stop-color="#FC365F"/>
<stop offset="0.984375" stop-color="#A00BFB"/>
</linearGradient>
<linearGradient id="paint34_linear_57_1828" x1="-0.764671" y1="-0.621567" x2="8.32949" y2="0.77729" gradientUnits="userSpaceOnUse">
<stop stop-color="#FC365F"/>
<stop offset="0.984375" stop-color="#A00BFB"/>
</linearGradient>
<clipPath id="clip0_57_1828">
<rect width="209" height="127" fill="white"/>
</clipPath>
</defs>
</svg>
