<svg width="24" height="22" viewBox="0 0 24 22" fill="none" xmlns="http://www.w3.org/2000/svg">
<path d="M9.93091 19.8681C9.93091 20.1956 9.83384 20.5157 9.65197 20.788C9.47009 21.0603 9.21159 21.2725 8.90916 21.3978C8.60672 21.5231 8.27392 21.5559 7.95285 21.492C7.63178 21.4281 7.33687 21.2704 7.10539 21.0389C6.87391 20.8073 6.71627 20.5123 6.65241 20.1911C6.58854 19.87 6.62132 19.5371 6.7466 19.2345C6.87187 18.932 7.08402 18.6734 7.3562 18.4915C7.62839 18.3096 7.9484 18.2125 8.27576 18.2125C8.71473 18.2125 9.13572 18.3869 9.44613 18.6974C9.75653 19.0079 9.93091 19.429 9.93091 19.8681ZM19.0342 18.2125C18.7069 18.2125 18.3869 18.3096 18.1147 18.4915C17.8425 18.6734 17.6304 18.932 17.5051 19.2345C17.3798 19.5371 17.347 19.87 17.4109 20.1911C17.4748 20.5123 17.6324 20.8073 17.8639 21.0389C18.0954 21.2704 18.3903 21.4281 18.7113 21.492C19.0324 21.5559 19.3652 21.5231 19.6676 21.3978C19.9701 21.2725 20.2286 21.0603 20.4104 20.788C20.5923 20.5157 20.6894 20.1956 20.6894 19.8681C20.6894 19.429 20.515 19.0079 20.2046 18.6974C19.8942 18.3869 19.4732 18.2125 19.0342 18.2125ZM23.9635 5.21021L21.0121 14.8038C20.8576 15.3124 20.5432 15.7576 20.1158 16.0733C19.6883 16.3891 19.1705 16.5586 18.6391 16.5568H8.69679C8.1578 16.5548 7.63397 16.3781 7.20374 16.0534C6.77352 15.7286 6.46004 15.2731 6.31026 14.7552L2.56755 1.65568H0.827576C0.608089 1.65568 0.397592 1.56846 0.242391 1.41321C0.0871908 1.25796 0 1.0474 0 0.827839C0 0.608282 0.0871908 0.397718 0.242391 0.242468C0.397592 0.0872184 0.608089 0 0.827576 0H2.56755C2.92694 0.00119255 3.27627 0.118783 3.56327 0.335169C3.85026 0.551555 4.05948 0.855099 4.1596 1.20037L4.99856 4.13919H23.1721C23.3016 4.13915 23.4293 4.1695 23.545 4.22782C23.6606 4.28614 23.761 4.37079 23.8379 4.47497C23.9149 4.57915 23.9664 4.69995 23.9882 4.82765C24.01 4.95534 24.0015 5.08638 23.9635 5.21021ZM22.0518 5.79487H5.47131L7.90128 14.3009C7.95072 14.4738 8.05509 14.6259 8.19862 14.7342C8.34214 14.8425 8.51701 14.9011 8.69679 14.9011H18.6391C18.8162 14.9012 18.9886 14.8444 19.131 14.7392C19.2735 14.6339 19.3784 14.4858 19.4304 14.3164L22.0518 5.79487Z" fill="white"/>
</svg>
