<svg width="180" height="181" viewBox="0 0 180 181" fill="none" xmlns="http://www.w3.org/2000/svg">
<mask id="mask0_57_1807" style="mask-type:alpha" maskUnits="userSpaceOnUse" x="0" y="0" width="129" height="129">
<circle cx="64.5" cy="64.5" r="63.6103" fill="#C4C4C4" stroke="#F8BB54" stroke-width="1.77931"/>
</mask>
<g mask="url(#mask0_57_1807)">
<path d="M-52.3038 37.9539C-52.3038 37.9539 -10.3946 30.1474 0.418543 2.82513C10.7598 -23.3664 53.3587 -30.4065 53.3587 -30.4065" stroke="url(#paint0_linear_57_1807)" stroke-width="2" stroke-miterlimit="10"/>
<path d="M-52.3038 51.0858C-52.3038 51.0858 -0.887728 42.0758 12.3564 9.09943C24.9836 -22.3814 77.1979 -30.4065 77.1979 -30.4065" stroke="url(#paint1_linear_57_1807)" stroke-width="2" stroke-miterlimit="10"/>
<path d="M-52.3038 64.2547C-52.3038 64.2547 8.58271 54.0043 24.2579 15.4467C39.2074 -21.4328 101.037 -30.4065 101.037 -30.4065" stroke="url(#paint2_linear_57_1807)" stroke-width="2" stroke-miterlimit="10"/>
<path d="M-52.3038 77.3869C-52.3038 77.3869 18.0894 65.9328 36.1957 21.721C53.4312 -20.4479 124.877 -30.4065 124.877 -30.4065" stroke="url(#paint3_linear_57_1807)" stroke-width="2" stroke-miterlimit="10"/>
<path d="M-52.3038 90.5191C-52.3038 90.5191 27.5961 77.8612 48.1336 28.0317C67.6549 -19.463 148.68 -30.4065 148.68 -30.4065" stroke="url(#paint4_linear_57_1807)" stroke-width="2" stroke-miterlimit="10"/>
<path d="M-52.3038 103.688C-52.3038 103.688 37.0666 89.826 60.0351 34.3423C81.915 -18.5147 172.519 -30.4065 172.519 -30.4065" stroke="url(#paint5_linear_57_1807)" stroke-width="2" stroke-miterlimit="10"/>
<path d="M-52.3038 116.82C-52.3038 116.82 46.5733 101.718 71.973 40.6532C96.1389 -17.5297 196.358 -30.4065 196.358 -30.4065" stroke="url(#paint6_linear_57_1807)" stroke-width="2" stroke-miterlimit="10"/>
<path d="M-52.3038 129.952C-52.3038 129.952 56.0801 113.646 83.8744 46.9275C110.363 -16.5448 220.198 -30.4065 220.198 -30.4065" stroke="url(#paint7_linear_57_1807)" stroke-width="2" stroke-miterlimit="10"/>
<path d="M-52.3038 143.121C-52.3038 143.121 65.5503 125.611 95.8123 53.2746C124.587 -15.5965 244.001 -30.4065 244.001 -30.4065" stroke="url(#paint8_linear_57_1807)" stroke-width="2" stroke-miterlimit="10"/>
<path d="M-52.3038 156.252C-52.3038 156.252 75.0572 137.54 107.714 59.5855C138.81 -14.6115 267.84 -30.4065 267.84 -30.4065" stroke="url(#paint9_linear_57_1807)" stroke-width="2" stroke-miterlimit="10"/>
<path d="M-52.3038 169.421C-52.3038 169.421 84.5639 149.468 119.652 65.8961C153.034 -13.6266 291.68 -30.4065 291.68 -30.4065" stroke="url(#paint10_linear_57_1807)" stroke-width="2" stroke-miterlimit="10"/>
<path d="M-52.3038 182.554C-52.3038 182.554 94.0344 161.397 131.553 72.207C167.258 -12.678 315.519 -30.4065 315.519 -30.4065" stroke="url(#paint11_linear_57_1807)" stroke-width="2" stroke-miterlimit="10"/>
<path d="M-52.3038 195.685C-52.3038 195.685 103.541 173.325 143.491 78.4811C181.482 -11.6931 339.358 -30.4065 339.358 -30.4065" stroke="url(#paint12_linear_57_1807)" stroke-width="2" stroke-miterlimit="10"/>
<path d="M-52.3038 208.854C-52.3038 208.854 113.048 185.253 155.429 84.8284C195.705 -10.7082 363.162 -30.4065 363.162 -30.4065" stroke="url(#paint13_linear_57_1807)" stroke-width="2" stroke-miterlimit="10"/>
<path d="M-52.3038 221.987C-52.3038 221.987 122.518 197.182 167.33 91.1027C209.929 -9.75986 387.001 -30.4065 387.001 -30.4065" stroke="url(#paint14_linear_57_1807)" stroke-width="2" stroke-miterlimit="10"/>
<path d="M-52.3038 235.12C-52.3038 235.12 132.025 209.11 179.268 97.4133C224.153 -8.77491 410.84 -30.4065 410.84 -30.4065" stroke="url(#paint15_linear_57_1807)" stroke-width="2" stroke-miterlimit="10"/>
<path d="M-52.3038 248.289C-52.3038 248.289 141.532 221.074 191.17 103.724C238.377 -7.78999 434.68 -30.4065 434.68 -30.4065" stroke="url(#paint16_linear_57_1807)" stroke-width="2" stroke-miterlimit="10"/>
<path d="M-52.3038 261.42C-52.3038 261.42 151.002 232.967 203.108 110.035C252.601 -6.84168 458.484 -30.4065 458.484 -30.4065" stroke="url(#paint17_linear_57_1807)" stroke-width="2" stroke-miterlimit="10"/>
</g>
<defs>
<linearGradient id="paint0_linear_57_1807" x1="-63.8374" y1="-50.5484" x2="73.6182" y2="-26.4804" gradientUnits="userSpaceOnUse">
<stop stop-color="#FFBC21"/>
<stop offset="0.1344" stop-color="#FD843A"/>
<stop offset="0.2742" stop-color="#FC5554"/>
<stop offset="0.4301" stop-color="#FC365F"/>
<stop offset="0.6129" stop-color="#F02E6B"/>
<stop offset="0.817759" stop-color="#DD3578"/>
<stop offset="1" stop-color="#81399D"/>
</linearGradient>
<linearGradient id="paint1_linear_57_1807" x1="-66.4395" y1="-54.4176" x2="101.743" y2="-24.1414" gradientUnits="userSpaceOnUse">
<stop stop-color="#FFBC21"/>
<stop offset="0.1344" stop-color="#FD843A"/>
<stop offset="0.2742" stop-color="#FC5554"/>
<stop offset="0.4301" stop-color="#FC365F"/>
<stop offset="0.6129" stop-color="#F02E6B"/>
<stop offset="0.817759" stop-color="#DD3578"/>
<stop offset="1" stop-color="#81399D"/>
</linearGradient>
<linearGradient id="paint2_linear_57_1807" x1="-69.0417" y1="-58.2977" x2="129.857" y2="-21.7988" gradientUnits="userSpaceOnUse">
<stop stop-color="#FFBC21"/>
<stop offset="0.1344" stop-color="#FD843A"/>
<stop offset="0.2742" stop-color="#FC5554"/>
<stop offset="0.4301" stop-color="#FC365F"/>
<stop offset="0.6129" stop-color="#F02E6B"/>
<stop offset="0.817759" stop-color="#DD3578"/>
<stop offset="1" stop-color="#81399D"/>
</linearGradient>
<linearGradient id="paint3_linear_57_1807" x1="-71.6439" y1="-62.1671" x2="157.955" y2="-19.4151" gradientUnits="userSpaceOnUse">
<stop stop-color="#FFBC21"/>
<stop offset="0.1344" stop-color="#FD843A"/>
<stop offset="0.2742" stop-color="#FC5554"/>
<stop offset="0.4301" stop-color="#FC365F"/>
<stop offset="0.6129" stop-color="#F02E6B"/>
<stop offset="0.817759" stop-color="#DD3578"/>
<stop offset="1" stop-color="#81399D"/>
</linearGradient>
<linearGradient id="paint4_linear_57_1807" x1="-74.2421" y1="-66.0364" x2="186.006" y2="-17.0368" gradientUnits="userSpaceOnUse">
<stop stop-color="#FFBC21"/>
<stop offset="0.1344" stop-color="#FD843A"/>
<stop offset="0.2742" stop-color="#FC5554"/>
<stop offset="0.4301" stop-color="#FC365F"/>
<stop offset="0.6129" stop-color="#F02E6B"/>
<stop offset="0.817759" stop-color="#DD3578"/>
<stop offset="1" stop-color="#81399D"/>
</linearGradient>
<linearGradient id="paint5_linear_57_1807" x1="-76.8442" y1="-69.9164" x2="214.098" y2="-14.6579" gradientUnits="userSpaceOnUse">
<stop stop-color="#FFBC21"/>
<stop offset="0.1344" stop-color="#FD843A"/>
<stop offset="0.2742" stop-color="#FC5554"/>
<stop offset="0.4301" stop-color="#FC365F"/>
<stop offset="0.6129" stop-color="#F02E6B"/>
<stop offset="0.817759" stop-color="#DD3578"/>
<stop offset="1" stop-color="#81399D"/>
</linearGradient>
<linearGradient id="paint6_linear_57_1807" x1="-79.4464" y1="-73.7857" x2="242.18" y2="-12.2485" gradientUnits="userSpaceOnUse">
<stop stop-color="#FFBC21"/>
<stop offset="0.1344" stop-color="#FD843A"/>
<stop offset="0.2742" stop-color="#FC5554"/>
<stop offset="0.4301" stop-color="#FC365F"/>
<stop offset="0.6129" stop-color="#F02E6B"/>
<stop offset="0.817759" stop-color="#DD3578"/>
<stop offset="1" stop-color="#81399D"/>
</linearGradient>
<linearGradient id="paint7_linear_57_1807" x1="-82.0486" y1="-77.655" x2="270.26" y2="-9.8344" gradientUnits="userSpaceOnUse">
<stop stop-color="#FFBC21"/>
<stop offset="0.1344" stop-color="#FD843A"/>
<stop offset="0.2742" stop-color="#FC5554"/>
<stop offset="0.4301" stop-color="#FC365F"/>
<stop offset="0.6129" stop-color="#F02E6B"/>
<stop offset="0.817759" stop-color="#DD3578"/>
<stop offset="1" stop-color="#81399D"/>
</linearGradient>
<linearGradient id="paint8_linear_57_1807" x1="-84.6468" y1="-81.5351" x2="298.303" y2="-7.45964" gradientUnits="userSpaceOnUse">
<stop stop-color="#FFBC21"/>
<stop offset="0.1344" stop-color="#FD843A"/>
<stop offset="0.2742" stop-color="#FC5554"/>
<stop offset="0.4301" stop-color="#FC365F"/>
<stop offset="0.6129" stop-color="#F02E6B"/>
<stop offset="0.817759" stop-color="#DD3578"/>
<stop offset="1" stop-color="#81399D"/>
</linearGradient>
<linearGradient id="paint9_linear_57_1807" x1="-87.249" y1="-85.4041" x2="326.378" y2="-5.03879" gradientUnits="userSpaceOnUse">
<stop stop-color="#FFBC21"/>
<stop offset="0.1344" stop-color="#FD843A"/>
<stop offset="0.2742" stop-color="#FC5554"/>
<stop offset="0.4301" stop-color="#FC365F"/>
<stop offset="0.6129" stop-color="#F02E6B"/>
<stop offset="0.817759" stop-color="#DD3578"/>
<stop offset="1" stop-color="#81399D"/>
</linearGradient>
<linearGradient id="paint10_linear_57_1807" x1="-89.8511" y1="-89.2842" x2="354.458" y2="-2.64196" gradientUnits="userSpaceOnUse">
<stop stop-color="#FFBC21"/>
<stop offset="0.1344" stop-color="#FD843A"/>
<stop offset="0.2742" stop-color="#FC5554"/>
<stop offset="0.4301" stop-color="#FC365F"/>
<stop offset="0.6129" stop-color="#F02E6B"/>
<stop offset="0.817759" stop-color="#DD3578"/>
<stop offset="1" stop-color="#81399D"/>
</linearGradient>
<linearGradient id="paint11_linear_57_1807" x1="-92.4532" y1="-93.1538" x2="382.531" y2="-0.218899" gradientUnits="userSpaceOnUse">
<stop stop-color="#FFBC21"/>
<stop offset="0.1344" stop-color="#FD843A"/>
<stop offset="0.2742" stop-color="#FC5554"/>
<stop offset="0.4301" stop-color="#FC365F"/>
<stop offset="0.6129" stop-color="#F02E6B"/>
<stop offset="0.817759" stop-color="#DD3578"/>
<stop offset="1" stop-color="#81399D"/>
</linearGradient>
<linearGradient id="paint12_linear_57_1807" x1="-95.0554" y1="-97.0227" x2="410.602" y2="2.20784" gradientUnits="userSpaceOnUse">
<stop stop-color="#FFBC21"/>
<stop offset="0.1344" stop-color="#FD843A"/>
<stop offset="0.2742" stop-color="#FC5554"/>
<stop offset="0.4301" stop-color="#FC365F"/>
<stop offset="0.6129" stop-color="#F02E6B"/>
<stop offset="0.817759" stop-color="#DD3578"/>
<stop offset="1" stop-color="#81399D"/>
</linearGradient>
<linearGradient id="paint13_linear_57_1807" x1="-97.6537" y1="-100.903" x2="438.641" y2="4.59164" gradientUnits="userSpaceOnUse">
<stop stop-color="#FFBC21"/>
<stop offset="0.1344" stop-color="#FD843A"/>
<stop offset="0.2742" stop-color="#FC5554"/>
<stop offset="0.4301" stop-color="#FC365F"/>
<stop offset="0.6129" stop-color="#F02E6B"/>
<stop offset="0.817759" stop-color="#DD3578"/>
<stop offset="1" stop-color="#81399D"/>
</linearGradient>
<linearGradient id="paint14_linear_57_1807" x1="-100.256" y1="-104.772" x2="466.711" y2="7.01878" gradientUnits="userSpaceOnUse">
<stop stop-color="#FFBC21"/>
<stop offset="0.1344" stop-color="#FD843A"/>
<stop offset="0.2742" stop-color="#FC5554"/>
<stop offset="0.4301" stop-color="#FC365F"/>
<stop offset="0.6129" stop-color="#F02E6B"/>
<stop offset="0.817759" stop-color="#DD3578"/>
<stop offset="1" stop-color="#81399D"/>
</linearGradient>
<linearGradient id="paint15_linear_57_1807" x1="-102.858" y1="-108.642" x2="494.781" y2="9.44674" gradientUnits="userSpaceOnUse">
<stop stop-color="#FFBC21"/>
<stop offset="0.1344" stop-color="#FD843A"/>
<stop offset="0.2742" stop-color="#FC5554"/>
<stop offset="0.4301" stop-color="#FC365F"/>
<stop offset="0.6129" stop-color="#F02E6B"/>
<stop offset="0.817759" stop-color="#DD3578"/>
<stop offset="1" stop-color="#81399D"/>
</linearGradient>
<linearGradient id="paint16_linear_57_1807" x1="-105.46" y1="-112.522" x2="522.856" y2="11.8503" gradientUnits="userSpaceOnUse">
<stop stop-color="#FFBC21"/>
<stop offset="0.1344" stop-color="#FD843A"/>
<stop offset="0.2742" stop-color="#FC5554"/>
<stop offset="0.4301" stop-color="#FC365F"/>
<stop offset="0.6129" stop-color="#F02E6B"/>
<stop offset="0.817759" stop-color="#DD3578"/>
<stop offset="1" stop-color="#81399D"/>
</linearGradient>
<linearGradient id="paint17_linear_57_1807" x1="-108.059" y1="-116.391" x2="550.887" y2="14.2642" gradientUnits="userSpaceOnUse">
<stop stop-color="#FFBC21"/>
<stop offset="0.1344" stop-color="#FD843A"/>
<stop offset="0.2742" stop-color="#FC5554"/>
<stop offset="0.4301" stop-color="#FC365F"/>
<stop offset="0.6129" stop-color="#F02E6B"/>
<stop offset="0.817759" stop-color="#DD3578"/>
<stop offset="1" stop-color="#81399D"/>
</linearGradient>
</defs>
</svg>
