<svg viewBox="0 0 689 689" fill="none" xmlns="http://www.w3.org/2000/svg">
<path d="M588.692 583.008L588.26 583.484C588.247 583.497 588.228 583.497 588.216 583.484C588.203 583.472 588.203 583.453 588.216 583.44L588.692 583.008Z" fill="url(#paint0_linear_48_637)"/>
<path d="M574.762 597.395L573.829 598.29C573.447 598.654 572.846 598.641 572.482 598.259C572.119 597.877 572.132 597.276 572.514 596.912C572.532 596.894 572.551 596.881 572.564 596.869L572.57 596.862L573.566 596.048C573.948 595.735 574.518 595.785 574.837 596.173C575.138 596.537 575.094 597.069 574.762 597.395Z" fill="url(#paint1_linear_48_637)"/>
<path d="M559.398 611.287L558.402 612.12C557.676 612.727 556.592 612.633 555.978 611.907C555.371 611.18 555.465 610.097 556.191 609.483C556.216 609.458 556.248 609.439 556.273 609.42L556.279 609.414L557.312 608.656L557.319 608.65C558.064 608.099 559.116 608.262 559.667 609.007C560.2 609.721 560.068 610.723 559.398 611.287Z" fill="url(#paint2_linear_48_637)"/>
<path d="M543.113 624.158L542.067 624.928C541.015 625.705 539.531 625.486 538.754 624.433C537.977 623.381 538.197 621.897 539.249 621.12C539.286 621.089 539.324 621.064 539.368 621.039L539.38 621.032L540.458 620.337L540.464 620.331C541.548 619.636 542.988 619.943 543.683 621.026C544.354 622.06 544.09 623.431 543.113 624.158Z" fill="url(#paint3_linear_48_637)"/>
<path d="M526.002 635.964L524.906 636.666C523.547 637.536 521.737 637.142 520.866 635.776C519.995 634.417 520.39 632.607 521.755 631.736C521.793 631.711 521.831 631.686 521.868 631.668L521.887 631.655L522.996 631.022L523.008 631.016C524.392 630.221 526.165 630.703 526.954 632.093C527.718 633.434 527.286 635.137 526.002 635.964Z" fill="url(#paint4_linear_48_637)"/>
<path d="M508.145 646.681L507.005 647.313C505.346 648.234 503.254 647.639 502.333 645.985C501.412 644.326 502.007 642.234 503.661 641.313C503.705 641.288 503.755 641.263 503.798 641.238L503.817 641.225L504.963 640.662L504.976 640.655C506.661 639.822 508.703 640.517 509.536 642.202C510.35 643.831 509.717 645.798 508.145 646.681Z" fill="url(#paint5_linear_48_637)"/>
<path d="M489.612 656.226L488.435 656.784C486.505 657.698 484.207 656.871 483.299 654.949C482.384 653.019 483.211 650.721 485.134 649.806C485.178 649.788 485.215 649.769 485.259 649.75L485.284 649.738L486.462 649.236L486.474 649.23C488.422 648.397 490.671 649.305 491.504 651.253C492.312 653.157 491.46 655.349 489.612 656.226Z" fill="url(#paint6_linear_48_637)"/>
<path d="M470.484 664.569L469.269 665.051C467.108 665.909 464.659 664.851 463.801 662.69C462.943 660.529 464.001 658.08 466.162 657.222C466.2 657.209 466.237 657.191 466.275 657.178L466.306 657.166L467.503 656.733L467.521 656.727C469.695 655.944 472.094 657.072 472.883 659.251C473.641 661.387 472.57 663.736 470.484 664.569Z" fill="url(#paint7_linear_48_637)"/>
<path d="M450.842 671.684L449.602 672.085C447.241 672.849 444.704 671.559 443.934 669.192C443.169 666.83 444.46 664.294 446.827 663.523C446.859 663.511 446.884 663.504 446.915 663.498L446.952 663.486L448.174 663.122L448.193 663.116C450.566 662.415 453.059 663.767 453.767 666.135C454.45 668.477 453.147 670.933 450.842 671.684Z" fill="url(#paint8_linear_48_637)"/>
<path d="M430.78 677.546L429.515 677.872C426.985 678.517 424.404 676.989 423.759 674.452C423.114 671.922 424.642 669.341 427.179 668.696C427.198 668.69 427.217 668.684 427.235 668.684L427.273 668.671L428.513 668.377L428.532 668.371C431.069 667.769 433.612 669.348 434.213 671.884C434.802 674.396 433.267 676.908 430.78 677.546Z" fill="url(#paint9_linear_48_637)"/>
<path d="M410.381 682.138L409.097 682.382C406.429 682.895 403.848 681.142 403.341 678.473C402.827 675.805 404.581 673.225 407.249 672.717C407.268 672.711 407.293 672.711 407.312 672.705L407.356 672.699L408.608 672.479L408.627 672.473C411.302 672.01 413.838 673.801 414.302 676.475C414.746 679.119 412.999 681.636 410.381 682.138Z" fill="url(#paint10_linear_48_637)"/>
<path d="M389.718 685.426L388.422 685.589C385.666 685.939 383.148 683.985 382.797 681.223C382.446 678.467 384.4 675.949 387.163 675.599C387.169 675.599 387.181 675.599 387.188 675.592L387.231 675.586L388.49 675.442H388.509C391.265 675.123 393.758 677.102 394.077 679.864C394.397 682.601 392.443 685.081 389.718 685.426Z" fill="url(#paint11_linear_48_637)"/>
<path d="M368.886 687.424L367.583 687.505C364.771 687.68 362.347 685.538 362.172 682.726C361.997 679.914 364.139 677.49 366.951 677.315H366.97H366.988L368.254 677.239H368.272C371.085 677.077 373.502 679.225 373.665 682.037C373.828 684.849 371.698 687.261 368.886 687.424Z" fill="url(#paint12_linear_48_637)"/>
<path d="M347.967 688.132H346.658C343.814 688.138 341.509 685.839 341.503 682.996C341.497 680.152 343.795 677.847 346.639 677.841H346.658H346.676H347.948H347.967C350.804 677.847 353.103 680.152 353.096 682.99C353.096 685.839 350.804 688.138 347.967 688.132Z" fill="url(#paint13_linear_48_637)"/>
<path d="M327.047 687.512L325.744 687.43C322.932 687.255 320.79 684.831 320.965 682.019C321.141 679.206 323.565 677.064 326.377 677.24L327.642 677.315H327.661C330.479 677.478 332.628 679.895 332.465 682.714C332.302 685.532 329.884 687.681 327.066 687.518L327.047 687.512Z" fill="url(#paint14_linear_48_637)"/>
<path d="M306.209 685.595L304.912 685.432C302.157 685.081 300.202 682.564 300.547 679.808C300.891 677.071 303.378 675.123 306.115 675.436H306.14L307.399 675.58H307.418C310.186 675.899 312.172 678.398 311.852 681.167C311.533 683.935 309.034 685.921 306.265 685.601C306.253 685.601 306.215 685.601 306.209 685.595Z" fill="url(#paint15_linear_48_637)"/>
<path d="M285.527 682.394L284.243 682.15C281.575 681.649 279.815 679.075 280.323 676.4C280.824 673.751 283.36 672.003 286.003 672.467L286.029 672.473L287.281 672.692H287.3C289.981 673.162 291.772 675.718 291.302 678.398C290.832 681.079 288.277 682.87 285.596 682.4C285.578 682.4 285.54 682.394 285.527 682.394Z" fill="url(#paint16_linear_48_637)"/>
<path d="M265.109 677.879L263.844 677.553C261.313 676.908 259.779 674.328 260.43 671.797C261.069 669.292 263.593 667.77 266.098 668.359L266.124 668.365L267.357 668.659L267.376 668.665C269.925 669.267 271.51 671.822 270.909 674.371C270.307 676.921 267.752 678.505 265.203 677.904C265.172 677.898 265.128 677.885 265.109 677.879Z" fill="url(#paint17_linear_48_637)"/>
<path d="M245.022 672.104L243.782 671.703C241.421 670.939 240.131 668.402 240.895 666.041C241.646 663.717 244.114 662.427 246.444 663.116L246.469 663.122L247.691 663.486L247.703 663.492C250.089 664.2 251.455 666.711 250.747 669.098C250.039 671.484 247.528 672.849 245.141 672.142C245.098 672.129 245.047 672.11 245.022 672.104Z" fill="url(#paint18_linear_48_637)"/>
<path d="M225.349 665.07L224.134 664.588C221.98 663.73 220.921 661.287 221.779 659.132C222.618 657.022 224.98 655.963 227.103 656.727L227.128 656.733L228.324 657.166L228.337 657.172C230.529 657.961 231.669 660.379 230.88 662.577C230.091 664.769 227.673 665.909 225.475 665.12C225.443 665.101 225.387 665.082 225.349 665.07Z" fill="url(#paint19_linear_48_637)"/>
<path d="M206.19 656.802L205.012 656.245C203.089 655.337 202.269 653.038 203.183 651.121C204.073 649.249 206.271 648.422 208.163 649.224L208.188 649.236L209.359 649.737L209.371 649.743C211.338 650.583 212.259 652.856 211.42 654.829C210.58 656.796 208.307 657.717 206.334 656.877C206.284 656.846 206.227 656.821 206.19 656.802Z" fill="url(#paint20_linear_48_637)"/>
<path d="M187.613 647.332L186.473 646.7C184.819 645.779 184.23 643.699 185.151 642.046C186.041 640.449 188.02 639.841 189.648 640.637L189.667 640.649L190.813 641.213L190.826 641.219C192.536 642.065 193.237 644.132 192.392 645.841C191.546 647.551 189.479 648.253 187.769 647.407C187.719 647.388 187.657 647.357 187.613 647.332Z" fill="url(#paint21_linear_48_637)"/>
<path d="M169.718 636.685L168.622 635.983C167.269 635.119 166.875 633.321 167.739 631.968C168.578 630.659 170.288 630.246 171.622 631.01L171.641 631.023L172.75 631.655L172.756 631.661C174.165 632.469 174.654 634.261 173.846 635.67C173.038 637.079 171.247 637.568 169.837 636.76C169.806 636.741 169.756 636.71 169.718 636.685Z" fill="url(#paint22_linear_48_637)"/>
<path d="M152.557 624.953L151.511 624.183C150.471 623.413 150.252 621.947 151.022 620.907C151.761 619.911 153.139 619.667 154.173 620.331L154.185 620.344L155.262 621.039L155.269 621.045C156.377 621.759 156.691 623.237 155.976 624.34C155.262 625.442 153.784 625.761 152.682 625.047C152.638 625.01 152.594 624.978 152.557 624.953Z" fill="url(#paint23_linear_48_637)"/>
<path d="M136.222 612.139L135.226 611.306C134.512 610.704 134.418 609.646 135.019 608.932C135.596 608.249 136.598 608.13 137.305 608.65L137.318 608.656L138.351 609.414L138.358 609.42C139.128 609.984 139.291 611.068 138.727 611.838C138.164 612.608 137.08 612.771 136.31 612.208C136.285 612.189 136.253 612.164 136.222 612.139Z" fill="url(#paint24_linear_48_637)"/>
<path d="M120.802 598.309L119.868 597.413C119.505 597.069 119.493 596.493 119.843 596.129C120.175 595.785 120.708 595.76 121.071 596.054L121.077 596.061L122.073 596.875C122.48 597.207 122.543 597.814 122.205 598.221C121.866 598.629 121.265 598.691 120.858 598.353C120.839 598.34 120.82 598.322 120.802 598.309Z" fill="url(#paint25_linear_48_637)"/>
<path d="M106.359 583.484L105.926 583.008L106.402 583.44C106.415 583.453 106.415 583.472 106.402 583.484C106.396 583.497 106.377 583.497 106.359 583.484Z" fill="url(#paint26_linear_48_637)"/>
<path d="M582.986 105.948L583.462 106.381C583.475 106.393 583.475 106.412 583.462 106.425C583.45 106.437 583.431 106.437 583.418 106.425L582.986 105.948Z" fill="url(#paint27_linear_48_637)"/>
<path d="M597.373 119.878L598.268 120.811C598.632 121.193 598.619 121.794 598.237 122.158C597.855 122.521 597.254 122.508 596.891 122.126C596.872 122.108 596.859 122.089 596.847 122.076L596.84 122.07L596.026 121.074C595.713 120.692 595.763 120.122 596.151 119.803C596.515 119.502 597.047 119.54 597.373 119.878Z" fill="url(#paint28_linear_48_637)"/>
<path d="M611.265 135.242L612.098 136.238C612.705 136.964 612.611 138.048 611.885 138.662C611.158 139.269 610.075 139.175 609.461 138.449C609.436 138.424 609.417 138.392 609.398 138.367L609.392 138.361L608.634 137.328L608.628 137.321C608.077 136.576 608.24 135.524 608.985 134.973C609.705 134.44 610.701 134.565 611.265 135.242Z" fill="url(#paint29_linear_48_637)"/>
<path d="M624.136 151.527L624.906 152.573C625.683 153.625 625.464 155.109 624.412 155.886C623.359 156.662 621.875 156.443 621.098 155.391C621.067 155.353 621.042 155.316 621.017 155.272L621.011 155.259L620.315 154.182L620.309 154.176C619.614 153.092 619.921 151.652 621.004 150.957C622.038 150.28 623.409 150.549 624.136 151.527Z" fill="url(#paint30_linear_48_637)"/>
<path d="M635.942 168.638L636.644 169.734C637.514 171.093 637.12 172.903 635.755 173.774C634.395 174.645 632.585 174.25 631.715 172.885C631.69 172.847 631.665 172.809 631.646 172.772L631.633 172.753L631.001 171.644L630.994 171.632C630.199 170.248 630.681 168.475 632.072 167.686C633.412 166.916 635.116 167.348 635.942 168.638Z" fill="url(#paint31_linear_48_637)"/>
<path d="M646.659 186.489L647.292 187.628C648.212 189.288 647.617 191.38 645.964 192.301C644.304 193.222 642.212 192.627 641.291 190.973C641.266 190.929 641.241 190.879 641.216 190.835L641.204 190.817L640.64 189.67L640.634 189.658C639.801 187.973 640.496 185.931 642.181 185.098C643.809 184.29 645.782 184.923 646.659 186.489Z" fill="url(#paint32_linear_48_637)"/>
<path d="M656.204 205.022L656.762 206.199C657.676 208.128 656.849 210.427 654.927 211.341C652.997 212.256 650.699 211.429 649.791 209.506C649.772 209.462 649.753 209.425 649.734 209.381L649.722 209.356L649.221 208.178L649.214 208.166C648.381 206.218 649.29 203.97 651.237 203.136C653.135 202.329 655.327 203.18 656.204 205.022Z" fill="url(#paint33_linear_48_637)"/>
<path d="M664.547 224.156L665.029 225.371C665.887 227.532 664.829 229.981 662.668 230.839C660.507 231.697 658.058 230.639 657.2 228.478C657.188 228.44 657.169 228.403 657.156 228.365L657.144 228.334L656.712 227.138L656.705 227.119C655.922 224.945 657.05 222.54 659.23 221.757C661.365 220.993 663.714 222.07 664.547 224.156Z" fill="url(#paint34_linear_48_637)"/>
<path d="M671.662 243.798L672.063 245.038C672.827 247.399 671.537 249.936 669.169 250.707C666.802 251.477 664.272 250.18 663.501 247.813C663.489 247.782 663.482 247.756 663.476 247.725L663.464 247.688L663.1 246.466L663.094 246.447C662.393 244.074 663.745 241.581 666.113 240.873C668.455 240.19 670.911 241.493 671.662 243.798Z" fill="url(#paint35_linear_48_637)"/>
<path d="M677.525 263.853L677.85 265.118C678.496 267.649 676.967 270.229 674.431 270.874C671.9 271.52 669.32 269.991 668.675 267.455C668.668 267.436 668.662 267.417 668.662 267.392L668.65 267.354L668.355 266.114L668.349 266.096C667.748 263.559 669.326 261.016 671.863 260.415C674.374 259.838 676.892 261.367 677.525 263.853Z" fill="url(#paint36_linear_48_637)"/>
<path d="M682.116 284.259L682.36 285.543C682.874 288.211 681.12 290.792 678.452 291.299C675.784 291.813 673.203 290.059 672.696 287.391C672.689 287.372 672.689 287.347 672.683 287.328L672.677 287.284L672.458 286.032L672.451 286.013C671.988 283.338 673.779 280.802 676.454 280.338C679.103 279.887 681.615 281.641 682.116 284.259Z" fill="url(#paint37_linear_48_637)"/>
<path d="M685.404 304.922L685.567 306.218C685.918 308.974 683.963 311.492 681.201 311.843C678.445 312.194 675.928 310.239 675.577 307.477C675.577 307.471 675.577 307.459 675.571 307.452L675.564 307.408L675.42 306.149V306.131C675.101 303.375 677.08 300.882 679.842 300.563C682.579 300.243 685.06 302.191 685.404 304.922Z" fill="url(#paint38_linear_48_637)"/>
<path d="M687.402 325.754L687.483 327.056C687.659 329.869 685.517 332.293 682.704 332.468C679.892 332.643 677.468 330.501 677.293 327.689V327.67V327.652L677.218 326.386V326.368C677.055 323.555 679.203 321.138 682.016 320.975C684.828 320.812 687.239 322.942 687.402 325.754Z" fill="url(#paint39_linear_48_637)"/>
<path d="M688.11 346.673V347.982C688.116 350.826 685.817 353.131 682.974 353.137C680.13 353.143 677.825 350.845 677.819 348.001V347.982V347.964V346.692V346.673C677.825 343.836 680.13 341.537 682.968 341.544C685.817 341.544 688.116 343.83 688.11 346.673Z" fill="url(#paint40_linear_48_637)"/>
<path d="M687.49 367.593L687.408 368.896C687.233 371.708 684.809 373.85 681.997 373.675C679.184 373.499 677.042 371.075 677.218 368.263L677.293 366.998V366.979C677.456 364.161 679.873 362.012 682.692 362.175C685.51 362.338 687.659 364.756 687.496 367.574L687.49 367.593Z" fill="url(#paint41_linear_48_637)"/>
<path d="M685.579 388.431L685.417 389.727C685.066 392.483 682.548 394.437 679.792 394.093C677.055 393.748 675.107 391.262 675.42 388.525V388.5L675.564 387.241V387.222C675.884 384.454 678.383 382.468 681.151 382.788C683.92 383.107 685.905 385.606 685.586 388.375C685.586 388.387 685.579 388.425 685.579 388.431Z" fill="url(#paint42_linear_48_637)"/>
<path d="M682.372 409.106L682.128 410.39C681.627 413.059 679.053 414.819 676.378 414.311C673.729 413.81 671.982 411.274 672.445 408.63L672.451 408.605L672.671 407.353V407.334C673.14 404.653 675.696 402.862 678.376 403.332C681.057 403.801 682.848 406.357 682.379 409.038C682.379 409.056 682.372 409.094 682.372 409.106Z" fill="url(#paint43_linear_48_637)"/>
<path d="M677.863 429.531L677.537 430.796C676.892 433.327 674.312 434.861 671.781 434.21C669.276 433.571 667.754 431.047 668.343 428.541L668.349 428.516L668.643 427.283L668.649 427.264C669.251 424.715 671.806 423.136 674.355 423.731C676.905 424.332 678.483 426.888 677.888 429.437C677.875 429.462 677.863 429.506 677.863 429.531Z" fill="url(#paint44_linear_48_637)"/>
<path d="M672.082 449.618L671.681 450.858C670.917 453.219 668.38 454.509 666.019 453.745C663.695 452.993 662.405 450.526 663.094 448.196L663.1 448.171L663.464 446.949L663.47 446.937C664.178 444.551 666.689 443.185 669.076 443.893C671.462 444.601 672.827 447.112 672.12 449.499C672.107 449.536 672.088 449.586 672.082 449.618Z" fill="url(#paint45_linear_48_637)"/>
<path d="M665.048 469.284L664.566 470.5C663.708 472.654 661.265 473.713 659.111 472.855C657 472.015 655.941 469.654 656.705 467.531L656.712 467.506L657.144 466.309L657.15 466.297C657.939 464.105 660.357 462.965 662.555 463.754C664.748 464.543 665.887 466.961 665.098 469.159C665.08 469.197 665.061 469.247 665.048 469.284Z" fill="url(#paint46_linear_48_637)"/>
<path d="M656.781 488.45L656.223 489.628C655.315 491.551 653.016 492.371 651.1 491.457C649.227 490.567 648.4 488.369 649.202 486.477L649.214 486.452L649.715 485.281L649.722 485.268C650.561 483.302 652.835 482.381 654.808 483.22C656.774 484.06 657.695 486.333 656.856 488.306C656.824 488.356 656.799 488.406 656.781 488.45Z" fill="url(#paint47_linear_48_637)"/>
<path d="M647.31 507.027L646.678 508.167C645.757 509.821 643.678 510.41 642.024 509.489C640.427 508.599 639.819 506.62 640.615 504.992L640.627 504.973L641.191 503.827L641.197 503.814C642.043 502.104 644.11 501.403 645.82 502.248C647.53 503.094 648.231 505.161 647.385 506.871C647.367 506.921 647.342 506.977 647.31 507.027Z" fill="url(#paint48_linear_48_637)"/>
<path d="M636.663 524.922L635.961 526.018C635.097 527.371 633.299 527.765 631.946 526.901C630.637 526.062 630.224 524.352 630.988 523.018L631.001 522.999L631.633 521.89L631.64 521.884C632.447 520.475 634.239 519.986 635.648 520.794C637.057 521.602 637.546 523.393 636.738 524.803C636.719 524.834 636.688 524.884 636.663 524.922Z" fill="url(#paint49_linear_48_637)"/>
<path d="M624.931 542.083L624.161 543.129C623.391 544.169 621.925 544.388 620.885 543.618C619.889 542.879 619.645 541.501 620.303 540.467L620.315 540.455L621.011 539.377L621.017 539.371C621.731 538.263 623.209 537.949 624.311 538.663C625.42 539.377 625.733 540.856 625.019 541.958C624.988 542.002 624.957 542.046 624.931 542.083Z" fill="url(#paint50_linear_48_637)"/>
<path d="M612.123 558.412L611.29 559.408C610.689 560.122 609.63 560.216 608.916 559.614C608.233 559.038 608.114 558.036 608.634 557.328L608.641 557.316L609.398 556.282L609.405 556.276C609.968 555.505 611.052 555.343 611.822 555.906C612.593 556.47 612.756 557.554 612.192 558.324C612.167 558.355 612.142 558.387 612.123 558.412Z" fill="url(#paint51_linear_48_637)"/>
<path d="M598.287 573.832L597.392 574.765C597.047 575.128 596.471 575.141 596.108 574.79C595.763 574.458 595.738 573.926 596.032 573.563L596.039 573.556L596.853 572.56C597.185 572.153 597.792 572.091 598.2 572.429C598.607 572.761 598.669 573.368 598.331 573.776C598.319 573.801 598.3 573.819 598.287 573.832Z" fill="url(#paint52_linear_48_637)"/>
<path d="M583.462 588.275L582.986 588.708L583.418 588.232C583.431 588.219 583.45 588.219 583.462 588.232C583.475 588.244 583.475 588.263 583.462 588.275Z" fill="url(#paint53_linear_48_637)"/>
<path d="M100.226 105.948L100.659 105.472C100.671 105.46 100.69 105.46 100.703 105.472C100.715 105.485 100.715 105.503 100.703 105.516L100.226 105.948Z" fill="url(#paint54_linear_48_637)"/>
<path d="M114.15 91.5611L115.083 90.6655C115.465 90.3022 116.066 90.3147 116.43 90.6968C116.793 91.0788 116.78 91.6801 116.398 92.0434C116.38 92.0622 116.361 92.0747 116.348 92.0872L116.342 92.0935L115.346 92.9077C114.964 93.2209 114.394 93.1708 114.075 92.7825C113.78 92.4192 113.818 91.8868 114.15 91.5611Z" fill="url(#paint55_linear_48_637)"/>
<path d="M129.514 77.669L130.51 76.836C131.236 76.2284 132.32 76.3224 132.934 77.0489C133.541 77.7755 133.447 78.859 132.721 79.4728C132.696 79.4979 132.664 79.5166 132.639 79.5354L132.633 79.5417L131.6 80.2996L131.593 80.3059C130.848 80.857 129.796 80.6942 129.245 79.9488C128.712 79.2286 128.844 78.2327 129.514 77.669Z" fill="url(#paint56_linear_48_637)"/>
<path d="M145.799 64.798L146.845 64.0276C147.897 63.251 149.381 63.4702 150.158 64.5225C150.935 65.5747 150.715 67.0591 149.663 67.8358C149.625 67.8671 149.588 67.8921 149.544 67.9172L149.532 67.9234L148.454 68.6187L148.448 68.6249C147.364 69.3202 145.924 69.0133 145.229 67.9297C144.558 66.8963 144.821 65.5246 145.799 64.798Z" fill="url(#paint57_linear_48_637)"/>
<path d="M162.91 52.9915L164.006 52.29C165.365 51.4194 167.175 51.8139 168.046 53.1793C168.917 54.5385 168.522 56.3486 167.157 57.2192C167.119 57.2443 167.081 57.2693 167.044 57.2881L167.025 57.3006L165.916 57.9332L165.904 57.9395C164.52 58.7349 162.747 58.2527 161.958 56.8622C161.194 55.5218 161.626 53.8182 162.91 52.9915Z" fill="url(#paint58_linear_48_637)"/>
<path d="M180.767 42.275L181.907 41.6425C183.566 40.7218 185.658 41.3168 186.579 42.9703C187.5 44.6301 186.905 46.722 185.251 47.6427C185.207 47.6678 185.157 47.6928 185.113 47.7179L185.095 47.7304L183.949 48.2941L183.936 48.3004C182.251 49.1334 180.209 48.4382 179.376 46.7534C178.562 45.1249 179.195 43.1519 180.767 42.275Z" fill="url(#paint59_linear_48_637)"/>
<path d="M199.3 32.7296L200.477 32.1721C202.406 31.2577 204.705 32.0844 205.62 34.0073C206.534 35.9364 205.707 38.235 203.784 39.1495C203.741 39.1683 203.703 39.1871 203.659 39.2058L203.634 39.2184L202.457 39.7194L202.444 39.7257C200.496 40.5587 198.248 39.6505 197.415 37.7026C196.607 35.7986 197.452 33.6064 199.3 32.7296Z" fill="url(#paint60_linear_48_637)"/>
<path d="M218.434 24.3869L219.65 23.9047C221.81 23.0466 224.259 24.1051 225.117 26.2659C225.976 28.4268 224.917 30.8758 222.756 31.7338C222.719 31.7464 222.681 31.7652 222.643 31.7777L222.612 31.7902L221.416 32.2224L221.397 32.2287C219.224 33.0116 216.819 31.8842 216.036 29.7045C215.271 27.5625 216.343 25.22 218.434 24.3869Z" fill="url(#paint61_linear_48_637)"/>
<path d="M238.07 17.2716L239.31 16.8708C241.671 16.1067 244.208 17.3969 244.978 19.7644C245.749 22.132 244.452 24.6624 242.085 25.4328C242.053 25.4453 242.028 25.4516 241.997 25.4578L241.96 25.4704L240.738 25.8336L240.719 25.8399C238.346 26.5414 235.853 25.1885 235.145 22.821C234.462 20.4722 235.771 18.0232 238.07 17.2716Z" fill="url(#paint62_linear_48_637)"/>
<path d="M258.131 11.4092L259.397 11.0835C261.927 10.4383 264.508 11.9666 265.153 14.5032C265.798 17.0336 264.27 19.6141 261.733 20.2593C261.714 20.2655 261.695 20.2718 261.67 20.2718L261.633 20.2843L260.393 20.5787L260.374 20.585C257.837 21.1862 255.294 19.6079 254.693 17.0712C254.11 14.5596 255.645 12.0417 258.131 11.4092Z" fill="url(#paint63_linear_48_637)"/>
<path d="M278.537 6.81822L279.821 6.57395C282.49 6.06035 285.07 7.8141 285.577 10.4823C286.085 13.1505 284.337 15.731 281.669 16.2383C281.65 16.2446 281.625 16.2445 281.606 16.2508L281.563 16.2571L280.31 16.4763L280.291 16.4826C277.617 16.946 275.08 15.1547 274.617 12.4803C274.166 9.8309 275.913 7.31929 278.537 6.81822Z" fill="url(#paint64_linear_48_637)"/>
<path d="M299.2 3.52998L300.497 3.36713C303.253 3.01639 305.77 4.97055 306.121 7.73268C306.472 10.4885 304.518 13.0064 301.756 13.3572C301.749 13.3572 301.737 13.3572 301.731 13.3634L301.687 13.3697L300.428 13.5137H300.409C297.653 13.8332 295.16 11.854 294.841 9.09183C294.515 6.35475 296.469 3.87447 299.2 3.52998Z" fill="url(#paint65_linear_48_637)"/>
<path d="M320.026 1.5319L321.329 1.45047C324.141 1.2751 326.565 3.41717 326.74 6.2294C326.916 9.04164 324.774 11.4656 321.961 11.6409H321.942H321.924L320.658 11.7161H320.64C317.827 11.8789 315.41 9.73061 315.247 6.91838C315.084 4.10614 317.214 1.69475 320.026 1.5319Z" fill="url(#paint66_linear_48_637)"/>
<path d="M340.945 0.824232H342.254C345.098 0.817968 347.403 3.11662 347.409 5.96018C347.415 8.80373 345.117 11.1086 342.273 11.1149H342.254H342.236H340.964H340.945C338.108 11.1086 335.809 8.80372 335.816 5.96643C335.822 3.11661 338.108 0.817968 340.945 0.824232Z" fill="url(#paint67_linear_48_637)"/>
<path d="M361.865 1.44437L363.168 1.5258C365.98 1.70117 368.122 4.12509 367.947 6.93733C367.771 9.74957 365.347 11.8916 362.535 11.7163L361.27 11.6411H361.251C358.433 11.4783 356.284 9.06059 356.447 6.24209C356.61 3.42359 359.028 1.27528 361.846 1.43812L361.865 1.44437Z" fill="url(#paint68_linear_48_637)"/>
<path d="M382.709 3.35445L384.006 3.5173C386.762 3.86805 388.716 6.3859 388.371 9.14177C388.027 11.8788 385.54 13.8268 382.803 13.5136H382.778L381.519 13.3695H381.5C378.732 13.0501 376.747 10.551 377.066 7.78263C377.386 5.01424 379.885 3.02875 382.653 3.34818C382.659 3.34818 382.697 3.35445 382.709 3.35445Z" fill="url(#paint69_linear_48_637)"/>
<path d="M403.385 6.56155L404.669 6.80583C407.337 7.30689 409.097 9.88112 408.589 12.5556C408.088 15.205 405.552 16.9524 402.909 16.4889L402.883 16.4827L401.631 16.2635H401.612C398.931 15.7937 397.14 13.2383 397.61 10.5576C398.079 7.87685 400.635 6.08553 403.316 6.55528C403.334 6.54902 403.372 6.56155 403.385 6.56155Z" fill="url(#paint70_linear_48_637)"/>
<path d="M423.803 11.0709L425.068 11.3966C427.599 12.0417 429.133 14.6222 428.482 17.1526C427.843 19.658 425.319 21.1799 422.813 20.5912L422.788 20.5849L421.554 20.2906L421.536 20.2843C418.987 19.683 417.402 17.1276 418.003 14.5784C418.604 12.0292 421.16 10.4508 423.709 11.0459C423.74 11.0584 423.784 11.0709 423.803 11.0709Z" fill="url(#paint71_linear_48_637)"/>
<path d="M443.89 16.8521L445.13 17.2529C447.491 18.0171 448.781 20.5537 448.017 22.915C447.265 25.2387 444.798 26.5289 442.468 25.84L442.443 25.8337L441.221 25.4704L441.209 25.4642C438.822 24.7564 437.457 22.2448 438.165 19.8585C438.873 17.4722 441.384 16.1067 443.771 16.8145C443.814 16.827 443.864 16.8458 443.89 16.8521Z" fill="url(#paint72_linear_48_637)"/>
<path d="M463.563 23.8858L464.778 24.3681C466.932 25.2261 467.991 27.6688 467.133 29.8234C466.293 31.9342 463.932 32.9927 461.809 32.2286L461.784 32.2223L460.588 31.7901L460.575 31.7838C458.383 30.9947 457.243 28.577 458.032 26.3786C458.821 24.1864 461.239 23.0465 463.437 23.8357C463.469 23.8545 463.525 23.8733 463.563 23.8858Z" fill="url(#paint73_linear_48_637)"/>
<path d="M482.728 32.1533L483.906 32.7107C485.829 33.6189 486.649 35.9175 485.735 37.8341C484.846 39.7069 482.647 40.5336 480.756 39.7319L480.731 39.7194L479.559 39.2183L479.547 39.2121C477.58 38.3728 476.659 36.0992 477.499 34.1262C478.338 32.1533 480.611 31.2388 482.584 32.0781C482.628 32.1094 482.685 32.1345 482.728 32.1533Z" fill="url(#paint74_linear_48_637)"/>
<path d="M501.299 41.6236L502.439 42.2562C504.093 43.1769 504.681 45.2563 503.761 46.9098C502.871 48.507 500.892 49.1145 499.264 48.3191L499.245 48.3065L498.099 47.7428L498.086 47.7366C496.376 46.891 495.675 44.8241 496.52 43.1142C497.366 41.4044 499.433 40.7029 501.143 41.5484C501.199 41.5672 501.255 41.5923 501.299 41.6236Z" fill="url(#paint75_linear_48_637)"/>
<path d="M519.194 52.2712L520.29 52.9727C521.643 53.837 522.037 55.6346 521.173 56.9875C520.334 58.2965 518.624 58.7099 517.29 57.9458L517.271 57.9332L516.162 57.3006L516.156 57.2944C514.747 56.4864 514.258 54.6951 515.066 53.2858C515.874 51.8766 517.665 51.388 519.075 52.196C519.112 52.2148 519.156 52.2461 519.194 52.2712Z" fill="url(#paint76_linear_48_637)"/>
<path d="M536.362 64.0024L537.408 64.7728C538.447 65.5432 538.666 67.0088 537.896 68.0486C537.157 69.0444 535.779 69.2887 534.746 68.6248L534.733 68.6123L533.656 67.917L533.65 67.9108C532.541 67.1967 532.228 65.7186 532.942 64.6162C533.656 63.5076 535.134 63.1945 536.236 63.9085C536.274 63.9461 536.318 63.9774 536.362 64.0024Z" fill="url(#paint77_linear_48_637)"/>
<path d="M552.69 76.8112L553.686 77.6442C554.4 78.2455 554.494 79.304 553.893 80.018C553.316 80.7007 552.314 80.8197 551.606 80.2999L551.594 80.2936L550.56 79.5357L550.554 79.5295C549.784 78.9658 549.621 77.8822 550.185 77.1118C550.748 76.3415 551.832 76.1786 552.602 76.7423C552.634 76.7673 552.665 76.7924 552.69 76.8112Z" fill="url(#paint78_linear_48_637)"/>
<path d="M568.11 90.6466L569.044 91.5423C569.407 91.8867 569.419 92.463 569.069 92.8262C568.737 93.1707 568.204 93.1958 567.841 92.9014L567.835 92.8951L566.839 92.0809C566.432 91.7489 566.369 91.1414 566.707 90.7343C567.039 90.3271 567.647 90.2645 568.054 90.6028C568.073 90.6153 568.092 90.6341 568.11 90.6466Z" fill="url(#paint79_linear_48_637)"/>
<path d="M582.554 105.472L582.986 105.948L582.51 105.516C582.497 105.503 582.497 105.485 582.51 105.472C582.516 105.46 582.535 105.46 582.554 105.472Z" fill="url(#paint80_linear_48_637)"/>
<path d="M105.926 583.008L105.45 582.576C105.438 582.563 105.438 582.544 105.45 582.532C105.463 582.519 105.481 582.519 105.494 582.532L105.926 583.008Z" fill="url(#paint81_linear_48_637)"/>
<path d="M91.5391 569.078L90.6435 568.145C90.2802 567.763 90.2927 567.161 90.6748 566.798C91.0569 566.435 91.6582 566.447 92.0214 566.829C92.0402 566.848 92.0527 566.867 92.0653 566.879L92.0715 566.886L92.8858 567.882C93.1989 568.264 93.1488 568.834 92.7605 569.153C92.3972 569.454 91.8648 569.416 91.5391 569.078Z" fill="url(#paint82_linear_48_637)"/>
<path d="M77.6471 553.714L76.8141 552.718C76.2066 551.992 76.3005 550.908 77.0271 550.294C77.7536 549.687 78.8372 549.781 79.451 550.507C79.476 550.532 79.4948 550.564 79.5136 550.589L79.5198 550.595L80.2777 551.629L80.284 551.635C80.8352 552.38 80.6723 553.432 79.927 553.984C79.213 554.516 78.2108 554.384 77.6471 553.714Z" fill="url(#paint83_linear_48_637)"/>
<path d="M64.7759 537.429L64.0056 536.383C63.2289 535.331 63.4481 533.847 64.5004 533.07C65.5526 532.293 67.037 532.513 67.8136 533.565C67.845 533.602 67.87 533.64 67.8951 533.684L67.9013 533.696L68.5966 534.774L68.6028 534.78C69.2981 535.864 68.9912 537.304 67.9076 537.999C66.8742 538.67 65.5025 538.406 64.7759 537.429Z" fill="url(#paint84_linear_48_637)"/>
<path d="M52.9696 520.318L52.2681 519.222C51.3975 517.863 51.7921 516.053 53.1575 515.182C54.5166 514.311 56.3268 514.706 57.1974 516.071C57.2224 516.109 57.2475 516.147 57.2662 516.184L57.2788 516.203L57.9114 517.312L57.9176 517.324C58.7131 518.708 58.2308 520.481 56.8403 521.27C55.5 522.04 53.7964 521.602 52.9696 520.318Z" fill="url(#paint85_linear_48_637)"/>
<path d="M42.2529 502.461L41.6204 501.321C40.6997 499.661 41.2947 497.57 42.9482 496.649C44.608 495.728 46.6999 496.323 47.6206 497.977C47.6457 498.02 47.6707 498.071 47.6958 498.114L47.7083 498.133L48.272 499.279L48.2783 499.292C49.1113 500.977 48.4161 503.019 46.7312 503.852C45.1028 504.666 43.1298 504.033 42.2529 502.461Z" fill="url(#paint86_linear_48_637)"/>
<path d="M32.7077 483.928L32.1503 482.75C31.2358 480.821 32.0626 478.523 33.9855 477.608C35.9146 476.694 38.2132 477.521 39.1276 479.443C39.1464 479.487 39.1652 479.525 39.184 479.569L39.1965 479.594L39.6976 480.771L39.7039 480.784C40.5369 482.732 39.6287 484.98 37.6808 485.813C35.7768 486.627 33.5846 485.776 32.7077 483.928Z" fill="url(#paint87_linear_48_637)"/>
<path d="M24.365 464.8L23.8827 463.585C23.0246 461.424 24.0831 458.975 26.244 458.117C28.4048 457.259 30.8538 458.317 31.7119 460.478C31.7244 460.516 31.7432 460.553 31.7557 460.591L31.7682 460.622L32.2004 461.818L32.2067 461.837C32.9896 464.011 31.8622 466.416 29.6826 467.199C27.5468 467.963 25.198 466.886 24.365 464.8Z" fill="url(#paint88_linear_48_637)"/>
<path d="M17.2497 445.158L16.8488 443.918C16.0847 441.557 17.3749 439.02 19.7425 438.249C22.1038 437.485 24.6404 438.776 25.4108 441.143C25.4234 441.174 25.4296 441.199 25.4359 441.231L25.4484 441.268L25.8116 442.49L25.8179 442.509C26.5194 444.882 25.1665 447.375 22.799 448.083C20.4565 448.766 18.0013 447.463 17.2497 445.158Z" fill="url(#paint89_linear_48_637)"/>
<path d="M11.3873 425.096L11.0616 423.831C10.4165 421.301 11.9448 418.72 14.4814 418.075C17.0118 417.43 19.5923 418.958 20.2374 421.495C20.2437 421.514 20.2499 421.532 20.2499 421.558L20.2625 421.595L20.5569 422.835L20.5631 422.854C21.1644 425.391 19.586 427.934 17.0494 428.535C14.5378 429.117 12.0262 427.583 11.3873 425.096Z" fill="url(#paint90_linear_48_637)"/>
<path d="M6.79625 404.697L6.55197 403.413C6.03838 400.745 7.79215 398.164 10.4603 397.657C13.1285 397.143 15.709 398.897 16.2163 401.565C16.2226 401.584 16.2226 401.609 16.2288 401.628L16.2351 401.671L16.4543 402.924L16.4606 402.943C16.9241 405.617 15.1328 408.154 12.4583 408.618C9.81521 409.062 7.29732 407.315 6.79625 404.697Z" fill="url(#paint91_linear_48_637)"/>
<path d="M3.50801 384.034L3.34516 382.737C2.99441 379.982 4.94859 377.464 7.71073 377.113C10.4666 376.762 12.9844 378.716 13.3352 381.479C13.3352 381.485 13.3352 381.497 13.3415 381.504L13.3477 381.547L13.4918 382.806V382.825C13.8112 385.581 11.832 388.074 9.06986 388.393C6.33278 388.713 3.8525 386.759 3.50801 384.034Z" fill="url(#paint92_linear_48_637)"/>
<path d="M1.51005 363.202L1.42862 361.899C1.25325 359.087 3.39532 356.663 6.20755 356.488C9.01979 356.312 11.4437 358.455 11.6191 361.267V361.286V361.304L11.6942 362.57V362.588C11.8571 365.401 9.70878 367.818 6.89654 367.981C4.08431 368.144 1.6729 366.014 1.51005 363.202Z" fill="url(#paint93_linear_48_637)"/>
<path d="M0.802259 342.283V340.974C0.795996 338.13 3.09465 335.825 5.9382 335.819C8.78176 335.813 11.0867 338.111 11.0929 340.955V340.974V340.992V342.264V342.283C11.0867 345.12 8.78177 347.419 5.94447 347.412C3.09465 347.412 0.795996 345.12 0.802259 342.283Z" fill="url(#paint94_linear_48_637)"/>
<path d="M1.42238 321.363L1.50381 320.06C1.67918 317.248 4.1031 315.106 6.91534 315.281C9.72758 315.457 11.8696 317.881 11.6943 320.693L11.6191 321.958V321.977C11.4563 324.795 9.03862 326.944 6.22012 326.781C3.40162 326.618 1.2533 324.2 1.41615 321.382L1.42238 321.363Z" fill="url(#paint95_linear_48_637)"/>
<path d="M3.3326 300.525L3.49541 299.229C3.84616 296.473 6.36405 294.519 9.11992 294.863C11.857 295.208 13.8049 297.694 13.4917 300.431V300.456L13.3477 301.715V301.734C13.0282 304.502 10.5292 306.488 7.76078 306.168C4.99239 305.849 3.0069 303.35 3.32633 300.582C3.33259 300.569 3.3326 300.531 3.3326 300.525Z" fill="url(#paint96_linear_48_637)"/>
<path d="M6.53945 279.85L6.78369 278.566C7.28476 275.897 9.85903 274.137 12.5335 274.645C15.1829 275.146 16.9303 277.682 16.4668 280.326L16.4606 280.351L16.2414 281.603V281.622C15.7716 284.303 13.2162 286.094 10.5355 285.624C7.85476 285.155 6.06343 282.599 6.53318 279.918C6.53318 279.9 6.53945 279.856 6.53945 279.85Z" fill="url(#paint97_linear_48_637)"/>
<path d="M11.0553 259.425L11.381 258.16C12.0261 255.629 14.6066 254.095 17.137 254.746C19.6423 255.385 21.1643 257.909 20.5756 260.415L20.5693 260.44L20.2749 261.673L20.2687 261.692C19.6674 264.241 17.112 265.826 14.5628 265.225C12.0136 264.623 10.429 262.068 11.0303 259.519C11.0365 259.488 11.049 259.444 11.0553 259.425Z" fill="url(#paint98_linear_48_637)"/>
<path d="M16.8301 239.338L17.231 238.098C17.9951 235.737 20.5317 234.447 22.893 235.211C25.2167 235.963 26.507 238.43 25.818 240.76L25.8117 240.785L25.4485 242.007L25.4422 242.019C24.7344 244.405 22.2228 245.771 19.8365 245.063C17.4502 244.355 16.0848 241.844 16.7925 239.457C16.8051 239.42 16.8239 239.37 16.8301 239.338Z" fill="url(#paint99_linear_48_637)"/>
<path d="M23.8638 219.672L24.3461 218.457C25.2042 216.302 27.6469 215.243 29.8014 216.102C31.9122 216.941 32.9707 219.302 32.2066 221.425L32.2003 221.45L31.7681 222.647L31.7619 222.659C30.9727 224.851 28.555 225.991 26.3566 225.202C24.1644 224.413 23.0245 221.995 23.8137 219.797C23.8325 219.759 23.8513 219.703 23.8638 219.672Z" fill="url(#paint100_linear_48_637)"/>
<path d="M32.1315 200.506L32.689 199.328C33.5971 197.405 35.8958 196.585 37.8124 197.499C39.6851 198.389 40.5118 200.587 39.7101 202.479L39.6976 202.504L39.1965 203.675L39.1903 203.687C38.351 205.654 36.0774 206.575 34.1045 205.736C32.1378 204.896 31.2171 202.623 32.0564 200.65C32.0877 200.6 32.1127 200.543 32.1315 200.506Z" fill="url(#paint101_linear_48_637)"/>
<path d="M41.6016 181.928L42.2342 180.789C43.1549 179.135 45.2343 178.546 46.8879 179.467C48.485 180.356 49.0925 182.336 48.2971 183.964L48.2846 183.983L47.7209 185.129L47.7146 185.142C46.8691 186.851 44.8022 187.553 43.0923 186.707C41.3824 185.862 40.6809 183.795 41.5264 182.085C41.5452 182.035 41.5765 181.972 41.6016 181.928Z" fill="url(#paint102_linear_48_637)"/>
<path d="M52.2493 164.034L52.9508 162.938C53.8151 161.585 55.6127 161.191 56.9656 162.055C58.2747 162.894 58.688 164.604 57.9239 165.938L57.9114 165.957L57.2788 167.066L57.2725 167.072C56.4646 168.481 54.6732 168.97 53.264 168.162C51.8547 167.354 51.3662 165.562 52.1742 164.153C52.1929 164.122 52.2243 164.072 52.2493 164.034Z" fill="url(#paint103_linear_48_637)"/>
<path d="M63.9804 146.873L64.7508 145.827C65.5212 144.787 66.9868 144.568 68.0266 145.338C69.0224 146.077 69.2667 147.455 68.6028 148.489L68.5903 148.501L67.895 149.579L67.8888 149.585C67.1748 150.693 65.6966 151.007 64.5943 150.293C63.4857 149.579 63.1725 148.1 63.8865 146.998C63.9241 146.954 63.9554 146.91 63.9804 146.873Z" fill="url(#paint104_linear_48_637)"/>
<path d="M76.7953 130.538L77.6284 129.542C78.2296 128.828 79.2881 128.734 80.0022 129.335C80.6849 129.912 80.8039 130.914 80.284 131.621L80.2777 131.634L79.5199 132.667L79.5136 132.674C78.9499 133.444 77.8663 133.607 77.096 133.043C76.3256 132.479 76.1627 131.396 76.7264 130.626C76.7452 130.6 76.7703 130.569 76.7953 130.538Z" fill="url(#paint105_linear_48_637)"/>
<path d="M90.6247 115.118L91.5204 114.184C91.8649 113.821 92.4411 113.808 92.8044 114.159C93.1489 114.491 93.1739 115.024 92.8795 115.387L92.8733 115.393L92.059 116.389C91.7271 116.796 91.1195 116.859 90.7124 116.521C90.3053 116.182 90.2427 115.581 90.5809 115.174C90.5934 115.155 90.6122 115.136 90.6247 115.118Z" fill="url(#paint106_linear_48_637)"/>
<path d="M105.45 100.675L105.926 100.242L105.494 100.719C105.481 100.731 105.463 100.731 105.45 100.719C105.438 100.712 105.438 100.693 105.45 100.675C105.45 100.681 105.45 100.681 105.45 100.675Z" fill="url(#paint107_linear_48_637)"/>
<defs>
<linearGradient id="paint0_linear_48_637" x1="588.156" y1="582.968" x2="588.75" y2="583.059" gradientUnits="userSpaceOnUse">
<stop stopColor="#FC365F"/>
<stop offset="0.984375" stopColor="#A00BFB"/>
</linearGradient>
<linearGradient id="paint1_linear_48_637" x1="571.928" y1="595.621" x2="575.371" y2="596.169" gradientUnits="userSpaceOnUse">
<stop stopColor="#FC365F"/>
<stop offset="0.984375" stopColor="#A00BFB"/>
</linearGradient>
<linearGradient id="paint2_linear_48_637" x1="555.124" y1="607.978" x2="560.512" y2="608.847" gradientUnits="userSpaceOnUse">
<stop stopColor="#FC365F"/>
<stop offset="0.984375" stopColor="#A00BFB"/>
</linearGradient>
<linearGradient id="paint3_linear_48_637" x1="537.697" y1="619.513" x2="544.726" y2="620.655" gradientUnits="userSpaceOnUse">
<stop stopColor="#FC365F"/>
<stop offset="0.984375" stopColor="#A00BFB"/>
</linearGradient>
<linearGradient id="paint4_linear_48_637" x1="519.692" y1="630.1" x2="528.136" y2="631.479" gradientUnits="userSpaceOnUse">
<stop stopColor="#FC365F"/>
<stop offset="0.984375" stopColor="#A00BFB"/>
</linearGradient>
<linearGradient id="paint5_linear_48_637" x1="501.078" y1="639.692" x2="510.815" y2="641.292" gradientUnits="userSpaceOnUse">
<stop stopColor="#FC365F"/>
<stop offset="0.984375" stopColor="#A00BFB"/>
</linearGradient>
<linearGradient id="paint6_linear_48_637" x1="482.013" y1="648.245" x2="492.833" y2="650.032" gradientUnits="userSpaceOnUse">
<stop stopColor="#FC365F"/>
<stop offset="0.984375" stopColor="#A00BFB"/>
</linearGradient>
<linearGradient id="paint7_linear_48_637" x1="462.514" y1="655.751" x2="474.232" y2="657.697" gradientUnits="userSpaceOnUse">
<stop stopColor="#FC365F"/>
<stop offset="0.984375" stopColor="#A00BFB"/>
</linearGradient>
<linearGradient id="paint8_linear_48_637" x1="442.662" y1="662.162" x2="455.12" y2="664.244" gradientUnits="userSpaceOnUse">
<stop stopColor="#FC365F"/>
<stop offset="0.984375" stopColor="#A00BFB"/>
</linearGradient>
<linearGradient id="paint9_linear_48_637" x1="422.509" y1="667.441" x2="435.563" y2="669.633" gradientUnits="userSpaceOnUse">
<stop stopColor="#FC365F"/>
<stop offset="0.984375" stopColor="#A00BFB"/>
</linearGradient>
<linearGradient id="paint10_linear_48_637" x1="402.109" y1="671.574" x2="415.636" y2="673.86" gradientUnits="userSpaceOnUse">
<stop stopColor="#FC365F"/>
<stop offset="0.984375" stopColor="#A00BFB"/>
</linearGradient>
<linearGradient id="paint11_linear_48_637" x1="381.589" y1="674.569" x2="395.398" y2="676.918" gradientUnits="userSpaceOnUse">
<stop stopColor="#FC365F"/>
<stop offset="0.984375" stopColor="#A00BFB"/>
</linearGradient>
<linearGradient id="paint12_linear_48_637" x1="360.979" y1="676.387" x2="374.973" y2="678.785" gradientUnits="userSpaceOnUse">
<stop stopColor="#FC365F"/>
<stop offset="0.984375" stopColor="#A00BFB"/>
</linearGradient>
<linearGradient id="paint13_linear_48_637" x1="340.311" y1="676.997" x2="354.399" y2="679.426" gradientUnits="userSpaceOnUse">
<stop stopColor="#FC365F"/>
<stop offset="0.984375" stopColor="#A00BFB"/>
</linearGradient>
<linearGradient id="paint14_linear_48_637" x1="319.771" y1="676.385" x2="333.774" y2="678.782" gradientUnits="userSpaceOnUse">
<stop stopColor="#FC365F"/>
<stop offset="0.984375" stopColor="#A00BFB"/>
</linearGradient>
<linearGradient id="paint15_linear_48_637" x1="299.338" y1="674.563" x2="313.175" y2="676.918" gradientUnits="userSpaceOnUse">
<stop stopColor="#FC365F"/>
<stop offset="0.984375" stopColor="#A00BFB"/>
</linearGradient>
<linearGradient id="paint16_linear_48_637" x1="279.09" y1="671.565" x2="292.644" y2="673.857" gradientUnits="userSpaceOnUse">
<stop stopColor="#FC365F"/>
<stop offset="0.984375" stopColor="#A00BFB"/>
</linearGradient>
<linearGradient id="paint17_linear_48_637" x1="259.175" y1="667.428" x2="272.264" y2="669.627" gradientUnits="userSpaceOnUse">
<stop stopColor="#FC365F"/>
<stop offset="0.984375" stopColor="#A00BFB"/>
</linearGradient>
<linearGradient id="paint18_linear_48_637" x1="239.62" y1="662.16" x2="252.109" y2="664.247" gradientUnits="userSpaceOnUse">
<stop stopColor="#FC365F"/>
<stop offset="0.984375" stopColor="#A00BFB"/>
</linearGradient>
<linearGradient id="paint19_linear_48_637" x1="220.489" y1="655.75" x2="232.239" y2="657.701" gradientUnits="userSpaceOnUse">
<stop stopColor="#FC365F"/>
<stop offset="0.984375" stopColor="#A00BFB"/>
</linearGradient>
<linearGradient id="paint20_linear_48_637" x1="201.892" y1="648.24" x2="212.759" y2="650.034" gradientUnits="userSpaceOnUse">
<stop stopColor="#FC365F"/>
<stop offset="0.984375" stopColor="#A00BFB"/>
</linearGradient>
<linearGradient id="paint21_linear_48_637" x1="183.891" y1="639.675" x2="193.678" y2="641.284" gradientUnits="userSpaceOnUse">
<stop stopColor="#FC365F"/>
<stop offset="0.984375" stopColor="#A00BFB"/>
</linearGradient>
<linearGradient id="paint22_linear_48_637" x1="166.566" y1="630.093" x2="175.043" y2="631.476" gradientUnits="userSpaceOnUse">
<stop stopColor="#FC365F"/>
<stop offset="0.984375" stopColor="#A00BFB"/>
</linearGradient>
<linearGradient id="paint23_linear_48_637" x1="149.966" y1="619.51" x2="157.034" y2="620.657" gradientUnits="userSpaceOnUse">
<stop stopColor="#FC365F"/>
<stop offset="0.984375" stopColor="#A00BFB"/>
</linearGradient>
<linearGradient id="paint24_linear_48_637" x1="134.167" y1="607.981" x2="139.581" y2="608.854" gradientUnits="userSpaceOnUse">
<stop stopColor="#FC365F"/>
<stop offset="0.984375" stopColor="#A00BFB"/>
</linearGradient>
<linearGradient id="paint25_linear_48_637" x1="119.296" y1="595.628" x2="122.756" y2="596.179" gradientUnits="userSpaceOnUse">
<stop stopColor="#FC365F"/>
<stop offset="0.984375" stopColor="#A00BFB"/>
</linearGradient>
<linearGradient id="paint26_linear_48_637" x1="105.876" y1="582.968" x2="106.47" y2="583.059" gradientUnits="userSpaceOnUse">
<stop stopColor="#FC365F"/>
<stop offset="0.984375" stopColor="#A00BFB"/>
</linearGradient>
<linearGradient id="paint27_linear_48_637" x1="582.936" y1="105.908" x2="583.53" y2="105.999" gradientUnits="userSpaceOnUse">
<stop stopColor="#FC365F"/>
<stop offset="0.984375" stopColor="#A00BFB"/>
</linearGradient>
<linearGradient id="paint28_linear_48_637" x1="595.543" y1="119.367" x2="598.863" y2="119.855" gradientUnits="userSpaceOnUse">
<stop stopColor="#FC365F"/>
<stop offset="0.984375" stopColor="#A00BFB"/>
</linearGradient>
<linearGradient id="paint29_linear_48_637" x1="607.869" y1="134.279" x2="613.013" y2="135.027" gradientUnits="userSpaceOnUse">
<stop stopColor="#FC365F"/>
<stop offset="0.984375" stopColor="#A00BFB"/>
</linearGradient>
<linearGradient id="paint30_linear_48_637" x1="619.379" y1="150.109" x2="626.039" y2="151.069" gradientUnits="userSpaceOnUse">
<stop stopColor="#FC365F"/>
<stop offset="0.984375" stopColor="#A00BFB"/>
</linearGradient>
<linearGradient id="paint31_linear_48_637" x1="629.943" y1="166.735" x2="637.907" y2="167.877" gradientUnits="userSpaceOnUse">
<stop stopColor="#FC365F"/>
<stop offset="0.984375" stopColor="#A00BFB"/>
</linearGradient>
<linearGradient id="paint32_linear_48_637" x1="639.516" y1="184.091" x2="648.644" y2="185.393" gradientUnits="userSpaceOnUse">
<stop stopColor="#FC365F"/>
<stop offset="0.984375" stopColor="#A00BFB"/>
</linearGradient>
<linearGradient id="paint33_linear_48_637" x1="648.059" y1="202.102" x2="658.154" y2="203.534" gradientUnits="userSpaceOnUse">
<stop stopColor="#FC365F"/>
<stop offset="0.984375" stopColor="#A00BFB"/>
</linearGradient>
<linearGradient id="paint34_linear_48_637" x1="655.545" y1="220.721" x2="666.428" y2="222.257" gradientUnits="userSpaceOnUse">
<stop stopColor="#FC365F"/>
<stop offset="0.984375" stopColor="#A00BFB"/>
</linearGradient>
<linearGradient id="paint35_linear_48_637" x1="661.945" y1="239.851" x2="673.449" y2="241.464" gradientUnits="userSpaceOnUse">
<stop stopColor="#FC365F"/>
<stop offset="0.984375" stopColor="#A00BFB"/>
</linearGradient>
<linearGradient id="paint36_linear_48_637" x1="667.216" y1="259.413" x2="679.217" y2="261.087" gradientUnits="userSpaceOnUse">
<stop stopColor="#FC365F"/>
<stop offset="0.984375" stopColor="#A00BFB"/>
</linearGradient>
<linearGradient id="paint37_linear_48_637" x1="671.343" y1="279.355" x2="683.707" y2="281.069" gradientUnits="userSpaceOnUse">
<stop stopColor="#FC365F"/>
<stop offset="0.984375" stopColor="#A00BFB"/>
</linearGradient>
<linearGradient id="paint38_linear_48_637" x1="674.336" y1="299.596" x2="686.887" y2="301.326" gradientUnits="userSpaceOnUse">
<stop stopColor="#FC365F"/>
<stop offset="0.984375" stopColor="#A00BFB"/>
</linearGradient>
<linearGradient id="paint39_linear_48_637" x1="676.152" y1="320.021" x2="688.785" y2="321.749" gradientUnits="userSpaceOnUse">
<stop stopColor="#FC365F"/>
<stop offset="0.984375" stopColor="#A00BFB"/>
</linearGradient>
<linearGradient id="paint40_linear_48_637" x1="676.761" y1="340.592" x2="689.405" y2="342.31" gradientUnits="userSpaceOnUse">
<stop stopColor="#FC365F"/>
<stop offset="0.984375" stopColor="#A00BFB"/>
</linearGradient>
<linearGradient id="paint41_linear_48_637" x1="676.149" y1="361.221" x2="688.797" y2="362.952" gradientUnits="userSpaceOnUse">
<stop stopColor="#FC365F"/>
<stop offset="0.984375" stopColor="#A00BFB"/>
</linearGradient>
<linearGradient id="paint42_linear_48_637" x1="674.336" y1="381.82" x2="686.901" y2="383.55" gradientUnits="userSpaceOnUse">
<stop stopColor="#FC365F"/>
<stop offset="0.984375" stopColor="#A00BFB"/>
</linearGradient>
<linearGradient id="paint43_linear_48_637" x1="671.334" y1="402.342" x2="683.713" y2="404.057" gradientUnits="userSpaceOnUse">
<stop stopColor="#FC365F"/>
<stop offset="0.984375" stopColor="#A00BFB"/>
</linearGradient>
<linearGradient id="paint44_linear_48_637" x1="667.209" y1="422.723" x2="679.234" y2="424.4" gradientUnits="userSpaceOnUse">
<stop stopColor="#FC365F"/>
<stop offset="0.984375" stopColor="#A00BFB"/>
</linearGradient>
<linearGradient id="paint45_linear_48_637" x1="661.943" y1="442.864" x2="673.475" y2="444.481" gradientUnits="userSpaceOnUse">
<stop stopColor="#FC365F"/>
<stop offset="0.984375" stopColor="#A00BFB"/>
</linearGradient>
<linearGradient id="paint46_linear_48_637" x1="655.544" y1="462.712" x2="666.452" y2="464.25" gradientUnits="userSpaceOnUse">
<stop stopColor="#FC365F"/>
<stop offset="0.984375" stopColor="#A00BFB"/>
</linearGradient>
<linearGradient id="paint47_linear_48_637" x1="648.047" y1="482.178" x2="658.19" y2="483.617" gradientUnits="userSpaceOnUse">
<stop stopColor="#FC365F"/>
<stop offset="0.984375" stopColor="#A00BFB"/>
</linearGradient>
<linearGradient id="paint48_linear_48_637" x1="639.498" y1="501.231" x2="648.668" y2="502.537" gradientUnits="userSpaceOnUse">
<stop stopColor="#FC365F"/>
<stop offset="0.984375" stopColor="#A00BFB"/>
</linearGradient>
<linearGradient id="paint49_linear_48_637" x1="629.936" y1="519.834" x2="637.931" y2="520.981" gradientUnits="userSpaceOnUse">
<stop stopColor="#FC365F"/>
<stop offset="0.984375" stopColor="#A00BFB"/>
</linearGradient>
<linearGradient id="paint50_linear_48_637" x1="619.374" y1="537.805" x2="626.074" y2="538.772" gradientUnits="userSpaceOnUse">
<stop stopColor="#FC365F"/>
<stop offset="0.984375" stopColor="#A00BFB"/>
</linearGradient>
<linearGradient id="paint51_linear_48_637" x1="607.878" y1="555.207" x2="613.044" y2="555.958" gradientUnits="userSpaceOnUse">
<stop stopColor="#FC365F"/>
<stop offset="0.984375" stopColor="#A00BFB"/>
</linearGradient>
<linearGradient id="paint52_linear_48_637" x1="595.549" y1="571.978" x2="598.882" y2="572.467" gradientUnits="userSpaceOnUse">
<stop stopColor="#FC365F"/>
<stop offset="0.984375" stopColor="#A00BFB"/>
</linearGradient>
<linearGradient id="paint53_linear_48_637" x1="582.936" y1="588.182" x2="583.53" y2="588.273" gradientUnits="userSpaceOnUse">
<stop stopColor="#FC365F"/>
<stop offset="0.984375" stopColor="#A00BFB"/>
</linearGradient>
<linearGradient id="paint54_linear_48_637" x1="100.177" y1="105.423" x2="100.77" y2="105.514" gradientUnits="userSpaceOnUse">
<stop stopColor="#FC365F"/>
<stop offset="0.984375" stopColor="#A00BFB"/>
</linearGradient>
<linearGradient id="paint55_linear_48_637" x1="113.586" y1="90.1789" x2="117.025" y2="90.7262" gradientUnits="userSpaceOnUse">
<stop stopColor="#FC365F"/>
<stop offset="0.984375" stopColor="#A00BFB"/>
</linearGradient>
<linearGradient id="paint56_linear_48_637" x1="128.462" y1="76.0911" x2="133.85" y2="76.9594" gradientUnits="userSpaceOnUse">
<stop stopColor="#FC365F"/>
<stop offset="0.984375" stopColor="#A00BFB"/>
</linearGradient>
<linearGradient id="paint57_linear_48_637" x1="144.264" y1="63.1173" x2="151.293" y2="64.259" gradientUnits="userSpaceOnUse">
<stop stopColor="#FC365F"/>
<stop offset="0.984375" stopColor="#A00BFB"/>
</linearGradient>
<linearGradient id="paint58_linear_48_637" x1="160.868" y1="51.2948" x2="169.312" y2="52.6737" gradientUnits="userSpaceOnUse">
<stop stopColor="#FC365F"/>
<stop offset="0.984375" stopColor="#A00BFB"/>
</linearGradient>
<linearGradient id="paint59_linear_48_637" x1="178.199" y1="40.5983" x2="187.936" y2="42.1987" gradientUnits="userSpaceOnUse">
<stop stopColor="#FC365F"/>
<stop offset="0.984375" stopColor="#A00BFB"/>
</linearGradient>
<linearGradient id="paint60_linear_48_637" x1="196.195" y1="31.1234" x2="207.017" y2="32.9104" gradientUnits="userSpaceOnUse">
<stop stopColor="#FC365F"/>
<stop offset="0.984375" stopColor="#A00BFB"/>
</linearGradient>
<linearGradient id="paint61_linear_48_637" x1="214.8" y1="22.8787" x2="226.522" y2="24.826" gradientUnits="userSpaceOnUse">
<stop stopColor="#FC365F"/>
<stop offset="0.984375" stopColor="#A00BFB"/>
</linearGradient>
<linearGradient id="paint62_linear_48_637" x1="233.912" y1="15.8815" x2="246.373" y2="17.9645" gradientUnits="userSpaceOnUse">
<stop stopColor="#FC365F"/>
<stop offset="0.984375" stopColor="#A00BFB"/>
</linearGradient>
<linearGradient id="paint63_linear_48_637" x1="253.467" y1="10.1334" x2="266.525" y2="12.3275" gradientUnits="userSpaceOnUse">
<stop stopColor="#FC365F"/>
<stop offset="0.984375" stopColor="#A00BFB"/>
</linearGradient>
<linearGradient id="paint64_linear_48_637" x1="273.403" y1="5.65809" x2="286.93" y2="7.94438" gradientUnits="userSpaceOnUse">
<stop stopColor="#FC365F"/>
<stop offset="0.984375" stopColor="#A00BFB"/>
</linearGradient>
<linearGradient id="paint65_linear_48_637" x1="293.638" y1="2.48756" x2="307.449" y2="4.83653" gradientUnits="userSpaceOnUse">
<stop stopColor="#FC365F"/>
<stop offset="0.984375" stopColor="#A00BFB"/>
</linearGradient>
<linearGradient id="paint66_linear_48_637" x1="314.055" y1="0.59639" x2="328.049" y2="2.99434" gradientUnits="userSpaceOnUse">
<stop stopColor="#FC365F"/>
<stop offset="0.984375" stopColor="#A00BFB"/>
</linearGradient>
<linearGradient id="paint67_linear_48_637" x1="334.624" y1="-0.0203404" x2="348.712" y2="2.40924" gradientUnits="userSpaceOnUse">
<stop stopColor="#FC365F"/>
<stop offset="0.984375" stopColor="#A00BFB"/>
</linearGradient>
<linearGradient id="paint68_linear_48_637" x1="355.255" y1="0.584376" x2="369.257" y2="2.98205" gradientUnits="userSpaceOnUse">
<stop stopColor="#FC365F"/>
<stop offset="0.984375" stopColor="#A00BFB"/>
</linearGradient>
<linearGradient id="paint69_linear_48_637" x1="375.863" y1="2.4747" x2="389.7" y2="4.83009" gradientUnits="userSpaceOnUse">
<stop stopColor="#FC365F"/>
<stop offset="0.984375" stopColor="#A00BFB"/>
</linearGradient>
<linearGradient id="paint70_linear_48_637" x1="396.39" y1="5.65296" x2="409.943" y2="7.94559" gradientUnits="userSpaceOnUse">
<stop stopColor="#FC365F"/>
<stop offset="0.984375" stopColor="#A00BFB"/>
</linearGradient>
<linearGradient id="paint71_linear_48_637" x1="416.77" y1="10.1164" x2="429.859" y2="12.316" gradientUnits="userSpaceOnUse">
<stop stopColor="#FC365F"/>
<stop offset="0.984375" stopColor="#A00BFB"/>
</linearGradient>
<linearGradient id="paint72_linear_48_637" x1="436.924" y1="15.8564" x2="449.412" y2="17.9434" gradientUnits="userSpaceOnUse">
<stop stopColor="#FC365F"/>
<stop offset="0.984375" stopColor="#A00BFB"/>
</linearGradient>
<linearGradient id="paint73_linear_48_637" x1="456.79" y1="22.8558" x2="468.54" y2="24.8077" gradientUnits="userSpaceOnUse">
<stop stopColor="#FC365F"/>
<stop offset="0.984375" stopColor="#A00BFB"/>
</linearGradient>
<linearGradient id="paint74_linear_48_637" x1="476.271" y1="31.0878" x2="487.137" y2="32.882" gradientUnits="userSpaceOnUse">
<stop stopColor="#FC365F"/>
<stop offset="0.984375" stopColor="#A00BFB"/>
</linearGradient>
<linearGradient id="paint75_linear_48_637" x1="495.336" y1="40.5763" x2="505.124" y2="42.186" gradientUnits="userSpaceOnUse">
<stop stopColor="#FC365F"/>
<stop offset="0.984375" stopColor="#A00BFB"/>
</linearGradient>
<linearGradient id="paint76_linear_48_637" x1="513.961" y1="51.2709" x2="522.438" y2="52.6546" gradientUnits="userSpaceOnUse">
<stop stopColor="#FC365F"/>
<stop offset="0.984375" stopColor="#A00BFB"/>
</linearGradient>
<linearGradient id="paint77_linear_48_637" x1="531.963" y1="63.0769" x2="539.031" y2="64.2234" gradientUnits="userSpaceOnUse">
<stop stopColor="#FC365F"/>
<stop offset="0.984375" stopColor="#A00BFB"/>
</linearGradient>
<linearGradient id="paint78_linear_48_637" x1="549.393" y1="76.061" x2="554.807" y2="76.9339" gradientUnits="userSpaceOnUse">
<stop stopColor="#FC365F"/>
<stop offset="0.984375" stopColor="#A00BFB"/>
</linearGradient>
<linearGradient id="paint79_linear_48_637" x1="566.197" y1="90.161" x2="569.657" y2="90.7129" gradientUnits="userSpaceOnUse">
<stop stopColor="#FC365F"/>
<stop offset="0.984375" stopColor="#A00BFB"/>
</linearGradient>
<linearGradient id="paint80_linear_48_637" x1="582.451" y1="105.423" x2="583.044" y2="105.514" gradientUnits="userSpaceOnUse">
<stop stopColor="#FC365F"/>
<stop offset="0.984375" stopColor="#A00BFB"/>
</linearGradient>
<linearGradient id="paint81_linear_48_637" x1="105.388" y1="582.379" x2="106.031" y2="582.452" gradientUnits="userSpaceOnUse">
<stop stopColor="#FFBC21"/>
<stop offset="0.1344" stopColor="#FD843A"/>
<stop offset="0.2742" stopColor="#FC5554"/>
<stop offset="0.4301" stopColor="#FC365F"/>
<stop offset="0.6129" stopColor="#F02E6B"/>
<stop offset="0.817759" stopColor="#DD3578"/>
<stop offset="1" stopColor="#81399D"/>
</linearGradient>
<linearGradient id="paint82_linear_48_637" x1="90.0835" y1="565.702" x2="93.6757" y2="566.093" gradientUnits="userSpaceOnUse">
<stop stopColor="#FFBC21"/>
<stop offset="0.1344" stopColor="#FD843A"/>
<stop offset="0.2742" stopColor="#FC5554"/>
<stop offset="0.4301" stopColor="#FC365F"/>
<stop offset="0.6129" stopColor="#F02E6B"/>
<stop offset="0.817759" stopColor="#DD3578"/>
<stop offset="1" stopColor="#81399D"/>
</linearGradient>
<linearGradient id="paint83_linear_48_637" x1="75.9555" y1="548.592" x2="81.5189" y2="549.191" gradientUnits="userSpaceOnUse">
<stop stopColor="#FFBC21"/>
<stop offset="0.1344" stopColor="#FD843A"/>
<stop offset="0.2742" stopColor="#FC5554"/>
<stop offset="0.4301" stopColor="#FC365F"/>
<stop offset="0.6129" stopColor="#F02E6B"/>
<stop offset="0.817759" stopColor="#DD3578"/>
<stop offset="1" stopColor="#81399D"/>
</linearGradient>
<linearGradient id="paint84_linear_48_637" x1="62.9481" y1="530.907" x2="70.151" y2="531.676" gradientUnits="userSpaceOnUse">
<stop stopColor="#FFBC21"/>
<stop offset="0.1344" stopColor="#FD843A"/>
<stop offset="0.2742" stopColor="#FC5554"/>
<stop offset="0.4301" stopColor="#FC365F"/>
<stop offset="0.6129" stopColor="#F02E6B"/>
<stop offset="0.817759" stopColor="#DD3578"/>
<stop offset="1" stopColor="#81399D"/>
</linearGradient>
<linearGradient id="paint85_linear_48_637" x1="51.0971" y1="512.678" x2="59.7083" y2="513.592" gradientUnits="userSpaceOnUse">
<stop stopColor="#FFBC21"/>
<stop offset="0.1344" stopColor="#FD843A"/>
<stop offset="0.2742" stopColor="#FC5554"/>
<stop offset="0.4301" stopColor="#FC365F"/>
<stop offset="0.6129" stopColor="#F02E6B"/>
<stop offset="0.817759" stopColor="#DD3578"/>
<stop offset="1" stopColor="#81399D"/>
</linearGradient>
<linearGradient id="paint86_linear_48_637" x1="40.3746" y1="493.861" x2="50.2448" y2="494.902" gradientUnits="userSpaceOnUse">
<stop stopColor="#FFBC21"/>
<stop offset="0.1344" stopColor="#FD843A"/>
<stop offset="0.2742" stopColor="#FC5554"/>
<stop offset="0.4301" stopColor="#FC365F"/>
<stop offset="0.6129" stopColor="#F02E6B"/>
<stop offset="0.817759" stopColor="#DD3578"/>
<stop offset="1" stopColor="#81399D"/>
</linearGradient>
<linearGradient id="paint87_linear_48_637" x1="30.8785" y1="474.617" x2="41.8004" y2="475.764" gradientUnits="userSpaceOnUse">
<stop stopColor="#FFBC21"/>
<stop offset="0.1344" stopColor="#FD843A"/>
<stop offset="0.2742" stopColor="#FC5554"/>
<stop offset="0.4301" stopColor="#FC365F"/>
<stop offset="0.6129" stopColor="#F02E6B"/>
<stop offset="0.817759" stopColor="#DD3578"/>
<stop offset="1" stopColor="#81399D"/>
</linearGradient>
<linearGradient id="paint88_linear_48_637" x1="22.6165" y1="454.983" x2="34.3817" y2="456.211" gradientUnits="userSpaceOnUse">
<stop stopColor="#FFBC21"/>
<stop offset="0.1344" stopColor="#FD843A"/>
<stop offset="0.2742" stopColor="#FC5554"/>
<stop offset="0.4301" stopColor="#FC365F"/>
<stop offset="0.6129" stopColor="#F02E6B"/>
<stop offset="0.817759" stopColor="#DD3578"/>
<stop offset="1" stopColor="#81399D"/>
</linearGradient>
<linearGradient id="paint89_linear_48_637" x1="15.6057" y1="435.014" x2="28.0405" y2="436.304" gradientUnits="userSpaceOnUse">
<stop stopColor="#FFBC21"/>
<stop offset="0.1344" stopColor="#FD843A"/>
<stop offset="0.2742" stopColor="#FC5554"/>
<stop offset="0.4301" stopColor="#FC365F"/>
<stop offset="0.6129" stopColor="#F02E6B"/>
<stop offset="0.817759" stopColor="#DD3578"/>
<stop offset="1" stopColor="#81399D"/>
</linearGradient>
<linearGradient id="paint90_linear_48_637" x1="9.84674" y1="414.766" x2="22.8173" y2="416.104" gradientUnits="userSpaceOnUse">
<stop stopColor="#FFBC21"/>
<stop offset="0.1344" stopColor="#FD843A"/>
<stop offset="0.2742" stopColor="#FC5554"/>
<stop offset="0.4301" stopColor="#FC365F"/>
<stop offset="0.6129" stopColor="#F02E6B"/>
<stop offset="0.817759" stopColor="#DD3578"/>
<stop offset="1" stopColor="#81399D"/>
</linearGradient>
<linearGradient id="paint91_linear_48_637" x1="5.36336" y1="394.291" x2="18.7256" y2="395.662" gradientUnits="userSpaceOnUse">
<stop stopColor="#FFBC21"/>
<stop offset="0.1344" stopColor="#FD843A"/>
<stop offset="0.2742" stopColor="#FC5554"/>
<stop offset="0.4301" stopColor="#FC365F"/>
<stop offset="0.6129" stopColor="#F02E6B"/>
<stop offset="0.817759" stopColor="#DD3578"/>
<stop offset="1" stopColor="#81399D"/>
</linearGradient>
<linearGradient id="paint92_linear_48_637" x1="2.18876" y1="373.727" x2="15.752" y2="375.11" gradientUnits="userSpaceOnUse">
<stop stopColor="#FFBC21"/>
<stop offset="0.1344" stopColor="#FD843A"/>
<stop offset="0.2742" stopColor="#FC5554"/>
<stop offset="0.4301" stopColor="#FC365F"/>
<stop offset="0.6129" stopColor="#F02E6B"/>
<stop offset="0.817759" stopColor="#DD3578"/>
<stop offset="1" stopColor="#81399D"/>
</linearGradient>
<linearGradient id="paint93_linear_48_637" x1="0.295998" y1="353.086" x2="13.9452" y2="354.467" gradientUnits="userSpaceOnUse">
<stop stopColor="#FFBC21"/>
<stop offset="0.1344" stopColor="#FD843A"/>
<stop offset="0.2742" stopColor="#FC5554"/>
<stop offset="0.4301" stopColor="#FC365F"/>
<stop offset="0.6129" stopColor="#F02E6B"/>
<stop offset="0.817759" stopColor="#DD3578"/>
<stop offset="1" stopColor="#81399D"/>
</linearGradient>
<linearGradient id="paint94_linear_48_637" x1="-0.321026" y1="332.403" x2="13.3384" y2="333.776" gradientUnits="userSpaceOnUse">
<stop stopColor="#FFBC21"/>
<stop offset="0.1344" stopColor="#FD843A"/>
<stop offset="0.2742" stopColor="#FC5554"/>
<stop offset="0.4301" stopColor="#FC365F"/>
<stop offset="0.6129" stopColor="#F02E6B"/>
<stop offset="0.817759" stopColor="#DD3578"/>
<stop offset="1" stopColor="#81399D"/>
</linearGradient>
<linearGradient id="paint95_linear_48_637" x1="0.283525" y1="311.877" x2="13.9491" y2="313.261" gradientUnits="userSpaceOnUse">
<stop stopColor="#FFBC21"/>
<stop offset="0.1344" stopColor="#FD843A"/>
<stop offset="0.2742" stopColor="#FC5554"/>
<stop offset="0.4301" stopColor="#FC365F"/>
<stop offset="0.6129" stopColor="#F02E6B"/>
<stop offset="0.817759" stopColor="#DD3578"/>
<stop offset="1" stopColor="#81399D"/>
</linearGradient>
<linearGradient id="paint96_linear_48_637" x1="2.17572" y1="291.471" x2="15.7538" y2="292.854" gradientUnits="userSpaceOnUse">
<stop stopColor="#FFBC21"/>
<stop offset="0.1344" stopColor="#FD843A"/>
<stop offset="0.2742" stopColor="#FC5554"/>
<stop offset="0.4301" stopColor="#FC365F"/>
<stop offset="0.6129" stopColor="#F02E6B"/>
<stop offset="0.817759" stopColor="#DD3578"/>
<stop offset="1" stopColor="#81399D"/>
</linearGradient>
<linearGradient id="paint97_linear_48_637" x1="5.35778" y1="271.275" x2="18.7361" y2="272.646" gradientUnits="userSpaceOnUse">
<stop stopColor="#FFBC21"/>
<stop offset="0.1344" stopColor="#FD843A"/>
<stop offset="0.2742" stopColor="#FC5554"/>
<stop offset="0.4301" stopColor="#FC365F"/>
<stop offset="0.6129" stopColor="#F02E6B"/>
<stop offset="0.817759" stopColor="#DD3578"/>
<stop offset="1" stopColor="#81399D"/>
</linearGradient>
<linearGradient id="paint98_linear_48_637" x1="9.83321" y1="251.427" x2="22.8332" y2="252.769" gradientUnits="userSpaceOnUse">
<stop stopColor="#FFBC21"/>
<stop offset="0.1344" stopColor="#FD843A"/>
<stop offset="0.2742" stopColor="#FC5554"/>
<stop offset="0.4301" stopColor="#FC365F"/>
<stop offset="0.6129" stopColor="#F02E6B"/>
<stop offset="0.817759" stopColor="#DD3578"/>
<stop offset="1" stopColor="#81399D"/>
</linearGradient>
<linearGradient id="paint99_linear_48_637" x1="15.5799" y1="231.968" x2="28.0456" y2="233.262" gradientUnits="userSpaceOnUse">
<stop stopColor="#FFBC21"/>
<stop offset="0.1344" stopColor="#FD843A"/>
<stop offset="0.2742" stopColor="#FC5554"/>
<stop offset="0.4301" stopColor="#FC365F"/>
<stop offset="0.6129" stopColor="#F02E6B"/>
<stop offset="0.817759" stopColor="#DD3578"/>
<stop offset="1" stopColor="#81399D"/>
</linearGradient>
<linearGradient id="paint100_linear_48_637" x1="22.593" y1="212.96" x2="34.3853" y2="214.191" gradientUnits="userSpaceOnUse">
<stop stopColor="#FFBC21"/>
<stop offset="0.1344" stopColor="#FD843A"/>
<stop offset="0.2742" stopColor="#FC5554"/>
<stop offset="0.4301" stopColor="#FC365F"/>
<stop offset="0.6129" stopColor="#F02E6B"/>
<stop offset="0.817759" stopColor="#DD3578"/>
<stop offset="1" stopColor="#81399D"/>
</linearGradient>
<linearGradient id="paint101_linear_48_637" x1="30.843" y1="194.497" x2="41.81" y2="195.648" gradientUnits="userSpaceOnUse">
<stop stopColor="#FFBC21"/>
<stop offset="0.1344" stopColor="#FD843A"/>
<stop offset="0.2742" stopColor="#FC5554"/>
<stop offset="0.4301" stopColor="#FC365F"/>
<stop offset="0.6129" stopColor="#F02E6B"/>
<stop offset="0.817759" stopColor="#DD3578"/>
<stop offset="1" stopColor="#81399D"/>
</linearGradient>
<linearGradient id="paint102_linear_48_637" x1="40.3518" y1="176.665" x2="50.2671" y2="177.711" gradientUnits="userSpaceOnUse">
<stop stopColor="#FFBC21"/>
<stop offset="0.1344" stopColor="#FD843A"/>
<stop offset="0.2742" stopColor="#FC5554"/>
<stop offset="0.4301" stopColor="#FC365F"/>
<stop offset="0.6129" stopColor="#F02E6B"/>
<stop offset="0.817759" stopColor="#DD3578"/>
<stop offset="1" stopColor="#81399D"/>
</linearGradient>
<linearGradient id="paint103_linear_48_637" x1="51.0724" y1="159.548" x2="59.719" y2="160.466" gradientUnits="userSpaceOnUse">
<stop stopColor="#FFBC21"/>
<stop offset="0.1344" stopColor="#FD843A"/>
<stop offset="0.2742" stopColor="#FC5554"/>
<stop offset="0.4301" stopColor="#FC365F"/>
<stop offset="0.6129" stopColor="#F02E6B"/>
<stop offset="0.817759" stopColor="#DD3578"/>
<stop offset="1" stopColor="#81399D"/>
</linearGradient>
<linearGradient id="paint104_linear_48_637" x1="62.9067" y1="143.17" x2="70.1591" y2="143.945" gradientUnits="userSpaceOnUse">
<stop stopColor="#FFBC21"/>
<stop offset="0.1344" stopColor="#FD843A"/>
<stop offset="0.2742" stopColor="#FC5554"/>
<stop offset="0.4301" stopColor="#FC365F"/>
<stop offset="0.6129" stopColor="#F02E6B"/>
<stop offset="0.817759" stopColor="#DD3578"/>
<stop offset="1" stopColor="#81399D"/>
</linearGradient>
<linearGradient id="paint105_linear_48_637" x1="75.931" y1="127.631" x2="81.5183" y2="128.232" gradientUnits="userSpaceOnUse">
<stop stopColor="#FFBC21"/>
<stop offset="0.1344" stopColor="#FD843A"/>
<stop offset="0.2742" stopColor="#FC5554"/>
<stop offset="0.4301" stopColor="#FC365F"/>
<stop offset="0.6129" stopColor="#F02E6B"/>
<stop offset="0.817759" stopColor="#DD3578"/>
<stop offset="1" stopColor="#81399D"/>
</linearGradient>
<linearGradient id="paint106_linear_48_637" x1="90.0655" y1="113.068" x2="93.6705" y2="113.46" gradientUnits="userSpaceOnUse">
<stop stopColor="#FFBC21"/>
<stop offset="0.1344" stopColor="#FD843A"/>
<stop offset="0.2742" stopColor="#FC5554"/>
<stop offset="0.4301" stopColor="#FC365F"/>
<stop offset="0.6129" stopColor="#F02E6B"/>
<stop offset="0.817759" stopColor="#DD3578"/>
<stop offset="1" stopColor="#81399D"/>
</linearGradient>
<linearGradient id="paint107_linear_48_637" x1="105.388" y1="100.099" x2="106.031" y2="100.172" gradientUnits="userSpaceOnUse">
<stop stopColor="#FFBC21"/>
<stop offset="0.1344" stopColor="#FD843A"/>
<stop offset="0.2742" stopColor="#FC5554"/>
<stop offset="0.4301" stopColor="#FC365F"/>
<stop offset="0.6129" stopColor="#F02E6B"/>
<stop offset="0.817759" stopColor="#DD3578"/>
<stop offset="1" stopColor="#81399D"/>
</linearGradient>
</defs>
</svg>
