<svg width="199" height="189" viewBox="0 0 199 189" fill="none" xmlns="http://www.w3.org/2000/svg">
<mask id="mask0_199_657" style="mask-type:alpha" maskUnits="userSpaceOnUse" x="0" y="0" width="129" height="129">
<circle cx="64.5" cy="64.5" r="63.6103" fill="#C4C4C4" stroke="#F8BB54" stroke-width="1.77931"/>
</mask>
<g mask="url(#mask0_199_657)">
<path d="M-57.8247 39.4475C-57.8247 39.4475 -11.4917 31.3339 0.462808 2.93656C11.8957 -24.2854 58.991 -31.6025 58.991 -31.6025" stroke="#F8BB54" stroke-width="2" stroke-miterlimit="10"/>
<path d="M-57.8247 53.0961C-57.8247 53.0961 -0.981341 43.7316 13.6607 9.45772C27.6209 -23.2617 85.3467 -31.6025 85.3467 -31.6025" stroke="#F8BB54" stroke-width="2" stroke-miterlimit="10"/>
<path d="M-57.8247 66.783C-57.8247 66.783 9.48873 56.1293 26.8185 16.0547C43.346 -22.2758 111.703 -31.6025 111.703 -31.6025" stroke="#F8BB54" stroke-width="2" stroke-miterlimit="10"/>
<path d="M-57.8247 80.4319C-57.8247 80.4319 19.999 68.5271 40.0165 22.5759C59.0713 -21.2521 138.058 -31.6025 138.058 -31.6025" stroke="#F8BB54" stroke-width="2" stroke-miterlimit="10"/>
<path d="M-57.8247 94.0808C-57.8247 94.0808 30.5092 80.9249 53.2144 29.1348C74.7963 -20.2285 164.374 -31.6025 164.374 -31.6025" stroke="#F8BB54" stroke-width="2" stroke-miterlimit="10"/>
<path d="M-57.8247 107.767C-57.8247 107.767 40.9792 93.3604 66.3722 35.6938C90.5616 -19.2428 190.73 -31.6025 190.73 -31.6025" stroke="#F8BB54" stroke-width="2" stroke-miterlimit="10"/>
<path d="M-57.8247 121.416C-57.8247 121.416 51.4894 105.72 79.5702 42.253C106.287 -18.2192 217.085 -31.6025 217.085 -31.6025" stroke="#F8BB54" stroke-width="2" stroke-miterlimit="10"/>
<path d="M-57.8247 135.065C-57.8247 135.065 61.9998 118.118 92.7279 48.7742C122.012 -17.1955 243.441 -31.6025 243.441 -31.6025" stroke="#F8BB54" stroke-width="2" stroke-miterlimit="10"/>
<path d="M-57.8247 148.752C-57.8247 148.752 72.4696 130.554 105.926 55.3709C137.737 -16.2098 269.757 -31.6025 269.757 -31.6025" stroke="#F8BB54" stroke-width="2" stroke-miterlimit="10"/>
<path d="M-57.8247 162.4C-57.8247 162.4 82.9801 142.951 119.084 61.9301C153.463 -15.1861 296.113 -31.6025 296.113 -31.6025" stroke="#F8BB54" stroke-width="2" stroke-miterlimit="10"/>
<path d="M-57.8247 176.087C-57.8247 176.087 93.4901 155.349 132.282 68.4891C169.188 -14.1625 322.468 -31.6025 322.468 -31.6025" stroke="#F8BB54" stroke-width="2" stroke-miterlimit="10"/>
<path d="M-57.8247 189.737C-57.8247 189.737 103.96 167.747 145.439 75.0483C184.913 -13.1766 348.823 -31.6025 348.823 -31.6025" stroke="#F8BB54" stroke-width="2" stroke-miterlimit="10"/>
<path d="M-57.8247 203.384C-57.8247 203.384 114.47 180.145 158.637 81.5692C200.638 -12.1529 375.179 -31.6025 375.179 -31.6025" stroke="#F8BB54" stroke-width="2" stroke-miterlimit="10"/>
<path d="M-57.8247 217.071C-57.8247 217.071 124.981 192.542 171.835 88.1662C216.363 -11.1292 401.496 -31.6025 401.496 -31.6025" stroke="#F8BB54" stroke-width="2" stroke-miterlimit="10"/>
<path d="M-57.8247 230.721C-57.8247 230.721 135.451 204.94 184.993 94.6873C232.089 -10.1436 427.851 -31.6025 427.851 -31.6025" stroke="#F8BB54" stroke-width="2" stroke-miterlimit="10"/>
<path d="M-57.8247 244.371C-57.8247 244.371 145.961 217.338 198.191 101.246C247.814 -9.11988 454.207 -31.6025 454.207 -31.6025" stroke="#F8BB54" stroke-width="2" stroke-miterlimit="10"/>
<path d="M-57.8247 258.058C-57.8247 258.058 156.471 229.773 211.349 107.806C263.539 -8.0962 480.563 -31.6025 480.563 -31.6025" stroke="#F8BB54" stroke-width="2" stroke-miterlimit="10"/>
<path d="M-57.8247 271.705C-57.8247 271.705 166.941 242.134 224.547 114.364C279.264 -7.11058 506.879 -31.6025 506.879 -31.6025" stroke="#F8BB54" stroke-width="2" stroke-miterlimit="10"/>
</g>
</svg>
