<svg width="60" height="60" viewBox="0 0 60 60" fill="none" xmlns="http://www.w3.org/2000/svg">
<path fill-rule="evenodd" clip-rule="evenodd" d="M17.4229 2.42296C17.6835 2.4115 17.9437 2.4544 18.1868 2.54892C18.43 2.64344 18.6509 2.78753 18.8353 2.97201C19.0198 3.15649 19.1639 3.37733 19.2584 3.6205C19.3529 3.86367 19.3958 4.12385 19.3844 4.3845V5.65373C19.3958 5.91437 19.3529 6.17455 19.2584 6.41772C19.1639 6.66089 19.0198 6.88173 18.8353 7.06621C18.6509 7.25069 18.43 7.39478 18.1868 7.4893C17.9437 7.58382 17.6835 7.62672 17.4229 7.61526H11.5382C10.5365 7.61353 9.57214 7.99503 8.8427 8.68155C8.11327 9.36807 7.67408 10.3076 7.61516 11.3076V48.4614C7.61342 49.4631 7.99492 50.4275 8.68145 51.157C9.36797 51.8864 10.3075 52.3256 11.3075 52.3845H48.4613C49.463 52.3862 50.4274 52.0047 51.1568 51.3182C51.8863 50.6317 52.3255 49.6921 52.3844 48.6922V42.5768C52.3729 42.3162 52.4158 42.056 52.5104 41.8128C52.6049 41.5696 52.749 41.3488 52.9334 41.1643C53.1179 40.9798 53.3388 40.8358 53.5819 40.7412C53.8251 40.6467 54.0853 40.6038 54.3459 40.6153H55.6152C55.8758 40.6038 56.136 40.6467 56.3792 40.7412C56.6223 40.8358 56.8432 40.9798 57.0276 41.1643C57.2121 41.3488 57.3562 41.5696 57.4507 41.8128C57.5453 42.056 57.5882 42.3162 57.5767 42.5768V49.7306C57.5737 51.8106 56.746 53.8046 55.2752 55.2753C53.8045 56.7461 51.8105 57.5738 49.7305 57.5768H10.269C8.18901 57.5738 6.19509 56.7461 4.72431 55.2753C3.25353 53.8046 2.4259 51.8106 2.42285 49.7306V10.2691C2.4259 8.18912 3.25353 6.19519 4.72431 4.72441C6.19509 3.25363 8.18901 2.42601 10.269 2.42296H17.4229Z" fill="url(#paint0_linear_297_1639)"/>
<path d="M34.2692 5.65392L43.9615 5.88469C44.7094 5.98023 45.4225 6.25755 46.0384 6.69238L49.8461 10.5001L53.6538 14.3078C53.9244 14.5795 54.1358 14.9044 54.2748 15.2618C54.4138 15.6192 54.4774 16.0015 54.4615 16.3847L54.6923 26.077C54.7085 26.4776 54.6456 26.8775 54.507 27.2537C54.3683 27.6299 54.1568 27.975 53.8846 28.2693L37.9615 44.3078C37.69 44.5827 37.3666 44.8009 37.01 44.9499C36.6535 45.0989 36.271 45.1756 35.8846 45.1756C35.4982 45.1756 35.1156 45.0989 34.7591 44.9499C34.4026 44.8009 34.0792 44.5827 33.8076 44.3078L25.0384 35.5385L16.2692 26.7693C15.9943 26.4978 15.776 26.1744 15.627 25.8179C15.4781 25.4613 15.4014 25.0788 15.4014 24.6924C15.4014 24.306 15.4781 23.9234 15.627 23.5669C15.776 23.2104 15.9943 22.887 16.2692 22.6155L32.1923 6.577C32.4505 6.28141 32.7702 6.04569 33.1289 5.88627C33.4876 5.72685 33.8767 5.64756 34.2692 5.65392ZM28.8461 21.2308L27.2307 22.8462C27.1184 22.996 27.0576 23.1782 27.0576 23.3655C27.0576 23.5527 27.1184 23.7349 27.2307 23.8847L36.5769 33.2308C36.7267 33.3432 36.9089 33.4039 37.0961 33.4039C37.2834 33.4039 37.4655 33.3432 37.6153 33.2308L39.2307 31.6155C39.3431 31.4657 39.4038 31.2835 39.4038 31.0962C39.4038 30.909 39.3431 30.7268 39.2307 30.577L29.8846 21.2308C29.8245 21.1497 29.7462 21.0838 29.656 21.0384C29.5659 20.9929 29.4663 20.9693 29.3653 20.9693C29.2644 20.9693 29.1648 20.9929 29.0746 21.0384C28.9845 21.0838 28.9062 21.1497 28.8461 21.2308ZM33.2307 16.8462L31.7307 18.4616C31.6184 18.6114 31.5576 18.7936 31.5576 18.9808C31.5576 19.1681 31.6184 19.3503 31.7307 19.5001L41.0769 28.8462C41.2267 28.9586 41.4089 29.0193 41.5961 29.0193C41.7833 29.0193 41.9655 28.9586 42.1153 28.8462L43.7307 27.2308C43.8431 27.081 43.9038 26.8989 43.9038 26.7116C43.9038 26.5244 43.8431 26.3422 43.7307 26.1924L34.3846 16.8462C34.0384 16.5001 33.6923 16.5001 33.2307 16.8462ZM48.3461 12.1155C47.935 11.7029 47.4108 11.4217 46.8397 11.3074C46.2687 11.193 45.6766 11.2507 45.1384 11.4731C44.6001 11.6955 44.14 12.0726 43.8162 12.5567C43.4925 13.0407 43.3197 13.61 43.3197 14.1924C43.3197 14.7747 43.4925 15.344 43.8162 15.8281C44.14 16.3122 44.6001 16.6893 45.1384 16.9117C45.6766 17.1341 46.2687 17.1918 46.8397 17.0774C47.4108 16.9631 47.935 16.6818 48.3461 16.2693C48.6196 15.997 48.8367 15.6733 48.9847 15.3169C49.1328 14.9605 49.2091 14.5783 49.2091 14.1924C49.2091 13.8064 49.1328 13.4243 48.9847 13.0678C48.8367 12.7114 48.6196 12.3878 48.3461 12.1155Z" fill="url(#paint1_linear_297_1639)"/>
<defs>
<linearGradient id="paint0_linear_297_1639" x1="-3.24612" y1="-2.1055" x2="64.1894" y2="8.21752" gradientUnits="userSpaceOnUse">
<stop stopColor="#FC365F"/>
<stop offset="0.984375" stopColor="#A00BFB"/>
</linearGradient>
<linearGradient id="paint1_linear_297_1639" x1="11.3627" y1="2.40998" x2="59.4171" y2="9.72359" gradientUnits="userSpaceOnUse">
<stop stopColor="#FC365F"/>
<stop offset="0.984375" stopColor="#A00BFB"/>
</linearGradient>
</defs>
</svg>
