<svg width="60" height="60" viewBox="0 0 60 60" fill="none" xmlns="http://www.w3.org/2000/svg">
<g clip-path="url(#clip0_297_1618)">
<path d="M47.8447 6.62427H47.8346C47.3069 6.62427 46.8843 7.052 46.8843 7.5797C46.8843 8.10739 47.3172 8.53513 47.8447 8.53513C48.3723 8.53513 48.8002 8.10739 48.8002 7.5797C48.8002 7.052 48.3723 6.62427 47.8447 6.62427Z" fill="url(#paint0_linear_297_1618)"/>
<path d="M34.0912 45.6589L24.9976 41.87C24.5927 41.7013 24.3313 41.309 24.3313 40.8703V38.9414L26.0316 37.9969C27.4883 37.1875 28.4481 35.7135 28.5989 34.0539L28.6027 34.0128H29.4905C31.1412 34.0128 32.4841 32.6698 32.4841 31.0191V29.1789C32.7518 28.5317 33.5032 26.4602 33.5032 23.6023C33.5032 19.6537 31.9564 15.928 29.1479 13.1116C28.0733 12.034 26.8579 11.1384 25.5393 10.4398C25.4933 7.20566 22.2555 4.58594 18.2804 4.58594C14.3053 4.58594 11.0675 7.20566 11.0215 10.4398C9.70289 11.1382 8.48742 12.0339 7.41281 13.1116C4.6043 15.928 3.05754 19.6536 3.05754 23.6023C3.05754 26.4602 3.80895 28.5316 4.0766 29.1789V31.0191C4.0766 32.6698 5.41957 34.0128 7.07027 34.0128H7.95809L7.96172 34.0539C8.11254 35.7135 9.07242 37.1876 10.5292 37.9969L12.2295 38.9414V40.8703C12.2295 41.3089 11.9679 41.7012 11.5631 41.87L2.46949 45.6589C0.969258 46.2839 0 47.7379 0 49.3629V55.4775C0 57.1282 1.34297 58.4712 2.99367 58.4712H33.567C35.2177 58.4712 36.5606 57.1282 36.5606 55.4775V49.3629C36.5605 47.7379 35.5912 46.2839 34.0912 45.6589ZM30.5733 31.019C30.5733 31.6161 30.0875 32.1018 29.4905 32.1018H28.7764L29.1586 27.8979H29.4905C30.0875 27.8979 30.5733 28.3837 30.5733 28.9807V31.019ZM18.2803 6.4968C20.7829 6.4968 22.8887 7.79219 23.4705 9.53582C21.8339 8.96184 20.0844 8.66242 18.2803 8.66242C16.4762 8.66242 14.7268 8.96184 13.0901 9.53582C13.6718 7.79219 15.7777 6.4968 18.2803 6.4968ZM7.07004 32.1018C6.47297 32.1018 5.98723 31.6161 5.98723 31.019V28.9807C5.98723 28.3837 6.47297 27.8979 7.07004 27.8979H7.40191L7.78406 32.1018H7.07004ZM11.4572 36.3265C10.5536 35.8245 9.95813 34.9102 9.86461 33.8808L9.13723 25.8801C10.3869 25.8722 12.5782 25.7658 15.1407 25.2348C20.3814 24.1491 24.6568 21.7803 27.5048 18.3846C27.844 17.9805 27.7911 17.3778 27.3867 17.0387C26.9824 16.6996 26.3798 16.7525 26.0407 17.1569C19.8251 24.5678 8.30707 23.9607 8.14957 23.9511V23.9521C8.10129 23.9492 8.05242 23.9486 8.00273 23.9532C7.47727 24.001 7.08996 24.4656 7.13777 24.9911L7.22824 25.9873H7.07004C6.40113 25.9873 5.78273 26.208 5.28375 26.58C5.11055 25.7757 4.96805 24.7627 4.96805 23.6023C4.96805 20.1631 6.31676 16.9168 8.76562 14.4609C11.2656 11.9539 14.6446 10.5732 18.2802 10.5732C21.9158 10.5732 25.2947 11.9538 27.7948 14.4609C30.2436 16.9165 31.5923 20.1631 31.5923 23.6023C31.5923 24.7626 31.45 25.7758 31.2766 26.5802C30.7777 26.208 30.1594 25.9873 29.4904 25.9873H29.3321L29.4227 24.991C29.4485 24.7087 29.3473 24.4294 29.1468 24.2289L27.1085 22.1907C26.7354 21.8175 26.1305 21.8175 25.7575 22.1907C25.3843 22.5638 25.3843 23.1686 25.7575 23.5417L27.4793 25.2636L26.799 32.7466C26.0188 33.4367 23.5441 35.1592 18.2802 35.1592C17.7525 35.1592 17.3248 35.587 17.3248 36.1146C17.3248 36.6423 17.7525 37.0701 18.2802 37.0701C21.9381 37.0701 24.4412 36.3041 26.0647 35.4957C25.8082 35.8307 25.4835 36.1155 25.1034 36.3266L19.7959 39.2753C18.8468 39.8025 17.7136 39.8025 16.7646 39.2753L11.4572 36.3265ZM12.298 43.6336C13.4171 43.1673 14.1402 42.0827 14.1402 40.8703V40.0029L15.8366 40.9455C16.6017 41.3704 17.4409 41.5831 18.2803 41.5831C19.1197 41.5831 19.9589 41.3706 20.724 40.9455L22.4204 40.0029V40.8703C22.4204 42.0829 23.1435 43.1675 24.2626 43.6336L25.2648 44.0512C23.4725 46.132 21.7404 47.1658 20.5672 47.6713C19.2696 48.2304 18.3711 48.2764 18.2802 48.2798C18.1893 48.2765 17.2908 48.2304 15.9932 47.6713C14.82 47.1659 13.088 46.132 11.2956 44.0512L12.298 43.6336ZM6.11461 56.5605H2.99367C2.3966 56.5605 1.91086 56.0747 1.91086 55.4777V49.363C1.91086 49.0996 1.95973 48.8448 2.0502 48.6088L5.32582 51.2295C5.82727 51.6305 6.11461 52.2288 6.11461 52.8708V56.5605ZM28.535 52.8706V56.5603H8.02547V52.8706C8.02547 51.6448 7.47656 50.5028 6.51949 49.7371L3.48187 47.307L9.44941 44.8205C12.5977 48.7144 15.7799 49.7857 17.3248 50.0798V53.312C17.3248 53.8397 17.7525 54.2675 18.2802 54.2675C18.8079 54.2675 19.2356 53.8397 19.2356 53.312V50.0798C20.7806 49.7857 23.9627 48.7144 27.111 44.8205L33.0785 47.307L30.0409 49.7371C29.0839 50.5028 28.535 51.6449 28.535 52.8706ZM34.6497 55.4777C34.6497 56.0747 34.1639 56.5605 33.5668 56.5605H30.4458V52.8707C30.4458 52.2286 30.7332 51.6305 31.2346 51.2293L34.5102 48.6087C34.6007 48.8447 34.6495 49.0995 34.6495 49.3629V55.4777H34.6497Z" fill="url(#paint1_linear_297_1618)"/>
<path d="M17.103 28.5662C16.6465 27.6188 15.5454 27.0063 14.2977 27.0063C13.05 27.0063 11.9489 27.6187 11.4923 28.5662C11.2634 29.0415 11.463 29.6126 11.9385 29.8417C12.4138 30.0708 12.9848 29.8709 13.2139 29.3956C13.3256 29.1638 13.7435 28.9172 14.2978 28.9172C14.8521 28.9172 15.2699 29.1637 15.3817 29.3956C15.5462 29.7374 15.8877 29.9366 16.2431 29.9366C16.3822 29.9366 16.5236 29.906 16.6571 29.8417C17.1323 29.6126 17.332 29.0417 17.103 28.5662Z" fill="url(#paint2_linear_297_1618)"/>
<path d="M25.0684 28.5662C24.612 27.6188 23.5109 27.0063 22.2631 27.0063C21.0153 27.0063 19.9143 27.6187 19.4577 28.5662C19.2286 29.0417 19.4284 29.6126 19.9039 29.8417C20.3792 30.0708 20.9502 29.8709 21.1793 29.3956C21.291 29.1638 21.7089 28.9172 22.2632 28.9172C22.8175 28.9172 23.2353 29.1637 23.3471 29.3956C23.5116 29.7374 23.8531 29.9366 24.2085 29.9366C24.3476 29.9366 24.4889 29.906 24.6225 29.8417C25.0977 29.6126 25.2975 29.0417 25.0684 28.5662Z" fill="url(#paint3_linear_297_1618)"/>
<path d="M47.8345 1.52881C41.1264 1.52881 35.6689 6.98623 35.6689 13.6944C35.6689 17.2141 37.1593 20.4889 39.786 22.8026C38.468 24.9602 37.0376 26.2037 37.0229 26.2163C36.7082 26.4852 36.6023 26.9262 36.7608 27.3085C36.9096 27.6675 37.2594 27.8982 37.6431 27.8982C37.6682 27.8982 37.6935 27.8972 37.7189 27.8953C37.8761 27.8828 41.4637 27.5764 44.6463 25.4363C45.6836 25.7176 46.7538 25.8601 47.8346 25.8601C54.5428 25.8601 60.0002 20.4027 60.0002 13.6945C60.0001 6.98623 54.5427 1.52881 47.8345 1.52881ZM47.8345 23.9491C46.788 23.9491 45.7536 23.791 44.76 23.4791C44.4708 23.3884 44.1555 23.4401 43.9106 23.619C42.7343 24.4776 41.4431 25.0318 40.3344 25.3867C40.8304 24.7325 41.36 23.9462 41.8566 23.0385C42.0825 22.6254 41.9739 22.1093 41.6005 21.8223C39.0452 19.8593 37.5798 16.8967 37.5798 13.6944C37.5798 8.03986 42.18 3.43967 47.8345 3.43967C53.4891 3.43967 58.0893 8.03986 58.0893 13.6944C58.0893 19.3489 53.4891 23.9491 47.8345 23.9491Z" fill="url(#paint4_linear_297_1618)"/>
<path d="M48.8535 18.8535H48.7898V12.6115H48.8535C49.3812 12.6115 49.809 12.1838 49.809 11.6561C49.809 11.1284 49.3812 10.7007 48.8535 10.7007H46.8153C46.2876 10.7007 45.8599 11.1284 45.8599 11.6561C45.8599 12.1838 46.2876 12.6115 46.8153 12.6115H46.879V18.8535H46.8153C46.2876 18.8535 45.8599 19.2813 45.8599 19.809C45.8599 20.3367 46.2876 20.7644 46.8153 20.7644H48.8535C49.3812 20.7644 49.809 20.3367 49.809 19.809C49.809 19.2814 49.3812 18.8535 48.8535 18.8535Z" fill="url(#paint5_linear_297_1618)"/>
</g>
<defs>
<linearGradient id="paint0_linear_297_1618" x1="46.6874" y1="6.46744" x2="49.0295" y2="6.82693" gradientUnits="userSpaceOnUse">
<stop stop-color="#FC365F"/>
<stop offset="0.984375" stop-color="#A00BFB"/>
</linearGradient>
<linearGradient id="paint1_linear_297_1618" x1="-3.75775" y1="0.163554" x2="41.502" y2="4.86438" gradientUnits="userSpaceOnUse">
<stop stop-color="#FC365F"/>
<stop offset="0.984375" stop-color="#A00BFB"/>
</linearGradient>
<linearGradient id="paint2_linear_297_1618" x1="10.8013" y1="26.7659" x2="17.449" y2="28.7802" gradientUnits="userSpaceOnUse">
<stop stop-color="#FC365F"/>
<stop offset="0.984375" stop-color="#A00BFB"/>
</linearGradient>
<linearGradient id="paint3_linear_297_1618" x1="18.7666" y1="26.7659" x2="25.4144" y2="28.7803" gradientUnits="userSpaceOnUse">
<stop stop-color="#FC365F"/>
<stop offset="0.984375" stop-color="#A00BFB"/>
</linearGradient>
<linearGradient id="paint4_linear_297_1618" x1="33.1681" y1="-0.635338" x2="63.0181" y2="3.58092" gradientUnits="userSpaceOnUse">
<stop stop-color="#FC365F"/>
<stop offset="0.984375" stop-color="#A00BFB"/>
</linearGradient>
<linearGradient id="paint5_linear_297_1618" x1="45.454" y1="9.87475" x2="50.3777" y2="10.1705" gradientUnits="userSpaceOnUse">
<stop stop-color="#FC365F"/>
<stop offset="0.984375" stop-color="#A00BFB"/>
</linearGradient>
<clipPath id="clip0_297_1618">
<rect width="60" height="60" fill="white"/>
</clipPath>
</defs>
</svg>
