<svg width="60" height="60" viewBox="0 0 60 60" fill="none" xmlns="http://www.w3.org/2000/svg">
<g clipPath="url(#clip0_297_1594)">
<path d="M48.7502 48.7498C51.5072 48.7498 53.7501 46.5065 53.7501 43.7494C53.7501 40.9924 51.5072 38.7493 48.7502 38.7493C45.9931 38.7493 43.75 40.9924 43.75 43.7494C43.75 46.5065 45.9931 48.7498 48.7502 48.7498ZM48.7502 41.2495C50.1285 41.2495 51.2499 42.371 51.2499 43.7494C51.2499 45.1279 50.1285 46.2496 48.7502 46.2496C47.3717 46.2496 46.2502 45.1279 46.2502 43.7494C46.2502 42.371 47.3716 41.2495 48.7502 41.2495Z" fill="url(#paint0_linear_297_1594)"/>
<path d="M6.25004 49.9999H38.7501C39.4405 49.9999 40.0001 49.4401 40.0001 48.7498V43.7494C40.0002 43.0588 39.4405 42.4994 38.7502 42.4994H6.25004C5.55957 42.4994 5 43.0591 5 43.7494V48.7498C5 49.4401 5.55969 49.9999 6.25004 49.9999ZM7.5002 44.9995H37.5V47.4997H7.5002V44.9995Z" fill="url(#paint1_linear_297_1594)"/>
<path d="M19.1368 40.0004H19.1665C19.857 40.0004 20.4166 39.4406 20.4166 38.7504C20.4166 38.0599 19.8569 37.5002 19.1665 37.5002H19.1368C18.4463 37.5002 17.8867 38.0599 17.8867 38.7504C17.8867 39.4405 18.4464 40.0004 19.1368 40.0004Z" fill="url(#paint2_linear_297_1594)"/>
<path d="M6.25004 40H15.5458C16.2362 40 16.796 39.44 16.796 38.7499C16.796 38.0595 16.2362 37.4999 15.5458 37.4999H6.25004C5.55957 37.4999 5 38.0596 5 38.7499C5 39.44 5.55969 40 6.25004 40Z" fill="url(#paint3_linear_297_1594)"/>
<path d="M5.93732 6.87541H46.0755C46.6296 8.97155 48.5415 10.5215 50.8091 10.5215H53.5281C53.7259 10.9512 54.159 11.2503 54.6632 11.2503C55.3536 11.2503 55.9132 10.6903 55.9132 10.0002V9.37491H58.7498C59.4403 9.37491 59.9999 8.81499 59.9999 8.12487C59.9999 7.4344 59.4402 6.87471 58.7498 6.87471H55.9132V4.37568H58.7498C59.4403 4.37568 59.9999 3.81576 59.9999 3.12564C59.9999 2.43505 59.4402 1.8756 58.7498 1.8756H55.9132V1.25029C55.9132 0.559816 55.3535 0.000244141 54.6632 0.000244141C54.1589 0.000244141 53.7253 0.299659 53.5278 0.729503H50.8091C48.5413 0.729503 46.6293 2.27943 46.0755 4.37533H5.93732C2.66356 4.37521 0 7.03854 0 10.3124V19.6879C0 22.9618 2.66356 25.6253 5.93732 25.6253H42.476C44.3713 25.6253 45.9131 27.1672 45.9131 29.0623V32.4996H1.25004C0.559806 32.4997 0 33.0594 0 33.7498V53.7493C0 54.4396 0.559806 54.9994 1.25004 54.9994H4.99981V58.7497C4.99981 59.4398 5.5595 59.9998 6.24986 59.9998H18.75C19.4404 59.9998 20.0001 59.4398 20.0001 58.7497V54.9994H39.9997V58.7497C39.9997 59.4398 40.5594 59.9998 41.2497 59.9998H53.75C54.4404 59.9998 55.0001 59.4398 55.0001 58.7497V54.9994H58.7498C59.4403 54.9994 59.9999 54.4395 59.9999 53.7493V33.75C59.9999 33.0595 59.4402 32.4999 58.7498 32.4999H48.4133V29.0626C48.4133 25.7887 45.7499 23.1254 42.476 23.1254H5.93732C4.04204 23.1252 2.5002 21.5831 2.5002 19.688V10.3124C2.5002 8.41725 4.04204 6.87541 5.93732 6.87541ZM50.8091 3.22959H53.413V8.02116H50.8091C49.488 8.02116 48.4133 6.94631 48.4133 5.62526C48.4133 4.3042 49.488 3.22959 50.8091 3.22959ZM17.5001 57.4998H7.50013V54.9996H17.5001V57.4998ZM52.5 57.4998H42.4999V54.9996H52.5V57.4998ZM57.4999 35V52.4994H53.7501H41.2498H18.7503H6.24997H2.5002V35H57.4999Z" fill="url(#paint4_linear_297_1594)"/>
</g>
<defs>
<linearGradient id="paint0_linear_297_1594" x1="42.7222" y1="37.9285" x2="54.9487" y2="39.8001" gradientUnits="userSpaceOnUse">
<stop stop-color="#FC365F"/>
<stop offset="0.984375" stop-color="#A00BFB"/>
</linearGradient>
<linearGradient id="paint1_linear_297_1594" x1="1.40264" y1="41.8838" x2="30.401" y2="62.5982" gradientUnits="userSpaceOnUse">
<stop stop-color="#FC365F"/>
<stop offset="0.984375" stop-color="#A00BFB"/>
</linearGradient>
<linearGradient id="paint2_linear_297_1594" x1="17.6267" y1="37.2951" x2="20.7181" y2="37.7739" gradientUnits="userSpaceOnUse">
<stop stop-color="#FC365F"/>
<stop offset="0.984375" stop-color="#A00BFB"/>
</linearGradient>
<linearGradient id="paint3_linear_297_1594" x1="3.78759" y1="37.2947" x2="13.4876" y2="44.3007" gradientUnits="userSpaceOnUse">
<stop stop-color="#FC365F"/>
<stop offset="0.984375" stop-color="#A00BFB"/>
</linearGradient>
<linearGradient id="paint4_linear_297_1594" x1="-6.16686" y1="-4.92394" x2="67.1913" y2="6.3058" gradientUnits="userSpaceOnUse">
<stop stop-color="#FC365F"/>
<stop offset="0.984375" stop-color="#A00BFB"/>
</linearGradient>
<clipPath id="clip0_297_1594">
<rect width="60" height="60" fill="white"/>
</clipPath>
</defs>
</svg>
