<svg width="39" height="39" viewBox="0 0 39 39" fill="none" xmlns="http://www.w3.org/2000/svg">
<path d="M17.2011 2.46158C16.8998 2.46052 16.5977 2.46082 16.2947 2.46212C14.8362 2.4689 13.3544 2.50721 11.86 2.56266L12.2924 4.45881C13.8486 4.28285 15.5548 4.15184 17.2608 4.08633C18.1851 4.05083 19.1037 4.0321 19.9948 4.03682C22.668 4.05076 25.0935 4.27524 26.6804 4.8901L27.3589 5.15319L27.056 5.81475C24.8424 10.6505 24.3304 15.3158 24.6773 19.8933C24.8485 14.4609 27.1066 9.62913 30.071 3.43498C26.0373 2.76467 21.72 2.47659 17.2011 2.46151V2.46158ZM19.3365 5.41629C18.6708 5.41682 17.9921 5.43031 17.3135 5.45636C14.1392 5.57823 10.976 5.95071 8.91444 6.37773C11.2173 10.6494 13.0803 14.9308 14.2833 19.1047C14.4329 19.0997 14.5827 19.1008 14.7322 19.1081C15.0383 19.1231 15.341 19.1646 15.6368 19.2292C14.4123 15.3142 13.0176 11.7034 11.2838 8.09815L10.8921 7.28357L11.7822 7.12604C14.0183 6.7301 16.3263 6.57685 18.523 6.57616C18.6694 6.57616 18.8155 6.57669 18.9608 6.57799C20.3566 6.59018 21.7018 6.66239 22.9481 6.77108L23.7901 6.84459L23.5445 7.65331C22.1201 12.3427 21.8411 17.3788 22.6465 22.1703C22.6599 22.1827 22.6734 22.195 22.6865 22.2076C22.977 22.1059 23.2487 22.0021 23.502 21.8912C22.8732 16.7577 23.1518 11.4615 25.4999 5.95597C24.1896 5.62211 22.1921 5.4476 19.9973 5.42018C19.777 5.41745 19.5568 5.41611 19.3365 5.41629ZM30.3772 5.97882C28.0193 10.9723 26.3445 14.974 26.07 19.2939C27.5963 14.2055 30.5465 9.64406 33.9083 6.7135C32.7414 6.42242 31.5634 6.17734 30.3772 5.97882ZM7.90951 7.39021C6.48052 7.68484 5.0846 8.05885 3.73438 8.5756C4.39143 9.14536 5.57926 10.2053 7.02043 11.614C7.68373 10.9313 8.36022 10.2568 9.0658 9.64345C8.69209 8.88641 8.30661 8.13524 7.90951 7.39021ZM18.7277 7.96013C17.6902 7.9551 16.6282 7.98481 15.5624 8.05862C15.4506 9.1008 14.8342 10.0758 14.098 11.0347C15.2734 13.8126 16.2886 16.6472 17.2025 19.6569C18.6021 20.0697 19.9869 20.5577 21.1086 21.1425C20.6919 17.9084 20.7489 14.5945 21.2899 11.3538C20.3084 10.34 19.7971 9.21414 19.7561 7.97635C19.4134 7.96722 19.0705 7.96181 18.7277 7.96013ZM32.5923 10.0156C30.7086 12.2475 29.0487 15.0427 27.9177 18.0831C29.9944 15.129 32.5481 12.8248 35.2665 11.1972C34.3809 10.7904 33.4894 10.3965 32.5923 10.0156ZM9.68439 10.9266C8.57274 11.9311 7.47434 13.1368 6.33046 14.2855C8.78998 15.7473 10.8849 17.4785 12.5938 19.4393C12.6999 19.3992 12.8071 19.3632 12.9148 19.3304C12.1152 16.5809 11.0193 13.7673 9.68439 10.9266ZM27.4619 20.4292C26.2129 21.9364 25.0371 22.7322 23.4179 23.3671C23.6001 24.0694 23.3296 24.8757 22.707 25.4924C22.3407 25.855 21.8805 26.2684 21.2076 26.5371C21.3047 26.5946 21.4038 26.6486 21.5047 26.6991C22.4465 27.1691 24.1103 27.0175 25.656 26.3145C27.197 25.6137 28.5736 24.4032 29.0838 23.1769C29.3395 22.4875 29.1569 22.128 28.7092 21.6008C28.3905 21.2256 27.925 20.8474 27.4619 20.4292V20.4292ZM14.5067 20.4738C13.6905 20.4663 12.8616 20.7019 12.1766 21.2172C11.2023 21.9502 10.4513 23.2574 10.4446 25.4778V25.4931L10.4438 25.5083C10.2214 30.1838 10.5657 32.3409 11.2478 33.5113C11.8499 34.5443 12.8512 35.0388 14.316 35.9483C14.3858 35.7651 14.4585 35.5397 14.5266 35.2553C14.7001 34.5318 14.8436 33.538 14.9345 32.4389C15.1165 30.2407 15.0899 27.6012 14.7856 25.7019L14.6248 24.6971L15.6163 24.9253C18.0244 25.4793 19.402 25.5447 20.2018 25.4036C21.0018 25.2624 21.2729 24.9829 21.7421 24.5182C22.1831 24.0816 22.1749 23.9245 22.0815 23.6787C21.9881 23.4329 21.6131 23.0278 20.977 22.6403C19.7047 21.8652 17.5428 21.1465 15.522 20.6105C15.1906 20.5228 14.8495 20.4769 14.5067 20.4738ZM28.9108 25.7613C28.1481 26.5043 27.2095 27.1142 26.2237 27.5626C24.6254 28.2894 22.8673 28.6219 21.4088 28.1379C20.8938 28.3296 20.5947 28.5498 20.4438 28.732C20.2368 28.9822 20.2238 29.1662 20.294 29.4298C20.3641 29.6933 20.5732 30.0062 20.8317 30.2314C21.0901 30.4566 21.3973 30.5736 21.5141 30.5791C25.0785 30.7483 26.6211 29.7254 28.543 28.5389C29.1035 28.193 29.318 27.4921 29.2643 26.7923C29.2374 26.4423 29.1356 26.1135 29.018 25.9064C28.9888 25.8535 28.9528 25.8048 28.9108 25.7613ZM16.252 26.4542C16.4597 28.3637 16.4632 30.5914 16.3009 32.552C16.2059 33.7001 16.0591 34.7441 15.8599 35.5749C15.7733 35.9364 15.678 36.2569 15.5629 36.5391L26.7371 36.0467C26.6109 35.5783 26.4823 35.1079 26.3538 34.6373C25.9245 34.7802 25.4857 34.8928 25.0406 34.9743L25.044 35.0299L24.4105 35.0694C24.0205 35.1162 23.6144 35.142 23.1931 35.145L16.8053 35.5418L16.9952 34.6577C17.6005 31.8389 17.6564 29.357 17.283 26.6418C16.9381 26.586 16.5944 26.5234 16.2519 26.4542H16.252ZM18.6874 26.811C18.9881 29.2434 18.9519 31.5649 18.5041 34.0626L19.9715 33.9715C19.7414 33.6319 19.5832 33.2488 19.5068 32.8458C19.4081 32.3217 19.463 31.7384 19.8059 31.2561C19.821 31.2347 19.8374 31.2142 19.8536 31.1935C19.454 30.8245 19.1203 30.3509 18.969 29.7825C18.808 29.1774 18.9085 28.4366 19.3877 27.8577C19.5461 27.6665 19.7375 27.4939 19.9623 27.3385C19.7635 27.18 19.5892 27.0121 19.4387 26.8371C19.2053 26.8387 18.9553 26.83 18.6874 26.811ZM28.7928 29.9938C27.0061 31.0795 24.9987 32.1172 21.4491 31.9487C21.3332 31.943 21.2181 31.9274 21.1049 31.9019C21.011 31.944 20.9609 31.9975 20.9235 32.0502C20.8501 32.1534 20.8068 32.3396 20.8542 32.592C20.9493 33.0968 21.4274 33.6499 21.8727 33.7017C25.025 34.0683 27.2031 33.0371 28.5256 31.8373C29.135 31.2844 29.1401 30.9308 29.0504 30.5461C29.0055 30.3539 28.9064 30.1676 28.7928 29.9938ZM28.2837 33.731C28.0721 33.8636 27.8549 33.9871 27.6327 34.1012C27.7584 34.5621 27.8844 35.023 28.0088 35.484L29.5261 35.2119C29.1346 34.8777 28.8282 34.5299 28.5823 34.1839C28.4725 34.0293 28.3757 33.8791 28.2837 33.731Z" fill="url(#paint0_linear_481_3598)"/>
<defs>
<linearGradient id="paint0_linear_481_3598" x1="0.493464" y1="-0.335872" x2="39.1733" y2="5.14285" gradientUnits="userSpaceOnUse">
<stop stop-color="#FC365F"/>
<stop offset="0.984375" stop-color="#A00BFB"/>
</linearGradient>
</defs>
</svg>
