<svg width="60" height="60" viewBox="0 0 60 60" fill="none" xmlns="http://www.w3.org/2000/svg">
<path d="M57.5 5.00012H2.50008C1.1216 5.00012 0 6.12161 0 7.50008V52.5002C0 53.8784 1.1216 54.9999 2.50008 54.9999H57.5C58.8785 54.9999 60 53.8784 60 52.5002V7.50008C60 6.12161 58.8785 5.00012 57.5 5.00012ZM2.50008 7.50032L57.4998 7.50008V10H2.50008V7.50032ZM2.5002 52.5001L2.50008 12.5001H57.4998V46.2501L57.5003 52.4996L2.5002 52.5001Z" fill="url(#paint0_linear_297_1563)"/>
<path d="M6.25004 31.1466C5.55957 31.1466 5 31.7063 5 32.3966V38.7498C5 39.4401 5.55969 39.9999 6.25004 39.9999C6.94039 39.9999 7.50008 39.44 7.50008 38.7498V32.3966C7.5002 31.7063 6.94051 31.1466 6.25004 31.1466Z" fill="url(#paint1_linear_297_1563)"/>
<path d="M6.25004 30.056C6.94039 30.056 7.50008 29.496 7.50008 28.8059V28.7759C7.50008 28.0854 6.94027 27.5258 6.25004 27.5258C5.55957 27.5258 5 28.0854 5 28.7759V28.8059C5 29.496 5.55957 30.056 6.25004 30.056Z" fill="url(#paint2_linear_297_1563)"/>
<path d="M53.7505 45.0001H22.5959C22.08 43.5448 20.6906 42.4996 19.0606 42.4996C17.4309 42.4996 16.0414 43.5448 15.5254 45.0001H6.25004C5.55957 45.0001 5 45.5598 5 46.2501C5 46.9405 5.55969 47.5001 6.25004 47.5001H15.5257C16.0419 48.9547 17.431 49.9996 19.0604 49.9996C20.6898 49.9996 22.0791 48.9547 22.5955 47.5001H53.7502C54.4406 47.5001 55.0003 46.9403 55.0003 46.2501C55.0005 45.5596 54.4408 45.0001 53.7505 45.0001ZM20.3107 46.2522C20.3091 46.94 19.7491 47.4994 19.0607 47.4994C18.3716 47.4994 17.8109 46.9387 17.8109 46.2496C17.8109 45.5603 18.3716 44.9998 19.0607 44.9998C19.7493 44.9998 20.3095 45.5595 20.3107 46.2474C20.3107 46.2485 20.3104 46.2492 20.3104 46.25C20.3104 46.2508 20.3107 46.2515 20.3107 46.2522Z" fill="url(#paint3_linear_297_1563)"/>
<path d="M53.75 27.474C54.4404 27.474 55.0001 26.914 55.0001 26.2239V26.1946C55.0001 25.5041 54.4403 24.9445 53.75 24.9445C53.0596 24.9445 52.5 25.5041 52.5 26.1946V26.2239C52.4999 26.9141 53.0596 27.474 53.75 27.474Z" fill="url(#paint4_linear_297_1563)"/>
<path d="M53.75 23.8532C54.4404 23.8532 55.0001 23.2932 55.0001 22.6031V16.2499C55.0001 15.5594 54.4403 14.9999 53.75 14.9999C53.0596 14.9999 52.5 15.5596 52.5 16.2499V22.6031C52.4999 23.2932 53.0595 23.8532 53.75 23.8532Z" fill="url(#paint5_linear_297_1563)"/>
<path d="M26.4303 32.638C26.8525 33.3666 27.6384 33.8193 28.4811 33.8193C28.8963 33.8193 29.3062 33.7091 29.6659 33.5011L32.0033 32.1513C32.0243 32.139 32.0449 32.1265 32.065 32.1129L34.3147 30.8139C34.6858 30.6056 34.994 30.3002 35.2068 29.9298C35.8563 28.7993 35.4651 27.3503 34.3361 26.7001L32.085 25.4003C32.0565 25.3823 32.0279 25.3649 31.9986 25.3482L29.7623 24.0568C29.3797 23.8107 28.9375 23.6808 28.4798 23.6808C27.1722 23.6808 26.1084 24.7444 26.1084 26.0518V31.45C26.1084 31.4869 26.1102 31.5234 26.1133 31.5597C26.1308 31.9371 26.2393 32.3072 26.4303 32.638ZM28.6088 26.2779L30.753 27.5162C30.7576 27.5187 30.7621 27.5214 30.7666 27.5238L30.7564 27.5184C30.7743 27.5299 30.7923 27.5409 30.8107 27.5517L32.8879 28.751L30.7517 29.9845C30.7307 29.9968 30.7101 30.0094 30.69 30.0226L28.6088 31.2244V26.2779Z" fill="url(#paint6_linear_297_1563)"/>
<path d="M30.0002 40.0528C36.2329 40.0528 41.3033 34.982 41.3033 28.7498C41.3033 22.5175 36.2329 17.4469 30.0002 17.4469C23.7679 17.4469 18.6973 22.5174 18.6973 28.7498C18.6973 34.9823 23.768 40.0528 30.0002 40.0528ZM30.0002 19.9471C34.8541 19.9471 38.8031 23.8958 38.8031 28.7498C38.8031 33.6037 34.854 37.5526 30.0002 37.5526C25.1463 37.5526 21.1975 33.6035 21.1975 28.7498C21.1975 23.896 25.1464 19.9471 30.0002 19.9471Z" fill="url(#paint7_linear_297_1563)"/>
<defs>
<linearGradient id="paint0_linear_297_1563" x1="-6.16688" y1="0.89662" x2="66.4598" y2="14.2379" gradientUnits="userSpaceOnUse">
<stop stopColor="#FC365F"/>
<stop offset="0.984375" stopColor="#A00BFB"/>
</linearGradient>
<linearGradient id="paint1_linear_297_1563" x1="4.74304" y1="30.42" x2="7.86553" y2="30.555" gradientUnits="userSpaceOnUse">
<stop stopColor="#FC365F"/>
<stop offset="0.984375" stopColor="#A00BFB"/>
</linearGradient>
<linearGradient id="paint2_linear_297_1563" x1="4.74304" y1="27.3181" x2="7.80139" y2="27.7807" gradientUnits="userSpaceOnUse">
<stop stopColor="#FC365F"/>
<stop offset="0.984375" stopColor="#A00BFB"/>
</linearGradient>
<linearGradient id="paint3_linear_297_1563" x1="-0.139092" y1="41.8841" x2="30.5074" y2="73.1601" gradientUnits="userSpaceOnUse">
<stop stopColor="#FC365F"/>
<stop offset="0.984375" stopColor="#A00BFB"/>
</linearGradient>
<linearGradient id="paint4_linear_297_1563" x1="52.243" y1="24.7369" x2="55.3013" y2="25.1996" gradientUnits="userSpaceOnUse">
<stop stopColor="#FC365F"/>
<stop offset="0.984375" stopColor="#A00BFB"/>
</linearGradient>
<linearGradient id="paint5_linear_297_1563" x1="52.243" y1="14.2733" x2="55.3655" y2="14.4083" gradientUnits="userSpaceOnUse">
<stop stopColor="#FC365F"/>
<stop offset="0.984375" stopColor="#A00BFB"/>
</linearGradient>
<linearGradient id="paint6_linear_297_1563" x1="25.141" y1="22.8487" x2="36.6854" y2="24.4894" gradientUnits="userSpaceOnUse">
<stop stopColor="#FC365F"/>
<stop offset="0.984375" stopColor="#A00BFB"/>
</linearGradient>
<linearGradient id="paint7_linear_297_1563" x1="16.3738" y1="15.5916" x2="44.0128" y2="19.8226" gradientUnits="userSpaceOnUse">
<stop stopColor="#FC365F"/>
<stop offset="0.984375" stopColor="#A00BFB"/>
</linearGradient>
</defs>
</svg>
