<svg width="60" height="60" viewBox="0 0 60 60" fill="none" xmlns="http://www.w3.org/2000/svg">
<g clipPath="url(#clip0_297_1603)">
<path d="M12.1877 23.4375C12.1877 24.4725 11.3477 25.3125 10.3127 25.3125C9.2777 25.3125 8.4377 24.4725 8.4377 23.4375C8.4377 22.4025 9.2777 21.5625 10.3127 21.5625C11.3477 21.5625 12.1877 22.4025 12.1877 23.4375ZM12.1877 36.5625C12.1877 35.5275 11.3477 34.6875 10.3127 34.6875C9.2777 34.6875 8.4377 35.5275 8.4377 36.5625C8.4377 37.5975 9.2777 38.4375 10.3127 38.4375C11.3477 38.4375 12.1877 37.5975 12.1877 36.5625ZM12.1877 49.6875C12.1877 48.6525 11.3477 47.8125 10.3127 47.8125C9.2777 47.8125 8.4377 48.6525 8.4377 49.6875C8.4377 50.7225 9.2777 51.5625 10.3127 51.5625C11.3477 51.5625 12.1877 50.7225 12.1877 49.6875ZM25.3127 36.5625C25.3127 35.5275 24.4727 34.6875 23.4377 34.6875C22.4027 34.6875 21.5627 35.5275 21.5627 36.5625C21.5627 37.5975 22.4027 38.4375 23.4377 38.4375C24.4727 38.4375 25.3127 37.5975 25.3127 36.5625ZM25.3127 49.6875C25.3127 48.6525 24.4727 47.8125 23.4377 47.8125C22.4027 47.8125 21.5627 48.6525 21.5627 49.6875C21.5627 50.7225 22.4027 51.5625 23.4377 51.5625C24.4727 51.5625 25.3127 50.7225 25.3127 49.6875ZM38.4377 49.6875C38.4377 48.6525 37.5977 47.8125 36.5627 47.8125C35.5277 47.8125 34.6877 48.6525 34.6877 49.6875C34.6877 50.7225 35.5277 51.5625 36.5627 51.5625C37.5977 51.5625 38.4377 50.7225 38.4377 49.6875ZM56.2502 56.925H3.7502C3.37707 56.925 3.0752 56.6231 3.0752 56.25V3.74995C3.0752 3.37683 3.37707 3.07495 3.7502 3.07495H56.2502C56.6233 3.07495 56.9252 3.37683 56.9252 3.74995V56.25C56.9252 56.6231 56.6233 56.925 56.2502 56.925ZM43.8002 55.575H55.5733V43.8H43.8002V55.575ZM30.6752 55.575H42.4502V43.8H30.6752V55.575ZM17.5502 55.575H29.3252V43.8H17.5502V55.575ZM4.4252 55.575H16.2002V43.8H4.4252V55.575ZM43.8002 42.45H55.5733V30.675H43.8002V42.45ZM30.6752 42.45H42.4502V30.675H30.6752V42.45ZM17.5502 42.45H29.3252V30.675H17.5502V42.45ZM4.4252 42.45H16.2002V30.675H4.4252V42.45ZM43.8002 29.325H55.5733V17.55H43.8002V29.325ZM30.6752 29.325H42.4502V17.55H30.6752V29.325ZM17.5502 29.325H29.3252V17.55H17.5502V29.325ZM4.4252 29.325H16.2002V17.55H4.4252V29.325ZM43.8002 16.2H55.5733V4.42495H43.8002V16.2ZM30.6752 16.2H42.4502V4.42495H30.6752V16.2ZM17.5502 16.2H29.3252V4.42495H17.5502V16.2ZM4.4252 16.2H16.2002V4.42495H4.4252V16.2Z" fill="url(#paint0_linear_297_1603)"/>
</g>
<defs>
<linearGradient id="paint0_linear_297_1603" x1="-2.45958" y1="-1.34454" x2="63.3796" y2="8.73412" gradientUnits="userSpaceOnUse">
<stop stopColor="#FC365F"/>
<stop offset="0.984375" stopColor="#A00BFB"/>
</linearGradient>
<clipPath id="clip0_297_1603">
<rect width="60" height="60" fill="white"/>
</clipPath>
</defs>
</svg>
