<svg width="60" height="60" viewBox="0 0 60 60" fill="none" xmlns="http://www.w3.org/2000/svg">
<g clip-path="url(#clip0_297_1637)">
<path d="M60 30C60 30.663 59.7366 31.2989 59.2678 31.7678C58.7989 32.2366 58.163 32.5 57.5 32.5C56.837 32.5 56.2011 32.2366 55.7322 31.7678C55.2634 31.2989 55 30.663 55 30C54.9927 23.3718 52.3565 17.0172 47.6696 12.3304C42.9828 7.64354 36.6282 5.00728 30 5C29.337 5 28.7011 4.73661 28.2322 4.26777C27.7634 3.79893 27.5 3.16304 27.5 2.5C27.5 1.83696 27.7634 1.20107 28.2322 0.732233C28.7011 0.263392 29.337 0 30 0C37.9539 0.0086027 45.5795 3.17207 51.2037 8.7963C56.8279 14.4205 59.9914 22.0461 60 30ZM40 32.5C40.663 32.5 41.2989 32.2366 41.7678 31.7678C42.2366 31.2989 42.5 30.663 42.5 30C42.5 29.337 42.2366 28.7011 41.7678 28.2322C41.2989 27.7634 40.663 27.5 40 27.5H34.3075C33.8718 26.7511 33.2489 26.1282 32.5 25.6925V17.5C32.5 16.837 32.2366 16.2011 31.7678 15.7322C31.2989 15.2634 30.663 15 30 15C29.337 15 28.7011 15.2634 28.2322 15.7322C27.7634 16.2011 27.5 16.837 27.5 17.5V25.6925C26.8369 26.0743 26.2706 26.6036 25.845 27.2394C25.4194 27.8752 25.1458 28.6005 25.0455 29.359C24.9452 30.1175 25.0208 30.8889 25.2665 31.6135C25.5123 32.3381 25.9215 32.9964 26.4625 33.5375C27.0036 34.0785 27.6619 34.4877 28.3865 34.7335C29.1111 34.9792 29.8825 35.0548 30.641 34.9545C31.3995 34.8542 32.1248 34.5806 32.7606 34.155C33.3964 33.7294 33.9257 33.1631 34.3075 32.5H40ZM4.5675 16.96C4.07305 16.96 3.5897 17.1066 3.17858 17.3813C2.76745 17.656 2.44702 18.0465 2.2578 18.5033C2.06858 18.9601 2.01907 19.4628 2.11554 19.9477C2.212 20.4327 2.4501 20.8781 2.79973 21.2278C3.14937 21.5774 3.59482 21.8155 4.07978 21.912C4.56473 22.0084 5.06739 21.9589 5.52421 21.7697C5.98103 21.5805 6.37147 21.26 6.64618 20.8489C6.92088 20.4378 7.0675 19.9545 7.0675 19.46C7.0675 18.797 6.80411 18.1611 6.33527 17.6922C5.86643 17.2234 5.23054 16.96 4.5675 16.96ZM5 30C5 29.5055 4.85338 29.0222 4.57868 28.6111C4.30397 28.2 3.91352 27.8795 3.45671 27.6903C2.99989 27.5011 2.49723 27.4516 2.01228 27.548C1.52732 27.6445 1.08187 27.8826 0.732234 28.2322C0.382603 28.5819 0.144501 29.0273 0.0480379 29.5123C-0.0484251 29.9972 0.0010832 30.4999 0.190302 30.9567C0.379521 31.4135 0.699953 31.804 1.11108 32.0787C1.5222 32.3534 2.00555 32.5 2.5 32.5C3.16304 32.5 3.79893 32.2366 4.26777 31.7678C4.73661 31.2989 5 30.663 5 30ZM30 55C29.5055 55 29.0222 55.1466 28.6111 55.4213C28.2 55.696 27.8795 56.0865 27.6903 56.5433C27.5011 57.0001 27.4516 57.5028 27.548 57.9877C27.6445 58.4727 27.8826 58.9181 28.2322 59.2678C28.5819 59.6174 29.0273 59.8555 29.5123 59.952C29.9972 60.0484 30.4999 59.9989 30.9567 59.8097C31.4135 59.6205 31.804 59.3 32.0787 58.8889C32.3534 58.4778 32.5 57.9945 32.5 57.5C32.5 56.837 32.2366 56.2011 31.7678 55.7322C31.2989 55.2634 30.663 55 30 55ZM10.5525 8.0175C10.058 8.0175 9.5747 8.16412 9.16358 8.43883C8.75245 8.71353 8.43202 9.10398 8.2428 9.56079C8.05358 10.0176 8.00408 10.5203 8.10054 11.0052C8.197 11.4902 8.4351 11.9356 8.78473 12.2853C9.13437 12.6349 9.57982 12.873 10.0648 12.9695C10.5497 13.0659 11.0524 13.0164 11.5092 12.8272C11.966 12.638 12.3565 12.3175 12.6312 11.9064C12.9059 11.4953 13.0525 11.012 13.0525 10.5175C13.0525 9.85446 12.7891 9.21857 12.3203 8.74973C11.8514 8.28089 11.2155 8.0175 10.5525 8.0175ZM19.4475 2.1025C18.953 2.1025 18.4697 2.24912 18.0586 2.52383C17.6475 2.79853 17.327 3.18898 17.1378 3.64579C16.9486 4.10261 16.8991 4.60527 16.9955 5.09023C17.092 5.57518 17.3301 6.02064 17.6797 6.37027C18.0294 6.7199 18.4748 6.958 18.9598 7.05446C19.4447 7.15093 19.9474 7.10142 20.4042 6.9122C20.861 6.72298 21.2515 6.40255 21.5262 5.99143C21.8009 5.5803 21.9475 5.09695 21.9475 4.6025C21.9475 3.93946 21.6841 3.30357 21.2153 2.83473C20.7464 2.36589 20.1105 2.1025 19.4475 2.1025ZM4.5675 38.04C4.07305 38.04 3.5897 38.1866 3.17858 38.4613C2.76745 38.736 2.44702 39.1265 2.2578 39.5833C2.06858 40.0401 2.01907 40.5428 2.11554 41.0277C2.212 41.5127 2.4501 41.9581 2.79973 42.3078C3.14937 42.6574 3.59482 42.8955 4.07978 42.992C4.56473 43.0884 5.06739 43.0389 5.52421 42.8497C5.98103 42.6605 6.37147 42.34 6.64618 41.9289C6.92088 41.5178 7.0675 41.0345 7.0675 40.54C7.0675 39.877 6.80411 39.2411 6.33527 38.7722C5.86643 38.3034 5.23054 38.04 4.5675 38.04ZM10.5525 46.9825C10.058 46.9825 9.5747 47.1291 9.16358 47.4038C8.75245 47.6785 8.43202 48.069 8.2428 48.5258C8.05358 48.9826 8.00408 49.4853 8.10054 49.9702C8.197 50.4552 8.4351 50.9006 8.78473 51.2503C9.13437 51.5999 9.57982 51.838 10.0648 51.9345C10.5497 52.0309 11.0524 51.9814 11.5092 51.7922C11.966 51.603 12.3565 51.2825 12.6312 50.8714C12.9059 50.4603 13.0525 49.977 13.0525 49.4825C13.0525 48.8195 12.7891 48.1836 12.3203 47.7147C11.8514 47.2459 11.2155 46.9825 10.5525 46.9825ZM19.4475 52.8975C18.953 52.8975 18.4697 53.0441 18.0586 53.3188C17.6475 53.5935 17.327 53.984 17.1378 54.4408C16.9486 54.8976 16.8991 55.4003 16.9955 55.8852C17.092 56.3702 17.3301 56.8156 17.6797 57.1653C18.0294 57.5149 18.4748 57.753 18.9598 57.8495C19.4447 57.9459 19.9474 57.8964 20.4042 57.7072C20.861 57.518 21.2515 57.1976 21.5262 56.7864C21.8009 56.3753 21.9475 55.892 21.9475 55.3975C21.9475 54.7345 21.6841 54.0986 21.2153 53.6297C20.7464 53.1609 20.1105 52.8975 19.4475 52.8975ZM55.4325 38.04C54.938 38.04 54.4547 38.1866 54.0436 38.4613C53.6325 38.736 53.312 39.1265 53.1228 39.5833C52.9336 40.0401 52.8841 40.5428 52.9805 41.0277C53.077 41.5127 53.3151 41.9581 53.6647 42.3078C54.0144 42.6574 54.4598 42.8955 54.9448 42.992C55.4297 43.0884 55.9324 43.0389 56.3892 42.8497C56.846 42.6605 57.2365 42.34 57.5112 41.9289C57.7859 41.5178 57.9325 41.0345 57.9325 40.54C57.9325 40.2117 57.8678 39.8866 57.7422 39.5833C57.6166 39.28 57.4324 39.0044 57.2003 38.7722C56.9681 38.5401 56.6925 38.3559 56.3892 38.2303C56.0859 38.1047 55.7608 38.04 55.4325 38.04ZM49.4475 46.9825C48.953 46.9825 48.4697 47.1291 48.0586 47.4038C47.6475 47.6785 47.327 48.069 47.1378 48.5258C46.9486 48.9826 46.8991 49.4853 46.9955 49.9702C47.092 50.4552 47.3301 50.9006 47.6797 51.2503C48.0294 51.5999 48.4748 51.838 48.9598 51.9345C49.4447 52.0309 49.9474 51.9814 50.4042 51.7922C50.861 51.603 51.2515 51.2825 51.5262 50.8714C51.8009 50.4603 51.9475 49.977 51.9475 49.4825C51.9475 49.1542 51.8828 48.8291 51.7572 48.5258C51.6316 48.2225 51.4474 47.9469 51.2153 47.7147C50.9831 47.4826 50.7075 47.2984 50.4042 47.1728C50.1009 47.0472 49.7758 46.9825 49.4475 46.9825ZM40.5525 52.8975C40.058 52.8975 39.5747 53.0441 39.1636 53.3188C38.7525 53.5935 38.432 53.984 38.2428 54.4408C38.0536 54.8976 38.0041 55.4003 38.1005 55.8852C38.197 56.3702 38.4351 56.8156 38.7847 57.1653C39.1344 57.5149 39.5798 57.753 40.0648 57.8495C40.5497 57.9459 41.0524 57.8964 41.5092 57.7072C41.966 57.518 42.3565 57.1976 42.6312 56.7864C42.9059 56.3753 43.0525 55.892 43.0525 55.3975C43.0525 55.0692 42.9878 54.7441 42.8622 54.4408C42.7366 54.1375 42.5524 53.8619 42.3203 53.6297C42.0881 53.3976 41.8125 53.2134 41.5092 53.0878C41.2059 52.9622 40.8808 52.8975 40.5525 52.8975Z" fill="url(#paint0_linear_297_1637)"/>
</g>
<defs>
<linearGradient id="paint0_linear_297_1637" x1="-6.16688" y1="-4.92422" x2="67.1915" y2="6.30548" gradientUnits="userSpaceOnUse">
<stop stop-color="#FC365F"/>
<stop offset="0.984375" stop-color="#A00BFB"/>
</linearGradient>
<clipPath id="clip0_297_1637">
<rect width="60" height="60" fill="white"/>
</clipPath>
</defs>
</svg>
