<svg width="60" height="60" viewBox="0 0 60 60" fill="none" xmlns="http://www.w3.org/2000/svg">
<g clipPath="url(#clip0_297_1606)">
<path d="M35.2222 22.5154L34.1924 25.8818C35.1117 26.1757 35.7838 27.0782 35.7838 28.1473C35.7838 28.6828 35.6135 29.1752 35.3307 29.5721L38.0138 31.7627C38.7552 30.7648 39.1933 29.5103 39.1933 28.1454C39.1914 25.4755 37.5082 23.2362 35.2222 22.5154Z" fill="url(#paint0_linear_297_1606)"/>
<path d="M32.9937 30.6581C31.773 30.6468 30.7863 29.5871 30.7863 28.2952C30.7863 27.0052 31.7711 25.9455 32.9937 25.9361C33.224 25.9342 33.4431 25.9698 33.6547 26.0372L34.6788 22.6764C34.1452 22.5079 33.5798 22.4218 32.9975 22.4349C29.9831 22.4967 27.5771 25.1235 27.5771 28.2933C27.5771 31.465 29.9812 34.0956 32.9975 34.1574C34.8005 34.1967 36.4201 33.313 37.4592 31.9069L34.7874 29.7182C34.3718 30.293 33.7258 30.6637 32.9937 30.6581Z" fill="url(#paint1_linear_297_1606)"/>
<path d="M56.4595 24.2585C60.0001 22.8861 60 22.7531 60 22.3974V19.6226C60 19.2669 60 19.1171 56.4576 17.8552L56.3341 17.8103L55.8342 16.6251L55.8866 16.5053C57.3938 13.092 57.2889 12.9909 57.0381 12.7438L55.0347 10.7835C54.9523 10.703 54.8081 10.6449 54.6827 10.6449C54.5666 10.6449 54.2296 10.6449 51.2639 11.9874L51.1459 12.0398L49.927 11.5474L49.8783 11.4257C48.4835 7.97315 48.3374 7.97314 47.9929 7.97314H45.1583C44.8081 7.97314 44.6527 7.97314 43.3627 11.4313L43.314 11.5567L42.0989 12.0529L41.9828 12.0042C39.9776 11.1579 38.8074 10.7292 38.5022 10.7292C38.3805 10.7292 38.2326 10.7854 38.1502 10.8659L36.1412 12.8299C35.8866 13.0808 35.7817 13.1857 37.3638 16.5277L37.42 16.6513L36.922 17.8346L36.7984 17.8814C36.3959 18.0368 36.0476 18.1754 35.7312 18.3008C35.6132 18.3476 34.9111 18.8045 34.4711 19.0816L25.2388 18.576L22.0633 33.7979H22.0615L21.9997 33.8073C21.232 32.5041 19.8016 31.7627 17.8076 31.7627H16.9351C15.7649 32.9048 13.7185 33.6706 11.3743 33.6706C9.03019 33.6706 6.98376 32.9067 5.81357 31.7627H4.94107C1.86487 31.7627 0.103025 33.5002 0.103025 36.3985C0.103025 39.2987 0.00940973 47.2224 0.00940973 48.8026C0.00940973 50.3828 -0.179693 52.0286 1.18335 52.0286C1.687 52.0286 3.28969 52.0286 5.36796 52.0286C7.35073 52.0286 9.25487 52.0286 11.0017 52.0286C11.2433 52.0286 11.511 52.0286 11.745 52.0286C13.9843 52.0286 15.8454 52.0286 16.9164 52.0286C17.1073 52.0286 17.2403 52.0286 17.3788 52.0286C17.4387 52.0286 17.5286 52.0286 17.5773 52.0286C19.3185 52.0286 20.6554 52.0286 21.101 52.0286C21.2863 52.0286 21.4605 52.0286 21.5634 52.0286C22.9283 52.0286 22.7374 50.3828 22.7374 48.8026C22.7374 48.5592 22.7336 48.1491 22.7317 47.6474H59.9551V45.1291H22.7112C22.7037 44.4195 22.6962 43.6612 22.6887 42.8898L26.2367 44.2473L43.7896 41.4556L45.5477 34.1611H48.1071C48.4629 34.1611 48.6127 34.1611 49.9027 30.7011L49.9514 30.5775L51.1684 30.0851L51.2845 30.1319C53.2878 30.9801 54.458 31.4088 54.7613 31.4088C54.8812 31.4088 55.0328 31.3545 55.1133 31.274L57.1223 29.3062C57.3769 29.0535 57.4799 28.9505 55.896 25.6122L55.8398 25.4867L56.3359 24.3072L56.4595 24.2585ZM26.1206 19.999L44.4805 21.2253L40.4625 38.1903L23.2597 33.3223L26.1206 19.999ZM22.6456 36.3985C22.6456 35.8799 22.5707 35.4118 22.4584 34.9681L22.5239 34.9569L37.0849 39.1153L30.4344 40.057L22.6475 37.5219C22.6475 37.1007 22.6456 36.7168 22.6456 36.3985ZM22.655 38.5498L24.664 39.2201L22.6625 39.5197C22.6587 39.1864 22.6569 38.8606 22.655 38.5498ZM47.6522 25.4474L48.71 21.0531L47.6466 20.3117L42.8946 40.585L26.3547 43.004V42.9966L22.6793 41.6522C22.6756 41.3002 22.6718 40.9576 22.67 40.6131L26.4127 41.9555L41.8761 39.881L46.6449 19.7425L42.3891 19.5122C42.4397 19.3231 42.494 19.1358 42.5071 19.1078C43.2485 17.6062 44.8175 16.567 46.6336 16.567C49.1669 16.567 51.2227 18.5854 51.2227 21.0681C51.2227 23.2044 49.6949 24.9924 47.6522 25.4474Z" fill="url(#paint2_linear_297_1606)"/>
<path d="M3.02934 22.2982C3.01249 22.4068 2.99002 22.5154 2.97692 22.6259C2.46578 27.389 5.83406 31.6748 10.4886 32.1784C15.1451 32.6839 19.3521 29.2145 19.8689 24.4514C19.9457 23.7156 19.9232 22.9947 19.8258 22.2945C20.3725 22.2907 20.7114 22.2833 20.7863 22.272C21.3798 22.1971 21.8535 22.1541 21.9022 21.4988C21.9116 20.6244 21.8872 20.7648 21.9003 20.6356C21.9153 19.8792 21.4716 19.9672 20.981 19.9148C20.4905 19.8624 19.8895 19.9372 19.8895 19.9372C19.8895 19.9372 18.4759 10.4334 9.68353 11.9856C7.05481 12.4499 5.32292 13.5602 4.18456 14.8858C6.42945 13.7699 9.0769 13.2344 11.3798 13.5508C13.5761 13.8541 15.2986 14.8727 16.4089 16.4922C15.6693 15.9436 14.8399 15.513 13.9337 15.2321C13.0293 14.6985 12.0688 14.4401 11.2694 14.3297C8.61444 13.9515 5.48581 14.7903 3.16977 16.3817C1.68503 19.2108 2.11566 22.2945 2.11566 22.2945C2.11566 22.2945 2.45829 22.2945 3.02934 22.2982ZM4.5403 22.7944C4.55715 22.6278 4.5871 22.4649 4.61893 22.302C8.1707 22.3076 14.6564 22.3188 18.24 22.3038C18.3504 22.9423 18.3785 23.6051 18.3036 24.281C17.8805 28.1829 14.4486 31.0269 10.6571 30.615C6.86009 30.205 4.11903 26.6963 4.5403 22.7944Z" fill="url(#paint3_linear_297_1606)"/>
</g>
<defs>
<linearGradient id="paint0_linear_297_1606" x1="33.6784" y1="21.7564" x2="39.8934" y2="22.271" gradientUnits="userSpaceOnUse">
<stop stop-color="#FC365F"/>
<stop offset="0.984375" stop-color="#A00BFB"/>
</linearGradient>
<linearGradient id="paint1_linear_297_1606" x1="26.5615" y1="21.4713" x2="38.7243" y2="23.0405" gradientUnits="userSpaceOnUse">
<stop stop-color="#FC365F"/>
<stop offset="0.984375" stop-color="#A00BFB"/>
</linearGradient>
<linearGradient id="paint2_linear_297_1606" x1="-6.16634" y1="4.3575" x2="65.7833" y2="19.3577" gradientUnits="userSpaceOnUse">
<stop stop-color="#FC365F"/>
<stop offset="0.984375" stop-color="#A00BFB"/>
</linearGradient>
<linearGradient id="paint3_linear_297_1606" x1="0.017738" y1="10.1389" x2="24.3137" y2="13.7549" gradientUnits="userSpaceOnUse">
<stop stop-color="#FC365F"/>
<stop offset="0.984375" stop-color="#A00BFB"/>
</linearGradient>
<clipPath id="clip0_297_1606">
<rect width="60" height="60" fill="white"/>
</clipPath>
</defs>
</svg>
