<svg width="60" height="60" viewBox="0 0 60 60" fill="none" xmlns="http://www.w3.org/2000/svg">
<path fill-rule="evenodd" clip-rule="evenodd" d="M38.6481 8.31581H22.9354V4.68073C22.9354 3.71271 22.1495 2.92676 21.1815 2.92676C20.2134 2.92676 19.4275 3.71271 19.4275 4.68073V8.31598C16.5036 8.33226 13.703 9.50077 11.6344 11.5695C9.75009 13.4538 8.61262 15.9453 8.41258 18.5839H4.74568C3.77765 18.5839 2.9917 19.3698 2.9917 20.3379C2.9917 21.3059 3.77765 22.0918 4.74568 22.0918H8.38075V37.8046H4.74568C3.77765 37.8046 2.9917 38.5904 2.9917 39.5585C2.9917 40.5266 3.77765 41.3125 4.74568 41.3125H8.41258C8.61262 43.9511 9.75009 46.4426 11.6344 48.3269C13.703 50.3956 16.5036 51.5641 19.4275 51.5804V55.2156C19.4275 56.1837 20.2134 56.9696 21.1815 56.9696C22.1495 56.9696 22.9354 56.1837 22.9354 55.2156V51.5806H38.6481V55.2156C38.6481 56.1837 39.434 56.9696 40.4021 56.9696C41.3701 56.9696 42.156 56.1837 42.156 55.2156V51.462C44.5032 51.1163 46.694 50.0248 48.3919 48.3269C50.2762 46.4426 51.4136 43.9511 51.6136 41.3125H55.2805C56.2486 41.3125 57.0345 40.5266 57.0345 39.5585C57.0345 38.5904 56.2486 37.8046 55.2805 37.8046H51.6455V22.0918H55.2805C56.2486 22.0918 57.0345 21.3059 57.0345 20.3379C57.0345 19.3698 56.2486 18.5839 55.2805 18.5839H51.6136C51.4136 15.9453 50.2762 13.4538 48.3919 11.5695C46.694 9.8716 44.5032 8.7801 42.156 8.43441V4.68073C42.156 3.71271 41.3701 2.92676 40.4021 2.92676C39.434 2.92676 38.6481 3.71271 38.6481 4.68073V8.31581ZM40.537 48.0726H19.4893C17.4735 48.0726 15.5402 47.2718 14.1149 45.8465C12.6895 44.4211 11.8887 42.4878 11.8887 40.4721C11.8887 34.1263 11.8887 25.7701 11.8887 19.4243C11.8887 17.4085 12.6895 15.4753 14.1149 14.0499C15.5402 12.6245 17.4735 11.8238 19.4893 11.8238H40.5369C42.5527 11.8238 44.486 12.6245 45.9114 14.0499C47.3368 15.4753 48.1375 17.4085 48.1375 19.4243V40.4721C48.1375 42.4878 47.3368 44.4211 45.9114 45.8465C44.486 47.2718 42.5527 48.0726 40.537 48.0726ZM20.0739 29.9482C20.0739 29.9482 20.0739 31.6222 20.0739 33.4562C20.074 37.008 22.9533 39.8874 26.5052 39.8874C28.7049 39.8874 31.3214 39.8874 33.5211 39.8874C37.0729 39.8874 39.9523 37.008 39.9523 33.4562C39.9523 31.2565 39.9523 28.6399 39.9523 26.4402C39.9523 22.8883 37.0729 20.009 33.5211 20.009C31.6871 20.009 30.0131 20.009 30.0131 20.009C29.0451 20.009 28.2592 20.7949 28.2592 21.763C28.2592 22.731 29.0451 23.517 30.0131 23.517H33.521C35.1356 23.517 36.4443 24.8257 36.4444 26.4401C36.4444 26.4403 36.4444 33.4562 36.4444 33.4562C36.4443 35.0706 35.1356 36.3794 33.5211 36.3794C33.521 36.3794 26.5052 36.3794 26.5052 36.3794C24.8907 36.3794 23.5819 35.0706 23.5819 33.4563C23.5819 33.456 23.5819 29.9482 23.5819 29.9482C23.5819 28.9801 22.796 28.1942 21.8279 28.1942C20.8599 28.1942 20.0739 28.9801 20.0739 29.9482ZM41.7063 16.3987C42.7308 16.3987 43.5626 17.2305 43.5626 18.255C43.5626 19.2795 42.7308 20.1113 41.7063 20.1113C40.6817 20.1113 39.85 19.2795 39.85 18.255C39.85 17.2305 40.6817 16.3987 41.7063 16.3987Z" fill="url(#paint0_linear_297_1613)"/>
<path fill-rule="evenodd" clip-rule="evenodd" d="M51.6456 19.4244C51.6456 16.4783 50.4753 13.6528 48.392 11.5696C46.3087 9.48628 43.4832 8.31592 40.537 8.31592C34.1914 8.31592 25.8351 8.31592 19.4894 8.31592C16.5432 8.31592 13.7177 9.48628 11.6345 11.5696C9.55122 13.6528 8.38086 16.4783 8.38086 19.4244C8.38086 25.7702 8.38086 34.1264 8.38086 40.4722C8.38086 43.4183 9.55122 46.2438 11.6345 48.327C13.7177 50.4103 16.5432 51.5807 19.4894 51.5807C23.4214 51.5807 27.7781 51.5807 30.8157 51.5807C33.7619 51.5807 36.5874 50.4103 38.6706 48.327C41.4228 45.5749 45.6398 41.3578 48.392 38.6057C50.4753 36.5224 51.6456 33.6969 51.6456 30.7508V19.4244ZM48.1376 19.4244V30.7508C48.1376 32.7666 47.3369 34.6998 45.9115 36.1252C43.1593 38.8774 38.9423 43.0944 36.1902 45.8466C34.7648 47.272 32.8315 48.0727 30.8157 48.0727C27.7781 48.0727 23.4214 48.0727 19.4894 48.0727C17.4736 48.0727 15.5403 47.272 14.115 45.8466C12.6896 44.4212 11.8888 42.4879 11.8888 40.4722C11.8888 34.1264 11.8888 25.7702 11.8888 19.4244C11.8888 17.4086 12.6896 15.4754 14.115 14.05C15.5403 12.6246 17.4736 11.8239 19.4894 11.8239H40.537C42.5529 11.8239 44.4861 12.6246 45.9115 14.05C47.3369 15.4754 48.1376 17.4086 48.1376 19.4244ZM20.074 33.4563C20.0741 37.0082 22.9534 39.8875 26.5053 39.8875C28.705 39.8875 31.3215 39.8875 33.5212 39.8875C37.073 39.8875 39.9524 37.0082 39.9524 33.4563C39.9524 31.2566 39.9524 28.64 39.9524 26.4404C39.9524 22.8885 37.073 20.0091 33.5212 20.0091H26.5053C22.9534 20.0091 20.0741 22.8885 20.074 26.4404V33.4563ZM23.582 33.4564V26.4404C23.582 24.8259 24.8908 23.5171 26.5052 23.5171C26.5054 23.5171 33.5211 23.5171 33.5211 23.5171C35.1357 23.5171 36.4444 24.8259 36.4445 26.4402C36.4445 26.4404 36.4445 33.4563 36.4445 33.4563C36.4444 35.0708 35.1357 36.3795 33.5213 36.3795C33.5211 36.3795 26.5053 36.3795 26.5053 36.3795C24.8908 36.3795 23.582 35.0708 23.582 33.4564Z" fill="url(#paint1_linear_297_1613)"/>
<defs>
<linearGradient id="paint0_linear_297_1613" x1="-2.56289" y1="-1.50856" x2="63.512" y2="8.60619" gradientUnits="userSpaceOnUse">
<stop stopColor="#FC365F"/>
<stop offset="0.984375" stopColor="#A00BFB"/>
</linearGradient>
<linearGradient id="paint1_linear_297_1613" x1="3.93406" y1="4.76516" x2="56.8312" y2="12.8626" gradientUnits="userSpaceOnUse">
<stop stopColor="#FC365F"/>
<stop offset="0.984375" stopColor="#A00BFB"/>
</linearGradient>
</defs>
</svg>
