<svg width="69" height="69" viewBox="0 0 69 69" fill="none" xmlns="http://www.w3.org/2000/svg">
<circle cx="24.6094" cy="24" r="24" fill="url(#paint0_linear_301_2061)"/>
<path d="M32.0191 25C31.7991 25 31.5691 24.93 31.3491 24.88C30.9039 24.7805 30.4662 24.6501 30.0391 24.49C29.5751 24.3212 29.0652 24.33 28.6074 24.5146C28.1495 24.6992 27.7761 25.0466 27.5591 25.49L27.3391 25.95C26.3679 25.3992 25.4707 24.7271 24.6691 23.95C23.8919 23.1484 23.2199 22.2512 22.6691 21.28L23.1291 21.07C23.5724 20.8529 23.9198 20.4795 24.1045 20.0217C24.2891 19.5639 24.2978 19.0539 24.1291 18.59C23.9702 18.159 23.84 17.7181 23.7391 17.27C23.6891 17.05 23.6491 16.82 23.6191 16.6C23.4976 15.8956 23.1287 15.2577 22.5787 14.8012C22.0287 14.3447 21.3338 14.0996 20.6191 14.11H17.6091C17.1863 14.1094 16.7682 14.1982 16.3822 14.3706C15.9961 14.5429 15.6509 14.7949 15.3691 15.11C15.0814 15.4337 14.8672 15.8158 14.7412 16.23C14.6151 16.6443 14.5803 17.081 14.6391 17.51C15.1826 21.6721 17.0843 25.5387 20.0491 28.51C23.0204 31.4748 26.8869 33.3764 31.0491 33.92C31.1789 33.9299 31.3092 33.9299 31.4391 33.92C32.1765 33.9211 32.8885 33.6505 33.4391 33.16C33.7542 32.8782 34.0061 32.5329 34.1785 32.1469C34.3508 31.7609 34.4396 31.3428 34.4391 30.92V27.92C34.4337 27.229 34.1899 26.5611 33.749 26.0291C33.3081 25.4971 32.697 25.1336 32.0191 25ZM32.5091 31C32.5087 31.1395 32.4792 31.2775 32.4224 31.4049C32.3655 31.5324 32.2826 31.6465 32.1791 31.74C32.0695 31.8399 31.939 31.9141 31.7972 31.9573C31.6554 32.0006 31.5057 32.0117 31.3591 31.99C27.6273 31.5026 24.1593 29.802 21.4891 27.15C18.8165 24.4775 17.1011 20.9974 16.6091 17.25C16.5873 17.1033 16.5985 16.9537 16.6417 16.8119C16.685 16.67 16.7592 16.5396 16.8591 16.43C16.9537 16.3252 17.0694 16.2415 17.1987 16.1847C17.328 16.1278 17.4678 16.0989 17.6091 16.1H20.6091C20.8402 16.0944 21.0662 16.169 21.2485 16.3112C21.4308 16.4534 21.5583 16.6544 21.6091 16.88C21.6091 17.15 21.6991 17.43 21.7591 17.7C21.8746 18.2239 22.0284 18.7386 22.2191 19.24L20.8191 19.9C20.5784 20.0105 20.3914 20.2119 20.2991 20.46C20.199 20.7035 20.199 20.9765 20.2991 21.22C21.7383 24.3028 24.2163 26.7808 27.2991 28.22C27.5425 28.32 27.8156 28.32 28.0591 28.22C28.3072 28.1276 28.5086 27.9406 28.6191 27.7L29.2491 26.3C29.765 26.4881 30.2928 26.6418 30.8291 26.76C31.0891 26.82 31.3691 26.87 31.6391 26.91C31.8646 26.9608 32.0656 27.0882 32.2079 27.2705C32.3501 27.4529 32.4247 27.6788 32.4191 27.91L32.5091 31ZM26.6091 14C26.3791 14 26.1391 14 25.9091 14C25.6438 14.0225 25.3984 14.1495 25.2268 14.353C25.0553 14.5565 24.9715 14.8198 24.9941 15.085C25.0166 15.3502 25.1436 15.5956 25.3471 15.7672C25.5505 15.9388 25.8138 16.0225 26.0791 16H26.6091C28.2004 16 29.7265 16.6321 30.8517 17.7574C31.9769 18.8826 32.6091 20.4087 32.6091 22C32.6091 22.18 32.6091 22.35 32.6091 22.53C32.5869 22.7938 32.6702 23.0556 32.8408 23.2581C33.0114 23.4606 33.2553 23.5871 33.5191 23.61H33.5991C33.8494 23.611 34.091 23.5181 34.2762 23.3496C34.4613 23.1811 34.5765 22.9493 34.5991 22.7C34.5991 22.47 34.5991 22.23 34.5991 22C34.5991 19.88 33.7576 17.8467 32.2594 16.3467C30.7613 14.8467 28.7291 14.0027 26.6091 14ZM28.6091 22C28.6091 22.2652 28.7144 22.5196 28.902 22.7071C29.0895 22.8946 29.3438 23 29.6091 23C29.8743 23 30.1286 22.8946 30.3162 22.7071C30.5037 22.5196 30.6091 22.2652 30.6091 22C30.6091 20.9391 30.1876 19.9217 29.4375 19.1716C28.6873 18.4214 27.6699 18 26.6091 18C26.3438 18 26.0895 18.1054 25.902 18.2929C25.7144 18.4804 25.6091 18.7348 25.6091 19C25.6091 19.2652 25.7144 19.5196 25.902 19.7071C26.0895 19.8946 26.3438 20 26.6091 20C27.1395 20 27.6482 20.2107 28.0233 20.5858C28.3983 20.9609 28.6091 21.4696 28.6091 22Z" fill="#F0FDF4"/>
<defs>
<linearGradient id="paint0_linear_301_2061" x1="-4.32413" y1="-3.93938" x2="54.3626" y2="5.04438" gradientUnits="userSpaceOnUse">
<stop stop-color="#FC365F"/>
<stop offset="0.984375" stop-color="#A00BFB"/>
</linearGradient>
</defs>
</svg>
