<svg width="68" height="69" viewBox="0 0 68 69" fill="none" xmlns="http://www.w3.org/2000/svg">
<circle cx="24" cy="24.6842" r="24" fill="url(#paint0_linear_301_2053)"/>
<path d="M30.0009 17.1642C28.4096 15.5729 26.2513 14.679 24.0009 14.679C21.7505 14.679 19.5922 15.5729 18.0009 17.1642C16.4096 18.7555 15.5156 20.9138 15.5156 23.1642C15.5156 25.4147 16.4096 27.5729 18.0009 29.1642L23.2709 34.4442C23.3639 34.538 23.4745 34.6124 23.5963 34.6631C23.7182 34.7139 23.8489 34.74 23.9809 34.74C24.1129 34.74 24.2436 34.7139 24.3655 34.6631C24.4873 34.6124 24.5979 34.538 24.6909 34.4442L30.0009 29.1142C31.5856 27.5296 32.4758 25.3803 32.4758 23.1392C32.4758 20.8982 31.5856 18.7489 30.0009 17.1642ZM28.5709 27.6842L24.0009 32.2742L19.4309 27.6842C18.5281 26.7806 17.9134 25.6295 17.6646 24.3765C17.4158 23.1236 17.5441 21.825 18.0332 20.6449C18.5223 19.4649 19.3503 18.4563 20.4125 17.7467C21.4748 17.0371 22.7235 16.6584 24.0009 16.6584C25.2783 16.6584 26.5271 17.0371 27.5893 17.7467C28.6515 18.4563 29.4795 19.4649 29.9686 20.6449C30.4577 21.825 30.586 23.1236 30.3372 24.3765C30.0884 25.6295 29.4738 26.7806 28.5709 27.6842ZM21.0009 20.0942C20.1936 20.904 19.7403 22.0008 19.7403 23.1442C19.7403 24.2877 20.1936 25.3845 21.0009 26.1942C21.6007 26.795 22.3645 27.2053 23.1966 27.3736C24.0286 27.542 24.8919 27.4608 25.678 27.1404C26.4641 26.82 27.1381 26.2745 27.6154 25.5725C28.0927 24.8705 28.352 24.0431 28.3609 23.1942C28.3654 22.6274 28.2562 22.0655 28.0398 21.5416C27.8234 21.0178 27.5041 20.5426 27.1009 20.1442C26.7046 19.7388 26.232 19.4158 25.7103 19.1937C25.1887 18.9716 24.6282 18.8549 24.0613 18.8503C23.4944 18.8456 22.9321 18.9531 22.4069 19.1666C21.8816 19.3801 21.4038 19.6954 21.0009 20.0942ZM25.6909 24.7742C25.3119 25.159 24.8111 25.4001 24.274 25.4565C23.7369 25.5128 23.197 25.3809 22.7464 25.0832C22.2959 24.7855 21.9627 24.3405 21.8039 23.8243C21.6451 23.3082 21.6706 22.7529 21.8759 22.2534C22.0812 21.7539 22.4536 21.3413 22.9295 21.086C23.4054 20.8307 23.9552 20.7486 24.4848 20.8539C25.0145 20.9591 25.4912 21.245 25.8334 21.6628C26.1756 22.0805 26.3621 22.6042 26.3609 23.1442C26.3464 23.7615 26.0874 24.3478 25.6409 24.7742H25.6909Z" fill="#F0FDF4"/>
<defs>
<linearGradient id="paint0_linear_301_2053" x1="-4.9335" y1="-3.25517" x2="53.7532" y2="5.72859" gradientUnits="userSpaceOnUse">
<stop stop-color="#FC365F"/>
<stop offset="0.984375" stop-color="#A00BFB"/>
</linearGradient>
</defs>
</svg>
