<svg width="39" height="39" viewBox="0 0 39 39" fill="none" xmlns="http://www.w3.org/2000/svg">
<path fill-rule="evenodd" clip-rule="evenodd" d="M35.9531 7.87916C35.7129 7.87855 35.4749 7.92546 35.2529 8.01718C35.0309 8.1089 34.8292 8.24361 34.6594 8.41358C34.6363 8.43673 34.6204 8.46416 34.5985 8.48853H25.8984C25.8176 8.48853 25.7401 8.52063 25.683 8.57777C25.6258 8.63491 25.5937 8.71241 25.5937 8.79322V12.1874H7.48983C7.11938 12.1889 6.76457 12.3369 6.50296 12.5992C6.24135 12.8615 6.09423 13.2167 6.09375 13.5872V19.4573H1.52344C1.44263 19.4573 1.36513 19.4894 1.30799 19.5465C1.25085 19.6037 1.21875 19.6812 1.21875 19.762V29.512C1.21875 29.5928 1.25085 29.6703 1.30799 29.7274C1.36513 29.7846 1.44263 29.8167 1.52344 29.8167H4.61053C4.88318 30.3777 5.3082 30.8506 5.83698 31.1814C6.36577 31.5123 6.97698 31.6876 7.60073 31.6874H31.3993C31.8371 31.6877 32.2708 31.6016 32.6754 31.4342C33.08 31.2668 33.4477 31.0213 33.7574 30.7118C34.0671 30.4022 34.3128 30.0347 34.4805 29.6302C34.6481 29.2256 34.7344 28.792 34.7344 28.3542C34.7344 28.2733 34.7023 28.1958 34.6451 28.1387C34.588 28.0816 34.5105 28.0495 34.4297 28.0495H32.9062V21.2854H36.8672C36.948 21.2854 37.0255 21.2533 37.0826 21.1962C37.1398 21.139 37.1719 21.0615 37.1719 20.9807V11.0625C37.1962 11.0412 37.2237 11.0254 37.2468 11.0016C37.5887 10.6582 37.7806 10.1934 37.7806 9.7088C37.7806 9.22425 37.5887 8.75942 37.2468 8.41602V8.41358C37.077 8.24372 36.8753 8.10908 36.6533 8.01737C36.4313 7.92566 36.1933 7.87869 35.9531 7.87916ZM35.9531 8.48366C36.1135 8.48385 36.2723 8.51571 36.4204 8.57741C36.5685 8.6391 36.7029 8.72942 36.816 8.84319V8.84441C36.9299 8.95741 37.0202 9.09184 37.0819 9.23993C37.1436 9.38802 37.1753 9.54686 37.1753 9.70728C37.1753 9.8677 37.1436 10.0265 37.0819 10.1746C37.0202 10.3227 36.9299 10.4572 36.816 10.5702C36.7031 10.6842 36.5687 10.7747 36.4206 10.8364C36.2725 10.8982 36.1136 10.93 35.9531 10.93C35.7927 10.93 35.6338 10.8982 35.4857 10.8364C35.3376 10.7747 35.2032 10.6842 35.0902 10.5702C34.8868 10.3678 34.7616 10.0999 34.7367 9.81409C34.7119 9.52823 34.789 9.24279 34.9544 9.00833C34.9687 8.99381 34.9816 8.97789 34.9927 8.9608C35.0238 8.92058 35.0537 8.87975 35.0902 8.84319C35.3297 8.60309 35.6411 8.48366 35.9531 8.48366ZM26.2031 9.09791H34.2347C34.1188 9.42308 34.0972 9.7744 34.1723 10.1113C34.2475 10.4483 34.4163 10.7571 34.6594 11.0022C34.9043 11.2452 35.213 11.414 35.5497 11.4892C35.8864 11.5643 36.2375 11.5427 36.5625 11.4269V20.676H26.2031V9.09791ZM35.6484 9.09791C35.5876 9.09778 35.5282 9.11585 35.4778 9.14978C35.4273 9.18371 35.3882 9.23195 35.3654 9.2883C35.3426 9.34466 35.3371 9.40654 35.3498 9.466C35.3625 9.52546 35.3926 9.57978 35.4364 9.62197L35.5223 9.70728L35.437 9.79381C35.4067 9.82161 35.3824 9.85523 35.3655 9.89266C35.3486 9.93009 35.3394 9.97055 35.3385 10.0116C35.3377 10.0527 35.3451 10.0935 35.3604 10.1316C35.3757 10.1697 35.3985 10.2044 35.4276 10.2334C35.4566 10.2625 35.4912 10.2854 35.5293 10.3007C35.5674 10.3161 35.6082 10.3236 35.6493 10.3228C35.6903 10.3219 35.7308 10.3128 35.7683 10.296C35.8057 10.2791 35.8394 10.2548 35.8672 10.2246L35.9531 10.1393L36.0384 10.2246C36.0956 10.2819 36.1731 10.314 36.2539 10.3141C36.3348 10.3141 36.4124 10.2821 36.4696 10.2249C36.5268 10.1678 36.559 10.0903 36.559 10.0094C36.5591 9.92859 36.527 9.85102 36.4699 9.79381L36.384 9.70728L36.4693 9.62197C36.5137 9.57925 36.544 9.52408 36.5564 9.46373C36.5688 9.40339 36.5626 9.3407 36.5387 9.28395C36.5147 9.22719 36.4741 9.17903 36.4222 9.14582C36.3704 9.1126 36.3096 9.0959 36.2481 9.09791C36.169 9.10048 36.0941 9.1337 36.039 9.19053L35.9531 9.27584L35.8678 9.19053C35.8393 9.16115 35.8052 9.13781 35.7675 9.1219C35.7299 9.10599 35.6893 9.09783 35.6484 9.09791ZM7.48983 12.7968H25.5937V14.0253H8.22656C8.14575 14.0253 8.06825 14.0574 8.01112 14.1146C7.95398 14.1717 7.92187 14.2492 7.92187 14.33V19.4573H6.70312V13.5872C6.70174 13.4833 6.72112 13.3802 6.76012 13.2839C6.79912 13.1877 6.85695 13.1001 6.93023 13.0265C7.00352 12.9529 7.09076 12.8947 7.18686 12.8552C7.28295 12.8158 7.38596 12.7959 7.48983 12.7968ZM30.7619 13.3977C30.7218 13.3982 30.6822 13.4067 30.6454 13.4225C30.6086 13.4384 30.5753 13.4614 30.5474 13.4901C30.5195 13.5189 30.4976 13.5529 30.4828 13.5901C30.4681 13.6274 30.4608 13.6672 30.4614 13.7072V16.1447C30.4614 16.1459 30.4614 16.1472 30.4614 16.1484C30.4614 16.1524 30.4614 16.1565 30.4614 16.1606C30.4617 16.1652 30.4621 16.1699 30.4627 16.1746C30.463 16.1774 30.4634 16.1803 30.4639 16.1831C30.4722 16.2544 30.5055 16.3204 30.5578 16.3696C30.6101 16.4188 30.678 16.4479 30.7497 16.4518C30.7568 16.4525 30.7639 16.4529 30.771 16.4531H31.3804C31.4111 16.4534 31.4417 16.4491 31.4712 16.4403C32.2676 16.3732 32.9087 15.7297 32.9087 14.9296C32.9087 14.1313 32.2719 13.4891 31.4779 13.419C31.4478 13.41 31.4166 13.4057 31.3852 13.4062H30.8374C30.8125 13.4001 30.7875 13.3973 30.7619 13.3977ZM28.3335 13.4025C28.2765 13.4021 28.2205 13.4177 28.1719 13.4476C28.1233 13.4774 28.0841 13.5203 28.0587 13.5713L26.8399 16.0088C26.8216 16.0446 26.8106 16.0837 26.8075 16.1238C26.8044 16.1639 26.8092 16.2042 26.8217 16.2424C26.8343 16.2806 26.8543 16.316 26.8805 16.3464C26.9068 16.3769 26.9388 16.4018 26.9747 16.4198C27.0107 16.4379 27.0499 16.4486 27.09 16.4514C27.1301 16.4542 27.1704 16.449 27.2085 16.4362C27.2466 16.4234 27.2818 16.4031 27.312 16.3766C27.3423 16.3501 27.367 16.3179 27.3847 16.2818L27.6047 15.8437H29.0593L29.278 16.2818C29.2958 16.3179 29.3205 16.3501 29.3507 16.3766C29.381 16.4031 29.4162 16.4234 29.4543 16.4362C29.4924 16.449 29.5326 16.4542 29.5728 16.4514C29.6129 16.4486 29.652 16.4379 29.688 16.4198C29.7239 16.4018 29.756 16.3769 29.7822 16.3464C29.8085 16.316 29.8285 16.2806 29.841 16.2424C29.8535 16.2042 29.8584 16.1639 29.8552 16.1238C29.8521 16.0837 29.8411 16.0446 29.8228 16.0088L28.6041 13.5713C28.579 13.521 28.5405 13.4787 28.4929 13.4489C28.4452 13.4191 28.3903 13.403 28.3341 13.4025H28.3335ZM34.401 13.4062C34.3883 13.4078 34.3757 13.4103 34.3633 13.4135C33.894 13.4501 33.5181 13.8425 33.5181 14.3202C33.5181 14.8017 33.9001 15.1977 34.3748 15.2282C34.3937 15.2321 34.4129 15.2341 34.4321 15.2343H35.0415C35.2158 15.2343 35.3462 15.3647 35.3462 15.539C35.3462 15.7133 35.2158 15.8437 35.0415 15.8437H33.8227C33.7419 15.8437 33.6644 15.8758 33.6073 15.9329C33.5502 15.9901 33.5181 16.0676 33.5181 16.1484C33.5181 16.2292 33.5502 16.3067 33.6073 16.3638C33.6644 16.421 33.7419 16.4531 33.8227 16.4531H35.0415C35.0626 16.4528 35.0836 16.4504 35.1043 16.4458C35.3342 16.4295 35.5496 16.3271 35.7074 16.159C35.8652 15.991 35.9538 15.7695 35.9556 15.539C35.9556 15.06 35.5777 14.6658 35.1067 14.631C35.0852 14.6267 35.0634 14.6246 35.0415 14.6249H34.4535C34.4463 14.6247 34.4392 14.6247 34.4321 14.6249C34.3918 14.6259 34.3518 14.6187 34.3143 14.6038C34.2769 14.5888 34.2429 14.5664 34.2144 14.5379C34.1859 14.5094 34.1635 14.4754 34.1486 14.438C34.1336 14.4006 34.1264 14.3605 34.1274 14.3202C34.1274 14.146 34.2578 14.0156 34.4321 14.0156H35.6509C35.7317 14.0156 35.8092 13.9835 35.8663 13.9263C35.9235 13.8692 35.9556 13.7917 35.9556 13.7109C35.9556 13.6301 35.9235 13.5526 35.8663 13.4954C35.8092 13.4383 35.7317 13.4062 35.6509 13.4062H34.4535C34.4463 13.4059 34.4392 13.4059 34.4321 13.4062C34.422 13.4057 34.4112 13.4057 34.401 13.4062ZM31.0708 14.0156H31.3377C31.8813 14.0156 32.2993 14.4238 32.2993 14.9296C32.2993 15.4354 31.8813 15.8437 31.3377 15.8437H31.0708V14.0156ZM28.3311 14.3891L28.754 15.2343H27.9088L28.3311 14.3891ZM8.53125 14.6347H25.5937V15.1917H10.0364C9.55073 15.1917 9.14062 15.5835 9.14062 16.0698V19.4573H8.53125V14.6347ZM10.0364 15.801H25.5937V17.6292H9.75V16.0692C9.75 15.9199 9.86761 15.801 10.0364 15.801ZM10.6641 16.4104C10.5833 16.4104 10.5058 16.4425 10.4486 16.4996C10.3915 16.5568 10.3594 16.6343 10.3594 16.7151C10.3594 16.7959 10.3915 16.8734 10.4486 16.9305C10.5058 16.9877 10.5833 17.0198 10.6641 17.0198C10.7449 17.0198 10.8224 16.9877 10.8795 16.9305C10.9366 16.8734 10.9687 16.7959 10.9687 16.7151C10.9687 16.6343 10.9366 16.5568 10.8795 16.4996C10.8224 16.4425 10.7449 16.4104 10.6641 16.4104ZM11.8828 16.4104C11.802 16.4104 11.7245 16.4425 11.6674 16.4996C11.6102 16.5568 11.5781 16.6343 11.5781 16.7151C11.5781 16.7959 11.6102 16.8734 11.6674 16.9305C11.7245 16.9877 11.802 17.0198 11.8828 17.0198C11.9636 17.0198 12.0411 16.9877 12.0983 16.9305C12.1554 16.8734 12.1875 16.7959 12.1875 16.7151C12.1875 16.6343 12.1554 16.5568 12.0983 16.4996C12.0411 16.4425 11.9636 16.4104 11.8828 16.4104ZM13.1016 16.4104C13.0208 16.4104 12.9433 16.4425 12.8861 16.4996C12.829 16.5568 12.7969 16.6343 12.7969 16.7151C12.7969 16.7959 12.829 16.8734 12.8861 16.9305C12.9433 16.9877 13.0208 17.0198 13.1016 17.0198C13.1824 17.0198 13.2599 16.9877 13.317 16.9305C13.3741 16.8734 13.4062 16.7959 13.4062 16.7151C13.4062 16.6343 13.3741 16.5568 13.317 16.4996C13.2599 16.4425 13.1824 16.4104 13.1016 16.4104ZM9.75 18.2385H25.5937V20.9807C25.5937 21.0615 25.6258 21.139 25.683 21.1962C25.7401 21.2533 25.8176 21.2854 25.8984 21.2854H29.25V24.6735C29.25 24.8228 29.1324 24.9417 28.9636 24.9417H24.9844V22.8088C24.9844 22.728 24.9523 22.6505 24.8951 22.5934C24.838 22.5363 24.7605 22.5042 24.6797 22.5042H22.2422C22.1614 22.5042 22.0839 22.5363 22.0267 22.5934C21.9696 22.6505 21.9375 22.728 21.9375 22.8088V24.9417H12.7969V22.0398C12.7969 22.0366 12.7969 22.0333 12.7969 22.0301C12.8212 22.0087 12.8487 21.9917 12.8718 21.9685C13.2138 21.6248 13.4058 21.1597 13.4058 20.6748C13.4058 20.19 13.2138 19.7248 12.8718 19.3811C12.5281 19.0391 12.063 18.8472 11.5781 18.8472C11.0933 18.8472 10.6281 19.0391 10.2844 19.3811C10.2607 19.4043 10.2448 19.4323 10.2223 19.4573H9.75V18.2385ZM14.3203 18.8479C14.2395 18.8479 14.162 18.88 14.1049 18.9371C14.0477 18.9943 14.0156 19.0718 14.0156 19.1526V21.5901C14.0156 21.6709 14.0477 21.7484 14.1049 21.8055C14.162 21.8627 14.2395 21.8948 14.3203 21.8948H16.7578C16.8386 21.8948 16.9161 21.8627 16.9733 21.8055C17.0304 21.7484 17.0625 21.6709 17.0625 21.5901V19.1526C17.0625 19.0718 17.0304 18.9943 16.9733 18.9371C16.9161 18.88 16.8386 18.8479 16.7578 18.8479H14.3203ZM17.6719 18.8906V19.4999H24.9844V18.8906H17.6719ZM11.5781 19.4536C11.8901 19.4536 12.2015 19.5731 12.441 19.8132C12.5548 19.9262 12.6451 20.0606 12.7067 20.2087C12.7683 20.3568 12.8001 20.5156 12.8001 20.676C12.8001 20.8364 12.7683 20.9952 12.7067 21.1433C12.6451 21.2914 12.5548 21.4259 12.441 21.5389C12.3279 21.6528 12.1934 21.7432 12.0452 21.8049C11.897 21.8666 11.738 21.8983 11.5775 21.8983C11.417 21.8983 11.2581 21.8666 11.1099 21.8049C10.9617 21.7432 10.8271 21.6528 10.714 21.5389C10.6002 21.4258 10.51 21.2913 10.4484 21.1432C10.3868 20.9951 10.3552 20.8362 10.3553 20.6758C10.3554 20.5154 10.3873 20.3565 10.4491 20.2085C10.5108 20.0604 10.6013 19.9261 10.7152 19.8132C10.9547 19.5731 11.2661 19.4536 11.5781 19.4536ZM14.625 19.4573H16.4531V21.2854H14.625V19.4573ZM1.82812 20.0667H9.399C9.42969 20.0714 9.46093 20.0714 9.49162 20.0667H9.85969C9.74389 20.3913 9.72221 20.742 9.79714 21.0784C9.87207 21.4148 10.0406 21.7231 10.2832 21.9679C10.5283 22.211 10.8371 22.38 11.174 22.4552C11.5109 22.5305 11.8623 22.509 12.1875 22.3933V29.2073H1.82812V20.0667ZM11.2734 20.0667C11.2126 20.0665 11.1532 20.0846 11.1028 20.1185C11.0523 20.1525 11.0132 20.2007 10.9904 20.2571C10.9676 20.3134 10.9622 20.3753 10.9748 20.4348C10.9875 20.4942 11.0176 20.5485 11.0614 20.5907L11.1473 20.676L11.062 20.7626C11.0317 20.7904 11.0074 20.824 10.9905 20.8614C10.9736 20.8988 10.9644 20.9393 10.9635 20.9804C10.9627 21.0214 10.9701 21.0623 10.9854 21.1004C11.0007 21.1385 11.0235 21.1731 11.0526 21.2022C11.0816 21.2313 11.1162 21.2541 11.1543 21.2695C11.1924 21.2849 11.2332 21.2923 11.2743 21.2915C11.3153 21.2907 11.3558 21.2816 11.3933 21.2647C11.4307 21.2479 11.4644 21.2236 11.4922 21.1934L11.5781 21.1081L11.6634 21.1934C11.6917 21.2217 11.7253 21.2442 11.7623 21.2595C11.7993 21.2749 11.8389 21.2828 11.8789 21.2828C11.919 21.2829 11.9586 21.275 11.9956 21.2597C12.0326 21.2444 12.0662 21.222 12.0946 21.1937C12.1229 21.1654 12.1454 21.1318 12.1607 21.0948C12.1761 21.0579 12.184 21.0182 12.184 20.9782C12.184 20.9382 12.1762 20.8985 12.1609 20.8615C12.1456 20.8245 12.1232 20.7909 12.0949 20.7626L12.009 20.676L12.0943 20.5907C12.1387 20.548 12.169 20.4928 12.1814 20.4325C12.1938 20.3721 12.1876 20.3095 12.1637 20.2527C12.1397 20.1959 12.0991 20.1478 12.0473 20.1146C11.9954 20.0814 11.9346 20.0646 11.8731 20.0667C11.794 20.0692 11.7191 20.1024 11.664 20.1593L11.5781 20.2446L11.4928 20.1593C11.4643 20.1299 11.4302 20.1066 11.3925 20.0907C11.3549 20.0747 11.3143 20.0666 11.2734 20.0667ZM17.6719 20.1093V20.7187H24.9844V20.1093H17.6719ZM29.8594 21.2854H30.4687V26.2128H12.7969V25.551H28.9636C29.4493 25.551 29.8594 25.1598 29.8594 24.6735V21.2854ZM31.0781 21.2854H32.2969V28.0495H12.7969V26.8222H30.7734C30.8542 26.8222 30.9317 26.7901 30.9889 26.7329C31.046 26.6758 31.0781 26.5983 31.0781 26.5175V21.2854ZM17.6719 21.3281V21.9374H24.9844V21.3281H17.6719ZM6.39356 22.5432C6.31296 22.5444 6.23616 22.5776 6.17997 22.6354C6.12377 22.6932 6.09277 22.7709 6.09375 22.8515V25.2677C6.08895 25.327 6.10163 25.3864 6.13022 25.4386C6.1588 25.4908 6.20205 25.5335 6.25462 25.5614C6.25584 25.5622 6.25706 25.563 6.25828 25.5638C6.28125 25.5756 6.30561 25.5844 6.3308 25.59C6.34445 25.593 6.3583 25.595 6.37223 25.5961C6.38214 25.5974 6.39211 25.5982 6.40209 25.5986H7.01147C7.04203 25.5986 7.07244 25.5941 7.10166 25.5852C7.89933 25.5193 8.53978 24.8758 8.53978 24.0751C8.53978 23.2768 7.90237 22.6333 7.10775 22.5645C7.07811 22.5556 7.04728 22.5513 7.01634 22.5517H6.46791C6.44357 22.5458 6.4186 22.5429 6.39356 22.5432ZM13.4062 22.5468V23.1562H21.3281V22.5468H13.4062ZM3.96459 22.548C3.90781 22.5476 3.85205 22.5631 3.80359 22.5927C3.75514 22.6223 3.71593 22.6649 3.69037 22.7156L2.47163 25.1531C2.43542 25.2254 2.42943 25.3092 2.45498 25.3859C2.48052 25.4627 2.5355 25.5261 2.60782 25.5623C2.68014 25.5985 2.76389 25.6045 2.84062 25.579C2.91736 25.5534 2.98081 25.4984 3.01702 25.4261L3.23517 24.9892H4.69158L4.90973 25.4261C4.92747 25.4622 4.95217 25.4944 4.98242 25.5209C5.01267 25.5474 5.04786 25.5677 5.08597 25.5805C5.12408 25.5933 5.16435 25.5985 5.20446 25.5957C5.24458 25.5929 5.28374 25.5821 5.31969 25.5641C5.35564 25.5461 5.38766 25.5212 5.41392 25.4907C5.44018 25.4602 5.46016 25.4249 5.47269 25.3867C5.48522 25.3485 5.49007 25.3082 5.48695 25.2681C5.48383 25.228 5.47281 25.1889 5.45452 25.1531L4.23577 22.7156C4.21045 22.6654 4.17171 22.6231 4.12384 22.5935C4.07598 22.5639 4.02086 22.5482 3.96459 22.548ZM10.0321 22.5517C10.0192 22.5533 10.0064 22.5557 9.99375 22.559C9.52453 22.5956 9.14916 22.988 9.14916 23.4657C9.14916 23.9472 9.53123 24.3433 10.0059 24.3737C10.0248 24.3776 10.044 24.3796 10.0632 24.3798H10.6726C10.8463 24.3798 10.9773 24.5102 10.9773 24.6845C10.9773 24.8588 10.8463 24.9892 10.6726 24.9892H9.45384C9.37303 24.9892 9.29554 25.0213 9.2384 25.0784C9.18126 25.1356 9.14916 25.2131 9.14916 25.2939C9.14916 25.3747 9.18126 25.4522 9.2384 25.5093C9.29554 25.5665 9.37303 25.5986 9.45384 25.5986H10.6726C10.6937 25.5983 10.7147 25.5959 10.7354 25.5912C10.9653 25.575 11.1807 25.4726 11.3385 25.3045C11.4963 25.1365 11.5849 24.915 11.5867 24.6845C11.5867 24.2055 11.2088 23.8107 10.7378 23.7765C10.7163 23.7722 10.6945 23.7701 10.6726 23.7704H10.0845C10.0774 23.7702 10.0703 23.7702 10.0632 23.7704C10.0229 23.7714 9.98286 23.7642 9.94544 23.7493C9.90802 23.7343 9.87403 23.7119 9.84554 23.6834C9.81704 23.6549 9.79464 23.6209 9.77968 23.5835C9.76472 23.5461 9.75753 23.506 9.75853 23.4657C9.75853 23.2915 9.88894 23.1611 10.0632 23.1611H11.282C11.3628 23.1611 11.4403 23.129 11.4974 23.0718C11.5546 23.0147 11.5867 22.9372 11.5867 22.8564C11.5867 22.7756 11.5546 22.6981 11.4974 22.6409C11.4403 22.5838 11.3628 22.5517 11.282 22.5517H10.0845C10.0774 22.5514 10.0703 22.5514 10.0632 22.5517C10.0529 22.5512 10.0425 22.5512 10.0321 22.5517ZM22.5469 23.1135H24.375V24.9417H22.5469V23.1135ZM6.70312 23.1611H6.97003C7.51359 23.1611 7.93041 23.5693 7.93041 24.0751C7.93041 24.5809 7.51359 24.9892 6.97003 24.9892H6.70312V23.1611ZM3.96337 23.5334L4.38689 24.3798H3.54047L3.96337 23.5334ZM13.4062 23.7656V24.3749H21.3281V23.7656H13.4062ZM12.7969 28.6588H16.4531V29.1628C16.4531 29.7697 16.9382 30.2761 17.5409 30.2761H21.4591C22.0624 30.2761 22.5469 29.7697 22.5469 29.1628V28.6582H34.0641C33.9081 30.0202 32.8063 31.0781 31.3993 31.0781H7.60073C7.14241 31.0791 6.6913 30.9639 6.28955 30.7433C5.8878 30.5227 5.54852 30.2039 5.30339 29.8167H12.4922C12.573 29.8167 12.6505 29.7846 12.7076 29.7274C12.7648 29.6703 12.7969 29.5928 12.7969 29.512V28.6588ZM17.0625 28.6588H21.9375V29.1628C21.9375 29.4529 21.7242 29.6667 21.4591 29.6667H17.5409C17.2758 29.6667 17.0625 29.4529 17.0625 29.1628V28.6588Z" fill="url(#paint0_linear_280_538)"/>
<defs>
<linearGradient id="paint0_linear_280_538" x1="-2.53913" y1="5.9252" x2="40.8145" y2="16.1168" gradientUnits="userSpaceOnUse">
<stop stop-color="#FC365F"/>
<stop offset="0.984375" stop-color="#A00BFB"/>
</linearGradient>
</defs>
</svg>
