<svg width="39" height="39" viewBox="0 0 39 39" fill="none" xmlns="http://www.w3.org/2000/svg">
<path d="M5.48439 4.875C5.3247 4.88103 5.17319 4.94717 5.06019 5.06017C4.94719 5.17317 4.88105 5.32468 4.87502 5.48438V9.29297L2.66543 11.3502C2.54996 11.4594 2.48173 11.6094 2.4753 11.7683L2.43752 12.6445C2.43115 12.6951 2.43115 12.7463 2.43752 12.7969V13.0638C2.43115 13.1144 2.43115 13.1655 2.43752 13.2161V13.4062C2.43752 14.7469 3.53439 15.8438 4.87502 15.8438V27.4219C4.87502 27.4426 4.87258 27.4779 4.87502 27.4987C4.87868 27.5389 4.90061 27.573 4.9128 27.612C4.91889 27.6315 4.90549 27.6327 4.9128 27.651C4.93718 27.7071 4.98836 27.757 5.02736 27.8033C5.04077 27.8192 5.05052 27.8265 5.06514 27.8399C5.09439 27.8692 5.1078 27.8948 5.14192 27.9167C5.19311 27.9496 5.27355 27.9776 5.33205 27.9935C5.38446 28.0081 5.42955 28.0312 5.48439 28.0312H14.625V31.6875H10.9688V32.9062H28.0313V31.6875H24.375V28.0312H33.5156C33.5559 28.0312 33.59 28.0434 33.6302 28.0312C33.6704 28.0191 33.707 28.0093 33.7436 27.9935C33.7631 27.9813 33.802 27.9642 33.8203 27.9545C33.8569 27.9362 33.8654 27.9057 33.8971 27.8789C33.9276 27.8533 33.9849 27.8338 34.0105 27.8021C34.0226 27.7863 34.0007 27.7814 34.0105 27.7656C34.0226 27.7473 34.0397 27.7071 34.0495 27.6888C34.0592 27.6705 34.0787 27.6693 34.086 27.6498C34.0946 27.6315 34.0811 27.5937 34.086 27.5742C34.0921 27.5547 34.1226 27.5559 34.125 27.5364C34.1287 27.5169 34.1238 27.4792 34.125 27.4597V15.8438C35.4656 15.8438 36.5625 14.7469 36.5625 13.4062V13.1393C36.5641 13.1142 36.5641 13.0889 36.5625 13.0638V12.6823C36.5641 12.6571 36.5641 12.6319 36.5625 12.6067L36.5247 11.7683C36.5183 11.6088 36.4496 11.4583 36.3334 11.349L34.125 9.29297V5.48438C34.119 5.32468 34.0528 5.17317 33.9398 5.06017C33.8269 4.94717 33.6753 4.88103 33.5156 4.875H5.48439ZM6.09377 6.09375H32.9063V8.151L32.1823 7.46484C32.0672 7.36319 31.9179 7.30878 31.7643 7.3125H7.23696C7.17357 7.30242 7.109 7.30242 7.04561 7.3125C6.95906 7.34531 6.88112 7.39741 6.81771 7.46484L6.09377 8.151V6.09375ZM7.46486 8.53125H31.5352L33.4779 10.3216L5.44661 10.3972L7.46486 8.53125ZM34.7722 11.5403L35.306 12.0352L35.3438 12.6067C35.3434 12.6193 35.3434 12.6319 35.3438 12.6445V13.1016C35.3422 13.1271 35.3422 13.1528 35.3438 13.1783V13.4062C35.3438 14.0924 34.8112 14.625 34.125 14.625C33.4389 14.625 32.9063 14.0924 32.9063 13.4062C32.9063 13.2446 32.8421 13.0896 32.7278 12.9754C32.6135 12.8611 32.4585 12.7969 32.2969 12.7969C32.1353 12.7969 31.9803 12.8611 31.866 12.9754C31.7517 13.0896 31.6875 13.2446 31.6875 13.4062C31.6875 14.0924 31.1549 14.625 30.4688 14.625C29.7826 14.625 29.25 14.0924 29.25 13.4062C29.25 13.2446 29.1858 13.0896 29.0715 12.9754C28.9573 12.8611 28.8023 12.7969 28.6406 12.7969C28.479 12.7969 28.324 12.8611 28.2097 12.9754C28.0955 13.0896 28.0313 13.2446 28.0313 13.4062C28.0313 14.0924 27.4987 14.625 26.8125 14.625C26.1264 14.625 25.5938 14.0924 25.5938 13.4062C25.5938 13.2446 25.5296 13.0896 25.4153 12.9754C25.301 12.8611 25.146 12.7969 24.9844 12.7969C24.8228 12.7969 24.6678 12.8611 24.5535 12.9754C24.4392 13.0896 24.375 13.2446 24.375 13.4062C24.375 14.0924 23.8424 14.625 23.1563 14.625C22.4701 14.625 21.9375 14.0924 21.9375 13.4062C21.9375 13.2446 21.8733 13.0896 21.759 12.9754C21.6448 12.8611 21.4898 12.7969 21.3281 12.7969C21.1665 12.7969 21.0115 12.8611 20.8972 12.9754C20.783 13.0896 20.7188 13.2446 20.7188 13.4062C20.7188 14.0924 20.1862 14.625 19.5 14.625C18.8139 14.625 18.2813 14.0924 18.2813 13.4062C18.2813 13.2446 18.2171 13.0896 18.1028 12.9754C17.9885 12.8611 17.8335 12.7969 17.6719 12.7969C17.5103 12.7969 17.3553 12.8611 17.241 12.9754C17.1267 13.0896 17.0625 13.2446 17.0625 13.4062C17.0625 14.0924 16.5299 14.625 15.8438 14.625C15.1576 14.625 14.625 14.0924 14.625 13.4062C14.625 13.2446 14.5608 13.0896 14.4465 12.9754C14.3323 12.8611 14.1773 12.7969 14.0156 12.7969C13.854 12.7969 13.699 12.8611 13.5847 12.9754C13.4705 13.0896 13.4063 13.2446 13.4063 13.4062C13.4063 14.0924 12.8737 14.625 12.1875 14.625C11.5014 14.625 10.9688 14.0924 10.9688 13.4062C10.9688 13.2446 10.9046 13.0896 10.7903 12.9754C10.676 12.8611 10.521 12.7969 10.3594 12.7969C10.1978 12.7969 10.0428 12.8611 9.9285 12.9754C9.81422 13.0896 9.75002 13.2446 9.75002 13.4062C9.75002 14.0924 9.21742 14.625 8.53127 14.625C7.84511 14.625 7.31252 14.0924 7.31252 13.4062C7.31252 13.2446 7.24832 13.0896 7.13404 12.9754C7.01976 12.8611 6.86476 12.7969 6.70314 12.7969C6.54153 12.7969 6.38653 12.8611 6.27225 12.9754C6.15797 13.0896 6.09377 13.2446 6.09377 13.4062C6.09377 14.0924 5.56118 14.625 4.87502 14.625C4.18886 14.625 3.65627 14.0924 3.65627 13.4062V13.1783C3.65788 13.1528 3.65788 13.1271 3.65627 13.1016V12.6823L3.69405 12.0352L4.15108 11.6159L34.7722 11.5403ZM6.70314 14.8541C7.15043 15.4221 7.75736 15.8438 8.53127 15.8438C9.30517 15.8438 9.91211 15.4221 10.3594 14.8529C10.8067 15.4221 11.4136 15.8438 12.1875 15.8438C12.9614 15.8438 13.5684 15.4221 14.0156 14.8529C14.4629 15.4221 15.0699 15.8438 15.8438 15.8438C16.6177 15.8438 17.2246 15.4221 17.6719 14.8529C18.1192 15.4221 18.7261 15.8438 19.5 15.8438C20.2739 15.8438 20.8809 15.4221 21.3281 14.8529C21.7754 15.4221 22.3824 15.8438 23.1563 15.8438C23.9302 15.8438 24.5371 15.4221 24.9844 14.8529C25.4317 15.4221 26.0386 15.8438 26.8125 15.8438C27.5864 15.8438 28.1934 15.4221 28.6406 14.8529C29.0879 15.4221 29.6949 15.8438 30.4688 15.8438C31.2427 15.8438 31.8496 15.4221 32.2969 14.8529C32.4675 15.0711 32.6881 15.2661 32.9063 15.4257V23.1562H6.09377V15.4245C6.31193 15.2661 6.53252 15.0723 6.70314 14.8541ZM6.09377 24.375H32.9063V26.8125H6.09377V24.375ZM15.8438 28.0312H23.1563V31.6875H15.8438V28.0312Z" fill="url(#paint0_linear_280_514)"/>
<defs>
<linearGradient id="paint0_linear_280_514" x1="-1.07528" y1="2.57447" x2="40.1985" y2="10.2675" gradientUnits="userSpaceOnUse">
<stop stopColor="#FC365F"/>
<stop offset="0.984375" stopColor="#A00BFB"/>
</linearGradient>
</defs>
</svg>
