<svg width="229" height="140" viewBox="0 0 229 140" fill="none" xmlns="http://www.w3.org/2000/svg">
<g id="Frame" clip-path="url(#clip0_297_1734)">
<path id="Vector" d="M224.939 140C227.182 140 229 138.18 229 135.934C229 133.689 227.182 131.869 224.939 131.869C222.697 131.869 220.879 133.689 220.879 135.934C220.879 138.18 222.697 140 224.939 140Z" fill="url(#paint0_linear_297_1734)"/>
<path id="Vector_2" d="M188.119 140C190.362 140 192.179 138.18 192.179 135.934C192.179 133.689 190.362 131.869 188.119 131.869C185.877 131.869 184.059 133.689 184.059 135.934C184.059 138.18 185.877 140 188.119 140Z" fill="url(#paint1_linear_297_1734)"/>
<path id="Vector_3" d="M151.312 140C152.119 140.003 152.909 139.766 153.581 139.32C154.253 138.873 154.778 138.237 155.089 137.491C155.4 136.746 155.483 135.925 155.327 135.132C155.172 134.34 154.785 133.611 154.215 133.039C153.646 132.467 152.92 132.076 152.129 131.918C151.338 131.759 150.517 131.839 149.772 132.147C149.026 132.456 148.389 132.979 147.94 133.65C147.492 134.322 147.252 135.111 147.252 135.919C147.252 136.999 147.679 138.034 148.44 138.799C149.201 139.564 150.234 139.996 151.312 140Z" fill="url(#paint2_linear_297_1734)"/>
<path id="Vector_4" d="M114.508 140C115.314 140 116.102 139.761 116.772 139.312C117.442 138.864 117.965 138.227 118.273 137.481C118.582 136.735 118.662 135.915 118.505 135.123C118.348 134.331 117.959 133.604 117.389 133.033C116.819 132.463 116.093 132.074 115.303 131.917C114.512 131.759 113.692 131.84 112.948 132.149C112.203 132.458 111.566 132.981 111.119 133.652C110.671 134.323 110.432 135.112 110.432 135.919C110.432 136.455 110.537 136.986 110.742 137.481C110.947 137.976 111.247 138.426 111.625 138.805C112.004 139.184 112.453 139.484 112.948 139.689C113.442 139.895 113.972 140 114.508 140Z" fill="url(#paint3_linear_297_1734)"/>
<path id="Vector_5" d="M77.6864 140C79.9289 140 81.7469 138.18 81.7469 135.934C81.7469 133.689 79.9289 131.869 77.6864 131.869C75.4439 131.869 73.626 133.689 73.626 135.934C73.626 138.18 75.4439 140 77.6864 140Z" fill="url(#paint4_linear_297_1734)"/>
<path id="Vector_6" d="M42.4353 139.516C44.5094 138.662 45.4994 136.286 44.6467 134.21C43.7939 132.133 41.4213 131.142 39.3472 131.996C37.2732 132.849 36.2831 135.225 37.1358 137.302C37.9886 139.378 40.3612 140.37 42.4353 139.516Z" fill="url(#paint5_linear_297_1734)"/>
<path id="Vector_7" d="M4.07548 131.915C3.26805 131.912 2.47801 132.149 1.80539 132.596C1.13278 133.044 0.607967 133.681 0.297573 134.427C-0.0128216 135.174 -0.0948295 135.995 0.0619465 136.788C0.218723 137.581 0.607181 138.31 1.17812 138.882C1.74906 139.453 2.47665 139.842 3.26872 139.999C4.06078 140.156 4.88166 140.074 5.62705 139.763C6.37243 139.453 7.00886 138.927 7.45554 138.254C7.90223 137.58 8.13899 136.789 8.13595 135.981C8.1319 134.904 7.70284 133.872 6.94223 133.11C6.18163 132.349 5.15113 131.919 4.07548 131.915Z" fill="url(#paint6_linear_297_1734)"/>
<path id="Vector_8" d="M224.939 107.029C227.182 107.029 229 105.209 229 102.963C229 100.718 227.182 98.8978 224.939 98.8978C222.697 98.8978 220.879 100.718 220.879 102.963C220.879 105.209 222.697 107.029 224.939 107.029Z" fill="url(#paint7_linear_297_1734)"/>
<path id="Vector_9" d="M188.119 107.029C190.362 107.029 192.179 105.209 192.179 102.963C192.179 100.718 190.362 98.8978 188.119 98.8978C185.877 98.8978 184.059 100.718 184.059 102.963C184.059 105.209 185.877 107.029 188.119 107.029Z" fill="url(#paint8_linear_297_1734)"/>
<path id="Vector_10" d="M151.312 107.029C152.12 107.032 152.91 106.795 153.583 106.348C154.255 105.9 154.78 105.263 155.091 104.517C155.401 103.771 155.483 102.949 155.326 102.156C155.169 101.363 154.781 100.634 154.21 100.062C153.639 99.4907 152.911 99.1017 152.119 98.9447C151.327 98.7878 150.506 98.8699 149.761 99.1807C149.016 99.4914 148.379 100.017 147.933 100.69C147.486 101.364 147.249 102.155 147.252 102.963C147.256 104.04 147.685 105.072 148.446 105.834C149.206 106.595 150.237 107.025 151.312 107.029Z" fill="url(#paint9_linear_297_1734)"/>
<path id="Vector_11" d="M114.508 107.029C115.314 107.029 116.103 106.789 116.773 106.34C117.444 105.891 117.967 105.253 118.275 104.506C118.583 103.76 118.662 102.938 118.504 102.146C118.345 101.354 117.956 100.627 117.384 100.057C116.812 99.4867 116.085 99.0993 115.293 98.9436C114.501 98.7879 113.681 98.8709 112.937 99.1822C112.193 99.4934 111.557 100.019 111.111 100.692C110.665 101.365 110.429 102.156 110.432 102.963C110.432 103.499 110.537 104.028 110.742 104.523C110.947 105.017 111.248 105.466 111.626 105.844C112.005 106.221 112.454 106.52 112.949 106.724C113.443 106.927 113.973 107.031 114.508 107.029Z" fill="url(#paint10_linear_297_1734)"/>
<path id="Vector_12" d="M77.6864 107.029C79.9289 107.029 81.7469 105.209 81.7469 102.963C81.7469 100.718 79.9289 98.8978 77.6864 98.8978C75.4439 98.8978 73.626 100.718 73.626 102.963C73.626 105.209 75.4439 107.029 77.6864 107.029Z" fill="url(#paint11_linear_297_1734)"/>
<path id="Vector_13" d="M42.4392 106.556C44.5133 105.703 45.5034 103.327 44.6506 101.25C43.7979 99.1735 41.4252 98.1822 39.3511 99.036C37.2771 99.8899 36.287 102.266 37.1398 104.342C37.9925 106.419 40.3652 107.41 42.4392 106.556Z" fill="url(#paint12_linear_297_1734)"/>
<path id="Vector_14" d="M4.07589 107.029C4.88267 107.029 5.67125 106.789 6.34185 106.34C7.01244 105.891 7.53488 105.253 7.84291 104.506C8.15094 103.76 8.23086 102.938 8.07234 102.146C7.91382 101.354 7.52397 100.627 6.95241 100.057C6.38086 99.4867 5.65327 99.0993 4.86163 98.9436C4.06998 98.7879 3.25004 98.8709 2.50555 99.1822C1.76107 99.4934 1.1255 100.019 0.679496 100.692C0.233493 101.365 -0.00301541 102.156 2.90261e-05 102.963C2.51914e-05 103.499 0.10555 104.028 0.310568 104.523C0.515585 105.017 0.816192 105.466 1.19487 105.844C1.57355 106.221 2.02297 106.52 2.51738 106.724C3.01179 106.927 3.54138 107.031 4.07589 107.029Z" fill="url(#paint13_linear_297_1734)"/>
<path id="Vector_15" d="M224.939 74.0579C227.182 74.0579 229 72.2377 229 69.9923C229 67.747 227.182 65.9268 224.939 65.9268C222.697 65.9268 220.879 67.747 220.879 69.9923C220.879 72.2377 222.697 74.0579 224.939 74.0579Z" fill="url(#paint14_linear_297_1734)"/>
<path id="Vector_16" d="M188.119 74.0579C190.362 74.0579 192.179 72.2377 192.179 69.9923C192.179 67.747 190.362 65.9268 188.119 65.9268C185.877 65.9268 184.059 67.747 184.059 69.9923C184.059 72.2377 185.877 74.0579 188.119 74.0579Z" fill="url(#paint15_linear_297_1734)"/>
<path id="Vector_17" d="M151.312 74.0733C152.119 74.0764 152.909 73.8396 153.581 73.3931C154.253 72.9465 154.778 72.3101 155.089 71.5647C155.4 70.8193 155.483 69.9983 155.327 69.2057C155.172 68.413 154.785 67.6844 154.215 67.1122C153.646 66.5399 152.92 66.1496 152.129 65.9909C151.338 65.8322 150.517 65.9121 149.772 66.2206C149.026 66.529 148.389 67.0521 147.94 67.7235C147.492 68.3949 147.252 69.1845 147.252 69.9923C147.252 71.072 147.679 72.1077 148.44 72.8725C149.201 73.6374 150.234 74.0692 151.312 74.0733Z" fill="url(#paint16_linear_297_1734)"/>
<path id="Vector_18" d="M114.508 74.0733C115.314 74.0733 116.102 73.834 116.772 73.3855C117.442 72.9371 117.965 72.2998 118.273 71.5541C118.582 70.8084 118.662 69.9878 118.505 69.1962C118.348 68.4045 117.959 67.6773 117.389 67.1066C116.819 66.5359 116.093 66.1473 115.303 65.9898C114.512 65.8323 113.692 65.9132 112.948 66.222C112.203 66.5309 111.566 67.054 111.119 67.7251C110.671 68.3962 110.432 69.1852 110.432 69.9923C110.432 70.5282 110.537 71.059 110.742 71.5541C110.947 72.0492 111.247 72.499 111.625 72.878C112.004 73.2569 112.453 73.5576 112.948 73.7626C113.442 73.9677 113.972 74.0733 114.508 74.0733Z" fill="url(#paint17_linear_297_1734)"/>
<path id="Vector_19" d="M77.6864 74.0579C79.9289 74.0579 81.7469 72.2377 81.7469 69.9923C81.7469 67.747 79.9289 65.9268 77.6864 65.9268C75.4439 65.9268 73.626 67.747 73.626 69.9923C73.626 72.2377 75.4439 74.0579 77.6864 74.0579Z" fill="url(#paint18_linear_297_1734)"/>
<path id="Vector_20" d="M42.4363 73.5982C44.5103 72.7443 45.5004 70.3687 44.6477 68.292C43.7949 66.2153 41.4223 65.2241 39.3482 66.0779C37.2742 66.9317 36.284 69.3073 37.1368 71.384C37.9895 73.4607 40.3622 74.452 42.4363 73.5982Z" fill="url(#paint19_linear_297_1734)"/>
<path id="Vector_21" d="M4.07587 74.0733C4.88199 74.0733 5.67005 73.834 6.34032 73.3855C7.01059 72.9371 7.53289 72.2998 7.84138 71.5541C8.14987 70.8084 8.23071 69.9878 8.07344 69.1962C7.91617 68.4045 7.52803 67.6773 6.95802 67.1066C6.388 66.5359 5.66162 66.1473 4.87099 65.9898C4.08035 65.8323 3.26099 65.9132 2.51623 66.222C1.77147 66.5309 1.13484 67.054 0.686977 67.7251C0.23912 68.3962 0 69.1852 0 69.9923C0 71.0746 0.429536 72.1127 1.1939 72.878C1.95827 73.6433 2.99489 74.0733 4.07587 74.0733Z" fill="url(#paint20_linear_297_1734)"/>
<path id="Vector_22" d="M224.939 41.1022C227.182 41.1022 229 39.282 229 37.0366C229 34.7913 227.182 32.9711 224.939 32.9711C222.697 32.9711 220.879 34.7913 220.879 37.0366C220.879 39.282 222.697 41.1022 224.939 41.1022Z" fill="url(#paint21_linear_297_1734)"/>
<path id="Vector_23" d="M188.119 41.1022C190.362 41.1022 192.179 39.282 192.179 37.0366C192.179 34.7913 190.362 32.9711 188.119 32.9711C185.877 32.9711 184.059 34.7913 184.059 37.0366C184.059 39.282 185.877 41.1022 188.119 41.1022Z" fill="url(#paint22_linear_297_1734)"/>
<path id="Vector_24" d="M151.312 41.056C152.12 41.059 152.91 40.8219 153.583 40.3746C154.255 39.9274 154.78 39.2901 155.091 38.5438C155.401 37.7975 155.483 36.9757 155.326 36.1826C155.169 35.3896 154.781 34.661 154.21 34.0894C153.639 33.5177 152.911 33.1287 152.119 32.9717C151.327 32.8147 150.506 32.8968 149.761 33.2076C149.016 33.5184 148.379 34.0439 147.933 34.7174C147.486 35.3908 147.249 36.182 147.252 36.9904C147.256 38.0674 147.685 39.0992 148.446 39.8608C149.206 40.6223 150.237 41.0519 151.312 41.056Z" fill="url(#paint23_linear_297_1734)"/>
<path id="Vector_25" d="M114.508 41.056C115.314 41.056 116.103 40.8162 116.773 40.3671C117.444 39.918 117.967 39.2798 118.275 38.5332C118.583 37.7866 118.662 36.9653 118.504 36.1732C118.345 35.3812 117.956 34.654 117.384 34.0839C116.812 33.5138 116.085 33.1263 115.293 32.9706C114.501 32.8149 113.681 32.8979 112.937 33.2091C112.193 33.5204 111.557 34.0458 111.111 34.719C110.665 35.3921 110.429 36.1826 110.432 36.9904C110.432 37.5256 110.537 38.0556 110.742 38.5498C110.947 39.0441 111.248 39.4929 111.626 39.8706C112.005 40.2484 112.454 40.5476 112.949 40.751C113.443 40.9544 113.973 41.058 114.508 41.056Z" fill="url(#paint24_linear_297_1734)"/>
<path id="Vector_26" d="M77.6864 41.1022C79.9289 41.1022 81.7469 39.282 81.7469 37.0366C81.7469 34.7913 79.9289 32.9711 77.6864 32.9711C75.4439 32.9711 73.626 34.7913 73.626 37.0366C73.626 39.282 75.4439 41.1022 77.6864 41.1022Z" fill="url(#paint25_linear_297_1734)"/>
<path id="Vector_27" d="M42.4402 40.639C44.5143 39.7852 45.5044 37.4095 44.6516 35.3329C43.7989 33.2562 41.4262 32.2649 39.3521 33.1187C37.2781 33.9725 36.288 36.3482 37.1407 38.4248C37.9935 40.5015 40.3662 41.4928 42.4402 40.639Z" fill="url(#paint26_linear_297_1734)"/>
<path id="Vector_28" d="M4.07589 41.056C4.88267 41.056 5.67125 40.8162 6.34185 40.3671C7.01244 39.918 7.53488 39.2798 7.84291 38.5332C8.15094 37.7866 8.23086 36.9653 8.07234 36.1732C7.91382 35.3812 7.52397 34.654 6.95241 34.0839C6.38086 33.5138 5.65327 33.1263 4.86163 32.9706C4.06998 32.8149 3.25004 32.8979 2.50555 33.2091C1.76107 33.5204 1.1255 34.0458 0.679496 34.719C0.233493 35.3921 -0.00301541 36.1826 2.90261e-05 36.9904C2.51914e-05 37.5256 0.10555 38.0556 0.310568 38.5498C0.515585 39.0441 0.816192 39.4929 1.19487 39.8706C1.57355 40.2484 2.02297 40.5476 2.51738 40.751C3.01179 40.9544 3.54138 41.058 4.07589 41.056Z" fill="url(#paint27_linear_297_1734)"/>
<path id="Vector_29" d="M224.939 8.13112C227.182 8.13112 229 6.31091 229 4.06556C229 1.82021 227.182 0 224.939 0C222.697 0 220.879 1.82021 220.879 4.06556C220.879 6.31091 222.697 8.13112 224.939 8.13112Z" fill="url(#paint28_linear_297_1734)"/>
<path id="Vector_30" d="M188.119 8.13112C190.362 8.13112 192.179 6.31091 192.179 4.06556C192.179 1.82021 190.362 0 188.119 0C185.877 0 184.059 1.82021 184.059 4.06556C184.059 6.31091 185.877 8.13112 188.119 8.13112Z" fill="url(#paint29_linear_297_1734)"/>
<path id="Vector_31" d="M151.312 8.14655C152.119 8.1496 152.909 7.91288 153.581 7.46632C154.253 7.01975 154.778 6.38339 155.089 5.63796C155.4 4.89254 155.483 4.07156 155.327 3.27892C155.172 2.48628 154.785 1.75769 154.215 1.18541C153.646 0.613138 152.92 0.222884 152.129 0.0641671C151.338 -0.0945498 150.517 -0.0146279 149.772 0.293793C149.026 0.602213 148.389 1.1253 147.94 1.79674C147.492 2.46818 147.252 3.25776 147.252 4.06555C147.252 5.14523 147.679 6.1809 148.44 6.94579C149.201 7.71067 150.234 8.14247 151.312 8.14655Z" fill="url(#paint30_linear_297_1734)"/>
<path id="Vector_32" d="M114.508 8.14654C115.314 8.14654 116.102 7.90721 116.772 7.45879C117.442 7.01037 117.965 6.37303 118.273 5.62733C118.582 4.88163 118.662 4.06105 118.505 3.26942C118.348 2.47779 117.959 1.75059 117.389 1.17986C116.819 0.609123 116.093 0.220493 115.303 0.0630284C114.512 -0.0944363 113.692 -0.0135925 112.948 0.295286C112.203 0.604164 111.566 1.12722 111.119 1.79833C110.671 2.46944 110.432 3.2584 110.432 4.06554C110.432 4.60146 110.537 5.13221 110.742 5.62733C110.947 6.12246 111.247 6.57227 111.625 6.95123C112.004 7.33018 112.453 7.6308 112.948 7.83589C113.442 8.04098 113.972 8.14654 114.508 8.14654Z" fill="url(#paint31_linear_297_1734)"/>
<path id="Vector_33" d="M77.6864 8.13112C79.9289 8.13112 81.7469 6.31091 81.7469 4.06556C81.7469 1.82021 79.9289 0 77.6864 0C75.4439 0 73.626 1.82021 73.626 4.06556C73.626 6.31091 75.4439 8.13112 77.6864 8.13112Z" fill="url(#paint32_linear_297_1734)"/>
<path id="Vector_34" d="M42.4382 7.66542C44.5123 6.8116 45.5024 4.43593 44.6496 2.35926C43.7969 0.282587 41.4242 -0.708653 39.3502 0.14517C37.2761 0.998993 36.286 3.37457 37.1387 5.45124C37.9915 7.52792 40.3642 8.51924 42.4382 7.66542Z" fill="url(#paint33_linear_297_1734)"/>
<path id="Vector_35" d="M4.07587 8.14654C4.88199 8.14654 5.67005 7.90721 6.34032 7.45879C7.01059 7.01037 7.53289 6.37303 7.84138 5.62733C8.14987 4.88163 8.23071 4.06105 8.07344 3.26942C7.91617 2.47779 7.52803 1.75059 6.95802 1.17986C6.388 0.609123 5.66162 0.220493 4.87099 0.0630284C4.08035 -0.0944363 3.26099 -0.0135925 2.51623 0.295286C1.77147 0.604164 1.13484 1.12722 0.686977 1.79833C0.23912 2.46944 0 3.2584 0 4.06554C0 5.14788 0.429536 6.1859 1.1939 6.95123C1.95827 7.71655 2.99489 8.14654 4.07587 8.14654Z" fill="url(#paint34_linear_297_1734)"/>
</g>
<defs>
<linearGradient id="paint0_linear_297_1734" x1="219.992" y1="129.473" x2="230.743" y2="130.689" gradientUnits="userSpaceOnUse">
<stop stop-color="#FFBC21"/>
<stop offset="0.1344" stop-color="#FD843A"/>
<stop offset="0.2742" stop-color="#FC5554"/>
<stop offset="0.4301" stop-color="#FC365F"/>
<stop offset="0.6129" stop-color="#F02E6B"/>
<stop offset="0.817759" stop-color="#DD3578"/>
<stop offset="1" stop-color="#81399D"/>
</linearGradient>
<linearGradient id="paint1_linear_297_1734" x1="183.172" y1="129.473" x2="193.923" y2="130.689" gradientUnits="userSpaceOnUse">
<stop stop-color="#FFBC21"/>
<stop offset="0.1344" stop-color="#FD843A"/>
<stop offset="0.2742" stop-color="#FC5554"/>
<stop offset="0.4301" stop-color="#FC365F"/>
<stop offset="0.6129" stop-color="#F02E6B"/>
<stop offset="0.817759" stop-color="#DD3578"/>
<stop offset="1" stop-color="#81399D"/>
</linearGradient>
<linearGradient id="paint2_linear_297_1734" x1="146.362" y1="129.433" x2="157.154" y2="130.654" gradientUnits="userSpaceOnUse">
<stop stop-color="#FFBC21"/>
<stop offset="0.1344" stop-color="#FD843A"/>
<stop offset="0.2742" stop-color="#FC5554"/>
<stop offset="0.4301" stop-color="#FC365F"/>
<stop offset="0.6129" stop-color="#F02E6B"/>
<stop offset="0.817759" stop-color="#DD3578"/>
<stop offset="1" stop-color="#81399D"/>
</linearGradient>
<linearGradient id="paint3_linear_297_1734" x1="109.542" y1="129.433" x2="120.333" y2="130.654" gradientUnits="userSpaceOnUse">
<stop stop-color="#FFBC21"/>
<stop offset="0.1344" stop-color="#FD843A"/>
<stop offset="0.2742" stop-color="#FC5554"/>
<stop offset="0.4301" stop-color="#FC365F"/>
<stop offset="0.6129" stop-color="#F02E6B"/>
<stop offset="0.817759" stop-color="#DD3578"/>
<stop offset="1" stop-color="#81399D"/>
</linearGradient>
<linearGradient id="paint4_linear_297_1734" x1="72.7395" y1="129.473" x2="83.4902" y2="130.689" gradientUnits="userSpaceOnUse">
<stop stop-color="#FFBC21"/>
<stop offset="0.1344" stop-color="#FD843A"/>
<stop offset="0.2742" stop-color="#FC5554"/>
<stop offset="0.4301" stop-color="#FC365F"/>
<stop offset="0.6129" stop-color="#F02E6B"/>
<stop offset="0.817759" stop-color="#DD3578"/>
<stop offset="1" stop-color="#81399D"/>
</linearGradient>
<linearGradient id="paint5_linear_297_1734" x1="33.8621" y1="131.663" x2="44.2699" y2="128.705" gradientUnits="userSpaceOnUse">
<stop stop-color="#FFBC21"/>
<stop offset="0.1344" stop-color="#FD843A"/>
<stop offset="0.2742" stop-color="#FC5554"/>
<stop offset="0.4301" stop-color="#FC365F"/>
<stop offset="0.6129" stop-color="#F02E6B"/>
<stop offset="0.817759" stop-color="#DD3578"/>
<stop offset="1" stop-color="#81399D"/>
</linearGradient>
<linearGradient id="paint6_linear_297_1734" x1="-0.905408" y1="129.51" x2="9.88593" y2="130.731" gradientUnits="userSpaceOnUse">
<stop stop-color="#FFBC21"/>
<stop offset="0.1344" stop-color="#FD843A"/>
<stop offset="0.2742" stop-color="#FC5554"/>
<stop offset="0.4301" stop-color="#FC365F"/>
<stop offset="0.6129" stop-color="#F02E6B"/>
<stop offset="0.817759" stop-color="#DD3578"/>
<stop offset="1" stop-color="#81399D"/>
</linearGradient>
<linearGradient id="paint7_linear_297_1734" x1="219.992" y1="96.5021" x2="230.743" y2="97.7184" gradientUnits="userSpaceOnUse">
<stop stop-color="#FFBC21"/>
<stop offset="0.1344" stop-color="#FD843A"/>
<stop offset="0.2742" stop-color="#FC5554"/>
<stop offset="0.4301" stop-color="#FC365F"/>
<stop offset="0.6129" stop-color="#F02E6B"/>
<stop offset="0.817759" stop-color="#DD3578"/>
<stop offset="1" stop-color="#81399D"/>
</linearGradient>
<linearGradient id="paint8_linear_297_1734" x1="183.172" y1="96.5021" x2="193.923" y2="97.7184" gradientUnits="userSpaceOnUse">
<stop stop-color="#FFBC21"/>
<stop offset="0.1344" stop-color="#FD843A"/>
<stop offset="0.2742" stop-color="#FC5554"/>
<stop offset="0.4301" stop-color="#FC365F"/>
<stop offset="0.6129" stop-color="#F02E6B"/>
<stop offset="0.817759" stop-color="#DD3578"/>
<stop offset="1" stop-color="#81399D"/>
</linearGradient>
<linearGradient id="paint9_linear_297_1734" x1="146.362" y1="96.4622" x2="157.154" y2="97.6832" gradientUnits="userSpaceOnUse">
<stop stop-color="#FFBC21"/>
<stop offset="0.1344" stop-color="#FD843A"/>
<stop offset="0.2742" stop-color="#FC5554"/>
<stop offset="0.4301" stop-color="#FC365F"/>
<stop offset="0.6129" stop-color="#F02E6B"/>
<stop offset="0.817759" stop-color="#DD3578"/>
<stop offset="1" stop-color="#81399D"/>
</linearGradient>
<linearGradient id="paint10_linear_297_1734" x1="109.542" y1="96.4622" x2="120.333" y2="97.6831" gradientUnits="userSpaceOnUse">
<stop stop-color="#FFBC21"/>
<stop offset="0.1344" stop-color="#FD843A"/>
<stop offset="0.2742" stop-color="#FC5554"/>
<stop offset="0.4301" stop-color="#FC365F"/>
<stop offset="0.6129" stop-color="#F02E6B"/>
<stop offset="0.817759" stop-color="#DD3578"/>
<stop offset="1" stop-color="#81399D"/>
</linearGradient>
<linearGradient id="paint11_linear_297_1734" x1="72.7395" y1="96.5021" x2="83.4902" y2="97.7184" gradientUnits="userSpaceOnUse">
<stop stop-color="#FFBC21"/>
<stop offset="0.1344" stop-color="#FD843A"/>
<stop offset="0.2742" stop-color="#FC5554"/>
<stop offset="0.4301" stop-color="#FC365F"/>
<stop offset="0.6129" stop-color="#F02E6B"/>
<stop offset="0.817759" stop-color="#DD3578"/>
<stop offset="1" stop-color="#81399D"/>
</linearGradient>
<linearGradient id="paint12_linear_297_1734" x1="33.866" y1="98.7037" x2="44.2738" y2="95.7452" gradientUnits="userSpaceOnUse">
<stop stop-color="#FFBC21"/>
<stop offset="0.1344" stop-color="#FD843A"/>
<stop offset="0.2742" stop-color="#FC5554"/>
<stop offset="0.4301" stop-color="#FC365F"/>
<stop offset="0.6129" stop-color="#F02E6B"/>
<stop offset="0.817759" stop-color="#DD3578"/>
<stop offset="1" stop-color="#81399D"/>
</linearGradient>
<linearGradient id="paint13_linear_297_1734" x1="-0.889801" y1="96.4622" x2="9.90175" y2="97.6832" gradientUnits="userSpaceOnUse">
<stop stop-color="#FFBC21"/>
<stop offset="0.1344" stop-color="#FD843A"/>
<stop offset="0.2742" stop-color="#FC5554"/>
<stop offset="0.4301" stop-color="#FC365F"/>
<stop offset="0.6129" stop-color="#F02E6B"/>
<stop offset="0.817759" stop-color="#DD3578"/>
<stop offset="1" stop-color="#81399D"/>
</linearGradient>
<linearGradient id="paint14_linear_297_1734" x1="219.992" y1="63.531" x2="230.743" y2="64.7473" gradientUnits="userSpaceOnUse">
<stop stop-color="#FFBC21"/>
<stop offset="0.1344" stop-color="#FD843A"/>
<stop offset="0.2742" stop-color="#FC5554"/>
<stop offset="0.4301" stop-color="#FC365F"/>
<stop offset="0.6129" stop-color="#F02E6B"/>
<stop offset="0.817759" stop-color="#DD3578"/>
<stop offset="1" stop-color="#81399D"/>
</linearGradient>
<linearGradient id="paint15_linear_297_1734" x1="183.172" y1="63.531" x2="193.923" y2="64.7473" gradientUnits="userSpaceOnUse">
<stop stop-color="#FFBC21"/>
<stop offset="0.1344" stop-color="#FD843A"/>
<stop offset="0.2742" stop-color="#FC5554"/>
<stop offset="0.4301" stop-color="#FC365F"/>
<stop offset="0.6129" stop-color="#F02E6B"/>
<stop offset="0.817759" stop-color="#DD3578"/>
<stop offset="1" stop-color="#81399D"/>
</linearGradient>
<linearGradient id="paint16_linear_297_1734" x1="146.362" y1="63.5065" x2="157.154" y2="64.7275" gradientUnits="userSpaceOnUse">
<stop stop-color="#FFBC21"/>
<stop offset="0.1344" stop-color="#FD843A"/>
<stop offset="0.2742" stop-color="#FC5554"/>
<stop offset="0.4301" stop-color="#FC365F"/>
<stop offset="0.6129" stop-color="#F02E6B"/>
<stop offset="0.817759" stop-color="#DD3578"/>
<stop offset="1" stop-color="#81399D"/>
</linearGradient>
<linearGradient id="paint17_linear_297_1734" x1="109.542" y1="63.5065" x2="120.333" y2="64.7274" gradientUnits="userSpaceOnUse">
<stop stop-color="#FFBC21"/>
<stop offset="0.1344" stop-color="#FD843A"/>
<stop offset="0.2742" stop-color="#FC5554"/>
<stop offset="0.4301" stop-color="#FC365F"/>
<stop offset="0.6129" stop-color="#F02E6B"/>
<stop offset="0.817759" stop-color="#DD3578"/>
<stop offset="1" stop-color="#81399D"/>
</linearGradient>
<linearGradient id="paint18_linear_297_1734" x1="72.7395" y1="63.531" x2="83.4902" y2="64.7473" gradientUnits="userSpaceOnUse">
<stop stop-color="#FFBC21"/>
<stop offset="0.1344" stop-color="#FD843A"/>
<stop offset="0.2742" stop-color="#FC5554"/>
<stop offset="0.4301" stop-color="#FC365F"/>
<stop offset="0.6129" stop-color="#F02E6B"/>
<stop offset="0.817759" stop-color="#DD3578"/>
<stop offset="1" stop-color="#81399D"/>
</linearGradient>
<linearGradient id="paint19_linear_297_1734" x1="33.8631" y1="65.7456" x2="44.2709" y2="62.7872" gradientUnits="userSpaceOnUse">
<stop stop-color="#FFBC21"/>
<stop offset="0.1344" stop-color="#FD843A"/>
<stop offset="0.2742" stop-color="#FC5554"/>
<stop offset="0.4301" stop-color="#FC365F"/>
<stop offset="0.6129" stop-color="#F02E6B"/>
<stop offset="0.817759" stop-color="#DD3578"/>
<stop offset="1" stop-color="#81399D"/>
</linearGradient>
<linearGradient id="paint20_linear_297_1734" x1="-0.889797" y1="63.5065" x2="9.9017" y2="64.7275" gradientUnits="userSpaceOnUse">
<stop stop-color="#FFBC21"/>
<stop offset="0.1344" stop-color="#FD843A"/>
<stop offset="0.2742" stop-color="#FC5554"/>
<stop offset="0.4301" stop-color="#FC365F"/>
<stop offset="0.6129" stop-color="#F02E6B"/>
<stop offset="0.817759" stop-color="#DD3578"/>
<stop offset="1" stop-color="#81399D"/>
</linearGradient>
<linearGradient id="paint21_linear_297_1734" x1="219.992" y1="30.5753" x2="230.743" y2="31.7916" gradientUnits="userSpaceOnUse">
<stop stop-color="#FFBC21"/>
<stop offset="0.1344" stop-color="#FD843A"/>
<stop offset="0.2742" stop-color="#FC5554"/>
<stop offset="0.4301" stop-color="#FC365F"/>
<stop offset="0.6129" stop-color="#F02E6B"/>
<stop offset="0.817759" stop-color="#DD3578"/>
<stop offset="1" stop-color="#81399D"/>
</linearGradient>
<linearGradient id="paint22_linear_297_1734" x1="183.172" y1="30.5753" x2="193.923" y2="31.7916" gradientUnits="userSpaceOnUse">
<stop stop-color="#FFBC21"/>
<stop offset="0.1344" stop-color="#FD843A"/>
<stop offset="0.2742" stop-color="#FC5554"/>
<stop offset="0.4301" stop-color="#FC365F"/>
<stop offset="0.6129" stop-color="#F02E6B"/>
<stop offset="0.817759" stop-color="#DD3578"/>
<stop offset="1" stop-color="#81399D"/>
</linearGradient>
<linearGradient id="paint23_linear_297_1734" x1="146.362" y1="30.4892" x2="157.154" y2="31.7102" gradientUnits="userSpaceOnUse">
<stop stop-color="#FFBC21"/>
<stop offset="0.1344" stop-color="#FD843A"/>
<stop offset="0.2742" stop-color="#FC5554"/>
<stop offset="0.4301" stop-color="#FC365F"/>
<stop offset="0.6129" stop-color="#F02E6B"/>
<stop offset="0.817759" stop-color="#DD3578"/>
<stop offset="1" stop-color="#81399D"/>
</linearGradient>
<linearGradient id="paint24_linear_297_1734" x1="109.542" y1="30.4892" x2="120.333" y2="31.7101" gradientUnits="userSpaceOnUse">
<stop stop-color="#FFBC21"/>
<stop offset="0.1344" stop-color="#FD843A"/>
<stop offset="0.2742" stop-color="#FC5554"/>
<stop offset="0.4301" stop-color="#FC365F"/>
<stop offset="0.6129" stop-color="#F02E6B"/>
<stop offset="0.817759" stop-color="#DD3578"/>
<stop offset="1" stop-color="#81399D"/>
</linearGradient>
<linearGradient id="paint25_linear_297_1734" x1="72.7395" y1="30.5753" x2="83.4902" y2="31.7916" gradientUnits="userSpaceOnUse">
<stop stop-color="#FFBC21"/>
<stop offset="0.1344" stop-color="#FD843A"/>
<stop offset="0.2742" stop-color="#FC5554"/>
<stop offset="0.4301" stop-color="#FC365F"/>
<stop offset="0.6129" stop-color="#F02E6B"/>
<stop offset="0.817759" stop-color="#DD3578"/>
<stop offset="1" stop-color="#81399D"/>
</linearGradient>
<linearGradient id="paint26_linear_297_1734" x1="33.8669" y1="32.7864" x2="44.2748" y2="29.8279" gradientUnits="userSpaceOnUse">
<stop stop-color="#FFBC21"/>
<stop offset="0.1344" stop-color="#FD843A"/>
<stop offset="0.2742" stop-color="#FC5554"/>
<stop offset="0.4301" stop-color="#FC365F"/>
<stop offset="0.6129" stop-color="#F02E6B"/>
<stop offset="0.817759" stop-color="#DD3578"/>
<stop offset="1" stop-color="#81399D"/>
</linearGradient>
<linearGradient id="paint27_linear_297_1734" x1="-0.889801" y1="30.4892" x2="9.90175" y2="31.7101" gradientUnits="userSpaceOnUse">
<stop stop-color="#FFBC21"/>
<stop offset="0.1344" stop-color="#FD843A"/>
<stop offset="0.2742" stop-color="#FC5554"/>
<stop offset="0.4301" stop-color="#FC365F"/>
<stop offset="0.6129" stop-color="#F02E6B"/>
<stop offset="0.817759" stop-color="#DD3578"/>
<stop offset="1" stop-color="#81399D"/>
</linearGradient>
<linearGradient id="paint28_linear_297_1734" x1="219.992" y1="-2.39578" x2="230.743" y2="-1.17945" gradientUnits="userSpaceOnUse">
<stop stop-color="#FFBC21"/>
<stop offset="0.1344" stop-color="#FD843A"/>
<stop offset="0.2742" stop-color="#FC5554"/>
<stop offset="0.4301" stop-color="#FC365F"/>
<stop offset="0.6129" stop-color="#F02E6B"/>
<stop offset="0.817759" stop-color="#DD3578"/>
<stop offset="1" stop-color="#81399D"/>
</linearGradient>
<linearGradient id="paint29_linear_297_1734" x1="183.172" y1="-2.39578" x2="193.923" y2="-1.17945" gradientUnits="userSpaceOnUse">
<stop stop-color="#FFBC21"/>
<stop offset="0.1344" stop-color="#FD843A"/>
<stop offset="0.2742" stop-color="#FC5554"/>
<stop offset="0.4301" stop-color="#FC365F"/>
<stop offset="0.6129" stop-color="#F02E6B"/>
<stop offset="0.817759" stop-color="#DD3578"/>
<stop offset="1" stop-color="#81399D"/>
</linearGradient>
<linearGradient id="paint30_linear_297_1734" x1="146.362" y1="-2.42024" x2="157.154" y2="-1.19928" gradientUnits="userSpaceOnUse">
<stop stop-color="#FFBC21"/>
<stop offset="0.1344" stop-color="#FD843A"/>
<stop offset="0.2742" stop-color="#FC5554"/>
<stop offset="0.4301" stop-color="#FC365F"/>
<stop offset="0.6129" stop-color="#F02E6B"/>
<stop offset="0.817759" stop-color="#DD3578"/>
<stop offset="1" stop-color="#81399D"/>
</linearGradient>
<linearGradient id="paint31_linear_297_1734" x1="109.542" y1="-2.42023" x2="120.333" y2="-1.19932" gradientUnits="userSpaceOnUse">
<stop stop-color="#FFBC21"/>
<stop offset="0.1344" stop-color="#FD843A"/>
<stop offset="0.2742" stop-color="#FC5554"/>
<stop offset="0.4301" stop-color="#FC365F"/>
<stop offset="0.6129" stop-color="#F02E6B"/>
<stop offset="0.817759" stop-color="#DD3578"/>
<stop offset="1" stop-color="#81399D"/>
</linearGradient>
<linearGradient id="paint32_linear_297_1734" x1="72.7395" y1="-2.39578" x2="83.4902" y2="-1.17945" gradientUnits="userSpaceOnUse">
<stop stop-color="#FFBC21"/>
<stop offset="0.1344" stop-color="#FD843A"/>
<stop offset="0.2742" stop-color="#FC5554"/>
<stop offset="0.4301" stop-color="#FC365F"/>
<stop offset="0.6129" stop-color="#F02E6B"/>
<stop offset="0.817759" stop-color="#DD3578"/>
<stop offset="1" stop-color="#81399D"/>
</linearGradient>
<linearGradient id="paint33_linear_297_1734" x1="33.865" y1="-0.187122" x2="44.2729" y2="-3.14558" gradientUnits="userSpaceOnUse">
<stop stop-color="#FFBC21"/>
<stop offset="0.1344" stop-color="#FD843A"/>
<stop offset="0.2742" stop-color="#FC5554"/>
<stop offset="0.4301" stop-color="#FC365F"/>
<stop offset="0.6129" stop-color="#F02E6B"/>
<stop offset="0.817759" stop-color="#DD3578"/>
<stop offset="1" stop-color="#81399D"/>
</linearGradient>
<linearGradient id="paint34_linear_297_1734" x1="-0.889797" y1="-2.42023" x2="9.9017" y2="-1.19927" gradientUnits="userSpaceOnUse">
<stop stop-color="#FFBC21"/>
<stop offset="0.1344" stop-color="#FD843A"/>
<stop offset="0.2742" stop-color="#FC5554"/>
<stop offset="0.4301" stop-color="#FC365F"/>
<stop offset="0.6129" stop-color="#F02E6B"/>
<stop offset="0.817759" stop-color="#DD3578"/>
<stop offset="1" stop-color="#81399D"/>
</linearGradient>
<clipPath id="clip0_297_1734">
<rect width="229" height="140" fill="white"/>
</clipPath>
</defs>
</svg>
