<svg width="60" height="60" viewBox="0 0 60 60" fill="none" xmlns="http://www.w3.org/2000/svg">
<path d="M48.75 52.5V55H39.6671C45.5109 51.7535 49.5067 45.6727 49.9419 38.75H52.5V31.25H45V38.75H47.4419C46.8881 46.4608 41.2765 52.9451 33.75 54.5903V52.5H26.25V54.5903C18.7235 52.9451 13.1119 46.4609 12.5581 38.75H15V31.25H7.5V38.75H10.0581C10.4933 45.6727 14.4891 51.7535 20.3329 55H11.25V52.5H3.75V60H11.25V57.5H26.25V60H33.75V57.5H48.75V60H56.25V52.5H48.75ZM47.5 33.75H50V36.25H47.5V33.75ZM12.5 36.25H10V33.75H12.5V36.25ZM8.75 57.5H6.25V55H8.75V57.5ZM31.25 57.5H28.75V55H31.25V57.5ZM53.75 57.5H51.25V55H53.75V57.5Z" fill="url(#paint0_linear_297_1689)"/>
<path d="M13.75 0V24.2993L30 39.1956L46.25 24.2993V0H13.75ZM30 35.8044L25.0314 31.25H34.9686L30 35.8044ZM43.75 23.2007L37.696 28.75H22.304L16.25 23.2007V21.25C16.25 19.1821 17.9321 17.5 20 17.5C22.0679 17.5 23.75 19.1821 23.75 21.25H26.25C26.25 19.1821 27.9321 17.5 30 17.5C32.0679 17.5 33.75 19.1821 33.75 21.25H36.25C36.25 19.1821 37.9321 17.5 40 17.5C42.0679 17.5 43.75 19.1821 43.75 21.25V23.2007ZM43.75 16.282C42.7022 15.4888 41.4125 15 40 15C37.9484 15 36.1403 16.0072 35 17.5387C33.8597 16.0072 32.0516 15 30 15C27.9484 15 26.1403 16.0072 25 17.5387C23.8597 16.0072 22.0516 15 20 15C18.5875 15 17.2979 15.4888 16.25 16.282V2.5H43.75V16.282Z" fill="url(#paint1_linear_297_1689)"/>
<defs>
<linearGradient id="paint0_linear_297_1689" x1="-1.64602" y1="28.8905" x2="59.2854" y2="45.9231" gradientUnits="userSpaceOnUse">
<stop stopColor="#FC365F"/>
<stop offset="0.984375" stopColor="#A00BFB"/>
</linearGradient>
<linearGradient id="paint1_linear_297_1689" x1="10.4096" y1="-3.21679" x2="50.4317" y2="1.86322" gradientUnits="userSpaceOnUse">
<stop stopColor="#FC365F"/>
<stop offset="0.984375" stopColor="#A00BFB"/>
</linearGradient>
</defs>
</svg>
