<svg width="60" height="60" viewBox="0 0 60 60" fill="none" xmlns="http://www.w3.org/2000/svg">
<path d="M45.4133 4.25647H14.5871C8.89102 4.25647 4.25684 8.89065 4.25684 14.5869V45.4131C4.25684 51.1092 8.89102 55.7434 14.5871 55.7434H45.4134C51.1096 55.7434 55.7438 51.1092 55.7438 45.4131V14.5869C55.7438 8.89077 51.1096 4.25647 45.4133 4.25647ZM54.156 29.2062H47.6167C47.1783 29.2062 46.8229 29.5616 46.8229 30C46.8229 30.4385 47.1783 30.7938 47.6167 30.7938H54.156V45.4131C54.156 50.2338 50.2341 54.1557 45.4133 54.1557H30.7941V51.2544C30.7941 50.816 30.4385 50.4605 30.0002 50.4605C29.562 50.4605 29.2064 50.816 29.2064 51.2544V54.1557H14.5871C9.76641 54.1557 5.84449 50.2338 5.84449 45.4131V30.7938H16.4095C16.8478 30.7938 17.2032 30.4385 17.2032 30C17.2032 29.5616 16.8478 29.2062 16.4095 29.2062H5.84449V14.587C5.84449 9.76627 9.76641 5.84436 14.5871 5.84436H29.2064V10.7245C29.2064 11.163 29.562 11.5183 30.0002 11.5183C30.4385 11.5183 30.7941 11.163 30.7941 10.7245V5.84424H45.4133C50.2341 5.84424 54.156 9.76616 54.156 14.5869V29.2062Z" fill="url(#paint0_linear_297_1645)"/>
<path d="M44.3151 26.6793C43.034 25.7083 40.51 23.6059 37.9993 20.4346C37.4221 19.7054 36.8267 19.119 36.2294 18.6461C36.0782 18.4378 35.5083 17.5938 35.1186 16.1963C34.7246 14.7825 33.5241 13.7715 32.0601 13.6207L28.4102 13.2448C26.6753 13.0656 24.953 13.6505 23.6849 14.8483C22.4246 16.0395 20.7047 18.0104 19.6686 20.6357C18.9982 22.3341 18.9228 24.278 19.456 26.1092C19.9894 27.9418 20.7735 31.3301 20.0321 33.4315C19.6777 34.4361 19.782 35.5531 20.3187 36.4961C20.4651 36.7532 20.7333 36.8974 21.0094 36.8974C21.1425 36.8974 21.2774 36.864 21.4015 36.7934C21.7824 36.5765 21.9156 36.092 21.6987 35.7109C21.3899 35.1682 21.3282 34.5301 21.5295 33.9598C22.3741 31.5654 21.6972 28.1277 20.9804 25.6654C20.5451 24.1704 20.6038 22.5912 21.1456 21.2187C22.0745 18.8649 23.6324 17.0828 24.7756 16.0022C25.7074 15.122 26.9743 14.6932 28.2475 14.8239L31.8975 15.1999C32.6952 15.2821 33.3749 15.854 33.5894 16.6226C33.6547 16.8561 33.7244 17.0762 33.7967 17.2843C31.3668 16.4228 29.3091 17.0236 28.8828 17.1684C28.3005 17.3009 24.5472 18.3674 23.5274 23.9775C22.9602 27.0967 23.8776 29.5175 24.7472 30.999C25.4141 32.1355 25.3406 33.5301 24.5598 34.5517C22.835 36.8079 22.1222 38.8945 22.4417 40.7536C22.6117 41.7444 23.0505 42.4781 23.4563 42.9703C21.1795 44.7874 21.3242 47.1663 21.779 48.2657C21.902 48.5625 22.1915 48.7561 22.5127 48.7561H41.5669C42.0052 48.7561 42.3607 48.4006 42.3607 47.9623C42.3607 45.3509 41.4426 43.8018 40.7914 43.0316C41.5338 42.0017 41.7466 40.7269 41.4421 39.1601C41.1825 37.8246 40.4086 36.6407 39.2628 35.8259C36.7813 34.0615 35.4789 32.0538 34.8541 30.8067C36.0142 30.8127 36.9525 30.4269 37.4833 30.1379L38.995 31.0535C40.3905 31.8989 42.205 31.7186 43.4068 30.6141L44.4589 29.6472C44.8817 29.2588 45.1087 28.7071 45.0815 28.1334C45.0543 27.5579 44.7749 27.0279 44.3151 26.6793ZM43.385 28.4782L42.3327 29.445C41.6479 30.0743 40.6133 30.1774 39.8178 29.6956L37.8909 28.5284C37.6117 28.3593 37.2571 28.3783 36.9978 28.5764C36.9844 28.5866 35.6318 29.5943 33.8767 29.0627C33.5961 28.9142 32.1448 28.0862 31.3995 26.4961C31.2134 26.0988 30.7408 25.928 30.3439 26.1141C29.947 26.3002 29.7759 26.7727 29.962 27.1697C30.8006 28.9599 32.2799 29.9735 32.928 30.351C33.288 31.3723 34.6307 34.4802 38.3429 37.1199C39.1434 37.6889 39.7048 38.5432 39.8838 39.4631C40.1226 40.6924 39.9578 41.5745 39.3579 42.2802H35.6509C35.2127 42.2802 34.8571 42.6355 34.8571 43.074C34.8571 43.5124 35.2127 43.8679 35.6509 43.8679H39.4108C39.7635 44.2145 40.5632 45.2018 40.7388 47.1684H23.1211C23.011 46.4379 23.1009 45.03 24.937 43.8679H31.6045C32.0427 43.8679 32.3983 43.5124 32.3983 43.074C32.3983 42.6355 32.0427 42.2802 31.6045 42.2802H24.9816C24.7035 42.0325 24.1599 41.436 24.0011 40.4527C23.778 39.0728 24.4073 37.3655 25.8213 35.5159C26.9956 33.9793 27.1115 31.8908 26.1166 30.1956C25.0497 28.3778 24.704 26.3813 25.0894 24.2617C25.9661 19.4397 29.0997 18.744 29.2462 18.7143C29.2933 18.7052 29.3431 18.6905 29.3879 18.6731C29.55 18.6102 33.3994 17.1817 36.7545 21.42C39.3741 24.7289 42.015 26.9283 43.356 27.9447C43.4707 28.0317 43.4927 28.1474 43.4957 28.2087C43.4985 28.2686 43.488 28.3834 43.385 28.4782Z" fill="url(#paint1_linear_297_1645)"/>
<path d="M30.1371 22.9037C29.7007 22.8534 29.3085 23.1681 29.2596 23.6038C29.2286 23.8789 29.2106 24.1513 29.2062 24.4136C29.1987 24.852 29.548 25.2134 29.9863 25.2207C29.9909 25.2209 29.9956 25.2209 30 25.2209C30.4322 25.2209 30.7861 24.8742 30.7935 24.4404C30.7972 24.2284 30.8119 24.0067 30.8371 23.7813C30.8862 23.3459 30.5728 22.9528 30.1371 22.9037Z" fill="url(#paint2_linear_297_1645)"/>
<path d="M35.1641 22.9285C34.8427 22.6301 34.3407 22.6487 34.0422 22.9698C33.7439 23.291 33.7624 23.7933 34.0837 24.0918L34.2802 24.2744C34.4331 24.4163 34.6269 24.4866 34.8202 24.4866C35.0332 24.4866 35.2457 24.4014 35.402 24.2331C35.7005 23.9118 35.6819 23.4095 35.3605 23.111L35.1641 22.9285Z" fill="url(#paint3_linear_297_1645)"/>
<path d="M28.3726 34.6946C27.9844 34.8981 27.8346 35.378 28.0382 35.7663C28.7601 37.1432 29.9879 38.995 31.7384 39.999C31.8629 40.0703 31.9986 40.1042 32.1326 40.1042C32.4077 40.1042 32.6753 39.9609 32.8219 39.7052C33.04 39.3249 32.9085 38.8399 32.5281 38.6215C31.0348 37.765 29.955 36.0031 29.4443 35.0292C29.2409 34.6407 28.7608 34.4913 28.3726 34.6946Z" fill="url(#paint4_linear_297_1645)"/>
<path d="M17.4274 13.2045C15.2865 12.2212 14.7845 9.49199 14.7798 9.46668C14.7133 9.07422 14.3612 8.78418 13.969 8.8061C13.5713 8.82028 13.2455 9.12672 13.2072 9.52281C12.9684 11.9848 10.5202 13.5466 10.4803 13.5716C10.1081 13.8023 9.99294 14.2905 10.2229 14.6631C10.4529 15.0361 10.9417 15.1522 11.3153 14.9219C11.4093 14.8639 13.0474 13.8345 14.0483 12.0133C14.4425 12.732 15.0099 13.4924 15.8163 14.0873C15.3158 14.6481 14.6617 15.4972 14.1404 16.5756C14.0831 16.4664 14.022 16.3558 13.9569 16.2442C13.7353 15.8655 13.2497 15.7381 12.8708 15.959C12.4924 16.1801 12.3648 16.6663 12.5857 17.0448C13.2177 18.1265 13.3829 19.1132 13.3842 19.1206C13.4435 19.5037 13.7712 19.7876 14.1587 19.7923C14.162 19.7924 14.1654 19.7924 14.1687 19.7924C14.5519 19.7924 14.8813 19.518 14.9497 19.1398C15.4439 16.4065 17.5882 14.5489 17.6085 14.5316C17.8159 14.3563 17.919 14.0872 17.8824 13.8181C17.8458 13.5494 17.6741 13.3179 17.4274 13.2045Z" fill="url(#paint5_linear_297_1645)"/>
<path d="M49.683 17.3581C47.5424 16.3748 47.0402 13.6456 47.0356 13.6203C46.9691 13.2279 46.6168 12.9401 46.2247 12.9597C45.8271 12.9739 45.5013 13.2803 45.463 13.6764C45.2247 16.1324 42.7876 17.6928 42.7363 17.7251C42.3641 17.9555 42.2488 18.4441 42.4787 18.8168C42.7086 19.1897 43.1978 19.3055 43.5711 19.0756C43.6651 19.0177 45.3031 17.9881 46.3042 16.167C46.6984 16.8857 47.2657 17.6461 48.0719 18.241C47.5714 18.8018 46.9172 19.651 46.396 20.7296C46.3387 20.6202 46.2776 20.5094 46.2125 20.3979C45.9909 20.0194 45.5046 19.8917 45.1264 20.1129C44.7479 20.3341 44.6204 20.8203 44.8413 21.1988C45.4735 22.2804 45.6388 23.267 45.6399 23.2743C45.6994 23.6574 46.027 23.9413 46.4145 23.9461C46.4178 23.9461 46.4212 23.9461 46.4245 23.9461C46.8077 23.9461 47.137 23.6717 47.2054 23.2935C47.6996 20.5603 49.844 18.7026 49.8642 18.6853C50.0716 18.5099 50.1746 18.2409 50.1379 17.9718C50.1013 17.7027 49.9297 17.4715 49.683 17.3581Z" fill="url(#paint6_linear_297_1645)"/>
<path d="M17.4273 44.9105C15.2864 43.9272 14.7844 41.1977 14.7797 41.1727C14.7132 40.7802 14.3611 40.4936 13.9689 40.5121C13.5712 40.5263 13.2454 40.8327 13.2071 41.2287C12.9674 43.6983 10.5045 45.2623 10.4799 45.2779C10.1082 45.5086 9.99296 45.9968 10.2229 46.3692C10.4529 46.7425 10.9424 46.858 11.3153 46.628C11.4093 46.5701 13.0474 45.5406 14.0483 43.7193C14.4426 44.4381 15.0099 45.1984 15.8164 45.7934C15.3158 46.354 14.6617 47.2033 14.1403 48.2817C14.0832 48.1725 14.022 48.062 13.9569 47.9504C13.7353 47.5717 13.2497 47.4443 12.8708 47.6652C12.4924 47.8866 12.3648 48.3727 12.5857 48.7513C13.2177 49.8328 13.383 50.8197 13.3842 50.8268C13.4435 51.21 13.7712 51.494 14.1587 51.4988C14.162 51.4988 14.1654 51.4988 14.1687 51.4988C14.5519 51.4988 14.8813 51.2243 14.9498 50.8463C15.4439 48.1127 17.5882 46.2553 17.6085 46.2379C17.8159 46.0627 17.9191 45.7935 17.8824 45.5244C17.8457 45.2555 17.674 45.0239 17.4273 44.9105Z" fill="url(#paint7_linear_297_1645)"/>
<defs>
<linearGradient id="paint0_linear_297_1645" x1="-1.03505" y1="0.0309204" x2="61.9149" y2="9.6673" gradientUnits="userSpaceOnUse">
<stop stopColor="#FC365F"/>
<stop offset="0.984375" stopColor="#A00BFB"/>
</linearGradient>
<linearGradient id="paint1_linear_297_1645" x1="16.4343" y1="10.296" x2="48.5399" y2="13.8883" gradientUnits="userSpaceOnUse">
<stop stopColor="#FC365F"/>
<stop offset="0.984375" stopColor="#A00BFB"/>
</linearGradient>
<linearGradient id="paint2_linear_297_1645" x1="29.0379" y1="22.7078" x2="31.0616" y2="22.9261" gradientUnits="userSpaceOnUse">
<stop stopColor="#FC365F"/>
<stop offset="0.984375" stopColor="#A00BFB"/>
</linearGradient>
<linearGradient id="paint3_linear_297_1645" x1="33.6467" y1="22.571" x2="35.8273" y2="22.9074" gradientUnits="userSpaceOnUse">
<stop stopColor="#FC365F"/>
<stop offset="0.984375" stopColor="#A00BFB"/>
</linearGradient>
<linearGradient id="paint4_linear_297_1645" x1="27.4354" y1="34.1523" x2="33.5493" y2="34.9997" gradientUnits="userSpaceOnUse">
<stop stopColor="#FC365F"/>
<stop offset="0.984375" stopColor="#A00BFB"/>
</linearGradient>
<linearGradient id="paint5_linear_297_1645" x1="9.30432" y1="7.90318" x2="18.9325" y2="8.9475" gradientUnits="userSpaceOnUse">
<stop stopColor="#FC365F"/>
<stop offset="0.984375" stopColor="#A00BFB"/>
</linearGradient>
<linearGradient id="paint6_linear_297_1645" x1="41.5602" y1="12.057" x2="51.1881" y2="13.1013" gradientUnits="userSpaceOnUse">
<stop stopColor="#FC365F"/>
<stop offset="0.984375" stopColor="#A00BFB"/>
</linearGradient>
<linearGradient id="paint7_linear_297_1645" x1="9.30432" y1="39.6095" x2="18.9326" y2="40.6538" gradientUnits="userSpaceOnUse">
<stop stopColor="#FC365F"/>
<stop offset="0.984375" stopColor="#A00BFB"/>
</linearGradient>
</defs>
</svg>
