<svg width="60" height="60" viewBox="0 0 60 60" fill="none" xmlns="http://www.w3.org/2000/svg">
<g clip-path="url(#clip0_297_1655)">
<path d="M57.75 20.25C57.25 20 56.75 20 56.25 20H49L46 3C45.75 2 45.25 1.25 44.5 0.5C43.75 0 42.75 0 41.75 0L39.25 0.5C39 0.5 39 0.5 38.75 0.75L18.25 11.75L13.5 12.75C12.75 12.75 12.25 13.5 12.5 14L12.75 15.25L9 16C8.75 16 8.5 16.25 8.25 16.5C8 16.75 8 17 8 17.5L8.5 20H3.75C3.25 20 2.75 20 2.25 20.25C0.75 21 0 22.25 0 23.75V56.25C0 56.75 0.25 57.5 0.25 57.75C1 59.25 2.25 60 3.75 60H56.25C57.75 60 59 59.25 59.5 58C59.75 57.5 60 57 60 56.25V23.75C60 22.25 59.25 21 57.75 20.25ZM54.5 22.5L49.75 27.25C50 26.75 50 26 50 25.25L49.5 22.5H54.5ZM27 39.25L22.75 26.75L44.25 30C44.5 30 44.5 30 44.75 30L47.25 29.5C47.5 29.5 47.75 29.25 48 29.25L31.25 45.75C30.75 46.25 30 46.25 29.75 45.75L25 41L26.75 40.75C27 40.75 27.5 40.5 27.5 40.25C27 40 27.25 39.5 27 39.25ZM42.25 2.5C42.5 2.5 43 2.5 43.25 2.75C43.5 3 43.75 3.25 43.75 3.5L47.75 25.75C47.75 26 47.75 26.5 47.5 26.75C47.25 27 47 27.25 46.75 27.25L45.5 27.5L41.25 3L42.25 2.5ZM38.5 3.75L42.75 27.5L21.75 24.25L20 13.75L38.5 3.75ZM24.25 38.75L17.75 27.25L20 26.75L24.25 38.75ZM17.5 14.5L19.25 24.25L16.75 24.75L15 15L17.5 14.5ZM13 17.75L13.75 22.75L11.25 23.25L10.5 18.25L13 17.75ZM8.75 22.5L9.25 24.75C9.25 25.25 10 25.75 10.5 25.75H10.75L14.5 25L14.75 26.25C14.75 26.5 14.75 26.5 15 26.75L20.75 37.25L5.5 22.5H8.75ZM2.5 23.75C2.5 23.5 2.5 23.25 2.75 23.25L20.75 41L2.5 55V23.75ZM56.25 57.5H3.75H3.5L22.5 42.75L27.5 47.75C28.25 48.25 29 48.75 30 48.75C31 48.75 31.75 48.5 32.5 47.75L37.5 42.75L56.5 57.25C56.5 57.5 56.25 57.5 56.25 57.5ZM57.5 55L39.25 41L57.25 23.25C57.5 23.25 57.5 23.5 57.5 23.75V55Z" fill="url(#paint0_linear_297_1655)"/>
</g>
<defs>
<linearGradient id="paint0_linear_297_1655" x1="-6.16688" y1="-4.92422" x2="67.1915" y2="6.30548" gradientUnits="userSpaceOnUse">
<stop stop-color="#FC365F"/>
<stop offset="0.984375" stop-color="#A00BFB"/>
</linearGradient>
<clipPath id="clip0_297_1655">
<rect width="60" height="60" fill="white"/>
</clipPath>
</defs>
</svg>
