<svg width="38" height="38" viewBox="0 0 38 38" fill="none" xmlns="http://www.w3.org/2000/svg">
<path d="M11.0833 12.6667H6.33333C5.91341 12.6667 5.51068 12.8336 5.21375 13.1305C4.91681 13.4274 4.75 13.8302 4.75 14.2501V17.4167C4.75 17.8367 4.91681 18.2394 5.21375 18.5363C5.51068 18.8333 5.91341 19.0001 6.33333 19.0001H9.5C9.91993 19.0001 10.3227 19.1669 10.6196 19.4638C10.9165 19.7608 11.0833 20.1635 11.0833 20.5834V23.7501C11.0833 24.17 10.9165 24.5727 10.6196 24.8697C10.3227 25.1666 9.91993 25.3334 9.5 25.3334H4.75M22.1667 25.3334H15.8333V12.6667H22.1667M17.4167 19.0001H20.5833M26.9167 14.2501C26.9167 13.8302 27.0835 13.4274 27.3804 13.1305C27.6773 12.8336 28.0801 12.6667 28.5 12.6667H31.6667C32.0866 12.6667 32.4893 12.8336 32.7863 13.1305C33.0832 13.4274 33.25 13.8302 33.25 14.2501V23.7501C33.25 24.17 33.0832 24.5727 32.7863 24.8697C32.4893 25.1666 32.0866 25.3334 31.6667 25.3334H28.5C28.0801 25.3334 27.6773 25.1666 27.3804 24.8697C27.0835 24.5727 26.9167 24.17 26.9167 23.7501V14.2501Z" stroke="url(#paint0_linear_270_493)" stroke-width="2" stroke-linecap="round" stroke-linejoin="round"/>
<defs>
<linearGradient id="paint0_linear_270_493" x1="1.82073" y1="11.6272" x2="33.7005" y2="22.6076" gradientUnits="userSpaceOnUse">
<stop stopColor="#FC365F"/>
<stop offset="0.984375" stopColor="#A00BFB"/>
</linearGradient>
</defs>
</svg>
