<svg width="60" height="60" viewBox="0 0 60 60" fill="none" xmlns="http://www.w3.org/2000/svg">
<path opacity="0.1" d="M52.5 15C52.5 19.1421 49.1423 22.5 45 22.5C40.8577 22.5 37.5 19.1421 37.5 15C37.5 10.8579 40.8577 7.5 45 7.5C49.1423 7.5 52.5 10.8579 52.5 15Z" fill="url(#paint0_linear_297_1672)"/>
<path opacity="0.1" d="M52.5 45C52.5 49.1423 49.1423 52.5 45 52.5C40.8577 52.5 37.5 49.1423 37.5 45C37.5 40.8577 40.8577 37.5 45 37.5C49.1423 37.5 52.5 40.8577 52.5 45Z" fill="url(#paint1_linear_297_1672)"/>
<path opacity="0.1" d="M22.5 30C22.5 34.1423 19.1421 37.5 15 37.5C10.8579 37.5 7.5 34.1423 7.5 30C7.5 25.8577 10.8579 22.5 15 22.5C19.1421 22.5 22.5 25.8577 22.5 30Z" fill="url(#paint2_linear_297_1672)"/>
<path d="M52.5 15C52.5 19.1421 49.1423 22.5 45 22.5C40.8577 22.5 37.5 19.1421 37.5 15C37.5 10.8579 40.8577 7.5 45 7.5C49.1423 7.5 52.5 10.8579 52.5 15Z" stroke="url(#paint3_linear_297_1672)" stroke-width="5"/>
<path d="M52.5 45C52.5 49.1423 49.1423 52.5 45 52.5C40.8577 52.5 37.5 49.1423 37.5 45C37.5 40.8577 40.8577 37.5 45 37.5C49.1423 37.5 52.5 40.8577 52.5 45Z" stroke="url(#paint4_linear_297_1672)" stroke-width="5"/>
<path d="M22.5 30C22.5 34.1423 19.1421 37.5 15 37.5C10.8579 37.5 7.5 34.1423 7.5 30C7.5 25.8577 10.8579 22.5 15 22.5C19.1421 22.5 22.5 25.8577 22.5 30Z" stroke="url(#paint5_linear_297_1672)" stroke-width="5"/>
<path d="M21.8018 26.5992L37.5003 18.75" stroke="url(#paint6_linear_297_1672)" stroke-width="5" stroke-linecap="round" stroke-linejoin="round"/>
<path d="M21.7646 33.3824L37.4995 41.2499" stroke="url(#paint7_linear_297_1672)" stroke-width="5" stroke-linecap="round" stroke-linejoin="round"/>
<defs>
<linearGradient id="paint0_linear_297_1672" x1="35.9583" y1="6.26894" x2="54.2979" y2="9.07637" gradientUnits="userSpaceOnUse">
<stop stopColor="#FC365F"/>
<stop offset="0.984375" stopColor="#A00BFB"/>
</linearGradient>
<linearGradient id="paint1_linear_297_1672" x1="35.9583" y1="36.2689" x2="54.2979" y2="39.0764" gradientUnits="userSpaceOnUse">
<stop stopColor="#FC365F"/>
<stop offset="0.984375" stopColor="#A00BFB"/>
</linearGradient>
<linearGradient id="paint2_linear_297_1672" x1="5.95828" y1="21.2689" x2="24.2979" y2="24.0764" gradientUnits="userSpaceOnUse">
<stop stopColor="#FC365F"/>
<stop offset="0.984375" stopColor="#A00BFB"/>
</linearGradient>
<linearGradient id="paint3_linear_297_1672" x1="35.9583" y1="6.26894" x2="54.2979" y2="9.07637" gradientUnits="userSpaceOnUse">
<stop stopColor="#FC365F"/>
<stop offset="0.984375" stopColor="#A00BFB"/>
</linearGradient>
<linearGradient id="paint4_linear_297_1672" x1="35.9583" y1="36.2689" x2="54.2979" y2="39.0764" gradientUnits="userSpaceOnUse">
<stop stopColor="#FC365F"/>
<stop offset="0.984375" stopColor="#A00BFB"/>
</linearGradient>
<linearGradient id="paint5_linear_297_1672" x1="5.95828" y1="21.2689" x2="24.2979" y2="24.0764" gradientUnits="userSpaceOnUse">
<stop stopColor="#FC365F"/>
<stop offset="0.984375" stopColor="#A00BFB"/>
</linearGradient>
<linearGradient id="paint6_linear_297_1672" x1="20.1882" y1="18.1058" x2="38.1482" y2="23.6044" gradientUnits="userSpaceOnUse">
<stop stopColor="#FC365F"/>
<stop offset="0.984375" stopColor="#A00BFB"/>
</linearGradient>
<linearGradient id="paint7_linear_297_1672" x1="20.1474" y1="32.7368" x2="38.149" y2="38.2481" gradientUnits="userSpaceOnUse">
<stop stopColor="#FC365F"/>
<stop offset="0.984375" stopColor="#A00BFB"/>
</linearGradient>
</defs>
</svg>
