<svg width="34" height="42" viewBox="0 0 34 42" fill="none" xmlns="http://www.w3.org/2000/svg">
<path d="M18.875 5.8H5.75C4.75544 5.8 3.80161 6.20036 3.09835 6.91299C2.39509 7.62563 2 8.59218 2 9.6V32.4C2 33.4078 2.39509 34.3744 3.09835 35.087C3.80161 35.7996 4.75544 36.2 5.75 36.2H18.875M26.375 5.8H28.25C29.2446 5.8 30.1984 6.20036 30.9016 6.91299C31.6049 7.62563 32 8.59218 32 9.6V11.5M32 30.5V32.4C32 33.4078 31.6049 34.3744 30.9016 35.087C30.1984 35.7996 29.2446 36.2 28.25 36.2H26.375M32 19.1V22.9M17 2V40" stroke="url(#paint0_linear_272_494)" stroke-width="3" stroke-linecap="round" stroke-linejoin="round"/>
<defs>
<linearGradient id="paint0_linear_272_494" x1="-1.27463" y1="-9.19643" x2="38.6295" y2="-5.62767" gradientUnits="userSpaceOnUse">
<stop stopColor="#FFBC21"/>
<stop offset="0.1344" stopColor="#FD843A"/>
<stop offset="0.2742" stopColor="#FC5554"/>
<stop offset="0.4301" stopColor="#FC365F"/>
<stop offset="0.6129" stopColor="#F02E6B"/>
<stop offset="0.817759" stopColor="#DD3578"/>
<stop offset="1" stopColor="#81399D"/>
</linearGradient>
</defs>
</svg>
