<svg width="39" height="39" viewBox="0 0 39 39" fill="none" xmlns="http://www.w3.org/2000/svg">
<path d="M13.0812 23.92L11.4562 22.295L6.41874 23.9037H6.25624C6.17705 23.9087 6.09771 23.8967 6.02348 23.8687C5.94925 23.8407 5.8818 23.7972 5.82561 23.7412L4.64749 22.5793C4.55232 22.4888 4.49142 22.3681 4.47513 22.2378C4.45883 22.1075 4.48816 21.9755 4.55811 21.8643L5.93124 19.5C6.78174 18.0445 7.96827 16.8136 9.39167 15.9104C10.8151 15.0072 12.434 14.4578 14.1131 14.3081L16.1362 14.1293M16.1362 14.1293C17.3117 12.7318 18.395 11.5348 19.3862 10.5381C21.267 8.54588 23.5121 6.93243 26 5.78497C28.5358 4.83709 31.2322 4.39275 33.9381 4.47685C34.1018 4.4783 34.2588 4.54224 34.3769 4.6556C34.4331 4.70727 34.4781 4.77006 34.5088 4.83998C34.5396 4.90991 34.5555 4.98545 34.5556 5.06185C34.6111 7.77587 34.1278 10.4739 33.1337 13C32.0159 15.4952 30.4205 17.7475 28.4375 19.63C27.4381 20.6375 26.2356 21.7181 24.8462 22.88L24.6675 24.895C24.5217 26.5733 23.9766 28.1923 23.0776 29.6171C22.1787 31.0418 20.952 32.2308 19.5 33.085L17.1519 34.4581C17.0592 34.5069 16.9559 34.5321 16.8512 34.5312C16.6958 34.528 16.5463 34.4705 16.4287 34.3687L15.2506 33.1825C15.1745 33.1097 15.1205 33.0171 15.0946 32.915C15.0688 32.813 15.0721 32.7058 15.1044 32.6056L16.6725 27.5112M16.1362 14.1293L11.4969 22.3356M16.6725 27.5112L15.0962 25.935M16.6725 27.5112L24.8787 22.88M30.4037 11.9437C30.4059 11.0616 30.0581 10.2147 29.4367 9.58865C28.8152 8.96263 27.9708 8.60865 27.0887 8.60435C26.6369 8.58204 26.1852 8.65177 25.7611 8.80932C25.3371 8.96687 24.9494 9.20894 24.6217 9.52084C24.294 9.83275 24.0331 10.208 23.8549 10.6238C23.6766 11.0396 23.5847 11.4873 23.5847 11.9397C23.5847 12.3921 23.6766 12.8397 23.8549 13.2555C24.0331 13.6713 24.294 14.0466 24.6217 14.3585C24.9494 14.6704 25.3371 14.9125 25.7611 15.07C26.1852 15.2275 26.6369 15.2973 27.0887 15.275C27.9646 15.2762 28.8056 14.9317 29.4287 14.3162C29.7422 14.0069 29.9896 13.6371 30.1558 13.2293C30.322 12.8214 30.4036 12.3841 30.3956 11.9437H30.4037Z" stroke="url(#paint0_linear_265_905)" stroke-linecap="round" stroke-linejoin="round"/>
<path d="M10.5625 28.4375C13.8125 27.8363 19.5812 22.425 20.2556 18.7444C16.5506 19.4513 11.1394 25.1875 10.5625 28.4375Z" stroke="url(#paint1_linear_265_905)" stroke-linecap="round" stroke-linejoin="round"/>
<defs>
<linearGradient id="paint0_linear_265_905" x1="1.18637" y1="-4.39148" x2="41.0172" y2="0.124356" gradientUnits="userSpaceOnUse">
<stop stopColor="#FFBC21"/>
<stop offset="0.1344" stopColor="#FD843A"/>
<stop offset="0.2742" stopColor="#FC5554"/>
<stop offset="0.4301" stopColor="#FC365F"/>
<stop offset="0.6129" stopColor="#F02E6B"/>
<stop offset="0.817759" stopColor="#DD3578"/>
<stop offset="1" stopColor="#81399D"/>
</linearGradient>
<linearGradient id="paint1_linear_265_905" x1="9.50445" y1="15.8884" x2="22.3361" y2="17.342" gradientUnits="userSpaceOnUse">
<stop stopColor="#FFBC21"/>
<stop offset="0.1344" stopColor="#FD843A"/>
<stop offset="0.2742" stopColor="#FC5554"/>
<stop offset="0.4301" stopColor="#FC365F"/>
<stop offset="0.6129" stopColor="#F02E6B"/>
<stop offset="0.817759" stopColor="#DD3578"/>
<stop offset="1" stopColor="#81399D"/>
</linearGradient>
</defs>
</svg>
