<svg width="60" height="60" viewBox="0 0 60 60" fill="none" xmlns="http://www.w3.org/2000/svg">
<path d="M59.5219 40.3019H0.477422C0.415877 40.3019 0.354927 40.2899 0.298056 40.2663C0.241186 40.2428 0.189511 40.2083 0.145987 40.1648C0.102463 40.1213 0.0679427 40.0696 0.0444012 40.0127C0.0208597 39.9559 0.0087583 39.8949 0.00878912 39.8334C0.00875832 39.7718 0.0208588 39.7109 0.0443989 39.654C0.067939 39.5971 0.102457 39.5455 0.14598 39.5019C0.189503 39.4584 0.241176 39.4239 0.298047 39.4004C0.354919 39.3768 0.415872 39.3647 0.477422 39.3647H59.5219C59.5834 39.3647 59.6444 39.3768 59.7012 39.4004C59.7581 39.4239 59.8098 39.4584 59.8533 39.5019C59.8968 39.5455 59.9313 39.5971 59.9548 39.654C59.9784 39.7109 59.9904 39.7718 59.9904 39.8334C59.9904 39.8949 59.9783 39.9559 59.9548 40.0127C59.9313 40.0696 59.8967 40.1212 59.8532 40.1647C59.8097 40.2082 59.7581 40.2428 59.7012 40.2663C59.6443 40.2898 59.5834 40.3019 59.5219 40.3019ZM29.9995 44.9862C28.9662 44.9862 28.1251 44.146 28.1251 43.1118C28.1251 42.0776 28.9662 41.2374 29.9995 41.2374C31.0329 41.2374 31.8741 42.0776 31.8741 43.1118C31.8741 44.146 31.0329 44.9862 29.9995 44.9862ZM29.9995 42.1747C29.4824 42.1747 29.0623 42.5956 29.0623 43.1118C29.0623 43.628 29.4824 44.049 29.9995 44.049C30.5166 44.049 30.9368 43.628 30.9368 43.1118C30.9368 42.5956 30.5166 42.1747 29.9995 42.1747ZM22.0387 57.1717C21.9686 57.1716 21.8994 57.1558 21.8362 57.1254C21.773 57.095 21.7174 57.0509 21.6735 56.9962C21.6296 56.9415 21.5985 56.8777 21.5825 56.8094C21.5666 56.7411 21.5661 56.6701 21.5811 56.6016L23.4555 48.1667C23.5114 47.915 23.7604 47.7575 24.0148 47.8106C24.136 47.8377 24.2416 47.9118 24.3084 48.0166C24.3751 48.1214 24.3976 48.2484 24.3709 48.3698L22.4965 56.8047C22.4733 56.9088 22.4153 57.0019 22.3321 57.0686C22.2489 57.1354 22.1454 57.1717 22.0387 57.1717ZM37.9603 57.1717C37.8537 57.1717 37.7502 57.1353 37.6671 57.0686C37.5839 57.0019 37.526 56.9088 37.5028 56.8047L35.6285 48.3698C35.6017 48.2484 35.6241 48.1214 35.6909 48.0166C35.7576 47.9118 35.8631 47.8377 35.9844 47.8106C36.2408 47.7575 36.4877 47.915 36.5435 48.1667L38.418 56.6016C38.4331 56.6701 38.4327 56.7411 38.4167 56.8094C38.4007 56.8777 38.3696 56.9416 38.3257 56.9963C38.2818 57.051 38.2262 57.0951 38.1629 57.1255C38.0997 57.1559 38.0305 57.1717 37.9603 57.1717Z" fill="url(#paint0_linear_297_1657)"/>
<path d="M39.3728 57.1718H20.6284C20.5668 57.1718 20.5059 57.1598 20.449 57.1362C20.3921 57.1127 20.3404 57.0782 20.2969 57.0346C20.2534 56.9911 20.2189 56.9394 20.1953 56.8826C20.1718 56.8257 20.1597 56.7647 20.1598 56.7032C20.1597 56.6416 20.1718 56.5807 20.1954 56.5238C20.2189 56.4669 20.2534 56.4153 20.297 56.3718C20.3405 56.3283 20.3922 56.2937 20.449 56.2702C20.5059 56.2467 20.5669 56.2346 20.6284 56.2346H39.3728C39.4343 56.2346 39.4953 56.2467 39.5521 56.2702C39.609 56.2938 39.6606 56.3283 39.7041 56.3718C39.7476 56.4153 39.7822 56.467 39.8057 56.5238C39.8292 56.5807 39.8413 56.6416 39.8413 56.7032C39.8413 56.7647 39.8293 56.8257 39.8057 56.8825C39.7822 56.9394 39.7477 56.9911 39.7042 57.0346C39.6607 57.0781 39.609 57.1126 39.5521 57.1362C39.4953 57.1597 39.4343 57.1718 39.3728 57.1718ZM56.711 37.505H3.28992C3.22837 37.5051 3.16742 37.493 3.11055 37.4694C3.05368 37.4459 3.002 37.4114 2.95848 37.3679C2.91496 37.3243 2.88044 37.2727 2.8569 37.2158C2.83336 37.1589 2.82126 37.098 2.82129 37.0364V6.1084C2.82126 6.04685 2.83336 5.9859 2.8569 5.92903C2.88044 5.87216 2.91496 5.82048 2.95848 5.77696C3.002 5.73344 3.05368 5.69892 3.11055 5.67538C3.16742 5.65184 3.22837 5.63974 3.28992 5.63977H56.711C56.9701 5.63977 57.1798 5.84942 57.1798 6.1084V37.0364C57.1798 37.098 57.1677 37.1589 57.1441 37.2158C57.1206 37.2727 57.0861 37.3244 57.0425 37.3679C56.999 37.4114 56.9473 37.4459 56.8904 37.4695C56.8335 37.493 56.7726 37.5051 56.711 37.505ZM3.75855 36.5678H56.2425V6.57704H3.75855V36.5678Z" fill="url(#paint1_linear_297_1657)"/>
<path d="M56.7101 46.8773H3.28898C1.48043 46.8773 0.00878906 45.4055 0.00878906 43.5971V6.10844C0.00878906 4.29989 1.48055 2.82825 3.28898 2.82825H56.7101C58.5187 2.82825 59.9904 4.3 59.9904 6.10844V43.597C59.9904 45.4055 58.5186 46.8773 56.7101 46.8773ZM3.28898 3.7654C1.99664 3.7654 0.945938 4.81657 0.945938 6.10844V43.597C0.945938 44.8892 1.99664 45.9399 3.28898 45.9399H56.7101C58.0025 45.9399 59.0531 44.8892 59.0531 43.597V6.10844C59.0531 4.81657 58.0025 3.7654 56.7101 3.7654H3.28898Z" fill="url(#paint2_linear_297_1657)"/>
<path d="M56.7101 48.737H3.28898C1.44938 48.737 0.00878912 47.2964 0.00878912 45.4568V43.5824C0.00875832 43.5208 0.0208588 43.4599 0.0443989 43.403C0.067939 43.3461 0.102457 43.2945 0.14598 43.2509C0.189503 43.2074 0.241176 43.1729 0.298047 43.1494C0.354919 43.1258 0.415872 43.1137 0.477422 43.1138C0.538972 43.1137 0.599925 43.1258 0.656796 43.1494C0.713668 43.1729 0.765341 43.2074 0.808864 43.2509C0.852387 43.2945 0.886905 43.3461 0.910445 43.403C0.933985 43.4599 0.946086 43.5208 0.946055 43.5824V45.4568C0.946055 46.7711 1.97484 47.7997 3.2891 47.7997H56.7102C58.0247 47.7997 59.0532 46.7711 59.0532 45.4568V43.597C59.0532 43.5355 59.0653 43.4745 59.0889 43.4176C59.1124 43.3608 59.1469 43.3091 59.1905 43.2655C59.234 43.222 59.2857 43.1875 59.3426 43.164C59.3995 43.1404 59.4604 43.1284 59.522 43.1284C59.5835 43.1284 59.6445 43.1405 59.7014 43.164C59.7582 43.1876 59.8099 43.2221 59.8534 43.2656C59.8969 43.3091 59.9314 43.3608 59.9549 43.4177C59.9785 43.4745 59.9906 43.5355 59.9905 43.597V45.4568C59.9904 47.2964 58.5498 48.737 56.7101 48.737ZM5.1634 37.505C5.10185 37.5051 5.0409 37.493 4.98402 37.4694C4.92715 37.4459 4.87548 37.4114 4.83196 37.3679C4.78843 37.3243 4.75392 37.2727 4.73038 37.2158C4.70684 37.1589 4.69474 37.098 4.69477 37.0364V6.1084C4.69474 6.04685 4.70684 5.9859 4.73038 5.92903C4.75392 5.87216 4.78843 5.82048 4.83196 5.77696C4.87548 5.73344 4.92715 5.69892 4.98402 5.67538C5.0409 5.65184 5.10185 5.63974 5.1634 5.63977C5.22495 5.63974 5.2859 5.65184 5.34277 5.67538C5.39964 5.69892 5.45132 5.73344 5.49484 5.77696C5.53836 5.82048 5.57288 5.87216 5.59642 5.92903C5.61996 5.9859 5.63206 6.04685 5.63203 6.1084V37.0364C5.63206 37.098 5.61996 37.1589 5.59642 37.2158C5.57288 37.2727 5.53836 37.3243 5.49484 37.3679C5.45132 37.4114 5.39964 37.4459 5.34277 37.4694C5.2859 37.493 5.22495 37.5051 5.1634 37.505Z" fill="url(#paint3_linear_297_1657)"/>
<path d="M4.22719 9.38856H3.28992C3.03094 9.38856 2.82129 9.17903 2.82129 8.91993C2.82129 8.66083 3.03094 8.45129 3.28992 8.45129H4.22719C4.48617 8.45129 4.69582 8.66083 4.69582 8.91993C4.69582 9.17903 4.48617 9.38856 4.22719 9.38856ZM4.22719 12.2002H3.28992C3.03094 12.2002 2.82129 11.9906 2.82129 11.7316C2.82129 11.4726 3.03094 11.263 3.28992 11.263H4.22719C4.48617 11.263 4.69582 11.4726 4.69582 11.7316C4.69582 11.9906 4.48617 12.2002 4.22719 12.2002ZM4.22719 15.0119H3.28992C3.03094 15.0119 2.82129 14.8024 2.82129 14.5433C2.82129 14.2842 3.03094 14.0747 3.28992 14.0747H4.22719C4.48617 14.0747 4.69582 14.2842 4.69582 14.5433C4.69582 14.8024 4.48617 15.0119 4.22719 15.0119ZM4.22719 17.8236H3.28992C3.03094 17.8236 2.82129 17.6139 2.82129 17.355C2.82129 17.096 3.03094 16.8863 3.28992 16.8863H4.22719C4.48617 16.8863 4.69582 17.096 4.69582 17.355C4.69582 17.6139 4.48617 17.8236 4.22719 17.8236ZM4.22719 20.6352H3.28992C3.03094 20.6352 2.82129 20.4256 2.82129 20.1665C2.82129 19.9074 3.03094 19.6979 3.28992 19.6979H4.22719C4.48617 19.6979 4.69582 19.9074 4.69582 20.1665C4.69582 20.4256 4.48617 20.6352 4.22719 20.6352ZM4.22719 23.4468H3.28992C3.22837 23.4469 3.16742 23.4348 3.11055 23.4112C3.05368 23.3877 3.002 23.3532 2.95848 23.3096C2.91496 23.2661 2.88044 23.2145 2.8569 23.1576C2.83336 23.1007 2.82126 23.0398 2.82129 22.9782C2.82126 22.9167 2.83336 22.8557 2.8569 22.7988C2.88044 22.742 2.91496 22.6903 2.95848 22.6468C3.002 22.6032 3.05368 22.5687 3.11055 22.5452C3.16742 22.5216 3.22837 22.5095 3.28992 22.5096H4.22719C4.28874 22.5095 4.34969 22.5216 4.40656 22.5452C4.46343 22.5687 4.51511 22.6032 4.55863 22.6468C4.60215 22.6903 4.63667 22.742 4.66021 22.7988C4.68375 22.8557 4.69585 22.9167 4.69582 22.9782C4.69584 23.0398 4.68372 23.1007 4.66018 23.1576C4.63663 23.2144 4.60211 23.2661 4.5586 23.3096C4.51508 23.3531 4.46341 23.3877 4.40654 23.4112C4.34968 23.4347 4.28873 23.4469 4.22719 23.4468ZM4.22719 26.2584H3.28992C3.22837 26.2584 3.16742 26.2463 3.11055 26.2228C3.05368 26.1993 3.002 26.1647 2.95848 26.1212C2.91496 26.0777 2.88044 26.026 2.8569 25.9691C2.83336 25.9123 2.82126 25.8513 2.82129 25.7898C2.82126 25.7282 2.83336 25.6673 2.8569 25.6104C2.88044 25.5535 2.91496 25.5019 2.95848 25.4583C3.002 25.4148 3.05368 25.3803 3.11055 25.3567C3.16742 25.3332 3.22837 25.3211 3.28992 25.3211H4.22719C4.28874 25.3211 4.34969 25.3332 4.40656 25.3567C4.46343 25.3803 4.51511 25.4148 4.55863 25.4583C4.60215 25.5019 4.63667 25.5535 4.66021 25.6104C4.68375 25.6673 4.69585 25.7282 4.69582 25.7898C4.69585 25.8513 4.68375 25.9123 4.66021 25.9691C4.63667 26.026 4.60215 26.0777 4.55863 26.1212C4.51511 26.1647 4.46343 26.1993 4.40656 26.2228C4.34969 26.2463 4.28874 26.2584 4.22719 26.2584ZM4.22719 29.0701H3.28992C3.22837 29.0701 3.16742 29.058 3.11055 29.0345C3.05368 29.0109 3.002 28.9764 2.95848 28.9329C2.91496 28.8894 2.88044 28.8377 2.8569 28.7808C2.83336 28.724 2.82126 28.663 2.82129 28.6014C2.82126 28.5399 2.83336 28.4789 2.8569 28.4221C2.88044 28.3652 2.91496 28.3135 2.95848 28.27C3.002 28.2265 3.05368 28.192 3.11055 28.1684C3.16742 28.1449 3.22837 28.1328 3.28992 28.1328H4.22719C4.28874 28.1328 4.34969 28.1449 4.40656 28.1684C4.46343 28.192 4.51511 28.2265 4.55863 28.27C4.60215 28.3135 4.63667 28.3652 4.66021 28.4221C4.68375 28.4789 4.69585 28.5399 4.69582 28.6014C4.69584 28.663 4.68372 28.7239 4.66018 28.7808C4.63663 28.8377 4.60211 28.8893 4.5586 28.9329C4.51508 28.9764 4.46341 29.0109 4.40654 29.0344C4.34968 29.058 4.28873 29.0701 4.22719 29.0701ZM4.22719 31.8818H3.28992C3.22837 31.8818 3.16742 31.8697 3.11055 31.8462C3.05368 31.8226 3.002 31.7881 2.95848 31.7446C2.91496 31.701 2.88044 31.6494 2.8569 31.5925C2.83336 31.5356 2.82126 31.4747 2.82129 31.4131C2.82126 31.3516 2.83336 31.2906 2.8569 31.2338C2.88044 31.1769 2.91496 31.1252 2.95849 31.0817C3.00201 31.0382 3.05369 31.0037 3.11056 30.9802C3.16743 30.9567 3.22838 30.9446 3.28992 30.9446H4.22719C4.28873 30.9446 4.34968 30.9567 4.40655 30.9802C4.46342 31.0037 4.5151 31.0382 4.55862 31.0817C4.60215 31.1252 4.63667 31.1769 4.66021 31.2338C4.68375 31.2906 4.69585 31.3516 4.69582 31.4131C4.69585 31.4747 4.68375 31.5356 4.66021 31.5925C4.63667 31.6494 4.60215 31.701 4.55863 31.7446C4.51511 31.7881 4.46343 31.8226 4.40656 31.8462C4.34969 31.8697 4.28874 31.8818 4.22719 31.8818ZM4.22719 34.6934H3.28992C3.03094 34.6934 2.82129 34.4838 2.82129 34.2248C2.82129 33.9658 3.03094 33.7562 3.28992 33.7562H4.22719C4.48617 33.7562 4.69582 33.9658 4.69582 34.2248C4.69582 34.4838 4.48617 34.6934 4.22719 34.6934ZM11.7248 9.38856H7.97602C7.71703 9.38856 7.50738 9.17903 7.50738 8.91993C7.50738 8.66083 7.71691 8.45129 7.97602 8.45129H11.7248C11.9838 8.45129 12.1935 8.66083 12.1935 8.91993C12.1935 9.17903 11.9838 9.38856 11.7248 9.38856ZM26.7202 12.2002H15.4737C15.2147 12.2002 15.005 11.9906 15.005 11.7316C15.005 11.4726 15.2146 11.263 15.4737 11.263H26.7202C26.9793 11.263 27.1888 11.4726 27.1888 11.7316C27.1888 11.9906 26.9793 12.2002 26.7202 12.2002ZM13.5993 12.2002H8.91316C8.65418 12.2002 8.44453 11.9906 8.44453 11.7316C8.44453 11.4726 8.65418 11.263 8.91316 11.263H13.5993C13.8582 11.263 14.0679 11.4726 14.0679 11.7316C14.0679 11.9906 13.8582 12.2002 13.5993 12.2002ZM26.7202 15.0119H25.783C25.524 15.0119 25.3144 14.8024 25.3144 14.5433C25.3144 14.2842 25.524 14.0747 25.783 14.0747H26.7202C26.9793 14.0747 27.1888 14.2842 27.1888 14.5433C27.1888 14.8024 26.9793 15.0119 26.7202 15.0119ZM23.9086 15.0119H9.85043C9.59145 15.0119 9.3818 14.8024 9.3818 14.5433C9.3818 14.2842 9.59133 14.0747 9.85043 14.0747H23.9086C24.1676 14.0747 24.3772 14.2842 24.3772 14.5433C24.3772 14.8024 24.1676 15.0119 23.9086 15.0119ZM12.662 20.6352H9.85043C9.59145 20.6352 9.3818 20.4256 9.3818 20.1665C9.3818 19.9074 9.59133 19.6979 9.85043 19.6979H12.6621C12.9211 19.6979 13.1307 19.9074 13.1307 20.1665C13.1307 20.4256 12.921 20.6352 12.662 20.6352ZM26.7202 20.6352H14.5365C14.2775 20.6352 14.0679 20.4256 14.0679 20.1665C14.0679 19.9074 14.2775 19.6979 14.5365 19.6979H26.7203C26.9794 19.6979 27.1889 19.9074 27.1889 20.1665C27.1889 20.4256 26.9793 20.6352 26.7202 20.6352ZM26.7202 17.8236H10.7876C10.5286 17.8236 10.3189 17.6139 10.3189 17.355C10.3189 17.096 10.5286 16.8863 10.7876 16.8863H26.7202C26.9793 16.8863 27.1888 17.096 27.1888 17.355C27.1888 17.6139 26.9793 17.8236 26.7202 17.8236ZM26.7202 23.4468H22.9713C22.9098 23.4469 22.8488 23.4348 22.792 23.4112C22.7351 23.3877 22.6834 23.3532 22.6399 23.3096C22.5964 23.2661 22.5618 23.2145 22.5383 23.1576C22.5148 23.1007 22.5027 23.0398 22.5027 22.9782C22.5027 22.9167 22.5148 22.8557 22.5383 22.7988C22.5618 22.742 22.5964 22.6903 22.6399 22.6468C22.6834 22.6032 22.7351 22.5687 22.792 22.5452C22.8488 22.5216 22.9098 22.5095 22.9713 22.5096H26.7202C26.7817 22.5095 26.8427 22.5216 26.8995 22.5452C26.9564 22.5687 27.0081 22.6032 27.0516 22.6468C27.0951 22.6903 27.1296 22.742 27.1532 22.7988C27.1767 22.8557 27.1888 22.9167 27.1888 22.9782C27.1888 23.0398 27.1767 23.1007 27.1532 23.1576C27.1296 23.2145 27.0951 23.2661 27.0516 23.3096C27.0081 23.3532 26.9564 23.3877 26.8995 23.4112C26.8427 23.4348 26.7817 23.4469 26.7202 23.4468ZM23.9086 26.2584H8.91316C8.85161 26.2584 8.79066 26.2463 8.73379 26.2228C8.67692 26.1993 8.62524 26.1647 8.58172 26.1212C8.5382 26.0777 8.50368 26.026 8.48014 25.9691C8.4566 25.9123 8.4445 25.8513 8.44453 25.7898C8.4445 25.7282 8.4566 25.6673 8.48014 25.6104C8.50368 25.5535 8.5382 25.5019 8.58172 25.4583C8.62524 25.4148 8.67692 25.3803 8.73379 25.3567C8.79066 25.3332 8.85161 25.3211 8.91316 25.3211H23.9086C23.9701 25.3211 24.0311 25.3332 24.088 25.3567C24.1448 25.3803 24.1965 25.4148 24.24 25.4583C24.2836 25.5019 24.3181 25.5535 24.3416 25.6104C24.3652 25.6673 24.3773 25.7282 24.3772 25.7898C24.3773 25.8513 24.3652 25.9123 24.3416 25.9691C24.3181 26.026 24.2836 26.0777 24.24 26.1212C24.1965 26.1647 24.1448 26.1993 24.088 26.2228C24.0311 26.2463 23.9701 26.2584 23.9086 26.2584ZM16.4109 31.8818H8.91328C8.85173 31.8818 8.79078 31.8697 8.73391 31.8462C8.67704 31.8226 8.62536 31.7881 8.58184 31.7446C8.53832 31.701 8.5038 31.6494 8.48026 31.5925C8.45672 31.5356 8.44462 31.4747 8.44465 31.4131C8.44462 31.3516 8.45672 31.2906 8.48026 31.2338C8.5038 31.1769 8.53832 31.1252 8.58185 31.0817C8.62537 31.0382 8.67705 31.0037 8.73392 30.9802C8.79079 30.9567 8.85174 30.9446 8.91328 30.9446H16.4109C16.4725 30.9446 16.5334 30.9567 16.5903 30.9802C16.6472 31.0037 16.6988 31.0382 16.7424 31.0817C16.7859 31.1252 16.8204 31.1769 16.844 31.2338C16.8675 31.2906 16.8796 31.3516 16.8796 31.4131C16.8796 31.4747 16.8675 31.5356 16.844 31.5925C16.8204 31.6494 16.7859 31.701 16.7424 31.7446C16.6989 31.7881 16.6472 31.8226 16.5903 31.8462C16.5334 31.8697 16.4725 31.8818 16.4109 31.8818ZM26.7202 29.0701H22.0342C21.9726 29.0701 21.9117 29.058 21.8548 29.0345C21.7979 29.0109 21.7463 28.9764 21.7027 28.9329C21.6592 28.8894 21.6247 28.8377 21.6012 28.7808C21.5776 28.724 21.5655 28.663 21.5655 28.6014C21.5655 28.5399 21.5776 28.4789 21.6012 28.4221C21.6247 28.3652 21.6592 28.3135 21.7027 28.27C21.7463 28.2265 21.7979 28.192 21.8548 28.1684C21.9117 28.1449 21.9726 28.1328 22.0342 28.1328H26.7202C26.7817 28.1328 26.8427 28.1449 26.8995 28.1684C26.9564 28.192 27.0081 28.2265 27.0516 28.27C27.0951 28.3135 27.1296 28.3652 27.1532 28.4221C27.1767 28.4789 27.1888 28.5399 27.1888 28.6014C27.1888 28.663 27.1767 28.724 27.1532 28.7808C27.1296 28.8377 27.0951 28.8894 27.0516 28.9329C27.0081 28.9764 26.9564 29.0109 26.8995 29.0345C26.8427 29.058 26.7817 29.0701 26.7202 29.0701ZM20.1598 29.0701H9.85043C9.78888 29.0701 9.72793 29.058 9.67106 29.0345C9.61418 29.0109 9.56251 28.9764 9.51899 28.9329C9.47546 28.8894 9.44095 28.8377 9.41741 28.7808C9.39387 28.724 9.38177 28.663 9.3818 28.6014C9.38177 28.5399 9.39387 28.4789 9.41741 28.4221C9.44095 28.3652 9.47546 28.3135 9.51899 28.27C9.56251 28.2265 9.61418 28.192 9.67106 28.1684C9.72793 28.1449 9.78888 28.1328 9.85043 28.1328H20.1598C20.2213 28.1328 20.2823 28.1449 20.3391 28.1684C20.396 28.192 20.4477 28.2265 20.4912 28.27C20.5347 28.3135 20.5692 28.3652 20.5928 28.4221C20.6163 28.4789 20.6284 28.5399 20.6284 28.6014C20.6284 28.663 20.6163 28.724 20.5928 28.7808C20.5692 28.8377 20.5347 28.8894 20.4912 28.9329C20.4477 28.9764 20.396 29.0109 20.3391 29.0345C20.2823 29.058 20.2213 29.0701 20.1598 29.0701ZM11.7248 34.6934H7.97602C7.71703 34.6934 7.50738 34.4838 7.50738 34.2248C7.50738 33.9658 7.71691 33.7562 7.97602 33.7562H11.7248C11.9838 33.7562 12.1935 33.9658 12.1935 34.2248C12.1935 34.4838 11.9838 34.6934 11.7248 34.6934ZM26.7202 26.2584H25.783C25.7215 26.2584 25.6605 26.2463 25.6036 26.2228C25.5468 26.1993 25.4951 26.1647 25.4516 26.1212C25.408 26.0777 25.3735 26.026 25.35 25.9691C25.3264 25.9123 25.3143 25.8513 25.3144 25.7898C25.3143 25.7282 25.3264 25.6673 25.35 25.6104C25.3735 25.5535 25.408 25.5019 25.4516 25.4583C25.4951 25.4148 25.5468 25.3803 25.6036 25.3567C25.6605 25.3332 25.7215 25.3211 25.783 25.3211H26.7202C26.7817 25.3211 26.8427 25.3332 26.8995 25.3567C26.9564 25.3803 27.0081 25.4148 27.0516 25.4583C27.0951 25.5019 27.1296 25.5535 27.1532 25.6104C27.1767 25.6673 27.1888 25.7282 27.1888 25.7898C27.1888 25.8513 27.1767 25.9123 27.1532 25.9692C27.1297 26.026 27.0952 26.0777 27.0516 26.1212C27.0081 26.1648 26.9564 26.1993 26.8995 26.2228C26.8427 26.2464 26.7817 26.2584 26.7202 26.2584ZM21.0969 23.4468H9.85043C9.78888 23.4469 9.72793 23.4348 9.67106 23.4112C9.61418 23.3877 9.56251 23.3532 9.51899 23.3096C9.47546 23.2661 9.44095 23.2145 9.41741 23.1576C9.39387 23.1007 9.38177 23.0398 9.3818 22.9782C9.38177 22.9167 9.39387 22.8557 9.41741 22.7988C9.44095 22.742 9.47546 22.6903 9.51899 22.6468C9.56251 22.6032 9.61418 22.5687 9.67106 22.5452C9.72793 22.5216 9.78888 22.5095 9.85043 22.5096H21.097C21.1586 22.5095 21.2195 22.5216 21.2764 22.5452C21.3333 22.5687 21.385 22.6032 21.4285 22.6468C21.472 22.6903 21.5065 22.742 21.5301 22.7988C21.5536 22.8557 21.5657 22.9167 21.5657 22.9782C21.5657 23.0398 21.5536 23.1007 21.53 23.1576C21.5065 23.2145 21.4719 23.2661 21.4284 23.3097C21.3849 23.3532 21.3332 23.3877 21.2763 23.4112C21.2194 23.4348 21.1585 23.4469 21.0969 23.4468Z" fill="url(#paint4_linear_297_1657)"/>
<path d="M29.9999 37.505C29.9383 37.5051 29.8774 37.493 29.8205 37.4694C29.7636 37.4459 29.712 37.4114 29.6684 37.3679C29.6249 37.3243 29.5904 37.2727 29.5669 37.2158C29.5433 37.1589 29.5312 37.098 29.5313 37.0364V6.1084C29.5312 6.04685 29.5433 5.9859 29.5669 5.92903C29.5904 5.87216 29.6249 5.82048 29.6684 5.77696C29.712 5.73344 29.7636 5.69892 29.8205 5.67538C29.8774 5.65184 29.9383 5.63974 29.9999 5.63977C30.0614 5.63974 30.1224 5.65184 30.1792 5.67538C30.2361 5.69892 30.2878 5.73344 30.3313 5.77697C30.3748 5.82049 30.4093 5.87217 30.4328 5.92904C30.4564 5.98591 30.4684 6.04686 30.4684 6.1084V37.0364C30.4684 37.098 30.4564 37.1589 30.4328 37.2158C30.4093 37.2726 30.3748 37.3243 30.3313 37.3678C30.2878 37.4114 30.2361 37.4459 30.1792 37.4694C30.1224 37.493 30.0614 37.5051 29.9999 37.505Z" fill="url(#paint5_linear_297_1657)"/>
<path d="M52.9617 31.8818C52.8837 31.8818 52.8069 31.8623 52.7383 31.8251C52.6698 31.7879 52.6116 31.7341 52.5691 31.6686L46.8697 22.901L41.1705 31.6686C41.0305 31.8873 40.7386 31.9468 40.5226 31.8068C40.4185 31.7389 40.3455 31.6324 40.3197 31.5108C40.294 31.3891 40.3176 31.2622 40.3853 31.1579L46.4771 21.7857C46.6493 21.5195 47.0903 21.5195 47.2624 21.7857L53.3543 31.1579C53.422 31.2622 53.4456 31.3891 53.4198 31.5108C53.3941 31.6324 53.3211 31.7389 53.217 31.8068C53.1384 31.8579 53.0496 31.8818 52.9617 31.8818Z" fill="url(#paint6_linear_297_1657)"/>
<path d="M37.0296 31.8819C36.9447 31.8819 36.8615 31.8589 36.7887 31.8153C36.716 31.7717 36.6564 31.7092 36.6164 31.6344C36.5763 31.5596 36.5573 31.4754 36.5614 31.3906C36.5655 31.3059 36.5925 31.2239 36.6396 31.1533L40.3884 25.5356C40.4312 25.4714 40.4892 25.4188 40.5572 25.3824C40.6252 25.3461 40.7012 25.327 40.7783 25.327C40.8554 25.327 40.9313 25.3461 40.9994 25.3824C41.0674 25.4188 41.1253 25.4714 41.1682 25.5356L43.0153 28.3041C43.0842 28.4075 43.1092 28.5341 43.0848 28.6559C43.0604 28.7778 42.9887 28.885 42.8853 28.9539C42.6702 29.0957 42.3793 29.0399 42.2355 28.824L40.7784 26.6397L37.4193 31.6731C37.3766 31.7374 37.3186 31.79 37.2506 31.8264C37.1826 31.8628 37.1067 31.8819 37.0296 31.8819ZM37.0296 25.3213C35.7371 25.3213 34.6865 24.2702 34.6865 22.9783C34.6865 21.6864 35.7371 20.6353 37.0296 20.6353C38.3218 20.6353 39.3726 21.6864 39.3726 22.9783C39.3727 24.2702 38.3219 25.3213 37.0296 25.3213ZM37.0296 21.5725C36.2544 21.5725 35.6238 22.2031 35.6238 22.9783C35.6238 23.7535 36.2544 24.3841 37.0296 24.3841C37.8048 24.3841 38.4354 23.7535 38.4354 22.9783C38.4354 22.2031 37.8049 21.5725 37.0296 21.5725Z" fill="url(#paint7_linear_297_1657)"/>
<path d="M53.8989 31.8818H33.2803C33.0212 31.8818 32.8115 31.6722 32.8115 31.4131V19.2294C32.8115 19.1678 32.8236 19.1069 32.8471 19.05C32.8707 18.9931 32.9052 18.9414 32.9488 18.8979C32.9923 18.8544 33.044 18.8199 33.1009 18.7963C33.1577 18.7728 33.2187 18.7607 33.2803 18.7607H53.8988C53.9604 18.7607 54.0213 18.7728 54.0782 18.7964C54.135 18.8199 54.1867 18.8544 54.2302 18.8979C54.2737 18.9415 54.3083 18.9931 54.3318 19.05C54.3553 19.1069 54.3674 19.1678 54.3673 19.2294V31.4131C54.3674 31.4747 54.3554 31.5356 54.3319 31.5925C54.3083 31.6494 54.2738 31.7011 54.2303 31.7446C54.1868 31.7881 54.1352 31.8226 54.0783 31.8462C54.0214 31.8697 53.9605 31.8818 53.8989 31.8818ZM33.7488 30.9446H53.4303V19.698H33.7488V30.9446Z" fill="url(#paint8_linear_297_1657)"/>
<path d="M53.8989 9.38856H33.2803C33.0212 9.38856 32.8115 9.17903 32.8115 8.91993C32.8115 8.66083 33.0212 8.45129 33.2803 8.45129H53.8988C54.1579 8.45129 54.3673 8.66083 54.3673 8.91993C54.3673 9.17903 54.1579 9.38856 53.8989 9.38856Z" fill="url(#paint9_linear_297_1657)"/>
<path d="M53.8992 16.8863C53.8376 16.8864 53.7767 16.8743 53.7198 16.8508C53.6629 16.8272 53.6113 16.7927 53.5677 16.7492C53.5242 16.7056 53.4897 16.654 53.4662 16.5971C53.4427 16.5402 53.4306 16.4793 53.4307 16.4177V8.92005C53.4307 8.66106 53.6401 8.45142 53.8992 8.45142C54.1583 8.45142 54.3677 8.66095 54.3677 8.92005V16.4177C54.3677 16.4792 54.3557 16.5402 54.3321 16.5971C54.3086 16.6539 54.2741 16.7056 54.2306 16.7491C54.1871 16.7927 54.1354 16.8272 54.0785 16.8507C54.0217 16.8743 53.9607 16.8864 53.8992 16.8863Z" fill="url(#paint10_linear_297_1657)"/>
<path d="M53.8989 16.8864H33.2803C33.0212 16.8864 32.8115 16.6768 32.8115 16.4177C32.8115 16.1586 33.0212 15.9491 33.2803 15.9491H53.8988C54.1579 15.9491 54.3673 16.1586 54.3673 16.4177C54.3673 16.6768 54.1579 16.8864 53.8989 16.8864Z" fill="url(#paint11_linear_297_1657)"/>
<path d="M51.0873 13.1375H33.2803C33.0212 13.1375 32.8115 12.9279 32.8115 12.6688C32.8115 12.4097 33.0212 12.2002 33.2803 12.2002H51.0873C51.3461 12.2002 51.5558 12.4097 51.5558 12.6688C51.5558 12.9279 51.3461 13.1375 51.0873 13.1375Z" fill="url(#paint12_linear_297_1657)"/>
<path d="M53.8989 34.6935H33.2803C33.0212 34.6935 32.8115 34.4838 32.8115 34.2249C32.8115 33.9659 33.0212 33.7562 33.2803 33.7562H53.8988C54.1579 33.7562 54.3673 33.9659 54.3673 34.2249C54.3673 34.4838 54.1579 34.6935 53.8989 34.6935Z" fill="url(#paint13_linear_297_1657)"/>
<defs>
<linearGradient id="paint0_linear_297_1657" x1="-6.1562" y1="37.9033" x2="53.1339" y2="68.4756" gradientUnits="userSpaceOnUse">
<stop stop-color="#FC365F"/>
<stop offset="0.984375" stop-color="#A00BFB"/>
</linearGradient>
<linearGradient id="paint1_linear_297_1657" x1="-2.76574" y1="1.41052" x2="63.524" y2="12.1147" gradientUnits="userSpaceOnUse">
<stop stop-color="#FC365F"/>
<stop offset="0.984375" stop-color="#A00BFB"/>
</linearGradient>
<linearGradient id="paint2_linear_297_1657" x1="-6.1562" y1="-0.786872" x2="65.7728" y2="14.2067" gradientUnits="userSpaceOnUse">
<stop stop-color="#FC365F"/>
<stop offset="0.984375" stop-color="#A00BFB"/>
</linearGradient>
<linearGradient id="paint3_linear_297_1657" x1="-6.15621" y1="2.10277" x2="65.6394" y2="17.3991" gradientUnits="userSpaceOnUse">
<stop stop-color="#FC365F"/>
<stop offset="0.984375" stop-color="#A00BFB"/>
</linearGradient>
<linearGradient id="paint4_linear_297_1657" x1="0.316754" y1="6.29759" x2="30.2038" y2="10.5459" gradientUnits="userSpaceOnUse">
<stop stop-color="#FC365F"/>
<stop offset="0.984375" stop-color="#A00BFB"/>
</linearGradient>
<linearGradient id="paint5_linear_297_1657" x1="29.4349" y1="3.02458" x2="30.6075" y2="3.02986" gradientUnits="userSpaceOnUse">
<stop stop-color="#FC365F"/>
<stop offset="0.984375" stop-color="#A00BFB"/>
</linearGradient>
<linearGradient id="paint6_linear_297_1657" x1="38.961" y1="20.741" x2="54.7767" y2="23.8262" gradientUnits="userSpaceOnUse">
<stop stop-color="#FC365F"/>
<stop offset="0.984375" stop-color="#A00BFB"/>
</linearGradient>
<linearGradient id="paint7_linear_297_1657" x1="33.8224" y1="19.7122" x2="44.2065" y2="20.9005" gradientUnits="userSpaceOnUse">
<stop stop-color="#FC365F"/>
<stop offset="0.984375" stop-color="#A00BFB"/>
</linearGradient>
<linearGradient id="paint8_linear_297_1657" x1="30.596" y1="17.6839" x2="55.9641" y2="24.0637" gradientUnits="userSpaceOnUse">
<stop stop-color="#FC365F"/>
<stop offset="0.984375" stop-color="#A00BFB"/>
</linearGradient>
<linearGradient id="paint9_linear_297_1657" x1="30.596" y1="8.37437" x2="32.6096" y2="15.4637" gradientUnits="userSpaceOnUse">
<stop stop-color="#FC365F"/>
<stop offset="0.984375" stop-color="#A00BFB"/>
</linearGradient>
<linearGradient id="paint10_linear_297_1657" x1="53.3344" y1="7.75916" x2="54.5065" y2="7.77909" gradientUnits="userSpaceOnUse">
<stop stop-color="#FC365F"/>
<stop offset="0.984375" stop-color="#A00BFB"/>
</linearGradient>
<linearGradient id="paint11_linear_297_1657" x1="30.596" y1="15.8722" x2="32.6096" y2="22.9615" gradientUnits="userSpaceOnUse">
<stop stop-color="#FC365F"/>
<stop offset="0.984375" stop-color="#A00BFB"/>
</linearGradient>
<linearGradient id="paint12_linear_297_1657" x1="30.885" y1="12.1233" x2="33.1462" y2="19.0459" gradientUnits="userSpaceOnUse">
<stop stop-color="#FC365F"/>
<stop offset="0.984375" stop-color="#A00BFB"/>
</linearGradient>
<linearGradient id="paint13_linear_297_1657" x1="30.596" y1="33.6793" x2="32.6096" y2="40.7686" gradientUnits="userSpaceOnUse">
<stop stop-color="#FC365F"/>
<stop offset="0.984375" stop-color="#A00BFB"/>
</linearGradient>
</defs>
</svg>
