<svg width="39" height="37" viewBox="0 0 39 37" fill="none" xmlns="http://www.w3.org/2000/svg">
<path d="M0.950431 14.5212C-0.393119 16.848 0.414962 19.8642 2.74209 21.2074C4.05444 21.9655 5.58558 22.0381 6.91275 21.5397L12.0062 29.0409C11.8458 29.2359 11.701 29.4433 11.5733 29.661C10.2301 31.9882 11.0382 35.004 13.3653 36.3476C15.692 37.6911 18.7075 36.8827 20.0511 34.5555C21.3478 32.3091 20.6255 29.436 18.4813 28.03C18.413 27.9695 18.3388 27.9159 18.2598 27.8701C18.1806 27.8244 18.097 27.7868 18.0102 27.7578C16.8102 27.1533 15.4577 27.0929 14.2537 27.4915L9.10104 19.904C9.21804 19.7488 9.32841 19.5881 9.42786 19.4161C10.3272 17.8577 10.2543 15.9989 9.40992 14.5364L14.4721 9.44031C16.6288 10.2644 19.1396 9.45552 20.3822 7.44741L28.961 9.24531C29.1252 10.748 29.9696 12.1594 31.3677 12.9667C33.6948 14.3102 36.7099 13.5018 38.0535 11.1746C39.3506 8.92824 38.6279 6.05511 36.4841 4.64916C36.4156 4.58854 36.3411 4.53497 36.2618 4.48926C36.1828 4.4436 36.0995 4.40597 36.013 4.37694C33.7233 3.22332 30.8728 4.03374 29.576 6.28014C29.5242 6.37062 29.4805 6.46305 29.4349 6.55509L21.1029 4.80828C21.0698 3.23502 20.2823 1.70778 18.8932 0.797127C18.8249 0.736553 18.7506 0.682985 18.6716 0.637227C18.5924 0.591654 18.5088 0.554156 18.422 0.525297C16.1327 -0.628713 13.2826 0.182097 11.9855 2.4285C10.991 4.15074 11.1782 6.24894 12.285 7.76877L7.44627 12.6399C7.42694 12.6321 7.40744 12.6249 7.38777 12.618C5.09769 11.464 2.24718 12.2748 0.950431 14.5212ZM3.31461 15.8862C3.92028 14.8371 5.2221 14.4885 6.2712 15.0945C7.3203 15.7002 7.66935 17.0016 7.06329 18.0507C6.45762 19.0998 5.15619 19.4493 4.10709 18.8432C3.05799 18.2375 2.70894 16.9353 3.31461 15.8862ZM14.3493 3.79311C14.9549 2.74401 16.2568 2.39535 17.3063 3.00141C18.3554 3.60708 18.704 4.90851 18.098 5.95761C17.4923 7.00671 16.1909 7.35615 15.1418 6.75009C14.0927 6.14442 13.7436 4.84221 14.3493 3.79311ZM13.9378 31.0256C14.5435 29.9765 15.8453 29.6283 16.8948 30.2339C17.9439 30.84 18.2926 32.141 17.6865 33.1901C17.0808 34.2392 15.7794 34.5887 14.7303 33.983C13.6812 33.3773 13.3322 32.0751 13.9378 31.0256ZM31.9402 7.64436C32.5463 6.59526 33.8477 6.24699 34.8972 6.85266C35.9463 7.45872 36.295 8.75976 35.6889 9.80886C35.0836 10.858 33.7818 11.2074 32.7327 10.6017C31.6836 9.99606 31.3346 8.69385 31.9402 7.64436Z" fill="url(#paint0_linear_265_868)"/>
<path d="M7.71069 7.09104C7.32186 7.20024 7.28793 7.31958 7.16781 7.6776L6.50793 9.64047L8.35653 10.2614L8.87718 8.71422L10.1576 8.16978L9.39432 6.375L7.71069 7.09104Z" fill="url(#paint1_linear_265_868)"/>
<path d="M19.5671 10.3311L22.2698 13.1426L23.6749 11.7912L20.9722 8.97974L19.5671 10.3311Z" fill="url(#paint2_linear_265_868)"/>
<path d="M24.5868 12.2488L25.4764 13.9843L28.947 12.2055L28.0574 10.47L24.5868 12.2488Z" fill="url(#paint3_linear_265_868)"/>
<path d="M3.11103 27.1924L5.05167 27.3796L5.42724 23.4975L3.48582 23.3103L3.11103 27.1924Z" fill="url(#paint4_linear_265_868)"/>
<path d="M5.96466 29.4934L9.52107 31.0928L10.3217 29.3152L6.76494 27.7146L5.96466 29.4934Z" fill="url(#paint5_linear_265_868)"/>
<defs>
<linearGradient id="paint0_linear_265_868" x1="-3.89093" y1="-10.8975" x2="46.8916" y2="-4.9264" gradientUnits="userSpaceOnUse">
<stop stop-color="#FFBC21"/>
<stop offset="0.1344" stop-color="#FD843A"/>
<stop offset="0.2742" stop-color="#FC5554"/>
<stop offset="0.4301" stop-color="#FC365F"/>
<stop offset="0.6129" stop-color="#F02E6B"/>
<stop offset="0.817759" stop-color="#DD3578"/>
<stop offset="1" stop-color="#81399D"/>
</linearGradient>
<linearGradient id="paint1_linear_265_868" x1="6.10956" y1="5.22991" x2="10.9481" y2="5.74465" gradientUnits="userSpaceOnUse">
<stop stop-color="#FFBC21"/>
<stop offset="0.1344" stop-color="#FD843A"/>
<stop offset="0.2742" stop-color="#FC5554"/>
<stop offset="0.4301" stop-color="#FC365F"/>
<stop offset="0.6129" stop-color="#F02E6B"/>
<stop offset="0.817759" stop-color="#DD3578"/>
<stop offset="1" stop-color="#81399D"/>
</linearGradient>
<linearGradient id="paint2_linear_265_868" x1="19.1187" y1="7.75318" x2="24.5584" y2="8.36127" gradientUnits="userSpaceOnUse">
<stop stop-color="#FFBC21"/>
<stop offset="0.1344" stop-color="#FD843A"/>
<stop offset="0.2742" stop-color="#FC5554"/>
<stop offset="0.4301" stop-color="#FC365F"/>
<stop offset="0.6129" stop-color="#F02E6B"/>
<stop offset="0.817759" stop-color="#DD3578"/>
<stop offset="1" stop-color="#81399D"/>
</linearGradient>
<linearGradient id="paint3_linear_265_868" x1="24.1108" y1="9.43451" x2="29.8436" y2="10.2403" gradientUnits="userSpaceOnUse">
<stop stop-color="#FFBC21"/>
<stop offset="0.1344" stop-color="#FD843A"/>
<stop offset="0.2742" stop-color="#FC5554"/>
<stop offset="0.4301" stop-color="#FC365F"/>
<stop offset="0.6129" stop-color="#F02E6B"/>
<stop offset="0.817759" stop-color="#DD3578"/>
<stop offset="1" stop-color="#81399D"/>
</linearGradient>
<linearGradient id="paint4_linear_265_868" x1="2.85821" y1="22.1113" x2="5.95087" y2="22.3107" gradientUnits="userSpaceOnUse">
<stop stop-color="#FFBC21"/>
<stop offset="0.1344" stop-color="#FD843A"/>
<stop offset="0.2742" stop-color="#FC5554"/>
<stop offset="0.4301" stop-color="#FC365F"/>
<stop offset="0.6129" stop-color="#F02E6B"/>
<stop offset="0.817759" stop-color="#DD3578"/>
<stop offset="1" stop-color="#81399D"/>
</linearGradient>
<linearGradient id="paint5_linear_265_868" x1="5.48907" y1="26.7192" x2="11.2088" y2="27.5549" gradientUnits="userSpaceOnUse">
<stop stop-color="#FFBC21"/>
<stop offset="0.1344" stop-color="#FD843A"/>
<stop offset="0.2742" stop-color="#FC5554"/>
<stop offset="0.4301" stop-color="#FC365F"/>
<stop offset="0.6129" stop-color="#F02E6B"/>
<stop offset="0.817759" stop-color="#DD3578"/>
<stop offset="1" stop-color="#81399D"/>
</linearGradient>
</defs>
</svg>
