<svg width="39" height="39" viewBox="0 0 39 39" fill="none" xmlns="http://www.w3.org/2000/svg">
<path d="M23.9484 19.1952C24.6187 18.464 25.2281 17.7327 25.7766 16.9406C24.6187 14.9296 24.0703 12.9796 24.3141 11.3952C24.4969 10.1765 25.1062 9.26243 26.0812 8.71399C26.6906 8.40931 27.3609 8.22649 27.9703 8.22649C28.3359 8.22649 28.6406 8.28743 29.0062 8.34837C28.8844 6.70306 28.2141 5.36243 26.9344 4.63118C24.6187 3.35149 21.6937 4.26556 20.4141 6.88587C17.9156 5.36243 14.9906 6.09368 13.7109 8.40931C11.7 12.1265 16.2703 17.0624 23.9484 19.1952Z" fill="url(#paint0_linear_272_500)"/>
<path d="M26.5688 9.56724C24.1313 10.9079 24.9844 15.2954 28.5797 19.2563C33.6984 17.7938 36.7453 14.5641 35.4047 12.1266C34.5516 10.5422 32.6016 10.1157 30.8953 11.0907C30.0422 9.3235 28.0922 8.65318 26.5688 9.56724Z" fill="url(#paint1_linear_272_500)"/>
<path d="M1.15781 32.4797H5.42344V19.1953H0L1.15781 32.4797Z" fill="url(#paint2_linear_272_500)"/>
<path d="M38.6953 24.9845C38.3906 24.5579 37.8422 24.2532 37.2938 24.2532C37.1719 24.2532 37.05 24.2532 36.9891 24.3142L26.7516 26.386V26.447C26.5078 27.1782 25.9594 27.7876 25.2891 28.0923C24.9234 28.2751 24.5578 28.336 24.1922 28.336H18.8906C18.5859 28.336 18.4031 28.0923 18.4031 27.8485C18.4031 27.5438 18.6469 27.361 18.8906 27.361H24.0703C24.3141 27.361 24.5578 27.3001 24.8016 27.2392C25.35 26.9954 25.7156 26.5079 25.7766 25.9595C25.7766 25.8985 25.7766 25.8985 25.7766 25.8376C25.7766 25.7157 25.7766 25.6548 25.7766 25.5329C25.7156 24.6798 24.9844 24.0095 24.1313 24.0095L18.6469 23.8267C18.2203 23.8267 17.7328 23.7048 17.2453 23.522L12.1266 20.7188C11.8219 20.536 11.5172 20.4751 11.2125 20.4751H6.3375V31.0782H7.61719C7.92188 31.0782 8.22656 31.1392 8.53125 31.2001L19.5 34.7954C19.7438 34.8563 19.9266 34.8563 20.1703 34.8563C20.7797 34.8563 21.3891 34.7345 21.9375 34.4907L38.1469 27.422C38.5125 27.2392 38.7563 26.9345 38.9391 26.5688C39.0609 26.0204 39 25.472 38.6953 24.9845Z" fill="url(#paint3_linear_272_500)"/>
<defs>
<linearGradient id="paint0_linear_272_500" x1="11.5156" y1="-0.401313" x2="32.3683" y2="2.05967" gradientUnits="userSpaceOnUse">
<stop stopColor="#FFBC21"/>
<stop offset="0.1344" stopColor="#FD843A"/>
<stop offset="0.2742" stopColor="#FC5554"/>
<stop offset="0.4301" stopColor="#FC365F"/>
<stop offset="0.6129" stopColor="#F02E6B"/>
<stop offset="0.817759" stopColor="#DD3578"/>
<stop offset="1" stopColor="#81399D"/>
</linearGradient>
<linearGradient id="paint1_linear_272_500" x1="24.0354" y1="6.18413" x2="37.9663" y2="7.83075" gradientUnits="userSpaceOnUse">
<stop stopColor="#FFBC21"/>
<stop offset="0.1344" stopColor="#FD843A"/>
<stop offset="0.2742" stopColor="#FC5554"/>
<stop offset="0.4301" stopColor="#FC365F"/>
<stop offset="0.6129" stopColor="#F02E6B"/>
<stop offset="0.817759" stopColor="#DD3578"/>
<stop offset="1" stopColor="#81399D"/>
</linearGradient>
<linearGradient id="paint2_linear_272_500" x1="-0.591992" y1="15.2812" x2="6.6641" y2="15.6167" gradientUnits="userSpaceOnUse">
<stop stopColor="#FFBC21"/>
<stop offset="0.1344" stopColor="#FD843A"/>
<stop offset="0.2742" stopColor="#FC5554"/>
<stop offset="0.4301" stopColor="#FC365F"/>
<stop offset="0.6129" stopColor="#F02E6B"/>
<stop offset="0.817759" stopColor="#DD3578"/>
<stop offset="1" stopColor="#81399D"/>
</linearGradient>
<linearGradient id="paint3_linear_272_500" x1="2.77247" y1="16.2378" x2="43.8443" y2="26.8043" gradientUnits="userSpaceOnUse">
<stop stopColor="#FFBC21"/>
<stop offset="0.1344" stopColor="#FD843A"/>
<stop offset="0.2742" stopColor="#FC5554"/>
<stop offset="0.4301" stopColor="#FC365F"/>
<stop offset="0.6129" stopColor="#F02E6B"/>
<stop offset="0.817759" stopColor="#DD3578"/>
<stop offset="1" stopColor="#81399D"/>
</linearGradient>
</defs>
</svg>
