<svg width="40" height="40" viewBox="0 0 40 40" fill="none" xmlns="http://www.w3.org/2000/svg">
<path fill-rule="evenodd" clip-rule="evenodd" d="M30 3.33325C29.264 3.33323 28.5371 3.49568 27.8711 3.80903C27.2052 4.12238 26.6166 4.57889 26.1474 5.14597C25.6782 5.71305 25.34 6.37671 25.157 7.08958C24.9739 7.80245 24.9505 8.54695 25.0884 9.26992L13.2317 16.1866C12.504 15.5701 11.6151 15.1745 10.6699 15.0467C9.7247 14.9189 8.76268 15.064 7.89731 15.4651C7.03194 15.8661 6.29933 16.5063 5.78591 17.3101C5.2725 18.1139 4.99969 19.0478 4.99969 20.0016C4.99969 20.9554 5.2725 21.8893 5.78591 22.6931C6.29933 23.4969 7.03194 24.1371 7.89731 24.5381C8.76268 24.9391 9.7247 25.0843 10.6699 24.9565C11.6151 24.8286 12.504 24.4331 13.2317 23.8166L25.0884 30.7299C24.8673 31.8885 25.0629 33.088 25.6407 34.1163C26.2184 35.1446 27.1411 35.9355 28.2457 36.3493C29.3502 36.7631 30.5655 36.7731 31.6767 36.3775C32.7879 35.9819 33.7234 35.2062 34.318 34.1875C34.9126 33.1689 35.1279 31.9728 34.9258 30.8107C34.7238 29.6486 34.1175 28.5954 33.214 27.8371C32.3105 27.0789 31.168 26.6645 29.9885 26.6671C28.809 26.6698 27.6684 27.0893 26.7684 27.8516L14.9117 20.9349C15.0291 20.3165 15.0291 19.6816 14.9117 19.0633L26.7684 12.1466C27.3823 12.6673 28.1129 13.032 28.898 13.2098C29.6832 13.3876 30.4996 13.3732 31.278 13.1678C32.0563 12.9624 32.7736 12.5721 33.3688 12.0301C33.964 11.4881 34.4195 10.8104 34.6967 10.0546C34.9738 9.29878 35.0644 8.48724 34.9606 7.68894C34.8569 6.89064 34.5619 6.1292 34.1008 5.46933C33.6397 4.80946 33.0261 4.27068 32.3122 3.89878C31.5982 3.52689 30.805 3.33288 30 3.33325Z" fill="url(#paint0_linear_265_908)"/>
<defs>
<linearGradient id="paint0_linear_265_908" x1="1.72478" y1="-6.48833" x2="41.5377" y2="-2.42896" gradientUnits="userSpaceOnUse">
<stop stopColor="#FFBC21"/>
<stop offset="0.1344" stopColor="#FD843A"/>
<stop offset="0.2742" stopColor="#FC5554"/>
<stop offset="0.4301" stopColor="#FC365F"/>
<stop offset="0.6129" stopColor="#F02E6B"/>
<stop offset="0.817759" stopColor="#DD3578"/>
<stop offset="1" stopColor="#81399D"/>
</linearGradient>
</defs>
</svg>
