<svg width="39" height="39" viewBox="0 0 39 39" fill="none" xmlns="http://www.w3.org/2000/svg">
<path d="M7.3125 29.25H9.75V31.6875H4.875V7.3125H2.4375V34.125H9.75V36.5625H0V4.875H4.875V2.4375H12.1875C13.3047 2.4375 14.3774 2.60889 15.4058 2.95166C16.4341 3.29443 17.3926 3.80859 18.2812 4.49414C19.1572 3.80859 20.1094 3.29443 21.1377 2.95166C22.166 2.60889 23.2451 2.4375 24.375 2.4375H31.6875V4.875H36.5625V20.4712L34.125 19.3667V7.3125H31.6875V18.2622L29.25 17.1387V4.875H24.375C23.4736 4.875 22.6104 5.02734 21.7852 5.33203C20.96 5.63672 20.1982 6.0874 19.5 6.68408V18.2622L17.0625 19.3667V6.68408C16.377 6.1001 15.6216 5.65576 14.7964 5.35107C13.9712 5.04639 13.1016 4.8877 12.1875 4.875H7.3125V29.25ZM34.125 34.106L25.5938 38.3906L17.0625 34.106C17.0625 33.6489 17.0688 33.1665 17.0815 32.6587C17.0942 32.1509 17.145 31.6367 17.2339 31.1162C17.3228 30.5957 17.4497 30.1069 17.6147 29.6499C17.7798 29.1929 18.0083 28.7676 18.3003 28.374L14.625 26.6982V37.7812H12.1875V25.5938L25.5938 19.5L39 25.5938L32.8872 28.374L33.0396 28.5835C33.3062 28.9771 33.5093 29.4023 33.6489 29.8594C33.7886 30.3164 33.8965 30.7798 33.9727 31.2495C34.0488 31.7192 34.0933 32.2017 34.106 32.6968C34.1187 33.1919 34.125 33.6616 34.125 34.106ZM25.5938 22.166L18.0718 25.5938L25.5938 29.0215L33.1157 25.5938L25.5938 22.166ZM25.5938 35.6675L31.6875 32.6016C31.6748 32.2715 31.6494 31.9731 31.6113 31.7065C31.5732 31.4399 31.5034 31.1797 31.4019 30.9258C31.3003 30.6719 31.1987 30.4243 31.0972 30.1831C30.9956 29.9419 30.8496 29.6753 30.6592 29.3833L25.5938 31.6875L20.5283 29.3833C20.3379 29.688 20.1855 29.9609 20.0713 30.2021C19.957 30.4434 19.8555 30.6846 19.7666 30.9258C19.6777 31.167 19.6206 31.4209 19.5952 31.6875C19.5698 31.9541 19.5444 32.2651 19.519 32.6206L25.5938 35.6675Z" fill="url(#paint0_linear_271_491)"/>
<defs>
<linearGradient id="paint0_linear_271_491" x1="-4.25702" y1="-8.15583" x2="47.2554" y2="-1.82587" gradientUnits="userSpaceOnUse">
<stop stopColor="#FFBC21"/>
<stop offset="0.1344" stopColor="#FD843A"/>
<stop offset="0.2742" stopColor="#FC5554"/>
<stop offset="0.4301" stopColor="#FC365F"/>
<stop offset="0.6129" stopColor="#F02E6B"/>
<stop offset="0.817759" stopColor="#DD3578"/>
<stop offset="1" stopColor="#81399D"/>
</linearGradient>
</defs>
</svg>
