<svg width="80" height="80" viewBox="0 0 80 80" fill="none" xmlns="http://www.w3.org/2000/svg">
<path d="M78.6667 68L73.3333 62.6667V11.6667C73.3333 11 73 10.3333 72.3333 10L49 0C48.6667 0 48 0 47.6667 0L25 10L2.33333 0C1.66667 0 1.33333 0 0.666667 0.333333C0.333333 0.666667 0 1 0 1.66667V68.3333C0 69 0.333333 69.6667 1 70L24.3333 80C24.6667 80 24.6667 80 25 80C25.3333 80 25.3333 80 25.6667 80L48.3333 70.3333L71 80C71.6667 80.3333 72 80 72.6667 80C73 79.6667 73.3333 79.3333 73.3333 78.6667V76.6667C73.6667 76.6667 74.3333 77 74.6667 77C76 77 77.3333 76.6667 78.3333 75.6667L78.6667 75.3333C80.3333 73 80.3333 69.6667 78.6667 68ZM23.3333 75.6667L3.33333 67V56.6667H23.3333V75.6667ZM23.3333 53.3333H3.33333V27.6667L23.3333 39.3333V53.3333ZM23.3333 35.3333L3.33333 23.6667V4.33333L23.3333 13V35.3333ZM50 4.33333L56.3333 7L54 13.3333C54 13.6667 53.6667 14 53.3333 14.3333L50 15.6667V4.33333ZM50 19.3333L54.6667 17C55.6667 16.6667 56.6667 15.6667 57 14.3333L59.3333 8L70 12.6667V48.6667L66.3333 46.6667C66.3333 46 66.6667 45.3333 66.6667 45C66.6667 35.3333 59.3333 27.6667 50 26.6667V19.3333ZM65.6667 60L62.3333 56.6667C64 54.6667 65 52.6667 65.6667 50.3333L70 52.6667V60C68.6667 59.3333 67 59.3333 65.6667 60ZM36.6667 8.33333L46.6667 4V17L39 20.6667C38.3333 21 37.6667 20.6667 37.3333 20.6667C37 20.6667 36.6667 20 36.6667 19.3333V8.33333ZM26.6667 12.6667L33.3333 10V19.6667C33.3333 21.3333 34.3333 23 35.6667 24C36.3333 24.3333 37.3333 24.6667 38.3333 24.6667C39 24.6667 40 24.3333 40.6667 24L46.6667 21V26.6667C40.3333 27.3333 34.6667 31 32 36.6667H26.6667V12.6667ZM26.6667 40H30.6667C30.3333 41.6667 30 43.3333 30 45C30 48 30.6667 50.6667 32 53.3333H26.6667V40ZM46.6667 67.3333L26.6667 76V56.6667H34.3333C37.3333 60.3333 41.6667 62.6667 46.6667 63.3333V67.3333ZM33.3333 45C33.3333 36.6667 40 30 48.3333 30C56.6667 30 63.3333 36.6667 63.3333 45C63.3333 53.3333 56.6667 60 48.3333 60C40 60 33.3333 53.3333 33.3333 45ZM70 75.6667L50 67V63.3333C53.6667 63 57.3333 61.3333 60 59L63.3333 62.3333C62.3333 64.3333 62.6667 66.6667 64 68L69.6667 73.6667V75.6667H70ZM76.3333 72.6667C75.3333 73.6667 74.3333 73.6667 73.6667 73L66.6667 66C66 65.3333 66 64.3333 66.6667 63.6667L67 63.3333C67.3333 63 67.6667 63 68.3333 63C69 63 69.3333 63 69.6667 63.3333L76.6667 70.3333C76.6667 71 76.6667 72 76.3333 72.6667Z" fill="url(#paint0_linear_48_1098)"/>
<defs>
<linearGradient id="paint0_linear_48_1098" x1="-8.21394" y1="-6.57779" x2="89.5082" y2="8.33832" gradientUnits="userSpaceOnUse">
<stop stopColor="#FC365F"/>
<stop offset="0.984375" stopColor="#A00BFB"/>
</linearGradient>
</defs>
</svg>
