<svg width="80" height="80" viewBox="0 0 80 80" fill="none" xmlns="http://www.w3.org/2000/svg">
<path d="M68.9413 12.3893L56.944 0.392C56.7026 0.149333 56.3693 0 56 0H17.3333C13.6573 0 10.6666 2.99067 10.6666 6.66667V64C10.6666 67.676 13.6573 70.6667 17.3333 70.6667H32V80H34.6666V70.6667H54.6666C55.4026 70.6667 56 70.0707 56 69.3333V62.6667C56 60.1867 57.7026 58.0947 60 57.5027V69.3333V80H62.6666V70.6667C66.3426 70.6667 69.3333 67.676 69.3333 64V13.3333C69.3333 12.964 69.184 12.6307 68.9413 12.3893ZM57.3333 4.552L64.7813 12H57.3333V4.552ZM66.6666 64C66.6666 66.2053 64.872 68 62.6666 68V56C62.6666 55.2627 62.0693 54.6667 61.3333 54.6667C56.9213 54.6667 53.3333 58.2547 53.3333 62.6667V68H17.3333C15.128 68 13.3333 66.2053 13.3333 64V6.66667C13.3333 4.46133 15.128 2.66667 17.3333 2.66667H54.6666V13.3333C54.6666 14.0707 55.264 14.6667 56 14.6667H66.6666V64Z" fill="black"/>
<path d="M37.3334 8H18.6667C17.9307 8 17.3334 8.596 17.3334 9.33333V28C17.3334 28.7373 17.9307 29.3333 18.6667 29.3333H24H32H37.3334C38.0694 29.3333 38.6667 28.7373 38.6667 28V9.33333C38.6667 8.596 38.0694 8 37.3334 8ZM30.6667 26.6667H25.3334V24C25.3334 22.5293 26.5294 21.3333 28 21.3333C29.4707 21.3333 30.6667 22.5293 30.6667 24V26.6667ZM26.6667 17.3333C26.6667 16.5973 27.2654 16 28 16C28.7347 16 29.3334 16.5973 29.3334 17.3333C29.3334 18.0693 28.7347 18.6667 28 18.6667C27.2654 18.6667 26.6667 18.0693 26.6667 17.3333ZM36 26.6667H33.3334V24C33.3334 22.252 32.4774 20.7133 31.1747 19.74C31.6854 19.068 32 18.24 32 17.3333C32 15.128 30.2054 13.3333 28 13.3333C25.7947 13.3333 24 15.128 24 17.3333C24 18.24 24.3147 19.068 24.8254 19.74C23.5227 20.7133 22.6667 22.252 22.6667 24V26.6667H20V10.6667H36V26.6667Z" fill="url(#paint0_linear_48_1133)"/>
<path d="M48 12H41.3334V14.6667H48V12Z" fill="black"/>
<path d="M49.3334 17.3335H41.3334V20.0002H49.3334V17.3335Z" fill="black"/>
<path d="M58.6667 17.3335H52V20.0002H58.6667V17.3335Z" fill="black"/>
<path d="M58.6667 22.6665H41.3334V25.3332H58.6667V22.6665Z" fill="black"/>
<path d="M34.6667 33.3335H24V36.0002H34.6667V33.3335Z" fill="black"/>
<path d="M45.3334 33.3335H37.3334V36.0002H45.3334V33.3335Z" fill="black"/>
<path d="M61.3333 33.3335H48V36.0002H61.3333V33.3335Z" fill="black"/>
<path d="M29.3333 38.6665H18.6666V41.3332H29.3333V38.6665Z" fill="black"/>
<path d="M53.3333 38.6665H32V41.3332H53.3333V38.6665Z" fill="black"/>
<path d="M61.3333 38.6665H56V41.3332H61.3333V38.6665Z" fill="url(#paint1_linear_48_1133)"/>
<path d="M24 44H18.6666V46.6667H24V44Z" fill="black"/>
<path d="M42.6666 44H26.6666V46.6667H42.6666V44Z" fill="url(#paint2_linear_48_1133)"/>
<path d="M61.3334 44H45.3334V46.6667H61.3334V44Z" fill="black"/>
<path d="M24 49.3335H18.6666V52.0002H24V49.3335Z" fill="black"/>
<path d="M42.6666 49.3335H26.6666V52.0002H42.6666V49.3335Z" fill="black"/>
<path d="M61.3334 49.3335H45.3334V52.0002H61.3334V49.3335Z" fill="url(#paint3_linear_48_1133)"/>
<path d="M30.6666 54.6665H18.6666V57.3332H30.6666V54.6665Z" fill="url(#paint4_linear_48_1133)"/>
<path d="M52 54.6665H33.3334V57.3332H52V54.6665Z" fill="black"/>
<path d="M24 60H18.6666V62.6667H24V60Z" fill="black"/>
<path d="M49.3333 60H26.6666V62.6667H49.3333V60Z" fill="black"/>
<defs>
<linearGradient id="paint0_linear_48_1133" x1="15.1407" y1="6.24917" x2="41.2237" y2="10.2419" gradientUnits="userSpaceOnUse">
<stop stopColor="#FC365F"/>
<stop offset="0.984375" stopColor="#A00BFB"/>
</linearGradient>
<linearGradient id="paint1_linear_48_1133" x1="55.4518" y1="38.4476" x2="61.5535" y2="40.3157" gradientUnits="userSpaceOnUse">
<stop stopColor="#FC365F"/>
<stop offset="0.984375" stopColor="#A00BFB"/>
</linearGradient>
<linearGradient id="paint2_linear_48_1133" x1="25.0221" y1="43.7811" x2="35.8816" y2="53.7554" gradientUnits="userSpaceOnUse">
<stop stopColor="#FC365F"/>
<stop offset="0.984375" stopColor="#A00BFB"/>
</linearGradient>
<linearGradient id="paint3_linear_48_1133" x1="43.6889" y1="49.1146" x2="54.5484" y2="59.0889" gradientUnits="userSpaceOnUse">
<stop stopColor="#FC365F"/>
<stop offset="0.984375" stopColor="#A00BFB"/>
</linearGradient>
<linearGradient id="paint4_linear_48_1133" x1="17.4333" y1="54.4476" x2="27.6165" y2="61.4625" gradientUnits="userSpaceOnUse">
<stop stopColor="#FC365F"/>
<stop offset="0.984375" stopColor="#A00BFB"/>
</linearGradient>
</defs>
</svg>
