<svg width="58" height="80" viewBox="0 0 58 80" fill="none" xmlns="http://www.w3.org/2000/svg">
<path d="M5.63981 47.5443H52.3628C54.5741 47.5443 56.3828 45.7355 56.3828 43.5243V4.01994C56.3828 1.80872 54.5728 0 52.3616 0H5.63981C3.4286 0 1.61987 1.80872 1.61987 4.01994V43.5243C1.61987 45.7355 3.4286 47.5443 5.63981 47.5443ZM4.11983 4.01994C4.11858 3.1962 4.81482 2.49996 5.63981 2.49996H52.3616C53.1853 2.49996 53.8816 3.1962 53.8816 4.01994V43.5243C53.8816 44.3481 53.1853 45.0443 52.3616 45.0443H5.63981C4.81607 45.0443 4.11983 44.3481 4.11983 43.5243V4.01994Z" fill="black"/>
<path d="M20.9531 11.585V35.9608L42.064 23.7723L20.9531 11.585ZM23.4531 15.9161L37.0641 23.7723L23.4531 31.6296V15.9161Z" fill="url(#paint0_linear_48_1227)"/>
<path d="M7.73594 65.4404C3.716 65.4404 0.456055 68.6991 0.456055 72.7203C0.456055 76.7403 3.71475 80.0002 7.73594 80.0002C11.7571 80.0002 15.0158 76.7415 15.0158 72.7203H7.73594V65.4404Z" fill="black"/>
<path d="M9.23706 63.939V71.2189H16.5169C16.5169 67.1977 13.2582 63.939 9.23706 63.939Z" fill="url(#paint1_linear_48_1227)"/>
<path d="M57.5439 67.749H21.9795V70.249H57.5439V67.749Z" fill="black"/>
<path d="M57.5439 73.729H21.9795V76.229H57.5439V73.729Z" fill="black"/>
<defs>
<linearGradient id="paint0_linear_48_1227" x1="18.7833" y1="9.58442" x2="44.7429" y2="13.0261" gradientUnits="userSpaceOnUse">
<stop stopColor="#FC365F"/>
<stop offset="0.984375" stopColor="#A00BFB"/>
</linearGradient>
<linearGradient id="paint1_linear_48_1227" x1="8.48882" y1="63.3415" x2="17.3895" y2="64.704" gradientUnits="userSpaceOnUse">
<stop stopColor="#FC365F"/>
<stop offset="0.984375" stopColor="#A00BFB"/>
</linearGradient>
</defs>
</svg>
