<svg width="60" height="60" viewBox="0 0 60 60" fill="none" xmlns="http://www.w3.org/2000/svg">
<path d="M19.1667 13.3333C19.1667 11.9526 18.0474 10.8333 16.6667 10.8333C15.286 10.8333 14.1667 11.9526 14.1667 13.3333H19.1667ZM16.6667 23.3333H14.1667C14.1667 24.7139 15.286 25.8333 16.6667 25.8333V23.3333ZM26.6667 25.8333C28.0474 25.8333 29.1667 24.7139 29.1667 23.3333C29.1667 21.9526 28.0474 20.8333 26.6667 20.8333V25.8333ZM19.7804 33.5996C19.3215 32.2976 17.8939 31.6139 16.5917 32.0726C15.2894 32.5316 14.6057 33.9589 15.0645 35.2612L19.7804 33.5996ZM14.1667 13.3333V23.3333H19.1667V13.3333H14.1667ZM16.6667 25.8333H26.6667V20.8333H16.6667V25.8333ZM15.0645 35.2612C16.2053 38.4989 18.3675 41.2783 21.2253 43.1802L23.9957 39.0179C22.0403 37.7166 20.5609 35.8149 19.7804 33.5996L15.0645 35.2612ZM21.2253 43.1802C24.083 45.0826 27.4817 46.0043 30.909 45.8073L30.6217 40.8153C28.2764 40.9503 25.951 40.3196 23.9957 39.0179L21.2253 43.1802ZM30.909 45.8073C34.336 45.6099 37.6064 44.3043 40.227 42.0869L36.9977 38.2699C35.2044 39.7869 32.9667 40.6803 30.6217 40.8153L30.909 45.8073ZM40.227 42.0869C42.8477 39.8696 44.6767 36.8606 45.4387 33.5133L40.5634 32.4036C40.042 34.6939 38.7907 36.7526 36.9977 38.2699L40.227 42.0869ZM45.4387 33.5133C46.2004 30.1659 45.8537 26.6619 44.4507 23.5289L39.8874 25.5726C40.8474 27.7159 41.0844 30.1136 40.5634 32.4036L45.4387 33.5133ZM44.4507 23.5289C43.0474 20.3959 40.664 17.8037 37.6597 16.143L35.2407 20.5189C37.2967 21.6553 38.9274 23.4289 39.8874 25.5726L44.4507 23.5289ZM37.6597 16.143C34.6554 14.4822 31.1924 13.8428 27.793 14.321L28.4897 19.2723C30.8157 18.945 33.185 19.3825 35.2407 20.5189L37.6597 16.143ZM27.793 14.321C24.995 14.7147 22.6658 15.9303 20.6631 17.2678C19.6639 17.935 18.7118 18.6567 17.8205 19.3406C16.9098 20.0394 16.0747 20.6893 15.2221 21.2929L18.1113 25.3736C19.0632 24.6996 19.996 23.9736 20.8644 23.3073C21.7522 22.6261 22.5902 21.9932 23.44 21.4257C25.135 20.2937 26.7387 19.5186 28.4897 19.2723L27.793 14.321ZM16.6667 5.83325H43.3334V0.833252H16.6667V5.83325ZM54.1667 16.6666V43.3332H59.1667V16.6666H54.1667ZM43.3334 54.1666H16.6667V59.1666H43.3334V54.1666ZM5.83337 43.3332V16.6666H0.833374V43.3332H5.83337ZM16.6667 54.1666C10.6836 54.1666 5.83337 49.3162 5.83337 43.3332H0.833374C0.833374 52.0779 7.92221 59.1666 16.6667 59.1666V54.1666ZM54.1667 43.3332C54.1667 49.3162 49.3164 54.1666 43.3334 54.1666V59.1666C52.078 59.1666 59.1667 52.0779 59.1667 43.3332H54.1667ZM43.3334 5.83325C49.3164 5.83325 54.1667 10.6835 54.1667 16.6666H59.1667C59.1667 7.92209 52.078 0.833252 43.3334 0.833252V5.83325ZM16.6667 0.833252C7.92221 0.833252 0.833374 7.92209 0.833374 16.6666H5.83337C5.83337 10.6835 10.6836 5.83325 16.6667 5.83325V0.833252Z" fill="url(#paint0_linear_48_1272)"/>
<defs>
<linearGradient id="paint0_linear_48_1272" x1="-5.1622" y1="-3.95419" x2="66.1584" y2="6.96358" gradientUnits="userSpaceOnUse">
<stop stop-color="#FC365F"/>
<stop offset="0.984375" stop-color="#A00BFB"/>
</linearGradient>
</defs>
</svg>
