<svg width="72" height="72" viewBox="0 0 72 72" fill="none" xmlns="http://www.w3.org/2000/svg">
<path d="M69.3333 7.56847V64.4312C69.3333 65.7312 68.8167 66.9782 67.8973 67.8975C66.9783 68.8168 65.7313 69.3332 64.4313 69.3332H7.56853C6.26843 69.3332 5.0216 68.8168 4.1023 67.8975C3.18303 66.9782 2.66656 65.7312 2.66656 64.4312V7.56847C2.66656 6.26837 3.18303 5.02154 4.1023 4.10227C5.0216 3.18297 6.26843 2.6665 7.56853 2.6665H64.4313C65.7313 2.6665 66.9783 3.18297 67.8973 4.10227C68.8167 5.02154 69.3333 6.26837 69.3333 7.56847ZM22.2744 28.1567H12.4705V59.5292H22.2744V28.1567ZM23.1568 17.3724C23.1619 16.6308 23.021 15.8955 22.7419 15.2083C22.4629 14.5212 22.0513 13.8958 21.5305 13.3678C21.0098 12.8398 20.3902 12.4195 19.707 12.1309C19.0238 11.8424 18.2905 11.6912 17.5489 11.6861H17.3724C15.8644 11.6861 14.418 12.2852 13.3516 13.3516C12.2853 14.418 11.6862 15.8643 11.6862 17.3724C11.6862 18.8805 12.2853 20.3268 13.3516 21.3932C14.418 22.4596 15.8644 23.0587 17.3724 23.0587C18.1141 23.0769 18.8521 22.9488 19.5442 22.6818C20.2363 22.4147 20.869 22.0139 21.4062 21.5022C21.9434 20.9906 22.3745 20.378 22.6748 19.6997C22.9752 19.0214 23.139 18.2905 23.1568 17.5489V17.3724ZM59.5293 40.4705C59.5293 31.0392 53.5293 27.3724 47.5687 27.3724C45.617 27.2747 43.6737 27.6903 41.9327 28.578C40.192 29.4655 38.714 30.7942 37.647 32.4312H37.3723V28.1567H28.1568V59.5292H37.9607V42.8428C37.819 41.1342 38.3573 39.4382 39.4587 38.1238C40.56 36.8095 42.1357 35.9828 43.843 35.8235H44.2157C47.3333 35.8235 49.647 37.7842 49.647 42.7252V59.5292H59.451L59.5293 40.4705Z" stroke="black" stroke-width="4" stroke-linejoin="round"/>
</svg>
