<svg width="80" height="80" viewBox="0 0 80 80" fill="none" xmlns="http://www.w3.org/2000/svg">
<path d="M62.8571 38.3673H54.9507L54.7854 36.7641C54.5486 34.4669 52.6285 32.7347 50.3194 32.7347H49.2246V28.9795H51.03C53.2486 28.9795 55.1132 27.3897 55.4635 25.1991L56.4364 19.1189C56.4682 18.9198 56.6375 18.7755 56.8394 18.7755H62.6125C64.1879 18.7755 65.4697 17.4937 65.4697 15.9183V2.85719C65.4693 1.28172 64.1875 0 62.6121 0H25.2244C23.6491 0 22.3672 1.28172 22.3672 2.85719V15.9184C22.3672 17.4937 23.6489 18.7756 25.2244 18.7756H30.9975C31.1991 18.7756 31.3686 18.9202 31.4005 19.1194L32.3735 25.1992C32.7238 27.3898 34.5883 28.9798 36.8068 28.9798H38.6122V32.735H37.4358C35.1266 32.735 33.2066 34.4672 32.9697 36.7644L32.8046 38.3677H32.4083V37.9595C32.4083 36.3842 31.1266 35.1023 29.5511 35.1023H23.0205C21.4452 35.1023 20.1633 36.3841 20.1633 37.9595V38.3677H17.1429C12.8668 38.3677 9.3877 41.8467 9.3877 46.1228V75.5106C9.3877 77.9859 11.4019 80 13.8774 80H66.1222C68.5979 80 70.6121 77.9859 70.6121 75.5102V46.1225C70.6121 41.8464 67.1332 38.3673 62.8571 38.3673ZM36.8068 26.5306C35.7985 26.5306 34.9508 25.808 34.7918 24.8123L33.8188 18.7323C33.5957 17.3384 32.4091 16.3266 30.9975 16.3266H25.2243C24.9991 16.3266 24.8161 16.1434 24.8161 15.9184V2.85719C24.8161 2.63219 24.9991 2.44906 25.2243 2.44906H62.6121C62.8372 2.44906 63.0202 2.63219 63.0202 2.85719V15.9184C63.0202 16.1434 62.8372 16.3266 62.6121 16.3266H56.8389C55.4272 16.3266 54.2405 17.3383 54.0177 18.7323L53.0447 24.8123C52.8855 25.8081 52.038 26.5306 51.0296 26.5306H36.8068ZM46.7754 28.9795V32.7347H41.0611V28.9795H46.7754ZM33.8883 48.9723L34.2047 48.6628L35.4054 37.0153C35.5132 35.9711 36.386 35.1836 37.4355 35.1836H50.3191C51.3688 35.1836 52.2414 35.9709 52.3493 37.0152L53.5499 48.6628L53.8663 48.9723C56.6371 51.6831 58.163 55.3097 58.163 59.1836C58.163 67.0608 51.7546 73.4694 43.8772 73.4694C35.9999 73.4694 29.5914 67.0609 29.5914 59.1836C29.5918 55.3097 31.1177 51.6833 33.8883 48.9723ZM58.5629 67.2012C59.3172 67.7234 59.7958 68.5936 59.7958 69.5509C59.7958 71.1263 58.5141 72.4081 56.9386 72.4081C56.2133 72.4081 55.5311 72.1355 55.0138 71.6633C56.4355 70.3933 57.6399 68.885 58.5629 67.2012ZM22.6121 37.9592C22.6121 37.7342 22.795 37.5511 23.0202 37.5511H29.5508C29.776 37.5511 29.9589 37.7342 29.9589 37.9592V38.3673H22.6121V37.9592ZM68.1632 48.5714V75.5102C68.1632 76.6355 67.2477 77.5509 66.1224 77.5509H13.8774C12.7519 77.5509 11.8366 76.6355 11.8366 75.5102V48.5714H29.8432V46.1225H11.8366C11.8366 43.1967 14.2169 40.8164 17.1427 40.8164H32.5516L31.8583 47.5405C28.8139 50.6787 27.1425 54.7956 27.1425 59.1838C27.1425 68.4114 34.6496 75.9184 43.8772 75.9184C47.2649 75.9184 50.4199 74.9056 53.0575 73.1684C54.0466 74.2314 55.4427 74.8572 56.9385 74.8572C59.8644 74.8572 62.2446 72.4767 62.2446 69.5511C62.2446 67.6225 61.1989 65.883 59.5864 64.9536C60.2494 63.1542 60.6119 61.2106 60.6119 59.1838C60.6119 54.7956 58.9407 50.6787 55.8961 47.5405L55.2029 40.8164H62.8568C65.7827 40.8164 68.1629 43.1969 68.1629 46.1225H57.9114V48.5714H68.1632Z" fill="black"/>
<path d="M43.8775 47.3469C37.3506 47.3469 32.0408 52.6568 32.0408 59.1836C32.0408 65.7105 37.3506 71.0204 43.8775 71.0204C50.4044 71.0204 55.7142 65.7105 55.7142 59.1836C55.7142 52.6568 50.4044 47.3469 43.8775 47.3469ZM43.8775 68.5715C38.7009 68.5715 34.4897 64.3602 34.4897 59.1836C34.4897 54.0071 38.7009 49.7958 43.8775 49.7958C49.0541 49.7958 53.2653 54.0071 53.2653 59.1836C53.2653 64.3602 49.0541 68.5715 43.8775 68.5715Z" fill="black"/>
<path d="M43.8775 52.2449C40.0514 52.2449 36.9387 55.3575 36.9387 59.1836C36.9387 63.0097 40.0514 66.1224 43.8775 66.1224C47.7036 66.1224 50.8162 63.0097 50.8162 59.1836C50.8162 55.3575 47.7037 52.2449 43.8775 52.2449ZM43.8775 63.6735C41.4018 63.6735 39.3876 61.6594 39.3876 59.1836C39.3876 56.7078 41.4018 54.6938 43.8775 54.6938C46.3531 54.6938 48.3673 56.7078 48.3673 59.1836C48.3673 61.6594 46.3531 63.6735 43.8775 63.6735Z" fill="#A00BFB"/>
<path d="M48.5305 36.2327H39.2244C37.6491 36.2327 36.3672 37.5144 36.3672 39.0899V41.5634C36.3672 43.1388 37.6489 44.4206 39.2244 44.4206H48.5305C50.1058 44.4206 51.3877 43.1389 51.3877 41.5634V39.0899C51.3877 37.5144 50.1058 36.2327 48.5305 36.2327ZM48.9386 41.5633C48.9386 41.7883 48.7556 41.9714 48.5305 41.9714H39.2244C38.9992 41.9714 38.8162 41.7883 38.8162 41.5633V39.0897C38.8162 38.8647 38.9992 38.6816 39.2244 38.6816H48.5305C48.7556 38.6816 48.9386 38.8647 48.9386 39.0897V41.5633Z" fill="black"/>
<path d="M18.7754 51.0205C16.6598 51.0205 14.9387 52.7416 14.9387 54.8572V69.7144C14.9387 71.83 16.6598 73.5511 18.7754 73.5511C20.8911 73.5511 22.6122 71.83 22.6122 69.7144V54.8572C22.6122 52.7416 20.8911 51.0205 18.7754 51.0205ZM20.1633 69.7143C20.1633 70.4794 19.5406 71.1021 18.7754 71.1021C18.0103 71.1021 17.3876 70.4796 17.3876 69.7143V54.8571C17.3876 54.0919 18.0101 53.4693 18.7754 53.4693C19.5404 53.4693 20.1633 54.0918 20.1633 54.8571V69.7143Z" fill="black"/>
<path d="M58.612 3.91479H29.2244C27.6491 3.91479 26.3672 5.19651 26.3672 6.77198V12.0039C26.3672 13.5792 27.6489 14.861 29.2244 14.861H58.6122C60.1875 14.8609 61.4694 13.5793 61.4694 12.0037V6.77183C61.4692 5.19651 60.1875 3.91479 58.612 3.91479ZM59.0203 12.0037C59.0203 12.2287 58.8373 12.4118 58.6122 12.4118H29.2244C28.9992 12.4117 28.8162 12.2287 28.8162 12.0035V6.77183C28.8162 6.54683 28.9992 6.3637 29.2244 6.3637H58.6122C58.8373 6.3637 59.0203 6.54683 59.0203 6.77183V12.0037Z" fill="black"/>
<path d="M48 8.16333H39.8367V10.6122H48V8.16333Z" fill="url(#paint0_linear_48_1235)"/>
<defs>
<linearGradient id="paint0_linear_48_1235" x1="38.9976" y1="7.96235" x2="47.102" y2="12.0979" gradientUnits="userSpaceOnUse">
<stop stopColor="#FC365F"/>
<stop offset="0.984375" stopColor="#A00BFB"/>
</linearGradient>
</defs>
</svg>
