<svg width="80" height="80" viewBox="0 0 80 80" fill="none" xmlns="http://www.w3.org/2000/svg">
<path d="M79.3631 53.7359H0.637173C0.555113 53.7359 0.473846 53.7198 0.398019 53.6884C0.322192 53.6571 0.253292 53.6111 0.19526 53.553C0.137227 53.495 0.0912006 53.4261 0.0598119 53.3503C0.0284232 53.2745 0.0122881 53.1932 0.0123292 53.1112C0.0122881 53.0291 0.0284221 52.9478 0.0598089 52.872C0.0911957 52.7962 0.13722 52.7273 0.19525 52.6692C0.25328 52.6112 0.322179 52.5652 0.398007 52.5338C0.473835 52.5024 0.555106 52.4863 0.637173 52.4863H79.3631C79.4452 52.4863 79.5264 52.5024 79.6022 52.5338C79.6781 52.5652 79.747 52.6112 79.805 52.6693C79.863 52.7273 79.909 52.7962 79.9404 52.872C79.9717 52.9478 79.9879 53.0291 79.9878 53.1112C79.9878 53.1932 79.9717 53.2745 79.9403 53.3503C79.909 53.4261 79.8629 53.495 79.8049 53.553C79.7469 53.611 79.678 53.657 79.6022 53.6884C79.5264 53.7198 79.4452 53.7359 79.3631 53.7359ZM40 59.9816C38.6222 59.9816 37.5008 58.8613 37.5008 57.4824C37.5008 56.1035 38.6222 54.9832 40 54.9832C41.3778 54.9832 42.4994 56.1035 42.4994 57.4824C42.4994 58.8613 41.3778 59.9816 40 59.9816ZM40 56.2329C39.3105 56.2329 38.7503 56.7941 38.7503 57.4824C38.7503 58.1707 39.3105 58.732 40 58.732C40.6894 58.732 41.2497 58.1707 41.2497 57.4824C41.2497 56.7941 40.6894 56.2329 40 56.2329ZM29.3856 76.229C29.2921 76.2288 29.1998 76.2077 29.1156 76.1672C29.0313 76.1267 28.9572 76.0678 28.8986 75.9949C28.8401 75.922 28.7986 75.8369 28.7773 75.7459C28.756 75.6548 28.7554 75.5602 28.7755 75.4688L31.2747 64.2223C31.3492 63.8866 31.6811 63.6766 32.0203 63.7474C32.182 63.7836 32.3228 63.8824 32.4118 64.0221C32.5008 64.1619 32.5308 64.3312 32.4951 64.493L29.9959 75.7396C29.965 75.8784 29.8877 76.0026 29.7767 76.0915C29.6658 76.1805 29.5278 76.229 29.3856 76.229ZM50.6144 76.229C50.4722 76.229 50.3343 76.1805 50.2234 76.0915C50.1125 76.0025 50.0352 75.8784 50.0044 75.7396L47.5053 64.493C47.4696 64.3313 47.4995 64.1619 47.5884 64.0221C47.6774 63.8824 47.8181 63.7836 47.9798 63.7474C48.3217 63.6766 48.6509 63.8866 48.7253 64.2223L51.2247 75.4688C51.2448 75.5602 51.2442 75.6549 51.2228 75.7459C51.2015 75.837 51.1601 75.9221 51.1015 75.995C51.043 76.068 50.9688 76.1268 50.8845 76.1673C50.8002 76.2078 50.7079 76.2289 50.6144 76.229Z" fill="url(#paint0_linear_48_1082)"/>
<path d="M52.4964 76.2289H27.5039C27.4219 76.229 27.3406 76.2128 27.2647 76.1815C27.1889 76.1501 27.12 76.1041 27.062 76.046C27.0039 75.988 26.9579 75.9191 26.9265 75.8433C26.8951 75.7674 26.879 75.6861 26.8791 75.6041C26.879 75.522 26.8952 75.4407 26.9266 75.3649C26.958 75.2891 27.004 75.2202 27.062 75.1622C27.12 75.1042 27.1889 75.0582 27.2648 75.0268C27.3406 74.9954 27.4219 74.9793 27.5039 74.9794H52.4964C52.5785 74.9793 52.6597 74.9955 52.7355 75.0268C52.8113 75.0582 52.8802 75.1042 52.9382 75.1622C52.9963 75.2203 53.0423 75.2891 53.0736 75.365C53.105 75.4408 53.1212 75.522 53.1211 75.6041C53.1212 75.6861 53.1051 75.7674 53.0737 75.8432C53.0423 75.919 52.9963 75.9879 52.9383 76.046C52.8803 76.104 52.8114 76.15 52.7356 76.1814C52.6598 76.2128 52.5785 76.2289 52.4964 76.2289ZM75.6141 50.0066H4.38595C4.30389 50.0066 4.22261 49.9905 4.14679 49.9591C4.07096 49.9277 4.00206 49.8817 3.94403 49.8236C3.886 49.7656 3.83998 49.6967 3.80859 49.6209C3.7772 49.5451 3.76107 49.4638 3.76111 49.3817V8.14438C3.76107 8.06231 3.7772 7.98104 3.80859 7.90521C3.83998 7.82938 3.886 7.76048 3.94403 7.70245C4.00206 7.64442 4.07096 7.5984 4.14679 7.56701C4.22261 7.53562 4.30389 7.51949 4.38595 7.51953H75.6141C75.9596 7.51953 76.2391 7.79906 76.2391 8.14438V49.3817C76.2391 49.4638 76.223 49.5451 76.1916 49.6209C76.1602 49.6968 76.1142 49.7657 76.0561 49.8237C75.9981 49.8817 75.9291 49.9277 75.8533 49.9591C75.7775 49.9905 75.6962 50.0066 75.6141 50.0066ZM5.0108 48.7569H74.9894V8.76922H5.0108V48.7569Z" fill="black"/>
<path d="M75.614 62.503H4.38592C1.97452 62.503 0.0123291 60.5407 0.0123291 58.1294V8.14459C0.0123291 5.73318 1.97467 3.771 4.38592 3.771H75.614C78.0256 3.771 79.9878 5.73334 79.9878 8.14459V58.1293C79.9878 60.5407 78.0255 62.503 75.614 62.503ZM4.38592 5.02053C2.6628 5.02053 1.26186 6.42209 1.26186 8.14459V58.1293C1.26186 59.8522 2.6628 61.2532 4.38592 61.2532H75.614C77.3373 61.2532 78.7381 59.8522 78.7381 58.1293V8.14459C78.7381 6.42209 77.3373 5.02053 75.614 5.02053H4.38592Z" fill="black"/>
<path d="M75.614 64.9825H4.38592C1.93311 64.9825 0.0123292 63.0617 0.0123292 60.6089V58.1097C0.0122881 58.0276 0.0284221 57.9464 0.0598089 57.8705C0.0911957 57.7947 0.13722 57.7258 0.19525 57.6678C0.25328 57.6097 0.322179 57.5637 0.398007 57.5323C0.473835 57.5009 0.555106 57.4848 0.637173 57.4848C0.71924 57.4848 0.800511 57.5009 0.876339 57.5323C0.952167 57.5637 1.02107 57.6097 1.0791 57.6678C1.13713 57.7258 1.18315 57.7947 1.21454 57.8705C1.24592 57.9464 1.26206 58.0276 1.26202 58.1097V60.6089C1.26202 62.3613 2.63374 63.7328 4.38608 63.7328H75.6142C77.3669 63.7328 78.7383 62.3613 78.7383 60.6089V58.1292C78.7382 58.0471 78.7544 57.9659 78.7858 57.89C78.8172 57.8142 78.8632 57.7453 78.9212 57.6872C78.9793 57.6292 79.0482 57.5832 79.1241 57.5518C79.1999 57.5204 79.2812 57.5043 79.3633 57.5044C79.4453 57.5043 79.5266 57.5205 79.6024 57.5519C79.6782 57.5832 79.7471 57.6293 79.8051 57.6873C79.8632 57.7453 79.9092 57.8142 79.9405 57.8901C79.9719 57.9659 79.988 58.0472 79.988 58.1292V60.6089C79.9878 63.0617 78.067 64.9825 75.614 64.9825ZM6.88514 50.0066C6.80307 50.0066 6.7218 49.9905 6.64598 49.9591C6.57015 49.9277 6.50125 49.8817 6.44322 49.8236C6.38519 49.7656 6.33916 49.6967 6.30778 49.6209C6.27639 49.5451 6.26026 49.4638 6.2603 49.3817V8.14438C6.26026 8.06231 6.27639 7.98104 6.30778 7.90521C6.33916 7.82938 6.38519 7.76048 6.44322 7.70245C6.50125 7.64442 6.57015 7.5984 6.64598 7.56701C6.7218 7.53562 6.80307 7.51949 6.88514 7.51953C6.96721 7.51949 7.04848 7.53562 7.12431 7.56701C7.20014 7.5984 7.26903 7.64442 7.32706 7.70245C7.3851 7.76048 7.43112 7.82938 7.46251 7.90521C7.49389 7.98104 7.51003 8.06231 7.50999 8.14438V49.3817C7.51003 49.4638 7.49389 49.5451 7.46251 49.6209C7.43112 49.6967 7.3851 49.7656 7.32706 49.8236C7.26903 49.8817 7.20014 49.9277 7.12431 49.9591C7.04848 49.9905 6.96721 50.0066 6.88514 50.0066Z" fill="url(#paint1_linear_48_1082)"/>
<path d="M5.63564 12.5182H4.38595C4.04064 12.5182 3.76111 12.2389 3.76111 11.8934C3.76111 11.5479 4.04064 11.2686 4.38595 11.2686H5.63564C5.98095 11.2686 6.26048 11.5479 6.26048 11.8934C6.26048 12.2389 5.98095 12.5182 5.63564 12.5182ZM5.63564 16.2671H4.38595C4.04064 16.2671 3.76111 15.9876 3.76111 15.6423C3.76111 15.297 4.04064 15.0175 4.38595 15.0175H5.63564C5.98095 15.0175 6.26048 15.297 6.26048 15.6423C6.26048 15.9876 5.98095 16.2671 5.63564 16.2671ZM5.63564 20.0161H4.38595C4.04064 20.0161 3.76111 19.7367 3.76111 19.3912C3.76111 19.0457 4.04064 18.7664 4.38595 18.7664H5.63564C5.98095 18.7664 6.26048 19.0457 6.26048 19.3912C6.26048 19.7367 5.98095 20.0161 5.63564 20.0161ZM5.63564 23.765H4.38595C4.04064 23.765 3.76111 23.4854 3.76111 23.1401C3.76111 22.7948 4.04064 22.5153 4.38595 22.5153H5.63564C5.98095 22.5153 6.26048 22.7948 6.26048 23.1401C6.26048 23.4854 5.98095 23.765 5.63564 23.765ZM5.63564 27.5137H4.38595C4.04064 27.5137 3.76111 27.2343 3.76111 26.8889C3.76111 26.5434 4.04064 26.264 4.38595 26.264H5.63564C5.98095 26.264 6.26048 26.5434 6.26048 26.8889C6.26048 27.2343 5.98095 27.5137 5.63564 27.5137ZM5.63564 31.2626H4.38595C4.30389 31.2627 4.22261 31.2465 4.14679 31.2151C4.07096 31.1838 4.00206 31.1377 3.94403 31.0797C3.886 31.0217 3.83998 30.9528 3.80859 30.8769C3.7772 30.8011 3.76107 30.7198 3.76111 30.6378C3.76107 30.5557 3.7772 30.4744 3.80859 30.3986C3.83998 30.3228 3.886 30.2539 3.94403 30.1959C4.00206 30.1378 4.07096 30.0918 4.14679 30.0604C4.22261 30.029 4.30389 30.0129 4.38595 30.0129H5.63564C5.71771 30.0129 5.79898 30.029 5.87481 30.0604C5.95063 30.0918 6.01953 30.1378 6.07756 30.1959C6.13559 30.2539 6.18162 30.3228 6.213 30.3986C6.24439 30.4744 6.26052 30.5557 6.26048 30.6378C6.2605 30.7198 6.24436 30.8011 6.21296 30.8769C6.18157 30.9527 6.13554 31.0216 6.07752 31.0797C6.01949 31.1377 5.9506 31.1837 5.87478 31.2151C5.79896 31.2465 5.7177 31.2626 5.63564 31.2626ZM5.63564 35.0114H4.38595C4.30389 35.0114 4.22261 34.9953 4.14679 34.9639C4.07096 34.9325 4.00206 34.8865 3.94403 34.8284C3.886 34.7704 3.83998 34.7015 3.80859 34.6257C3.7772 34.5499 3.76107 34.4686 3.76111 34.3865C3.76107 34.3045 3.7772 34.2232 3.80859 34.1474C3.83998 34.0715 3.886 34.0026 3.94403 33.9446C4.00206 33.8866 4.07096 33.8405 4.14679 33.8092C4.22261 33.7778 4.30389 33.7616 4.38595 33.7617H5.63564C5.71771 33.7616 5.79898 33.7778 5.87481 33.8092C5.95063 33.8405 6.01953 33.8866 6.07756 33.9446C6.13559 34.0026 6.18162 34.0715 6.213 34.1474C6.24439 34.2232 6.26052 34.3045 6.26048 34.3865C6.26052 34.4686 6.24439 34.5499 6.213 34.6257C6.18162 34.7015 6.13559 34.7704 6.07756 34.8284C6.01953 34.8865 5.95063 34.9325 5.87481 34.9639C5.79898 34.9953 5.71771 35.0114 5.63564 35.0114ZM5.63564 38.7603H4.38595C4.30389 38.7603 4.22261 38.7442 4.14679 38.7128C4.07096 38.6814 4.00206 38.6354 3.94403 38.5774C3.886 38.5193 3.83998 38.4504 3.80859 38.3746C3.7772 38.2988 3.76107 38.2175 3.76111 38.1354C3.76107 38.0534 3.7772 37.9721 3.80859 37.8963C3.83998 37.8204 3.886 37.7515 3.94403 37.6935C4.00206 37.6355 4.07096 37.5895 4.14679 37.5581C4.22261 37.5267 4.30389 37.5105 4.38595 37.5106H5.63564C5.71771 37.5105 5.79898 37.5267 5.87481 37.5581C5.95063 37.5895 6.01953 37.6355 6.07756 37.6935C6.13559 37.7515 6.18162 37.8204 6.213 37.8963C6.24439 37.9721 6.26052 38.0534 6.26048 38.1354C6.2605 38.2175 6.24436 38.2988 6.21296 38.3746C6.18157 38.4504 6.13554 38.5193 6.07752 38.5773C6.01949 38.6353 5.9506 38.6814 5.87478 38.7128C5.79896 38.7441 5.7177 38.7603 5.63564 38.7603ZM5.63564 42.5092H4.38595C4.30389 42.5092 4.22261 42.4931 4.14679 42.4617C4.07096 42.4303 4.00206 42.3843 3.94403 42.3263C3.886 42.2682 3.83998 42.1993 3.80859 42.1235C3.7772 42.0477 3.76107 41.9664 3.76111 41.8843C3.76107 41.8023 3.7772 41.721 3.80859 41.6452C3.83998 41.5694 3.88601 41.5005 3.94404 41.4425C4.00207 41.3845 4.07097 41.3384 4.1468 41.3071C4.22263 41.2757 4.30389 41.2596 4.38595 41.2596H5.63564C5.7177 41.2596 5.79897 41.2757 5.87479 41.3071C5.95062 41.3384 6.01952 41.3845 6.07755 41.4425C6.13559 41.5005 6.18161 41.5694 6.213 41.6452C6.24439 41.721 6.26052 41.8023 6.26048 41.8843C6.26052 41.9664 6.24439 42.0477 6.213 42.1235C6.18162 42.1993 6.13559 42.2682 6.07756 42.3263C6.01953 42.3843 5.95063 42.4303 5.87481 42.4617C5.79898 42.4931 5.71771 42.5092 5.63564 42.5092ZM5.63564 46.2581H4.38595C4.04064 46.2581 3.76111 45.9786 3.76111 45.6332C3.76111 45.2879 4.04064 45.0084 4.38595 45.0084H5.63564C5.98095 45.0084 6.26048 45.2879 6.26048 45.6332C6.26048 45.9786 5.98095 46.2581 5.63564 46.2581ZM15.6325 12.5182H10.6341C10.2888 12.5182 10.0092 12.2389 10.0092 11.8934C10.0092 11.5479 10.2886 11.2686 10.6341 11.2686H15.6325C15.9778 11.2686 16.2574 11.5479 16.2574 11.8934C16.2574 12.2389 15.9778 12.5182 15.6325 12.5182ZM35.6263 16.2671H20.631C20.2856 16.2671 20.0061 15.9876 20.0061 15.6423C20.0061 15.297 20.2855 15.0175 20.631 15.0175H35.6263C35.9717 15.0175 36.2511 15.297 36.2511 15.6423C36.2511 15.9876 35.9717 16.2671 35.6263 16.2671ZM18.1317 16.2671H11.8836C11.5383 16.2671 11.2588 15.9876 11.2588 15.6423C11.2588 15.297 11.5383 15.0175 11.8836 15.0175H18.1317C18.477 15.0175 18.7566 15.297 18.7566 15.6423C18.7566 15.9876 18.477 16.2671 18.1317 16.2671ZM35.6263 20.0161H34.3767C34.0314 20.0161 33.7519 19.7367 33.7519 19.3912C33.7519 19.0457 34.0314 18.7664 34.3767 18.7664H35.6263C35.9717 18.7664 36.2511 19.0457 36.2511 19.3912C36.2511 19.7367 35.9717 20.0161 35.6263 20.0161ZM31.8775 20.0161H13.1333C12.788 20.0161 12.5085 19.7367 12.5085 19.3912C12.5085 19.0457 12.7878 18.7664 13.1333 18.7664H31.8775C32.2228 18.7664 32.5024 19.0457 32.5024 19.3912C32.5024 19.7367 32.2228 20.0161 31.8775 20.0161ZM16.882 27.5137H13.1333C12.788 27.5137 12.5085 27.2343 12.5085 26.8889C12.5085 26.5434 12.7878 26.264 13.1333 26.264H16.8822C17.2275 26.264 17.507 26.5434 17.507 26.8889C17.507 27.2343 17.2274 27.5137 16.882 27.5137ZM35.6263 27.5137H19.3814C19.0361 27.5137 18.7566 27.2343 18.7566 26.8889C18.7566 26.5434 19.0361 26.264 19.3814 26.264H35.6264C35.9719 26.264 36.2513 26.5434 36.2513 26.8889C36.2513 27.2343 35.9717 27.5137 35.6263 27.5137ZM35.6263 23.765H14.3828C14.0375 23.765 13.758 23.4854 13.758 23.1401C13.758 22.7948 14.0375 22.5153 14.3828 22.5153H35.6263C35.9717 22.5153 36.2511 22.7948 36.2511 23.1401C36.2511 23.4854 35.9717 23.765 35.6263 23.765ZM35.6263 31.2626H30.6278C30.5458 31.2627 30.4645 31.2465 30.3887 31.2151C30.3128 31.1838 30.2439 31.1377 30.1859 31.0797C30.1279 31.0217 30.0819 30.9528 30.0505 30.8769C30.0191 30.8011 30.0029 30.7198 30.003 30.6378C30.0029 30.5557 30.0191 30.4744 30.0505 30.3986C30.0819 30.3228 30.1279 30.2539 30.1859 30.1959C30.2439 30.1378 30.3128 30.0918 30.3887 30.0604C30.4645 30.029 30.5458 30.0129 30.6278 30.0129H35.6263C35.7083 30.0129 35.7896 30.029 35.8654 30.0604C35.9413 30.0918 36.0102 30.1378 36.0682 30.1959C36.1262 30.2539 36.1722 30.3228 36.2036 30.3986C36.235 30.4744 36.2512 30.5557 36.2511 30.6378C36.2512 30.7198 36.235 30.8011 36.2036 30.8769C36.1722 30.9528 36.1262 31.0217 36.0682 31.0797C36.0102 31.1377 35.9413 31.1838 35.8654 31.2151C35.7896 31.2465 35.7083 31.2627 35.6263 31.2626ZM31.8775 35.0114H11.8836C11.8015 35.0114 11.7203 34.9953 11.6444 34.9639C11.5686 34.9325 11.4997 34.8865 11.4417 34.8284C11.3837 34.7704 11.3376 34.7015 11.3062 34.6257C11.2749 34.5499 11.2587 34.4686 11.2588 34.3865C11.2587 34.3045 11.2749 34.2232 11.3062 34.1474C11.3376 34.0715 11.3837 34.0026 11.4417 33.9446C11.4997 33.8866 11.5686 33.8405 11.6444 33.8092C11.7203 33.7778 11.8015 33.7616 11.8836 33.7617H31.8775C31.9596 33.7616 32.0409 33.7778 32.1167 33.8092C32.1925 33.8405 32.2614 33.8866 32.3194 33.9446C32.3775 34.0026 32.4235 34.0715 32.4549 34.1474C32.4863 34.2232 32.5024 34.3045 32.5024 34.3865C32.5024 34.4686 32.4863 34.5499 32.4549 34.6257C32.4235 34.7015 32.3775 34.7704 32.3194 34.8284C32.2614 34.8865 32.1925 34.9325 32.1167 34.9639C32.0409 34.9953 31.9596 35.0114 31.8775 35.0114ZM21.8806 42.5092H11.8838C11.8017 42.5092 11.7204 42.4931 11.6446 42.4617C11.5688 42.4303 11.4999 42.3843 11.4418 42.3263C11.3838 42.2682 11.3378 42.1993 11.3064 42.1235C11.275 42.0477 11.2589 41.9664 11.2589 41.8843C11.2589 41.8023 11.275 41.721 11.3064 41.6452C11.3378 41.5694 11.3838 41.5005 11.4419 41.4425C11.4999 41.3845 11.5688 41.3384 11.6446 41.3071C11.7204 41.2757 11.8017 41.2596 11.8838 41.2596H21.8806C21.9627 41.2596 22.044 41.2757 22.1198 41.3071C22.1956 41.3384 22.2645 41.3845 22.3226 41.4425C22.3806 41.5005 22.4266 41.5694 22.458 41.6452C22.4894 41.721 22.5055 41.8023 22.5055 41.8843C22.5055 41.9664 22.4894 42.0477 22.458 42.1235C22.4266 42.1993 22.3806 42.2682 22.3226 42.3263C22.2645 42.3843 22.1956 42.4303 22.1198 42.4617C22.044 42.4931 21.9627 42.5092 21.8806 42.5092ZM35.6263 38.7603H29.3783C29.2962 38.7603 29.215 38.7442 29.1391 38.7128C29.0633 38.6814 28.9944 38.6354 28.9364 38.5774C28.8783 38.5193 28.8323 38.4504 28.8009 38.3746C28.7695 38.2988 28.7534 38.2175 28.7535 38.1354C28.7534 38.0534 28.7695 37.9721 28.8009 37.8963C28.8323 37.8204 28.8783 37.7515 28.9364 37.6935C28.9944 37.6355 29.0633 37.5895 29.1391 37.5581C29.215 37.5267 29.2962 37.5105 29.3783 37.5106H35.6263C35.7083 37.5105 35.7896 37.5267 35.8654 37.5581C35.9413 37.5895 36.0102 37.6355 36.0682 37.6935C36.1262 37.7515 36.1722 37.8204 36.2036 37.8963C36.235 37.9721 36.2512 38.0534 36.2511 38.1354C36.2512 38.2175 36.235 38.2988 36.2036 38.3746C36.1722 38.4504 36.1262 38.5193 36.0682 38.5774C36.0102 38.6354 35.9413 38.6814 35.8654 38.7128C35.7896 38.7442 35.7083 38.7603 35.6263 38.7603ZM26.8791 38.7603H13.1333C13.0512 38.7603 12.97 38.7442 12.8941 38.7128C12.8183 38.6814 12.7494 38.6354 12.6914 38.5774C12.6333 38.5193 12.5873 38.4504 12.5559 38.3746C12.5245 38.2988 12.5084 38.2175 12.5085 38.1354C12.5084 38.0534 12.5245 37.9721 12.5559 37.8963C12.5873 37.8204 12.6333 37.7515 12.6914 37.6935C12.7494 37.6355 12.8183 37.5895 12.8941 37.5581C12.97 37.5267 13.0512 37.5105 13.1333 37.5106H26.8791C26.9611 37.5105 27.0424 37.5267 27.1182 37.5581C27.1941 37.5895 27.263 37.6355 27.321 37.6935C27.379 37.7515 27.4251 37.8204 27.4564 37.8963C27.4878 37.9721 27.504 38.0534 27.5039 38.1354C27.504 38.2175 27.4878 38.2988 27.4564 38.3746C27.4251 38.4504 27.379 38.5193 27.321 38.5774C27.263 38.6354 27.1941 38.6814 27.1182 38.7128C27.0424 38.7442 26.9611 38.7603 26.8791 38.7603ZM15.6325 46.2581H10.6341C10.2888 46.2581 10.0092 45.9786 10.0092 45.6332C10.0092 45.2879 10.2886 45.0084 10.6341 45.0084H15.6325C15.9778 45.0084 16.2574 45.2879 16.2574 45.6332C16.2574 45.9786 15.9778 46.2581 15.6325 46.2581ZM35.6263 35.0114H34.3767C34.2947 35.0114 34.2134 34.9953 34.1376 34.9639C34.0617 34.9325 33.9928 34.8865 33.9348 34.8284C33.8768 34.7704 33.8308 34.7015 33.7994 34.6257C33.768 34.5499 33.7518 34.4686 33.7519 34.3865C33.7518 34.3045 33.768 34.2232 33.7994 34.1474C33.8308 34.0715 33.8768 34.0026 33.9348 33.9446C33.9928 33.8866 34.0617 33.8405 34.1376 33.8092C34.2134 33.7778 34.2947 33.7616 34.3767 33.7617H35.6263C35.7083 33.7616 35.7896 33.7778 35.8654 33.8092C35.9413 33.8405 36.0102 33.8866 36.0682 33.9446C36.1262 34.0026 36.1722 34.0715 36.2036 34.1474C36.235 34.2232 36.2512 34.3045 36.2511 34.3865C36.2512 34.4686 36.2351 34.5499 36.2037 34.6257C36.1723 34.7016 36.1263 34.7705 36.0682 34.8285C36.0102 34.8865 35.9413 34.9326 35.8655 34.9639C35.7896 34.9953 35.7083 35.0114 35.6263 35.0114ZM28.1286 31.2626H13.1333C13.0512 31.2627 12.97 31.2465 12.8941 31.2151C12.8183 31.1838 12.7494 31.1377 12.6914 31.0797C12.6333 31.0217 12.5873 30.9528 12.5559 30.8769C12.5245 30.8011 12.5084 30.7198 12.5085 30.6378C12.5084 30.5557 12.5245 30.4744 12.5559 30.3986C12.5873 30.3228 12.6333 30.2539 12.6914 30.1959C12.7494 30.1378 12.8183 30.0918 12.8941 30.0604C12.97 30.029 13.0512 30.0129 13.1333 30.0129H28.1288C28.2108 30.0129 28.2921 30.029 28.3679 30.0604C28.4438 30.0918 28.5127 30.1378 28.5707 30.1959C28.6287 30.2539 28.6747 30.3228 28.7061 30.3986C28.7375 30.4744 28.7536 30.5557 28.7536 30.6378C28.7536 30.7198 28.7375 30.8011 28.7061 30.877C28.6747 30.9528 28.6286 31.0217 28.5706 31.0797C28.5125 31.1377 28.4436 31.1838 28.3678 31.2151C28.292 31.2465 28.2107 31.2627 28.1286 31.2626Z" fill="url(#paint2_linear_48_1082)"/>
<path d="M40 50.0066C39.918 50.0066 39.8367 49.9905 39.7609 49.9591C39.685 49.9277 39.6161 49.8817 39.5581 49.8236C39.5001 49.7656 39.454 49.6967 39.4227 49.6209C39.3913 49.5451 39.3751 49.4638 39.3752 49.3817V8.14438C39.3751 8.06231 39.3913 7.98104 39.4227 7.90521C39.454 7.82938 39.5001 7.76048 39.5581 7.70245C39.6161 7.64442 39.685 7.5984 39.7609 7.56701C39.8367 7.53562 39.918 7.51949 40 7.51953C40.0821 7.51949 40.1633 7.53563 40.2392 7.56701C40.315 7.5984 40.3839 7.64443 40.4419 7.70246C40.4999 7.76049 40.5459 7.82939 40.5773 7.90522C40.6087 7.98105 40.6248 8.06232 40.6247 8.14438V49.3817C40.6248 49.4638 40.6087 49.545 40.5773 49.6209C40.5459 49.6967 40.4999 49.7656 40.4419 49.8236C40.3839 49.8817 40.315 49.9277 40.2392 49.9591C40.1633 49.9905 40.0821 50.0066 40 50.0066Z" fill="url(#paint3_linear_48_1082)"/>
<path d="M70.6155 42.5089C70.5115 42.5089 70.4091 42.483 70.3177 42.4333C70.2262 42.3837 70.1487 42.312 70.0921 42.2247L62.4928 30.5345L54.8939 42.2247C54.7072 42.5163 54.318 42.5956 54.03 42.4089C53.8912 42.3184 53.7939 42.1764 53.7595 42.0142C53.7252 41.852 53.7566 41.6828 53.8469 41.5438L61.9694 29.0475C62.1989 28.6925 62.7869 28.6925 63.0164 29.0475L71.1389 41.5438C71.2292 41.6828 71.2606 41.852 71.2263 42.0142C71.192 42.1764 71.0947 42.3184 70.9558 42.4089C70.8511 42.477 70.7327 42.5089 70.6155 42.5089Z" fill="url(#paint4_linear_48_1082)"/>
<path d="M49.3722 42.5091C49.2591 42.5092 49.1481 42.4785 49.0511 42.4204C48.954 42.3623 48.8746 42.2789 48.8212 42.1792C48.7678 42.0795 48.7425 41.9671 48.748 41.8542C48.7534 41.7412 48.7894 41.6318 48.8522 41.5377L53.8506 34.0474C53.9077 33.9619 53.985 33.8918 54.0757 33.8433C54.1664 33.7948 54.2676 33.7694 54.3705 33.7694C54.4733 33.7694 54.5745 33.7948 54.6652 33.8433C54.7559 33.8918 54.8332 33.9619 54.8903 34.0474L57.3531 37.7388C57.445 37.8767 57.4783 38.0454 57.4458 38.2079C57.4133 38.3704 57.3176 38.5133 57.1798 38.6052C56.8929 38.7943 56.5051 38.7199 56.3134 38.432L54.3706 35.5196L49.8919 42.2309C49.8349 42.3165 49.7576 42.3867 49.6669 42.4352C49.5763 42.4838 49.475 42.5092 49.3722 42.5091ZM49.3722 33.7618C47.6489 33.7618 46.2481 32.3602 46.2481 30.6377C46.2481 28.9152 47.6489 27.5137 49.3722 27.5137C51.0951 27.5137 52.4962 28.9152 52.4962 30.6377C52.4964 32.3602 51.0953 33.7618 49.3722 33.7618ZM49.3722 28.7634C48.3386 28.7634 47.4978 29.6041 47.4978 30.6377C47.4978 31.6713 48.3386 32.5121 49.3722 32.5121C50.4058 32.5121 51.2465 31.6713 51.2465 30.6377C51.2465 29.6041 50.4059 28.7634 49.3722 28.7634Z" fill="url(#paint5_linear_48_1082)"/>
<path d="M71.8653 42.5089H44.3738C44.0283 42.5089 43.7488 42.2295 43.7488 41.884V25.639C43.7487 25.5569 43.7649 25.4756 43.7963 25.3998C43.8277 25.324 43.8737 25.2551 43.9318 25.197C43.9898 25.139 44.0587 25.093 44.1346 25.0616C44.2104 25.0302 44.2917 25.0141 44.3738 25.0142H71.8652C71.9472 25.0141 72.0285 25.0303 72.1043 25.0616C72.1801 25.093 72.249 25.1391 72.3071 25.1971C72.3651 25.2551 72.4111 25.324 72.4425 25.3999C72.4738 25.4757 72.4899 25.5569 72.4899 25.639V41.884C72.49 41.9661 72.4739 42.0473 72.4425 42.1232C72.4112 42.199 72.3652 42.2679 72.3072 42.326C72.2492 42.384 72.1803 42.43 72.1045 42.4614C72.0287 42.4928 71.9474 42.5089 71.8653 42.5089ZM44.9985 41.2593H71.2405V26.2638H44.9985V41.2593Z" fill="url(#paint6_linear_48_1082)"/>
<path d="M71.8653 12.5182H44.3738C44.0283 12.5182 43.7488 12.2389 43.7488 11.8934C43.7488 11.5479 44.0283 11.2686 44.3738 11.2686H71.8652C72.2107 11.2686 72.4899 11.5479 72.4899 11.8934C72.4899 12.2389 72.2107 12.5182 71.8653 12.5182Z" fill="url(#paint7_linear_48_1082)"/>
<path d="M71.8653 22.5151C71.7832 22.5152 71.702 22.4991 71.6261 22.4677C71.5503 22.4363 71.4814 22.3903 71.4234 22.3322C71.3654 22.2742 71.3193 22.2053 71.288 22.1295C71.2566 22.0536 71.2405 21.9723 71.2406 21.8903V11.8934C71.2406 11.5481 71.5198 11.2686 71.8653 11.2686C72.2108 11.2686 72.49 11.5479 72.49 11.8934V21.8903C72.49 21.9723 72.4739 22.0536 72.4426 22.1294C72.4112 22.2053 72.3652 22.2742 72.3072 22.3322C72.2491 22.3902 72.1802 22.4362 72.1044 22.4676C72.0286 22.499 71.9473 22.5152 71.8653 22.5151Z" fill="url(#paint8_linear_48_1082)"/>
<path d="M71.8653 22.5153H44.3738C44.0283 22.5153 43.7488 22.2359 43.7488 21.8905C43.7488 21.545 44.0283 21.2656 44.3738 21.2656H71.8652C72.2107 21.2656 72.4899 21.545 72.4899 21.8905C72.4899 22.2359 72.2107 22.5153 71.8653 22.5153Z" fill="url(#paint9_linear_48_1082)"/>
<path d="M68.1164 17.5168H44.3738C44.0283 17.5168 43.7488 17.2374 43.7488 16.8919C43.7488 16.5465 44.0283 16.2671 44.3738 16.2671H68.1164C68.4616 16.2671 68.7411 16.5465 68.7411 16.8919C68.7411 17.2374 68.4616 17.5168 68.1164 17.5168Z" fill="url(#paint10_linear_48_1082)"/>
<path d="M71.8653 46.258H44.3738C44.0283 46.258 43.7488 45.9785 43.7488 45.6331C43.7488 45.2878 44.0283 45.0083 44.3738 45.0083H71.8652C72.2107 45.0083 72.4899 45.2878 72.4899 45.6331C72.4899 45.9785 72.2107 46.258 71.8653 46.258Z" fill="url(#paint11_linear_48_1082)"/>
<defs>
<linearGradient id="paint0_linear_48_1082" x1="-8.20765" y1="50.5378" x2="70.8458" y2="91.3008" gradientUnits="userSpaceOnUse">
<stop stopColor="#FC365F"/>
<stop offset="0.984375" stopColor="#A00BFB"/>
</linearGradient>
<linearGradient id="paint1_linear_48_1082" x1="-8.20767" y1="2.80352" x2="87.5198" y2="23.1986" gradientUnits="userSpaceOnUse">
<stop stopColor="#FC365F"/>
<stop offset="0.984375" stopColor="#A00BFB"/>
</linearGradient>
<linearGradient id="paint2_linear_48_1082" x1="0.421729" y1="8.39695" x2="40.2712" y2="14.0614" gradientUnits="userSpaceOnUse">
<stop stopColor="#FC365F"/>
<stop offset="0.984375" stopColor="#A00BFB"/>
</linearGradient>
<linearGradient id="paint3_linear_48_1082" x1="39.2468" y1="4.03261" x2="40.8102" y2="4.03964" gradientUnits="userSpaceOnUse">
<stop stopColor="#FC365F"/>
<stop offset="0.984375" stopColor="#A00BFB"/>
</linearGradient>
<linearGradient id="paint4_linear_48_1082" x1="51.9479" y1="27.6546" x2="73.0355" y2="31.7681" gradientUnits="userSpaceOnUse">
<stop stopColor="#FC365F"/>
<stop offset="0.984375" stopColor="#A00BFB"/>
</linearGradient>
<linearGradient id="paint5_linear_48_1082" x1="45.0959" y1="26.283" x2="58.9414" y2="27.8674" gradientUnits="userSpaceOnUse">
<stop stopColor="#FC365F"/>
<stop offset="0.984375" stopColor="#A00BFB"/>
</linearGradient>
<linearGradient id="paint6_linear_48_1082" x1="40.7947" y1="23.5784" x2="74.6189" y2="32.0847" gradientUnits="userSpaceOnUse">
<stop stopColor="#FC365F"/>
<stop offset="0.984375" stopColor="#A00BFB"/>
</linearGradient>
<linearGradient id="paint7_linear_48_1082" x1="40.7947" y1="11.166" x2="43.4796" y2="20.6184" gradientUnits="userSpaceOnUse">
<stop stopColor="#FC365F"/>
<stop offset="0.984375" stopColor="#A00BFB"/>
</linearGradient>
<linearGradient id="paint8_linear_48_1082" x1="71.1122" y1="10.3455" x2="72.6751" y2="10.3721" gradientUnits="userSpaceOnUse">
<stop stopColor="#FC365F"/>
<stop offset="0.984375" stopColor="#A00BFB"/>
</linearGradient>
<linearGradient id="paint9_linear_48_1082" x1="40.7947" y1="21.1631" x2="43.4796" y2="30.6155" gradientUnits="userSpaceOnUse">
<stop stopColor="#FC365F"/>
<stop offset="0.984375" stopColor="#A00BFB"/>
</linearGradient>
<linearGradient id="paint10_linear_48_1082" x1="41.18" y1="16.1645" x2="44.195" y2="25.3948" gradientUnits="userSpaceOnUse">
<stop stopColor="#FC365F"/>
<stop offset="0.984375" stopColor="#A00BFB"/>
</linearGradient>
<linearGradient id="paint11_linear_48_1082" x1="40.7947" y1="44.9057" x2="43.4796" y2="54.3582" gradientUnits="userSpaceOnUse">
<stop stopColor="#FC365F"/>
<stop offset="0.984375" stopColor="#A00BFB"/>
</linearGradient>
</defs>
</svg>
