<svg width="74" height="74" viewBox="0 0 74 74" fill="none" xmlns="http://www.w3.org/2000/svg">
<path d="M71.4 26.6002H55.4C54.04 26.6002 53 27.6402 53 29.0002V36.2002H48.12C47.72 30.6802 43.32 26.2002 37.8 25.8802V21.0002H45C46.36 21.0002 47.4 19.9602 47.4 18.6002V2.6002C47.4 1.2402 46.36 0.200195 45 0.200195H29C27.64 0.200195 26.6 1.2402 26.6 2.6002V18.6002C26.6 19.9602 27.64 21.0002 29 21.0002H36.2V25.8802C30.68 26.2802 26.2 30.6802 25.8799 36.2002H21V29.0002C21 27.6402 19.96 26.6002 18.6 26.6002H2.59995C1.23995 26.6002 0.199951 27.6402 0.199951 29.0002V45.0002C0.199951 46.3602 1.23995 47.4002 2.59995 47.4002H18.6C19.96 47.4002 21 46.3602 21 45.0002V37.8002H25.8799C26.28 43.3202 30.68 47.8002 36.2 48.1202V53.0002H29C27.64 53.0002 26.6 54.0402 26.6 55.4002V71.4002C26.6 72.7602 27.64 73.8002 29 73.8002H45C46.36 73.8002 47.4 72.7602 47.4 71.4002V55.4002C47.4 54.0402 46.36 53.0002 45 53.0002H37.8V48.1202C43.32 47.7202 47.8 43.3202 48.12 37.8002H53V45.0002C53 46.3602 54.04 47.4002 55.4 47.4002H71.4C72.7599 47.4002 73.7999 46.3602 73.7999 45.0002V29.0002C73.7999 27.6402 72.7599 26.6002 71.4 26.6002ZM34.6 9.8002C34.6 8.4402 35.6399 7.4002 37 7.4002C38.36 7.4002 39.4 8.4402 39.4 9.8002C39.4 11.1602 38.36 12.2002 37 12.2002C35.6399 12.2002 34.6 11.1602 34.6 9.8002ZM30.68 19.4002C31.08 16.2802 33.8 13.8002 37 13.8002C40.2 13.8002 42.92 16.2802 43.32 19.4002H30.68ZM28.2 18.6002V2.6002C28.2 2.1202 28.52 1.8002 29 1.8002H45C45.48 1.8002 45.8 2.1202 45.8 2.6002V18.6002C45.8 19.0802 45.48 19.4002 45 19.4002H44.92C44.6 16.2802 42.52 13.7202 39.72 12.6802C40.52 11.9602 41 10.9202 41 9.8002C41 7.5602 39.24 5.8002 37 5.8002C34.76 5.8002 33 7.5602 33 9.8002C33 10.9202 33.4799 11.9602 34.2799 12.6802C31.4799 13.7202 29.4 16.2802 29.08 19.4002H29C28.52 19.4002 28.2 19.0802 28.2 18.6002ZM8.19995 36.2002C8.19995 34.8402 9.23995 33.8002 10.6 33.8002C11.96 33.8002 13 34.8402 13 36.2002C13 37.5602 11.96 38.6002 10.6 38.6002C9.23995 38.6002 8.19995 37.5602 8.19995 36.2002ZM4.27995 45.8002C4.67995 42.6802 7.39995 40.2002 10.6 40.2002C13.8 40.2002 16.52 42.6802 16.92 45.8002H4.27995ZM19.4 45.0002C19.4 45.4802 19.08 45.8002 18.6 45.8002H18.52C18.2 42.6802 16.12 40.1202 13.32 39.0802C14.12 38.3602 14.6 37.3202 14.6 36.2002C14.6 33.9602 12.84 32.2002 10.6 32.2002C8.35995 32.2002 6.59995 33.9602 6.59995 36.2002C6.59995 37.3202 7.07995 38.3602 7.87995 39.0802C4.99995 40.1202 2.91995 42.6802 2.67995 45.8002H2.59995C2.11995 45.8002 1.79995 45.4802 1.79995 45.0002V29.0002C1.79995 28.5202 2.11995 28.2002 2.59995 28.2002H18.6C19.08 28.2002 19.4 28.5202 19.4 29.0002V45.0002ZM34.6 62.6002C34.6 61.2402 35.6399 60.2002 37 60.2002C38.36 60.2002 39.4 61.2402 39.4 62.6002C39.4 63.9602 38.36 65.0002 37 65.0002C35.6399 65.0002 34.6 63.9602 34.6 62.6002ZM30.68 72.2002C31.08 69.0802 33.8 66.6002 37 66.6002C40.2 66.6002 42.92 69.0802 43.32 72.2002H30.68ZM45.8 55.4002V71.4002C45.8 71.8802 45.48 72.2002 45 72.2002H44.92C44.6 69.0802 42.52 66.5202 39.72 65.4802C40.52 64.7602 41 63.7202 41 62.6002C41 60.3602 39.24 58.6002 37 58.6002C34.76 58.6002 33 60.3602 33 62.6002C33 63.7202 33.4799 64.7602 34.2799 65.4802C31.4799 66.5202 29.4 69.0802 29.08 72.2002H29C28.52 72.2002 28.2 71.8802 28.2 71.4002V55.4002C28.2 54.9202 28.52 54.6002 29 54.6002H45C45.48 54.6002 45.8 54.9202 45.8 55.4002ZM41.6399 39.8002C41.72 38.9202 41.8 37.9602 41.8 37.0002C41.8 36.0402 41.72 35.1602 41.6399 34.2002C44.76 34.8402 46.6 36.0402 46.6 37.0002C46.6 37.9602 44.76 39.1602 41.6399 39.8002ZM37 46.6002C36.04 46.6002 34.84 44.7602 34.2 41.6402C35.08 41.7202 36.04 41.8002 37 41.8002C37.96 41.8002 38.84 41.7202 39.8 41.6402C39.16 44.7602 37.96 46.6002 37 46.6002ZM37 40.2002C35.88 40.2002 34.92 40.1202 33.96 40.0402C33.88 39.0802 33.8 38.1202 33.8 37.0002C33.8 35.8802 33.88 34.9202 33.96 33.9602C34.92 33.8802 35.88 33.8002 37 33.8002C38.12 33.8002 39.08 33.8802 40.04 33.9602C40.1199 34.9202 40.2 35.8802 40.2 37.0002C40.2 38.1202 40.1199 39.0802 40.04 40.0402C39.08 40.1202 38.12 40.2002 37 40.2002ZM27.4 37.0002C27.4 36.0402 29.24 34.8402 32.36 34.2002C32.28 35.1602 32.2 36.0402 32.2 37.0002C32.2 37.9602 32.28 38.8402 32.36 39.8002C29.24 39.1602 27.4 37.9602 27.4 37.0002ZM37 27.4002C37.96 27.4002 39.16 29.2402 39.8 32.3602C38.84 32.2802 37.96 32.2002 37 32.2002C36.04 32.2002 35.16 32.2802 34.2 32.3602C34.84 29.2402 36.04 27.4002 37 27.4002ZM46.2 34.2002C45 33.4802 43.32 32.9202 41.4799 32.6002C41.16 30.7602 40.5999 29.0802 39.88 27.8802C42.84 28.7602 45.24 31.1602 46.2 34.2002ZM34.2 27.8002C33.4799 29.0002 32.92 30.6802 32.6 32.5202C30.76 32.8402 29.08 33.4002 27.8799 34.1202C28.76 31.1602 31.16 28.7602 34.2 27.8002ZM27.8 39.8002C29 40.5202 30.68 41.0802 32.52 41.4002C32.84 43.2402 33.4 44.9202 34.12 46.1202C31.16 45.2402 28.76 42.8402 27.8 39.8002ZM39.8 46.2002C40.52 45.0002 41.08 43.3202 41.4 41.4802C43.24 41.1602 44.92 40.6002 46.12 39.8802C45.24 42.8402 42.84 45.2402 39.8 46.2002ZM61 36.2002C61 34.8402 62.04 33.8002 63.4 33.8002C64.7599 33.8002 65.7999 34.8402 65.7999 36.2002C65.7999 37.5602 64.7599 38.6002 63.4 38.6002C62.04 38.6002 61 37.5602 61 36.2002ZM57.08 45.8002C57.4799 42.6802 60.2 40.2002 63.4 40.2002C66.6 40.2002 69.32 42.6802 69.72 45.8002H57.08ZM72.2 45.0002C72.2 45.4802 71.88 45.8002 71.4 45.8002H71.32C71 42.6802 68.92 40.1202 66.12 39.0802C66.92 38.3602 67.4 37.3202 67.4 36.2002C67.4 33.9602 65.64 32.2002 63.4 32.2002C61.16 32.2002 59.4 33.9602 59.4 36.2002C59.4 37.3202 59.88 38.3602 60.68 39.0802C57.88 40.1202 55.7999 42.6802 55.4799 45.8002H55.4C54.92 45.8002 54.6 45.4802 54.6 45.0002V29.0002C54.6 28.5202 54.92 28.2002 55.4 28.2002H71.4C71.88 28.2002 72.2 28.5202 72.2 29.0002V45.0002Z" fill="url(#paint0_linear_48_1319)"/>
<path d="M10.1199 24.0402C10.1199 24.0402 10.1999 24.0402 10.1999 24.1202C10.1999 24.1202 10.2799 24.1202 10.2799 24.2002C10.3599 24.2002 10.4399 24.2802 10.5999 24.2802C10.7599 24.2802 10.7599 24.2802 10.9199 24.2002C10.9199 24.2002 10.9999 24.2002 10.9999 24.1202C10.9999 24.1202 11.0799 24.1202 11.0799 24.0402L14.2799 21.6402C14.5999 21.4002 14.6799 20.8402 14.4399 20.5202C14.1999 20.2002 13.6399 20.1202 13.3199 20.3602L11.3999 21.8002V15.4002C11.3999 13.1602 13.1599 11.4002 15.3999 11.4002H21.7999L20.3599 13.3202C20.1199 13.6402 20.1999 14.2002 20.5199 14.4402C20.6799 14.5202 20.8399 14.6002 20.9999 14.6002C21.2399 14.6002 21.4799 14.5202 21.6399 14.2802L24.0399 11.0802C24.0399 11.0802 24.0399 11.0002 24.1199 11.0002C24.1199 11.0002 24.1199 10.9202 24.1999 10.9202C24.2799 10.7602 24.2799 10.5202 24.1999 10.3602C24.1999 10.3602 24.1999 10.2802 24.1199 10.2802C24.1199 10.2802 24.1199 10.2002 24.0399 10.2002L21.6399 7.00023C21.3999 6.68023 20.8399 6.60023 20.5199 6.84023C20.1999 7.08023 20.1199 7.64023 20.3599 7.96023L21.7999 9.80023H15.3999C12.2799 9.80023 9.79991 12.2802 9.79991 15.4002V21.8002L7.87991 20.3602C7.55991 20.1202 6.99991 20.2002 6.75991 20.5202C6.51991 20.8402 6.59991 21.4002 6.91991 21.6402L10.1199 24.0402Z" fill="black"/>
<path d="M24.12 63.0803C24.12 63.0803 24.12 63.0003 24.04 63.0003C24.04 63.0003 24.04 62.9203 23.96 62.9203L21.56 59.7203C21.32 59.4003 20.76 59.3203 20.44 59.5603C20.12 59.8003 20.04 60.3603 20.28 60.6803L21.8 62.6003H15.4C13.16 62.6003 11.4 60.8403 11.4 58.6003V52.2003L13.32 53.6403C13.48 53.7203 13.64 53.8003 13.8 53.8003C14.04 53.8003 14.28 53.7203 14.44 53.4803C14.68 53.1603 14.6 52.6003 14.28 52.3603L11.08 49.9603C11.08 49.9603 11 49.9603 11 49.8803C11 49.8803 10.92 49.8803 10.92 49.8003C10.76 49.8003 10.68 49.8003 10.6 49.8003C10.52 49.8003 10.44 49.8003 10.36 49.8803C10.36 49.8803 10.28 49.8803 10.28 49.9603C10.28 49.9603 10.2 49.9603 10.2 50.0403L6.99999 52.4403C6.67999 52.6803 6.59999 53.2403 6.83999 53.5603C7.07999 53.8803 7.63999 53.9603 7.95999 53.7203L9.79999 52.2003V58.6003C9.79999 61.7203 12.28 64.2003 15.4 64.2003H21.8L20.36 66.1203C20.12 66.4403 20.2 67.0003 20.52 67.2403C20.68 67.3203 20.84 67.4003 21 67.4003C21.24 67.4003 21.48 67.3203 21.64 67.0803L24.04 63.8803C24.04 63.8803 24.04 63.8003 24.12 63.8003C24.12 63.8003 24.12 63.7203 24.2 63.7203C24.2 63.4803 24.2 63.3203 24.12 63.0803Z" fill="black"/>
<path d="M49.8799 10.9202C49.8799 10.9202 49.8799 11.0002 49.9599 11.0002C49.9599 11.0002 49.9599 11.0802 50.0399 11.0802L52.4399 14.2802C52.5999 14.5202 52.8399 14.6002 53.0799 14.6002C53.2399 14.6002 53.3999 14.5202 53.5599 14.4402C53.8799 14.2002 53.9599 13.6402 53.7199 13.3202L52.1999 11.4002H58.5999C60.8399 11.4002 62.5999 13.1602 62.5999 15.4002V21.8002L60.6799 20.3602C60.3599 20.1202 59.7999 20.2002 59.5599 20.5202C59.3199 20.8402 59.3999 21.4002 59.7199 21.6402L62.9199 24.0402C62.9199 24.0402 62.9999 24.0402 62.9999 24.1202C62.9999 24.1202 63.0799 24.1202 63.0799 24.2002C63.1599 24.2002 63.2399 24.2802 63.3999 24.2802C63.5599 24.2802 63.5599 24.2802 63.7199 24.2002C63.7199 24.2002 63.7999 24.2002 63.7999 24.1202C63.7999 24.1202 63.8799 24.1202 63.8799 24.0402L67.0799 21.6402C67.3999 21.4002 67.4799 20.8402 67.2399 20.5202C66.9999 20.2002 66.4399 20.1202 66.1199 20.3602L64.1999 21.8002V15.4002C64.1999 12.2802 61.7199 9.80015 58.5999 9.80015H52.1999L53.6399 7.88015C53.8799 7.56015 53.7999 7.00015 53.4799 6.76015C53.1599 6.52015 52.5999 6.60015 52.3599 6.92015L49.9599 10.1202C49.9599 10.1202 49.9599 10.2002 49.8799 10.2002C49.8799 10.2002 49.8799 10.2802 49.7999 10.2802C49.7999 10.5202 49.7999 10.6802 49.8799 10.9202Z" fill="black"/>
<path d="M63.88 49.9603C63.88 49.9603 63.8 49.9603 63.8 49.8803C63.8 49.8803 63.72 49.8803 63.72 49.8003C63.56 49.8003 63.48 49.8003 63.4 49.8003C63.32 49.8003 63.24 49.8003 63.16 49.8803C63.16 49.8803 63.08 49.8803 63.08 49.9603C63.08 49.9603 63 49.9603 63 50.0403L59.8 52.4403C59.48 52.6803 59.4 53.2403 59.64 53.5603C59.88 53.8803 60.44 53.9603 60.76 53.7203L62.6 52.2003V58.6003C62.6 60.8403 60.84 62.6003 58.6 62.6003H52.2L53.64 60.6803C53.88 60.3603 53.8 59.8003 53.48 59.5603C53.16 59.3203 52.6 59.4003 52.36 59.7203L49.96 62.9203C49.96 62.9203 49.96 63.0003 49.88 63.0003C49.88 63.0003 49.88 63.0803 49.8 63.0803C49.72 63.2403 49.72 63.4803 49.8 63.6403C49.8 63.6403 49.8 63.7203 49.88 63.7203C49.88 63.7203 49.88 63.8003 49.96 63.8003L52.36 67.0003C52.52 67.2403 52.76 67.3203 53 67.3203C53.16 67.3203 53.32 67.2403 53.48 67.1603C53.8 66.9203 53.88 66.3603 53.64 66.0403L52.2 64.2003H58.6C61.72 64.2003 64.2 61.7203 64.2 58.6003V52.2003L66.12 53.6403C66.28 53.7203 66.44 53.8003 66.6 53.8003C66.84 53.8003 67.08 53.7203 67.24 53.4803C67.48 53.1603 67.4 52.6003 67.08 52.3603L63.88 49.9603Z" fill="black"/>
<defs>
<linearGradient id="paint0_linear_48_1319" x1="-7.36475" y1="-5.84018" x2="82.6215" y2="7.93492" gradientUnits="userSpaceOnUse">
<stop stopColor="#FC365F"/>
<stop offset="0.984375" stopColor="#A00BFB"/>
</linearGradient>
</defs>
</svg>
