<svg width="80" height="80" viewBox="0 0 80 80" fill="none" xmlns="http://www.w3.org/2000/svg">
<path d="M3.17354 14.3828C2.8287 14.3828 2.5426 14.1035 2.5426 13.7581C2.5426 13.4127 2.81588 13.1333 3.1612 13.1333H3.17338C3.25545 13.1333 3.33672 13.1494 3.41255 13.1808C3.48838 13.2122 3.55728 13.2582 3.61531 13.3162C3.67334 13.3743 3.71936 13.4432 3.75075 13.519C3.78213 13.5948 3.79827 13.6761 3.79823 13.7581C3.79829 13.8402 3.78217 13.9215 3.7508 13.9973C3.71943 14.0731 3.67342 14.142 3.6154 14.2C3.55738 14.258 3.48849 14.304 3.41267 14.3354C3.33685 14.3668 3.25559 14.3829 3.17354 14.3828ZM5.67276 14.3828C5.32791 14.3828 5.04182 14.1035 5.04182 13.7581C5.04182 13.4127 5.3151 13.1333 5.66042 13.1333H5.6726C5.75467 13.1333 5.83594 13.1494 5.91177 13.1808C5.9876 13.2122 6.05649 13.2582 6.11453 13.3162C6.17256 13.3743 6.21858 13.4432 6.24997 13.519C6.28135 13.5948 6.29749 13.6761 6.29745 13.7581C6.29751 13.8402 6.28139 13.9215 6.25002 13.9973C6.21865 14.0731 6.17264 14.142 6.11462 14.2C6.0566 14.258 5.98771 14.304 5.91189 14.3354C5.83607 14.3668 5.75481 14.3829 5.67276 14.3828ZM8.17198 14.3828C7.82713 14.3828 7.54104 14.1035 7.54104 13.7581C7.54104 13.4127 7.81432 13.1333 8.15963 13.1333H8.17182C8.25389 13.1333 8.33516 13.1494 8.41099 13.1808C8.48682 13.2122 8.55571 13.2582 8.61374 13.3162C8.67177 13.3743 8.7178 13.4432 8.74919 13.519C8.78057 13.5948 8.79671 13.6761 8.79667 13.7581C8.79673 13.8402 8.78061 13.9215 8.74924 13.9973C8.71787 14.0731 8.67185 14.142 8.61384 14.2C8.55582 14.258 8.48693 14.304 8.41111 14.3354C8.33529 14.3668 8.25403 14.3829 8.17198 14.3828Z" fill="black"/>
<path d="M79.3631 15.6325H0.637173C0.555106 15.6325 0.473835 15.6164 0.398007 15.585C0.322179 15.5536 0.25328 15.5076 0.19525 15.4495C0.13722 15.3915 0.0911957 15.3226 0.0598089 15.2468C0.0284221 15.1709 0.0122881 15.0897 0.0123292 15.0076V13.7581C0.0123292 12.7245 0.85311 11.8835 1.8867 11.8835H78.1134C79.147 11.8835 79.9878 12.7245 79.9878 13.7581V15.0076C79.9878 15.0897 79.9717 15.1709 79.9403 15.2467C79.909 15.3226 79.8629 15.3914 79.8049 15.4495C79.7469 15.5075 79.678 15.5535 79.6022 15.5849C79.5264 15.6163 79.4452 15.6325 79.3631 15.6325ZM1.26186 14.3828H78.7381V13.7581C78.7379 13.5924 78.672 13.4337 78.5549 13.3165C78.4378 13.1994 78.279 13.1335 78.1134 13.1332H1.8867C1.72102 13.1334 1.56216 13.1992 1.44501 13.3164C1.32786 13.4335 1.26198 13.5924 1.26186 13.7581V14.3828Z" fill="black"/>
<path d="M79.3631 68.1164H0.637173C0.555106 68.1164 0.473835 68.1003 0.398007 68.0689C0.322179 68.0375 0.25328 67.9915 0.19525 67.9335C0.13722 67.8755 0.0911957 67.8066 0.0598089 67.7307C0.0284221 67.6549 0.0122881 67.5736 0.0123292 67.4916V15.0077C0.0122881 14.9256 0.0284221 14.8443 0.0598089 14.7685C0.0911957 14.6927 0.13722 14.6238 0.19525 14.5657C0.25328 14.5077 0.322179 14.4617 0.398007 14.4303C0.473835 14.3989 0.555106 14.3828 0.637173 14.3828H79.3631C79.4452 14.3828 79.5264 14.3989 79.6022 14.4303C79.678 14.4617 79.7469 14.5078 79.8049 14.5658C79.8629 14.6238 79.909 14.6927 79.9403 14.7685C79.9717 14.8443 79.9878 14.9256 79.9878 15.0077V67.4916C79.9878 67.5736 79.9717 67.6549 79.9403 67.7307C79.909 67.8065 79.8629 67.8754 79.8049 67.9334C79.7469 67.9915 79.678 68.0375 79.6022 68.0689C79.5264 68.1003 79.4452 68.1164 79.3631 68.1164ZM1.26186 66.8667H78.7381V15.6325H1.26186V66.8667Z" fill="black"/>
<path d="M49.3722 49.3721H4.38595C4.30389 49.3722 4.22261 49.3561 4.14679 49.3247C4.07096 49.2933 4.00206 49.2473 3.94403 49.1892C3.886 49.1312 3.83998 49.0623 3.80859 48.9865C3.7772 48.9106 3.76107 48.8294 3.76111 48.7473V18.7567C3.76107 18.6746 3.7772 18.5933 3.80859 18.5175C3.83998 18.4417 3.886 18.3728 3.94403 18.3148C4.00206 18.2567 4.07096 18.2107 4.14679 18.1793C4.22261 18.1479 4.30389 18.1318 4.38595 18.1318H49.3724C49.4544 18.1318 49.5357 18.1479 49.6115 18.1793C49.6873 18.2107 49.7562 18.2567 49.8142 18.3148C49.8722 18.3728 49.9183 18.4417 49.9496 18.5175C49.981 18.5934 49.9971 18.6746 49.997 18.7567V48.7473C49.9971 48.8294 49.9809 48.9106 49.9495 48.9864C49.9181 49.0623 49.8721 49.1312 49.8141 49.1892C49.7561 49.2472 49.6872 49.2932 49.6113 49.3246C49.5355 49.356 49.4543 49.3722 49.3722 49.3721ZM5.0108 48.1226H48.7474V19.3814H5.0108V48.1226Z" fill="black"/>
<path d="M49.3722 46.8728H4.38595C4.30389 46.8729 4.22263 46.8568 4.1468 46.8254C4.07097 46.794 4.00207 46.748 3.94404 46.69C3.88601 46.632 3.83998 46.5631 3.80859 46.4873C3.7772 46.4115 3.76107 46.3302 3.76111 46.2481C3.76107 46.1661 3.7772 46.0848 3.80859 46.009C3.83998 45.9331 3.886 45.8642 3.94403 45.8062C4.00206 45.7482 4.07096 45.7022 4.14679 45.6708C4.22261 45.6394 4.30389 45.6233 4.38595 45.6233H49.3724C49.4544 45.6232 49.5357 45.6394 49.6115 45.6708C49.6873 45.7022 49.7562 45.7482 49.8142 45.8062C49.8722 45.8643 49.9183 45.9332 49.9496 46.009C49.981 46.0848 49.9971 46.1661 49.997 46.2481C49.997 46.3302 49.9809 46.4114 49.9495 46.4872C49.9181 46.563 49.8721 46.6319 49.814 46.6899C49.756 46.7479 49.6871 46.7939 49.6113 46.8253C49.5355 46.8567 49.4543 46.8728 49.3722 46.8728Z" fill="black"/>
<path d="M6.8851 49.3721C6.80303 49.3721 6.72176 49.356 6.64593 49.3246C6.5701 49.2932 6.5012 49.2472 6.44317 49.1891C6.38514 49.1311 6.33912 49.0622 6.30773 48.9864C6.27635 48.9106 6.26021 48.8293 6.26025 48.7472V46.2482C6.26021 46.1661 6.27635 46.0848 6.30773 46.009C6.33912 45.9332 6.38514 45.8643 6.44317 45.8062C6.5012 45.7482 6.5701 45.7022 6.64593 45.6708C6.72176 45.6394 6.80303 45.6233 6.8851 45.6233C6.96716 45.6233 7.04844 45.6394 7.12426 45.6708C7.20009 45.7022 7.26899 45.7482 7.32702 45.8062C7.38505 45.8643 7.43107 45.9332 7.46246 46.009C7.49385 46.0848 7.50998 46.1661 7.50994 46.2482V48.7472C7.50998 48.8293 7.49385 48.9106 7.46246 48.9864C7.43107 49.0622 7.38505 49.1311 7.32702 49.1891C7.26899 49.2472 7.20009 49.2932 7.12426 49.3246C7.04844 49.356 6.96716 49.3721 6.8851 49.3721ZM46.8727 49.3721C46.7907 49.3721 46.7094 49.356 46.6336 49.3246C46.5578 49.2932 46.4889 49.2472 46.4309 49.1891C46.3729 49.1311 46.3269 49.0622 46.2955 48.9864C46.2641 48.9106 46.248 48.8293 46.2481 48.7472V46.2482C46.248 46.1661 46.2641 46.0848 46.2955 46.009C46.3269 45.9332 46.3729 45.8643 46.4309 45.8063C46.4889 45.7482 46.5578 45.7022 46.6336 45.6708C46.7094 45.6394 46.7907 45.6233 46.8727 45.6233C47.2182 45.6233 47.4977 45.9027 47.4977 46.2482V48.7472C47.4978 48.8293 47.4817 48.9106 47.4503 48.9864C47.4189 49.0623 47.3728 49.1312 47.3148 49.1892C47.2567 49.2472 47.1878 49.2933 47.112 49.3246C47.0361 49.356 46.9548 49.3721 46.8727 49.3721ZM26.879 49.3721C25.8454 49.3721 25.0046 48.5313 25.0046 47.4977C25.0046 46.4641 25.8454 45.6233 26.879 45.6233C27.9126 45.6233 28.7534 46.4641 28.7534 47.4977C28.7534 48.5313 27.9126 49.3721 26.879 49.3721ZM26.879 46.8728C26.5343 46.8728 26.2542 47.1536 26.2542 47.4977C26.2542 47.8418 26.5343 48.1225 26.879 48.1225C27.2237 48.1225 27.5038 47.8418 27.5038 47.4977C27.5038 47.1536 27.2237 46.8728 26.879 46.8728ZM26.879 39.3752C22.7445 39.3752 19.3813 36.0121 19.3813 31.8775C19.3813 27.7432 22.7445 24.3799 26.879 24.3799C31.0135 24.3799 34.3767 27.7432 34.3767 31.8775C34.3767 36.0121 31.0135 39.3752 26.879 39.3752ZM26.879 25.6294C23.434 25.6294 20.6309 28.4324 20.6309 31.8774C20.6309 35.3224 23.434 38.1255 26.879 38.1255C30.324 38.1255 33.1271 35.3224 33.1271 31.8774C33.1271 28.4324 30.324 25.6294 26.879 25.6294Z" fill="black"/>
<path d="M24.3798 36.2511C24.2142 36.251 24.0553 36.1852 23.9381 36.0681C23.821 35.9509 23.7551 35.7921 23.755 35.6264V28.1287C23.755 27.9036 23.8758 27.6961 24.0717 27.5851C24.168 27.5307 24.277 27.5028 24.3876 27.5042C24.4982 27.5056 24.6065 27.5363 24.7014 27.5931L30.9495 31.3418C31.042 31.3974 31.1185 31.4759 31.1717 31.5698C31.2248 31.6637 31.2527 31.7697 31.2527 31.8776C31.2527 31.9855 31.2248 32.0915 31.1717 32.1854C31.1185 32.2793 31.042 32.3579 30.9495 32.4134L24.7014 36.1623C24.6042 36.2203 24.4931 36.2509 24.3798 36.2511ZM25.0047 29.2325V34.5225L29.4138 31.8773L25.0047 29.2325Z" fill="#4D00F0"/>
<path d="M63.118 26.879H53.1212C53.0391 26.8791 52.9578 26.863 52.882 26.8316C52.8062 26.8002 52.7373 26.7542 52.6793 26.6962C52.6213 26.6382 52.5753 26.5693 52.5439 26.4935C52.5125 26.4176 52.4964 26.3364 52.4965 26.2543V18.7567C52.4964 18.6746 52.5125 18.5933 52.5438 18.5175C52.5752 18.4417 52.6212 18.3728 52.6792 18.3147C52.7373 18.2567 52.8062 18.2107 52.882 18.1793C52.9578 18.1479 53.0391 18.1318 53.1212 18.1318H63.118C63.2001 18.1318 63.2814 18.1479 63.3572 18.1793C63.433 18.2107 63.5019 18.2567 63.5599 18.3147C63.618 18.3728 63.664 18.4417 63.6953 18.5175C63.7267 18.5933 63.7428 18.6746 63.7427 18.7567V26.2543C63.7428 26.3364 63.7267 26.4176 63.6953 26.4935C63.6639 26.5693 63.6179 26.6382 63.5599 26.6962C63.5019 26.7542 63.433 26.8002 63.3572 26.8316C63.2813 26.863 63.2001 26.8791 63.118 26.879ZM53.7458 25.6295H62.493V19.3814H53.7458V25.6295ZM74.3647 20.6311H65.6172C65.2721 20.6311 64.9926 20.3515 64.9926 20.0062C64.9926 19.6609 65.2721 19.3814 65.6172 19.3814H74.3647C74.7099 19.3814 74.9894 19.6609 74.9894 20.0062C74.9894 20.3515 74.7099 20.6311 74.3647 20.6311ZM74.3647 23.1303H65.6172C65.2721 23.1303 64.9926 22.8507 64.9926 22.5054C64.9926 22.1601 65.2721 21.8806 65.6172 21.8806H74.3647C74.7099 21.8806 74.9894 22.1601 74.9894 22.5054C74.9894 22.8507 74.7099 23.1303 74.3647 23.1303ZM70.6155 25.6295H65.6171C65.2719 25.6295 64.9924 25.35 64.9924 25.0046C64.9924 24.6593 65.2719 24.3798 65.6171 24.3798H70.6155C70.961 24.3798 71.2405 24.6593 71.2405 25.0046C71.2405 25.35 70.961 25.6295 70.6155 25.6295Z" fill="#8F01FF"/>
<path d="M63.118 38.1255H53.1212C53.0391 38.1256 52.9578 38.1094 52.882 38.078C52.8062 38.0466 52.7373 38.0006 52.6793 37.9426C52.6213 37.8846 52.5753 37.8157 52.5439 37.7398C52.5125 37.664 52.4964 37.5827 52.4965 37.5007V30.003C52.4964 29.921 52.5125 29.8397 52.5439 29.7639C52.5753 29.688 52.6213 29.6191 52.6793 29.5611C52.7373 29.5031 52.8062 29.457 52.882 29.4257C52.9578 29.3943 53.0391 29.3781 53.1212 29.3782H63.118C63.2001 29.3781 63.2813 29.3943 63.3572 29.4257C63.433 29.457 63.5019 29.5031 63.5599 29.5611C63.6179 29.6191 63.6639 29.688 63.6953 29.7639C63.7267 29.8397 63.7428 29.921 63.7427 30.003V37.5007C63.7428 37.5827 63.7267 37.664 63.6953 37.7398C63.6639 37.8157 63.6179 37.8846 63.5599 37.9426C63.5019 38.0006 63.433 38.0466 63.3572 38.078C63.2813 38.1094 63.2001 38.1256 63.118 38.1255ZM53.7458 36.8758H62.493V30.6279H53.7458V36.8758ZM74.3647 31.8774H65.6172C65.5352 31.8774 65.4539 31.8613 65.3781 31.8299C65.3023 31.7985 65.2334 31.7525 65.1754 31.6945C65.1174 31.6365 65.0714 31.5676 65.04 31.4918C65.0086 31.416 64.9925 31.3348 64.9926 31.2527C64.9925 31.1706 65.0086 31.0894 65.04 31.0136C65.0713 30.9377 65.1174 30.8688 65.1754 30.8108C65.2334 30.7528 65.3023 30.7067 65.3781 30.6753C65.4539 30.644 65.5352 30.6278 65.6172 30.6279H74.3647C74.4468 30.6278 74.5281 30.644 74.6039 30.6753C74.6797 30.7067 74.7486 30.7528 74.8066 30.8108C74.8646 30.8688 74.9106 30.9377 74.942 31.0136C74.9734 31.0894 74.9895 31.1706 74.9894 31.2527C74.9895 31.3348 74.9733 31.416 74.942 31.4918C74.9106 31.5676 74.8646 31.6365 74.8066 31.6945C74.7485 31.7525 74.6797 31.7985 74.6039 31.8299C74.528 31.8613 74.4468 31.8774 74.3647 31.8774ZM74.3647 34.3766H65.6172C65.5352 34.3767 65.4539 34.3605 65.3781 34.3291C65.3023 34.2977 65.2334 34.2517 65.1754 34.1937C65.1174 34.1356 65.0713 34.0667 65.04 33.9909C65.0086 33.9151 64.9925 33.8338 64.9926 33.7518C64.9925 33.6697 65.0086 33.5885 65.04 33.5127C65.0714 33.4369 65.1174 33.368 65.1754 33.31C65.2334 33.2519 65.3023 33.2059 65.3781 33.1745C65.4539 33.1432 65.5352 33.127 65.6172 33.1271H74.3647C74.4468 33.127 74.528 33.1432 74.6039 33.1745C74.6797 33.2059 74.7485 33.2519 74.8066 33.31C74.8646 33.368 74.9106 33.4369 74.942 33.5127C74.9733 33.5885 74.9895 33.6697 74.9894 33.7518C74.9895 33.8338 74.9734 33.9151 74.942 33.9909C74.9106 34.0667 74.8646 34.1356 74.8066 34.1937C74.7486 34.2517 74.6797 34.2977 74.6039 34.3291C74.5281 34.3605 74.4468 34.3767 74.3647 34.3766ZM70.6155 36.8758H65.6171C65.535 36.8759 65.4538 36.8597 65.3779 36.8283C65.3021 36.797 65.2332 36.7509 65.1752 36.6929C65.1172 36.6349 65.0712 36.566 65.0398 36.4901C65.0085 36.4143 64.9923 36.333 64.9924 36.251C64.9924 36.1689 65.0085 36.0877 65.0399 36.0119C65.0712 35.9361 65.1173 35.8672 65.1753 35.8092C65.2333 35.7512 65.3022 35.7051 65.378 35.6738C65.4538 35.6424 65.535 35.6263 65.6171 35.6263H70.6155C70.961 35.6263 71.2405 35.9057 71.2405 36.251C71.2406 36.3331 71.2244 36.4144 71.193 36.4902C71.1616 36.566 71.1156 36.6349 71.0575 36.693C70.9995 36.751 70.9306 36.797 70.8547 36.8284C70.7789 36.8598 70.6976 36.8759 70.6155 36.8758Z" fill="black"/>
<path d="M63.118 49.3719H53.1212C53.0391 49.372 52.9578 49.3559 52.882 49.3245C52.8062 49.2931 52.7373 49.2471 52.6792 49.1891C52.6212 49.131 52.5752 49.0621 52.5438 48.9863C52.5125 48.9104 52.4964 48.8292 52.4965 48.7471V41.2496C52.4964 41.1675 52.5125 41.0863 52.5438 41.0104C52.5752 40.9346 52.6212 40.8657 52.6792 40.8076C52.7373 40.7496 52.8062 40.7036 52.882 40.6722C52.9578 40.6408 53.0391 40.6247 53.1212 40.6248H63.118C63.2001 40.6247 63.2814 40.6408 63.3572 40.6722C63.433 40.7036 63.5019 40.7496 63.5599 40.8076C63.618 40.8657 63.664 40.9346 63.6953 41.0104C63.7267 41.0863 63.7428 41.1675 63.7427 41.2496V48.7471C63.7428 48.8292 63.7267 48.9104 63.6953 48.9863C63.664 49.0621 63.618 49.131 63.5599 49.1891C63.5019 49.2471 63.433 49.2931 63.3572 49.3245C63.2814 49.3559 63.2001 49.372 63.118 49.3719ZM53.7458 48.1224H62.493V41.8743H53.7458V48.1224ZM74.3647 43.124H65.6172C65.2721 43.124 64.9926 42.8444 64.9926 42.4991C64.9926 42.1538 65.2721 41.8743 65.6172 41.8743H74.3647C74.7099 41.8743 74.9894 42.1538 74.9894 42.4991C74.9894 42.8444 74.7099 43.124 74.3647 43.124ZM74.3647 45.6232H65.6172C65.2721 45.6232 64.9926 45.3437 64.9926 44.9983C64.9926 44.653 65.2721 44.3735 65.6172 44.3735H74.3647C74.7099 44.3735 74.9894 44.653 74.9894 44.9983C74.9894 45.3437 74.7099 45.6232 74.3647 45.6232ZM70.6155 48.1224H65.6171C65.2719 48.1224 64.9924 47.8429 64.9924 47.4976C64.9924 47.1523 65.2719 46.8727 65.6171 46.8727H70.6155C70.961 46.8727 71.2405 47.1523 71.2405 47.4976C71.2405 47.8429 70.961 48.1224 70.6155 48.1224Z" fill="black"/>
<path d="M63.118 60.6185H53.1212C53.0391 60.6186 52.9578 60.6025 52.882 60.5711C52.8062 60.5397 52.7373 60.4937 52.6793 60.4357C52.6213 60.3777 52.5753 60.3088 52.5439 60.233C52.5125 60.1572 52.4964 60.0759 52.4965 59.9938V52.4962C52.4964 52.4141 52.5125 52.3329 52.5439 52.257C52.5753 52.1812 52.6213 52.1123 52.6793 52.0543C52.7373 51.9962 52.8062 51.9502 52.882 51.9188C52.9578 51.8874 53.0391 51.8713 53.1212 51.8713H63.118C63.2001 51.8713 63.2813 51.8874 63.3572 51.9188C63.433 51.9502 63.5019 51.9962 63.5599 52.0543C63.6179 52.1123 63.6639 52.1812 63.6953 52.257C63.7267 52.3329 63.7428 52.4141 63.7427 52.4962V59.9938C63.7428 60.0759 63.7267 60.1572 63.6953 60.233C63.6639 60.3088 63.6179 60.3777 63.5599 60.4357C63.5019 60.4937 63.433 60.5397 63.3572 60.5711C63.2813 60.6025 63.2001 60.6186 63.118 60.6185ZM53.7458 59.369H62.493V53.121H53.7458V59.369ZM74.3647 54.3706H65.6172C65.5352 54.3706 65.4539 54.3545 65.3781 54.3231C65.3023 54.2917 65.2334 54.2457 65.1754 54.1876C65.1174 54.1296 65.0713 54.0607 65.04 53.9849C65.0086 53.909 64.9925 53.8278 64.9926 53.7457C64.9925 53.6637 65.0086 53.5824 65.04 53.5066C65.0714 53.4308 65.1174 53.3619 65.1754 53.3039C65.2334 53.2459 65.3023 53.1999 65.3781 53.1685C65.4539 53.1371 65.5352 53.121 65.6172 53.121H74.3647C74.4468 53.121 74.528 53.1371 74.6039 53.1685C74.6797 53.1999 74.7485 53.2459 74.8066 53.3039C74.8646 53.3619 74.9106 53.4308 74.942 53.5066C74.9733 53.5824 74.9895 53.6637 74.9894 53.7457C74.9895 53.8278 74.9734 53.909 74.942 53.9849C74.9106 54.0607 74.8646 54.1296 74.8066 54.1876C74.7486 54.2457 74.6797 54.2917 74.6039 54.3231C74.5281 54.3545 74.4468 54.3706 74.3647 54.3706ZM74.3647 56.8698H65.6172C65.5352 56.8698 65.4539 56.8537 65.3781 56.8223C65.3023 56.7909 65.2334 56.7449 65.1754 56.6869C65.1174 56.6289 65.0714 56.56 65.04 56.4842C65.0086 56.4084 64.9925 56.3271 64.9926 56.2451C64.9925 56.163 65.0086 56.0818 65.04 56.0059C65.0713 55.9301 65.1174 55.8612 65.1754 55.8032C65.2334 55.7451 65.3023 55.6991 65.3781 55.6677C65.4539 55.6363 65.5352 55.6202 65.6172 55.6202H74.3647C74.4468 55.6202 74.5281 55.6363 74.6039 55.6677C74.6797 55.6991 74.7486 55.7451 74.8066 55.8032C74.8646 55.8612 74.9106 55.9301 74.942 56.0059C74.9734 56.0818 74.9895 56.163 74.9894 56.2451C74.9895 56.3271 74.9733 56.4084 74.942 56.4842C74.9106 56.56 74.8646 56.6289 74.8066 56.6869C74.7485 56.7449 74.6797 56.7909 74.6039 56.8223C74.528 56.8537 74.4468 56.8698 74.3647 56.8698ZM70.6155 59.369H65.6171C65.535 59.369 65.4538 59.3529 65.3779 59.3215C65.3021 59.2901 65.2332 59.2441 65.1752 59.1861C65.1172 59.128 65.0712 59.0591 65.0398 58.9833C65.0085 58.9075 64.9923 58.8262 64.9924 58.7442C64.9924 58.6621 65.0085 58.5809 65.0399 58.505C65.0712 58.4292 65.1173 58.3604 65.1753 58.3023C65.2333 58.2443 65.3022 58.1983 65.378 58.1669C65.4538 58.1356 65.535 58.1194 65.6171 58.1195H70.6155C70.961 58.1195 71.2405 58.3988 71.2405 58.7442C71.2406 58.8262 71.2244 58.9075 71.193 58.9834C71.1616 59.0592 71.1156 59.1281 71.0575 59.1861C70.9995 59.2442 70.9306 59.2902 70.8547 59.3216C70.7789 59.3529 70.6976 59.3691 70.6155 59.369Z" fill="black"/>
<path d="M74.3647 65.617H65.6172C65.5352 65.617 65.4539 65.6009 65.3781 65.5695C65.3023 65.5381 65.2334 65.4921 65.1754 65.4341C65.1174 65.3761 65.0714 65.3072 65.04 65.2314C65.0086 65.1556 64.9925 65.0743 64.9926 64.9923C64.9925 64.9102 65.0086 64.8289 65.04 64.7531C65.0713 64.6773 65.1174 64.6084 65.1754 64.5504C65.2334 64.4923 65.3023 64.4463 65.3781 64.4149C65.4539 64.3835 65.5352 64.3674 65.6172 64.3674H74.3647C74.4468 64.3674 74.5281 64.3835 74.6039 64.4149C74.6797 64.4463 74.7486 64.4923 74.8066 64.5504C74.8646 64.6084 74.9106 64.6773 74.942 64.7531C74.9734 64.8289 74.9895 64.9102 74.9894 64.9923C74.9895 65.0743 74.9733 65.1556 74.942 65.2314C74.9106 65.3072 74.8646 65.3761 74.8066 65.4341C74.7485 65.4921 74.6797 65.5381 74.6039 65.5695C74.528 65.6009 74.4468 65.617 74.3647 65.617Z" fill="black"/>
<path d="M49.3722 60.6185H4.38595C4.30389 60.6186 4.22263 60.6025 4.1468 60.5711C4.07097 60.5397 4.00207 60.4937 3.94404 60.4357C3.88601 60.3777 3.83998 60.3088 3.80859 60.233C3.7772 60.1572 3.76107 60.0759 3.76111 59.9938V52.4962C3.76107 52.4141 3.7772 52.3328 3.80859 52.257C3.83998 52.1812 3.886 52.1123 3.94403 52.0543C4.00206 51.9962 4.07096 51.9502 4.14679 51.9188C4.22261 51.8874 4.30389 51.8713 4.38595 51.8713H49.3724C49.4544 51.8713 49.5357 51.8875 49.6115 51.9189C49.6873 51.9503 49.7562 51.9963 49.8142 52.0543C49.8722 52.1123 49.9182 52.1812 49.9496 52.2571C49.981 52.3329 49.9971 52.4141 49.997 52.4962V59.9938C49.997 60.0759 49.9809 60.1571 49.9495 60.2329C49.9181 60.3087 49.8721 60.3776 49.814 60.4356C49.756 60.4936 49.6871 60.5396 49.6113 60.571C49.5355 60.6024 49.4543 60.6186 49.3722 60.6185ZM5.0108 59.369H48.7474V53.121H5.0108V59.369Z" fill="black"/>
<path d="M46.8729 55.6203H11.8836C11.8016 55.6203 11.7203 55.6042 11.6445 55.5728C11.5686 55.5414 11.4997 55.4954 11.4417 55.4374C11.3837 55.3793 11.3377 55.3104 11.3063 55.2346C11.2749 55.1588 11.2587 55.0775 11.2588 54.9955C11.2587 54.9134 11.2749 54.8321 11.3063 54.7563C11.3377 54.6805 11.3837 54.6116 11.4417 54.5535C11.4997 54.4955 11.5686 54.4495 11.6445 54.4181C11.7203 54.3867 11.8016 54.3706 11.8836 54.3706H46.8729C47.2183 54.3706 47.4979 54.65 47.4979 54.9955C47.4979 55.0775 47.4818 55.1588 47.4504 55.2347C47.419 55.3105 47.3729 55.3794 47.3149 55.4374C47.2568 55.4955 47.1879 55.5415 47.1121 55.5729C47.0362 55.6042 46.9549 55.6204 46.8729 55.6203Z" fill="black"/>
<path d="M24.3799 58.1196H11.8836C11.5383 58.1196 11.2588 57.84 11.2588 57.4947C11.2588 57.1494 11.5383 56.8699 11.8836 56.8699H24.3799C24.7252 56.8699 25.0047 57.1494 25.0047 57.4947C25.0047 57.84 24.7252 58.1196 24.3799 58.1196Z" fill="black"/>
<path d="M9.38494 58.1195H6.8851C6.80303 58.1196 6.72176 58.1034 6.64593 58.072C6.5701 58.0406 6.5012 57.9946 6.44317 57.9366C6.38514 57.8786 6.33912 57.8097 6.30773 57.7338C6.27635 57.658 6.26021 57.5767 6.26025 57.4947V54.9955C6.26021 54.9134 6.27635 54.8321 6.30773 54.7563C6.33912 54.6805 6.38514 54.6116 6.44317 54.5535C6.5012 54.4955 6.5701 54.4495 6.64593 54.4181C6.72176 54.3867 6.80303 54.3706 6.8851 54.3706H9.38494C9.46701 54.3706 9.54828 54.3867 9.62411 54.4181C9.69994 54.4495 9.76883 54.4955 9.82686 54.5535C9.88489 54.6116 9.93092 54.6805 9.96231 54.7563C9.99369 54.8321 10.0098 54.9134 10.0098 54.9955V57.4947C10.0098 57.5767 9.99369 57.658 9.96231 57.7338C9.93092 57.8097 9.88489 57.8786 9.82686 57.9366C9.76883 57.9946 9.69994 58.0406 9.62411 58.072C9.54828 58.1034 9.46701 58.1196 9.38494 58.1195ZM7.50994 56.8698H8.7601V55.6203H7.50994V56.8698Z" fill="url(#paint0_linear_48_1200)"/>
<path d="M4.38595 65.617C4.30389 65.617 4.22263 65.6009 4.1468 65.5696C4.07097 65.5382 4.00207 65.4922 3.94404 65.4342C3.88601 65.3761 3.83998 65.3073 3.80859 65.2314C3.7772 65.1556 3.76107 65.0744 3.76111 64.9923V63.7426C3.76107 63.6606 3.7772 63.5793 3.80859 63.5035C3.83998 63.4276 3.88601 63.3588 3.94404 63.3007C4.00207 63.2427 4.07097 63.1967 4.1468 63.1653C4.22263 63.134 4.30389 63.1179 4.38595 63.1179C4.46801 63.1179 4.54928 63.134 4.62511 63.1653C4.70093 63.1967 4.76983 63.2427 4.82787 63.3007C4.8859 63.3588 4.93192 63.4276 4.96331 63.5035C4.9947 63.5793 5.01084 63.6606 5.0108 63.7426V64.9923C5.01084 65.0744 4.9947 65.1556 4.96331 65.2314C4.93192 65.3073 4.8859 65.3761 4.82787 65.4342C4.76983 65.4922 4.70093 65.5382 4.62511 65.5696C4.54928 65.6009 4.46801 65.617 4.38595 65.617Z" fill="black"/>
<path d="M49.3722 64.3675H4.38595C4.30389 64.3675 4.22261 64.3514 4.14679 64.32C4.07096 64.2886 4.00206 64.2426 3.94403 64.1845C3.886 64.1265 3.83998 64.0576 3.80859 63.9818C3.7772 63.9059 3.76107 63.8247 3.76111 63.7426C3.76107 63.6606 3.7772 63.5793 3.80859 63.5035C3.83998 63.4276 3.88601 63.3588 3.94404 63.3007C4.00207 63.2427 4.07097 63.1967 4.1468 63.1653C4.22263 63.134 4.30389 63.1179 4.38595 63.1179H49.3724C49.4544 63.1179 49.5357 63.134 49.6115 63.1654C49.6873 63.1968 49.7562 63.2428 49.8142 63.3008C49.8722 63.3588 49.9182 63.4277 49.9496 63.5035C49.981 63.5793 49.9971 63.6606 49.997 63.7426C49.9971 63.8247 49.9809 63.9059 49.9495 63.9818C49.9181 64.0576 49.8721 64.1265 49.8141 64.1845C49.7561 64.2425 49.6872 64.2885 49.6113 64.3199C49.5355 64.3513 49.4543 64.3675 49.3722 64.3675Z" fill="black"/>
<path d="M49.3722 65.617C49.0267 65.617 48.7472 65.3376 48.7472 64.9923V63.7426C48.7472 63.6605 48.7633 63.5793 48.7947 63.5035C48.8261 63.4276 48.8722 63.3588 48.9302 63.3007C48.9883 63.2427 49.0572 63.1967 49.133 63.1653C49.2089 63.134 49.2901 63.1179 49.3722 63.1179C49.4542 63.1179 49.5355 63.134 49.6113 63.1654C49.6871 63.1968 49.756 63.2428 49.814 63.3008C49.872 63.3588 49.918 63.4277 49.9494 63.5035C49.9808 63.5793 49.9969 63.6606 49.9969 63.7426V64.9923C49.9969 65.0743 49.9808 65.1556 49.9494 65.2314C49.918 65.3072 49.872 65.3761 49.814 65.4341C49.756 65.4921 49.6871 65.5381 49.6113 65.5695C49.5355 65.6009 49.4542 65.617 49.3722 65.617Z" fill="black"/>
<path d="M53.1212 65.617C53.0391 65.617 52.9578 65.6009 52.882 65.5696C52.8062 65.5382 52.7373 65.4922 52.6793 65.4342C52.6213 65.3761 52.5753 65.3072 52.5439 65.2314C52.5125 65.1556 52.4964 65.0743 52.4965 64.9923V63.7426C52.4965 63.3973 52.7757 63.1179 53.1212 63.1179C53.4666 63.1179 53.7458 63.3973 53.7458 63.7426V64.9923C53.7459 65.0743 53.7298 65.1556 53.6984 65.2314C53.667 65.3072 53.621 65.3761 53.563 65.4342C53.505 65.4922 53.4361 65.5382 53.3603 65.5696C53.2845 65.6009 53.2032 65.617 53.1212 65.617Z" fill="black"/>
<path d="M63.118 64.3675H53.1212C53.0391 64.3675 52.9578 64.3514 52.882 64.32C52.8062 64.2886 52.7373 64.2426 52.6792 64.1846C52.6212 64.1265 52.5752 64.0576 52.5438 63.9818C52.5125 63.906 52.4964 63.8247 52.4965 63.7426C52.4964 63.6606 52.5125 63.5793 52.5439 63.5035C52.5753 63.4277 52.6213 63.3588 52.6793 63.3008C52.7373 63.2427 52.8062 63.1967 52.882 63.1653C52.9578 63.134 53.0391 63.1179 53.1212 63.1179H63.118C63.2001 63.1179 63.2813 63.134 63.3572 63.1653C63.433 63.1967 63.5019 63.2427 63.5599 63.3008C63.6179 63.3588 63.6639 63.4277 63.6953 63.5035C63.7267 63.5793 63.7428 63.6606 63.7427 63.7426C63.7428 63.8247 63.7267 63.906 63.6953 63.9818C63.664 64.0576 63.618 64.1265 63.5599 64.1846C63.5019 64.2426 63.433 64.2886 63.3572 64.32C63.2814 64.3514 63.2001 64.3675 63.118 64.3675Z" fill="black"/>
<path d="M63.1179 65.617C62.7725 65.617 62.4929 65.3376 62.4929 64.9923V63.7426C62.4929 63.3973 62.7725 63.1179 63.1179 63.1179C63.4634 63.1179 63.7426 63.3973 63.7426 63.7426V64.9923C63.7427 65.0743 63.7266 65.1556 63.6952 65.2314C63.6638 65.3072 63.6178 65.3761 63.5598 65.4342C63.5018 65.4922 63.4329 65.5382 63.3571 65.5696C63.2812 65.6009 63.2 65.617 63.1179 65.617Z" fill="black"/>
<defs>
<linearGradient id="paint0_linear_48_1200" x1="5.87487" y1="54.0629" x2="10.4592" y2="54.7648" gradientUnits="userSpaceOnUse">
<stop stop-color="#FC365F"/>
<stop offset="0.984375" stop-color="#A00BFB"/>
</linearGradient>
</defs>
</svg>
