<svg width="74" height="68" viewBox="0 0 74 68" fill="none" xmlns="http://www.w3.org/2000/svg">
<path d="M53.6667 13.9998V48.264L58.6667 53.3008L63.6667 48.264V13.9998H53.6667ZM53.6667 10.6665H63.6667V4.0489H53.6667V10.6665ZM67 17.3332V48.9508C67 49.3907 66.8261 49.8128 66.5162 50.125L59.8495 56.8407C59.1977 57.4973 58.1357 57.4973 57.4839 56.8407L50.8172 50.125C50.5073 49.8128 50.3334 49.3907 50.3334 48.9508V40.6665H48.6667C45.9053 40.6665 43.6667 38.4279 43.6667 35.6665V25.6665C43.6667 22.9051 45.9053 20.6665 48.6667 20.6665H50.3334V17.3332H17V42.3332C17 43.2536 16.2538 43.9998 15.3334 43.9998H13.6667C8.14386 43.9998 3.66671 48.477 3.66671 53.9998C3.66671 59.5227 8.14386 63.9998 13.6667 63.9998H70.3334V17.3332H67ZM67 13.9998H72C72.9205 13.9998 73.6667 14.746 73.6667 15.6665V65.6665C73.6667 66.587 72.9205 67.3332 72 67.3332H13.6667C6.30291 67.3332 0.333374 61.3636 0.333374 53.9998V15.6665C0.333374 7.38223 7.0491 0.666504 15.3334 0.666504C16.2538 0.666504 17 1.4127 17 2.33317V13.9998H50.3334V2.38223C50.3334 1.46176 51.0796 0.715566 52 0.715566H65.3334C66.2538 0.715566 67 1.46176 67 2.38223V13.9998ZM50.3334 23.9998H48.6667C47.7462 23.9998 47 24.746 47 25.6665V35.6665C47 36.587 47.7462 37.3332 48.6667 37.3332H50.3334V23.9998ZM3.66671 45.1804C6.10985 42.4124 9.6844 40.6665 13.6667 40.6665V4.11799C8.01288 4.9267 3.66671 9.78905 3.66671 15.6665V45.1804ZM25.3334 20.6665H35.3334C38.0948 20.6665 40.3334 22.9051 40.3334 25.6665V35.6665C40.3334 38.4279 38.0948 40.6665 35.3334 40.6665H25.3334C22.5719 40.6665 20.3334 38.4279 20.3334 35.6665V25.6665C20.3334 22.9051 22.5719 20.6665 25.3334 20.6665ZM25.3334 23.9998C24.4129 23.9998 23.6667 24.746 23.6667 25.6665V35.6665C23.6667 36.587 24.4129 37.3332 25.3334 37.3332H35.3334C36.2538 37.3332 37 36.587 37 35.6665V25.6665C37 24.746 36.2538 23.9998 35.3334 23.9998H25.3334ZM22 50.6665C21.0796 50.6665 20.3334 49.9203 20.3334 48.9998C20.3334 48.0794 21.0796 47.3332 22 47.3332H45.3334C46.2538 47.3332 47 48.0794 47 48.9998C47 49.9203 46.2538 50.6665 45.3334 50.6665H22ZM22 57.3332C21.0796 57.3332 20.3334 56.587 20.3334 55.6665C20.3334 54.746 21.0796 53.9998 22 53.9998H48.6667C49.5872 53.9998 50.3334 54.746 50.3334 55.6665C50.3334 56.587 49.5872 57.3332 48.6667 57.3332H22Z" fill="url(#paint0_linear_48_1081)"/>
<defs>
<linearGradient id="paint0_linear_48_1081" x1="-7.20392" y1="-4.80485" x2="82.0272" y2="10.2206" gradientUnits="userSpaceOnUse">
<stop stop-color="#FC365F"/>
<stop offset="0.984375" stop-color="#A00BFB"/>
</linearGradient>
</defs>
</svg>
