<svg width="80" height="76" viewBox="0 0 80 76" fill="none" xmlns="http://www.w3.org/2000/svg">
<path fill-rule="evenodd" clip-rule="evenodd" d="M45.8743 34.5578C45.8743 38.6706 45.9723 42.0991 43.8976 45.7531C42.222 48.7253 39.5552 50.5497 36.5931 50.5497C32.5454 50.5497 30.176 47.4669 30.176 42.8967C30.176 33.9084 38.2396 32.2744 45.8743 32.2744V34.5578ZM56.5157 60.2898C55.8157 60.9156 54.8073 60.9591 54.0202 60.5347C50.5131 57.6222 49.8856 56.2748 47.9706 53.502C42.1784 59.4031 38.0745 61.173 30.5712 61.173C21.6851 61.173 14.7759 55.6909 14.7759 44.7247C14.7759 36.157 19.4146 30.3322 26.0295 27.4756C31.7556 24.9622 39.7538 24.5063 45.8741 23.8198V22.4489C45.8741 19.9373 46.0699 16.9659 44.5901 14.7959C43.3062 12.8538 40.8381 12.055 38.6674 12.055C34.6424 12.055 31.0627 14.1169 30.1849 18.3912C30.0009 19.3434 29.3081 20.2834 28.3498 20.3327L18.1218 19.2245C17.2587 19.0306 16.2974 18.3367 16.5477 17.0184C18.8971 4.60891 30.1043 0.859375 40.1473 0.859375C45.2812 0.859375 51.9946 2.23031 56.0424 6.11406C61.1763 10.9125 60.6831 17.3094 60.6831 24.2778V40.7189C60.6831 45.6642 62.7359 47.835 64.6654 50.5025C65.3399 51.46 65.4923 52.6025 64.6327 53.3025C62.4765 55.1105 58.6446 58.4383 56.5373 60.3134L56.5157 60.2898ZM70.9782 63.2152C61.1781 67.3717 50.5276 69.3809 40.8401 69.3809C26.4756 69.3809 12.5707 65.442 1.32727 58.8972C0.342583 58.3241 -0.386479 59.3342 0.43149 60.0741C10.8537 69.4859 24.626 75.1405 39.9209 75.1405C50.8343 75.1405 63.5066 71.7075 72.2495 65.257C73.6946 64.1872 72.4562 62.5877 70.9782 63.2152ZM73.5877 71.0711C73.2685 71.8689 73.9541 72.1917 74.6759 71.5861C79.3656 67.6617 80.577 59.443 79.6157 58.2553C78.6637 57.0784 70.4649 56.0645 65.4596 59.5773C64.6907 60.1213 64.8249 60.8648 65.6774 60.7633C68.4956 60.4242 74.7684 59.6717 75.8873 61.1044C77.0043 62.5369 74.6432 68.4342 73.5877 71.0711Z" fill="#010101"/>
</svg>
