<svg width="80" height="80" viewBox="0 0 80 80" fill="none" xmlns="http://www.w3.org/2000/svg">
<g clip-path="url(#clip0_48_1099)">
<path d="M77.1134 0H2.88656C1.295 0 0 1.295 0 2.88656V77.1134C0 78.705 1.295 80 2.88656 80H77.1134C78.705 80 80 78.705 80 77.1134V2.88656C80 1.295 78.705 0 77.1134 0ZM77.5258 77.1134C77.5258 77.3369 77.3369 77.5258 77.1134 77.5258H2.88656C2.66313 77.5258 2.47422 77.3369 2.47422 77.1134V2.88656C2.47422 2.66313 2.66313 2.47422 2.88656 2.47422H77.1134C77.3369 2.47422 77.5258 2.66313 77.5258 2.88656V77.1134Z" fill="black"/>
<path d="M40 6.5979C25.2201 6.5979 13.1959 18.6221 13.1959 33.402C13.1959 48.1818 25.2201 60.2062 40 60.2062C54.7798 60.2062 66.804 48.182 66.804 33.4021C66.804 18.6223 54.7798 6.5979 40 6.5979ZM41.2372 9.10321C53.6703 9.72899 63.673 19.7316 64.2987 32.1648H59.3409C58.7265 22.4613 50.9406 14.6754 41.2372 14.061V9.10321ZM56.9072 33.402C56.9072 42.7246 49.3226 50.3092 40 50.3092C30.6773 50.3092 23.0928 42.7246 23.0928 33.402C23.0928 24.0793 30.6773 16.4948 40 16.4948C49.3226 16.4948 56.9072 24.0793 56.9072 33.402ZM40 57.732C26.5844 57.732 15.6701 46.8176 15.6701 33.4021C15.6701 20.4013 25.92 9.74978 38.763 9.10337V14.0612C28.6505 14.7015 20.6186 23.1307 20.6186 33.4021C20.6186 44.0891 29.313 52.7835 40 52.7835C50.2714 52.7835 58.7005 44.7518 59.3409 34.6391H64.2987C63.6523 47.4821 53.0008 57.732 40 57.732Z" fill="black"/>
<path d="M40 21.4434C33.4058 21.4434 28.0413 26.808 28.0413 33.4021C28.0413 39.9962 33.4059 45.3609 40 45.3609C46.5941 45.3609 51.9588 39.9962 51.9588 33.4021C51.9588 26.808 46.5942 21.4434 40 21.4434ZM40 42.8866C34.7702 42.8866 30.5155 38.632 30.5155 33.4021C30.5155 28.1723 34.7702 23.9176 40 23.9176C45.2299 23.9176 49.4845 28.1723 49.4845 33.4021C49.4845 38.632 45.2299 42.8866 40 42.8866Z" fill="url(#paint0_linear_48_1099)"/>
<path d="M22.6803 67.6289H7.83502V70.1031H22.6803V67.6289Z" fill="url(#paint1_linear_48_1099)"/>
<path d="M72.1648 67.6289H57.3195V70.1031H72.1648V67.6289Z" fill="black"/>
<path d="M28.4536 67.6289H25.1547V70.1031H28.4536V67.6289Z" fill="black"/>
<path d="M34.2267 67.6289H30.9278V70.1031H34.2267V67.6289Z" fill="black"/>
<path d="M40 67.6289H36.7011V70.1031H40V67.6289Z" fill="url(#paint2_linear_48_1099)"/>
<path d="M19.3814 61.8557H7.83502V64.3299H19.3814V61.8557Z" fill="black"/>
<path d="M72.165 61.8557H63.9175V64.3299H72.165V61.8557Z" fill="url(#paint3_linear_48_1099)"/>
</g>
<defs>
<linearGradient id="paint0_linear_48_1099" x1="25.583" y1="19.4804" x2="54.8255" y2="23.9569" gradientUnits="userSpaceOnUse">
<stop stop-color="#FC365F"/>
<stop offset="0.984375" stop-color="#A00BFB"/>
</linearGradient>
<linearGradient id="paint1_linear_48_1099" x1="6.3092" y1="67.4258" x2="16.385" y2="76.6803" gradientUnits="userSpaceOnUse">
<stop stop-color="#FC365F"/>
<stop offset="0.984375" stop-color="#A00BFB"/>
</linearGradient>
<linearGradient id="paint2_linear_48_1099" x1="36.362" y1="67.4258" x2="40.3249" y2="68.2347" gradientUnits="userSpaceOnUse">
<stop stop-color="#FC365F"/>
<stop offset="0.984375" stop-color="#A00BFB"/>
</linearGradient>
<linearGradient id="paint3_linear_48_1099" x1="63.0698" y1="61.6527" x2="71.2578" y2="65.8308" gradientUnits="userSpaceOnUse">
<stop stop-color="#FC365F"/>
<stop offset="0.984375" stop-color="#A00BFB"/>
</linearGradient>
<clipPath id="clip0_48_1099">
<rect width="80" height="80" fill="white"/>
</clipPath>
</defs>
</svg>
