<svg width="80" height="80" viewBox="0 0 80 80" fill="none" xmlns="http://www.w3.org/2000/svg">
<g clip-path="url(#clip0_48_1257)">
<path d="M43.6175 25.2141H6.20378C5.413 25.2141 4.77222 25.8551 4.77222 26.6457V50.6973C4.77222 51.4879 5.413 52.1288 6.20378 52.1288C6.99456 52.1288 7.6355 51.4879 7.6355 50.6973V28.0772H42.1857V59.4696H34.0551C33.8826 56.3835 32.2329 53.6865 29.803 52.074C33.3743 50.1979 35.8171 46.4538 35.8171 42.1474C35.8171 35.9679 30.7898 30.9405 24.6102 30.9405C23.098 30.9405 21.6304 31.2369 20.2476 31.8218C19.5196 32.1299 19.1787 32.9698 19.4869 33.698C19.7949 34.4263 20.6349 34.7669 21.3632 34.459C22.3908 34.0243 23.4833 33.8038 24.6105 33.8038C26.4198 33.8038 28.0949 34.3844 29.4634 35.3668C27.7026 37.2374 23.2777 41.0101 16.373 40.8145C16.5736 39.5609 17.0569 38.3729 17.8008 37.3248C18.2583 36.6799 18.1068 35.7862 17.4621 35.3287C16.8172 34.8708 15.9233 35.0229 15.466 35.6674C14.1379 37.5388 13.4275 39.7396 13.4055 42.0382C13.2663 43.126 12.0861 53.091 14.6527 59.4695H7.6355V55.4692C7.6355 54.6785 6.99472 54.0376 6.20378 54.0376C5.413 54.0376 4.77222 54.6785 4.77222 55.4692V60.9012C4.77222 61.6918 5.413 62.3328 6.20378 62.3328H43.6173C44.4081 62.3328 45.0489 61.6918 45.0489 60.9012V26.6457C45.049 25.8551 44.4082 25.2141 43.6175 25.2141ZM21.2566 43.2123C21.2602 43.2209 21.2619 43.2301 21.2658 43.2388C21.4924 43.7501 22.013 44.0906 22.5729 44.0906C23.2757 44.0906 23.8835 43.562 23.9883 42.8695C24.0135 42.7026 24.008 42.5438 23.9791 42.3943C27.6023 41.011 30.1148 38.8248 31.4704 37.4063C32.4046 38.754 32.954 40.3876 32.954 42.1477C32.954 46.7485 29.2112 50.4914 24.6104 50.4914C20.5329 50.4914 17.1315 47.5506 16.4099 43.6791C18.164 43.7198 19.7804 43.5407 21.2566 43.2123ZM16.3921 55.1253C16.033 53.1779 15.9005 51.0859 15.8833 49.1678C16.8324 50.3449 18.0132 51.3268 19.3571 52.0432C18.1518 52.8329 17.1351 53.8876 16.3921 55.1253ZM17.9279 59.4698C18.2024 56.0521 21.0693 53.3546 24.5563 53.3546C28.0434 53.3546 30.9101 56.0523 31.1845 59.4698H17.9279Z" fill="url(#paint0_linear_48_1257)"/>
<path d="M79.9569 27.6729C79.8645 27.3046 79.6294 26.9882 79.3034 26.7934L39.0074 2.68629C38.3291 2.28067 37.4498 2.50145 37.044 3.17973L32.1901 11.2922L22.6271 7.30287C21.8974 6.9988 21.0591 7.34318 20.7544 8.07287L15.595 20.4416H1.43157C0.640783 20.4418 0 21.0827 0 21.8734V76.0849C0 76.8755 0.640783 77.5164 1.43157 77.5164H48.3895C49.1803 77.5164 49.821 76.8755 49.821 76.0849V75.6657L50.0004 75.7732C50.2306 75.911 50.4837 75.9763 50.734 75.9763C51.2209 75.9763 51.6957 75.7277 51.9639 75.2796L79.797 28.757C79.992 28.431 80.0494 28.0412 79.9569 27.6729ZM22.8463 10.4966L30.7049 13.7749L29.3996 15.9568L25.0436 14.1404C24.3146 13.8362 23.4758 14.1808 23.1713 14.9105L20.8643 20.4418H18.6977L22.8463 10.4966ZM27.914 18.4396L26.716 20.4418H23.9665L25.2627 17.334L27.914 18.4396ZM46.9579 74.6533H2.86329V23.3051H16.5389C16.5422 23.3051 16.5452 23.3054 16.5485 23.3054C16.5505 23.3054 16.5527 23.3051 16.5547 23.3051H21.8097C21.8122 23.3051 21.8149 23.3054 21.8174 23.3054C21.8191 23.3054 21.8208 23.3051 21.8225 23.3051H46.9579V74.6533ZM49.8209 40.5986V29.0006C50.5995 28.342 51.5218 27.9429 52.4593 27.8667C53.4451 27.7867 54.3292 28.0813 54.946 28.6987C55.3784 29.1304 55.5848 29.7562 55.5273 30.4607C55.4626 31.2535 55.0831 32.0346 54.4581 32.6599C54.1785 32.9396 54.039 33.306 54.0393 33.6726C54.0395 34.0392 54.1798 34.4054 54.4595 34.685C55.0192 35.2439 55.9257 35.2431 56.484 34.684C57.1082 34.0592 57.8886 33.6796 58.6817 33.6148C59.3864 33.5579 60.0132 33.7635 60.4445 34.1951C61.7809 35.5328 61.5078 37.9826 59.8364 39.6553C58.4362 41.0548 54.84 41.8322 49.8209 40.5986ZM50.2418 72.5813L49.821 72.3297V57.9711L53.7015 60.2925C53.9317 60.4302 54.185 60.4956 54.4353 60.4956C54.9221 60.4956 55.397 60.247 55.6651 59.7989L68.743 37.9387C69.1487 37.2601 68.928 36.381 68.2494 35.9751C67.5711 35.5693 66.6918 35.7901 66.2858 36.4685L53.9431 57.1L49.821 54.6344V43.5297C51.3753 43.8623 53.0123 44.0686 54.6004 44.0686C57.4439 44.0686 60.1245 43.4151 61.8612 41.6798C64.6481 38.8906 64.9212 34.6251 62.4698 32.171C61.4336 31.1349 60.0068 30.6351 58.449 30.761C58.4242 30.7631 58.3996 30.7653 58.3748 30.7676C58.3773 30.7429 58.3792 30.7184 58.3814 30.6937C58.5082 29.1368 58.0068 27.709 56.9709 26.6742C55.7514 25.4532 54.0682 24.8626 52.227 25.0129C51.4006 25.0802 50.5882 25.297 49.821 25.6442V21.8734C49.821 21.0827 49.1803 20.4416 48.3893 20.4416H35.6127L40.4093 12.4238L70.0591 30.1609L68.5373 32.7045C68.1315 33.3831 68.3523 34.2621 69.0309 34.6681C69.2611 34.8059 69.5144 34.8714 69.7647 34.8714C70.2515 34.8714 70.7264 34.6228 70.9945 34.1746L73.2512 30.4026C73.4461 30.0768 73.5036 29.6868 73.4111 29.3185C73.3187 28.9503 73.0836 28.634 72.7576 28.4392L40.6506 9.23224C39.9723 8.82662 39.093 9.04724 38.687 9.72568L32.2758 20.4423H30.0521L38.7657 5.87896L76.6045 28.5159L50.2418 72.5813Z" fill="black"/>
<path d="M29.0216 41.5894C28.0562 42.4443 28.6851 44.0905 29.9732 44.0905C30.6648 44.0905 31.2687 43.5754 31.3848 42.8954C31.6068 41.5936 30.0092 40.715 29.0216 41.5894Z" fill="#48DBFB"/>
</g>
<defs>
<linearGradient id="paint0_linear_48_1257" x1="0.632532" y1="22.1678" x2="49.6771" y2="30.3143" gradientUnits="userSpaceOnUse">
<stop stop-color="#FC365F"/>
<stop offset="0.984375" stop-color="#A00BFB"/>
</linearGradient>
<clipPath id="clip0_48_1257">
<rect width="80" height="80" fill="white"/>
</clipPath>
</defs>
</svg>
