<svg width="48" height="48" viewBox="0 0 48 48" fill="none" xmlns="http://www.w3.org/2000/svg">
<path d="M16.1 29.4399L14.1 27.4399L7.89998 29.4199H7.69998C7.60252 29.426 7.50488 29.4113 7.41351 29.3768C7.32215 29.3423 7.23914 29.2889 7.16998 29.2199L5.71998 27.7899C5.60285 27.6785 5.5279 27.53 5.50785 27.3696C5.4878 27.2092 5.52388 27.0468 5.60998 26.9099L7.29998 23.9999C8.34675 22.2085 9.8071 20.6937 11.559 19.582C13.3109 18.4703 15.3034 17.7941 17.37 17.6099L19.86 17.3899M19.86 17.3899C21.3067 15.6699 22.64 14.1966 23.86 12.9699C26.1748 10.518 28.9379 8.53218 32 7.11993C35.121 5.9533 38.4396 5.40643 41.77 5.50993C41.9715 5.51172 42.1646 5.59042 42.31 5.72993C42.3792 5.79353 42.4345 5.8708 42.4724 5.95686C42.5103 6.04292 42.5299 6.1359 42.53 6.22993C42.5982 9.57026 42.0034 12.891 40.78 15.9999C39.4041 19.071 37.4406 21.8431 35 24.1599C33.77 25.3999 32.29 26.7299 30.58 28.1599L30.36 30.6399C30.1805 32.7055 29.5096 34.6982 28.4032 36.4517C27.2969 38.2053 25.7871 39.6687 24 40.7199L21.11 42.4099C20.996 42.47 20.8689 42.501 20.74 42.4999C20.5486 42.496 20.3647 42.4252 20.22 42.2999L18.77 40.8399C18.6764 40.7504 18.6098 40.6363 18.578 40.5108C18.5462 40.3852 18.5503 40.2532 18.59 40.1299L20.52 33.8599M19.86 17.3899L14.15 27.4899M20.52 33.8599L18.58 31.9199M20.52 33.8599L30.62 28.1599M37.42 14.6999C37.4226 13.6143 36.9946 12.5719 36.2297 11.8014C35.4649 11.0309 34.4256 10.5952 33.34 10.5899C32.7839 10.5625 32.228 10.6483 31.706 10.8422C31.1841 11.0361 30.707 11.334 30.3037 11.7179C29.9004 12.1018 29.5793 12.5636 29.3599 13.0754C29.1405 13.5871 29.0273 14.1381 29.0273 14.6949C29.0273 15.2517 29.1405 15.8027 29.3599 16.3145C29.5793 16.8262 29.9004 17.288 30.3037 17.6719C30.707 18.0558 31.1841 18.3537 31.706 18.5477C32.228 18.7416 32.7839 18.8274 33.34 18.7999C34.418 18.8015 35.453 18.3774 36.22 17.6199C36.6058 17.2392 36.9103 16.7841 37.1148 16.2821C37.3194 15.7802 37.4198 15.2419 37.41 14.6999H37.42Z" stroke="url(#paint0_linear_265_881)" stroke-linecap="round" stroke-linejoin="round"/>
<path d="M13 35.0001C17 34.2601 24.1 27.6001 24.93 23.0701C20.37 23.9401 13.71 31.0001 13 35.0001Z" stroke="url(#paint1_linear_265_881)" stroke-linecap="round" stroke-linejoin="round"/>
<defs>
<linearGradient id="paint0_linear_265_881" x1="1.46015" y1="-5.40493" x2="50.4827" y2="0.153017" gradientUnits="userSpaceOnUse">
<stop stopColor="#FFBC21"/>
<stop offset="0.1344" stopColor="#FD843A"/>
<stop offset="0.2742" stopColor="#FC5554"/>
<stop offset="0.4301" stopColor="#FC365F"/>
<stop offset="0.6129" stopColor="#F02E6B"/>
<stop offset="0.817759" stopColor="#DD3578"/>
<stop offset="1" stopColor="#81399D"/>
</linearGradient>
<linearGradient id="paint1_linear_265_881" x1="11.6978" y1="19.555" x2="27.4906" y2="21.344" gradientUnits="userSpaceOnUse">
<stop stopColor="#FFBC21"/>
<stop offset="0.1344" stopColor="#FD843A"/>
<stop offset="0.2742" stopColor="#FC5554"/>
<stop offset="0.4301" stopColor="#FC365F"/>
<stop offset="0.6129" stopColor="#F02E6B"/>
<stop offset="0.817759" stopColor="#DD3578"/>
<stop offset="1" stopColor="#81399D"/>
</linearGradient>
</defs>
</svg>
