<svg width="39" height="39" viewBox="0 0 39 39" fill="none" xmlns="http://www.w3.org/2000/svg">
<path d="M36.5624 4.16203L34.8379 2.4375L21.0757 16.2008C20.9593 16.3133 20.8665 16.4478 20.8026 16.5964C20.7388 16.7451 20.7051 16.9051 20.7037 17.0669C20.7023 17.2287 20.7332 17.3892 20.7944 17.539C20.8557 17.6888 20.9462 17.8248 21.0606 17.9393C21.1751 18.0537 21.3111 18.1442 21.4609 18.2055C21.6107 18.2667 21.7712 18.2976 21.933 18.2962C22.0948 18.2948 22.2548 18.2612 22.4035 18.1973C22.5522 18.1334 22.6866 18.0406 22.7991 17.9242L27.0098 13.7134C27.6212 14.6293 27.972 15.6942 28.0247 16.7941C28.0774 17.8941 27.8299 18.9877 27.3088 19.9578C26.7877 20.9279 26.0125 21.738 25.0664 22.3014C24.1202 22.8648 23.0386 23.1603 21.9374 23.1562C21.6898 23.1509 21.4428 23.1305 21.1976 23.0953C20.2029 20.7009 18.3002 18.7982 15.9058 17.8035C15.7803 16.945 15.8433 16.0695 16.0905 15.2379C16.3377 14.4062 16.7631 13.6384 17.3372 12.9879C17.9113 12.3374 18.6202 11.8198 19.4146 11.4711C20.2091 11.1224 21.07 10.9509 21.9374 10.9688V8.53125C19.6756 8.53383 17.5071 9.43349 15.9077 11.0328C14.3084 12.6322 13.4087 14.8007 13.4062 17.0625C13.4062 17.0905 13.4135 17.1198 13.4135 17.1478C13.007 17.0938 12.5975 17.0653 12.1874 17.0625C11.3696 17.0655 10.5555 17.1719 9.76453 17.3794C9.76087 17.2733 9.7499 17.1698 9.7499 17.0625C9.75345 13.8313 11.0386 10.7334 13.3235 8.44856C15.6083 6.16372 18.7062 4.87855 21.9374 4.875V2.4375C18.06 2.44202 14.3427 3.98431 11.601 6.72605C8.85921 9.46779 7.31692 13.1851 7.3124 17.0625C7.3124 17.4952 7.33312 17.9229 7.36968 18.3471C6.06523 19.0881 4.94952 20.1203 4.10953 21.3634C3.26954 22.6064 2.72796 24.0266 2.52701 25.5133C2.32605 27.0001 2.47116 28.5131 2.95101 29.9345C3.43085 31.356 4.23248 32.6474 5.29341 33.7081C6.35433 34.7688 7.64589 35.5702 9.06741 36.0498C10.4889 36.5294 12.002 36.6742 13.4887 36.473C14.9754 36.2718 16.3955 35.7299 17.6384 34.8897C18.8812 34.0495 19.9133 32.9336 20.6541 31.629C21.0806 31.6656 21.5084 31.6875 21.9374 31.6875C24.7265 31.6913 27.4583 30.8964 29.81 29.3969C32.1617 27.8975 34.035 25.756 35.2083 23.2258C36.3817 20.6955 36.8061 17.8822 36.4314 15.1184C36.0567 12.3546 34.8985 9.75588 33.0938 7.62938L36.5624 4.16203ZM19.3902 25.5938H17.0088C16.8505 23.7562 16.3469 21.965 15.5243 20.3141C16.5339 20.8342 17.4087 21.5819 18.0796 22.4982C18.7506 23.4145 19.1992 24.4743 19.3902 25.5938ZM4.98459 28.0312H7.36603C7.52441 29.8688 8.02803 31.66 8.85047 33.3109C7.8409 32.7908 6.9661 32.0431 6.29518 31.1268C5.62425 30.2105 5.17557 29.1507 4.98459 28.0312ZM7.36481 25.5938H4.98459C5.17544 24.4744 5.62393 23.4147 6.29464 22.4984C6.96535 21.5822 7.83991 20.8344 8.84925 20.3141C8.02681 21.965 7.52319 23.7562 7.36481 25.5938ZM12.1874 34.1079C10.8606 32.3349 10.0412 30.2343 9.81693 28.0312H14.5579C14.3336 30.2343 13.5142 32.3349 12.1874 34.1079ZM9.81693 25.5938C10.0413 23.391 10.8607 21.2909 12.1874 19.5183C13.5142 21.2908 14.3337 23.391 14.5579 25.5938H9.81693ZM15.5243 33.3109C16.3472 31.6601 16.8512 29.8689 17.01 28.0312H19.3902C19.1992 29.1507 18.7506 30.2105 18.0796 31.1268C17.4087 32.0431 16.5339 32.7908 15.5243 33.3109ZM34.1249 17.0625C34.1214 20.2937 32.8362 23.3916 30.5513 25.6764C28.2665 27.9613 25.1686 29.2465 21.9374 29.25C21.8314 29.25 21.7266 29.2378 21.6205 29.2354C21.9409 28.0468 22.0197 26.806 21.8521 25.5864C21.8813 25.5864 21.9094 25.5938 21.9374 25.5938C23.5204 25.5934 25.0721 25.1525 26.4189 24.3206C27.7656 23.4886 28.8544 22.2984 29.5633 20.883C30.2722 19.4676 30.5733 17.8828 30.4329 16.3061C30.2926 14.7293 29.7163 13.2227 28.7685 11.9547L31.3669 9.35634C33.1515 11.5278 34.1264 14.2518 34.1249 17.0625Z" fill="url(#paint0_linear_280_913)"/>
<defs>
<linearGradient id="paint0_linear_280_913" x1="-1.28564" y1="-7.61676" x2="43.8881" y2="-2.49921" gradientUnits="userSpaceOnUse">
<stop stopColor="#FFBC21"/>
<stop offset="0.1344" stopColor="#FD843A"/>
<stop offset="0.2742" stopColor="#FC5554"/>
<stop offset="0.4301" stopColor="#FC365F"/>
<stop offset="0.6129" stopColor="#F02E6B"/>
<stop offset="0.817759" stopColor="#DD3578"/>
<stop offset="1" stopColor="#81399D"/>
</linearGradient>
</defs>
</svg>
