<svg width="39" height="39" viewBox="0 0 39 39" fill="none" xmlns="http://www.w3.org/2000/svg">
<path opacity="0.16" d="M9.75 6.5H19.5V32.5H9.75C8.88805 32.5 8.0614 32.1576 7.4519 31.5481C6.84241 30.9386 6.5 30.112 6.5 29.25V9.75C6.5 8.88805 6.84241 8.0614 7.4519 7.4519C8.0614 6.84241 8.88805 6.5 9.75 6.5Z" fill="url(#paint0_linear_280_902)"/>
<path d="M21.125 6.5H9.75C8.88805 6.5 8.0614 6.84241 7.4519 7.4519C6.84241 8.0614 6.5 8.88805 6.5 9.75V29.25C6.5 30.112 6.84241 30.9386 7.4519 31.5481C8.0614 32.1576 8.88805 32.5 9.75 32.5H21.125M27.625 6.5H29.25C30.112 6.5 30.9386 6.84241 31.5481 7.4519C32.1576 8.0614 32.5 8.88805 32.5 9.75V11.375M32.5 27.625V29.25C32.5 30.112 32.1576 30.9386 31.5481 31.5481C30.9386 32.1576 30.112 32.5 29.25 32.5H27.625M32.5 17.875V21.125M19.5 3.25V35.75" stroke="url(#paint1_linear_280_902)" stroke-width="2" stroke-linecap="round" stroke-linejoin="round"/>
<defs>
<linearGradient id="paint0_linear_280_902" x1="5.08099" y1="-1.16072" x2="22.4553" y2="-0.176614" gradientUnits="userSpaceOnUse">
<stop stop-color="#FFBC21"/>
<stop offset="0.1344" stop-color="#FD843A"/>
<stop offset="0.2742" stop-color="#FC5554"/>
<stop offset="0.4301" stop-color="#FC365F"/>
<stop offset="0.6129" stop-color="#F02E6B"/>
<stop offset="0.817759" stop-color="#DD3578"/>
<stop offset="1" stop-color="#81399D"/>
</linearGradient>
<linearGradient id="paint1_linear_280_902" x1="3.66199" y1="-6.32589" x2="38.2382" y2="-3.1924" gradientUnits="userSpaceOnUse">
<stop stop-color="#FFBC21"/>
<stop offset="0.1344" stop-color="#FD843A"/>
<stop offset="0.2742" stop-color="#FC5554"/>
<stop offset="0.4301" stop-color="#FC365F"/>
<stop offset="0.6129" stop-color="#F02E6B"/>
<stop offset="0.817759" stop-color="#DD3578"/>
<stop offset="1" stop-color="#81399D"/>
</linearGradient>
</defs>
</svg>
