<svg width="33" height="32" viewBox="0 0 33 32" fill="none" xmlns="http://www.w3.org/2000/svg">
<g clipPath="url(#clip0_280_915)">
<path d="M1.5 32H22.5C23.327 32 24 31.327 24 30.5V23C24 22.99 23.995 22.982 23.994 22.972C24.049 22.937 24.106 22.904 24.16 22.867L32.146 30.853C32.1921 30.9008 32.2472 30.939 32.3081 30.9653C32.3691 30.9916 32.4347 31.0054 32.5011 31.0061C32.5675 31.0068 32.6333 30.9942 32.6948 30.9692C32.7563 30.9441 32.8122 30.9071 32.8592 30.8602C32.9062 30.8133 32.9434 30.7575 32.9686 30.6961C32.9938 30.6347 33.0066 30.5689 33.0061 30.5025C33.0056 30.4361 32.9919 30.3705 32.9658 30.3095C32.9397 30.2484 32.9017 30.1932 32.854 30.147L24.941 22.234C25.5903 21.6282 26.1082 20.8953 26.4624 20.0809C26.8166 19.2666 26.9996 18.3881 27 17.5C26.999 16.4088 26.7231 15.3354 26.1977 14.3791C25.6723 13.4227 24.9144 12.6141 23.994 12.028C23.995 12.018 24 12.01 24 12V9.5C24 9.483 23.992 9.469 23.991 9.453C23.989 9.43 23.983 9.41 23.978 9.388C23.9623 9.31853 23.9316 9.25334 23.888 9.197C23.881 9.188 23.882 9.177 23.875 9.168L15.875 0.168C15.872 0.165 15.868 0.165 15.865 0.162C15.8041 0.0980553 15.727 0.0517567 15.642 0.028C15.623 0.022 15.606 0.02 15.586 0.017C15.557 0.012 15.53 0 15.5 0H1.5C0.673 0 0 0.673 0 1.5V30.5C0 31.327 0.673 32 1.5 32ZM26 17.5C26 20.533 23.532 23 20.5 23C17.468 23 15 20.533 15 17.5C15 14.467 17.468 12 20.5 12C23.532 12 26 14.467 26 17.5ZM16 1.815L22.387 9H16.5C16.28 9 16 8.58 16 8.25V1.815ZM1 1.5C1 1.36739 1.05268 1.24021 1.14645 1.14645C1.24021 1.05268 1.36739 1 1.5 1H15V8.25C15 9.059 15.655 10 16.5 10H23V11.501C21.7921 10.9957 20.4595 10.8685 19.1778 11.1361C17.8962 11.4038 16.7258 12.0536 15.821 13H5.5C5.36739 13 5.24021 13.0527 5.14645 13.1464C5.05268 13.2402 5 13.3674 5 13.5C5 13.6326 5.05268 13.7598 5.14645 13.8536C5.24021 13.9473 5.36739 14 5.5 14H15.032C14.4525 14.9008 14.1067 15.9319 14.026 17H5.5C5.36739 17 5.24021 17.0527 5.14645 17.1464C5.05268 17.2402 5 17.3674 5 17.5C5 17.6326 5.05268 17.7598 5.14645 17.8536C5.24021 17.9473 5.36739 18 5.5 18H14.025C14.1062 19.068 14.4519 20.099 15.031 21H5.5C5.36739 21 5.24021 21.0527 5.14645 21.1464C5.05268 21.2402 5 21.3674 5 21.5C5 21.6326 5.05268 21.7598 5.14645 21.8536C5.24021 21.9473 5.36739 22 5.5 22H15.75C15.771 22 15.789 21.991 15.81 21.988C16.7144 22.9384 17.8862 23.5916 19.1701 23.8613C20.4541 24.1309 21.7896 24.0042 23 23.498V30.5C23 30.6326 22.9473 30.7598 22.8536 30.8536C22.7598 30.9473 22.6326 31 22.5 31H1.5C1.22 31 1 30.78 1 30.5V1.5Z" fill="url(#paint0_linear_280_915)"/>
<path d="M5.5 10H11.5C11.6326 10 11.7598 9.94732 11.8536 9.85355C11.9473 9.75979 12 9.63261 12 9.5C12 9.36739 11.9473 9.24021 11.8536 9.14645C11.7598 9.05268 11.6326 9 11.5 9H5.5C5.36739 9 5.24021 9.05268 5.14645 9.14645C5.05268 9.24021 5 9.36739 5 9.5C5 9.63261 5.05268 9.75979 5.14645 9.85355C5.24021 9.94732 5.36739 10 5.5 10ZM5.5 26H18.5C18.6326 26 18.7598 25.9473 18.8536 25.8536C18.9473 25.7598 19 25.6326 19 25.5C19 25.3674 18.9473 25.2402 18.8536 25.1464C18.7598 25.0527 18.6326 25 18.5 25H5.5C5.36739 25 5.24021 25.0527 5.14645 25.1464C5.05268 25.2402 5 25.3674 5 25.5C5 25.6326 5.05268 25.7598 5.14645 25.8536C5.24021 25.9473 5.36739 26 5.5 26Z" fill="url(#paint1_linear_280_915)"/>
</g>
<defs>
<linearGradient id="paint0_linear_280_915" x1="-3.60276" y1="-9.42857" x2="40.055" y2="-4.32743" gradientUnits="userSpaceOnUse">
<stop stopColor="#FFBC21"/>
<stop offset="0.1344" stopColor="#FD843A"/>
<stop offset="0.2742" stopColor="#FC5554"/>
<stop offset="0.4301" stopColor="#FC365F"/>
<stop offset="0.6129" stopColor="#F02E6B"/>
<stop offset="0.817759" stopColor="#DD3578"/>
<stop offset="1" stopColor="#81399D"/>
</linearGradient>
<linearGradient id="paint1_linear_280_915" x1="3.47184" y1="3.99107" x2="22.0807" y2="5.72712" gradientUnits="userSpaceOnUse">
<stop stopColor="#FFBC21"/>
<stop offset="0.1344" stopColor="#FD843A"/>
<stop offset="0.2742" stopColor="#FC5554"/>
<stop offset="0.4301" stopColor="#FC365F"/>
<stop offset="0.6129" stopColor="#F02E6B"/>
<stop offset="0.817759" stopColor="#DD3578"/>
<stop offset="1" stopColor="#81399D"/>
</linearGradient>
<clipPath id="clip0_280_915">
<rect width="33" height="32" fill="white"/>
</clipPath>
</defs>
</svg>
