<svg width="39" height="39" viewBox="0 0 39 39" fill="none" xmlns="http://www.w3.org/2000/svg">
<path d="M25.2964 27.5372C25.7346 26.8045 26.3128 26.1653 26.9981 25.6561C27.6833 25.1468 28.4622 24.7776 29.2901 24.5693C30.1181 24.3611 30.9789 24.318 31.8236 24.4424C32.6682 24.5669 33.48 24.8565 34.2127 25.2947C34.9454 25.7329 35.5847 26.3112 36.0939 26.9964C36.6031 27.6817 36.9724 28.4605 37.1806 29.2885C37.3889 30.1164 37.432 30.9773 37.3075 31.8219C37.1831 32.6665 36.8935 33.4784 36.4552 34.2111C35.5702 35.6908 34.1336 36.7584 32.4615 37.179C30.7893 37.5995 29.0186 37.3386 27.5389 36.4536C26.0591 35.5686 24.9915 34.132 24.571 32.4598C24.1504 30.7877 24.4114 29.017 25.2964 27.5372ZM25.2964 27.5372C22.053 25.2921 18.4878 23.5519 14.7225 22.3762L14.0562 22.1666M25.2964 11.4643C24.8582 10.7316 24.5685 9.91979 24.4441 9.07517C24.3196 8.23054 24.3627 7.36967 24.571 6.54171C24.7792 5.71375 25.1485 4.93491 25.6577 4.24966C26.167 3.56441 26.8062 2.98617 27.5389 2.54796C28.2716 2.10975 29.0834 1.82014 29.928 1.69568C30.7727 1.57121 31.6335 1.61433 32.4615 1.82257C33.2895 2.0308 34.0683 2.40008 34.7535 2.90931C35.4388 3.41854 36.017 4.05776 36.4552 4.79046C37.3403 6.27022 37.6012 8.04094 37.1806 9.71308C36.7601 11.3852 35.6925 12.8218 34.2127 13.7068C32.733 14.5918 30.9623 14.8528 29.2901 14.4322C27.618 14.0117 26.1814 12.9441 25.2964 11.4643ZM25.2964 11.4643C22.0529 13.7089 18.4877 15.4485 14.7225 16.6237L14.0562 16.8333M14.0562 16.8333C14.4219 17.6458 14.625 18.5477 14.625 19.4983C14.625 20.449 14.4219 21.3508 14.0562 22.1633C13.4465 23.5198 12.39 24.6261 11.0631 25.2978C9.73616 25.9694 8.21906 26.1657 6.7649 25.8539C5.31074 25.5421 4.00748 24.741 3.07258 23.5844C2.13768 22.4278 1.62769 20.9855 1.62769 19.4983C1.62769 18.0111 2.13768 16.5689 3.07258 15.4123C4.00748 14.2557 5.31074 13.4546 6.7649 13.1428C8.21906 12.831 9.73616 13.0273 11.0631 13.6989C12.39 14.3705 13.4465 15.4769 14.0562 16.8333Z" stroke="url(#paint0_linear_280_919)"/>
<defs>
<linearGradient id="paint0_linear_280_919" x1="-2.27451" y1="-8.907" x2="45.05" y2="-3.54595" gradientUnits="userSpaceOnUse">
<stop stopColor="#FFBC21"/>
<stop offset="0.1344" stopColor="#FD843A"/>
<stop offset="0.2742" stopColor="#FC5554"/>
<stop offset="0.4301" stopColor="#FC365F"/>
<stop offset="0.6129" stopColor="#F02E6B"/>
<stop offset="0.817759" stopColor="#DD3578"/>
<stop offset="1" stopColor="#81399D"/>
</linearGradient>
</defs>
</svg>
