<svg width="39" height="39" viewBox="0 0 39 39" fill="none" xmlns="http://www.w3.org/2000/svg">
<path d="M30.42 23.9849C30.9887 22.6036 31.2975 21.1249 31.2975 19.4999C31.2975 18.3299 31.1187 17.2086 30.81 16.1686C29.7537 16.4124 28.6488 16.5424 27.495 16.5424C25.1322 16.5449 22.8034 15.9794 20.705 14.8934C18.6065 13.8074 16.8 12.2328 15.4375 10.3024C13.98 13.8289 11.2306 16.6656 7.75125 18.2324C7.68625 18.6386 7.68625 19.0774 7.68625 19.4999C7.68625 21.0513 7.99182 22.5875 8.58552 24.0208C9.17921 25.4541 10.0494 26.7565 11.1464 27.8535C13.3619 30.069 16.3668 31.3136 19.5 31.3136C21.2062 31.3136 22.8475 30.9399 24.3263 30.2736C25.2525 32.0449 25.675 32.9224 25.6425 32.9224C22.9775 33.8161 20.9137 34.2549 19.5 34.2549C15.5675 34.2549 11.8138 32.7111 9.05125 29.9324C7.371 28.2573 6.12198 26.1998 5.41125 23.9361H3.25V16.5424H5.02125C5.55789 13.9302 6.79168 11.512 8.59168 9.54447C10.3917 7.57689 12.6908 6.13329 15.245 5.36687C17.7992 4.60044 20.5132 4.53976 23.0992 5.19128C25.6851 5.8428 28.0464 7.18221 29.9325 9.06738C31.9804 11.1072 33.3772 13.7085 33.9462 16.5424H35.75V23.9361H35.6525L29.8675 29.2499L21.255 28.2749V25.5611H29.1038L30.42 23.9849ZM15.0638 19.1261C15.5513 19.1261 16.0225 19.3211 16.3637 19.6786C16.7067 20.0244 16.8991 20.4916 16.8991 20.9786C16.8991 21.4656 16.7067 21.9329 16.3637 22.2786C16.0225 22.6199 15.5513 22.8149 15.0638 22.8149C14.04 22.8149 13.2113 22.0024 13.2113 20.9786C13.2113 19.9549 14.04 19.1261 15.0638 19.1261ZM23.92 19.1261C24.9438 19.1261 25.7563 19.9549 25.7563 20.9786C25.7563 22.0024 24.9438 22.8149 23.92 22.8149C22.8962 22.8149 22.0675 22.0024 22.0675 20.9786C22.0675 20.4873 22.2627 20.0161 22.6101 19.6687C22.9575 19.3213 23.4287 19.1261 23.92 19.1261Z" fill="url(#paint0_linear_280_911)"/>
<defs>
<linearGradient id="paint0_linear_280_911" x1="-0.297517" y1="-3.95162" x2="42.6099" y2="1.40129" gradientUnits="userSpaceOnUse">
<stop stop-color="#FFBC21"/>
<stop offset="0.1344" stop-color="#FD843A"/>
<stop offset="0.2742" stop-color="#FC5554"/>
<stop offset="0.4301" stop-color="#FC365F"/>
<stop offset="0.6129" stop-color="#F02E6B"/>
<stop offset="0.817759" stop-color="#DD3578"/>
<stop offset="1" stop-color="#81399D"/>
</linearGradient>
</defs>
</svg>
