<svg width="47" height="47" viewBox="0 0 47 47" fill="none" xmlns="http://www.w3.org/2000/svg">
<path fill-rule="evenodd" clip-rule="evenodd" d="M2.41667 16.875C2.41667 9.50279 7.91457 3.43149 15.0398 2.53166L13.6988 4.76675C13.4146 5.24033 13.5682 5.85459 14.0418 6.13874C14.5153 6.42289 15.1296 6.26933 15.4137 5.79575L17.7325 1.93116C17.9179 1.62223 17.9227 1.23748 17.7452 0.923968C17.5677 0.610459 17.2353 0.416667 16.875 0.416667C7.77646 0.416667 0.416667 7.77646 0.416667 16.875C0.416667 17.4273 0.864382 17.875 1.41667 17.875C1.96895 17.875 2.41667 17.4273 2.41667 16.875ZM46.5833 30.125C46.5833 29.5727 46.1356 29.125 45.5833 29.125C45.031 29.125 44.5833 29.5727 44.5833 30.125C44.5833 37.4972 39.0854 43.5685 31.9602 44.4683L33.3012 42.2332C33.5854 41.7597 33.4318 41.1454 32.9582 40.8613C32.4847 40.5771 31.8704 40.7307 31.5863 41.2043L29.2675 45.0688C29.0821 45.3778 29.0773 45.7625 29.2548 46.076C29.4323 46.3895 29.7647 46.5833 30.125 46.5833C39.2235 46.5833 46.5833 39.2235 46.5833 30.125ZM27.4813 8.52739C27.4813 8.40444 27.4937 8.27253 27.5182 8.13452L35.0431 12.4832V20.143C34.8209 20.0843 34.6237 20.0065 34.4618 19.9145L34.4618 19.9144L34.4522 19.9091L29.1522 16.972L29.1522 16.9719L29.1464 16.9687C28.7373 16.7456 28.3099 16.3111 27.9817 15.751C27.6535 15.1911 27.4813 14.6025 27.4813 14.1366V8.52739ZM37.61 19.9104C37.4491 20.0001 37.257 20.076 37.0431 20.1342V12.4815L44.5451 8.12128C44.5705 8.26375 44.5833 8.40015 44.5833 8.52739V14.1366C44.5833 14.598 44.4085 15.1854 44.0762 15.7484C43.7439 16.3114 43.314 16.7488 42.9114 16.9725L37.6124 19.9091L37.61 19.9104ZM42.9182 5.69531C43.1681 5.83162 43.4249 6.04685 43.6617 6.32143L36.0417 10.7503L28.4011 6.33483C28.6422 6.05218 28.9027 5.83081 29.1526 5.69186L29.1531 5.69157L34.4464 2.75833C34.8391 2.54831 35.4147 2.41667 36.0406 2.41667C36.6692 2.41667 37.2367 2.54937 37.6143 2.75614L37.6158 2.757L42.9124 5.69211L42.9182 5.69531ZM36.0406 0.416667C36.9073 0.416667 37.8296 0.592768 38.5783 1.00384L38.5818 1.00573L43.8759 3.93952L43.8791 3.94126C44.6833 4.38086 45.3478 5.11587 45.8084 5.90177C46.2698 6.68895 46.5833 7.62408 46.5833 8.52739V14.1366C46.5833 15.0445 46.2613 15.9808 45.7986 16.7649C45.3359 17.549 44.6727 18.2819 43.8827 18.7208L43.8818 18.7213L38.5842 21.6571L38.5833 21.6576C37.8249 22.0803 36.8965 22.2641 36.024 22.2641C35.1542 22.2641 34.2291 22.0813 33.4783 21.6559L28.1886 18.7245L28.1856 18.7229C27.3814 18.2833 26.7168 17.5482 26.2562 16.7623C25.7948 15.9751 25.4813 15.0399 25.4813 14.1366V8.52739C25.4813 7.61955 25.8033 6.68321 26.266 5.89914C26.7287 5.11505 27.3919 4.38213 28.1819 3.94325L28.1828 3.94273L33.4828 1.00574L33.4934 0.999881L33.4934 0.999945C34.2489 0.593123 35.1729 0.416667 36.0406 0.416667ZM2.45339 32.4273C2.42902 32.5649 2.41667 32.6964 2.41667 32.8189V38.4283C2.41667 38.8942 2.58894 39.4828 2.91708 40.0427C3.24537 40.6028 3.67278 41.0373 4.08179 41.2604L4.08767 41.2636L9.38763 44.2007L9.39725 44.2061L9.39722 44.2061C9.55379 44.2952 9.74334 44.3708 9.95656 44.4288V36.774L2.45339 32.4273ZM11.9566 44.4318C12.1793 44.3729 12.379 44.2948 12.5454 44.2021L12.5478 44.2007L17.8469 41.2642L17.8469 41.2641C18.2494 41.0405 18.6794 40.603 19.0116 40.0401C19.3439 39.4771 19.5187 38.8897 19.5187 38.4283V32.8189C19.5187 32.6915 19.5059 32.5549 19.4804 32.4122L11.9566 36.7739V44.4318ZM18.5968 30.6127C18.36 30.3384 18.1034 30.1233 17.8536 29.9871L17.8478 29.9839L17.8478 29.9838L12.5536 27.05C12.1609 26.84 11.5853 26.7083 10.9594 26.7083C10.3308 26.7083 9.76328 26.841 9.38576 27.0478L4.08858 29.9833L4.08844 29.9834C3.83819 30.1225 3.57735 30.3441 3.33598 30.6272L10.9565 35.0419L18.5968 30.6127ZM13.5066 25.2916C12.7511 24.8848 11.8271 24.7083 10.9594 24.7083C10.0927 24.7083 9.17039 24.8844 8.42165 25.2955L8.4182 25.2974L3.11822 28.2345L3.1173 28.235C2.32735 28.6739 1.66419 29.4067 1.20143 30.1908C0.738684 30.9748 0.416667 31.9111 0.416667 32.8189V38.4283C0.416667 39.3316 0.730238 40.2668 1.19159 41.054C1.65218 41.8399 2.31674 42.5749 3.12086 43.0145L3.12409 43.0162L8.41369 45.9476C9.1645 46.373 10.0896 46.5557 10.9594 46.5557C11.8318 46.5557 12.7603 46.3719 13.5186 45.9493L13.5195 45.9488L18.8172 43.013L18.8181 43.0125C19.6081 42.5736 20.2713 41.8407 20.734 41.0566C21.1967 40.2725 21.5187 39.3362 21.5187 38.4283V32.8189C21.5187 31.9156 21.2052 30.9805 20.7438 30.1934C20.2832 29.4075 19.6187 28.6726 18.8145 28.233L18.8114 28.2313L13.5172 25.2974L13.5172 25.2973L13.5066 25.2916Z" fill="url(#paint0_linear_265_893)"/>
<defs>
<linearGradient id="paint0_linear_265_893" x1="-4.62253" y1="-13.1859" x2="56.4921" y2="-6.26268" gradientUnits="userSpaceOnUse">
<stop stopColor="#FFBC21"/>
<stop offset="0.1344" stopColor="#FD843A"/>
<stop offset="0.2742" stopColor="#FC5554"/>
<stop offset="0.4301" stopColor="#FC365F"/>
<stop offset="0.6129" stopColor="#F02E6B"/>
<stop offset="0.817759" stopColor="#DD3578"/>
<stop offset="1" stopColor="#81399D"/>
</linearGradient>
</defs>
</svg>
