<svg width="39" height="39" viewBox="0 0 39 39" fill="none" xmlns="http://www.w3.org/2000/svg">
<path d="M25.5938 0L39 6.75923V21.8331L36.5625 20.6041V9.50517L26.8125 14.421V19.3752L24.375 20.6041V14.421L14.625 9.50517V13.8641L12.1875 12.6352V6.75923L25.5938 0ZM25.5938 12.2895L28.9644 10.5805L20.1475 5.49188L16.1294 7.52733L25.5938 12.2895ZM31.5923 9.27474L35.0581 7.52733L25.5938 2.74594L22.7563 4.18612L31.5923 9.27474ZM21.9375 21.8331L19.5 23.062V23.0428L12.1875 26.7297V35.4668L19.5 31.7607V34.5258L10.9688 38.8272L0 33.2777V20.2969L10.9688 14.7666L21.9375 20.2969V21.8331ZM9.75 35.4668V26.7297L2.4375 23.0428V31.7607L9.75 35.4668ZM10.9688 24.5982L17.9956 21.065L10.9688 17.5126L3.94189 21.065L10.9688 24.5982ZM21.9375 24.579L30.4688 20.2777L39 24.579V34.6987L30.4688 39L21.9375 34.6987V24.579ZM29.25 35.6396V29.7829L24.375 27.325V33.1817L29.25 35.6396ZM36.5625 33.1817V27.325L31.6875 29.7829V35.6396L36.5625 33.1817ZM30.4688 27.6514L35.0581 25.3279L30.4688 23.0236L25.8794 25.3279L30.4688 27.6514Z" fill="url(#paint0_linear_265_895)"/>
<defs>
<linearGradient id="paint0_linear_265_895" x1="-4.25702" y1="-11.4911" x2="47.3707" y2="-5.64257" gradientUnits="userSpaceOnUse">
<stop stop-color="#FFBC21"/>
<stop offset="0.1344" stop-color="#FD843A"/>
<stop offset="0.2742" stop-color="#FC5554"/>
<stop offset="0.4301" stop-color="#FC365F"/>
<stop offset="0.6129" stop-color="#F02E6B"/>
<stop offset="0.817759" stop-color="#DD3578"/>
<stop offset="1" stop-color="#81399D"/>
</linearGradient>
</defs>
</svg>
