<svg width="24" height="24" viewBox="0 0 24 24" fill="none" xmlns="http://www.w3.org/2000/svg">
<path d="M20.2792 10.0534H20.1561V6.87473C20.1561 5.03372 19.4352 3.30314 18.1263 2.00166C16.827 0.709875 15.108 0 13.2817 0C13.2682 0 13.2547 4.6875e-05 13.2412 9.375e-05C9.47254 0.02175 6.40654 3.13781 6.40654 6.94631V8.64886C6.40654 8.853 6.57201 9.01847 6.77615 9.01847H8.74738C8.95152 9.01847 9.11699 8.853 9.11699 8.64886V6.93253C9.11699 4.62661 10.9666 2.73267 13.2401 2.71064C14.3596 2.70187 15.4133 3.1283 16.2099 3.91725C17.0067 4.70639 17.4456 5.75667 17.4456 6.87473V10.0534H6.28335C5.26429 10.0534 4.4353 10.8824 4.4353 11.9014V23.6304C4.4353 23.8345 4.60077 24 4.80491 24H21.7577C21.9618 24 22.1273 23.8345 22.1273 23.6304V11.9014C22.1273 10.8824 21.2983 10.0534 20.2792 10.0534ZM16.7301 3.39202C15.7922 2.46314 14.5502 1.95722 13.233 1.97147C10.5558 1.99744 8.37782 4.22292 8.37782 6.93253V8.27925H7.1458V6.94631C7.1458 3.54309 9.88208 0.758672 13.2455 0.739313C13.2576 0.739266 13.2695 0.739219 13.2816 0.739219C14.9112 0.739219 16.4455 1.37292 17.6051 2.52586C18.7734 3.68752 19.4169 5.232 19.4169 6.87473V10.0534H18.1849V6.87473C18.1848 5.55787 17.6682 4.32103 16.7301 3.39202ZM21.3881 23.2608H5.17452V11.9014C5.17452 11.29 5.67191 10.7926 6.28335 10.7926H17.8163H19.7864H20.2792C20.8907 10.7926 21.3881 11.29 21.3881 11.9014V23.2608Z" fill="white"/>
<path d="M13.949 16.4195C15.0254 16.1256 15.8193 15.1396 15.8193 13.9713C15.8193 12.5718 14.6808 11.4333 13.2813 11.4333C11.8819 11.4333 10.7433 12.5718 10.7433 13.9713C10.7433 15.1396 11.5372 16.1256 12.6136 16.4195C10.7704 16.7375 9.3634 18.3466 9.3634 20.2793V22.2505C9.3634 22.4547 9.52887 22.6201 9.73301 22.6201H16.8295C17.0337 22.6201 17.1991 22.4547 17.1991 22.2505V20.2793C17.1992 18.3466 15.7922 16.7375 13.949 16.4195ZM11.4826 13.9712C11.4826 12.9794 12.2895 12.1725 13.2814 12.1725C14.2732 12.1725 15.0801 12.9794 15.0801 13.9712C15.0801 14.9631 14.2732 15.77 13.2814 15.77C12.2895 15.77 11.4826 14.9631 11.4826 13.9712ZM16.46 21.8809H10.1027V20.2793C10.1027 18.5266 11.5287 17.1007 13.2814 17.1007C15.0341 17.1007 16.46 18.5266 16.46 20.2793V21.8809Z" fill="white"/>
<path d="M19.7865 12.616C19.5823 12.616 19.4169 12.7815 19.4169 12.9856V17.9138C19.4169 18.1179 19.5823 18.2834 19.7865 18.2834C19.9906 18.2834 20.1561 18.1179 20.1561 17.9138V12.9856C20.1561 12.7815 19.9906 12.616 19.7865 12.616Z" fill="white"/>
<path d="M19.7865 18.924C19.5823 18.924 19.4169 19.0895 19.4169 19.2937V21.2649C19.4169 21.469 19.5823 21.6345 19.7865 21.6345C19.9906 21.6345 20.1561 21.469 20.1561 21.2649V19.2937C20.1561 19.0895 19.9906 18.924 19.7865 18.924Z" fill="white"/>
<path d="M3.77557 8.21742H2.24229C2.03815 8.21742 1.87268 8.38289 1.87268 8.58703C1.87268 8.79117 2.03815 8.95664 2.24229 8.95664H3.77557C3.97971 8.95664 4.14518 8.79117 4.14518 8.58703C4.14518 8.38289 3.97966 8.21742 3.77557 8.21742Z" fill="white"/>
<path d="M4.465 7.07114L3.4893 6.09544C3.34497 5.95111 3.11093 5.95111 2.96664 6.09544C2.82232 6.23976 2.82232 6.47381 2.96664 6.61814L3.94235 7.59384C4.01449 7.66598 4.10913 7.70212 4.20368 7.70212C4.29822 7.70212 4.39286 7.66603 4.465 7.59384C4.60933 7.44951 4.60933 7.21547 4.465 7.07114Z" fill="white"/>
<path d="M4.45512 9.58017C4.31079 9.43584 4.07674 9.43584 3.93246 9.58017L2.95676 10.5559C2.81243 10.7002 2.81243 10.9342 2.95676 11.0785C3.0289 11.1507 3.12354 11.1868 3.21808 11.1868C3.31263 11.1868 3.40727 11.1507 3.47941 11.0785L4.45512 10.1028C4.59949 9.95859 4.59949 9.72455 4.45512 9.58017Z" fill="white"/>
</svg>
