<svg width="115" height="28" viewBox="0 0 115 28" fill="none" xmlns="http://www.w3.org/2000/svg">
<path d="M23.133 0H4C1.8 0 0 1.8 0 4V23.135C0 25.335 1.8 27.135 4 27.135H23.135C25.335 27.135 27.135 25.335 27.135 23.135V4C27.133 1.8 25.335 0 23.133 0ZM22.876 14.483H19.656V26.133H14.838V14.483H12.428V10.467H14.838V8.057C14.838 4.781 16.198 2.832 20.068 2.832H23.285V6.847H21.273C19.769 6.847 19.669 7.41 19.669 8.457L19.656 10.467H23.301L22.876 14.483Z" fill="url(#paint0_linear_308_604)"/>
<path d="M58.9377 0.235039C59.9107 0.231305 60.8836 0.241084 61.8563 0.264372L62.115 0.273706C62.4137 0.284372 62.7083 0.297706 63.0643 0.313706C64.483 0.380372 65.451 0.604373 66.3003 0.933706C67.1803 1.27237 67.9217 1.73104 68.663 2.47237C69.3408 3.13851 69.8654 3.9443 70.2003 4.83371C70.5297 5.68304 70.7537 6.65237 70.8203 8.07104C70.8363 8.42571 70.8497 8.72171 70.8603 9.02037L70.8683 9.27904C70.892 10.2513 70.9023 11.2238 70.899 12.1964L70.9003 13.191V14.9377C70.9036 15.9107 70.8934 16.8837 70.8697 17.8564L70.8617 18.115C70.851 18.4137 70.8377 18.7084 70.8217 19.0644C70.755 20.483 70.5283 21.451 70.2003 22.3004C69.8665 23.1907 69.3418 23.9972 68.663 24.663C67.9963 25.3408 67.1901 25.8654 66.3003 26.2004C65.451 26.5297 64.483 26.7537 63.0643 26.8204C62.7083 26.8364 62.4137 26.8497 62.115 26.8604L61.8563 26.8684C60.8836 26.8921 59.9107 26.9023 58.9377 26.899L57.943 26.9004H56.1977C55.2247 26.9037 54.2517 26.8934 53.279 26.8697L53.0203 26.8617C52.7038 26.8502 52.3874 26.8369 52.071 26.8217C50.6523 26.755 49.6843 26.5284 48.8337 26.2004C47.9439 25.8662 47.138 25.3415 46.4723 24.663C45.7937 23.9968 45.2686 23.1905 44.9337 22.3004C44.6043 21.451 44.3803 20.483 44.3137 19.0644C44.2988 18.748 44.2855 18.4315 44.2737 18.115L44.267 17.8564C44.2424 16.8837 44.2313 15.9107 44.2337 14.9377V12.1964C44.23 11.2238 44.2397 10.2513 44.263 9.27904L44.2723 9.02037C44.283 8.72171 44.2963 8.42571 44.3123 8.07104C44.379 6.65104 44.603 5.68437 44.9323 4.83371C45.2675 3.94387 45.7936 3.1383 46.4737 2.47371C47.1389 1.79471 47.9443 1.26914 48.8337 0.933706C49.6843 0.604373 50.651 0.380372 52.071 0.313706L53.0203 0.273706L53.279 0.267039C54.2513 0.24247 55.2238 0.231357 56.1963 0.233706L58.9377 0.235039ZM57.567 6.90171C56.6837 6.88921 55.8067 7.0524 54.987 7.3818C54.1673 7.71119 53.4212 8.20021 52.7921 8.82045C52.1631 9.44068 51.6635 10.1798 51.3226 10.9947C50.9816 11.8097 50.8061 12.6843 50.8061 13.5677C50.8061 14.4511 50.9816 15.3257 51.3226 16.1407C51.6635 16.9557 52.1631 17.6947 52.7921 18.315C53.4212 18.9352 54.1673 19.4242 54.987 19.7536C55.8067 20.083 56.6837 20.2462 57.567 20.2337C59.3351 20.2337 61.0308 19.5313 62.2811 18.2811C63.5313 17.0308 64.2337 15.3351 64.2337 13.567C64.2337 11.7989 63.5313 10.1032 62.2811 8.85299C61.0308 7.60275 59.3351 6.90171 57.567 6.90171ZM57.567 9.56837C58.0984 9.55858 58.6263 9.65477 59.1201 9.85132C59.6138 10.0479 60.0635 10.3408 60.4427 10.7131C60.822 11.0854 61.1232 11.5295 61.3289 12.0195C61.5346 12.5095 61.6406 13.0356 61.6407 13.567C61.6408 14.0985 61.535 14.6246 61.3295 15.1147C61.1239 15.6047 60.8228 16.049 60.4437 16.4214C60.0645 16.7938 59.615 17.0869 59.1213 17.2836C58.6276 17.4803 58.0997 17.5767 57.5683 17.567C56.5075 17.567 55.4901 17.1456 54.7399 16.3955C53.9898 15.6453 53.5683 14.6279 53.5683 13.567C53.5683 12.5062 53.9898 11.4888 54.7399 10.7386C55.4901 9.98847 56.5075 9.56704 57.5683 9.56704L57.567 9.56837ZM64.567 4.90171C64.1369 4.91892 63.7301 5.10191 63.4318 5.41233C63.1336 5.72276 62.967 6.13655 62.967 6.56704C62.967 6.99753 63.1336 7.41132 63.4318 7.72174C63.7301 8.03217 64.1369 8.21516 64.567 8.23237C65.009 8.23237 65.433 8.05678 65.7455 7.74422C66.0581 7.43166 66.2337 7.00773 66.2337 6.56571C66.2337 6.12368 66.0581 5.69976 65.7455 5.38719C65.433 5.07463 65.009 4.89904 64.567 4.89904V4.90171Z" fill="url(#paint1_linear_308_604)"/>
<path d="M112.86 0.233585H90.2737C90.0198 0.230059 89.7677 0.276582 89.5318 0.370497C89.2959 0.464412 89.0808 0.603879 88.8988 0.780934C88.7168 0.957989 88.5714 1.16916 88.471 1.4024C88.3707 1.63563 88.3172 1.88636 88.3137 2.14025V24.9936C88.3172 25.2475 88.3707 25.4982 88.471 25.7314C88.5714 25.9647 88.7168 26.1758 88.8988 26.3529C89.0808 26.53 89.2959 26.6694 89.5318 26.7633C89.7677 26.8573 90.0198 26.9038 90.2737 26.9002H112.86C113.114 26.9038 113.366 26.8573 113.602 26.7633C113.838 26.6694 114.053 26.53 114.235 26.3529C114.417 26.1758 114.563 25.9647 114.663 25.7314C114.763 25.4982 114.817 25.2475 114.82 24.9936V2.14025C114.817 1.88636 114.763 1.63563 114.663 1.4024C114.563 1.16916 114.417 0.957989 114.235 0.780934C114.053 0.603879 113.838 0.464412 113.602 0.370497C113.366 0.276582 113.114 0.230059 112.86 0.233585ZM96.3537 22.5536H92.3537V10.5536H96.3537V22.5536ZM94.3537 8.87358C93.8021 8.87358 93.273 8.65444 92.8829 8.26437C92.4929 7.87429 92.2737 7.34523 92.2737 6.79358C92.2737 6.24193 92.4929 5.71288 92.8829 5.3228C93.273 4.93273 93.8021 4.71358 94.3537 4.71358C94.6466 4.68036 94.9433 4.70939 95.2242 4.79876C95.5052 4.88813 95.764 5.03584 95.9839 5.2322C96.2038 5.42856 96.3798 5.66916 96.5002 5.93823C96.6207 6.2073 96.6829 6.49878 96.6829 6.79358C96.6829 7.08839 96.6207 7.37987 96.5002 7.64894C96.3798 7.91801 96.2038 8.15861 95.9839 8.35497C95.764 8.55133 95.5052 8.69903 95.2242 8.78841C94.9433 8.87778 94.6466 8.9068 94.3537 8.87358ZM110.78 22.5536H106.78V16.1136C106.78 14.5003 106.207 13.4469 104.754 13.4469C104.304 13.4502 103.866 13.5913 103.499 13.8511C103.132 14.111 102.853 14.4771 102.7 14.9003C102.596 15.2136 102.551 15.5437 102.567 15.8736V22.5402H98.5671V10.5402H102.567V12.2336C102.93 11.6031 103.459 11.0836 104.096 10.7312C104.732 10.3788 105.453 10.2067 106.18 10.2336C108.847 10.2336 110.78 11.9536 110.78 15.6469V22.5536Z" fill="url(#paint2_linear_308_604)"/>
<defs>
<linearGradient id="paint0_linear_308_604" x1="-2.78897" y1="-2.22698" x2="30.3873" y2="2.85165" gradientUnits="userSpaceOnUse">
<stop stop-color="#FC365F"/>
<stop offset="0.984375" stop-color="#A00BFB"/>
</linearGradient>
<linearGradient id="paint1_linear_308_604" x1="41.4919" y1="-1.95522" x2="74.0973" y2="3.0361" gradientUnits="userSpaceOnUse">
<stop stop-color="#FC365F"/>
<stop offset="0.984375" stop-color="#A00BFB"/>
</linearGradient>
<linearGradient id="paint2_linear_308_604" x1="85.5893" y1="-1.95517" x2="118.006" y2="2.97738" gradientUnits="userSpaceOnUse">
<stop stop-color="#FC365F"/>
<stop offset="0.984375" stop-color="#A00BFB"/>
</linearGradient>
</defs>
</svg>
