<svg width="188" height="113" viewBox="0 0 188 113" fill="none" xmlns="http://www.w3.org/2000/svg">
<path d="M139.872 14.3076C153.844 16.9225 165.264 25.3029 172.128 36.5153C165.93 24.0139 154.12 14.4679 139.313 11.6962C117.453 7.60528 96.304 19.6358 88.1953 39.3839C97.7294 21.0634 118.474 10.3036 139.872 14.3076Z" fill="white"/>
<path d="M85.3178 24.5682L84.9225 24.2727L86.5841 22.0653L86.9794 22.3608L86.3027 23.2591L89.9475 25.9858L89.6376 26.3966L85.9928 23.6699L85.3178 24.5682Z" fill="white"/>
<path d="M87.8705 20.4807L88.2088 20.1083L89.7783 21.5276L91.5069 19.6275L89.9374 18.2082L90.2758 17.8358L94.0194 21.2187L93.6811 21.5911L91.8754 19.9581L90.1468 21.8582L91.9525 23.4912L91.6141 23.8636L87.8705 20.4807Z" fill="white"/>
<path d="M92.125 16.0358L94.274 14.1022L94.6057 14.4679L92.8319 16.0642L93.8921 17.2364L95.6509 15.6534L95.9825 16.0191L94.2238 17.602L95.5537 19.0714L97.3125 17.4885L97.6441 17.8542L95.5102 19.7744L92.125 16.0358Z" fill="white"/>
<path d="M98.475 10.873L100.882 9.26834L101.157 9.67743L99.1701 11.0015L100.049 12.314L102.019 11.0015L102.294 11.4106L100.324 12.723L101.428 14.3677L103.398 13.0553L103.672 13.4661L101.282 15.059L98.475 10.873Z" fill="white"/>
<path d="M102.537 8.2665L103.056 7.98765L105.054 9.13977L105.192 6.83886L105.704 6.56335L105.537 9.41862L108.19 10.9498L107.671 11.2286L105.503 9.97966L105.357 12.4726L104.838 12.7514L105.021 9.69914L102.537 8.2665Z" fill="white"/>
<path d="M107.78 5.59322L108.707 5.20584C109.24 4.98377 109.609 4.85687 109.815 4.82681C110.108 4.78173 110.382 4.82514 110.637 4.95705C110.892 5.08896 111.083 5.30937 111.212 5.6166C111.341 5.9255 111.366 6.21604 111.285 6.48487C111.205 6.75537 111.034 6.98412 110.774 7.17447C110.585 7.31306 110.2 7.50342 109.62 7.74386L109.287 7.88245L110.193 10.0431L109.728 10.2368L107.78 5.59322ZM108.436 5.85371L109.098 7.42995L109.89 7.11102C110.208 6.97745 110.431 6.85221 110.553 6.73199C110.677 6.61344 110.754 6.47151 110.784 6.30621C110.815 6.1409 110.796 5.97894 110.729 5.82031C110.664 5.66502 110.562 5.53979 110.423 5.44629C110.284 5.35278 110.135 5.3077 109.972 5.30937C109.811 5.31271 109.573 5.3795 109.259 5.51141L108.436 5.85371Z" fill="white"/>
<path d="M112.898 3.59955L115.662 2.7413L115.809 3.21217L113.528 3.92181L113.999 5.42793L116.262 4.72496L116.409 5.19583L114.146 5.89879L114.737 7.78728L117 7.08431L117.148 7.55518L114.404 8.40675L112.898 3.59955Z" fill="white"/>
<path d="M117.826 2.18695L118.811 1.98157C119.36 1.86635 119.737 1.81125 119.942 1.81626C120.25 1.82127 120.518 1.91645 120.749 2.09845C120.979 2.28045 121.128 2.53258 121.196 2.85484C121.253 3.12367 121.238 3.37247 121.154 3.60289C121.071 3.83332 120.922 4.02367 120.709 4.17728C120.496 4.3309 120.181 4.45112 119.768 4.53962L122.027 6.45649L121.416 6.58339L119.156 4.66652L118.876 4.72496L119.357 7.01418L118.863 7.11771L117.826 2.18695ZM118.422 2.56598L118.774 4.2424L119.627 4.07042C119.957 4.00196 120.195 3.91847 120.339 3.8233C120.484 3.72812 120.587 3.60122 120.647 3.44593C120.707 3.29065 120.719 3.12701 120.682 2.9567C120.647 2.79139 120.571 2.65113 120.453 2.53425C120.334 2.41737 120.196 2.34557 120.039 2.31886C119.881 2.29214 119.632 2.31218 119.293 2.38398L118.422 2.56598Z" fill="white"/>
<path d="M122.838 1.73944L122.779 1.25021L125.528 0.924606L125.586 1.41384L124.468 1.54575L125.005 6.05741L124.494 6.11752L123.957 1.60586L122.838 1.73944Z" fill="white"/>
<path d="M127.159 4.8936L127.578 4.62143C127.901 5.1641 128.26 5.42792 128.657 5.41456C128.826 5.40788 128.983 5.3628 129.129 5.27931C129.275 5.19583 129.384 5.08562 129.457 4.95037C129.529 4.81512 129.563 4.67319 129.558 4.52459C129.551 4.35594 129.488 4.19231 129.369 4.03535C129.203 3.81828 128.905 3.55947 128.474 3.26059C128.042 2.96003 127.771 2.73963 127.662 2.60271C127.474 2.37228 127.375 2.11848 127.365 1.84297C127.357 1.62424 127.402 1.4222 127.501 1.23853C127.6 1.05485 127.742 0.906246 127.93 0.796042C128.117 0.685839 128.323 0.625728 128.546 0.617379C128.784 0.609031 129.008 0.659123 129.22 0.769326C129.431 0.87953 129.658 1.08658 129.901 1.39381L129.501 1.72108C129.302 1.4773 129.134 1.31867 128.997 1.24353C128.859 1.1684 128.712 1.13333 128.555 1.14001C128.35 1.14669 128.186 1.21515 128.062 1.34372C127.938 1.47229 127.878 1.62591 127.885 1.80624C127.888 1.91644 127.916 2.02164 127.965 2.12182C128.014 2.22201 128.102 2.33054 128.228 2.44742C128.297 2.5092 128.521 2.66783 128.9 2.92664C129.349 3.2322 129.658 3.50771 129.831 3.75149C130.003 3.99695 130.094 4.24574 130.102 4.49787C130.116 4.86355 129.988 5.18581 129.72 5.46466C129.452 5.7435 129.119 5.89211 128.722 5.90547C128.416 5.91716 128.134 5.84536 127.88 5.69174C127.625 5.53312 127.384 5.2693 127.159 4.8936Z" fill="white"/>
<path d="M135.296 0.879532L135.799 0.922946L135.368 5.94054L134.866 5.89712L135.296 0.879532Z" fill="white"/>
<path d="M137.389 6.12588L138.231 1.16005L138.34 1.17842L141.01 5.54314L141.656 1.73611L142.147 1.8196L141.305 6.78543L141.192 6.76706L138.541 2.45243L137.903 6.2127L137.389 6.12588Z" fill="white"/>
<path d="M147.683 3.26059L148.636 3.58452C149.182 3.76986 149.542 3.92014 149.717 4.03201C149.966 4.19231 150.142 4.40604 150.244 4.6732C150.346 4.94036 150.343 5.23256 150.236 5.54814C150.127 5.86539 149.953 6.09916 149.713 6.24777C149.474 6.39637 149.192 6.45649 148.872 6.42643C148.638 6.40472 148.224 6.29285 147.629 6.09081L147.288 5.97393L146.529 8.18968L146.052 8.02605L147.683 3.26059ZM148.001 3.88841L147.447 5.50473L148.253 5.79026C148.579 5.90213 148.829 5.95389 149.001 5.94554C149.174 5.93719 149.325 5.88209 149.457 5.77857C149.589 5.67504 149.683 5.54146 149.74 5.37783C149.795 5.21753 149.802 5.05724 149.76 4.89527C149.718 4.73331 149.638 4.59973 149.514 4.4962C149.392 4.39268 149.169 4.28414 148.846 4.17561L148.001 3.88841Z" fill="white"/>
<path d="M152.882 5.16409L153.797 5.58153C154.308 5.81362 154.643 5.99229 154.805 6.11585C155.05 6.30286 155.211 6.53663 155.288 6.81881C155.365 7.101 155.334 7.39154 155.197 7.69209C155.083 7.94088 154.924 8.13457 154.72 8.26982C154.515 8.40507 154.283 8.47186 154.02 8.46852C153.757 8.46518 153.432 8.37836 153.046 8.2047L153.725 11.085L153.157 10.8262L152.479 7.94589L152.219 7.82734L151.244 9.9546L150.785 9.74588L152.882 5.16409ZM153.135 5.82197L152.422 7.37985L153.211 7.74719C153.517 7.88745 153.757 7.96092 153.931 7.96927C154.105 7.97762 154.262 7.93754 154.403 7.84738C154.544 7.75721 154.651 7.63365 154.723 7.47502C154.793 7.32141 154.815 7.16278 154.79 6.99914C154.765 6.83551 154.696 6.69525 154.586 6.58004C154.475 6.46483 154.262 6.33459 153.948 6.19099L153.135 5.82197Z" fill="white"/>
<path d="M160.112 8.73902C160.765 9.13475 161.18 9.6841 161.354 10.3871C161.53 11.0884 161.423 11.7579 161.034 12.3941C160.651 13.0236 160.105 13.4243 159.396 13.5963C158.688 13.7683 158.019 13.6631 157.388 13.2791C156.748 12.89 156.341 12.344 156.167 11.641C155.993 10.9364 156.095 10.2752 156.473 9.65571C156.726 9.24162 157.06 8.91936 157.475 8.68893C157.891 8.45851 158.333 8.34663 158.802 8.35665C159.272 8.36834 159.708 8.49524 160.112 8.73902ZM159.875 9.16982C159.555 8.97613 159.202 8.87594 158.815 8.86759C158.428 8.85924 158.068 8.94774 157.736 9.13141C157.405 9.31509 157.133 9.57891 156.922 9.92454C156.611 10.4355 156.524 10.9748 156.664 11.5442C156.805 12.1119 157.127 12.5477 157.628 12.8516C157.963 13.0553 158.323 13.1622 158.706 13.1722C159.09 13.1839 159.448 13.0971 159.778 12.9117C160.11 12.728 160.38 12.4642 160.589 12.1203C160.797 11.778 160.906 11.4206 160.916 11.0483C160.924 10.6759 160.833 10.3186 160.646 9.97631C160.458 9.63401 160.2 9.36685 159.875 9.16982Z" fill="white"/>
<path d="M161.194 15.6234L164.346 11.6878L165.165 12.339C165.756 12.8082 166.147 13.1973 166.338 13.5045C166.614 13.9436 166.726 14.4128 166.678 14.9154C166.629 15.4164 166.421 15.8956 166.056 16.3531C165.74 16.7471 165.378 17.026 164.966 17.1896C164.555 17.3533 164.155 17.3983 163.768 17.3232C163.381 17.2481 162.941 17.016 162.45 16.6236L161.194 15.6234ZM161.87 15.5533L162.326 15.9156C162.872 16.3497 163.277 16.6169 163.542 16.7171C163.915 16.8573 164.289 16.869 164.659 16.7538C165.029 16.6386 165.359 16.3998 165.649 16.0375C165.952 15.6585 166.121 15.2611 166.152 14.8436C166.183 14.4279 166.073 14.0388 165.825 13.6765C165.637 13.406 165.261 13.0436 164.694 12.5928L164.415 12.3707L161.87 15.5533Z" fill="white"/>
<path d="M169.433 15.9507L169.79 16.3063L167.632 18.4553C167.376 18.7108 167.222 18.8744 167.168 18.9462C167.046 19.1048 166.969 19.2634 166.939 19.4221C166.909 19.5807 166.929 19.7594 166.999 19.9564C167.07 20.1534 167.173 20.3204 167.309 20.4573C167.426 20.5759 167.565 20.6627 167.724 20.7211C167.884 20.7796 168.043 20.7996 168.205 20.7846C168.368 20.7679 168.528 20.7145 168.689 20.6226C168.805 20.5558 169.002 20.3838 169.284 20.1017L171.441 17.9527L171.798 18.3084L169.641 20.4573C169.322 20.7746 169.033 21.0017 168.773 21.1352C168.513 21.2688 168.219 21.3156 167.885 21.2738C167.552 21.2321 167.254 21.0801 166.987 20.8146C166.699 20.5274 166.522 20.2119 166.453 19.8696C166.384 19.5273 166.43 19.2083 166.587 18.9128C166.683 18.7308 166.912 18.4586 167.276 18.098L169.433 15.9507Z" fill="white"/>
<path d="M175.771 24.5315L175.284 24.4079C175.372 24.059 175.379 23.7183 175.304 23.3861C175.228 23.0538 175.078 22.7432 174.848 22.456C174.599 22.1404 174.29 21.9083 173.927 21.7597C173.562 21.6111 173.193 21.5627 172.82 21.6161C172.446 21.6696 172.099 21.8232 171.781 22.0753C171.297 22.456 171.026 22.9386 170.964 23.5246C170.902 24.1091 171.071 24.6534 171.47 25.1577C171.909 25.7103 172.493 26.0025 173.222 26.0326L173.232 26.5319C172.825 26.5335 172.434 26.44 172.064 26.253C171.694 26.066 171.364 25.7922 171.076 25.4282C170.528 24.7369 170.327 24.0089 170.473 23.2458C170.597 22.6046 170.935 22.0653 171.486 21.6311C172.066 21.1736 172.716 20.9933 173.433 21.0868C174.151 21.1803 174.751 21.5326 175.235 22.1438C175.528 22.5128 175.717 22.9035 175.808 23.3159C175.897 23.7283 175.885 24.1324 175.771 24.5315Z" fill="white"/>
<path d="M177.126 25.7621L177.543 25.4966L179.032 27.8226L178.615 28.0881L178.009 27.1413L174.167 29.5842L173.89 29.1517L177.733 26.7089L177.126 25.7621Z" fill="white"/>
<path d="M181.49 32.3292L181.905 33.2426C182.143 33.7669 182.282 34.1292 182.319 34.3329C182.374 34.6234 182.337 34.899 182.213 35.1561C182.089 35.4132 181.873 35.6103 181.568 35.7488C181.262 35.8874 180.972 35.9208 180.699 35.849C180.426 35.7772 180.19 35.6136 179.992 35.3615C179.848 35.1761 179.645 34.7988 179.386 34.2294L179.237 33.9021L177.098 34.8706L176.888 34.4131L181.49 32.3292ZM181.248 32.9921L179.687 33.6984L180.031 34.4782C180.173 34.7921 180.307 35.0092 180.431 35.1277C180.555 35.2479 180.699 35.3197 180.865 35.3448C181.031 35.3698 181.193 35.3464 181.351 35.2746C181.505 35.2045 181.627 35.0993 181.717 34.9591C181.808 34.8188 181.848 34.6669 181.841 34.5066C181.835 34.3463 181.759 34.1108 181.619 33.8019L181.248 32.9921Z" fill="white"/>
<path d="M183.665 37.3869L183.826 37.8644L181.816 38.534L182.632 40.9668L184.642 40.2972L184.801 40.7748L180.009 42.3711L179.848 41.8935L182.161 41.1238L181.346 38.6909L179.032 39.4607L178.872 38.9832L183.665 37.3869Z" fill="white"/>
<path d="M186.129 45.6638C186.282 46.4119 186.158 47.0881 185.759 47.6925C185.36 48.297 184.796 48.6727 184.064 48.8213C183.339 48.9666 182.674 48.8397 182.066 48.4389C181.459 48.0382 181.083 47.4755 180.935 46.7525C180.786 46.0211 180.913 45.3516 181.314 44.7471C181.714 44.1427 182.272 43.767 182.985 43.6234C183.461 43.5282 183.925 43.5533 184.379 43.7002C184.831 43.8471 185.213 44.0976 185.523 44.4466C185.835 44.7955 186.037 45.2013 186.129 45.6638ZM185.654 45.7824C185.58 45.4167 185.414 45.0894 185.156 44.8006C184.898 44.5117 184.59 44.308 184.23 44.1894C183.87 44.0709 183.49 44.0508 183.093 44.131C182.505 44.2495 182.049 44.5534 181.726 45.041C181.402 45.5286 181.3 46.0595 181.416 46.6339C181.493 47.0163 181.659 47.3536 181.912 47.6408C182.165 47.9297 182.471 48.1317 182.831 48.2502C183.191 48.3688 183.57 48.3872 183.965 48.307C184.359 48.2285 184.696 48.0649 184.977 47.8178C185.257 47.5707 185.459 47.2634 185.583 46.8927C185.704 46.5254 185.729 46.153 185.654 45.7824Z" fill="white"/>
<path d="M186.255 50.2356L186.747 50.1888L187.005 52.9356L186.513 52.9823L186.407 51.8636L181.87 52.2877L181.821 51.7768L186.359 51.3526L186.255 50.2356Z" fill="white"/>
<path d="M187.245 57.4255C187.235 58.1886 186.972 58.8231 186.456 59.3307C185.938 59.8383 185.307 60.0871 184.562 60.0787C183.823 60.0687 183.198 59.8049 182.689 59.2856C182.18 58.7663 181.93 58.1385 181.94 57.4005C181.95 56.6541 182.213 56.0263 182.733 55.5187C183.252 55.011 183.875 54.7623 184.603 54.7706C185.089 54.7773 185.536 54.8992 185.949 55.138C186.361 55.3767 186.68 55.7007 186.91 56.1081C187.138 56.5172 187.25 56.9546 187.245 57.4255ZM186.753 57.4422C186.758 57.0698 186.664 56.7159 186.473 56.3786C186.282 56.043 186.022 55.7791 185.696 55.5871C185.367 55.3951 185.002 55.2966 184.595 55.2932C183.995 55.2866 183.485 55.4869 183.066 55.896C182.647 56.3051 182.434 56.8027 182.428 57.3888C182.423 57.7795 182.513 58.1418 182.699 58.4774C182.885 58.8131 183.141 59.0752 183.47 59.2656C183.798 59.4559 184.163 59.5544 184.567 59.5578C184.967 59.5628 185.332 59.4743 185.659 59.2923C185.985 59.1103 186.248 58.8515 186.448 58.5142C186.647 58.1786 186.749 57.8212 186.753 57.4422Z" fill="white"/>
<path d="M185.317 67.277L185.007 66.8362C185.322 66.5991 185.575 66.3253 185.766 66.0147C185.957 65.7041 186.076 65.3935 186.123 65.0796C186.181 64.6889 186.139 64.3032 186 63.9208C185.86 63.5384 185.64 63.2262 185.339 62.9841C185.037 62.742 184.704 62.5934 184.337 62.5383C183.96 62.4832 183.588 62.5299 183.22 62.6819C182.851 62.8321 182.543 63.0709 182.299 63.3965C182.052 63.7221 181.898 64.0961 181.835 64.5186C181.759 65.0312 181.84 65.4854 182.076 65.8828C182.314 66.2802 182.657 66.5457 183.109 66.6792L183.345 65.0913L183.828 65.1631L183.51 67.3104C182.737 67.1919 182.16 66.8729 181.771 66.3536C181.384 65.8344 181.247 65.1948 181.359 64.4368C181.496 63.5151 181.918 62.8321 182.629 62.388C183.175 62.0457 183.766 61.9221 184.402 62.0173C184.876 62.0874 185.298 62.2711 185.67 62.5683C186.042 62.8655 186.314 63.2379 186.483 63.6854C186.65 64.1329 186.697 64.6171 186.62 65.1381C186.556 65.5605 186.422 65.9462 186.213 66.2969C186.007 66.6442 185.707 66.9715 185.317 67.277Z" fill="white"/>
<path d="M185.555 70.0237L185.293 70.9922C185.148 71.5315 185.027 71.8922 184.932 72.0725C184.788 72.343 184.582 72.54 184.315 72.6619C184.049 72.7838 183.756 72.8022 183.438 72.717C183.171 72.6452 182.955 72.52 182.788 72.343C182.62 72.1644 182.516 71.9456 182.474 71.6868C182.434 71.428 182.468 71.094 182.575 70.685L179.838 71.8271L180.001 71.226L182.737 70.0839L182.811 69.8083L180.547 69.2006L180.677 68.7147L185.555 70.0237ZM184.945 70.3827L183.287 69.9386L183.054 70.7751C182.967 71.0991 182.932 71.3478 182.952 71.5198C182.972 71.6918 183.037 71.8404 183.149 71.964C183.262 72.0875 183.402 72.1727 183.57 72.2178C183.734 72.2612 183.895 72.2579 184.052 72.2044C184.21 72.1527 184.337 72.0625 184.433 71.9339C184.528 71.8054 184.622 71.5749 184.712 71.2427L184.945 70.3827Z" fill="white"/>
<path d="M183.232 77.3256L177.669 77.6862L177.867 77.1803L179.704 77.0434L180.495 75.0213L179.232 73.6888L179.436 73.1662L183.277 77.212L183.232 77.3256ZM182.255 76.8781L180.865 75.412L180.238 77.0167L182.255 76.8781Z" fill="white"/>
<path d="M181.436 81.4582L180.972 82.3482C180.706 82.8591 180.503 83.1914 180.366 83.3467C180.17 83.5687 179.932 83.7107 179.65 83.7708C179.371 83.8309 179.081 83.7841 178.784 83.6305C178.486 83.4752 178.28 83.2682 178.17 83.011C178.058 82.7522 178.041 82.4667 178.119 82.1545C178.176 81.9274 178.349 81.535 178.639 80.9806L178.806 80.6617L176.723 79.5814L176.955 79.1356L181.436 81.4582ZM180.764 81.6769L179.243 80.8888L178.84 81.6402C178.681 81.9457 178.592 82.1845 178.573 82.3548C178.555 82.5252 178.587 82.6838 178.669 82.829C178.751 82.9743 178.87 83.0879 179.024 83.168C179.175 83.2465 179.332 83.2765 179.5 83.2598C179.667 83.2431 179.811 83.183 179.934 83.0778C180.056 82.9726 180.195 82.7689 180.352 82.4667L180.764 81.6769Z" fill="white"/>
<path d="M178.783 86.2837L178.505 86.7029L176.738 85.5374L175.319 87.6763L177.086 88.8418L176.808 89.2609L172.594 86.4824L172.872 86.0633L174.905 87.4041L176.324 85.2652L174.29 83.9244L174.568 83.5053L178.783 86.2837Z" fill="white"/>
<path d="M175.503 91.0292L175.135 91.4767L172.704 91.151L173.505 93.4503L173.135 93.8995L172.116 90.9974L170.252 89.4679L170.569 89.0856L172.433 90.6151L175.503 91.0292Z" fill="white"/>
<path d="M169.5 96.9468L169.833 97.3108L167.79 99.1725L167.456 98.8085L168.289 98.0505L165.215 94.6959L165.596 94.3503L168.669 97.7048L169.5 96.9468Z" fill="white"/>
<path d="M166.234 100.487L165.832 100.791L164.554 99.1058L162.502 100.654L163.782 102.338L163.38 102.642L160.331 98.6265L160.733 98.3226L162.205 100.261L164.257 98.7134L162.785 96.7748L163.187 96.4709L166.234 100.487Z" fill="white"/>
<path d="M159.425 105.162L154.824 102.026L155.293 101.749L156.824 102.771L158.696 101.665L158.527 99.8404L159.011 99.5549L159.532 105.1L159.425 105.162ZM158.932 104.208L158.745 102.2L157.259 103.078L158.932 104.208Z" fill="white"/>
<path d="M155.733 106.623L155.942 107.069L153.437 108.241L153.227 107.795L154.247 107.318L152.311 103.205L152.777 102.986L154.713 107.099L155.733 106.623Z" fill="white"/>
<path d="M147.924 106.012L147.591 106.384C147.137 105.945 146.72 105.783 146.341 105.902C146.179 105.952 146.04 106.037 145.921 106.157C145.802 106.276 145.725 106.411 145.692 106.561C145.656 106.71 145.661 106.857 145.707 106.997C145.757 107.159 145.861 107.299 146.02 107.419C146.238 107.586 146.594 107.757 147.088 107.934C147.586 108.111 147.904 108.253 148.045 108.356C148.286 108.53 148.449 108.749 148.531 109.012C148.596 109.221 148.606 109.428 148.559 109.632C148.512 109.836 148.413 110.014 148.263 110.171C148.112 110.326 147.928 110.438 147.715 110.505C147.487 110.575 147.258 110.585 147.025 110.535C146.792 110.485 146.517 110.343 146.202 110.111L146.502 109.69C146.759 109.874 146.963 109.982 147.115 110.019C147.268 110.056 147.418 110.051 147.569 110.004C147.764 109.944 147.904 109.836 147.991 109.679C148.078 109.522 148.093 109.358 148.04 109.186C148.006 109.081 147.953 108.987 147.879 108.902C147.804 108.817 147.691 108.735 147.539 108.657C147.457 108.615 147.199 108.52 146.765 108.371C146.251 108.194 145.879 108.01 145.65 107.818C145.419 107.626 145.266 107.411 145.191 107.169C145.082 106.82 145.119 106.476 145.305 106.137C145.489 105.796 145.772 105.568 146.152 105.449C146.445 105.357 146.735 105.352 147.021 105.434C147.308 105.514 147.609 105.708 147.924 106.012Z" fill="white"/>
<path d="M144.032 111.407L141.202 112.021L141.097 111.54L143.432 111.033L143.095 109.49L140.78 109.992L140.675 109.512L142.99 109.007L142.566 107.074L140.251 107.576L140.146 107.095L142.954 106.484L144.032 111.407Z" fill="white"/>
<path d="M139.067 112.365L138.566 112.43L137.98 107.919L136.052 108.167L135.99 107.685L138.419 107.371L139.067 112.365Z" fill="white"/>
<path d="M134.564 112.844L134.06 112.868L133.841 108.323L131.9 108.415L131.876 107.929L134.322 107.812L134.564 112.844Z" fill="white"/>
<path d="M83.5557 34.3763C84.4123 34.3763 85.1067 33.6841 85.1067 32.8301C85.1067 31.9762 84.4123 31.284 83.5557 31.284C82.6991 31.284 82.0046 31.9762 82.0046 32.8301C82.0046 33.6841 82.6991 34.3763 83.5557 34.3763Z" fill="white"/>
<path d="M122.747 111.266C123.604 111.266 124.298 110.574 124.298 109.72C124.298 108.866 123.604 108.174 122.747 108.174C121.891 108.174 121.196 108.866 121.196 109.72C121.196 110.574 121.891 111.266 122.747 111.266Z" fill="white"/>
<path d="M46.4695 81.6201H47.3455V82.8674C47.6922 82.3932 48.0892 82.0376 48.5398 81.8005C48.9904 81.5634 49.4929 81.4448 50.0456 81.4448C51.0121 81.4448 51.8395 81.7921 52.528 82.4867C53.2164 83.1813 53.5598 84.0179 53.5598 84.9947C53.5598 85.9932 53.2197 86.8398 52.538 87.536C51.8563 88.2323 51.0339 88.5813 50.0724 88.5813C49.5314 88.5813 49.0322 88.4694 48.5783 88.244C48.1244 88.0203 47.714 87.6847 47.3472 87.2405V90.8906H46.4712V81.6201H46.4695ZM49.9736 82.288C49.2165 82.288 48.5783 82.5518 48.0607 83.0795C47.5432 83.6071 47.2835 84.2633 47.2835 85.0481C47.2835 85.5641 47.3991 86.0266 47.6303 86.4374C47.8614 86.8481 48.1914 87.1754 48.6235 87.4158C49.054 87.6563 49.5096 87.7782 49.9887 87.7782C50.4593 87.7782 50.9015 87.6563 51.3153 87.4142C51.729 87.1704 52.059 86.8314 52.3052 86.3956C52.5514 85.9598 52.6737 85.5023 52.6737 85.0247C52.6737 84.5439 52.5514 84.0863 52.3085 83.6539C52.0657 83.2214 51.7374 82.8858 51.3253 82.647C50.9133 82.4083 50.4593 82.288 49.9736 82.288Z" fill="white"/>
<path d="M63.7773 81.6201V88.4077H62.913V87.2405C62.5461 87.6863 62.1341 88.0203 61.6768 88.244C61.2195 88.4694 60.7204 88.5813 60.1777 88.5813C59.2146 88.5813 58.3905 88.2323 57.7087 87.536C57.027 86.8398 56.6853 85.9915 56.6853 84.9947C56.6853 84.0179 57.0287 83.1813 57.7171 82.4867C58.4055 81.7921 59.233 81.4448 60.2011 81.4448C60.7606 81.4448 61.2664 81.5634 61.7187 81.8005C62.1709 82.0376 62.5679 82.3932 62.9113 82.8674V81.6201H63.7773ZM60.2748 82.288C59.7874 82.288 59.3368 82.4083 58.9248 82.647C58.5127 82.8858 58.1844 83.2214 57.9399 83.6539C57.6953 84.0863 57.5747 84.5422 57.5747 85.0247C57.5747 85.5023 57.697 85.9598 57.9432 86.3956C58.1895 86.8314 58.5194 87.172 58.9332 87.4142C59.3486 87.6579 59.7924 87.7782 60.2681 87.7782C60.7472 87.7782 61.2011 87.6579 61.6316 87.4158C62.0604 87.1754 62.3904 86.8481 62.6215 86.4374C62.8527 86.0266 62.9682 85.5624 62.9682 85.0481C62.9682 84.2633 62.7086 83.6071 62.1894 83.0795C61.6718 82.5518 61.0336 82.288 60.2748 82.288Z" fill="white"/>
<path d="M67.5544 81.6201H68.4305V82.8674C68.7772 82.3932 69.1742 82.0376 69.6247 81.8005C70.0753 81.5634 70.5778 81.4448 71.1306 81.4448C72.097 81.4448 72.9245 81.7921 73.6129 82.4867C74.3013 83.1813 74.6447 84.0179 74.6447 84.9947C74.6447 85.9932 74.3047 86.8398 73.623 87.536C72.9412 88.2323 72.1188 88.5813 71.1574 88.5813C70.6163 88.5813 70.1172 88.4694 69.6633 88.244C69.2093 88.0203 68.799 87.6847 68.4321 87.2405V90.8906H67.5561V81.6201H67.5544ZM71.0585 82.288C70.3014 82.288 69.6633 82.5518 69.1457 83.0795C68.6281 83.6071 68.3685 84.2633 68.3685 85.0481C68.3685 85.5641 68.4841 86.0266 68.7152 86.4374C68.9464 86.8481 69.2763 87.1754 69.7085 87.4158C70.139 87.6563 70.5946 87.7782 71.0736 87.7782C71.5443 87.7782 71.9865 87.6563 72.4002 87.4142C72.8139 87.1704 73.1439 86.8314 73.3901 86.3956C73.6364 85.9598 73.7586 85.5023 73.7586 85.0247C73.7586 84.5439 73.6364 84.0863 73.3935 83.6539C73.1506 83.2214 72.8223 82.8858 72.4103 82.647C71.9982 82.4083 71.546 82.288 71.0585 82.288Z" fill="white"/>
<path d="M84.8622 81.6201V88.4077H83.9979V87.2405C83.6311 87.6863 83.219 88.0203 82.7618 88.244C82.3045 88.4694 81.8053 88.5813 81.2626 88.5813C80.2995 88.5813 79.4754 88.2323 78.7937 87.536C78.112 86.8398 77.7703 85.9915 77.7703 84.9947C77.7703 84.0179 78.1136 83.1813 78.8021 82.4867C79.4905 81.7921 80.3179 81.4448 81.2861 81.4448C81.8455 81.4448 82.3514 81.5634 82.8036 81.8005C83.2559 82.0376 83.6529 82.3932 83.9962 82.8674V81.6201H84.8622ZM81.3615 82.288C80.874 82.288 80.4235 82.4083 80.0114 82.647C79.5994 82.8858 79.2711 83.2214 79.0265 83.6539C78.782 84.0863 78.6614 84.5422 78.6614 85.0247C78.6614 85.5023 78.7836 85.9598 79.0299 86.3956C79.2761 86.8314 79.6061 87.172 80.0198 87.4142C80.4352 87.6579 80.8791 87.7782 81.3548 87.7782C81.8338 87.7782 82.2877 87.6579 82.7182 87.4158C83.147 87.1754 83.477 86.8481 83.7081 86.4374C83.9393 86.0266 84.0549 85.5624 84.0549 85.0481C84.0549 84.2633 83.7952 83.6071 83.276 83.0795C82.7584 82.5518 82.1186 82.288 81.3615 82.288Z" fill="white"/>
<path d="M88.2959 81.6201H89.1903V82.612C89.4566 82.2212 89.738 81.929 90.0345 81.7353C90.331 81.5417 90.6392 81.4448 90.9608 81.4448C91.202 81.4448 91.4616 81.5216 91.7363 81.6752L91.279 82.4116C91.0948 82.3331 90.9407 82.293 90.8151 82.293C90.5236 82.293 90.2422 82.4133 89.9709 82.652C89.6995 82.8908 89.4935 83.2632 89.3511 83.7658C89.2422 84.1531 89.1886 84.9346 89.1886 86.1118V88.4077H88.2942V81.6201H88.2959Z" fill="white"/>
<path d="M101.061 81.6201V88.4077H100.197V87.2405C99.8299 87.6863 99.4179 88.0203 98.9606 88.244C98.5033 88.4694 98.0042 88.5813 97.4615 88.5813C96.4984 88.5813 95.6743 88.2323 94.9925 87.536C94.3108 86.8398 93.9691 85.9915 93.9691 84.9947C93.9691 84.0179 94.3125 83.1813 95.0009 82.4867C95.6893 81.7921 96.5168 81.4448 97.4849 81.4448C98.0444 81.4448 98.5502 81.5634 99.0025 81.8005C99.4547 82.0376 99.8517 82.3932 100.195 82.8674V81.6201H101.061ZM97.5586 82.288C97.0712 82.288 96.6206 82.4083 96.2086 82.647C95.7965 82.8858 95.4682 83.2214 95.2237 83.6539C94.9791 84.0863 94.8585 84.5422 94.8585 85.0247C94.8585 85.5023 94.9808 85.9598 95.227 86.3956C95.4733 86.8314 95.8032 87.172 96.2186 87.4142C96.6324 87.6579 97.0779 87.7782 97.5536 87.7782C98.0327 87.7782 98.4866 87.6579 98.9154 87.4158C99.3442 87.1754 99.6742 86.8481 99.907 86.4374C100.14 86.0266 100.254 85.5624 100.254 85.0481C100.254 84.2633 99.9941 83.6071 99.4748 83.0795C98.9556 82.5518 98.3174 82.288 97.5586 82.288Z" fill="white"/>
<path d="M104.269 81.6201H109.269L105.414 87.6346H109.145V88.4077H103.907L107.758 82.3882H104.269V81.6201Z" fill="white"/>
<path d="M111.508 81.6201H116.508L112.654 87.6346H116.384V88.4077H111.146L114.997 82.3882H111.508V81.6201Z" fill="white"/>
<path d="M119.607 78.8267C119.806 78.8267 119.977 78.8968 120.118 79.0387C120.258 79.1806 120.329 79.351 120.329 79.5497C120.329 79.745 120.258 79.9137 120.118 80.0556C119.977 80.1975 119.806 80.2677 119.607 80.2677C119.411 80.2677 119.243 80.1975 119.103 80.0556C118.962 79.9137 118.891 79.7467 118.891 79.5497C118.891 79.3493 118.962 79.179 119.103 79.0387C119.243 78.8968 119.412 78.8267 119.607 78.8267ZM119.171 81.6201H120.047V88.4077H119.171V81.6201Z" fill="white"/>
<path d="M129.181 79.2324H130.101V84.7726C130.101 85.4305 130.114 85.8396 130.137 86.0016C130.183 86.3639 130.29 86.6661 130.457 86.9099C130.625 87.1537 130.881 87.3574 131.228 87.521C131.575 87.6847 131.923 87.7682 132.273 87.7682C132.578 87.7682 132.869 87.703 133.149 87.5745C133.429 87.4459 133.662 87.2672 133.849 87.0385C134.037 86.8097 134.174 86.5325 134.263 86.2086C134.325 85.9765 134.357 85.4973 134.357 84.7743V79.2341H135.276V84.7743C135.276 85.5941 135.196 86.2554 135.035 86.7613C134.874 87.2672 134.553 87.7064 134.072 88.0804C133.59 88.4544 133.007 88.6414 132.323 88.6414C131.581 88.6414 130.945 88.4644 130.414 88.1104C129.885 87.7565 129.529 87.2889 129.35 86.7062C129.238 86.3489 129.181 85.7043 129.181 84.7726V79.2324Z" fill="white"/>
<path d="M139.337 79.2324H140.275V82.6754L143.954 79.2324H145.191L140.769 83.35L145.534 88.4093H144.308L140.273 84.1348V88.4093H139.335V79.2324H139.337Z" fill="white"/>
<path d="M52.9366 46.0328C52.6921 45.6054 52.6301 45.238 52.7524 45.0544L55.8779 41.2056C56.0622 40.9 56.6752 41.1438 57.1643 41.633C57.6551 42.1223 57.8996 42.7317 57.7154 43.039C57.7154 43.1008 56.305 45.4217 54.0991 49.0267C54.7724 49.7597 55.3855 50.6764 55.9382 51.7768C56.2448 52.3879 56.1828 52.8153 55.6937 52.7536C55.2649 52.7536 54.6518 52.2042 54.2833 51.6549C53.9768 51.1039 53.6703 50.6163 53.3638 50.1888C51.0958 53.7938 48.1545 58.4374 45.0273 63.081C53.9148 62.0424 62.1893 58.2537 67.7671 53.4265C70.2796 51.2875 72.1807 48.9666 73.4671 46.5221C74.7535 44.1393 75.3063 41.7566 75.06 39.3739C74.8758 37.4186 74.0801 35.5251 72.6078 33.8136C68.5627 29.1701 58.2648 27.0311 46.6805 27.4586C35.2805 27.886 22.6543 31.0018 13.3982 36.8075C9.16887 39.434 5.55255 43.1625 3.7134 47.0731C2.9161 48.8447 2.427 50.6163 2.427 52.3278C2.427 53.9157 2.7955 55.4435 3.6531 56.7877C4.63297 58.3756 6.41182 59.8433 9.10857 61.0656C9.65965 61.3094 10.2124 61.9823 10.3347 62.4715C10.4569 63.0208 10.0901 63.2663 9.53737 63.0208C6.04332 61.3711 3.6531 59.2322 2.12047 56.9112C0.956349 54.956 0.405273 53.0007 0.405273 50.9853C0.405273 49.0918 0.956349 47.1966 1.81562 45.3633C3.71507 41.3308 7.39337 37.4821 11.745 34.7921C21.0614 28.9263 33.8098 25.8105 45.3941 25.3831C57.6517 24.8938 68.747 27.522 73.5877 33.0823C75.6714 35.465 76.7752 38.0314 77.0818 40.536C77.3263 43.1642 76.7133 45.7907 75.3666 48.2953C74.0802 50.8 72.0568 53.1827 69.5443 55.3834C63.66 60.4544 54.9567 64.365 45.7006 65.2817C44.9033 65.4036 44.1077 65.4654 43.3724 65.5255C36.5685 75.3619 29.0913 84.8945 25.3527 85.322C23.5136 85.5057 22.594 84.4053 22.3495 82.2663C21.981 79.2107 24.6777 71.757 28.7848 64.4251C28.969 64.1195 29.0913 63.814 29.2756 63.5084C29.031 63.3865 28.8468 63.2646 28.6022 63.1411C26.6408 62.1025 25.2305 60.7583 24.2506 59.2923H24.1886C23.269 57.8263 22.7783 56.4203 22.5957 55.0144C22.4114 53.4265 22.7799 51.9588 23.393 50.7983C23.5772 50.4927 24.1283 50.6146 24.6794 51.1039C25.1702 51.5931 25.4767 52.2643 25.2924 52.5699C24.7413 53.5467 24.4951 54.8307 24.6191 56.1749C24.681 57.1534 25.0479 58.1302 25.6006 58.9851L25.6609 59.0468C26.212 59.8416 27.0713 60.6348 28.3577 61.3077C28.8484 61.6132 29.4615 61.9188 30.0729 62.1626C33.9957 55.6255 38.8984 49.5143 43.5566 47.0096C46.5599 45.4217 49.5632 45.1763 52.1996 47.1933L52.9366 46.0328ZM40.1882 65.5839C36.7561 65.5839 33.9371 65.1564 31.6691 64.4234C31.3626 65.0346 30.9958 65.5839 30.6893 66.195C26.8284 73.1595 24.1919 80.0639 24.3142 83.1196C27.7446 82.3265 34.0577 74.3835 40.1882 65.5839ZM32.649 62.8956C35.0392 63.3848 38.0425 63.6286 41.7208 63.3848C45.3372 58.07 48.8312 52.6317 51.4057 48.4757C49.5665 47.4972 47.4209 47.8645 45.2149 49.0868C40.9235 51.4094 36.3876 56.8478 32.649 62.8956Z" fill="url(#paint0_linear_377_3577)"/>
<path d="M71.0199 55.8092C71.2042 55.5036 71.8172 55.6873 72.3063 56.1765C72.8574 56.6658 73.1036 57.337 72.9194 57.6426L70.6514 61.2476C72.7971 60.209 75.7384 59.2322 76.9645 60.7583C77.5156 61.3695 77.333 62.7754 78.1286 62.8355C79.2928 62.8973 81.0096 62.6518 82.6645 62.1643C83.033 62.0424 83.3999 61.7368 83.7684 62.2862C84.1972 62.8973 83.9526 63.0809 83.5841 63.1411C81.8069 63.6904 78.864 64.3015 77.5776 64.1796C75.9846 64.0578 75.4939 63.6286 74.1455 62.0407C73.2259 60.942 67.7704 65.7676 67.7704 65.7676C67.6482 65.8293 64.4606 71.2059 64.1541 71.7553C63.9699 72.0608 63.3568 71.8772 62.8677 71.3879C62.3166 70.8987 62.0704 70.2275 62.2547 69.9219L71.0199 55.8092Z" fill="url(#paint1_linear_377_3577)"/>
<path d="M82.482 59.2906C82.7265 59.107 83.3396 59.3524 83.8304 59.9018C84.3211 60.4511 84.4434 61.0622 84.1989 61.3077C84.0146 61.4296 83.8304 61.5515 83.7081 61.675C82.4217 62.8355 81.3798 64.7307 80.7048 66.6242C80.214 68.2121 79.9695 69.6798 80.276 70.2892C80.5825 70.4111 80.951 70.4111 81.4401 70.2892C81.9912 70.1056 82.6662 69.7399 83.2793 69.1288C84.1369 68.3958 84.9342 67.2954 85.6695 65.8911C86.0983 65.0963 86.4048 64.2414 86.6494 63.3865C85.5456 62.4698 84.7499 61.3695 84.2592 60.2708C83.7684 59.1704 83.5858 58.0717 83.6461 57.2769C83.7684 56.422 84.1369 55.8109 84.8722 55.689C85.4233 55.6272 85.9141 55.7491 86.4048 55.9945C87.2021 56.422 87.8755 57.155 88.3043 58.0717C88.6728 58.7429 88.8554 59.4776 88.9776 60.2708C89.0999 61.0639 89.0999 61.9823 88.9776 62.8973C90.326 63.1411 92.3494 63.3865 94.4934 62.1643C94.7999 61.9806 95.1065 61.7368 95.5972 62.2862C96.026 62.8355 95.9657 63.2646 95.6592 63.4466C92.7782 65.0346 90.6325 65.28 88.7331 64.6071C88.4885 65.6457 88.12 66.746 87.569 67.6627C86.8336 69.0687 85.976 70.2909 85.0565 71.0841C84.3211 71.6952 83.6461 72.1827 82.9728 72.3664C82.1755 72.6102 81.3798 72.5501 80.5825 72.1226C80.1537 71.8788 79.7249 71.5716 79.3564 71.1442C79.2342 71.0223 79.1119 70.9004 78.9879 70.7768C78.0064 69.3709 78.0684 67.1117 78.7434 64.9728C79.4167 62.9557 80.5825 60.9403 81.9309 59.7181C82.1135 59.5979 82.2977 59.4142 82.482 59.2906ZM86.9559 61.9188C87.0782 60.9403 87.0782 59.9635 86.9559 59.1687C86.8939 58.6194 86.7717 58.1302 86.6494 57.8246C86.5874 57.8246 86.7114 57.8246 86.7114 57.8246C86.6494 57.7628 86.4668 57.7628 86.2826 57.8246C85.9141 57.8246 85.7315 58.1903 85.6695 58.7413C85.6075 59.2906 85.7298 59.9635 86.038 60.6348C86.2206 61.124 86.5271 61.5515 86.9559 61.9188Z" fill="url(#paint2_linear_377_3577)"/>
<path d="M115.456 57.0315C115.701 56.7877 116.314 57.0315 116.804 57.5207C117.295 58.0717 117.478 58.6812 117.295 58.9867C112.637 64.3032 112.27 67.9683 112.699 68.3356C113.434 68.9468 118.154 65.9529 121.464 60.3927L121.648 60.1489C121.893 59.9051 122.506 60.0871 122.997 60.6381C123.488 61.1273 123.732 61.7986 123.488 62.044C123.488 62.044 123.365 62.2277 123.059 62.4715C122.262 63.45 117.665 69.9252 122.262 67.7262C124.652 66.5657 127.471 64.3049 129.065 62.2277C129.31 61.9221 129.556 61.311 130.107 61.862C130.598 62.3513 130.291 62.7169 130.045 62.9607C128.39 65.0997 126.06 67.9716 123.61 69.1321C121.464 70.1707 118.767 69.6831 118.401 67.0549C112.332 72.2479 107.367 71.2711 110.739 63.8173C111.84 61.3695 113.863 58.7413 115.456 57.0315Z" fill="url(#paint3_linear_377_3577)"/>
<path d="M137.276 63.7522C137.092 64.1195 136.541 63.996 136.05 63.5084C135.499 63.0192 135.193 62.3479 135.315 62.0424C135.377 62.0424 136.357 59.9034 136.112 59.9034C134.948 59.8416 132.435 61.4913 130.534 63.6303C129.799 64.4251 129.186 65.28 128.695 66.1349C128.266 66.9297 128.022 67.7846 127.96 68.5176C127.96 69.067 128.082 69.5562 128.389 69.8618C130.963 72.1226 143.527 62.7136 143.589 62.7136C143.834 62.6518 144.387 61.9188 144.815 62.0407C145.306 62.5917 145.489 63.2012 145.244 63.4466C145.182 63.4466 131.943 74.7491 127.838 71.084C126.489 69.8618 125.938 68.5176 125.998 67.1735C125.998 66.195 126.305 65.28 126.796 64.3633C127.287 63.4466 127.96 62.5917 128.695 61.7368C130.719 59.476 133.476 57.7044 134.886 57.7645C140.095 57.9481 137.276 63.7522 137.276 63.7522Z" fill="url(#paint4_linear_377_3577)"/>
<path d="M161.364 34.9123C161.549 34.6685 162.162 34.7904 162.651 35.3398C163.142 35.829 163.386 36.5002 163.204 36.7457C163.204 36.8075 158.73 42.9772 153.949 50.127H169.579C170.007 50.127 170.681 50.6163 170.989 51.1656C171.356 51.7768 171.296 52.266 170.867 52.266H152.539C151.252 54.2213 149.964 56.2383 148.738 58.1919V58.2537C148.738 58.4975 148.616 58.6211 148.494 58.6211C144.755 64.6705 142.732 68.152 143.407 69.3742C144.511 71.4514 156.952 61.5531 156.952 61.493C157.197 61.3093 157.566 61.1875 158.055 61.7368C158.545 62.2861 158.177 62.5917 157.932 62.7754C157.87 62.8355 143.958 76.5224 140.955 71.0239C140.035 69.3124 142.854 63.4483 146.777 56.9713C146.715 56.9713 147.144 56.3001 147.144 56.3001C147.266 51.6565 131.576 52.2677 131.576 52.2677C131.147 52.2677 130.472 51.7784 130.166 51.1673C129.797 50.618 129.859 50.1287 130.288 50.1287H151.005C156.155 42.1223 161.302 34.9741 161.364 34.9123ZM147.819 55.1981C148.432 54.2196 149.045 53.2428 149.658 52.266L141.996 51.9604C143.834 52.6918 146.839 53.914 147.819 55.1981Z" fill="url(#paint5_linear_377_3577)"/>
<path d="M103.873 64.9344C103.813 65.2399 103.445 65.3 103.016 65.0563L102.954 65.1781C100.748 67.0716 98.7864 68.5995 97.2538 69.5779C95.1701 70.8603 91.676 71.1659 91.8603 67.6844C91.9223 66.7677 92.351 65.6073 93.0244 64.4468C94.2505 62.4314 96.8853 59.0702 99.4597 59.1921C101.85 59.1303 102.585 60.3526 103.198 61.2693C105.466 59.1303 107.796 56.6257 110.002 53.9975C115.029 48.0098 118.461 43.0607 120.116 40.4943L121.402 38.539C121.586 38.2334 122.138 38.3553 122.69 38.9047C123.181 39.3939 123.488 40.005 123.303 40.3707C123.303 40.3707 122.813 41.1655 121.833 42.6316C115.824 52.0422 99.6641 76.1818 100.522 78.1972C100.766 78.8083 100.522 79.1139 100.031 78.992C99.5401 78.8701 98.9271 78.3207 98.7445 77.7096C98.0092 75.9981 99.582 73.6721 107.428 60.78C106.264 62.0023 105.099 63.1628 103.934 64.2013C103.935 64.6288 103.873 64.8743 103.873 64.9344ZM101.85 62.5516C101.728 62.1242 101.421 61.6349 100.624 61.6349C98.4179 61.5131 95.9657 64.5069 94.9238 66.2167C94.4331 67.0716 94.0662 67.8664 93.9423 68.4776C94.3108 68.2939 94.8619 67.9883 95.5352 67.5609C97.0679 66.6442 99.0293 65.1164 101.175 63.2229L101.85 62.5516Z" fill="url(#paint6_linear_377_3577)"/>
<defs>
<linearGradient id="paint0_linear_377_3577" x1="0.409243" y1="55.3315" x2="77.1384" y2="55.3315" gradientUnits="userSpaceOnUse">
<stop stop-color="#FFBC21"/>
<stop offset="0.1344" stop-color="#FD843A"/>
<stop offset="0.2742" stop-color="#FC5554"/>
<stop offset="0.4301" stop-color="#FC365F"/>
<stop offset="0.6129" stop-color="#F02E6B"/>
<stop offset="0.7903" stop-color="#DD3578"/>
<stop offset="1" stop-color="#81399D"/>
</linearGradient>
<linearGradient id="paint1_linear_377_3577" x1="62.1944" y1="63.7823" x2="83.9956" y2="63.7823" gradientUnits="userSpaceOnUse">
<stop stop-color="#FFBC21"/>
<stop offset="0.1344" stop-color="#FD843A"/>
<stop offset="0.2742" stop-color="#FC5554"/>
<stop offset="0.4301" stop-color="#FC365F"/>
<stop offset="0.6129" stop-color="#F02E6B"/>
<stop offset="0.7903" stop-color="#DD3578"/>
<stop offset="1" stop-color="#81399D"/>
</linearGradient>
<linearGradient id="paint2_linear_377_3577" x1="78.2425" y1="64.0904" x2="95.9041" y2="64.0904" gradientUnits="userSpaceOnUse">
<stop stop-color="#FFBC21"/>
<stop offset="0.1344" stop-color="#FD843A"/>
<stop offset="0.2742" stop-color="#FC5554"/>
<stop offset="0.4301" stop-color="#FC365F"/>
<stop offset="0.6129" stop-color="#F02E6B"/>
<stop offset="0.7903" stop-color="#DD3578"/>
<stop offset="1" stop-color="#81399D"/>
</linearGradient>
<linearGradient id="paint3_linear_377_3577" x1="109.645" y1="63.6207" x2="130.366" y2="63.6207" gradientUnits="userSpaceOnUse">
<stop stop-color="#FFBC21"/>
<stop offset="0.1344" stop-color="#FD843A"/>
<stop offset="0.2742" stop-color="#FC5554"/>
<stop offset="0.4301" stop-color="#FC365F"/>
<stop offset="0.6129" stop-color="#F02E6B"/>
<stop offset="0.7903" stop-color="#DD3578"/>
<stop offset="1" stop-color="#81399D"/>
</linearGradient>
<linearGradient id="paint4_linear_377_3577" x1="125.994" y1="64.7888" x2="145.353" y2="64.7888" gradientUnits="userSpaceOnUse">
<stop stop-color="#FFBC21"/>
<stop offset="0.1344" stop-color="#FD843A"/>
<stop offset="0.2742" stop-color="#FC5554"/>
<stop offset="0.4301" stop-color="#FC365F"/>
<stop offset="0.6129" stop-color="#F02E6B"/>
<stop offset="0.7903" stop-color="#DD3578"/>
<stop offset="1" stop-color="#81399D"/>
</linearGradient>
<linearGradient id="paint5_linear_377_3577" x1="129.925" y1="53.5588" x2="171.229" y2="53.5588" gradientUnits="userSpaceOnUse">
<stop stop-color="#FFBC21"/>
<stop offset="0.1344" stop-color="#FD843A"/>
<stop offset="0.2742" stop-color="#FC5554"/>
<stop offset="0.4301" stop-color="#FC365F"/>
<stop offset="0.6129" stop-color="#F02E6B"/>
<stop offset="0.7903" stop-color="#DD3578"/>
<stop offset="1" stop-color="#81399D"/>
</linearGradient>
<linearGradient id="paint6_linear_377_3577" x1="91.8529" y1="58.6973" x2="123.357" y2="58.6973" gradientUnits="userSpaceOnUse">
<stop stop-color="#FFBC21"/>
<stop offset="0.1344" stop-color="#FD843A"/>
<stop offset="0.2742" stop-color="#FC5554"/>
<stop offset="0.4301" stop-color="#FC365F"/>
<stop offset="0.6129" stop-color="#F02E6B"/>
<stop offset="0.7903" stop-color="#DD3578"/>
<stop offset="1" stop-color="#81399D"/>
</linearGradient>
</defs>
</svg>
