<svg width="190" height="114" viewBox="0 0 190 114" fill="none" xmlns="http://www.w3.org/2000/svg">
<path d="M141.196 13.9046C155.34 16.5601 166.902 25.0711 173.851 36.4582C167.577 23.762 155.62 14.0674 140.629 11.2524C118.498 7.0978 97.0873 19.3157 88.8782 39.3715C98.5304 20.7656 119.532 9.83814 141.196 13.9046Z" fill="black"/>
<path d="M85.9649 24.3251L85.5647 24.025L87.2469 21.7832L87.6471 22.0834L86.962 22.9957L90.652 25.7648L90.3383 26.182L86.6483 23.4128L85.9649 24.3251Z" fill="black"/>
<path d="M88.5491 20.1739L88.8916 19.7957L90.4805 21.2371L92.2306 19.3073L90.6416 17.8659L90.9842 17.4878L94.7742 20.9234L94.4317 21.3016L92.6036 19.6431L90.8536 21.5729L92.6816 23.2313L92.3391 23.6095L88.5491 20.1739Z" fill="black"/>
<path d="M92.8564 15.6595L95.0321 13.6958L95.3679 14.0672L93.5721 15.6883L94.6455 16.8787L96.426 15.2712L96.7618 15.6425L94.9812 17.2501L96.3277 18.7424L98.1082 17.1348L98.444 17.5062L96.2836 19.4563L92.8564 15.6595Z" fill="black"/>
<path d="M99.2849 10.4162L101.722 8.78662L102 9.20208L99.9886 10.5468L100.879 11.8797L102.873 10.5468L103.151 10.9623L101.157 12.2951L102.275 13.9655L104.269 12.6326L104.547 13.0498L102.127 14.6675L99.2849 10.4162Z" fill="black"/>
<path d="M103.397 7.76922L103.923 7.48603L105.946 8.65611L106.085 6.31935L106.604 6.03955L106.434 8.9393L109.12 10.4943L108.595 10.7775L106.4 9.50907L106.253 12.0408L105.727 12.324L105.912 9.22419L103.397 7.76922Z" fill="black"/>
<path d="M108.705 5.05415L109.644 4.66073C110.184 4.4352 110.557 4.30632 110.765 4.27579C111.062 4.23001 111.34 4.2741 111.598 4.40806C111.856 4.54203 112.049 4.76587 112.179 5.07789C112.31 5.3916 112.335 5.68667 112.254 5.95968C112.173 6.2344 112 6.46671 111.737 6.66003C111.545 6.80078 111.155 6.9941 110.568 7.23829L110.231 7.37903L111.148 9.57334L110.677 9.77005L108.705 5.05415ZM109.37 5.31869L110.039 6.91948L110.841 6.59559C111.164 6.45993 111.389 6.33275 111.513 6.21065C111.638 6.09026 111.717 5.94612 111.747 5.77824C111.778 5.61036 111.759 5.44587 111.691 5.28477C111.625 5.12706 111.521 4.99988 111.381 4.90492C111.24 4.80996 111.089 4.76417 110.925 4.76587C110.762 4.76926 110.521 4.83709 110.202 4.97106L109.37 5.31869Z" fill="black"/>
<path d="M113.887 3.02933L116.685 2.15771L116.834 2.63592L114.525 3.35662L115.001 4.88619L117.292 4.17228L117.442 4.65048L115.151 5.36439L115.749 7.2823L118.04 6.56838L118.189 7.04659L115.412 7.91142L113.887 3.02933Z" fill="black"/>
<path d="M118.876 1.59504L119.873 1.38646C120.429 1.26945 120.811 1.21349 121.018 1.21858C121.33 1.22367 121.601 1.32033 121.835 1.50516C122.067 1.69 122.218 1.94606 122.288 2.27334C122.345 2.54636 122.33 2.79903 122.245 3.03304C122.161 3.26706 122.01 3.46037 121.794 3.61638C121.579 3.77239 121.26 3.89449 120.841 3.98436L123.129 5.93109L122.51 6.05997L120.222 4.11324L119.939 4.17259L120.426 6.49748L119.926 6.60261L118.876 1.59504ZM119.48 1.97998L119.836 3.68252L120.699 3.50785C121.033 3.43833 121.274 3.35354 121.42 3.25688C121.567 3.16022 121.671 3.03135 121.732 2.87364C121.793 2.71594 121.805 2.54975 121.767 2.37678C121.732 2.2089 121.655 2.06646 121.535 1.94776C121.415 1.82905 121.275 1.75614 121.116 1.729C120.957 1.70187 120.704 1.72222 120.361 1.79514L119.48 1.97998Z" fill="black"/>
<path d="M123.95 1.14052L123.891 0.643661L126.673 0.312988L126.733 0.809846L125.6 0.943811L126.144 5.52575L125.627 5.5868L125.083 1.00486L123.95 1.14052Z" fill="black"/>
<path d="M128.325 4.34375L128.749 4.06734C129.076 4.61846 129.439 4.88639 129.841 4.87282C130.012 4.86604 130.172 4.82025 130.319 4.73547C130.467 4.65068 130.577 4.53876 130.651 4.4014C130.724 4.26405 130.758 4.11991 130.753 3.96898C130.746 3.79771 130.682 3.63153 130.562 3.47213C130.394 3.25168 130.092 2.98884 129.656 2.68529C129.218 2.38006 128.944 2.15622 128.834 2.01717C128.644 1.78315 128.544 1.5254 128.533 1.24559C128.525 1.02345 128.571 0.818264 128.671 0.63173C128.771 0.445197 128.915 0.294274 129.105 0.182354C129.295 0.0704339 129.503 0.00938662 129.729 0.000907826C129.97 -0.00757097 130.197 0.0433018 130.411 0.155222C130.624 0.267142 130.855 0.477416 131.101 0.789436L130.695 1.1218C130.494 0.874224 130.324 0.713127 130.185 0.636817C130.046 0.560508 129.897 0.524897 129.737 0.531681C129.531 0.538464 129.364 0.60799 129.239 0.738563C129.113 0.869137 129.052 1.02515 129.059 1.20829C129.062 1.32021 129.091 1.42704 129.14 1.52879C129.19 1.63053 129.28 1.74076 129.407 1.85946C129.476 1.9222 129.703 2.0833 130.087 2.34614C130.541 2.65647 130.855 2.93627 131.03 3.18385C131.204 3.43312 131.296 3.68579 131.304 3.94185C131.318 4.31322 131.189 4.6405 130.918 4.9237C130.646 5.20689 130.309 5.35781 129.907 5.37138C129.597 5.38325 129.312 5.31033 129.054 5.15432C128.796 4.99322 128.552 4.72529 128.325 4.34375Z" fill="black"/>
<path d="M136.563 0.26709L137.072 0.31118L136.636 5.40694L136.127 5.36284L136.563 0.26709Z" fill="black"/>
<path d="M138.681 5.59543L139.534 0.552246L139.644 0.5709L142.347 5.00361L143.002 1.13728L143.499 1.22207L142.646 6.26526L142.532 6.2466L139.848 1.86476L139.202 5.68361L138.681 5.59543Z" fill="black"/>
<path d="M149.103 2.68555L150.068 3.01452C150.621 3.20275 150.985 3.35537 151.162 3.46899C151.414 3.63178 151.592 3.84884 151.696 4.12016C151.799 4.39148 151.796 4.68824 151.687 5.00874C151.577 5.33093 151.401 5.56834 151.158 5.71926C150.916 5.87018 150.631 5.93123 150.307 5.90071C150.07 5.87866 149.651 5.76505 149.049 5.55986L148.703 5.44115L147.935 7.69143L147.451 7.52524L149.103 2.68555ZM149.425 3.32315L148.864 4.96465L149.68 5.25462C150.01 5.36824 150.263 5.42081 150.438 5.41233C150.612 5.40385 150.765 5.34789 150.899 5.24275C151.033 5.13761 151.128 5.00195 151.185 4.83577C151.241 4.67298 151.248 4.51018 151.206 4.34569C151.163 4.18121 151.082 4.04555 150.956 3.94041C150.833 3.83527 150.607 3.72505 150.28 3.61482L149.425 3.32315Z" fill="black"/>
<path d="M154.367 4.61865L155.293 5.04259C155.81 5.2783 156.149 5.45975 156.313 5.58524C156.561 5.77516 156.724 6.01257 156.802 6.29915C156.88 6.58573 156.849 6.88079 156.71 7.18603C156.595 7.4387 156.434 7.63541 156.227 7.77276C156.02 7.91012 155.784 7.97795 155.518 7.97456C155.252 7.97117 154.923 7.88299 154.533 7.70663L155.22 10.6318L154.645 10.369L153.958 7.44379L153.695 7.32339L152.708 9.48378L152.244 9.27181L154.367 4.61865ZM154.623 5.28678L153.9 6.86893L154.699 7.24199C155.009 7.38444 155.252 7.45905 155.428 7.46753C155.605 7.47601 155.764 7.43531 155.906 7.34374C156.049 7.25217 156.157 7.12668 156.23 6.96558C156.301 6.80957 156.324 6.64848 156.298 6.48229C156.273 6.31611 156.203 6.17366 156.091 6.05666C155.979 5.93965 155.764 5.80738 155.445 5.66154L154.623 5.28678Z" fill="black"/>
<path d="M161.686 8.24931C162.347 8.6512 162.767 9.20911 162.944 9.92302C163.122 10.6352 163.013 11.3152 162.62 11.9613C162.232 12.6006 161.679 13.0076 160.961 13.1823C160.244 13.3569 159.568 13.2501 158.928 12.8601C158.28 12.465 157.868 11.9105 157.692 11.1965C157.516 10.4809 157.619 9.80941 158.002 9.18028C158.258 8.75973 158.596 8.43245 159.016 8.19843C159.437 7.96442 159.885 7.8508 160.359 7.86098C160.836 7.87285 161.277 8.00173 161.686 8.24931ZM161.446 8.68681C161.123 8.4901 160.765 8.38836 160.373 8.37988C159.981 8.3714 159.617 8.46128 159.281 8.64781C158.945 8.83434 158.67 9.10227 158.457 9.4533C158.141 9.9722 158.053 10.5199 158.196 11.0982C158.338 11.6747 158.664 12.1173 159.171 12.426C159.51 12.6328 159.874 12.7414 160.263 12.7515C160.651 12.7634 161.014 12.6752 161.348 12.487C161.684 12.3005 161.957 12.0325 162.169 11.6832C162.379 11.3356 162.489 10.9727 162.499 10.5945C162.508 10.2164 162.416 9.8535 162.226 9.50586C162.037 9.15823 161.775 8.88691 161.446 8.68681Z" fill="black"/>
<path d="M162.781 15.2406L165.972 11.2437L166.802 11.905C167.4 12.3815 167.795 12.7766 167.989 13.0886C168.268 13.5346 168.382 14.0111 168.333 14.5216C168.284 15.0303 168.073 15.517 167.704 15.9816C167.383 16.3818 167.017 16.665 166.6 16.8312C166.184 16.9974 165.779 17.0431 165.387 16.9668C164.996 16.8905 164.55 16.6548 164.053 16.2563L162.781 15.2406ZM163.466 15.1693L163.927 15.5373C164.48 15.9782 164.891 16.2495 165.158 16.3513C165.537 16.4937 165.915 16.5056 166.29 16.3886C166.664 16.2716 166.998 16.0291 167.292 15.6611C167.599 15.2762 167.77 14.8726 167.8 14.4486C167.833 14.0264 167.721 13.6313 167.47 13.2633C167.28 12.9886 166.898 12.6206 166.325 12.1628L166.042 11.9372L163.466 15.1693Z" fill="black"/>
<path d="M171.122 15.5732L171.484 15.9344L169.3 18.1169C169.04 18.3763 168.884 18.5425 168.83 18.6154C168.706 18.7765 168.628 18.9376 168.597 19.0987C168.567 19.2598 168.587 19.4413 168.659 19.6414C168.73 19.8415 168.835 20.011 168.972 20.1501C169.091 20.2705 169.232 20.3587 169.393 20.418C169.554 20.4774 169.715 20.4977 169.879 20.4825C170.044 20.4655 170.207 20.4112 170.37 20.318C170.487 20.2501 170.687 20.0755 170.972 19.7889L173.156 17.6065L173.517 17.9677L171.333 20.1501C171.011 20.4723 170.717 20.7029 170.454 20.8386C170.191 20.9742 169.893 21.0217 169.556 20.9793C169.218 20.9369 168.916 20.7826 168.647 20.513C168.355 20.2213 168.175 19.9008 168.106 19.5532C168.036 19.2056 168.082 18.8817 168.241 18.5815C168.338 18.3967 168.57 18.1203 168.938 17.754L171.122 15.5732Z" fill="black"/>
<path d="M177.539 24.2878L177.046 24.1623C177.136 23.8079 177.142 23.462 177.066 23.1245C176.99 22.787 176.837 22.4716 176.605 22.18C176.352 21.8595 176.04 21.6238 175.672 21.4728C175.303 21.3219 174.929 21.2727 174.551 21.327C174.173 21.3813 173.822 21.5373 173.5 21.7933C173.01 22.18 172.735 22.67 172.672 23.2652C172.61 23.8588 172.781 24.4116 173.185 24.9237C173.629 25.485 174.221 25.7818 174.958 25.8123L174.968 26.3193C174.556 26.321 174.161 26.226 173.787 26.0361C173.412 25.8462 173.078 25.5681 172.786 25.1984C172.231 24.4964 172.028 23.757 172.176 22.9821C172.301 22.3309 172.644 21.7832 173.201 21.3423C173.788 20.8776 174.446 20.6945 175.172 20.7894C175.899 20.8844 176.506 21.2422 176.997 21.8629C177.293 22.2376 177.485 22.6344 177.577 23.0533C177.666 23.4721 177.655 23.8825 177.539 24.2878Z" fill="black"/>
<path d="M178.911 25.5372L179.333 25.2676L180.841 27.6298L180.419 27.8994L179.805 26.9379L175.915 29.4188L175.635 28.9796L179.525 26.4987L178.911 25.5372Z" fill="black"/>
<path d="M183.329 32.2065L183.749 33.1341C183.99 33.6666 184.131 34.0346 184.168 34.2415C184.224 34.5365 184.187 34.8163 184.061 35.0775C183.936 35.3386 183.717 35.5387 183.408 35.6795C183.098 35.8202 182.805 35.8541 182.528 35.7812C182.252 35.7083 182.013 35.5421 181.813 35.286C181.667 35.0978 181.462 34.7146 181.199 34.1363L181.048 33.804L178.882 34.7875L178.67 34.3229L183.329 32.2065ZM183.084 32.8798L181.504 33.5971L181.852 34.389C181.996 34.7078 182.131 34.9282 182.257 35.0486C182.382 35.1707 182.528 35.2436 182.696 35.2691C182.864 35.2945 183.028 35.2708 183.188 35.1979C183.344 35.1266 183.468 35.0198 183.559 34.8774C183.651 34.7349 183.691 34.5806 183.685 34.4178C183.678 34.255 183.602 34.0159 183.459 33.7022L183.084 32.8798Z" fill="black"/>
<path d="M185.531 37.3433L185.694 37.8283L183.659 38.5083L184.485 40.979L186.52 40.299L186.681 40.784L181.83 42.4051L181.667 41.9201L184.009 41.1384L183.183 38.6677L180.841 39.4494L180.678 38.9644L185.531 37.3433Z" fill="black"/>
<path d="M188.026 45.7491C188.18 46.5088 188.055 47.1956 187.651 47.8095C187.247 48.4233 186.676 48.8049 185.935 48.9558C185.201 49.1033 184.527 48.9745 183.912 48.5675C183.298 48.1605 182.916 47.589 182.767 46.8548C182.616 46.112 182.745 45.432 183.15 44.8182C183.556 44.2043 184.12 43.8227 184.843 43.6769C185.324 43.5803 185.794 43.6057 186.254 43.7549C186.712 43.9041 187.098 44.1585 187.412 44.5129C187.727 44.8673 187.932 45.2794 188.026 45.7491ZM187.544 45.8695C187.47 45.4982 187.302 45.1658 187.04 44.8724C186.779 44.5791 186.467 44.3722 186.103 44.2518C185.738 44.1314 185.353 44.111 184.951 44.1924C184.356 44.3128 183.895 44.6215 183.568 45.1166C183.24 45.6118 183.137 46.151 183.254 46.7344C183.332 47.1227 183.5 47.4652 183.756 47.7569C184.012 48.0503 184.322 48.2555 184.687 48.3759C185.051 48.4963 185.435 48.5149 185.835 48.4335C186.233 48.3538 186.574 48.1876 186.859 47.9367C187.142 47.6857 187.347 47.3737 187.473 46.9972C187.595 46.6241 187.62 46.246 187.544 45.8695Z" fill="black"/>
<path d="M188.153 50.3922L188.652 50.3447L188.913 53.1343L188.414 53.1817L188.307 52.0456L183.713 52.4763L183.664 51.9574L188.258 51.5267L188.153 50.3922Z" fill="black"/>
<path d="M189.155 57.694C189.145 58.469 188.879 59.1134 188.356 59.6289C187.832 60.1444 187.193 60.3971 186.439 60.3886C185.691 60.3784 185.058 60.1105 184.543 59.5831C184.027 59.0557 183.775 58.4181 183.785 57.6686C183.795 56.9106 184.061 56.273 184.587 55.7575C185.112 55.242 185.743 54.9893 186.481 54.9978C186.973 55.0045 187.426 55.1283 187.843 55.3708C188.26 55.6133 188.584 55.9423 188.816 56.3561C189.047 56.7715 189.16 57.2158 189.155 57.694ZM188.657 57.711C188.662 57.3328 188.567 56.9733 188.373 56.6308C188.18 56.2899 187.917 56.022 187.587 55.827C187.254 55.632 186.885 55.5319 186.472 55.5285C185.865 55.5218 185.348 55.7252 184.924 56.1407C184.5 56.5562 184.285 57.0615 184.278 57.6567C184.273 58.0535 184.365 58.4215 184.553 58.7624C184.741 59.1032 185.001 59.3694 185.333 59.5627C185.665 59.7561 186.035 59.8561 186.444 59.8595C186.849 59.8646 187.219 59.7747 187.549 59.5899C187.88 59.405 188.146 59.1422 188.348 58.7997C188.55 58.4588 188.653 58.0959 188.657 57.711Z" fill="black"/>
<path d="M187.203 67.6989L186.89 67.2512C187.208 67.0104 187.464 66.7323 187.658 66.4169C187.851 66.1015 187.972 65.7861 188.019 65.4672C188.078 65.0704 188.036 64.6787 187.895 64.2904C187.753 63.9021 187.531 63.585 187.225 63.3391C186.92 63.0932 186.583 62.9423 186.211 62.8863C185.83 62.8303 185.453 62.8778 185.08 63.0321C184.707 63.1848 184.395 63.4273 184.148 63.7579C183.898 64.0886 183.742 64.4684 183.678 64.8975C183.602 65.4181 183.683 65.8793 183.922 66.2829C184.163 66.6865 184.51 66.9561 184.968 67.0918L185.207 65.4791L185.696 65.552L185.374 67.7328C184.592 67.6124 184.007 67.2885 183.613 66.7611C183.222 66.2337 183.083 65.5843 183.196 64.8144C183.335 63.8783 183.763 63.1848 184.482 62.7337C185.034 62.3861 185.633 62.2606 186.277 62.3572C186.757 62.4284 187.185 62.615 187.561 62.9168C187.938 63.2187 188.212 63.5968 188.384 64.0513C188.553 64.5058 188.601 64.9975 188.523 65.5266C188.458 65.9556 188.323 66.3473 188.111 66.7035C187.902 67.0562 187.598 67.3885 187.203 67.6989Z" fill="black"/>
<path d="M187.444 70.4887L187.18 71.4722C187.032 72.0199 186.91 72.3862 186.813 72.5693C186.667 72.8441 186.459 73.0442 186.189 73.168C185.92 73.2917 185.623 73.3104 185.301 73.2239C185.031 73.151 184.812 73.0238 184.643 72.8441C184.473 72.6626 184.368 72.4405 184.326 72.1776C184.285 71.9148 184.319 71.5756 184.427 71.1602L181.656 72.3201L181.821 71.7096L184.592 70.5497L184.666 70.2699L182.374 69.6526L182.506 69.1592L187.444 70.4887ZM186.827 70.8532L185.148 70.4022L184.912 71.2517C184.824 71.5807 184.789 71.8334 184.809 72.0081C184.829 72.1827 184.895 72.3336 185.009 72.4591C185.123 72.5846 185.265 72.6711 185.435 72.7169C185.601 72.761 185.764 72.7576 185.923 72.7033C186.082 72.6507 186.211 72.5592 186.308 72.4286C186.405 72.298 186.5 72.064 186.591 71.7266L186.827 70.8532Z" fill="black"/>
<path d="M185.092 77.9038L179.46 78.2701L179.661 77.7563L181.521 77.6172L182.321 75.5637L181.043 74.2105L181.249 73.6797L185.138 77.7885L185.092 77.9038ZM184.103 77.4494L182.696 75.9605L182.062 77.5901L184.103 77.4494Z" fill="black"/>
<path d="M183.274 82.101L182.805 83.0048C182.535 83.5237 182.33 83.8612 182.191 84.0189C181.992 84.2444 181.752 84.3886 181.467 84.4496C181.183 84.5107 180.89 84.4632 180.59 84.3072C180.288 84.1495 180.079 83.9392 179.968 83.678C179.854 83.4152 179.837 83.1252 179.917 82.8081C179.974 82.5775 180.149 82.179 180.442 81.616L180.612 81.2921L178.502 80.195L178.738 79.7422L183.274 82.101ZM182.594 82.3231L181.055 81.5227L180.646 82.2858C180.485 82.5961 180.395 82.8386 180.376 83.0116C180.358 83.1846 180.39 83.3457 180.473 83.4932C180.556 83.6407 180.676 83.7561 180.832 83.8374C180.985 83.9172 181.144 83.9477 181.314 83.9307C181.484 83.9138 181.629 83.8527 181.753 83.7459C181.877 83.639 182.018 83.4322 182.177 83.1252L182.594 82.3231Z" fill="black"/>
<path d="M180.588 87.0019L180.307 87.4275L178.518 86.2439L177.081 88.4162L178.87 89.5998L178.589 90.0255L174.322 87.2037L174.604 86.7781L176.662 88.1398L178.099 85.9675L176.04 84.6058L176.322 84.1802L180.588 87.0019Z" fill="black"/>
<path d="M177.268 91.821L176.895 92.2755L174.434 91.9448L175.245 94.2799L174.87 94.736L173.839 91.7888L171.952 90.2355L172.272 89.8472L174.16 91.4005L177.268 91.821Z" fill="black"/>
<path d="M171.19 97.8308L171.528 98.2004L169.459 100.091L169.121 99.7215L169.964 98.9517L166.853 95.5449L167.237 95.1938L170.349 98.6006L171.19 97.8308Z" fill="black"/>
<path d="M167.884 101.426L167.477 101.735L166.183 100.024L164.105 101.596L165.401 103.307L164.994 103.615L161.908 99.5369L162.315 99.2283L163.805 101.197L165.883 99.6251L164.392 97.6563L164.799 97.3477L167.884 101.426Z" fill="black"/>
<path d="M160.99 106.174L156.332 102.989L156.807 102.708L158.357 103.746L160.253 102.623L160.081 100.769L160.571 100.479L161.099 106.111L160.99 106.174ZM160.492 105.206L160.302 103.166L158.798 104.058L160.492 105.206Z" fill="black"/>
<path d="M157.253 107.658L157.465 108.11L154.928 109.301L154.716 108.848L155.749 108.363L153.788 104.186L154.26 103.964L156.22 108.141L157.253 107.658Z" fill="black"/>
<path d="M149.347 107.037L149.01 107.415C148.55 106.969 148.128 106.805 147.745 106.925C147.58 106.976 147.439 107.062 147.319 107.185C147.199 107.305 147.121 107.442 147.087 107.595C147.051 107.746 147.056 107.895 147.102 108.038C147.153 108.202 147.258 108.344 147.419 108.467C147.64 108.636 148.001 108.809 148.501 108.989C149.005 109.169 149.327 109.313 149.469 109.418C149.713 109.594 149.878 109.816 149.961 110.084C150.027 110.296 150.037 110.507 149.99 110.713C149.942 110.92 149.842 111.102 149.69 111.261C149.537 111.419 149.351 111.533 149.135 111.6C148.905 111.672 148.672 111.682 148.437 111.631C148.201 111.58 147.923 111.436 147.604 111.2L147.907 110.773C148.167 110.959 148.374 111.07 148.528 111.107C148.682 111.144 148.835 111.139 148.988 111.092C149.184 111.031 149.327 110.92 149.415 110.761C149.503 110.602 149.518 110.435 149.464 110.261C149.43 110.154 149.376 110.059 149.301 109.972C149.225 109.886 149.111 109.803 148.957 109.723C148.874 109.681 148.613 109.584 148.174 109.433C147.653 109.253 147.277 109.067 147.044 108.872C146.81 108.677 146.656 108.458 146.58 108.212C146.469 107.858 146.507 107.508 146.695 107.164C146.882 106.818 147.168 106.586 147.553 106.466C147.85 106.372 148.143 106.367 148.433 106.45C148.723 106.532 149.028 106.728 149.347 107.037Z" fill="black"/>
<path d="M145.406 112.516L142.542 113.14L142.435 112.652L144.799 112.136L144.458 110.569L142.115 111.08L142.008 110.592L144.351 110.079L143.922 108.116L141.579 108.626L141.472 108.138L144.316 107.517L145.406 112.516Z" fill="black"/>
<path d="M140.38 113.489L139.873 113.556L139.279 108.974L137.328 109.226L137.265 108.736L139.724 108.417L140.38 113.489Z" fill="black"/>
<path d="M135.822 113.976L135.311 114L135.089 109.384L133.124 109.477L133.1 108.984L135.576 108.865L135.822 113.976Z" fill="black"/>
<path d="M84.1809 34.2856C85.0481 34.2856 85.7511 33.5825 85.7511 32.7153C85.7511 31.8481 85.0481 31.145 84.1809 31.145C83.3136 31.145 82.6106 31.8481 82.6106 32.7153C82.6106 33.5825 83.3136 34.2856 84.1809 34.2856Z" fill="black"/>
<path d="M123.858 112.374C124.725 112.374 125.428 111.671 125.428 110.804C125.428 109.936 124.725 109.233 123.858 109.233C122.991 109.233 122.288 109.936 122.288 110.804C122.288 111.671 122.991 112.374 123.858 112.374Z" fill="black"/>
<path d="M46.635 82.2655H47.5219V83.5322C47.8729 83.0506 48.2748 82.6894 48.731 82.4486C49.1871 82.2078 49.6959 82.0874 50.2555 82.0874C51.2339 82.0874 52.0716 82.4401 52.7686 83.1456C53.4655 83.851 53.8132 84.7006 53.8132 85.6926C53.8132 86.7067 53.4689 87.5664 52.7787 88.2735C52.0886 88.9807 51.256 89.3351 50.2826 89.3351C49.7349 89.3351 49.2295 89.2215 48.77 88.9925C48.3104 88.7653 47.895 88.4245 47.5236 87.9734V91.6803H46.6367V82.2655H46.635ZM50.1825 82.9438C49.4161 82.9438 48.77 83.2117 48.246 83.7475C47.722 84.2834 47.4591 84.9498 47.4591 85.7469C47.4591 86.2708 47.5762 86.7406 47.8102 87.1577C48.0442 87.5749 48.3782 87.9072 48.8158 88.1514C49.2516 88.3956 49.7128 88.5194 50.1978 88.5194C50.6743 88.5194 51.122 88.3956 51.5408 88.1497C51.9597 87.9022 52.2938 87.5579 52.543 87.1153C52.7923 86.6727 52.9161 86.2081 52.9161 85.7231C52.9161 85.2347 52.7923 84.7701 52.5464 84.3309C52.3005 83.8917 51.9682 83.5508 51.551 83.3084C51.1339 83.0659 50.6743 82.9438 50.1825 82.9438Z" fill="black"/>
<path d="M64.1574 82.2655V89.1587H63.2824V87.9734C62.911 88.4262 62.4938 88.7653 62.0309 88.9925C61.568 89.2215 61.0626 89.3351 60.5132 89.3351C59.5381 89.3351 58.7038 88.9807 58.0137 88.2735C57.3235 87.5664 56.9775 86.705 56.9775 85.6926C56.9775 84.7006 57.3252 83.851 58.0221 83.1456C58.7191 82.4401 59.5568 82.0874 60.5369 82.0874C61.1033 82.0874 61.6154 82.2078 62.0733 82.4486C62.5312 82.6894 62.933 83.0506 63.2807 83.5322V82.2655H64.1574ZM60.6116 82.9438C60.1181 82.9438 59.6619 83.0659 59.2448 83.3084C58.8276 83.5508 58.4952 83.8917 58.2477 84.3309C58.0001 84.7701 57.878 85.233 57.878 85.7231C57.878 86.2081 58.0018 86.6727 58.2511 87.1153C58.5003 87.5579 58.8344 87.9039 59.2532 88.1497C59.6738 88.3973 60.1232 88.5194 60.6048 88.5194C61.0898 88.5194 61.5493 88.3973 61.9851 88.1514C62.4192 87.9072 62.7533 87.5749 62.9873 87.1577C63.2213 86.7406 63.3383 86.2691 63.3383 85.7469C63.3383 84.9498 63.0755 84.2834 62.5498 83.7475C62.0258 83.2117 61.3797 82.9438 60.6116 82.9438Z" fill="black"/>
<path d="M67.9812 82.2655H68.8681V83.5322C69.2191 83.0506 69.621 82.6894 70.0772 82.4486C70.5333 82.2078 71.042 82.0874 71.6016 82.0874C72.5801 82.0874 73.4178 82.4401 74.1148 83.1456C74.8117 83.851 75.1593 84.7006 75.1593 85.6926C75.1593 86.7067 74.8151 87.5664 74.1249 88.2735C73.4348 88.9807 72.6021 89.3351 71.6288 89.3351C71.081 89.3351 70.5757 89.2215 70.1162 88.9925C69.6566 88.7653 69.2411 88.4245 68.8698 87.9734V91.6803H67.9829V82.2655H67.9812ZM71.5287 82.9438C70.7622 82.9438 70.1162 83.2117 69.5922 83.7475C69.0682 84.2834 68.8053 84.9498 68.8053 85.7469C68.8053 86.2708 68.9223 86.7406 69.1564 87.1577C69.3904 87.5749 69.7244 87.9072 70.1619 88.1514C70.5978 88.3956 71.059 88.5194 71.544 88.5194C72.0205 88.5194 72.4682 88.3956 72.887 88.1497C73.3059 87.9022 73.6399 87.5579 73.8892 87.1153C74.1385 86.6727 74.2623 86.2081 74.2623 85.7231C74.2623 85.2347 74.1385 84.7701 73.8926 84.3309C73.6467 83.8917 73.3144 83.5508 72.8972 83.3084C72.48 83.0659 72.0222 82.9438 71.5287 82.9438Z" fill="black"/>
<path d="M85.5036 82.2655V89.1587H84.6286V87.9734C84.2572 88.4262 83.84 88.7653 83.3771 88.9925C82.9142 89.2215 82.4088 89.3351 81.8594 89.3351C80.8843 89.3351 80.05 88.9807 79.3598 88.2735C78.6697 87.5664 78.3237 86.705 78.3237 85.6926C78.3237 84.7006 78.6714 83.851 79.3683 83.1456C80.0653 82.4401 80.903 82.0874 81.8831 82.0874C82.4495 82.0874 82.9616 82.2078 83.4195 82.4486C83.8773 82.6894 84.2792 83.0506 84.6269 83.5322V82.2655H85.5036ZM81.9594 82.9438C81.466 82.9438 81.0098 83.0659 80.5927 83.3084C80.1755 83.5508 79.8431 83.8917 79.5956 84.3309C79.348 84.7701 79.2259 85.233 79.2259 85.7231C79.2259 86.2081 79.3497 86.6727 79.5989 87.1153C79.8482 87.5579 80.1823 87.9039 80.6011 88.1497C81.0217 88.3973 81.4711 88.5194 81.9527 88.5194C82.4376 88.5194 82.8972 88.3973 83.333 88.1514C83.7671 87.9072 84.1012 87.5749 84.3352 87.1577C84.5692 86.7406 84.6862 86.2691 84.6862 85.7469C84.6862 84.9498 84.4234 84.2834 83.8977 83.7475C83.3737 83.2117 82.7259 82.9438 81.9594 82.9438Z" fill="black"/>
<path d="M88.98 82.2655H89.8855V83.2727C90.1551 82.8759 90.44 82.5792 90.7402 82.3825C91.0403 82.1858 91.3523 82.0874 91.6779 82.0874C91.9221 82.0874 92.1849 82.1654 92.4631 82.3214L92.0001 83.0692C91.8136 82.9895 91.6576 82.9489 91.5304 82.9489C91.2353 82.9489 90.9504 83.0709 90.6757 83.3134C90.401 83.5559 90.1924 83.9341 90.0483 84.4445C89.9381 84.8379 89.8838 85.6315 89.8838 86.8271V89.1587H88.9783V82.2655H88.98Z" fill="black"/>
<path d="M101.903 82.2655V89.1587H101.028V87.9734C100.657 88.4262 100.24 88.7653 99.7767 88.9925C99.3138 89.2215 98.8085 89.3351 98.2591 89.3351C97.284 89.3351 96.4497 88.9807 95.7595 88.2735C95.0693 87.5664 94.7234 86.705 94.7234 85.6926C94.7234 84.7006 95.071 83.851 95.768 83.1456C96.4649 82.4401 97.3026 82.0874 98.2828 82.0874C98.8492 82.0874 99.3613 82.2078 99.8191 82.4486C100.277 82.6894 100.679 83.0506 101.027 83.5322V82.2655H101.903ZM98.3574 82.9438C97.8639 82.9438 97.4078 83.0659 96.9906 83.3084C96.5735 83.5508 96.2411 83.8917 95.9935 84.3309C95.7459 84.7701 95.6238 85.233 95.6238 85.7231C95.6238 86.2081 95.7476 86.6727 95.9969 87.1153C96.2462 87.5579 96.5802 87.9039 97.0008 88.1497C97.4196 88.3973 97.8707 88.5194 98.3523 88.5194C98.8373 88.5194 99.2969 88.3973 99.731 88.1514C100.165 87.9072 100.499 87.5749 100.735 87.1577C100.971 86.7406 101.086 86.2691 101.086 85.7469C101.086 84.9498 100.823 84.2834 100.297 83.7475C99.7717 83.2117 99.1256 82.9438 98.3574 82.9438Z" fill="black"/>
<path d="M105.151 82.2656H110.213L106.311 88.3738H110.087V89.1589H104.784L108.683 83.0457H105.151V82.2656Z" fill="black"/>
<path d="M112.48 82.2656H117.541L113.639 88.3738H117.416V89.1589H112.113L116.012 83.0457H112.48V82.2656Z" fill="black"/>
<path d="M120.679 79.4287C120.88 79.4287 121.053 79.4999 121.196 79.6441C121.338 79.7882 121.41 79.9612 121.41 80.163C121.41 80.3614 121.338 80.5326 121.196 80.6768C121.053 80.8209 120.88 80.8922 120.679 80.8922C120.48 80.8922 120.311 80.8209 120.168 80.6768C120.026 80.5326 119.955 80.3631 119.955 80.163C119.955 79.9595 120.026 79.7865 120.168 79.6441C120.311 79.4999 120.482 79.4287 120.679 79.4287ZM120.238 82.2657H121.125V89.159H120.238V82.2657Z" fill="black"/>
<path d="M130.372 79.8408H131.303V85.4673C131.303 86.1355 131.316 86.5509 131.34 86.7154C131.386 87.0834 131.494 87.3903 131.664 87.6379C131.833 87.8855 132.093 88.0924 132.444 88.2586C132.795 88.4248 133.148 88.5095 133.502 88.5095C133.811 88.5095 134.106 88.4434 134.389 88.3128C134.672 88.1823 134.908 88.0008 135.098 87.7685C135.288 87.5362 135.427 87.2547 135.517 86.9257C135.579 86.69 135.612 86.2033 135.612 85.469V79.8425H136.543V85.469C136.543 86.3017 136.461 86.9732 136.298 87.487C136.136 88.0008 135.81 88.4468 135.323 88.8266C134.835 89.2065 134.245 89.3964 133.553 89.3964C132.802 89.3964 132.157 89.2167 131.62 88.8572C131.084 88.4977 130.724 88.0229 130.543 87.431C130.429 87.0681 130.372 86.4136 130.372 85.4673V79.8408Z" fill="black"/>
<path d="M140.653 79.8408H141.603V83.3375L145.328 79.8408H146.58L142.103 84.0226L146.927 89.1607H145.686L141.601 84.8196V89.1607H140.651V79.8408H140.653Z" fill="black"/>
<path d="M53.1824 46.1238C52.9348 45.6897 52.8721 45.3166 52.9959 45.1301L56.1601 41.2213C56.3467 40.911 56.9673 41.1586 57.4625 41.6554C57.9593 42.1523 58.2069 42.7713 58.0204 43.0833C58.0204 43.146 56.5926 45.5031 54.3592 49.1643C55.0409 49.9087 55.6616 50.8397 56.2212 51.9572C56.5315 52.5778 56.4688 53.0119 55.9736 52.9492C55.5395 52.9492 54.9188 52.3913 54.5458 51.8334C54.2355 51.2738 53.9251 50.7786 53.6148 50.3445C51.3188 54.0057 48.341 58.7216 45.175 63.4375C54.1727 62.3827 62.5498 58.535 68.1966 53.6326C70.7403 51.4603 72.665 49.1032 73.9673 46.6206C75.2696 44.2008 75.8293 41.7809 75.58 39.3611C75.3934 37.3754 74.588 35.4524 73.0974 33.7142C69.0021 28.9983 58.5766 26.826 46.8487 27.2601C35.3074 27.6943 22.5248 30.8585 13.154 36.7547C8.87221 39.4221 5.21107 43.2088 3.34912 47.1802C2.54194 48.9794 2.04678 50.7786 2.04678 52.5168C2.04678 54.1294 2.41985 55.6811 3.28808 57.0462C4.2801 58.6588 6.08099 60.1494 8.81116 61.3907C9.36907 61.6383 9.92867 62.3217 10.0525 62.8185C10.1762 63.3764 9.80488 63.6257 9.24528 63.3764C5.70792 61.701 3.28808 59.5287 1.73646 57.1716C0.557905 55.1859 0 53.2002 0 51.1534C0 49.2304 0.557905 47.3057 1.42783 45.4438C3.35082 41.3485 7.07471 37.4398 11.4803 34.7079C20.9121 28.7507 33.8185 25.5864 45.5464 25.1523C57.9559 24.6555 69.1887 27.3246 74.0894 32.9715C76.1989 35.3913 77.3164 37.9977 77.6268 40.5413C77.8743 43.2105 77.2537 45.8779 75.8903 48.4215C74.588 50.9652 72.5395 53.385 69.9958 55.62C64.0386 60.77 55.2275 64.7415 45.8567 65.6725C45.0495 65.7963 44.244 65.859 43.4996 65.9201C36.6114 75.9098 29.0416 85.5909 25.2566 86.025C23.3947 86.2115 22.4637 85.094 22.2161 82.9217C21.8431 79.8185 24.5732 72.2486 28.7312 64.8026C28.9178 64.4922 29.0416 64.1819 29.2281 63.8716C28.9805 63.7478 28.794 63.624 28.5464 63.4985C26.5607 62.4438 25.1328 61.0787 24.1408 59.5898H24.0781C23.1471 58.1009 22.6503 56.6731 22.4654 55.2453C22.2789 53.6326 22.6519 52.142 23.2726 50.9635C23.4591 50.6531 24.017 50.7769 24.5749 51.2738C25.0718 51.7707 25.3821 52.4523 25.1956 52.7627C24.6377 53.7547 24.3884 55.0587 24.5139 56.4238C24.5766 57.4175 24.948 58.4095 25.5076 59.2778L25.5687 59.3405C26.1266 60.1477 26.9965 60.9532 28.2988 61.6366C28.7957 61.9469 29.4163 62.2572 30.0353 62.5048C34.0067 55.8659 38.9702 49.6594 43.6861 47.1158C46.7266 45.5031 49.7671 45.2538 52.4363 47.3023L53.1824 46.1238ZM40.276 65.9794C36.8014 65.9794 33.9474 65.5453 31.6513 64.8009C31.341 65.4215 30.9696 65.9794 30.6593 66.6001C26.7506 73.6731 24.0815 80.685 24.2053 83.7883C27.6782 82.9828 34.0695 74.9161 40.276 65.9794ZM32.6434 63.2492C35.0632 63.7461 38.1037 63.9937 41.8276 63.7461C45.4887 58.3485 49.0261 52.8254 51.6325 48.6047C49.7705 47.611 47.5983 47.984 45.3649 49.2253C41.0204 51.5841 36.4283 57.1072 32.6434 63.2492Z" fill="url(#paint0_linear_274_738)"/>
<path d="M71.4898 56.0525C71.6763 55.7422 72.297 55.9287 72.7921 56.4256C73.35 56.9224 73.5993 57.6041 73.4128 57.9144L71.1167 61.5756C73.289 60.5208 76.2667 59.5288 77.508 61.0787C78.0659 61.6994 77.8811 63.1272 78.6866 63.1882C79.8651 63.251 81.6033 63.0017 83.2787 62.5066C83.6518 62.3828 84.0231 62.0724 84.3962 62.6303C84.8303 63.251 84.5827 63.4375 84.2097 63.4986C82.4105 64.0565 79.431 64.6771 78.1287 64.5533C76.516 64.4295 76.0192 63.9937 74.6541 62.3811C73.7231 61.2653 68.2 66.166 68.2 66.166C68.0762 66.2287 64.8492 71.6891 64.5389 72.247C64.3523 72.5573 63.7317 72.3708 63.2365 71.8739C62.6786 71.3771 62.4293 70.6954 62.6159 70.385L71.4898 56.0525Z" fill="url(#paint1_linear_274_738)"/>
<path d="M83.094 59.5884C83.3416 59.4019 83.9622 59.6512 84.4591 60.2091C84.9559 60.767 85.0797 61.3876 84.8321 61.6369C84.6456 61.7607 84.4591 61.8845 84.3353 62.01C83.0329 63.1885 81.9782 65.1132 81.2948 67.0362C80.7979 68.6489 80.5503 70.1394 80.8607 70.7584C81.171 70.8822 81.5441 70.8822 82.0392 70.7584C82.5971 70.5719 83.2805 70.2005 83.9012 69.5798C84.7694 68.8354 85.5766 67.7179 86.321 66.2918C86.7551 65.4846 87.0654 64.6164 87.313 63.7481C86.1955 62.8172 85.39 61.6997 84.8932 60.5838C84.3963 59.4663 84.2115 58.3505 84.2725 57.5434C84.3963 56.6751 84.7694 56.0545 85.5138 55.9307C86.0717 55.8679 86.5686 55.9917 87.0655 56.241C87.8726 56.6751 88.5543 57.4196 88.9884 58.3505C89.3615 59.0322 89.5463 59.7784 89.6701 60.5838C89.7939 61.3893 89.7939 62.322 89.6701 63.2513C91.0352 63.4989 93.0837 63.7481 95.2543 62.5068C95.5646 62.3203 95.8749 62.0727 96.3718 62.6306C96.8059 63.1885 96.7448 63.6243 96.4345 63.8092C93.5178 65.4218 91.3455 65.6711 89.4225 64.9877C89.175 66.0425 88.8019 67.16 88.244 68.091C87.4996 69.5188 86.6313 70.7601 85.7004 71.5656C84.9559 72.1862 84.2725 72.6814 83.5908 72.8679C82.7837 73.1155 81.9782 73.0545 81.171 72.6203C80.7369 72.3728 80.3028 72.0607 79.9297 71.6266C79.8059 71.5028 79.6821 71.379 79.5566 71.2536C78.5629 69.8257 78.6257 67.5314 79.309 65.3591C79.9907 63.3106 81.171 61.2638 82.5361 60.0225C82.7209 59.9005 82.9074 59.7139 83.094 59.5884ZM87.6234 62.2576C87.7471 61.2638 87.7471 60.2718 87.6234 59.4646C87.5606 58.9067 87.4368 58.4099 87.313 58.0996C87.2503 58.0996 87.3758 58.0996 87.3758 58.0996C87.313 58.0368 87.1282 58.0368 86.9417 58.0996C86.5686 58.0996 86.3838 58.4709 86.321 59.0305C86.2583 59.5884 86.3821 60.2718 86.6941 60.9535C86.8789 61.4504 87.1892 61.8845 87.6234 62.2576Z" fill="url(#paint2_linear_274_738)"/>
<path d="M116.477 57.2939C116.724 57.0463 117.345 57.2939 117.842 57.7907C118.338 58.3503 118.523 58.9693 118.338 59.2796C113.623 64.6789 113.251 68.4011 113.685 68.7742C114.43 69.3948 119.208 66.3543 122.559 60.7074L122.746 60.4599C122.993 60.2123 123.614 60.3971 124.111 60.9567C124.608 61.4536 124.855 62.1353 124.608 62.3845C124.608 62.3845 124.484 62.5711 124.174 62.8187C123.366 63.8124 118.713 70.3885 123.366 68.1552C125.786 66.9767 128.64 64.6806 130.255 62.5711C130.502 62.2607 130.751 61.6401 131.309 62.1997C131.806 62.6966 131.496 63.0679 131.247 63.3155C129.571 65.4878 127.212 68.4045 124.731 69.583C122.559 70.6378 119.829 70.1426 119.458 67.4735C113.314 72.7473 108.288 71.7553 111.701 64.1854C112.815 61.6995 114.864 59.0303 116.477 57.2939Z" fill="url(#paint3_linear_274_738)"/>
<path d="M138.567 64.1191C138.381 64.4922 137.823 64.3667 137.326 63.8715C136.768 63.3747 136.458 62.693 136.581 62.3827C136.644 62.3827 137.636 60.2104 137.389 60.2104C136.21 60.1477 133.666 61.8231 131.742 63.9953C130.997 64.8025 130.377 65.6707 129.88 66.539C129.446 67.3462 129.198 68.2144 129.135 68.9588C129.135 69.5167 129.259 70.0136 129.569 70.3239C132.176 72.62 144.896 63.0644 144.958 63.0644C145.206 63.0016 145.766 62.2572 146.2 62.381C146.697 62.9406 146.881 63.5595 146.634 63.8088C146.571 63.8088 133.168 75.2874 129.012 71.5652C127.646 70.3239 127.089 68.9588 127.15 67.5937C127.15 66.6 127.46 65.6707 127.957 64.7398C128.454 63.8088 129.135 62.9406 129.88 62.0723C131.928 59.7763 134.72 57.9771 136.147 58.0381C141.421 58.2247 138.567 64.1191 138.567 64.1191Z" fill="url(#paint4_linear_274_738)"/>
<path d="M162.954 34.8301C163.14 34.5825 163.761 34.7063 164.256 35.2642C164.753 35.761 165.001 36.4427 164.816 36.692C164.816 36.7547 160.287 43.0206 155.447 50.2818H171.27C171.704 50.2818 172.386 50.7787 172.698 51.3366C173.069 51.9572 173.008 52.4541 172.574 52.4541H154.019C152.717 54.4398 151.413 56.4883 150.171 58.4723V58.5351C150.171 58.7826 150.048 58.9081 149.924 58.9081C146.139 65.0519 144.09 68.5875 144.774 69.8288C145.891 71.9383 158.487 61.8859 158.487 61.8248C158.735 61.6383 159.108 61.5145 159.603 62.0724C160.1 62.6303 159.727 62.9407 159.479 63.1272C159.417 63.1882 145.332 77.0884 142.291 71.5042C141.36 69.7661 144.214 63.8106 148.186 57.2327C148.123 57.2327 148.557 56.551 148.557 56.551C148.681 51.8351 132.797 52.4558 132.797 52.4558C132.362 52.4558 131.679 51.9589 131.369 51.3383C130.996 50.7804 131.058 50.2835 131.493 50.2835H152.466C157.68 42.1523 162.891 34.8928 162.954 34.8301ZM149.24 55.4318C149.861 54.4381 150.482 53.4461 151.102 52.4541L143.346 52.1438C145.206 52.8865 148.248 54.1278 149.24 55.4318Z" fill="url(#paint5_linear_274_738)"/>
<path d="M104.75 65.3196C104.689 65.6299 104.316 65.691 103.882 65.4434L103.819 65.5672C101.586 67.4902 99.6003 69.0418 98.0487 70.0355C95.9392 71.3379 92.4019 71.6482 92.5884 68.1125C92.6511 67.1816 93.0852 66.003 93.7669 64.8245C95.0082 62.7777 97.6757 59.3641 100.282 59.4879C102.702 59.4252 103.446 60.6664 104.067 61.5974C106.363 59.4251 108.722 56.8815 110.955 54.2124C116.044 48.1314 119.519 43.1052 121.194 40.4988L122.496 38.5131C122.683 38.2027 123.241 38.3265 123.801 38.8844C124.297 39.3813 124.608 40.0019 124.421 40.3733C124.421 40.3733 123.924 41.1805 122.932 42.6694C116.85 52.2267 100.489 76.7422 101.357 78.789C101.605 79.4097 101.357 79.72 100.86 79.5962C100.363 79.4724 99.7428 78.9145 99.558 78.2939C98.8135 76.5557 100.406 74.1935 108.349 61.1006C107.17 62.3419 105.992 63.5204 104.811 64.5752C104.813 65.0093 104.75 65.2586 104.75 65.3196ZM102.702 62.8998C102.578 62.4657 102.268 61.9688 101.461 61.9688C99.2273 61.845 96.7447 64.8855 95.6899 66.622C95.1931 67.4902 94.8217 68.2974 94.6962 68.918C95.0693 68.7315 95.6272 68.4212 96.3089 67.987C97.8605 67.0561 99.8462 65.5044 102.019 63.5815L102.702 62.8998Z" fill="url(#paint6_linear_274_738)"/>
<defs>
<linearGradient id="paint0_linear_274_738" x1="0.00401895" y1="55.5673" x2="77.6841" y2="55.5673" gradientUnits="userSpaceOnUse">
<stop stop-color="#FFBC21"/>
<stop offset="0.1344" stop-color="#FD843A"/>
<stop offset="0.2742" stop-color="#FC5554"/>
<stop offset="0.4301" stop-color="#FC365F"/>
<stop offset="0.6129" stop-color="#F02E6B"/>
<stop offset="0.7903" stop-color="#DD3578"/>
<stop offset="1" stop-color="#81399D"/>
</linearGradient>
<linearGradient id="paint1_linear_274_738" x1="62.5548" y1="64.1498" x2="84.6263" y2="64.1498" gradientUnits="userSpaceOnUse">
<stop stop-color="#FFBC21"/>
<stop offset="0.1344" stop-color="#FD843A"/>
<stop offset="0.2742" stop-color="#FC5554"/>
<stop offset="0.4301" stop-color="#FC365F"/>
<stop offset="0.6129" stop-color="#F02E6B"/>
<stop offset="0.7903" stop-color="#DD3578"/>
<stop offset="1" stop-color="#81399D"/>
</linearGradient>
<linearGradient id="paint2_linear_274_738" x1="78.8019" y1="64.463" x2="96.6825" y2="64.463" gradientUnits="userSpaceOnUse">
<stop stop-color="#FFBC21"/>
<stop offset="0.1344" stop-color="#FD843A"/>
<stop offset="0.2742" stop-color="#FC5554"/>
<stop offset="0.4301" stop-color="#FC365F"/>
<stop offset="0.6129" stop-color="#F02E6B"/>
<stop offset="0.7903" stop-color="#DD3578"/>
<stop offset="1" stop-color="#81399D"/>
</linearGradient>
<linearGradient id="paint3_linear_274_738" x1="110.593" y1="63.9858" x2="131.571" y2="63.9858" gradientUnits="userSpaceOnUse">
<stop stop-color="#FFBC21"/>
<stop offset="0.1344" stop-color="#FD843A"/>
<stop offset="0.2742" stop-color="#FC5554"/>
<stop offset="0.4301" stop-color="#FC365F"/>
<stop offset="0.6129" stop-color="#F02E6B"/>
<stop offset="0.7903" stop-color="#DD3578"/>
<stop offset="1" stop-color="#81399D"/>
</linearGradient>
<linearGradient id="paint4_linear_274_738" x1="127.145" y1="65.1719" x2="146.744" y2="65.1719" gradientUnits="userSpaceOnUse">
<stop stop-color="#FFBC21"/>
<stop offset="0.1344" stop-color="#FD843A"/>
<stop offset="0.2742" stop-color="#FC5554"/>
<stop offset="0.4301" stop-color="#FC365F"/>
<stop offset="0.6129" stop-color="#F02E6B"/>
<stop offset="0.7903" stop-color="#DD3578"/>
<stop offset="1" stop-color="#81399D"/>
</linearGradient>
<linearGradient id="paint5_linear_274_738" x1="131.125" y1="53.767" x2="172.94" y2="53.767" gradientUnits="userSpaceOnUse">
<stop stop-color="#FFBC21"/>
<stop offset="0.1344" stop-color="#FD843A"/>
<stop offset="0.2742" stop-color="#FC5554"/>
<stop offset="0.4301" stop-color="#FC365F"/>
<stop offset="0.6129" stop-color="#F02E6B"/>
<stop offset="0.7903" stop-color="#DD3578"/>
<stop offset="1" stop-color="#81399D"/>
</linearGradient>
<linearGradient id="paint6_linear_274_738" x1="92.5809" y1="58.9853" x2="124.475" y2="58.9853" gradientUnits="userSpaceOnUse">
<stop stop-color="#FFBC21"/>
<stop offset="0.1344" stop-color="#FD843A"/>
<stop offset="0.2742" stop-color="#FC5554"/>
<stop offset="0.4301" stop-color="#FC365F"/>
<stop offset="0.6129" stop-color="#F02E6B"/>
<stop offset="0.7903" stop-color="#DD3578"/>
<stop offset="1" stop-color="#81399D"/>
</linearGradient>
</defs>
</svg>
