<svg width="39" height="39" viewBox="0 0 39 39" fill="none" xmlns="http://www.w3.org/2000/svg">
<path d="M7.97868 4.33875V8.93749L5.45993 10.4C4.97481 10.6521 4.56114 11.0226 4.25721 11.4771C3.95328 11.9315 3.76892 12.4553 3.72118 13V34.6612C3.70812 34.7711 3.72014 34.8825 3.75636 34.987C3.79257 35.0915 3.85202 35.1865 3.93024 35.2647C4.00846 35.3429 4.10341 35.4024 4.20793 35.4386C4.31246 35.4748 4.42384 35.4868 4.53368 35.4737H34.0112C34.1185 35.476 34.2251 35.4565 34.3247 35.4164C34.4243 35.3764 34.5147 35.3166 34.5906 35.2407C34.6665 35.1648 34.7263 35.0744 34.7663 34.9748C34.8064 34.8752 34.8259 34.7685 34.8237 34.6612V13C34.7953 12.4666 34.6311 11.9493 34.3467 11.4971C34.0623 11.0449 33.6672 10.6729 33.1987 10.4162L30.5824 8.90499V4.33875C30.5824 4.12326 30.4968 3.91659 30.3445 3.76422C30.1921 3.61185 29.9854 3.52625 29.7699 3.52625H8.79118C8.577 3.53041 8.37274 3.61734 8.22126 3.76882C8.06978 3.9203 7.98284 4.12456 7.97868 4.33875ZM6.19118 11.83L7.97868 10.79V16.1525L6.17493 14.885C5.91479 14.7022 5.70328 14.4586 5.55883 14.1754C5.41438 13.8921 5.34138 13.5779 5.34618 13.26C5.34538 12.9677 5.42346 12.6805 5.57217 12.4289C5.72089 12.1772 5.93473 11.9703 6.19118 11.83ZM5.34618 16.25L17.8749 25.0737L5.39493 33.1987L5.34618 16.25ZM7.27993 33.8L19.2724 26L31.2649 33.7837L7.27993 33.8ZM30.5662 10.79L32.3699 11.83C32.6215 11.9827 32.8297 12.1973 32.9748 12.4533C33.1199 12.7093 33.197 12.9982 33.1987 13.2925C33.2049 13.6106 33.1325 13.9254 32.988 14.2089C32.8434 14.4923 32.6311 14.7357 32.3699 14.9175L30.5662 16.185V10.79ZM33.1987 16.25V33.1662L20.7349 25.0412L33.1987 16.25ZM9.60368 5.15124H28.9412V17.3062L19.2724 24.115L9.60368 17.3062V5.15124Z" fill="url(#paint0_linear_280_510)"/>
<path d="M20.475 20.1825H18.525C18.3108 20.1867 18.1065 20.2736 17.955 20.4251C17.8036 20.5766 17.7166 20.7808 17.7125 20.995C17.7125 21.2105 17.7981 21.4172 17.9504 21.5696C18.1028 21.7219 18.3095 21.8075 18.525 21.8075H20.475C20.6905 21.8075 20.8971 21.7219 21.0495 21.5696C21.2019 21.4172 21.2875 21.2105 21.2875 20.995C21.2833 20.7808 21.1964 20.5766 21.0449 20.4251C20.8934 20.2736 20.6892 20.1867 20.475 20.1825ZM22.36 7.65378C21.6499 7.27588 20.8708 7.04512 20.0695 6.97532C19.2681 6.90551 18.461 6.9981 17.6962 7.24753C16.3377 7.68229 15.176 8.58223 14.4156 9.78901C13.6552 10.9958 13.3447 12.4321 13.5388 13.8452C13.7329 15.2583 14.4192 16.5577 15.4768 17.5148C16.5345 18.4718 17.8958 19.0252 19.3212 19.0775C19.5327 19.0735 19.7346 18.9889 19.8857 18.8408C20.0367 18.6928 20.1255 18.4926 20.1337 18.2813C20.1381 18.0685 20.0589 17.8625 19.9131 17.7075C19.7672 17.5526 19.5664 17.461 19.3537 17.4525C18.687 17.4333 18.0333 17.264 17.441 16.9573C16.8488 16.6505 16.3334 16.2141 15.9331 15.6806C15.5328 15.1472 15.2579 14.5303 15.129 13.8759C15 13.2215 15.0203 12.5465 15.1882 11.901C15.3562 11.2556 15.6675 10.6563 16.099 10.1477C16.5306 9.6392 17.0712 9.23451 17.6808 8.96378C18.2903 8.69305 18.9531 8.56325 19.6197 8.58402C20.2863 8.6048 20.9397 8.77562 21.5312 9.08378C22.4725 9.52219 23.2032 10.3137 23.5651 11.287C23.9271 12.2602 23.8911 13.3369 23.465 14.2838C23.3868 14.5089 23.2427 14.7052 23.0514 14.8472C22.8601 14.9892 22.6305 15.0704 22.3925 15.08C22.3571 15.0788 22.3226 15.0693 22.2916 15.0524C22.2605 15.0355 22.2339 15.0116 22.2137 14.9825C22.1139 14.8832 22.0558 14.7495 22.0512 14.6088C22.0512 14.2838 22.0512 9.83128 22.0512 9.99378C22.0512 9.77829 21.9656 9.57163 21.8132 9.41926C21.6609 9.26688 21.4542 9.18128 21.2387 9.18128C21.0444 9.18326 20.8571 9.25484 20.7111 9.38304C20.565 9.51125 20.4697 9.68757 20.4425 9.88003C20.0608 9.66468 19.6295 9.55266 19.1912 9.55503C18.3491 9.63363 17.5707 10.0374 17.0215 10.6807C16.4723 11.324 16.1956 12.156 16.25 13C16.1824 13.8547 16.4553 14.7015 17.0093 15.3559C17.5632 16.0103 18.3533 16.4193 19.2075 16.4938C19.8051 16.472 20.3779 16.2487 20.8325 15.86C20.8874 15.9777 20.9585 16.087 21.0437 16.185C21.2168 16.3638 21.4238 16.5061 21.6526 16.6038C21.8814 16.7015 22.1274 16.7525 22.3762 16.7538C22.9422 16.7453 23.4922 16.5652 23.9536 16.2373C24.4149 15.9095 24.7659 15.4492 24.96 14.9175C25.5554 13.6063 25.617 12.1147 25.1317 10.7589C24.6464 9.40298 23.6523 8.28931 22.36 7.65378ZM19.24 14.8363C18.59 14.8363 17.9075 14.0888 17.9075 12.9675C17.8654 12.5512 17.9855 12.1348 18.2428 11.8048C18.5001 11.4749 18.8747 11.2569 19.2887 11.1963C20.0037 11.1963 20.4912 11.9113 20.5075 12.9188V13C20.4912 13.9913 19.9387 14.8363 19.24 14.8363Z" fill="url(#paint1_linear_280_510)"/>
<defs>
<linearGradient id="paint0_linear_280_510" x1="0.518766" y1="0.903883" x2="38.5979" y2="6.57891" gradientUnits="userSpaceOnUse">
<stop stopColor="#FC365F"/>
<stop offset="0.984375" stopColor="#A00BFB"/>
</linearGradient>
<linearGradient id="paint1_linear_280_510" x1="12.2518" y1="5.73362" x2="27.0093" y2="7.55452" gradientUnits="userSpaceOnUse">
<stop stopColor="#FC365F"/>
<stop offset="0.984375" stopColor="#A00BFB"/>
</linearGradient>
</defs>
</svg>
