<svg width="24" height="24" viewBox="0 0 24 24" fill="none" xmlns="http://www.w3.org/2000/svg">
<path d="M5 5H18C18.7956 5 19.5587 5.31607 20.1213 5.87868C20.6839 6.44129 21 7.20435 21 8V17C21 17.7956 20.6839 18.5587 20.1213 19.1213C19.5587 19.6839 18.7956 20 18 20H5C4.20435 20 3.44129 19.6839 2.87868 19.1213C2.31607 18.5587 2 17.7956 2 17V8C2 7.20435 2.31607 6.44129 2.87868 5.87868C3.44129 5.31607 4.20435 5 5 5ZM5 6C4.5 6 4.06 6.17 3.72 6.47L11.5 11.5L19.28 6.47C18.94 6.17 18.5 6 18 6H5ZM11.5 12.71L3.13 7.28C3.05 7.5 3 7.75 3 8V17C3 17.5304 3.21071 18.0391 3.58579 18.4142C3.96086 18.7893 4.46957 19 5 19H18C18.5304 19 19.0391 18.7893 19.4142 18.4142C19.7893 18.0391 20 17.5304 20 17V8C20 7.75 19.95 7.5 19.87 7.28L11.5 12.71Z" fill="url(#paint0_linear_274_729)"/>
<defs>
<linearGradient id="paint0_linear_274_729" x1="-0.0739331" y1="0.580357" x2="24.8869" y2="4.162" gradientUnits="userSpaceOnUse">
<stop stop-color="#FFBC21"/>
<stop offset="0.1344" stop-color="#FD843A"/>
<stop offset="0.2742" stop-color="#FC5554"/>
<stop offset="0.4301" stop-color="#FC365F"/>
<stop offset="0.6129" stop-color="#F02E6B"/>
<stop offset="0.817759" stop-color="#DD3578"/>
<stop offset="1" stop-color="#81399D"/>
</linearGradient>
</defs>
</svg>
