<svg width="133" height="47" viewBox="0 0 133 47" fill="none" xmlns="http://www.w3.org/2000/svg">
<path d="M40.7678 16.3569C40.578 16.0241 40.5299 15.7381 40.6248 15.5951L43.0505 12.5988C43.1935 12.3609 43.6692 12.5507 44.0488 12.9316C44.4297 13.3125 44.6194 13.7869 44.4765 14.0261C44.4765 14.0742 43.3819 15.8811 41.67 18.6876C42.1925 19.2583 42.6683 19.9719 43.0973 20.8286C43.3351 21.3043 43.287 21.6371 42.9075 21.589C42.5747 21.589 42.0989 21.1613 41.8129 20.7337C41.5751 20.3047 41.3372 19.9251 41.0993 19.5923C39.3392 22.3989 37.0566 26.0139 34.6296 29.629C41.527 28.8204 47.9485 25.8709 52.2772 22.1129C54.2271 20.4477 55.7025 18.6408 56.7008 16.7377C57.6992 14.8828 58.1281 13.0278 57.937 11.1728C57.7941 9.65062 57.1766 8.17652 56.034 6.84411C52.8947 3.22906 44.9028 1.56387 35.9126 1.89665C27.0655 2.22943 17.2667 4.65506 10.0834 9.17485C6.80114 11.2196 3.99463 14.1223 2.56732 17.1667C1.94857 18.5459 1.56899 19.9251 1.56899 21.2575C1.56899 22.4937 1.85497 23.6832 2.52053 24.7296C3.28098 25.9658 4.66148 27.1084 6.75434 28.06C7.18201 28.2498 7.61098 28.7736 7.70587 29.1545C7.80077 29.5822 7.51609 29.7732 7.08712 29.5822C4.3755 28.2978 2.52053 26.6327 1.33111 24.8258C0.427671 23.3036 0 21.7814 0 20.2124C0 18.7383 0.427671 17.2629 1.09453 15.8356C2.56862 12.6963 5.42323 9.70002 8.8004 7.60586C16.0305 3.03927 25.9241 0.613639 34.9143 0.280862C44.4271 -0.100012 53.0377 1.94605 56.7944 6.27475C58.4115 8.12973 59.2682 10.1277 59.506 12.0776C59.6958 14.1236 59.2201 16.1684 58.1749 18.1182C57.1766 20.0681 55.6063 21.9231 53.6564 23.6364C49.0898 27.5842 42.3355 30.6286 35.1522 31.3422C34.5334 31.4371 33.916 31.4852 33.3453 31.532C28.0651 39.1898 22.2623 46.611 19.3609 46.9438C17.9336 47.0868 17.2199 46.2301 17.0301 44.5649C16.7442 42.1861 18.837 36.3833 22.0244 30.6754C22.1674 30.4375 22.2623 30.1996 22.4053 29.9617C22.2155 29.8668 22.0725 29.7719 21.8827 29.6758C20.3605 28.8672 19.266 27.8208 18.5055 26.6795H18.4574C17.7438 25.5381 17.3629 24.4436 17.2212 23.3491C17.0782 22.1129 17.3642 20.9702 17.84 20.0668C17.983 19.8289 18.4106 19.9238 18.8383 20.3047C19.2192 20.6856 19.4571 21.2081 19.3141 21.446C18.8864 22.2065 18.6953 23.2061 18.7915 24.2525C18.8396 25.0143 19.1243 25.7747 19.5533 26.4403L19.6001 26.4884C20.0277 27.1071 20.6946 27.7246 21.6929 28.2484C22.0738 28.4863 22.5496 28.7242 23.024 28.914C26.0684 23.8249 29.8733 19.0672 33.4883 17.1173C35.8191 15.8811 38.1498 15.69 40.1959 17.2603L40.7678 16.3569ZM30.8742 31.5775C28.2107 31.5775 26.0229 31.2447 24.2628 30.6741C24.025 31.1499 23.7403 31.5775 23.5024 32.0533C20.5061 37.4752 18.46 42.8503 18.5549 45.2292C21.2171 44.6117 26.1165 38.4281 30.8742 31.5775ZM25.0233 29.4847C26.8783 29.8655 29.209 30.0553 32.0636 29.8655C34.8701 25.7279 37.5817 21.4941 39.5797 18.2586C38.1524 17.4969 36.4872 17.7829 34.7752 18.7344C31.4449 20.5426 27.9247 24.7764 25.0233 29.4847Z" fill="url(#paint0_linear_301_1151)"/>
<path d="M54.8015 23.968C54.9445 23.7301 55.4202 23.8731 55.7998 24.254C56.2275 24.6349 56.4186 25.1574 56.2756 25.3953L54.5155 28.2018C56.1807 27.3933 58.4633 26.6328 59.4149 27.821C59.8425 28.2967 59.7009 29.3913 60.3183 29.4381C61.2218 29.4862 62.5542 29.2951 63.8385 28.9155C64.1245 28.8206 64.4091 28.5827 64.6951 29.0104C65.0279 29.4862 64.8381 29.6291 64.5521 29.6759C63.1729 30.1036 60.889 30.5794 59.8906 30.4845C58.6544 30.3896 58.2736 30.0555 57.2271 28.8193C56.5135 27.964 52.2797 31.7207 52.2797 31.7207C52.1848 31.7688 49.711 35.9545 49.4732 36.3822C49.3302 36.6201 48.8544 36.4771 48.4748 36.0962C48.0472 35.7153 47.8561 35.1928 47.9991 34.9549L54.8015 23.968Z" fill="url(#paint1_linear_301_1151)"/>
<path d="M63.6968 26.6786C63.8866 26.5356 64.3624 26.7267 64.7433 27.1543C65.1241 27.582 65.219 28.0578 65.0292 28.2489C64.8862 28.3438 64.7432 28.4387 64.6484 28.5349C63.65 29.4383 62.8415 30.9137 62.3176 32.3878C61.9367 33.624 61.747 34.7666 61.9848 35.2411C62.2227 35.336 62.5087 35.336 62.8883 35.2411C63.3159 35.0981 63.8398 34.8134 64.3156 34.3377C64.9811 33.767 65.5999 32.9104 66.1706 31.8171C66.5033 31.1984 66.7412 30.5328 66.931 29.8673C66.0744 29.1536 65.4569 28.297 65.076 27.4416C64.6952 26.585 64.5535 25.7296 64.6003 25.1109C64.6952 24.4453 64.9811 23.9696 65.5518 23.8747C65.9795 23.8266 66.3603 23.9215 66.7412 24.1126C67.36 24.4453 67.8825 25.016 68.2153 25.7296C68.5013 26.2522 68.643 26.8242 68.7379 27.4416C68.8328 28.0591 68.8328 28.774 68.7379 29.4864C69.7843 29.6762 71.3546 29.8673 73.0185 28.9157C73.2564 28.7727 73.4943 28.583 73.8751 29.0106C74.2079 29.4383 74.1611 29.7724 73.9232 29.9141C71.6874 31.1503 70.0222 31.3414 68.5481 30.8175C68.3583 31.626 68.0723 32.4827 67.6447 33.1963C67.074 34.2909 66.4084 35.2424 65.6948 35.8599C65.1241 36.3356 64.6003 36.7152 64.0777 36.8582C63.4589 37.048 62.8415 37.0012 62.2227 36.6684C61.8899 36.4786 61.5572 36.2394 61.2712 35.9066C61.1763 35.8118 61.0814 35.7169 60.9852 35.6207C60.2235 34.5261 60.2716 32.7674 60.7954 31.1022C61.318 29.5319 62.2227 27.9629 63.2692 27.0114C63.4108 26.9178 63.5538 26.7748 63.6968 26.6786ZM67.1689 28.7246C67.2638 27.9629 67.2638 27.2024 67.1689 26.5837C67.1208 26.156 67.0259 25.7751 66.931 25.5373C66.8829 25.5373 66.9791 25.5373 66.9791 25.5373C66.931 25.4892 66.7893 25.4892 66.6463 25.5373C66.3603 25.5373 66.2187 25.8219 66.1706 26.2509C66.1225 26.6786 66.2174 27.2024 66.4565 27.725C66.5982 28.1059 66.8361 28.4387 67.1689 28.7246Z" fill="url(#paint2_linear_301_1151)"/>
<path d="M89.287 24.9196C89.4768 24.7299 89.9526 24.9196 90.3334 25.3005C90.7143 25.7295 90.856 26.204 90.7143 26.4418C87.0993 30.5808 86.8146 33.4341 87.1474 33.72C87.718 34.1958 91.3812 31.8651 93.9498 27.5364L94.0928 27.3466C94.2826 27.1568 94.7583 27.2985 95.1392 27.7274C95.5201 28.1083 95.7099 28.6309 95.5201 28.822C95.5201 28.822 95.4252 28.965 95.1873 29.1548C94.5686 29.9165 91.0016 34.9576 94.5686 33.2456C96.4235 32.3421 98.6113 30.5821 99.8488 28.965C100.039 28.7271 100.23 28.2513 100.657 28.6803C101.038 29.0612 100.8 29.3458 100.609 29.5356C99.3249 31.2008 97.5168 33.4367 95.615 34.3401C93.9498 35.1486 91.8569 34.7691 91.5723 32.723C86.8627 36.7657 83.0097 36.0053 85.6265 30.2025C86.4805 28.2968 88.0508 26.2508 89.287 24.9196Z" fill="url(#paint3_linear_301_1151)"/>
<path d="M106.221 30.1517C106.078 30.4376 105.65 30.3414 105.269 29.9619C104.841 29.581 104.603 29.0584 104.698 28.8205C104.746 28.8205 105.507 27.1554 105.317 27.1554C104.414 27.1073 102.464 28.3916 100.988 30.0568C100.418 30.6755 99.942 31.3411 99.5611 32.0066C99.2284 32.6254 99.0386 33.2909 98.9905 33.8616C98.9905 34.2893 99.0854 34.6701 99.3233 34.908C101.321 36.6681 111.072 29.3431 111.12 29.3431C111.31 29.295 111.739 28.7244 112.071 28.8192C112.452 29.2482 112.594 29.7227 112.404 29.9138C112.356 29.9138 102.082 38.7129 98.8956 35.8596C97.8492 34.908 97.4215 33.8616 97.4683 32.8152C97.4683 32.0534 97.7062 31.3411 98.087 30.6274C98.4679 29.9138 98.9905 29.2482 99.5611 28.5827C101.131 26.8226 103.271 25.4434 104.366 25.4902C108.408 25.6332 106.221 30.1517 106.221 30.1517Z" fill="url(#paint4_linear_301_1151)"/>
<path d="M124.915 7.69963C125.058 7.50984 125.534 7.60474 125.913 8.03241C126.294 8.41328 126.484 8.93584 126.342 9.12693C126.342 9.17503 122.87 13.9782 119.16 19.5444H131.29C131.622 19.5444 132.145 19.9253 132.384 20.353C132.669 20.8287 132.622 21.2096 132.289 21.2096H118.066C117.067 22.7318 116.068 24.3021 115.116 25.823V25.8711C115.116 26.0609 115.021 26.1571 114.926 26.1571C112.025 30.8666 110.455 33.577 110.979 34.5285C111.835 36.1456 121.491 28.4397 121.491 28.3929C121.681 28.2499 121.967 28.155 122.346 28.5827C122.727 29.0104 122.441 29.2483 122.251 29.3912C122.203 29.438 111.406 40.0934 109.076 35.8128C108.362 34.4804 110.55 29.9151 113.594 24.8728C113.546 24.8728 113.879 24.3502 113.879 24.3502C113.974 20.7351 101.797 21.2109 101.797 21.2109C101.465 21.2109 100.941 20.83 100.703 20.3543C100.417 19.9266 100.465 19.5457 100.798 19.5457H116.875C120.872 13.3126 124.867 7.74773 124.915 7.69963ZM114.403 23.4922C114.878 22.7305 115.354 21.9701 115.83 21.2096L109.884 20.9717C111.31 21.5411 113.642 22.4926 114.403 23.4922Z" fill="url(#paint5_linear_301_1151)"/>
<path d="M80.2981 31.0718C80.2513 31.3097 79.9653 31.3565 79.6326 31.1667L79.5845 31.2616C77.8725 32.7357 76.3503 33.9251 75.1609 34.6868C73.5438 35.6852 70.8322 35.9231 70.9752 33.2127C71.0233 32.4991 71.356 31.5957 71.8786 30.6922C72.8301 29.1232 74.8749 26.5065 76.8729 26.6014C78.7278 26.5533 79.2985 27.5048 79.7743 28.2185C81.5343 26.5533 83.3425 24.6034 85.0545 22.5574C88.9555 17.8959 91.6191 14.043 92.9034 12.045L93.9017 10.5228C94.0447 10.2849 94.4724 10.3798 94.9013 10.8075C95.2822 11.1884 95.5201 11.6641 95.3771 11.9488C95.3771 11.9488 94.9962 12.5676 94.2358 13.7089C89.573 21.0352 77.0314 39.828 77.697 41.397C77.8868 41.8728 77.697 42.1106 77.3161 42.0157C76.9353 41.9209 76.4595 41.4932 76.3178 41.0174C75.7471 39.685 76.9678 37.8742 83.0565 27.8376C82.1531 28.7892 81.2497 29.6926 80.3449 30.5011C80.3462 30.8339 80.2981 31.025 80.2981 31.0718ZM78.7278 29.2168C78.6329 28.884 78.3951 28.5032 77.7763 28.5032C76.0643 28.4083 74.1612 30.739 73.3527 32.0701C72.9718 32.7357 72.6871 33.3544 72.591 33.8302C72.8769 33.6872 73.3046 33.4493 73.8272 33.1166C75.0166 32.4029 76.5388 31.2135 78.204 29.7394L78.7278 29.2168Z" fill="url(#paint6_linear_301_1151)"/>
<defs>
<linearGradient id="paint0_linear_301_1151" x1="0.00308079" y1="23.5959" x2="59.55" y2="23.5959" gradientUnits="userSpaceOnUse">
<stop stop-color="#FFBC21"/>
<stop offset="0.1344" stop-color="#FD843A"/>
<stop offset="0.2742" stop-color="#FC5554"/>
<stop offset="0.4301" stop-color="#FC365F"/>
<stop offset="0.6129" stop-color="#F02E6B"/>
<stop offset="0.7903" stop-color="#DD3578"/>
<stop offset="1" stop-color="#81399D"/>
</linearGradient>
<linearGradient id="paint1_linear_301_1151" x1="47.9523" y1="30.1751" x2="64.8715" y2="30.1751" gradientUnits="userSpaceOnUse">
<stop stop-color="#FFBC21"/>
<stop offset="0.1344" stop-color="#FD843A"/>
<stop offset="0.2742" stop-color="#FC5554"/>
<stop offset="0.4301" stop-color="#FC365F"/>
<stop offset="0.6129" stop-color="#F02E6B"/>
<stop offset="0.7903" stop-color="#DD3578"/>
<stop offset="1" stop-color="#81399D"/>
</linearGradient>
<linearGradient id="paint2_linear_301_1151" x1="60.4067" y1="30.4152" x2="74.1133" y2="30.4152" gradientUnits="userSpaceOnUse">
<stop stop-color="#FFBC21"/>
<stop offset="0.1344" stop-color="#FD843A"/>
<stop offset="0.2742" stop-color="#FC5554"/>
<stop offset="0.4301" stop-color="#FC365F"/>
<stop offset="0.6129" stop-color="#F02E6B"/>
<stop offset="0.7903" stop-color="#DD3578"/>
<stop offset="1" stop-color="#81399D"/>
</linearGradient>
<linearGradient id="paint3_linear_301_1151" x1="84.7773" y1="30.0495" x2="100.858" y2="30.0495" gradientUnits="userSpaceOnUse">
<stop stop-color="#FFBC21"/>
<stop offset="0.1344" stop-color="#FD843A"/>
<stop offset="0.2742" stop-color="#FC5554"/>
<stop offset="0.4301" stop-color="#FC365F"/>
<stop offset="0.6129" stop-color="#F02E6B"/>
<stop offset="0.7903" stop-color="#DD3578"/>
<stop offset="1" stop-color="#81399D"/>
</linearGradient>
<linearGradient id="paint4_linear_301_1151" x1="97.465" y1="30.9587" x2="112.488" y2="30.9587" gradientUnits="userSpaceOnUse">
<stop stop-color="#FFBC21"/>
<stop offset="0.1344" stop-color="#FD843A"/>
<stop offset="0.2742" stop-color="#FC5554"/>
<stop offset="0.4301" stop-color="#FC365F"/>
<stop offset="0.6129" stop-color="#F02E6B"/>
<stop offset="0.7903" stop-color="#DD3578"/>
<stop offset="1" stop-color="#81399D"/>
</linearGradient>
<linearGradient id="paint5_linear_301_1151" x1="100.516" y1="22.2161" x2="132.57" y2="22.2161" gradientUnits="userSpaceOnUse">
<stop stop-color="#FFBC21"/>
<stop offset="0.1344" stop-color="#FD843A"/>
<stop offset="0.2742" stop-color="#FC5554"/>
<stop offset="0.4301" stop-color="#FC365F"/>
<stop offset="0.6129" stop-color="#F02E6B"/>
<stop offset="0.7903" stop-color="#DD3578"/>
<stop offset="1" stop-color="#81399D"/>
</linearGradient>
<linearGradient id="paint6_linear_301_1151" x1="70.9695" y1="26.2162" x2="95.4185" y2="26.2162" gradientUnits="userSpaceOnUse">
<stop stop-color="#FFBC21"/>
<stop offset="0.1344" stop-color="#FD843A"/>
<stop offset="0.2742" stop-color="#FC5554"/>
<stop offset="0.4301" stop-color="#FC365F"/>
<stop offset="0.6129" stop-color="#F02E6B"/>
<stop offset="0.7903" stop-color="#DD3578"/>
<stop offset="1" stop-color="#81399D"/>
</linearGradient>
</defs>
</svg>
