<svg width="82" height="88" viewBox="0 0 82 88" fill="none" xmlns="http://www.w3.org/2000/svg">
<path d="M2.89761 18.6468L2.59082 18.4167L3.88034 16.6982L4.18711 16.9283L3.66195 17.6277L6.49055 19.7504L6.25007 20.0702L3.42147 17.9475L2.89761 18.6468Z" fill="black"/>
<path d="M4.87842 15.4646L5.14099 15.1747L6.35902 16.2796L7.70052 14.8003L6.4825 13.6954L6.74509 13.4055L9.65039 16.0391L9.38781 16.329L7.9865 15.0577L6.64499 16.537L8.0463 17.8083L7.78372 18.0982L4.87842 15.4646Z" fill="black"/>
<path d="M8.18018 12.0041L9.84796 10.4988L10.1053 10.7835L8.72874 12.0262L9.55159 12.9387L10.9165 11.7064L11.1739 11.9911L9.80897 13.2234L10.8411 14.3673L12.206 13.135L12.4634 13.4197L10.8073 14.9146L8.18018 12.0041Z" fill="black"/>
<path d="M13.1084 7.98469L14.9764 6.73547L15.1896 7.05395L13.6479 8.08478L14.3303 9.10651L15.859 8.08478L16.0722 8.40326L14.5435 9.42499L15.4001 10.7054L16.9288 9.68367L17.142 10.0034L15.2871 11.2436L13.1084 7.98469Z" fill="black"/>
<path d="M16.2607 5.95567L16.6637 5.73858L18.2145 6.63552L18.3211 4.84425L18.7189 4.62976L18.5889 6.85261L20.6479 8.04463L20.245 8.26171L18.5629 7.28938L18.4498 9.23015L18.0468 9.44723L18.1885 7.07099L16.2607 5.95567Z" fill="black"/>
<path d="M20.3291 3.87435L21.0492 3.57277C21.4626 3.39988 21.7486 3.30109 21.9085 3.27769C22.136 3.24259 22.3492 3.27639 22.5467 3.37909C22.7443 3.48178 22.8925 3.65337 22.9926 3.89255C23.0927 4.13303 23.1122 4.35922 23.0498 4.5685C22.9874 4.77909 22.8548 4.95718 22.6533 5.10537C22.5065 5.21326 22.2075 5.36145 21.7577 5.54864L21.499 5.65653L22.2023 7.33861L21.8409 7.4894L20.3291 3.87435ZM20.8387 4.07714L21.3521 5.30425L21.967 5.05597C22.214 4.95198 22.3869 4.85448 22.4818 4.76089C22.5779 4.6686 22.6377 4.5581 22.6611 4.42941C22.6845 4.30072 22.6702 4.17463 22.6182 4.05114C22.5675 3.93025 22.4883 3.83275 22.3804 3.75996C22.2725 3.68716 22.1568 3.65207 22.0307 3.65337C21.9059 3.65597 21.7213 3.70796 21.4769 3.81066L20.8387 4.07714Z" fill="black"/>
<path d="M24.3018 2.32221L26.4466 1.65405L26.561 2.02063L24.7905 2.57309L25.1558 3.74561L26.912 3.19835L27.0264 3.56492L25.2702 4.11218L25.7291 5.58238L27.4852 5.03512L27.5996 5.4017L25.4704 6.06465L24.3018 2.32221Z" fill="black"/>
<path d="M28.1265 1.22266L28.8908 1.06277C29.3172 0.973079 29.6097 0.930182 29.7683 0.934082C30.0074 0.937981 30.2154 1.01208 30.3948 1.15377C30.5729 1.29546 30.6886 1.49174 30.7419 1.74263C30.7861 1.95191 30.7744 2.1456 30.7094 2.32499C30.6444 2.50437 30.5287 2.65256 30.3636 2.77216C30.1985 2.89175 29.9541 2.98534 29.6331 3.05424L31.3866 4.54653L30.9122 4.64533L29.1586 3.15303L28.9415 3.19853L29.3146 4.98071L28.9311 5.0613L28.1265 1.22266ZM28.5892 1.51774L28.8622 2.82285L29.5239 2.68896C29.78 2.63567 29.9645 2.57067 30.0763 2.49657C30.1894 2.42248 30.2687 2.32369 30.3155 2.2028C30.3623 2.0819 30.3714 1.95451 30.3428 1.82192C30.3155 1.69323 30.257 1.58404 30.1647 1.49304C30.0724 1.40205 29.9658 1.34615 29.8437 1.32536C29.7215 1.30456 29.5278 1.32016 29.2652 1.37605L28.5892 1.51774Z" fill="black"/>
<path d="M32.0152 0.874225L31.9697 0.493351L34.1029 0.239868L34.1484 0.620742L33.28 0.723435L33.6973 4.23579L33.3008 4.28259L32.8836 0.770232L32.0152 0.874225Z" fill="black"/>
<path d="M35.3691 3.32977L35.6941 3.11788C35.945 3.54035 36.2232 3.74574 36.5313 3.73534C36.6626 3.73014 36.7847 3.69504 36.8978 3.63005C37.0109 3.56505 37.0954 3.47926 37.1526 3.37397C37.2085 3.26867 37.2345 3.15818 37.2306 3.04249C37.2254 2.9112 37.176 2.78381 37.0837 2.66161C36.955 2.49263 36.7236 2.29114 36.3896 2.05846C36.0542 1.82447 35.8436 1.65288 35.7591 1.54629C35.6135 1.3669 35.5368 1.16932 35.529 0.954831C35.5225 0.784542 35.5576 0.627253 35.6343 0.484263C35.711 0.341273 35.8215 0.22558 35.9671 0.139786C36.1127 0.0539922 36.2726 0.00719546 36.4455 0.000695908C36.6301 -0.00580365 36.8042 0.0331937 36.968 0.118988C37.1318 0.204782 37.3086 0.365971 37.4971 0.605155L37.1864 0.859937C37.0317 0.67015 36.9017 0.546659 36.7951 0.488163C36.6885 0.429667 36.5742 0.402369 36.452 0.407568C36.2934 0.412768 36.166 0.466064 36.0698 0.566157C35.9736 0.666251 35.9268 0.785842 35.932 0.926233C35.9346 1.01203 35.9567 1.09392 35.9944 1.17192C36.0321 1.24991 36.101 1.33441 36.1985 1.4254C36.2518 1.4735 36.426 1.59699 36.7198 1.79847C37.0681 2.03636 37.3086 2.25084 37.4425 2.44063C37.5764 2.63172 37.6466 2.8254 37.6531 3.02169C37.6635 3.30637 37.5647 3.55725 37.3567 3.77434C37.1487 3.99142 36.89 4.10712 36.582 4.11751C36.3441 4.12661 36.1257 4.07072 35.9281 3.95113C35.7305 3.82763 35.5433 3.62225 35.3691 3.32977Z" fill="black"/>
<path d="M41.6842 0.204712L42.0741 0.23851L41.7401 4.14474L41.3501 4.11094L41.6842 0.204712Z" fill="black"/>
<path d="M43.3081 4.28928L43.962 0.42334L44.0465 0.437639L46.1185 3.83561L46.6203 0.871809L47.0011 0.936805L46.3473 4.80274L46.2602 4.78844L44.2024 1.42947L43.7072 4.35687L43.3081 4.28928Z" fill="black"/>
<path d="M51.2974 2.05859L52.037 2.31078C52.4608 2.45507 52.7403 2.57206 52.8755 2.65915C53.0691 2.78394 53.2056 2.95033 53.2849 3.15832C53.3642 3.3663 53.3616 3.59379 53.2784 3.83947C53.1939 4.08646 53.0587 4.26844 52.8729 4.38413C52.687 4.49983 52.4686 4.54662 52.2203 4.52323C52.0383 4.50633 51.7172 4.41923 51.2558 4.26194L50.9906 4.17095L50.4017 5.89593L50.0312 5.76854L51.2974 2.05859ZM51.5443 2.54736L51.1141 3.80567L51.7393 4.02796C51.9928 4.11505 52.1865 4.15535 52.3204 4.14885C52.4543 4.14235 52.5713 4.09945 52.674 4.01886C52.7767 3.93827 52.8495 3.83427 52.8937 3.70688C52.9366 3.58209 52.9418 3.4573 52.9093 3.33121C52.8768 3.20511 52.8144 3.10112 52.7182 3.02053C52.6233 2.93993 52.4504 2.85544 52.1995 2.77094L51.5443 2.54736Z" fill="black"/>
<path d="M55.3321 3.54053L56.0418 3.86551C56.4383 4.04619 56.6983 4.18528 56.8244 4.28148C57.0142 4.42707 57.139 4.60905 57.1988 4.82874C57.2585 5.04842 57.2352 5.27461 57.1286 5.50859C57.0402 5.70228 56.9167 5.85307 56.7581 5.95836C56.5995 6.06365 56.4188 6.11565 56.2147 6.11305C56.0106 6.11045 55.7584 6.04286 55.4595 5.90767L55.9859 8.15001L55.5453 7.94853L55.0188 5.70618L54.8173 5.61389L54.0608 7.26997L53.7046 7.10748L55.3321 3.54053ZM55.5284 4.05269L54.9746 5.26551L55.5869 5.55149C55.8247 5.66068 56.0106 5.71788 56.1458 5.72438C56.281 5.73088 56.4032 5.69968 56.5124 5.62948C56.6216 5.55929 56.7048 5.4631 56.7607 5.3396C56.8153 5.22001 56.8322 5.09652 56.8127 4.96913C56.7932 4.84174 56.7399 4.73255 56.6541 4.64285C56.5683 4.55316 56.4032 4.45177 56.1588 4.33997L55.5284 4.05269Z" fill="black"/>
<path d="M60.9426 6.32367C61.4495 6.63175 61.7719 7.05942 61.9071 7.60669C62.0436 8.15265 61.9604 8.67391 61.6588 9.16918C61.3612 9.65925 60.9374 9.97122 60.3875 10.1051C59.8377 10.239 59.319 10.1571 58.8289 9.85813C58.3324 9.55525 58.0165 9.13018 57.8813 8.58292C57.7461 8.03436 57.8254 7.51959 58.1192 7.03732C58.3155 6.71495 58.5741 6.46406 58.8965 6.28468C59.2189 6.10529 59.5621 6.01819 59.926 6.02599C60.2913 6.03509 60.6293 6.13389 60.9426 6.32367ZM60.7593 6.65905C60.511 6.50826 60.2367 6.43027 59.9364 6.42377C59.6362 6.41727 59.3567 6.48616 59.0993 6.62915C58.8419 6.77214 58.6313 6.97753 58.4676 7.24661C58.2258 7.64438 58.1582 8.06425 58.2674 8.50752C58.3766 8.94949 58.6261 9.28877 59.0148 9.52535C59.2748 9.68394 59.5543 9.76714 59.852 9.77494C60.1496 9.78404 60.4278 9.71644 60.6839 9.57215C60.9413 9.42916 61.1506 9.22378 61.3131 8.95599C61.4742 8.68951 61.5587 8.41133 61.5665 8.12145C61.573 7.83157 61.5028 7.55339 61.3573 7.28691C61.2117 7.02043 61.0115 6.81244 60.7593 6.65905Z" fill="black"/>
<path d="M61.7822 11.6829L64.2287 8.61902L64.8643 9.12598C65.3232 9.49126 65.6261 9.79414 65.7742 10.0333C65.9887 10.3752 66.0758 10.7405 66.0381 11.1317C66.0004 11.5217 65.8393 11.8948 65.5559 12.251C65.3102 12.5577 65.0294 12.7748 64.7096 12.9022C64.3912 13.0296 64.0805 13.0647 63.7802 13.0062C63.4799 12.9477 63.138 12.767 62.7572 12.4616L61.7822 11.6829ZM62.3074 11.6283L62.661 11.9104C63.0847 12.2484 63.3993 12.4564 63.6047 12.5343C63.8946 12.6435 64.1845 12.6526 64.4717 12.5629C64.759 12.4733 65.0151 12.2874 65.24 12.0053C65.4753 11.7102 65.6066 11.4008 65.63 11.0759C65.6547 10.7522 65.5689 10.4493 65.3765 10.1672C65.2309 9.95663 64.9384 9.67455 64.499 9.32357L64.282 9.15068L62.3074 11.6283Z" fill="black"/>
<path d="M68.1765 11.9379L68.4534 12.2147L66.7791 13.8877C66.5802 14.0866 66.4606 14.214 66.419 14.2699C66.3242 14.3934 66.2643 14.5169 66.2409 14.6404C66.2175 14.7639 66.2332 14.903 66.2878 15.0564C66.3424 15.2097 66.4229 15.3397 66.5282 15.4463C66.6192 15.5386 66.7271 15.6062 66.8506 15.6517C66.9741 15.6972 67.0976 15.7128 67.2237 15.7011C67.3498 15.6881 67.4746 15.6465 67.5994 15.575C67.6891 15.523 67.8424 15.3891 68.0608 15.1694L69.7351 13.4965L70.012 13.7733L68.3377 15.4463C68.0907 15.6933 67.8658 15.8701 67.6644 15.9741C67.4629 16.0781 67.2341 16.1145 66.9754 16.082C66.7167 16.0495 66.4853 15.9312 66.2786 15.7245C66.0551 15.5009 65.9173 15.2552 65.864 14.9888C65.8107 14.7223 65.8458 14.474 65.968 14.2439C66.0421 14.1022 66.2201 13.8903 66.5022 13.6096L68.1765 11.9379Z" fill="black"/>
<path d="M73.0955 18.6182L72.7172 18.522C72.7861 18.2503 72.7913 17.9851 72.7328 17.7265C72.6743 17.4678 72.5573 17.226 72.3793 17.0024C72.1856 16.7567 71.9464 16.576 71.6643 16.4603C71.3809 16.3446 71.0949 16.307 70.8051 16.3485C70.5152 16.3901 70.2461 16.5097 69.9991 16.706C69.6234 17.0024 69.4129 17.3781 69.3648 17.8343C69.3167 18.2893 69.448 18.7131 69.7573 19.1057C70.0979 19.5359 70.5516 19.7634 71.117 19.7868L71.1248 20.1755C70.809 20.1768 70.5061 20.104 70.2188 19.9584C69.9315 19.8128 69.6754 19.5996 69.4519 19.3162C69.0268 18.7781 68.8708 18.2113 68.9839 17.6173C69.0801 17.1181 69.3427 16.6982 69.7703 16.3602C70.2201 16.0041 70.7245 15.8637 71.2808 15.9365C71.8385 16.0093 72.3039 16.2836 72.6795 16.7593C72.907 17.0466 73.0539 17.3508 73.1241 17.6719C73.193 17.9929 73.1839 18.3075 73.0955 18.6182Z" fill="black"/>
<path d="M74.1472 19.576L74.4709 19.3693L75.6265 21.18L75.3028 21.3867L74.8322 20.6497L71.8502 22.5514L71.6357 22.2148L74.6177 20.313L74.1472 19.576Z" fill="black"/>
<path d="M77.5333 24.6885L77.8556 25.3995C78.0402 25.8077 78.1481 26.0898 78.1767 26.2484C78.2196 26.4746 78.191 26.689 78.0948 26.8892C77.9986 27.0894 77.8309 27.2428 77.5944 27.3507C77.3565 27.4586 77.1316 27.4846 76.9197 27.4287C76.7078 27.3728 76.5245 27.2454 76.3711 27.0491C76.2593 26.9048 76.1021 26.611 75.9006 26.1678L75.7849 25.913L74.1249 26.6669L73.9624 26.3108L77.5333 24.6885ZM77.3461 25.2045L76.1346 25.7544L76.401 26.3615C76.5115 26.6058 76.6155 26.7748 76.7117 26.8671C76.8079 26.9607 76.9197 27.0166 77.0484 27.0361C77.1771 27.0556 77.3032 27.0374 77.4254 26.9815C77.545 26.9269 77.6399 26.845 77.7101 26.7358C77.7803 26.6266 77.8114 26.5084 77.8062 26.3836C77.801 26.2588 77.7425 26.0755 77.6334 25.835L77.3461 25.2045Z" fill="black"/>
<path d="M79.2218 28.626L79.3466 28.9978L77.7867 29.519L78.4198 31.413L79.9797 30.8917L80.1031 31.2635L76.3841 32.5062L76.2593 32.1344L78.0545 31.5352L77.4214 29.6412L75.6263 30.2405L75.5015 29.8687L79.2218 28.626Z" fill="black"/>
<path d="M81.134 35.0697C81.2523 35.652 81.1561 36.1785 80.8468 36.6491C80.5374 37.1196 80.0993 37.4121 79.5312 37.5278C78.9684 37.6409 78.4523 37.5421 77.9804 37.2301C77.5099 36.9181 77.2174 36.4801 77.103 35.9172C76.9873 35.3478 77.0861 34.8266 77.3968 34.356C77.7075 33.8854 78.1403 33.593 78.6941 33.4812C79.0633 33.4071 79.4234 33.4266 79.7756 33.541C80.1266 33.6554 80.423 33.8503 80.6635 34.122C80.9052 34.3937 81.0625 34.7096 81.134 35.0697ZM80.7649 35.162C80.7077 34.8773 80.579 34.6225 80.3788 34.3976C80.1786 34.1727 79.9394 34.0141 79.6599 33.9218C79.3805 33.8295 79.0854 33.8139 78.7773 33.8763C78.321 33.9686 77.9674 34.2052 77.7166 34.5848C77.4657 34.9644 77.3864 35.3777 77.4761 35.8249C77.5359 36.1226 77.6646 36.3852 77.8608 36.6088C78.0571 36.8336 78.295 36.9909 78.5745 37.0832C78.854 37.1755 79.1478 37.1898 79.4545 37.1274C79.76 37.0663 80.0213 36.9389 80.2397 36.7465C80.4568 36.5542 80.6141 36.315 80.7103 36.0264C80.8039 35.7404 80.8234 35.4505 80.7649 35.162Z" fill="black"/>
<path d="M81.2314 38.6289L81.6136 38.5925L81.8137 40.7309L81.4316 40.7673L81.3497 39.8963L77.8282 40.2265L77.7905 39.8287L81.312 39.4986L81.2314 38.6289Z" fill="black"/>
<path d="M81.9999 44.2262C81.9921 44.8203 81.788 45.3142 81.3876 45.7094C80.9859 46.1046 80.4959 46.2983 79.9174 46.2918C79.3441 46.284 78.8593 46.0786 78.4641 45.6743C78.0689 45.27 77.8752 44.7813 77.883 44.2067C77.8908 43.6256 78.0949 43.1369 78.4979 42.7417C78.9009 42.3465 79.3844 42.1528 79.9499 42.1593C80.3269 42.1645 80.674 42.2594 80.9937 42.4453C81.3135 42.6312 81.5618 42.8834 81.7399 43.2006C81.9167 43.519 82.0038 43.8596 81.9999 44.2262ZM81.6177 44.2392C81.6216 43.9493 81.5488 43.6737 81.4006 43.4112C81.2524 43.1499 81.0509 42.9445 80.7974 42.795C80.5427 42.6455 80.2593 42.5688 79.9434 42.5662C79.478 42.561 79.0816 42.717 78.7566 43.0355C78.4316 43.354 78.2665 43.7413 78.2613 44.1976C78.2574 44.5018 78.3276 44.7839 78.4719 45.0451C78.6162 45.3064 78.8151 45.5105 79.0699 45.6587C79.3246 45.8069 79.608 45.8836 79.9213 45.8862C80.232 45.8901 80.5154 45.8212 80.7688 45.6795C81.0223 45.5378 81.2264 45.3363 81.3811 45.0737C81.5358 44.8125 81.6151 44.5343 81.6177 44.2392Z" fill="black"/>
<path d="M80.5034 51.8958L80.2629 51.5526C80.5073 51.368 80.7036 51.1548 80.8518 50.913C81 50.6712 81.0923 50.4295 81.1287 50.1851C81.1742 49.8809 81.1417 49.5806 81.0338 49.2829C80.9246 48.9853 80.7543 48.7422 80.5203 48.5537C80.2863 48.3652 80.0276 48.2495 79.743 48.2066C79.4505 48.1637 79.1619 48.2001 78.8759 48.3184C78.5899 48.4354 78.3508 48.6213 78.161 48.8748C77.9699 49.1282 77.8503 49.4194 77.8009 49.7483C77.7424 50.1474 77.8048 50.5009 77.9881 50.8103C78.1727 51.1197 78.4391 51.3264 78.7901 51.4304L78.9734 50.1942L79.3478 50.2501L79.1008 51.9218C78.5015 51.8295 78.0531 51.5812 77.7515 51.1769C77.4512 50.7726 77.3446 50.2748 77.4317 49.6846C77.5383 48.9671 77.8659 48.4354 78.417 48.0896C78.8408 47.8231 79.2997 47.7269 79.7936 47.801C80.1615 47.8556 80.4891 47.9986 80.7777 48.23C81.0663 48.4614 81.2768 48.7513 81.4081 49.0996C81.5381 49.448 81.5745 49.825 81.5147 50.2306C81.4653 50.5594 81.3613 50.8597 81.1989 51.1327C81.039 51.4031 80.8063 51.6579 80.5034 51.8958Z" fill="black"/>
<path d="M80.6881 54.0343L80.4853 54.7882C80.3722 55.2081 80.2786 55.4889 80.2045 55.6293C80.0927 55.8398 79.9328 55.9932 79.7261 56.0881C79.5195 56.183 79.292 56.1973 79.045 56.131C78.8383 56.0751 78.6706 55.9776 78.5406 55.8398C78.4106 55.7008 78.33 55.5305 78.2975 55.329C78.2663 55.1275 78.2923 54.8675 78.3755 54.549L76.2515 55.4382L76.3776 54.9702L78.5016 54.0811L78.5588 53.8666L76.8013 53.3934L76.9027 53.0151L80.6881 54.0343ZM80.2149 54.3137L78.928 53.968L78.7473 54.6192C78.6797 54.8714 78.6524 55.0651 78.668 55.199C78.6836 55.3329 78.7343 55.4486 78.8214 55.5448C78.9085 55.641 79.0177 55.7073 79.1477 55.7423C79.2751 55.7761 79.3999 55.7735 79.522 55.732C79.6442 55.6917 79.743 55.6215 79.8171 55.5214C79.8912 55.4213 79.964 55.2419 80.0342 54.9832L80.2149 54.3137Z" fill="black"/>
<path d="M78.8854 59.7183L74.5684 59.9991L74.7218 59.6052L76.1478 59.4986L76.7613 57.9244L75.7812 56.8871L75.9398 56.4802L78.9205 59.6299L78.8854 59.7183ZM78.1275 59.3699L77.0486 58.2286L76.5624 59.4778L78.1275 59.3699Z" fill="black"/>
<path d="M77.4914 62.9359L77.1314 63.6287C76.9247 64.0265 76.7674 64.2852 76.6608 64.4061C76.5087 64.579 76.3241 64.6894 76.1057 64.7362C75.8887 64.783 75.6638 64.7466 75.4337 64.6271C75.2023 64.5062 75.0424 64.345 74.9566 64.1448C74.8695 63.9433 74.8565 63.721 74.9176 63.4779C74.9618 63.3011 75.0957 62.9957 75.3206 62.5641L75.4506 62.3158L73.8335 61.4748L74.0142 61.1277L77.4914 62.9359ZM76.9702 63.1062L75.7899 62.4926L75.4766 63.0776C75.3531 63.3154 75.2842 63.5013 75.2699 63.6339C75.2556 63.7665 75.2803 63.89 75.344 64.0031C75.4077 64.1162 75.5 64.2046 75.6196 64.267C75.7366 64.3281 75.8588 64.3515 75.9888 64.3385C76.1188 64.3255 76.2305 64.2787 76.3254 64.1968C76.4203 64.1149 76.5282 63.9563 76.6504 63.721L76.9702 63.1062Z" fill="black"/>
<path d="M75.4326 66.6928L75.2168 67.0191L73.8454 66.1118L72.7444 67.777L74.1158 68.6843L73.9 69.0106L70.6294 66.8475L70.8452 66.5212L72.4233 67.5651L73.5243 65.8999L71.9462 64.8561L72.162 64.5298L75.4326 66.6928Z" fill="black"/>
<path d="M72.8872 70.3869L72.6013 70.7353L70.7151 70.4818L71.3364 72.2717L71.0492 72.6214L70.2588 70.3622L68.812 69.1715L69.0577 68.8738L70.5045 70.0645L72.8872 70.3869Z" fill="black"/>
<path d="M68.2285 74.9938L68.4872 75.2772L66.9013 76.7266L66.6426 76.4432L67.2887 75.853L64.9033 73.2415L65.1984 72.9724L67.5837 75.5839L68.2285 74.9938Z" fill="black"/>
<path d="M65.6937 77.7496L65.3817 77.9862L64.3899 76.6746L62.7975 77.8796L63.7906 79.1912L63.4786 79.4278L61.1128 76.3015L61.4248 76.0649L62.5674 77.5741L64.1598 76.3691L63.0172 74.8599L63.3291 74.6233L65.6937 77.7496Z" fill="black"/>
<path d="M60.4097 81.3893L56.8389 78.948L57.2028 78.7322L58.391 79.5278L59.8443 78.6673L59.713 77.2464L60.0886 77.0242L60.4929 81.3412L60.4097 81.3893ZM60.0276 80.647L59.882 79.0832L58.7289 79.767L60.0276 80.647Z" fill="black"/>
<path d="M57.5444 82.5268L57.7069 82.8738L55.7622 83.7864L55.5997 83.4393L56.3914 83.0675L54.8887 79.8658L55.2501 79.6956L56.7527 82.8972L57.5444 82.5268Z" fill="black"/>
<path d="M51.4846 82.0509L51.2259 82.3408C50.8736 81.9989 50.5499 81.8728 50.2562 81.9651C50.1301 82.0041 50.0222 82.0704 49.9299 82.164C49.8376 82.2563 49.7778 82.3616 49.7518 82.4786C49.7245 82.5943 49.7284 82.7087 49.7635 82.8179C49.8025 82.944 49.8831 83.0532 50.0066 83.1468C50.1756 83.2768 50.4525 83.4093 50.8359 83.5471C51.222 83.6849 51.469 83.7954 51.5782 83.876C51.7654 84.0112 51.8915 84.1815 51.9552 84.3869C52.0058 84.5494 52.0137 84.7106 51.9773 84.8691C51.9409 85.0277 51.8642 85.1668 51.7472 85.289C51.6302 85.4099 51.4872 85.497 51.3221 85.549C51.1453 85.6036 50.9672 85.6114 50.7865 85.5724C50.6058 85.5334 50.3927 85.4229 50.1483 85.2422L50.381 84.9146C50.5798 85.0576 50.7384 85.1421 50.8567 85.1707C50.975 85.1993 51.092 85.1954 51.209 85.159C51.3598 85.1122 51.469 85.0277 51.5366 84.9055C51.6042 84.7834 51.6159 84.656 51.5743 84.5221C51.5483 84.4402 51.5067 84.3674 51.4495 84.3011C51.391 84.2348 51.3039 84.1711 51.1856 84.11C51.1219 84.0775 50.9217 84.0034 50.585 83.8877C50.186 83.7499 49.8974 83.6069 49.7193 83.4574C49.5399 83.308 49.4216 83.1403 49.3631 82.9518C49.2786 82.6801 49.3072 82.4123 49.4515 82.1484C49.5945 81.8833 49.8142 81.7052 50.1093 81.6129C50.3368 81.5414 50.5617 81.5375 50.7839 81.6012C51.0062 81.6636 51.2402 81.8144 51.4846 82.0509Z" fill="black"/>
<path d="M48.4631 86.2511L46.2675 86.7294L46.1856 86.3551L47.9977 85.9599L47.7364 84.7588L45.9399 85.1501L45.858 84.7757L47.6545 84.3831L47.3256 82.8778L45.5292 83.2691L45.4473 82.8947L47.6272 82.4189L48.4631 86.2511Z" fill="black"/>
<path d="M44.6106 86.9972L44.2219 87.0479L43.767 83.5355L42.2708 83.7292L42.2227 83.3535L44.1075 83.1091L44.6106 86.9972Z" fill="black"/>
<path d="M41.1161 87.3703L40.7249 87.3885L40.5546 83.8502L39.048 83.9217L39.0298 83.5434L40.9277 83.4524L41.1161 87.3703Z" fill="black"/>
<path d="M1.52989 26.2822C2.19469 26.2822 2.73361 25.7433 2.73361 25.0785C2.73361 24.4137 2.19469 23.8748 1.52989 23.8748C0.865096 23.8748 0.326172 24.4137 0.326172 25.0785C0.326172 25.7433 0.865096 26.2822 1.52989 26.2822Z" fill="black"/>
<path d="M31.9454 86.142C32.6102 86.142 33.1491 85.6031 33.1491 84.9383C33.1491 84.2735 32.6102 83.7346 31.9454 83.7346C31.2806 83.7346 30.7417 84.2735 30.7417 84.9383C30.7417 85.6031 31.2806 86.142 31.9454 86.142Z" fill="black"/>
</svg>
