<svg width="60" height="60" viewBox="0 0 60 60" fill="none" xmlns="http://www.w3.org/2000/svg">
<g id="ei:clock">
<path id="Vector" d="M30.0001 50.4001C18.7201 50.4001 9.6001 41.2801 9.6001 30.0001C9.6001 18.7201 18.7201 9.6001 30.0001 9.6001C41.2801 9.6001 50.4001 18.7201 50.4001 30.0001C50.4001 41.2801 41.2801 50.4001 30.0001 50.4001ZM30.0001 12.0001C20.0401 12.0001 12.0001 20.0401 12.0001 30.0001C12.0001 39.9601 20.0401 48.0001 30.0001 48.0001C39.9601 48.0001 48.0001 39.9601 48.0001 30.0001C48.0001 20.0401 39.9601 12.0001 30.0001 12.0001Z" fill="black"/>
<path id="Vector_2" d="M36.3598 40.44L28.7998 32.88V19.2H31.1998V31.92L38.0398 38.76L36.3598 40.44Z" fill="black"/>
</g>
</svg>
