<svg width="30" height="30" viewBox="0 0 30 30" fill="none" xmlns="http://www.w3.org/2000/svg">
<g id="emojione-v1:heavy-check-mark">
<path id="Vector" d="M28.4011 5.56526C28.0691 5.33299 27.6946 5.1684 27.2991 5.08088C26.9035 4.99336 26.4945 4.98464 26.0956 5.0552C25.6966 5.12576 25.3155 5.27423 24.9739 5.49212C24.6324 5.71001 24.3371 5.99306 24.105 6.3251L12.3768 23.0745L4.68699 17.8217C4.07024 17.3998 3.31116 17.2402 2.57673 17.378C1.84231 17.5158 1.1927 17.9397 0.770822 18.5564C0.348942 19.1732 0.189344 19.9323 0.327139 20.6667C0.464935 21.4011 0.888835 22.0507 1.50559 22.4726L11.8134 29.5132C12.1309 29.7299 12.4896 29.8788 12.8673 29.9505C13.2449 30.0222 13.6333 30.0152 14.0081 29.9299C14.4079 29.8601 14.7899 29.712 15.1323 29.4941C15.4748 29.2763 15.7708 28.993 16.0036 28.6606L29.1614 9.8637C29.6303 9.1925 29.8136 8.36258 29.6709 7.55631C29.5283 6.75004 29.0714 6.0334 28.4006 5.56385" fill="#772BC4"/>
</g>
</svg>
