<svg width="48" height="48" viewBox="0 0 48 48" fill="none" xmlns="http://www.w3.org/2000/svg">
<path d="M16.8 7.19995C14.8904 7.19995 13.0591 7.95852 11.7088 9.30878C10.3586 10.659 9.6 12.4904 9.6 14.4V28.7999C9.6 31.3031 10.8792 33.5111 12.8184 34.7999C11.8281 35.4564 11.0159 36.348 10.4543 37.395C9.89269 38.442 9.59918 39.6118 9.6 40.7999C9.6 41.1182 9.72643 41.4234 9.95147 41.6485C10.1765 41.8735 10.4817 41.9999 10.8 41.9999C11.1183 41.9999 11.4235 41.8735 11.6485 41.6485C11.8736 41.4234 12 41.1182 12 40.7999C12 39.5269 12.5057 38.306 13.4059 37.4058C14.3061 36.5057 15.527 35.9999 16.8 35.9999C17.1183 35.9999 17.4235 35.8735 17.6485 35.6485C17.8736 35.4234 18 35.1182 18 34.7999C18 34.4817 17.8736 34.1765 17.6485 33.9514C17.4235 33.7264 17.1183 33.5999 16.8 33.5999C15.912 33.5999 15.0768 33.3575 14.3616 32.9351L22.812 24.4872C22.968 24.3311 23.1532 24.2074 23.3571 24.1229C23.5609 24.0385 23.7794 23.995 24 23.995C24.2206 23.995 24.4391 24.0385 24.6429 24.1229C24.8468 24.2074 25.032 24.3311 25.188 24.4872L33.6384 32.9351C32.9 33.3716 32.0577 33.6012 31.2 33.5999C30.8817 33.5999 30.5765 33.7264 30.3515 33.9514C30.1264 34.1765 30 34.4817 30 34.7999C30 35.1182 30.1264 35.4234 30.3515 35.6485C30.5765 35.8735 30.8817 35.9999 31.2 35.9999C32.473 35.9999 33.6939 36.5057 34.5941 37.4058C35.4943 38.306 36 39.5269 36 40.7999C36 41.1182 36.1264 41.4234 36.3515 41.6485C36.5765 41.8735 36.8817 41.9999 37.2 41.9999C37.5183 41.9999 37.8235 41.8735 38.0485 41.6485C38.2736 41.4234 38.4 41.1182 38.4 40.7999C38.4008 39.6118 38.1073 38.442 37.5457 37.395C36.9841 36.348 36.1719 35.4564 35.1816 34.7999C36.1719 34.1435 36.9841 33.2519 37.5457 32.2049C38.1073 31.1579 38.4008 29.9881 38.4 28.7999V14.4C38.4 12.4904 37.6414 10.659 36.2912 9.30878C34.9409 7.95852 33.1096 7.19995 31.2 7.19995H16.8ZM21.1152 22.7879L12.6648 31.2383C12.2283 30.5 11.9986 29.6577 12 28.7999V14.4C12 13.1269 12.5057 11.906 13.4059 11.0058C14.3061 10.1057 15.527 9.59995 16.8 9.59995H31.2C32.473 9.59995 33.6939 10.1057 34.5941 11.0058C35.4943 11.906 36 13.1269 36 14.4V28.7999C36 29.6879 35.7576 30.5231 35.3352 31.2383L26.8872 22.7879C26.5083 22.4088 26.0584 22.108 25.5632 21.9028C25.068 21.6976 24.5372 21.5919 24.0012 21.5919C23.4652 21.5919 22.9344 21.6976 22.4392 21.9028C21.944 22.108 21.4941 22.4088 21.1152 22.7879ZM22.8 33.5999C22.4817 33.5999 22.1765 33.7264 21.9515 33.9514C21.7264 34.1765 21.6 34.4817 21.6 34.7999C21.6 35.1182 21.7264 35.4234 21.9515 35.6485C22.1765 35.8735 22.4817 35.9999 22.8 35.9999H25.2C25.5183 35.9999 25.8235 35.8735 26.0485 35.6485C26.2736 35.4234 26.4 35.1182 26.4 34.7999C26.4 34.4817 26.2736 34.1765 26.0485 33.9514C25.8235 33.7264 25.5183 33.5999 25.2 33.5999H22.8ZM31.2 16.8C31.2 17.4365 30.9471 18.0469 30.4971 18.497C30.047 18.9471 29.4365 19.2 28.8 19.2C28.1635 19.2 27.553 18.9471 27.1029 18.497C26.6529 18.0469 26.4 17.4365 26.4 16.8C26.4 16.1634 26.6529 15.553 27.1029 15.1029C27.553 14.6528 28.1635 14.4 28.8 14.4C29.4365 14.4 30.047 14.6528 30.4971 15.1029C30.9471 15.553 31.2 16.1634 31.2 16.8Z" fill="url(#paint0_linear_265_719)"/>
<defs>
<linearGradient id="paint0_linear_265_719" x1="6.6399" y1="4.3439" x2="42.1078" y2="8.83722" gradientUnits="userSpaceOnUse">
<stop stop-color="#FC365F"/>
<stop offset="0.984375" stop-color="#A00BFB"/>
</linearGradient>
</defs>
</svg>
