<svg width="37" height="39" viewBox="0 0 37 39" fill="none" xmlns="http://www.w3.org/2000/svg">
<path d="M18.6682 -8.88815e-05C19.3068 -8.88815e-05 19.9357 0.0413486 20.5207 0.138849C21.0968 0.214344 21.6653 0.339945 22.2196 0.514224C22.7754 0.682411 23.3189 0.892036 23.8625 1.15529C24.3914 1.40635 24.935 1.71347 25.4786 2.04741C26.3975 2.63241 27.3018 3.10529 28.2232 3.4831C30.037 4.20907 31.9551 4.64106 33.905 4.76279C34.8946 4.83347 35.9111 4.87491 36.9689 4.87491V14.6249C36.9689 16.4774 36.7325 18.2324 36.2596 19.9045C35.8054 21.5528 35.1599 23.1423 34.3364 24.6406C33.5164 26.1368 32.5461 27.5456 31.4407 28.8453C30.3183 30.1745 29.103 31.4224 27.8039 32.5795C26.4877 33.7401 25.1014 34.8187 23.6529 35.8092C22.205 36.8135 20.7425 37.747 19.28 38.5953L18.695 38.9438L18.11 38.5953C16.6066 37.7249 15.138 36.7955 13.7079 35.8092C12.2512 34.8299 10.8642 33.7507 9.55681 32.5795C8.25857 31.4223 7.04409 30.1744 5.9225 28.8453C4.82 27.5401 3.84541 26.1321 3.01213 24.6406C2.20271 23.1356 1.55792 21.5478 1.08894 19.9045C0.613065 18.1855 0.378446 16.4086 0.391814 14.6249V4.87491C1.45213 4.87491 2.46856 4.83347 3.45819 4.76279C4.43236 4.69512 5.40023 4.55581 6.35394 4.34597C7.2875 4.13635 8.22106 3.85847 9.14 3.4831C10.0936 3.09825 11.0078 2.62236 11.87 2.06204C12.9425 1.36491 14.0296 0.850599 15.1021 0.511786C16.2572 0.157694 17.4602 -0.0149857 18.6682 -8.88815e-05ZM34.5168 7.27097C32.6717 7.18145 30.8438 6.87297 29.0714 6.35204C27.3085 5.82616 25.6293 5.05222 24.0843 4.05347C23.2829 3.52745 22.4126 3.11485 21.4981 2.82741C20.5846 2.55133 19.6346 2.41491 18.6804 2.42279C17.719 2.41657 16.7621 2.55293 15.8407 2.82741C14.9248 3.10551 14.0556 3.51875 13.2618 4.05347C11.7141 5.05767 10.0306 5.835 8.2625 6.36179C6.53431 6.86391 4.72569 7.17104 2.82931 7.28316V14.6371C2.82931 16.2532 3.03894 17.7985 3.45819 19.2878C3.8853 20.7642 4.47386 22.189 5.21319 23.5364C5.96138 24.8978 6.84323 26.1814 7.84569 27.3682C8.86213 28.565 9.94681 29.6789 11.1168 30.7368C12.2868 31.7971 13.5129 32.7721 14.795 33.6764C16.0893 34.5832 17.3861 35.4046 18.6804 36.1553C20.0057 35.3838 21.2979 34.5568 22.5536 33.6764C23.8442 32.7749 25.0767 31.7931 26.2439 30.7368C27.4139 29.6789 28.5011 28.565 29.5175 27.3682C30.5201 26.1815 31.4019 24.8979 32.15 23.5364C32.8861 22.1907 33.4659 20.7653 33.8782 19.2878C34.3102 17.7757 34.5252 16.2098 34.5168 14.6371V7.27097Z" fill="url(#paint0_linear_265_748)"/>
<path fill-rule="evenodd" clip-rule="evenodd" d="M27.7552 11.478L26.6827 10.5566L25.6931 10.642L15.0656 23.1902L11.4459 18.0227L10.4709 17.857L9.34231 18.6638L9.17413 19.6388L13.8273 26.2834L14.3563 26.5759L15.4702 26.6441L16.0406 26.3955L27.8259 12.4652L27.7552 11.478Z" fill="url(#paint1_linear_265_748)"/>
<defs>
<linearGradient id="paint0_linear_265_748" x1="-3.36823" y1="-3.19719" x2="41.4741" y2="3.25003" gradientUnits="userSpaceOnUse">
<stop stop-color="#FC365F"/>
<stop offset="0.984375" stop-color="#A00BFB"/>
</linearGradient>
<linearGradient id="paint1_linear_265_748" x1="7.25707" y1="9.23633" x2="29.8831" y2="13.252" gradientUnits="userSpaceOnUse">
<stop stop-color="#FC365F"/>
<stop offset="0.984375" stop-color="#A00BFB"/>
</linearGradient>
</defs>
</svg>
