<svg width="48" height="48" viewBox="0 0 48 48" fill="none" xmlns="http://www.w3.org/2000/svg">
<path d="M39.467 31.4599V16.5409C39.486 16.2198 39.4553 15.8977 39.376 15.5859C39.3266 15.4608 39.2581 15.3441 39.173 15.2399C38.94 15.0182 38.6742 14.8337 38.385 14.6929L25.05 7.19194C24.7801 7.01696 24.485 6.88442 24.175 6.79894C24.0592 6.78268 23.9418 6.78268 23.826 6.79894C23.5159 6.88442 23.2208 7.01696 22.951 7.19194L9.61499 14.6919C9.32573 14.8331 9.05995 15.0179 8.82699 15.2399C8.74188 15.3441 8.6734 15.4608 8.62399 15.5859C8.54497 15.8977 8.51461 16.2199 8.53399 16.5409V31.4599C8.51463 31.781 8.54499 32.1031 8.62399 32.4149C8.6734 32.5401 8.74188 32.6568 8.82699 32.7609C9.06002 32.9826 9.3258 33.1671 9.61499 33.3079L22.95 40.8099C23.2198 40.9849 23.5149 41.1175 23.825 41.2029C23.9408 41.2192 24.0582 41.2192 24.174 41.2029C24.484 41.1175 24.7791 40.9849 25.049 40.8099L38.385 33.3099C38.6746 33.1689 38.9407 32.9841 39.174 32.7619C39.2587 32.6577 39.3269 32.541 39.376 32.4159C39.4553 32.1042 39.486 31.7821 39.467 31.4609V31.4599Z" stroke="url(#paint0_linear_265_744)" stroke-linecap="round" stroke-linejoin="round"/>
<path d="M39.289 15.396L24.145 24M24.145 24L8.70999 15.396M24.145 24L24 41.207" stroke="url(#paint1_linear_265_744)" stroke-linecap="round" stroke-linejoin="round"/>
<defs>
<linearGradient id="paint0_linear_265_744" x1="5.34784" y1="3.96119" x2="43.3486" y2="9.18963" gradientUnits="userSpaceOnUse">
<stop stop-color="#FC365F"/>
<stop offset="0.984375" stop-color="#A00BFB"/>
</linearGradient>
<linearGradient id="paint1_linear_265_744" x1="5.56704" y1="13.2777" x2="42.6118" y2="19.996" gradientUnits="userSpaceOnUse">
<stop stop-color="#FC365F"/>
<stop offset="0.984375" stop-color="#A00BFB"/>
</linearGradient>
</defs>
</svg>
