<svg width="39" height="39" viewBox="0 0 39 39" fill="none" xmlns="http://www.w3.org/2000/svg">
<path d="M36.5625 4.16203L34.838 2.4375L21.0758 16.2008C20.9594 16.3133 20.8666 16.4478 20.8027 16.5964C20.7388 16.7451 20.7052 16.9051 20.7038 17.0669C20.7024 17.2287 20.7333 17.3892 20.7945 17.539C20.8558 17.6888 20.9463 17.8248 21.0607 17.9393C21.1752 18.0537 21.3112 18.1442 21.461 18.2055C21.6108 18.2667 21.7713 18.2976 21.9331 18.2962C22.0949 18.2948 22.2549 18.2612 22.4036 18.1973C22.5522 18.1334 22.6867 18.0406 22.7992 17.9242L27.0099 13.7134C27.6213 14.6293 27.9721 15.6942 28.0248 16.7941C28.0775 17.8941 27.83 18.9877 27.3089 19.9578C26.7878 20.9279 26.0126 21.738 25.0665 22.3014C24.1203 22.8648 23.0387 23.1603 21.9375 23.1562C21.6899 23.1509 21.4429 23.1305 21.1977 23.0953C20.203 20.7009 18.3003 18.7982 15.9059 17.8035C15.7804 16.945 15.8434 16.0695 16.0906 15.2379C16.3378 14.4062 16.7632 13.6384 17.3373 12.9879C17.9114 12.3374 18.6203 11.8198 19.4147 11.4711C20.2092 11.1224 21.0701 10.9509 21.9375 10.9688V8.53125C19.6757 8.53383 17.5072 9.43349 15.9078 11.0328C14.3085 12.6322 13.4088 14.8007 13.4063 17.0625C13.4063 17.0905 13.4136 17.1198 13.4136 17.1478C13.0071 17.0938 12.5976 17.0653 12.1875 17.0625C11.3697 17.0655 10.5556 17.1719 9.76463 17.3794C9.76097 17.2733 9.75 17.1697 9.75 17.0625C9.75355 13.8313 11.0387 10.7334 13.3236 8.44856C15.6084 6.16372 18.7063 4.87855 21.9375 4.875V2.4375C18.0601 2.44202 14.3428 3.98431 11.6011 6.72605C8.85931 9.46779 7.31702 13.1851 7.3125 17.0625C7.3125 17.4952 7.33322 17.9229 7.36978 18.3471C6.06532 19.0881 4.94962 20.1203 4.10963 21.3634C3.26964 22.6064 2.72806 24.0266 2.52711 25.5133C2.32615 27.0001 2.47126 28.5131 2.95111 29.9345C3.43095 31.356 4.23258 32.6474 5.29351 33.7081C6.35443 34.7688 7.64599 35.5702 9.06751 36.0498C10.489 36.5294 12.0021 36.6742 13.4888 36.473C14.9755 36.2718 16.3956 35.7299 17.6385 34.8897C18.8813 34.0495 19.9134 32.9336 20.6542 31.629C21.0807 31.6656 21.5085 31.6875 21.9375 31.6875C24.7266 31.6913 27.4584 30.8964 29.8101 29.3969C32.1618 27.8975 34.0351 25.756 35.2084 23.2258C36.3818 20.6955 36.8062 17.8822 36.4315 15.1184C36.0568 12.3546 34.8986 9.75588 33.0939 7.62938L36.5625 4.16203ZM19.3903 25.5938H17.0089C16.8506 23.7562 16.347 21.965 15.5244 20.3141C16.534 20.8342 17.4088 21.582 18.0797 22.4982C18.7507 23.4145 19.1993 24.4743 19.3903 25.5938ZM4.98469 28.0312H7.36613C7.52451 29.8688 8.02813 31.66 8.85056 33.3109C7.841 32.7908 6.9662 32.043 6.29528 31.1268C5.62435 30.2105 5.17567 29.1507 4.98469 28.0312ZM7.36491 25.5938H4.98469C5.17554 24.4744 5.62403 23.4147 6.29474 22.4984C6.96545 21.5822 7.84001 20.8344 8.84935 20.3141C8.02691 21.965 7.52329 23.7562 7.36491 25.5938ZM12.1875 34.1079C10.8607 32.3349 10.0413 30.2343 9.81703 28.0312H14.558C14.3337 30.2343 13.5143 32.3349 12.1875 34.1079ZM9.81703 25.5938C10.0414 23.391 10.8608 21.2909 12.1875 19.5183C13.5143 21.2908 14.3338 23.391 14.558 25.5938H9.81703ZM15.5244 33.3109C16.3473 31.6601 16.8513 29.8689 17.0101 28.0312H19.3903C19.1993 29.1507 18.7507 30.2105 18.0797 31.1268C17.4088 32.043 16.534 32.7908 15.5244 33.3109ZM34.125 17.0625C34.1215 20.2937 32.8363 23.3916 30.5514 25.6764C28.2666 27.9613 25.1687 29.2465 21.9375 29.25C21.8315 29.25 21.7267 29.2378 21.6206 29.2354C21.941 28.0468 22.0198 26.806 21.8522 25.5864C21.8814 25.5864 21.9095 25.5938 21.9375 25.5938C23.5205 25.5934 25.0722 25.1525 26.419 24.3206C27.7657 23.4886 28.8545 22.2984 29.5634 20.883C30.2723 19.4676 30.5734 17.8828 30.433 16.3061C30.2927 14.7293 29.7164 13.2227 28.7686 11.9547L31.367 9.35634C33.1516 11.5278 34.1265 14.2518 34.125 17.0625Z" fill="url(#paint0_linear_265_727)"/>
<defs>
<linearGradient id="paint0_linear_265_727" x1="-1.06806" y1="-0.36303" x2="40.654" y2="6.02399" gradientUnits="userSpaceOnUse">
<stop stopColor="#FC365F"/>
<stop offset="0.984375" stopColor="#A00BFB"/>
</linearGradient>
</defs>
</svg>
