<svg width="38" height="38" viewBox="0 0 38 38" fill="none" xmlns="http://www.w3.org/2000/svg">
<path d="M12.6667 4.75C9.72719 4.75 6.9081 5.91771 4.82957 7.99623C2.75104 10.0748 1.58334 12.8939 1.58334 15.8333C1.58334 18.7728 2.75104 21.5919 4.82957 23.6704C6.9081 25.749 9.72719 26.9167 12.6667 26.9167H14.3608C14.2106 25.8665 14.2106 24.8002 14.3608 23.75H12.6667C10.567 23.75 8.5534 22.9159 7.06874 21.4313C5.58408 19.9466 4.75 17.933 4.75 15.8333C4.75 13.7337 5.58408 11.7201 7.06874 10.2354C8.5534 8.75074 10.567 7.91667 12.6667 7.91667H25.3333C26.5074 7.91643 27.6668 8.17733 28.7276 8.68048C29.7884 9.18362 30.724 9.91641 31.4667 10.8258C32.2093 11.7351 32.7404 12.7983 33.0214 13.9382C33.3025 15.0781 33.3265 16.2663 33.0917 17.4167C34.0245 18.3313 34.7888 19.4033 35.3495 20.5833C36.1509 18.8938 36.5118 17.029 36.3986 15.1625C36.2854 13.2959 35.7018 11.4884 34.7021 9.90808C33.7024 8.32778 32.3192 7.0261 30.6811 6.12423C29.043 5.22236 27.2033 4.74961 25.3333 4.75H12.6667ZM17.4167 25.3333C17.417 24.099 17.7059 22.8818 18.2604 21.779C18.8148 20.6762 19.6195 19.7183 20.6101 18.9819C21.6007 18.2455 22.7498 17.7509 23.9656 17.5376C25.1814 17.3244 26.4302 17.3984 27.6123 17.7537C28.7944 18.109 29.877 18.7358 30.7737 19.5841C31.6704 20.4323 32.3564 21.4785 32.7767 22.6391C33.1971 23.7996 33.3403 25.0424 33.1948 26.2681C33.0494 27.4939 32.6193 28.6686 31.939 29.6986L35.9528 33.7139L33.7139 35.9528L29.6986 31.939C28.5053 32.7277 27.1207 33.1784 25.6918 33.2431C24.2629 33.3079 22.8431 32.9843 21.5834 32.3068C20.3237 31.6293 19.2711 30.6231 18.5374 29.3953C17.8037 28.1674 17.4164 26.7637 17.4167 25.3333Z" fill="url(#paint0_linear_265_742)"/>
<defs>
<linearGradient id="paint0_linear_265_742" x1="-1.99711" y1="2.18918" x2="40.3553" y2="9.42733" gradientUnits="userSpaceOnUse">
<stop stopColor="#FC365F"/>
<stop offset="0.984375" stopColor="#A00BFB"/>
</linearGradient>
</defs>
</svg>
