<svg width="38" height="38" viewBox="0 0 38 38" fill="none" xmlns="http://www.w3.org/2000/svg">
<g clip-path="url(#clip0_265_729)">
<path d="M7.91666 21.375H30.0833M19 21.375V38M10.2917 17.4166V10.2916H8.43599C7.38154 10.2916 6.35707 10.6425 5.52401 11.2889C4.69096 11.9354 4.09668 12.8406 3.83482 13.862L0.791656 25.7291V26.125H11.875V28.5C11.875 30.875 11.875 32.4583 13.0625 34.8333C13.0625 34.8333 14.25 37.2083 15.8333 37.2083M27.7083 17.4166V10.2916H29.564C30.6184 10.2916 31.6429 10.6425 32.476 11.2889C33.309 11.9354 33.9033 12.8406 34.1652 13.862L37.2083 25.7291V26.125H26.125V28.5C26.125 30.875 26.125 32.4583 24.9375 34.8333C24.9375 34.8333 23.75 37.2083 22.1667 37.2083M10.0542 7.12496C10.0542 7.12496 7.52082 5.54163 7.52082 3.56246C7.52082 2.82843 7.81242 2.12446 8.33145 1.60542C8.85049 1.08639 9.55446 0.794793 10.2885 0.794793C11.0225 0.794793 11.7265 1.08639 12.2455 1.60542C12.7646 2.12446 13.0562 2.82843 13.0562 3.56246C13.0562 5.54163 10.5292 7.12496 10.5292 7.12496H10.0542ZM27.9458 7.12496C27.9458 7.12496 30.4792 5.54163 30.4792 3.56246C30.4792 2.82759 30.1872 2.12282 29.6676 1.60318C29.148 1.08355 28.4432 0.791626 27.7083 0.791626C26.1788 0.791626 24.9438 2.03296 24.9438 3.56246C24.9438 5.54163 27.4708 7.12496 27.4708 7.12496H27.9458Z" stroke="url(#paint0_linear_265_729)"/>
</g>
<defs>
<linearGradient id="paint0_linear_265_729" x1="-2.9513" y1="-2.26207" x2="41.6161" y2="4.41515" gradientUnits="userSpaceOnUse">
<stop stop-color="#FC365F"/>
<stop offset="0.984375" stop-color="#A00BFB"/>
</linearGradient>
<clipPath id="clip0_265_729">
<rect width="38" height="38" fill="white"/>
</clipPath>
</defs>
</svg>
