<svg width="38" height="38" viewBox="0 0 38 38" fill="none" xmlns="http://www.w3.org/2000/svg">
<path d="M16.6628 37.9095C13.2739 37.4696 9.78535 36.0143 7.2443 33.9776C1.5234 29.4073 -1.07345 22.1869 0.410802 15.0164C1.04725 11.9204 2.70486 8.66265 4.82675 6.31567C6.38984 4.55425 8.27484 3.1083 10.3802 2.05568C13.1754 0.637274 15.847 0 19.0008 0C21.264 0 23.0831 0.297236 25.167 1.00941C27.9046 1.94968 30.3918 3.50337 32.4388 5.55205C34.4859 7.60073 36.0388 10.0903 36.9792 12.8311C38.093 16.1007 38.2961 19.5807 37.5848 23.0298C37.0161 25.7549 35.5496 28.82 33.7448 31.0362C33.0026 31.9529 31.2951 33.5877 30.3987 34.2499C27.7167 36.2444 24.5625 37.5055 21.2462 37.9095C20.2689 38.0331 17.608 38.0272 16.6628 37.9095ZM21.8399 36.3187C26.4687 35.5419 30.5998 32.9557 33.3244 29.1291C36.534 24.6147 37.3936 18.5582 35.5817 13.2769C35.1554 12.0381 34.0974 9.97048 33.3244 8.88022C32.4647 7.66037 30.3369 5.52383 29.1127 4.66304C27.9253 3.82127 25.9031 2.79877 24.5234 2.34698C22.0328 1.51845 19.3881 1.26084 16.7847 1.59319C14.1814 1.92555 11.6859 2.83936 9.48256 4.26712C7.40956 5.63063 5.63754 7.40495 4.2758 9.48064C2.85025 11.6856 1.9378 14.1832 1.60588 16.7887C1.27395 19.3943 1.53104 22.0412 2.35814 24.5339C2.81529 25.9142 3.83646 27.9461 4.6712 29.1351C5.53682 30.3549 7.66465 32.4915 8.88292 33.3523C9.97771 34.1203 12.0367 35.1785 13.2739 35.6124C16.0279 36.5493 18.97 36.7918 21.8399 36.3187ZM15.2593 29.94C14.3715 29.806 13.5198 29.4942 12.755 29.0233C12.0687 28.5834 6.88571 23.4995 6.63279 23.0227C6.34188 22.4782 6.8489 21.4866 7.57322 21.1834L7.91281 21.0407L6.8679 19.9754C6.2932 19.3869 5.74818 18.7615 5.6615 18.588C5.45726 18.192 5.45133 17.3431 5.6425 16.965C5.72324 16.8105 5.91441 16.5751 6.06284 16.4443C6.31694 16.2338 6.34069 16.1589 6.31694 15.6263C6.28607 15.1555 6.32882 14.97 6.53305 14.6169C6.8299 14.1092 7.4426 13.768 8.04224 13.762C8.3759 13.762 8.46258 13.7192 8.60507 13.4707C8.97672 12.8204 10.0394 12.585 10.8504 12.9821L11.2898 13.1925L11.5059 12.9821C11.8027 12.7098 12.3964 12.4685 12.7859 12.4685C13.5648 12.4685 14.6656 13.3661 14.6656 13.9974C14.6656 14.7524 13.9793 14.8832 13.2989 14.2578C12.8477 13.8369 12.6185 13.7929 12.4333 14.0902C12.3406 14.2328 12.5627 14.4992 13.8926 15.8427C15.2225 17.1802 15.4635 17.4656 15.4635 17.7188C15.453 17.9129 15.3705 18.0961 15.2321 18.2325C15.0937 18.3689 14.9095 18.4486 14.7154 18.456C14.4744 18.456 14.079 18.1088 12.254 16.2885C10.3921 14.4302 10.0525 14.133 9.90409 14.2269C9.50156 14.4813 9.63811 14.6668 11.8146 16.8521C12.9961 18.041 13.9674 19.0933 13.9674 19.1931C13.9674 19.3976 13.7821 19.7757 13.6278 19.8744C13.5012 19.9301 13.3634 19.9557 13.2253 19.9493C12.9711 19.9552 12.5817 19.6021 10.5108 17.5345C8.4329 15.4658 8.06124 15.1317 7.91281 15.2244C7.50435 15.4848 7.6409 15.6643 10.0098 18.0482C11.3028 19.3429 12.3846 20.501 12.4154 20.6246C12.4831 20.8481 12.3347 21.2381 12.1376 21.3736C12.0068 21.4293 11.8652 21.4549 11.7232 21.4485C11.4691 21.4485 11.1485 21.1703 9.43506 19.4547C7.78339 17.8009 7.39985 17.4608 7.18968 17.4799C6.59598 17.5476 6.80615 17.8139 9.87321 20.8921C12.533 23.5613 12.8726 23.9394 12.8726 24.2176C12.8753 24.3197 12.8523 24.4209 12.8059 24.5119C12.7594 24.6029 12.6909 24.6807 12.6066 24.7384C12.1305 25.1164 11.9452 25.0296 10.7448 23.8657C10.1321 23.2771 9.50156 22.7076 9.33413 22.6018C9.03135 22.4163 8.26428 22.3355 8.12179 22.4841C8.07192 22.5269 9.20352 23.723 10.6332 25.1402C13.0139 27.4991 13.2858 27.7416 13.9852 28.0757C14.6295 28.397 15.339 28.5652 16.0588 28.5672C16.7785 28.5693 17.4891 28.4052 18.1352 28.0876C20.1324 27.1341 21.2402 24.818 20.6952 22.7183C20.4233 21.6721 20.0825 21.1703 18.7099 19.7519C17.1271 18.129 16.7613 17.6832 16.3719 16.9032C15.9385 16.0305 15.7532 15.1816 15.7532 14.1223C15.7532 12.9761 15.8708 12.4566 16.3778 11.3853C16.8599 10.364 17.868 9.29279 18.8642 8.74112C20.8187 7.65085 23.3918 7.74359 25.2584 8.96464C25.63 9.20599 26.9718 10.4698 28.6413 12.1474C31.1218 14.6371 31.4056 14.9593 31.4056 15.2435C31.4056 15.9188 30.8546 16.6678 30.2431 16.8224C30.0139 16.8842 30.0579 16.946 31.0968 18.0054C31.7024 18.6189 32.2653 19.2811 32.3519 19.4856C32.6428 20.1859 32.5122 20.866 31.9803 21.4236C31.7084 21.7089 31.6716 21.8076 31.6644 22.3771C31.6585 22.8788 31.6027 23.0893 31.4044 23.3746C31.2478 23.6068 31.0381 23.7981 30.7927 23.9327C30.5473 24.0674 30.2734 24.1414 29.9938 24.1486C29.6102 24.1486 29.5366 24.1855 29.3442 24.4768C28.9108 25.1462 27.7852 25.3804 27.0561 24.9476L26.6916 24.7312L26.4315 24.9857C25.8568 25.5373 24.9283 25.611 24.2242 25.1592C23.6554 24.8002 23.2351 24.2984 23.2351 23.9822C23.2351 23.704 23.6376 23.245 23.8846 23.245C24.1197 23.245 24.4355 23.4305 24.7941 23.7658C25.1527 24.1058 25.4626 24.1058 25.5113 23.7599C25.5362 23.5744 25.2394 23.2213 24.0389 22.0133C22.7767 20.7376 22.5357 20.4463 22.5357 20.199C22.5328 20.0609 22.5583 19.9237 22.6105 19.7959C22.747 19.5914 23.1306 19.4487 23.3645 19.5106C23.488 19.5415 24.5329 20.5081 25.6775 21.653C26.8281 22.8051 27.8362 23.7456 27.9289 23.7456C28.183 23.7456 28.3492 23.4912 28.2316 23.2748C28.1758 23.1761 27.2045 22.1786 26.0789 21.0514C24.3168 19.293 24.0318 18.9648 24.0318 18.7045C24.026 18.5643 24.0516 18.4245 24.1066 18.2955C24.2123 18.1409 24.5828 17.9554 24.7929 17.9554C24.8855 17.9554 26.048 19.0386 27.3779 20.3642C29.8145 22.7921 29.9938 22.9276 30.2479 22.5257C30.3405 22.3771 30.0068 21.999 27.9407 19.9243C25.807 17.7818 25.5232 17.4596 25.5232 17.1814C25.5232 16.99 25.6099 16.7915 25.7464 16.6678C26.1976 16.241 26.3342 16.3278 28.5297 18.513C30.6076 20.5878 30.7929 20.7233 31.047 20.3274C31.1396 20.1788 30.7193 19.721 28.1402 17.1315C25.332 14.3078 25.129 14.0783 25.129 13.7501C25.129 13.2543 25.4139 13.0189 25.9637 13.057C26.0623 13.0629 26.656 13.5647 27.2687 14.1651C27.8873 14.7655 28.5546 15.3291 28.7529 15.4158C29.1424 15.5764 29.5936 15.6013 29.786 15.4777C29.9712 15.36 24.838 10.301 24.1707 9.94789C23.5986 9.63868 22.9692 9.44998 22.3215 9.39341C21.6738 9.33685 21.0213 9.41362 20.4043 9.61899C19.7873 9.82437 19.2188 10.154 18.7338 10.5876C18.2489 11.0212 17.8576 11.5496 17.5842 12.1403C17.2624 12.8275 17.2197 13.032 17.1757 13.9178C17.1389 14.7536 17.1698 15.014 17.3491 15.5466C17.6709 16.4942 17.9487 16.8842 19.3902 18.3585C20.9493 19.9564 21.2462 20.3214 21.6416 21.1763C22.7553 23.5542 22.2851 26.3042 20.4482 28.1364C19.0506 29.5417 17.1461 30.1992 15.2593 29.94Z" fill="url(#paint0_linear_265_726)"/>
<defs>
<linearGradient id="paint0_linear_265_726" x1="-3.90569" y1="-3.11867" x2="42.5546" y2="3.99347" gradientUnits="userSpaceOnUse">
<stop stopColor="#FC365F"/>
<stop offset="0.984375" stopColor="#A00BFB"/>
</linearGradient>
</defs>
</svg>
