<svg width="39" height="39" viewBox="0 0 39 39" fill="none" xmlns="http://www.w3.org/2000/svg">
<g clipPath="url(#clip0_265_751)">
<path d="M34.7344 5.1188C34.3153 4.8477 33.8361 4.6837 33.3388 4.6412C32.8416 4.59869 32.3415 4.679 31.8825 4.87505L16.8431 10.7982C16.4871 10.9431 16.1063 11.0176 15.7219 11.0175H6.09375C5.28567 11.0175 4.51068 11.3386 3.93928 11.91C3.36788 12.4814 3.04688 13.2563 3.04688 14.0644V14.3082H0V21.6207H3.04688V21.9375C3.06597 22.7329 3.39539 23.4892 3.96473 24.0449C4.53407 24.6006 5.29818 24.9115 6.09375 24.9113L9.75 32.6625C9.99758 33.1845 10.3874 33.6261 10.8746 33.9365C11.3618 34.247 11.9267 34.4137 12.5044 34.4175H14.04C14.8439 34.4111 15.6126 34.0873 16.1787 33.5166C16.7449 32.9459 17.0625 32.1746 17.0625 31.3707V25.2038L31.8825 31.1269C32.247 31.272 32.6358 31.3464 33.0281 31.3463C33.6368 31.3365 34.2295 31.1502 34.7344 30.8101C35.1353 30.5394 35.466 30.1771 35.6991 29.7532C35.9322 29.3294 36.0611 28.8561 36.075 28.3726V7.62942C36.0728 7.13343 35.9495 6.64548 35.7159 6.20796C35.4822 5.77043 35.1453 5.39655 34.7344 5.1188ZM14.0156 14.0644V21.9375H6.09375V14.0644H14.0156ZM14.0156 31.3707H12.48L9.48188 24.9113H14.0156V31.3707ZM17.9644 22.3032C17.675 22.1553 17.3732 22.0329 17.0625 21.9375V13.8938C17.3702 13.8303 17.6719 13.7406 17.9644 13.6257L33.0281 7.62942V28.2994L17.9644 22.3032ZM36.1481 14.9175V21.0113C36.9562 21.0113 37.7312 20.6903 38.3026 20.1189C38.874 19.5475 39.195 18.7725 39.195 17.9644C39.195 17.1563 38.874 16.3814 38.3026 15.81C37.7312 15.2386 36.9562 14.9175 36.1481 14.9175Z" fill="url(#paint0_linear_265_751)"/>
</g>
<defs>
<linearGradient id="paint0_linear_265_751" x1="-4.02851" y1="2.18546" x2="43.1035" y2="11.6791" gradientUnits="userSpaceOnUse">
<stop stop-color="#FC365F"/>
<stop offset="0.984375" stop-color="#A00BFB"/>
</linearGradient>
<clipPath id="clip0_265_751">
<rect width="39" height="39" fill="white"/>
</clipPath>
</defs>
</svg>
