<svg width="178" height="109" viewBox="0 0 178 109" fill="none" xmlns="http://www.w3.org/2000/svg">
<g clipPath="url(#clip0_272_516)">
<path d="M174.23 108.303C175.967 108.303 177.375 106.895 177.375 105.158C177.375 103.421 175.967 102.012 174.23 102.012C172.493 102.012 171.085 103.421 171.085 105.158C171.085 106.895 172.493 108.303 174.23 108.303Z" fill="url(#paint0_linear_272_516)"/>
<path d="M145.71 108.303C147.447 108.303 148.855 106.895 148.855 105.158C148.855 103.421 147.447 102.012 145.71 102.012C143.973 102.012 142.565 103.421 142.565 105.158C142.565 106.895 143.973 108.303 145.71 108.303Z" fill="url(#paint1_linear_272_516)"/>
<path d="M117.202 108.303C117.827 108.305 118.438 108.122 118.959 107.777C119.48 107.431 119.886 106.939 120.127 106.362C120.368 105.785 120.432 105.15 120.312 104.537C120.191 103.924 119.891 103.36 119.45 102.918C119.009 102.475 118.447 102.173 117.834 102.05C117.221 101.928 116.586 101.989 116.008 102.228C115.431 102.467 114.937 102.871 114.59 103.391C114.242 103.91 114.057 104.521 114.057 105.146C114.057 105.981 114.388 106.782 114.977 107.374C115.567 107.966 116.367 108.3 117.202 108.303Z" fill="url(#paint2_linear_272_516)"/>
<path d="M88.6936 108.303C89.318 108.303 89.9284 108.118 90.4476 107.771C90.9668 107.424 91.3713 106.931 91.6103 106.354C91.8492 105.777 91.9117 105.142 91.7899 104.53C91.6681 103.917 91.3674 103.355 90.9259 102.913C90.4844 102.472 89.9219 102.171 89.3095 102.049C88.6971 101.928 88.0623 101.99 87.4854 102.229C86.9086 102.468 86.4156 102.873 86.0687 103.392C85.7218 103.911 85.5366 104.521 85.5366 105.146C85.5366 105.56 85.6182 105.971 85.7769 106.354C85.9355 106.737 86.1681 107.085 86.4612 107.378C86.7544 107.671 87.1024 107.904 87.4854 108.063C87.8685 108.221 88.2791 108.303 88.6936 108.303Z" fill="url(#paint3_linear_272_516)"/>
<path d="M60.1735 108.303C61.9104 108.303 63.3185 106.895 63.3185 105.158C63.3185 103.421 61.9104 102.012 60.1735 102.012C58.4365 102.012 57.0284 103.421 57.0284 105.158C57.0284 106.895 58.4365 108.303 60.1735 108.303Z" fill="url(#paint4_linear_272_516)"/>
<path d="M32.8688 107.928C34.4753 107.268 35.2422 105.43 34.5817 103.823C33.9212 102.217 32.0834 101.45 30.4769 102.11C28.8705 102.771 28.1035 104.609 28.7641 106.215C29.4246 107.822 31.2624 108.589 32.8688 107.928Z" fill="url(#paint5_linear_272_516)"/>
<path d="M3.157 102.048C2.5316 102.046 1.91966 102.229 1.39867 102.575C0.877685 102.921 0.471187 103.414 0.230766 103.992C-0.00965415 104.569 -0.0731746 105.205 0.0482586 105.818C0.169692 106.432 0.470578 106.995 0.912807 107.438C1.35504 107.88 1.91861 108.181 2.53211 108.302C3.14561 108.424 3.78144 108.36 4.35879 108.12C4.93614 107.879 5.42909 107.473 5.77508 106.952C6.12106 106.431 6.30445 105.819 6.30209 105.193C6.29896 104.36 5.96662 103.562 5.37749 102.973C4.78835 102.384 3.99016 102.052 3.157 102.048Z" fill="url(#paint6_linear_272_516)"/>
<path d="M174.23 82.7965C175.967 82.7965 177.375 81.3884 177.375 79.6514C177.375 77.9144 175.967 76.5063 174.23 76.5063C172.493 76.5063 171.085 77.9144 171.085 79.6514C171.085 81.3884 172.493 82.7965 174.23 82.7965Z" fill="url(#paint7_linear_272_516)"/>
<path d="M145.71 82.7965C147.447 82.7965 148.855 81.3884 148.855 79.6514C148.855 77.9144 147.447 76.5063 145.71 76.5063C143.973 76.5063 142.565 77.9144 142.565 79.6514C142.565 81.3884 143.973 82.7965 145.71 82.7965Z" fill="url(#paint8_linear_272_516)"/>
<path d="M117.202 82.7967C117.827 82.799 118.439 82.6156 118.96 82.2696C119.481 81.9236 119.888 81.4306 120.128 80.8533C120.369 80.2759 120.432 79.6402 120.311 79.0267C120.189 78.4132 119.888 77.8495 119.446 77.4073C119.004 76.9651 118.44 76.6642 117.827 76.5428C117.213 76.4213 116.578 76.4848 116 76.7253C115.423 76.9657 114.93 77.3722 114.584 77.8932C114.238 78.4141 114.054 79.0262 114.057 79.6516C114.06 80.4847 114.392 81.2828 114.981 81.872C115.571 82.4611 116.369 82.7935 117.202 82.7967Z" fill="url(#paint9_linear_272_516)"/>
<path d="M88.6937 82.7967C89.3186 82.7967 89.9294 82.6112 90.4488 82.2638C90.9682 81.9163 91.3729 81.4225 91.6115 80.845C91.85 80.2674 91.9118 79.6321 91.789 79.0193C91.6662 78.4066 91.3644 77.8441 90.9217 77.4031C90.479 76.962 89.9153 76.6623 89.3021 76.5419C88.6889 76.4214 88.0538 76.4856 87.4772 76.7264C86.9005 76.9672 86.4084 77.3737 86.0629 77.8944C85.7175 78.4151 85.5343 79.0267 85.5366 79.6516C85.5366 80.0656 85.6184 80.4755 85.7772 80.8579C85.936 81.2402 86.1687 81.5875 86.462 81.8797C86.7553 82.1719 87.1034 82.4033 87.4863 82.5606C87.8693 82.718 88.2796 82.7982 88.6937 82.7967Z" fill="url(#paint10_linear_272_516)"/>
<path d="M60.1735 82.7965C61.9104 82.7965 63.3185 81.3884 63.3185 79.6514C63.3185 77.9144 61.9104 76.5063 60.1735 76.5063C58.4365 76.5063 57.0284 77.9144 57.0284 79.6514C57.0284 81.3884 58.4365 82.7965 60.1735 82.7965Z" fill="url(#paint11_linear_272_516)"/>
<path d="M32.8717 82.431C34.4782 81.7705 35.2451 79.9327 34.5845 78.3262C33.924 76.7197 32.0862 75.9529 30.4798 76.6134C28.8733 77.2739 28.1064 79.1117 28.7669 80.7182C29.4274 82.3247 31.2652 83.0915 32.8717 82.431Z" fill="url(#paint12_linear_272_516)"/>
<path d="M3.157 82.7967C3.7819 82.7967 4.39271 82.6112 4.91213 82.2638C5.43155 81.9163 5.8362 81.4225 6.0748 80.845C6.31339 80.2674 6.37529 79.6321 6.2525 79.0193C6.12972 78.4066 5.82775 77.8441 5.38505 77.4031C4.94234 76.962 4.37878 76.6623 3.7656 76.5419C3.15242 76.4214 2.51732 76.4856 1.94067 76.7264C1.36401 76.9672 0.871726 77.3737 0.526268 77.8944C0.18081 78.4151 -0.00238141 79.0267 -2.32938e-05 79.6516C-2.6264e-05 80.0656 0.0817094 80.4755 0.240509 80.8579C0.399308 81.2402 0.632148 81.5875 0.925458 81.8797C1.21877 82.1719 1.56687 82.4033 1.94983 82.5606C2.33278 82.718 2.74298 82.7982 3.157 82.7967Z" fill="url(#paint13_linear_272_516)"/>
<path d="M174.23 57.2904C175.967 57.2904 177.375 55.8823 177.375 54.1453C177.375 52.4083 175.967 51.0002 174.23 51.0002C172.493 51.0002 171.085 52.4083 171.085 54.1453C171.085 55.8823 172.493 57.2904 174.23 57.2904Z" fill="url(#paint14_linear_272_516)"/>
<path d="M145.71 57.2904C147.447 57.2904 148.855 55.8823 148.855 54.1453C148.855 52.4083 147.447 51.0002 145.71 51.0002C143.973 51.0002 142.565 52.4083 142.565 54.1453C142.565 55.8823 143.973 57.2904 145.71 57.2904Z" fill="url(#paint15_linear_272_516)"/>
<path d="M117.202 57.3025C117.827 57.3049 118.438 57.1218 118.959 56.7763C119.48 56.4308 119.886 55.9386 120.127 55.3619C120.368 54.7852 120.432 54.1501 120.312 53.537C120.191 52.9238 119.891 52.3602 119.45 51.9174C119.009 51.4747 118.447 51.1728 117.834 51.0501C117.221 50.9273 116.586 50.9891 116.008 51.2277C115.431 51.4663 114.937 51.8709 114.59 52.3904C114.242 52.9098 114.057 53.5206 114.057 54.1455C114.057 54.9807 114.388 55.7819 114.977 56.3736C115.567 56.9653 116.367 57.2994 117.202 57.3025Z" fill="url(#paint16_linear_272_516)"/>
<path d="M88.6936 57.3025C89.318 57.3025 89.9284 57.1174 90.4476 56.7705C90.9668 56.4236 91.3713 55.9305 91.6103 55.3537C91.8492 54.7768 91.9117 54.142 91.7899 53.5296C91.6681 52.9172 91.3674 52.3547 90.9259 51.9131C90.4844 51.4716 89.9219 51.171 89.3095 51.0492C88.6971 50.9274 88.0623 50.9899 87.4854 51.2289C86.9086 51.4678 86.4156 51.8724 86.0687 52.3916C85.7218 52.9108 85.5366 53.5211 85.5366 54.1455C85.5366 54.5601 85.6182 54.9707 85.7769 55.3537C85.9355 55.7367 86.1681 56.0847 86.4612 56.3778C86.7544 56.671 87.1024 56.9035 87.4854 57.0622C87.8685 57.2208 88.2791 57.3025 88.6936 57.3025Z" fill="url(#paint17_linear_272_516)"/>
<path d="M60.1735 57.2904C61.9104 57.2904 63.3185 55.8823 63.3185 54.1453C63.3185 52.4083 61.9104 51.0002 60.1735 51.0002C58.4365 51.0002 57.0284 52.4083 57.0284 54.1453C57.0284 55.8823 58.4365 57.2904 60.1735 57.2904Z" fill="url(#paint18_linear_272_516)"/>
<path d="M32.8699 56.9349C34.4764 56.2744 35.2433 54.4366 34.5828 52.8301C33.9223 51.2236 32.0845 50.4568 30.478 51.1173C28.8716 51.7778 28.1046 53.6155 28.7652 55.222C29.4257 56.8285 31.2635 57.5954 32.8699 56.9349Z" fill="url(#paint19_linear_272_516)"/>
<path d="M3.15698 57.3025C3.78137 57.3025 4.39178 57.1174 4.91094 56.7705C5.4301 56.4236 5.83466 55.9305 6.07361 55.3537C6.31255 54.7768 6.37517 54.142 6.25335 53.5296C6.13154 52.9172 5.8309 52.3547 5.38939 51.9131C4.94787 51.4716 4.38524 51.171 3.77285 51.0492C3.16045 50.9274 2.5258 50.9899 1.94893 51.2289C1.37207 51.4678 0.878957 51.8724 0.532063 52.3916C0.185168 52.9108 -4.57764e-05 53.5211 -4.57764e-05 54.1455C-4.57764e-05 54.9828 0.332658 55.7858 0.924709 56.3778C1.51676 56.9699 2.31969 57.3025 3.15698 57.3025Z" fill="url(#paint20_linear_272_516)"/>
<path d="M174.23 31.7963C175.967 31.7963 177.375 30.3882 177.375 28.6512C177.375 26.9142 175.967 25.5061 174.23 25.5061C172.493 25.5061 171.085 26.9142 171.085 28.6512C171.085 30.3882 172.493 31.7963 174.23 31.7963Z" fill="url(#paint21_linear_272_516)"/>
<path d="M145.71 31.7963C147.447 31.7963 148.855 30.3882 148.855 28.6512C148.855 26.9142 147.447 25.5061 145.71 25.5061C143.973 25.5061 142.565 26.9142 142.565 28.6512C142.565 30.3882 143.973 31.7963 145.71 31.7963Z" fill="url(#paint22_linear_272_516)"/>
<path d="M117.202 31.7605C117.827 31.7629 118.439 31.5794 118.96 31.2334C119.481 30.8874 119.888 30.3945 120.128 29.8171C120.369 29.2398 120.432 28.604 120.311 27.9905C120.189 27.377 119.888 26.8135 119.446 26.3712C119.004 25.929 118.44 25.6281 117.827 25.5066C117.213 25.3852 116.578 25.4487 116 25.6891C115.423 25.9295 114.93 26.336 114.584 26.857C114.238 27.378 114.054 27.99 114.057 28.6154C114.06 29.4486 114.392 30.2468 114.981 30.8359C115.571 31.4251 116.369 31.7574 117.202 31.7605Z" fill="url(#paint23_linear_272_516)"/>
<path d="M88.6937 31.7605C89.3186 31.7605 89.9294 31.575 90.4488 31.2276C90.9682 30.8802 91.3729 30.3865 91.6115 29.8089C91.85 29.2314 91.9118 28.596 91.789 27.9833C91.6662 27.3706 91.3644 26.8081 90.9217 26.367C90.479 25.926 89.9153 25.6262 89.3021 25.5057C88.6889 25.3853 88.0538 25.4495 87.4772 25.6903C86.9005 25.9311 86.4084 26.3375 86.0629 26.8583C85.7175 27.379 85.5343 27.9905 85.5366 28.6154C85.5366 29.0295 85.6184 29.4394 85.7772 29.8218C85.936 30.2042 86.1687 30.5513 86.462 30.8436C86.7553 31.1358 87.1034 31.3672 87.4863 31.5246C87.8693 31.6819 88.2796 31.7621 88.6937 31.7605Z" fill="url(#paint24_linear_272_516)"/>
<path d="M60.1735 31.7963C61.9104 31.7963 63.3185 30.3882 63.3185 28.6512C63.3185 26.9142 61.9104 25.5061 60.1735 25.5061C58.4365 25.5061 57.0284 26.9142 57.0284 28.6512C57.0284 30.3882 58.4365 31.7963 60.1735 31.7963Z" fill="url(#paint25_linear_272_516)"/>
<path d="M32.8728 31.4379C34.4793 30.7773 35.2462 28.9396 34.5856 27.3331C33.9251 25.7266 32.0873 24.9597 30.4809 25.6202C28.8744 26.2807 28.1075 28.1185 28.768 29.725C29.4285 31.3315 31.2663 32.0984 32.8728 31.4379Z" fill="url(#paint26_linear_272_516)"/>
<path d="M3.157 31.7605C3.7819 31.7605 4.39271 31.575 4.91213 31.2276C5.43155 30.8802 5.8362 30.3865 6.0748 29.8089C6.31339 29.2314 6.37529 28.596 6.2525 27.9833C6.12972 27.3706 5.82775 26.8081 5.38505 26.367C4.94234 25.926 4.37878 25.6262 3.7656 25.5057C3.15242 25.3853 2.51732 25.4495 1.94067 25.6903C1.36401 25.9311 0.871726 26.3375 0.526268 26.8583C0.18081 27.379 -0.00238141 27.9905 -2.32938e-05 28.6154C-2.6264e-05 29.0295 0.0817094 29.4394 0.240509 29.8218C0.399308 30.2042 0.632148 30.5513 0.925458 30.8436C1.21877 31.1358 1.56687 31.3672 1.94983 31.5246C2.33278 31.6819 2.74298 31.7621 3.157 31.7605Z" fill="url(#paint27_linear_272_516)"/>
<path d="M174.23 6.29016C175.967 6.29016 177.375 4.88206 177.375 3.14508C177.375 1.4081 175.967 0 174.23 0C172.493 0 171.085 1.4081 171.085 3.14508C171.085 4.88206 172.493 6.29016 174.23 6.29016Z" fill="url(#paint28_linear_272_516)"/>
<path d="M145.71 6.29016C147.447 6.29016 148.855 4.88206 148.855 3.14508C148.855 1.4081 147.447 0 145.71 0C143.973 0 142.565 1.4081 142.565 3.14508C142.565 4.88206 143.973 6.29016 145.71 6.29016Z" fill="url(#paint29_linear_272_516)"/>
<path d="M117.202 6.30203C117.827 6.30439 118.438 6.12127 118.959 5.77581C119.48 5.43035 119.886 4.93807 120.127 4.36141C120.368 3.78476 120.432 3.14966 120.312 2.53648C120.191 1.9233 119.891 1.35967 119.45 0.916959C119.009 0.474254 118.447 0.172357 117.834 0.0495747C117.221 -0.0732072 116.586 -0.0113804 116.008 0.227211C115.431 0.465802 114.937 0.87046 114.59 1.38988C114.242 1.9093 114.057 2.52011 114.057 3.14501C114.057 3.98024 114.388 4.78142 114.977 5.37313C115.567 5.96484 116.367 6.29888 117.202 6.30203Z" fill="url(#paint30_linear_272_516)"/>
<path d="M88.6936 6.30202C89.318 6.30202 89.9284 6.11688 90.4476 5.76999C90.9668 5.42309 91.3713 4.93005 91.6103 4.35319C91.8492 3.77632 91.9117 3.14152 91.7899 2.52913C91.6681 1.91673 91.3674 1.35417 90.9259 0.912661C90.4844 0.471148 89.9219 0.170507 89.3095 0.0486938C88.6971 -0.0731194 88.0623 -0.0105794 87.4854 0.228366C86.9086 0.467311 86.4156 0.871943 86.0687 1.39111C85.7218 1.91027 85.5366 2.52061 85.5366 3.145C85.5366 3.55958 85.6182 3.97016 85.7769 4.35319C85.9355 4.73621 86.1681 5.08419 86.4612 5.37734C86.7544 5.67049 87.1024 5.90305 87.4854 6.06171C87.8685 6.22036 88.2791 6.30202 88.6936 6.30202Z" fill="url(#paint31_linear_272_516)"/>
<path d="M60.1735 6.29016C61.9104 6.29016 63.3185 4.88206 63.3185 3.14508C63.3185 1.4081 61.9104 0 60.1735 0C58.4365 0 57.0284 1.4081 57.0284 3.14508C57.0284 4.88206 58.4365 6.29016 60.1735 6.29016Z" fill="url(#paint32_linear_272_516)"/>
<path d="M32.871 5.92974C34.4775 5.26923 35.2444 3.43143 34.5839 1.82494C33.9234 0.218445 32.0856 -0.548369 30.4791 0.11214C28.8726 0.77265 28.1057 2.61038 28.7662 4.21687C29.4268 5.82336 31.2646 6.59024 32.871 5.92974Z" fill="url(#paint33_linear_272_516)"/>
<path d="M3.15698 6.30202C3.78137 6.30202 4.39178 6.11688 4.91094 5.76999C5.4301 5.42309 5.83466 4.93005 6.07361 4.35319C6.31255 3.77632 6.37517 3.14152 6.25335 2.52913C6.13154 1.91673 5.8309 1.35417 5.38939 0.912661C4.94787 0.471148 4.38524 0.170507 3.77285 0.0486938C3.16045 -0.0731194 2.5258 -0.0105794 1.94893 0.228366C1.37207 0.467311 0.878957 0.871943 0.532063 1.39111C0.185168 1.91027 -4.57764e-05 2.52061 -4.57764e-05 3.145C-4.57764e-05 3.98229 0.332658 4.78529 0.924709 5.37734C1.51676 5.96939 2.31969 6.30202 3.15698 6.30202Z" fill="url(#paint34_linear_272_516)"/>
</g>
<defs>
<linearGradient id="paint0_linear_272_516" x1="170.399" y1="100.159" x2="178.725" y2="101.102" gradientUnits="userSpaceOnUse">
<stop stopColor="#FFBC21"/>
<stop offset="0.1344" stopColor="#FD843A"/>
<stop offset="0.2742" stopColor="#FC5554"/>
<stop offset="0.4301" stopColor="#FC365F"/>
<stop offset="0.6129" stopColor="#F02E6B"/>
<stop offset="0.817759" stopColor="#DD3578"/>
<stop offset="1" stopColor="#81399D"/>
</linearGradient>
<linearGradient id="paint1_linear_272_516" x1="141.878" y1="100.159" x2="150.205" y2="101.102" gradientUnits="userSpaceOnUse">
<stop stopColor="#FFBC21"/>
<stop offset="0.1344" stopColor="#FD843A"/>
<stop offset="0.2742" stopColor="#FC5554"/>
<stop offset="0.4301" stopColor="#FC365F"/>
<stop offset="0.6129" stopColor="#F02E6B"/>
<stop offset="0.817759" stopColor="#DD3578"/>
<stop offset="1" stopColor="#81399D"/>
</linearGradient>
<linearGradient id="paint2_linear_272_516" x1="113.367" y1="100.128" x2="121.726" y2="101.075" gradientUnits="userSpaceOnUse">
<stop stopColor="#FFBC21"/>
<stop offset="0.1344" stopColor="#FD843A"/>
<stop offset="0.2742" stopColor="#FC5554"/>
<stop offset="0.4301" stopColor="#FC365F"/>
<stop offset="0.6129" stopColor="#F02E6B"/>
<stop offset="0.817759" stopColor="#DD3578"/>
<stop offset="1" stopColor="#81399D"/>
</linearGradient>
<linearGradient id="paint3_linear_272_516" x1="84.8474" y1="100.128" x2="93.2057" y2="101.075" gradientUnits="userSpaceOnUse">
<stop stopColor="#FFBC21"/>
<stop offset="0.1344" stopColor="#FD843A"/>
<stop offset="0.2742" stopColor="#FC5554"/>
<stop offset="0.4301" stopColor="#FC365F"/>
<stop offset="0.6129" stopColor="#F02E6B"/>
<stop offset="0.817759" stopColor="#DD3578"/>
<stop offset="1" stopColor="#81399D"/>
</linearGradient>
<linearGradient id="paint4_linear_272_516" x1="56.3418" y1="100.159" x2="64.6686" y2="101.102" gradientUnits="userSpaceOnUse">
<stop stopColor="#FFBC21"/>
<stop offset="0.1344" stopColor="#FD843A"/>
<stop offset="0.2742" stopColor="#FC5554"/>
<stop offset="0.4301" stopColor="#FC365F"/>
<stop offset="0.6129" stopColor="#F02E6B"/>
<stop offset="0.817759" stopColor="#DD3578"/>
<stop offset="1" stopColor="#81399D"/>
</linearGradient>
<linearGradient id="paint5_linear_272_516" x1="26.2283" y1="101.853" x2="34.2884" y2="99.5594" gradientUnits="userSpaceOnUse">
<stop stopColor="#FFBC21"/>
<stop offset="0.1344" stopColor="#FD843A"/>
<stop offset="0.2742" stopColor="#FC5554"/>
<stop offset="0.4301" stopColor="#FC365F"/>
<stop offset="0.6129" stopColor="#F02E6B"/>
<stop offset="0.817759" stopColor="#DD3578"/>
<stop offset="1" stopColor="#81399D"/>
</linearGradient>
<linearGradient id="paint6_linear_272_516" x1="-0.70102" y1="100.188" x2="7.6573" y2="101.135" gradientUnits="userSpaceOnUse">
<stop stopColor="#FFBC21"/>
<stop offset="0.1344" stopColor="#FD843A"/>
<stop offset="0.2742" stopColor="#FC5554"/>
<stop offset="0.4301" stopColor="#FC365F"/>
<stop offset="0.6129" stopColor="#F02E6B"/>
<stop offset="0.817759" stopColor="#DD3578"/>
<stop offset="1" stopColor="#81399D"/>
</linearGradient>
<linearGradient id="paint7_linear_272_516" x1="170.399" y1="74.653" x2="178.725" y2="75.5963" gradientUnits="userSpaceOnUse">
<stop stopColor="#FFBC21"/>
<stop offset="0.1344" stopColor="#FD843A"/>
<stop offset="0.2742" stopColor="#FC5554"/>
<stop offset="0.4301" stopColor="#FC365F"/>
<stop offset="0.6129" stopColor="#F02E6B"/>
<stop offset="0.817759" stopColor="#DD3578"/>
<stop offset="1" stopColor="#81399D"/>
</linearGradient>
<linearGradient id="paint8_linear_272_516" x1="141.878" y1="74.653" x2="150.205" y2="75.5963" gradientUnits="userSpaceOnUse">
<stop stopColor="#FFBC21"/>
<stop offset="0.1344" stopColor="#FD843A"/>
<stop offset="0.2742" stopColor="#FC5554"/>
<stop offset="0.4301" stopColor="#FC365F"/>
<stop offset="0.6129" stopColor="#F02E6B"/>
<stop offset="0.817759" stopColor="#DD3578"/>
<stop offset="1" stopColor="#81399D"/>
</linearGradient>
<linearGradient id="paint9_linear_272_516" x1="113.367" y1="74.6223" x2="121.726" y2="75.5692" gradientUnits="userSpaceOnUse">
<stop stopColor="#FFBC21"/>
<stop offset="0.1344" stopColor="#FD843A"/>
<stop offset="0.2742" stopColor="#FC5554"/>
<stop offset="0.4301" stopColor="#FC365F"/>
<stop offset="0.6129" stopColor="#F02E6B"/>
<stop offset="0.817759" stopColor="#DD3578"/>
<stop offset="1" stopColor="#81399D"/>
</linearGradient>
<linearGradient id="paint10_linear_272_516" x1="84.8474" y1="74.6223" x2="93.2058" y2="75.5691" gradientUnits="userSpaceOnUse">
<stop stopColor="#FFBC21"/>
<stop offset="0.1344" stopColor="#FD843A"/>
<stop offset="0.2742" stopColor="#FC5554"/>
<stop offset="0.4301" stopColor="#FC365F"/>
<stop offset="0.6129" stopColor="#F02E6B"/>
<stop offset="0.817759" stopColor="#DD3578"/>
<stop offset="1" stopColor="#81399D"/>
</linearGradient>
<linearGradient id="paint11_linear_272_516" x1="56.3418" y1="74.653" x2="64.6686" y2="75.5963" gradientUnits="userSpaceOnUse">
<stop stopColor="#FFBC21"/>
<stop offset="0.1344" stopColor="#FD843A"/>
<stop offset="0.2742" stopColor="#FC5554"/>
<stop offset="0.4301" stopColor="#FC365F"/>
<stop offset="0.6129" stopColor="#F02E6B"/>
<stop offset="0.817759" stopColor="#DD3578"/>
<stop offset="1" stopColor="#81399D"/>
</linearGradient>
<linearGradient id="paint12_linear_272_516" x1="26.2311" y1="76.3563" x2="34.2912" y2="74.0623" gradientUnits="userSpaceOnUse">
<stop stopColor="#FFBC21"/>
<stop offset="0.1344" stopColor="#FD843A"/>
<stop offset="0.2742" stopColor="#FC5554"/>
<stop offset="0.4301" stopColor="#FC365F"/>
<stop offset="0.6129" stopColor="#F02E6B"/>
<stop offset="0.817759" stopColor="#DD3578"/>
<stop offset="1" stopColor="#81399D"/>
</linearGradient>
<linearGradient id="paint13_linear_272_516" x1="-0.689254" y1="74.6223" x2="7.66923" y2="75.5692" gradientUnits="userSpaceOnUse">
<stop stopColor="#FFBC21"/>
<stop offset="0.1344" stopColor="#FD843A"/>
<stop offset="0.2742" stopColor="#FC5554"/>
<stop offset="0.4301" stopColor="#FC365F"/>
<stop offset="0.6129" stopColor="#F02E6B"/>
<stop offset="0.817759" stopColor="#DD3578"/>
<stop offset="1" stopColor="#81399D"/>
</linearGradient>
<linearGradient id="paint14_linear_272_516" x1="170.399" y1="49.1469" x2="178.725" y2="50.0902" gradientUnits="userSpaceOnUse">
<stop stopColor="#FFBC21"/>
<stop offset="0.1344" stopColor="#FD843A"/>
<stop offset="0.2742" stopColor="#FC5554"/>
<stop offset="0.4301" stopColor="#FC365F"/>
<stop offset="0.6129" stopColor="#F02E6B"/>
<stop offset="0.817759" stopColor="#DD3578"/>
<stop offset="1" stopColor="#81399D"/>
</linearGradient>
<linearGradient id="paint15_linear_272_516" x1="141.878" y1="49.1469" x2="150.205" y2="50.0902" gradientUnits="userSpaceOnUse">
<stop stopColor="#FFBC21"/>
<stop offset="0.1344" stopColor="#FD843A"/>
<stop offset="0.2742" stopColor="#FC5554"/>
<stop offset="0.4301" stopColor="#FC365F"/>
<stop offset="0.6129" stopColor="#F02E6B"/>
<stop offset="0.817759" stopColor="#DD3578"/>
<stop offset="1" stopColor="#81399D"/>
</linearGradient>
<linearGradient id="paint16_linear_272_516" x1="113.367" y1="49.1281" x2="121.726" y2="50.075" gradientUnits="userSpaceOnUse">
<stop stopColor="#FFBC21"/>
<stop offset="0.1344" stopColor="#FD843A"/>
<stop offset="0.2742" stopColor="#FC5554"/>
<stop offset="0.4301" stopColor="#FC365F"/>
<stop offset="0.6129" stopColor="#F02E6B"/>
<stop offset="0.817759" stopColor="#DD3578"/>
<stop offset="1" stopColor="#81399D"/>
</linearGradient>
<linearGradient id="paint17_linear_272_516" x1="84.8474" y1="49.1282" x2="93.2057" y2="50.075" gradientUnits="userSpaceOnUse">
<stop stopColor="#FFBC21"/>
<stop offset="0.1344" stopColor="#FD843A"/>
<stop offset="0.2742" stopColor="#FC5554"/>
<stop offset="0.4301" stopColor="#FC365F"/>
<stop offset="0.6129" stopColor="#F02E6B"/>
<stop offset="0.817759" stopColor="#DD3578"/>
<stop offset="1" stopColor="#81399D"/>
</linearGradient>
<linearGradient id="paint18_linear_272_516" x1="56.3418" y1="49.1469" x2="64.6686" y2="50.0902" gradientUnits="userSpaceOnUse">
<stop stopColor="#FFBC21"/>
<stop offset="0.1344" stopColor="#FD843A"/>
<stop offset="0.2742" stopColor="#FC5554"/>
<stop offset="0.4301" stopColor="#FC365F"/>
<stop offset="0.6129" stopColor="#F02E6B"/>
<stop offset="0.817759" stopColor="#DD3578"/>
<stop offset="1" stopColor="#81399D"/>
</linearGradient>
<linearGradient id="paint19_linear_272_516" x1="26.2294" y1="50.8602" x2="34.2895" y2="48.5662" gradientUnits="userSpaceOnUse">
<stop stopColor="#FFBC21"/>
<stop offset="0.1344" stopColor="#FD843A"/>
<stop offset="0.2742" stopColor="#FC5554"/>
<stop offset="0.4301" stopColor="#FC365F"/>
<stop offset="0.6129" stopColor="#F02E6B"/>
<stop offset="0.817759" stopColor="#DD3578"/>
<stop offset="1" stopColor="#81399D"/>
</linearGradient>
<linearGradient id="paint20_linear_272_516" x1="-0.689251" y1="49.1282" x2="7.6692" y2="50.075" gradientUnits="userSpaceOnUse">
<stop stopColor="#FFBC21"/>
<stop offset="0.1344" stopColor="#FD843A"/>
<stop offset="0.2742" stopColor="#FC5554"/>
<stop offset="0.4301" stopColor="#FC365F"/>
<stop offset="0.6129" stopColor="#F02E6B"/>
<stop offset="0.817759" stopColor="#DD3578"/>
<stop offset="1" stopColor="#81399D"/>
</linearGradient>
<linearGradient id="paint21_linear_272_516" x1="170.399" y1="23.6528" x2="178.725" y2="24.596" gradientUnits="userSpaceOnUse">
<stop stopColor="#FFBC21"/>
<stop offset="0.1344" stopColor="#FD843A"/>
<stop offset="0.2742" stopColor="#FC5554"/>
<stop offset="0.4301" stopColor="#FC365F"/>
<stop offset="0.6129" stopColor="#F02E6B"/>
<stop offset="0.817759" stopColor="#DD3578"/>
<stop offset="1" stopColor="#81399D"/>
</linearGradient>
<linearGradient id="paint22_linear_272_516" x1="141.878" y1="23.6528" x2="150.205" y2="24.596" gradientUnits="userSpaceOnUse">
<stop stopColor="#FFBC21"/>
<stop offset="0.1344" stopColor="#FD843A"/>
<stop offset="0.2742" stopColor="#FC5554"/>
<stop offset="0.4301" stopColor="#FC365F"/>
<stop offset="0.6129" stopColor="#F02E6B"/>
<stop offset="0.817759" stopColor="#DD3578"/>
<stop offset="1" stopColor="#81399D"/>
</linearGradient>
<linearGradient id="paint23_linear_272_516" x1="113.367" y1="23.5862" x2="121.726" y2="24.533" gradientUnits="userSpaceOnUse">
<stop stopColor="#FFBC21"/>
<stop offset="0.1344" stopColor="#FD843A"/>
<stop offset="0.2742" stopColor="#FC5554"/>
<stop offset="0.4301" stopColor="#FC365F"/>
<stop offset="0.6129" stopColor="#F02E6B"/>
<stop offset="0.817759" stopColor="#DD3578"/>
<stop offset="1" stopColor="#81399D"/>
</linearGradient>
<linearGradient id="paint24_linear_272_516" x1="84.8474" y1="23.5862" x2="93.2058" y2="24.533" gradientUnits="userSpaceOnUse">
<stop stopColor="#FFBC21"/>
<stop offset="0.1344" stopColor="#FD843A"/>
<stop offset="0.2742" stopColor="#FC5554"/>
<stop offset="0.4301" stopColor="#FC365F"/>
<stop offset="0.6129" stopColor="#F02E6B"/>
<stop offset="0.817759" stopColor="#DD3578"/>
<stop offset="1" stopColor="#81399D"/>
</linearGradient>
<linearGradient id="paint25_linear_272_516" x1="56.3418" y1="23.6528" x2="64.6686" y2="24.596" gradientUnits="userSpaceOnUse">
<stop stopColor="#FFBC21"/>
<stop offset="0.1344" stopColor="#FD843A"/>
<stop offset="0.2742" stopColor="#FC5554"/>
<stop offset="0.4301" stopColor="#FC365F"/>
<stop offset="0.6129" stopColor="#F02E6B"/>
<stop offset="0.817759" stopColor="#DD3578"/>
<stop offset="1" stopColor="#81399D"/>
</linearGradient>
<linearGradient id="paint26_linear_272_516" x1="26.2322" y1="25.3631" x2="34.2923" y2="23.0691" gradientUnits="userSpaceOnUse">
<stop stopColor="#FFBC21"/>
<stop offset="0.1344" stopColor="#FD843A"/>
<stop offset="0.2742" stopColor="#FC5554"/>
<stop offset="0.4301" stopColor="#FC365F"/>
<stop offset="0.6129" stopColor="#F02E6B"/>
<stop offset="0.817759" stopColor="#DD3578"/>
<stop offset="1" stopColor="#81399D"/>
</linearGradient>
<linearGradient id="paint27_linear_272_516" x1="-0.689254" y1="23.5862" x2="7.66923" y2="24.533" gradientUnits="userSpaceOnUse">
<stop stopColor="#FFBC21"/>
<stop offset="0.1344" stopColor="#FD843A"/>
<stop offset="0.2742" stopColor="#FC5554"/>
<stop offset="0.4301" stopColor="#FC365F"/>
<stop offset="0.6129" stopColor="#F02E6B"/>
<stop offset="0.817759" stopColor="#DD3578"/>
<stop offset="1" stopColor="#81399D"/>
</linearGradient>
<linearGradient id="paint28_linear_272_516" x1="170.399" y1="-1.85335" x2="178.725" y2="-0.910069" gradientUnits="userSpaceOnUse">
<stop stopColor="#FFBC21"/>
<stop offset="0.1344" stopColor="#FD843A"/>
<stop offset="0.2742" stopColor="#FC5554"/>
<stop offset="0.4301" stopColor="#FC365F"/>
<stop offset="0.6129" stopColor="#F02E6B"/>
<stop offset="0.817759" stopColor="#DD3578"/>
<stop offset="1" stopColor="#81399D"/>
</linearGradient>
<linearGradient id="paint29_linear_272_516" x1="141.878" y1="-1.85335" x2="150.205" y2="-0.910069" gradientUnits="userSpaceOnUse">
<stop stopColor="#FFBC21"/>
<stop offset="0.1344" stopColor="#FD843A"/>
<stop offset="0.2742" stopColor="#FC5554"/>
<stop offset="0.4301" stopColor="#FC365F"/>
<stop offset="0.6129" stopColor="#F02E6B"/>
<stop offset="0.817759" stopColor="#DD3578"/>
<stop offset="1" stopColor="#81399D"/>
</linearGradient>
<linearGradient id="paint30_linear_272_516" x1="113.367" y1="-1.87234" x2="121.726" y2="-0.925468" gradientUnits="userSpaceOnUse">
<stop stopColor="#FFBC21"/>
<stop offset="0.1344" stopColor="#FD843A"/>
<stop offset="0.2742" stopColor="#FC5554"/>
<stop offset="0.4301" stopColor="#FC365F"/>
<stop offset="0.6129" stopColor="#F02E6B"/>
<stop offset="0.817759" stopColor="#DD3578"/>
<stop offset="1" stopColor="#81399D"/>
</linearGradient>
<linearGradient id="paint31_linear_272_516" x1="84.8474" y1="-1.87233" x2="93.2057" y2="-0.925494" gradientUnits="userSpaceOnUse">
<stop stopColor="#FFBC21"/>
<stop offset="0.1344" stopColor="#FD843A"/>
<stop offset="0.2742" stopColor="#FC5554"/>
<stop offset="0.4301" stopColor="#FC365F"/>
<stop offset="0.6129" stopColor="#F02E6B"/>
<stop offset="0.817759" stopColor="#DD3578"/>
<stop offset="1" stopColor="#81399D"/>
</linearGradient>
<linearGradient id="paint32_linear_272_516" x1="56.3418" y1="-1.85335" x2="64.6686" y2="-0.910068" gradientUnits="userSpaceOnUse">
<stop stopColor="#FFBC21"/>
<stop offset="0.1344" stopColor="#FD843A"/>
<stop offset="0.2742" stopColor="#FC5554"/>
<stop offset="0.4301" stopColor="#FC365F"/>
<stop offset="0.6129" stopColor="#F02E6B"/>
<stop offset="0.817759" stopColor="#DD3578"/>
<stop offset="1" stopColor="#81399D"/>
</linearGradient>
<linearGradient id="paint33_linear_272_516" x1="26.2305" y1="-0.144918" x2="34.2906" y2="-2.43889" gradientUnits="userSpaceOnUse">
<stop stopColor="#FFBC21"/>
<stop offset="0.1344" stopColor="#FD843A"/>
<stop offset="0.2742" stopColor="#FC5554"/>
<stop offset="0.4301" stopColor="#FC365F"/>
<stop offset="0.6129" stopColor="#F02E6B"/>
<stop offset="0.817759" stopColor="#DD3578"/>
<stop offset="1" stopColor="#81399D"/>
</linearGradient>
<linearGradient id="paint34_linear_272_516" x1="-0.689251" y1="-1.87233" x2="7.6692" y2="-0.925463" gradientUnits="userSpaceOnUse">
<stop stopColor="#FFBC21"/>
<stop offset="0.1344" stopColor="#FD843A"/>
<stop offset="0.2742" stopColor="#FC5554"/>
<stop offset="0.4301" stopColor="#FC365F"/>
<stop offset="0.6129" stopColor="#F02E6B"/>
<stop offset="0.817759" stopColor="#DD3578"/>
<stop offset="1" stopColor="#81399D"/>
</linearGradient>
<clipPath id="clip0_272_516">
<rect width="177.375" height="108.303" fill="white"/>
</clipPath>
</defs>
</svg>
