<svg width="22" height="22" viewBox="0 0 22 22" fill="none" xmlns="http://www.w3.org/2000/svg">
<path d="M8.24967 12.6041C6.10467 12.6041 1.83301 13.6766 1.83301 15.8124V17.4166H14.6663V15.8124C14.6663 13.6766 10.3947 12.6041 8.24967 12.6041ZM3.97801 15.5833C4.74801 15.0516 6.60884 14.4374 8.24967 14.4374C9.89051 14.4374 11.7513 15.0516 12.5213 15.5833H3.97801ZM8.24967 10.9999C10.0188 10.9999 11.458 9.56075 11.458 7.79158C11.458 6.02242 10.0188 4.58325 8.24967 4.58325C6.48051 4.58325 5.04134 6.02242 5.04134 7.79158C5.04134 9.56075 6.48051 10.9999 8.24967 10.9999ZM8.24967 6.41659C9.01051 6.41659 9.62467 7.03075 9.62467 7.79158C9.62467 8.55242 9.01051 9.16658 8.24967 9.16658C7.48884 9.16658 6.87467 8.55242 6.87467 7.79158C6.87467 7.03075 7.48884 6.41659 8.24967 6.41659ZM14.703 12.6591C15.7663 13.4291 16.4997 14.4558 16.4997 15.8124V17.4166H20.1663V15.8124C20.1663 13.9608 16.958 12.9066 14.703 12.6591ZM13.7497 10.9999C15.5188 10.9999 16.958 9.56075 16.958 7.79158C16.958 6.02242 15.5188 4.58325 13.7497 4.58325C13.2547 4.58325 12.7963 4.70242 12.3747 4.90409C12.9522 5.71992 13.2913 6.71908 13.2913 7.79158C13.2913 8.86408 12.9522 9.86325 12.3747 10.6791C12.7963 10.8808 13.2547 10.9999 13.7497 10.9999Z" fill="#6F1DF4"/>
</svg>
