<svg width="20" height="14" viewBox="0 0 20 14" fill="none" xmlns="http://www.w3.org/2000/svg">
<path d="M7.24967 8.60408C5.10467 8.60408 0.833008 9.67658 0.833008 11.8124V13.4166H13.6663V11.8124C13.6663 9.67658 9.39467 8.60408 7.24967 8.60408ZM2.97801 11.5833C3.74801 11.0516 5.60884 10.4374 7.24967 10.4374C8.89051 10.4374 10.7513 11.0516 11.5213 11.5833H2.97801ZM7.24967 6.99992C9.01884 6.99992 10.458 5.56075 10.458 3.79158C10.458 2.02242 9.01884 0.583252 7.24967 0.583252C5.48051 0.583252 4.04134 2.02242 4.04134 3.79158C4.04134 5.56075 5.48051 6.99992 7.24967 6.99992ZM7.24967 2.41659C8.01051 2.41659 8.62467 3.03075 8.62467 3.79158C8.62467 4.55242 8.01051 5.16658 7.24967 5.16658C6.48884 5.16658 5.87467 4.55242 5.87467 3.79158C5.87467 3.03075 6.48884 2.41659 7.24967 2.41659ZM13.703 8.65908C14.7663 9.42908 15.4997 10.4558 15.4997 11.8124V13.4166H19.1663V11.8124C19.1663 9.96075 15.958 8.90658 13.703 8.65908ZM12.7497 6.99992C14.5188 6.99992 15.958 5.56075 15.958 3.79158C15.958 2.02242 14.5188 0.583252 12.7497 0.583252C12.2547 0.583252 11.7963 0.702419 11.3747 0.904085C11.9522 1.71992 12.2913 2.71908 12.2913 3.79158C12.2913 4.86408 11.9522 5.86325 11.3747 6.67908C11.7963 6.88075 12.2547 6.99992 12.7497 6.99992Z" fill="white"/>
</svg>
