<svg width="60" height="60" viewBox="0 0 60 60" fill="none" xmlns="http://www.w3.org/2000/svg">
<g clipPath="url(#clip0_297_1528)">
<path d="M44.999 12.9815C44.999 13.8587 45.877 14.7358 47.1043 14.7358C48.8578 14.7358 49.3841 14.0341 49.3841 12.9815C49.3841 12.806 49.3841 12.806 49.3841 12.6314C49.2095 12.1051 48.6824 11.7542 48.1577 11.4033C47.9814 11.4033 47.6313 11.2279 47.2813 11.2279C46.0516 11.2287 44.999 11.9297 44.999 12.9815Z" fill="url(#paint0_linear_297_1528)"/>
<path d="M48.6837 7.19213C48.5067 6.13951 47.8058 5.26233 46.9294 5.26233C46.0514 5.26233 45.5251 6.13951 45.7021 7.19213C45.8791 8.24475 46.5785 9.12193 47.4557 9.12193C48.1574 9.12193 48.8584 8.24475 48.6837 7.19213Z" fill="url(#paint1_linear_297_1528)"/>
<path d="M40.789 20.3498L43.7715 17.3674C45.525 18.7709 47.6326 19.6481 49.9125 19.6481C55.3503 19.6481 59.7369 15.2614 59.7369 9.82365C59.7354 4.38513 55.3503 0 49.9117 0C44.4748 0 40.0873 4.38591 40.0873 9.82443C40.0873 12.2805 40.9637 14.385 42.368 15.9647L39.3848 18.9479C39.9111 19.4734 40.4374 20.0005 40.789 20.3498ZM51.4907 6.6658H53.4197V4.73678H54.1214V6.66658H56.052V7.36833H54.1214V9.29891H53.4197V7.36754H51.4907V6.6658ZM47.1047 9.99909C47.1047 9.82365 47.1047 9.64821 47.2818 9.47278C47.1047 9.47278 47.1047 9.47278 46.9317 9.47278C45.5274 9.47278 44.4748 8.42016 44.4748 7.19211C44.4748 5.96405 45.8775 4.91143 47.2818 4.91143H50.438L49.7363 5.43774H48.6837C49.3854 5.61396 49.7363 6.49114 49.7363 7.36754C49.7363 8.06929 49.3854 8.5956 48.8583 9.12191C48.332 9.47278 48.1566 9.64821 48.1566 9.99909C48.1566 10.35 48.6837 10.8763 49.0338 11.0517C49.9102 11.578 50.0864 12.2798 50.0864 13.1569C50.0864 14.3842 49.0338 15.4376 46.9293 15.4376C45.1757 15.4376 43.596 14.7359 43.596 13.5078C43.596 12.2798 44.9987 11.2271 46.7531 11.2271C46.9293 11.2271 47.1032 11.2271 47.2794 11.2271C47.2794 10.7016 47.1047 10.3507 47.1047 9.99909Z" fill="url(#paint2_linear_297_1528)"/>
<path d="M49.9118 40.3504C47.6319 40.3504 45.3512 41.2268 43.7707 42.631L40.7891 39.6478C40.4374 40.1741 39.9111 40.5234 39.561 40.8743L42.5442 43.8575C41.1407 45.6103 40.2636 47.7179 40.2636 49.9986C40.2636 55.4363 44.651 59.823 50.0888 59.823C55.5257 59.823 59.914 55.4363 59.914 49.9986C59.7354 44.56 55.3503 40.3504 49.9118 40.3504ZM47.1048 54.5607H45.175V48.4196H47.1048V54.5607ZM46.2276 47.544C45.5259 47.544 45.0003 47.0169 45.0003 46.4898C45.0003 45.9635 45.5267 45.4372 46.2276 45.4372C46.9286 45.4372 47.4549 45.9635 47.4549 46.4898C47.2794 47.1924 46.9294 47.544 46.2276 47.544ZM54.9994 54.5607H52.7188V51.4036C52.7188 50.5272 52.3687 50.0001 51.6654 50.0001C51.139 50.0001 50.789 50.351 50.6127 50.7019C50.6127 50.8797 50.6127 51.0535 50.6127 51.229V54.563H48.5075C48.5075 54.563 48.5075 48.9491 48.5075 48.422H50.6127V49.2992C50.789 48.9491 51.4907 48.2466 52.5433 48.2466C53.946 48.2466 54.9994 49.123 54.9994 51.0535V54.5607Z" fill="url(#paint3_linear_297_1528)"/>
<path d="M19.035 39.6494L16.0526 42.6326C14.2982 41.2283 12.193 40.3519 9.91232 40.3519C4.4738 40.3519 0.0878906 44.7394 0.0878906 50.1756C0.0878906 55.6141 4.4738 60.0008 9.91232 60.0008C15.3501 60.0008 19.7368 55.6141 19.7368 50.1756C19.7368 47.8949 18.8596 45.615 17.4561 44.0353L20.4385 41.0521C19.9122 40.525 19.3859 39.9979 19.035 39.6494ZM14.1236 48.5959C14.1236 51.5783 11.8429 54.9108 7.80787 54.9108C6.5806 54.9108 5.35176 54.5599 4.47458 53.8566C4.65002 53.8566 4.82545 53.8566 5.00089 53.8566C6.05351 53.8566 6.93069 53.5065 7.80787 52.9802C6.93069 52.9802 6.05351 52.2785 5.70264 51.4005C5.87807 51.4005 6.05273 51.4005 6.05273 51.4005C6.22894 51.4005 6.4036 51.4005 6.57982 51.4005C5.52642 51.2235 4.82545 50.3479 4.82545 49.2953C5.17633 49.4715 5.5272 49.6454 5.87807 49.6454C5.35176 49.2953 4.82545 48.5927 4.82545 47.891C4.82545 47.5417 5.00089 47.1893 5.17633 46.8384C6.22894 48.2427 7.80709 49.1191 9.73689 49.1191C9.73689 48.9421 9.73689 48.769 9.73689 48.5927C9.73689 47.3647 10.7903 46.3121 12.0176 46.3121C12.7193 46.3121 13.2456 46.6622 13.5973 47.0138C14.1236 46.8376 14.6499 46.6629 15.0008 46.4875C14.8245 47.0138 14.4737 47.3639 13.9474 47.714C14.4737 47.714 14.8245 47.5378 15.1754 47.3639C14.8245 47.8902 14.4737 48.2403 14.1228 48.4165C14.1236 48.4197 14.1236 48.4197 14.1236 48.5959Z" fill="url(#paint4_linear_297_1528)"/>
<path d="M9.91232 19.6489C12.193 19.6489 14.4729 18.7717 16.0526 17.3682L19.035 20.3507C19.3859 19.8244 19.9122 19.4743 20.2631 19.1234L17.2799 16.141C18.6834 14.3866 19.5605 12.2814 19.5605 10.0007C19.5605 4.56218 15.1746 0.17627 9.7361 0.17627C4.29836 0.17627 0.0878906 4.56218 0.0878906 10.0007C0.0878906 15.2622 4.4738 19.6489 9.91232 19.6489ZM7.63165 8.24477H8.68427V7.19216C8.68427 5.78866 9.21058 4.91148 10.9649 4.91148H12.3684V6.66585H11.4913C10.7895 6.66585 10.7895 6.84128 10.7895 7.36759V8.24477H12.3684L12.193 9.99914H10.6125V14.9114H8.50727V9.99914H7.45543V8.24477H7.63165Z" fill="url(#paint5_linear_297_1528)"/>
<path d="M38.86 34.911C38.683 34.5617 38.3329 34.3839 38.1583 34.3839C36.5794 33.8576 35.1766 33.5083 33.5977 32.9812C33.4223 32.9812 33.0714 32.6311 33.0714 31.9286C33.0714 31.5769 33.0714 31.4015 32.7213 31.4015C32.5443 31.4015 32.7213 31.4015 32.5443 31.226C32.3697 30.5243 32.3697 30.1726 32.3697 29.998C32.3697 29.8233 32.5443 29.8218 32.5443 29.6471C33.0714 28.9454 33.2461 27.8935 33.2461 27.5419C33.2461 27.5419 33.4223 27.5419 33.4223 27.3657C33.5977 27.0148 33.5977 27.0148 33.5977 26.4877C33.7747 26.1384 33.7747 25.6121 33.4223 25.6121C33.2461 25.7875 33.2461 25.6121 33.2461 25.2612V23.156C33.2461 22.4542 32.719 21.9287 32.3697 21.7533C31.8418 21.4016 31.6679 21.2262 31.4917 21.2262C31.3155 21.0507 31.3155 20.8753 31.4917 20.6999C31.6671 20.5252 31.8418 20.5252 31.8418 20.349C31.8418 20.349 31.8418 20.349 31.6656 20.349C31.4893 20.349 30.4383 20.526 29.912 20.6999C29.0348 20.8753 28.1576 21.2262 27.4551 21.7533C26.9288 22.1034 26.5779 22.6297 26.5779 23.333C26.5779 23.6823 26.5779 24.7357 26.5779 25.4382C26.5779 25.6152 26.5779 25.7891 26.4025 25.6152C25.8762 25.6152 26.227 26.317 26.227 26.4908C26.227 26.8417 26.4025 27.0179 26.5771 27.3688C26.5771 27.545 26.7534 27.545 26.7534 27.545C26.9288 28.0713 27.1042 29.1239 27.4551 29.6503C27.4551 29.6503 27.6313 29.8265 27.6313 30.0011C27.6313 30.352 27.6313 30.8783 27.4551 31.2292C27.4551 31.2292 27.4551 31.4054 27.2797 31.4054C26.9288 31.4054 26.9288 31.5808 26.9288 31.9317C26.9288 32.458 26.5779 32.9851 26.4025 32.9851C25.5253 33.3344 22.8945 34.2124 22.0166 34.3878C21.4903 34.5648 21.3148 34.7387 21.1394 34.9141L20.2622 37.0194C23.7702 37.0194 25.5253 39.1246 29.2095 39.8263H30.9638C34.648 39.3 37.2787 37.0194 39.7356 37.0194L38.86 34.911Z" fill="url(#paint6_linear_297_1528)"/>
</g>
<defs>
<linearGradient id="paint0_linear_297_1528" x1="44.5483" y1="10.94" x2="49.8415" y2="11.9529" gradientUnits="userSpaceOnUse">
<stop stopColor="#FC365F"/>
<stop offset="0.984375" stopColor="#A00BFB"/>
</linearGradient>
<linearGradient id="paint1_linear_297_1528" x1="45.3552" y1="4.94557" x2="49.108" y2="5.39848" gradientUnits="userSpaceOnUse">
<stop stopColor="#FC365F"/>
<stop offset="0.984375" stopColor="#A00BFB"/>
</linearGradient>
<linearGradient id="paint2_linear_297_1528" x1="37.2929" y1="-1.67012" x2="62.1762" y2="2.13945" gradientUnits="userSpaceOnUse">
<stop stopColor="#FC365F"/>
<stop offset="0.984375" stopColor="#A00BFB"/>
</linearGradient>
<linearGradient id="paint3_linear_297_1528" x1="37.4691" y1="37.992" x2="62.3434" y2="41.8333" gradientUnits="userSpaceOnUse">
<stop stopColor="#FC365F"/>
<stop offset="0.984375" stopColor="#A00BFB"/>
</linearGradient>
<linearGradient id="paint4_linear_297_1528" x1="-2.00377" y1="37.9792" x2="22.8777" y2="41.7879" gradientUnits="userSpaceOnUse">
<stop stopColor="#FC365F"/>
<stop offset="0.984375" stopColor="#A00BFB"/>
</linearGradient>
<linearGradient id="paint5_linear_297_1528" x1="-1.98574" y1="-1.47945" x2="22.6812" y2="2.29671" gradientUnits="userSpaceOnUse">
<stop stopColor="#FC365F"/>
<stop offset="0.984375" stopColor="#A00BFB"/>
</linearGradient>
<linearGradient id="paint6_linear_297_1528" x1="18.2607" y1="18.7505" x2="42.0699" y2="22.3945" gradientUnits="userSpaceOnUse">
<stop stopColor="#FC365F"/>
<stop offset="0.984375" stopColor="#A00BFB"/>
</linearGradient>
<clipPath id="clip0_297_1528">
<rect width="60" height="60" fill="white"/>
</clipPath>
</defs>
</svg>
