<svg width="60" height="60" viewBox="0 0 60 60" fill="none" xmlns="http://www.w3.org/2000/svg">
<path d="M40.1534 3.28125H19.8472C18.3553 3.28125 16.9246 3.87388 15.8697 4.92877C14.8148 5.98367 14.2222 7.41441 14.2222 8.90625V26.8687C14.2222 28.3606 14.8148 29.7913 15.8697 30.8462C16.9246 31.9011 18.3553 32.4937 19.8472 32.4937H21.9378L29.2878 41.1469C29.4117 41.2916 29.5768 41.3952 29.761 41.4437C29.9452 41.4923 30.1399 41.4836 30.319 41.4188C30.5008 41.3542 30.6581 41.2347 30.7689 41.0768C30.8798 40.9189 30.9388 40.7304 30.9378 40.5375V32.4937H40.1534C41.6453 32.4937 43.076 31.9011 44.1309 30.8462C45.1858 29.7913 45.7784 28.3606 45.7784 26.8687V8.90625C45.7784 7.41441 45.1858 5.98367 44.1309 4.92877C43.076 3.87388 41.6453 3.28125 40.1534 3.28125ZM43.9034 26.8687C43.9034 27.8633 43.5083 28.8171 42.8051 29.5204C42.1018 30.2237 41.148 30.6187 40.1534 30.6187H30.0003C29.7517 30.6187 29.5132 30.7175 29.3374 30.8933C29.1616 31.0692 29.0628 31.3076 29.0628 31.5562V37.9875L23.0815 30.9469C22.9931 30.8445 22.8837 30.7622 22.7608 30.7056C22.6379 30.649 22.5043 30.6194 22.369 30.6187H19.8472C18.8526 30.6187 17.8988 30.2237 17.1955 29.5204C16.4923 28.8171 16.0972 27.8633 16.0972 26.8687V8.90625C16.0972 7.91169 16.4923 6.95786 17.1955 6.2546C17.8988 5.55134 18.8526 5.15625 19.8472 5.15625H40.1534C41.148 5.15625 42.1018 5.55134 42.8051 6.2546C43.5083 6.95786 43.9034 7.91169 43.9034 8.90625V26.8687Z" fill="url(#paint0_linear_297_1552)"/>
<path d="M41.8688 10.0781C41.8688 10.3268 41.7701 10.5652 41.5943 10.741C41.4184 10.9169 41.18 11.0156 40.9313 11.0156H19.0688C18.8202 11.0156 18.5817 10.9169 18.4059 10.741C18.2301 10.5652 18.1313 10.3268 18.1313 10.0781C18.1313 9.82948 18.2301 9.59103 18.4059 9.41521C18.5817 9.2394 18.8202 9.14062 19.0688 9.14062H40.9313C41.18 9.14062 41.4184 9.2394 41.5943 9.41521C41.7701 9.59103 41.8688 9.82948 41.8688 10.0781Z" fill="url(#paint1_linear_297_1552)"/>
<path d="M41.8688 13.9875C41.8688 14.2361 41.7701 14.4746 41.5943 14.6504C41.4184 14.8262 41.18 14.925 40.9313 14.925H19.0688C18.8202 14.925 18.5817 14.8262 18.4059 14.6504C18.2301 14.4746 18.1313 14.2361 18.1313 13.9875C18.1313 13.7388 18.2301 13.5004 18.4059 13.3246C18.5817 13.1487 18.8202 13.05 19.0688 13.05H40.9313C41.0548 13.0487 41.1773 13.0721 41.2916 13.1188C41.4059 13.1655 41.5098 13.2345 41.5971 13.3218C41.6844 13.4091 41.7534 13.5129 41.8 13.6272C41.8467 13.7415 41.8701 13.864 41.8688 13.9875Z" fill="url(#paint2_linear_297_1552)"/>
<path d="M41.8688 17.8875C41.8688 18.1361 41.7701 18.3745 41.5943 18.5504C41.4184 18.7262 41.18 18.825 40.9313 18.825H19.0688C18.8202 18.825 18.5817 18.7262 18.4059 18.5504C18.2301 18.3745 18.1313 18.1361 18.1313 17.8875C18.1313 17.6388 18.2301 17.4004 18.4059 17.2245C18.5817 17.0487 18.8202 16.95 19.0688 16.95H40.9313C41.18 16.95 41.4184 17.0487 41.5943 17.2245C41.7701 17.4004 41.8688 17.6388 41.8688 17.8875Z" fill="url(#paint3_linear_297_1552)"/>
<path d="M41.869 21.7969C41.869 22.0456 41.7703 22.284 41.5945 22.4598C41.4186 22.6357 41.1802 22.7344 40.9315 22.7344H26.8784C26.6298 22.7344 26.3913 22.6357 26.2155 22.4598C26.0397 22.284 25.9409 22.0456 25.9409 21.7969C25.9409 21.5483 26.0397 21.3098 26.2155 21.134C26.3913 20.9582 26.6298 20.8594 26.8784 20.8594H40.9315C41.055 20.8582 41.1775 20.8816 41.2918 20.9282C41.4061 20.9749 41.5099 21.0439 41.5972 21.1312C41.6846 21.2185 41.7536 21.3224 41.8002 21.4367C41.8469 21.551 41.8703 21.6735 41.869 21.7969Z" fill="url(#paint4_linear_297_1552)"/>
<path d="M41.869 25.6969C41.869 25.9455 41.7703 26.184 41.5945 26.3598C41.4186 26.5356 41.1802 26.6344 40.9315 26.6344H26.8784C26.6298 26.6344 26.3913 26.5356 26.2155 26.3598C26.0397 26.184 25.9409 25.9455 25.9409 25.6969C25.9409 25.4483 26.0397 25.2098 26.2155 25.034C26.3913 24.8582 26.6298 24.7594 26.8784 24.7594H40.9315C41.1802 24.7594 41.4186 24.8582 41.5945 25.034C41.7703 25.2098 41.869 25.4483 41.869 25.6969Z" fill="url(#paint5_linear_297_1552)"/>
<path d="M17.4845 43.6406C17.4221 43.4533 17.3027 43.2902 17.143 43.1742C16.9833 43.0582 16.7913 42.9951 16.5939 42.9937H12.722L11.522 39.3093C11.4604 39.1218 11.3411 38.9584 11.1811 38.8427C11.0212 38.7269 10.8288 38.6646 10.6314 38.6646C10.4339 38.6646 10.2416 38.7269 10.0816 38.8427C9.9217 38.9584 9.80241 39.1218 9.74076 39.3093L8.54076 42.9937H4.66888C4.47048 42.993 4.27697 43.0552 4.1162 43.1715C3.95542 43.2877 3.83567 43.452 3.77419 43.6406C3.7127 43.8293 3.71264 44.0325 3.77402 44.2212C3.8354 44.4099 3.95505 44.5742 4.11576 44.6906L7.24701 46.9687L6.05638 50.6437C6.01051 50.7844 5.99859 50.9339 6.0216 51.0801C6.04461 51.2263 6.10189 51.3649 6.18876 51.4847C6.27563 51.6045 6.38962 51.702 6.5214 51.7693C6.65319 51.8366 6.79904 51.8717 6.94701 51.8718C7.14549 51.8719 7.33898 51.8096 7.50013 51.6937L10.6314 49.4156L13.7626 51.6937C13.9223 51.8091 14.1142 51.8713 14.3113 51.8715C14.5083 51.8716 14.7003 51.8097 14.8601 51.6945C15.02 51.5793 15.1394 51.4167 15.2016 51.2298C15.2637 51.0428 15.2654 50.841 15.2064 50.6531L14.0064 46.9687L17.147 44.6906C17.3057 44.5725 17.4235 44.4079 17.484 44.2196C17.5445 44.0314 17.5447 43.8289 17.4845 43.6406ZM12.0189 46.8937L12.5345 48.4874L11.1845 47.5031C11.0245 47.3843 10.8306 47.3202 10.6314 47.3202C10.4322 47.3202 10.2382 47.3843 10.0783 47.5031L8.72826 48.4874L9.24388 46.8937C9.30481 46.7068 9.30496 46.5055 9.24433 46.3185C9.18369 46.1315 9.06538 45.9686 8.90638 45.8531L7.55638 44.8687H9.22513C9.42252 44.8673 9.61452 44.8041 9.77423 44.6881C9.93394 44.5721 10.0534 44.4091 10.1158 44.2218L10.6314 42.6281L11.147 44.2218C11.2083 44.4098 11.3274 44.5735 11.4874 44.6897C11.6473 44.8059 11.8399 44.8685 12.0376 44.8687H13.7064L12.3564 45.8531C12.1957 45.9671 12.076 46.13 12.0152 46.3175C11.9544 46.5049 11.9557 46.707 12.0189 46.8937Z" fill="url(#paint6_linear_297_1552)"/>
<path d="M36.8532 48.4781C36.7919 48.2901 36.6727 48.1264 36.5128 48.0102C36.3528 47.894 36.1602 47.8314 35.9625 47.8312H32.0907L30.8907 44.1468C30.829 43.9593 30.7097 43.796 30.5498 43.6802C30.3899 43.5644 30.1975 43.5021 30 43.5021C29.8026 43.5021 29.6102 43.5644 29.4503 43.6802C29.2904 43.796 29.1711 43.9593 29.1094 44.1468L27.9094 47.8312H24.0375C23.8391 47.8305 23.6456 47.8928 23.4848 48.009C23.3241 48.1253 23.2043 48.2895 23.1428 48.4782C23.0814 48.6668 23.0813 48.8701 23.1427 49.0587C23.2041 49.2474 23.3237 49.4117 23.4844 49.5281L26.625 51.8062L25.425 55.4906C25.3649 55.679 25.365 55.8814 25.4255 56.0697C25.4861 56.2579 25.6039 56.4226 25.7625 56.5406C25.9243 56.655 26.1175 56.7164 26.3157 56.7164C26.5138 56.7164 26.707 56.655 26.8688 56.5406L30 54.2625L33.1313 56.5406C33.2925 56.6564 33.4859 56.7187 33.6844 56.7187C33.8829 56.7187 34.0764 56.6564 34.2375 56.5406C34.3962 56.4226 34.514 56.2579 34.5745 56.0697C34.635 55.8814 34.6352 55.679 34.575 55.4906L33.375 51.8062L36.5157 49.5281C36.6757 49.4112 36.7945 49.2466 36.8551 49.058C36.9158 48.8693 36.9151 48.6663 36.8532 48.4781ZM31.3875 51.7406L31.9032 53.325L30.5532 52.3406C30.392 52.2248 30.1985 52.1625 30 52.1625C29.8016 52.1625 29.6081 52.2248 29.4469 52.3406L28.0969 53.325L28.6125 51.7406C28.6757 51.5525 28.677 51.3491 28.6162 51.1602C28.5555 50.9712 28.436 50.8067 28.275 50.6906L26.925 49.7062H28.5938C28.7915 49.7061 28.9841 49.6434 29.144 49.5273C29.304 49.4111 29.4231 49.2473 29.4844 49.0593L30 47.475L30.5157 49.0593C30.5769 49.2473 30.6961 49.4111 30.856 49.5273C31.016 49.6434 31.2086 49.7061 31.4063 49.7062H33.075L31.725 50.6906C31.5641 50.8067 31.4446 50.9712 31.3838 51.1602C31.3231 51.3491 31.3244 51.5525 31.3875 51.7406Z" fill="url(#paint7_linear_297_1552)"/>
<path d="M56.2218 43.6406C56.1617 43.4519 56.0428 43.2874 55.8826 43.171C55.7224 43.0547 55.5292 42.9925 55.3312 42.9937H51.4593L50.2593 39.3093C50.1977 39.1218 50.0784 38.9584 49.9184 38.8427C49.7585 38.7269 49.5661 38.6646 49.3687 38.6646C49.1713 38.6646 48.9789 38.7269 48.8189 38.8427C48.659 38.9584 48.5397 39.1218 48.4781 39.3093L47.2781 42.9937H43.4062C43.2078 42.993 43.0143 43.0552 42.8535 43.1715C42.6927 43.2877 42.573 43.452 42.5115 43.6406C42.45 43.8293 42.4499 44.0325 42.5113 44.2212C42.5727 44.4099 42.6924 44.5742 42.8531 44.6906L45.9937 46.9687L44.7937 50.6531C44.7347 50.841 44.7363 51.0428 44.7985 51.2298C44.8606 51.4167 44.9801 51.5793 45.1399 51.6945C45.2998 51.8097 45.4918 51.8716 45.6888 51.8715C45.8858 51.8713 46.0778 51.8091 46.2374 51.6937L49.3687 49.4156L52.4999 51.6937C52.6611 51.8096 52.8546 51.8719 53.0531 51.8718C53.252 51.8747 53.4464 51.8122 53.6062 51.6937C53.7677 51.5781 53.8877 51.4136 53.9485 51.2245C54.0092 51.0354 54.0076 50.8318 53.9437 50.6437L52.7531 46.9687L55.8843 44.6906C56.0443 44.5737 56.1632 44.4091 56.2238 44.2204C56.2844 44.0318 56.2837 43.8288 56.2218 43.6406ZM50.7562 46.8937L51.2718 48.4874L49.9218 47.5031C49.7613 47.3859 49.5674 47.3234 49.3687 47.3249C49.1702 47.3249 48.9767 47.3872 48.8156 47.5031L47.4656 48.4874L47.9812 46.8937C48.0444 46.707 48.0457 46.5049 47.9849 46.3175C47.9241 46.13 47.8044 45.9671 47.6437 45.8531L46.2937 44.8687H47.9624C48.1601 44.8685 48.3527 44.8059 48.5127 44.6897C48.6726 44.5735 48.7918 44.4098 48.8531 44.2218L49.3687 42.6281L49.8843 44.2218C49.9467 44.4091 50.0661 44.5721 50.2258 44.6881C50.3856 44.8041 50.5776 44.8673 50.7749 44.8687H52.4437L51.0937 45.8531C50.9347 45.9686 50.8164 46.1315 50.7557 46.3185C50.6951 46.5055 50.6953 46.7068 50.7562 46.8937Z" fill="url(#paint8_linear_297_1552)"/>
<defs>
<linearGradient id="paint0_linear_297_1552" x1="10.9788" y1="0.146699" x2="49.8431" y2="5.06218" gradientUnits="userSpaceOnUse">
<stop stop-color="#FC365F"/>
<stop offset="0.984375" stop-color="#A00BFB"/>
</linearGradient>
<linearGradient id="paint1_linear_297_1552" x1="15.6916" y1="8.98674" x2="21.9371" y2="21.0905" gradientUnits="userSpaceOnUse">
<stop stop-color="#FC365F"/>
<stop offset="0.984375" stop-color="#A00BFB"/>
</linearGradient>
<linearGradient id="paint2_linear_297_1552" x1="15.6916" y1="12.896" x2="21.9373" y2="25" gradientUnits="userSpaceOnUse">
<stop stop-color="#FC365F"/>
<stop offset="0.984375" stop-color="#A00BFB"/>
</linearGradient>
<linearGradient id="paint3_linear_297_1552" x1="15.6916" y1="16.7961" x2="21.9371" y2="28.8998" gradientUnits="userSpaceOnUse">
<stop stop-color="#FC365F"/>
<stop offset="0.984375" stop-color="#A00BFB"/>
</linearGradient>
<linearGradient id="paint4_linear_297_1552" x1="24.3038" y1="20.7055" x2="31.7102" y2="30.3367" gradientUnits="userSpaceOnUse">
<stop stop-color="#FC365F"/>
<stop offset="0.984375" stop-color="#A00BFB"/>
</linearGradient>
<linearGradient id="paint5_linear_297_1552" x1="24.3038" y1="24.6055" x2="31.71" y2="34.2367" gradientUnits="userSpaceOnUse">
<stop stop-color="#FC365F"/>
<stop offset="0.984375" stop-color="#A00BFB"/>
</linearGradient>
<linearGradient id="paint6_linear_297_1552" x1="2.30949" y1="37.5806" x2="19.1483" y2="40.2743" gradientUnits="userSpaceOnUse">
<stop stop-color="#FC365F"/>
<stop offset="0.984375" stop-color="#A00BFB"/>
</linearGradient>
<linearGradient id="paint7_linear_297_1552" x1="21.6779" y1="42.4174" x2="38.5196" y2="45.11" gradientUnits="userSpaceOnUse">
<stop stop-color="#FC365F"/>
<stop offset="0.984375" stop-color="#A00BFB"/>
</linearGradient>
<linearGradient id="paint8_linear_297_1552" x1="41.0466" y1="37.5806" x2="57.8876" y2="40.275" gradientUnits="userSpaceOnUse">
<stop stop-color="#FC365F"/>
<stop offset="0.984375" stop-color="#A00BFB"/>
</linearGradient>
</defs>
</svg>
