<svg width="79" height="79" viewBox="0 0 79 79" fill="none" xmlns="http://www.w3.org/2000/svg">
<path d="M3 57.7575L23.9265 36.831C25.6379 35.1201 27.9588 34.159 30.3788 34.159C32.7987 34.159 35.1196 35.1201 36.831 36.831L57.7575 57.7575M48.6313 48.6313L55.8684 41.3941C57.5798 39.6832 59.9007 38.7221 62.3206 38.7221C64.7406 38.7221 67.0615 39.6832 68.7729 41.3941L76.01 48.6313M48.6313 21.2525H48.6769M12.1263 76.01H66.8838C69.3042 76.01 71.6255 75.0485 73.337 73.337C75.0485 71.6255 76.01 69.3042 76.01 66.8838V12.1263C76.01 9.70582 75.0485 7.38452 73.337 5.67302C71.6255 3.96151 69.3042 3 66.8838 3H12.1263C9.70582 3 7.38452 3.96151 5.67302 5.67302C3.96151 7.38452 3 9.70582 3 12.1263V66.8838C3 69.3042 3.96151 71.6255 5.67302 73.337C7.38452 75.0485 9.70582 76.01 12.1263 76.01Z" stroke="white" stroke-width="5" stroke-linecap="round" stroke-linejoin="round"/>
</svg>
