<svg width="75" height="75" viewBox="0 0 75 75" fill="none" xmlns="http://www.w3.org/2000/svg">
<path d="M28.125 54.375L54.375 37.5L28.125 20.625V54.375ZM37.5 75C32.3125 75 27.4375 74.015 22.875 72.045C18.3125 70.075 14.3438 67.4038 10.9688 64.0312C7.59375 60.6563 4.9225 56.6875 2.955 52.125C0.9875 47.5625 0.0025 42.6875 0 37.5C0 32.3125 0.985 27.4375 2.955 22.875C4.925 18.3125 7.59625 14.3438 10.9688 10.9688C14.3438 7.59375 18.3125 4.9225 22.875 2.955C27.4375 0.9875 32.3125 0.0025 37.5 0C42.6875 0 47.5625 0.985 52.125 2.955C56.6875 4.925 60.6563 7.59625 64.0312 10.9688C67.4062 14.3438 70.0788 18.3125 72.0487 22.875C74.0187 27.4375 75.0025 32.3125 75 37.5C75 42.6875 74.015 47.5625 72.045 52.125C70.075 56.6875 67.4038 60.6563 64.0312 64.0312C60.6563 67.4062 56.6875 70.0788 52.125 72.0487C47.5625 74.0187 42.6875 75.0025 37.5 75Z" fill="url(#paint0_linear_78_470)"/>
<defs>
<linearGradient id="paint0_linear_78_470" x1="-7.7086" y1="-6.15528" x2="83.9894" y2="7.88185" gradientUnits="userSpaceOnUse">
<stop stopColor="#FC365F"/>
<stop offset="0.984375" stopColor="#A00BFB"/>
</linearGradient>
</defs>
</svg>
