<svg width="35" height="30" viewBox="0 0 35 30" fill="none" xmlns="http://www.w3.org/2000/svg">
<path d="M0.609375 0C0.447759 0 0.292762 0.0640991 0.178482 0.178379C0.0642019 0.292659 0 0.447759 0 0.609375V25.5938C0 27.6083 1.64166 29.25 3.65625 29.25H30.4688C32.4846 29.25 34.125 27.6083 34.125 25.5938V9.15268C34.125 8.99106 34.0608 8.83611 33.9465 8.72183C33.8322 8.60755 33.6772 8.5433 33.5156 8.5433H26.8125V0.609375C26.8125 0.447759 26.7483 0.292659 26.634 0.178379C26.5197 0.0640991 26.3647 0 26.2031 0H0.609375ZM1.21875 1.21875H25.5938V25.5938C25.5938 26.5334 25.9606 27.3829 26.5456 28.0312H3.65747C2.29612 28.0312 1.21997 26.9551 1.21997 25.5938V10.731L1.21875 1.21875ZM6.69338 3.64152C6.61341 3.64231 6.5344 3.65898 6.46089 3.69047C6.38739 3.72195 6.32084 3.76763 6.2651 3.82496C6.20935 3.88229 6.16551 3.9501 6.1361 4.02446C6.10669 4.09882 6.0923 4.17823 6.09375 4.25819V6.55078L4.81041 3.98772C4.524 3.41247 3.65747 3.61591 3.65625 4.25819V9.13081C3.64406 9.9559 4.88719 9.9559 4.875 9.13081V6.84193L6.15834 9.40499C6.44597 9.98024 7.31372 9.77552 7.3125 9.13081V4.25819C7.31332 4.17682 7.29785 4.09618 7.26698 4.02089C7.23611 3.94561 7.19048 3.87726 7.13277 3.8199C7.07507 3.76254 7.00646 3.71732 6.93099 3.6869C6.85553 3.65648 6.77473 3.64022 6.69338 3.64152ZM14.0059 3.65372C13.9257 3.65451 13.8465 3.67118 13.7728 3.70282C13.6991 3.73445 13.6325 3.78046 13.5767 3.83805C13.5209 3.89564 13.4771 3.96366 13.4479 4.0383C13.4186 4.11294 13.4045 4.19276 13.4062 4.27291V9.14791C13.4075 9.7902 14.274 9.99361 14.5604 9.41957L15.2344 8.07169L15.9083 9.41957C16.196 9.99361 17.0613 9.7902 17.0625 9.14791V4.27291C17.0747 3.44904 15.8316 3.44904 15.8438 4.27291V6.56536L15.7792 6.43742C15.7285 6.33633 15.6507 6.25134 15.5545 6.19194C15.4583 6.13254 15.3474 6.10104 15.2344 6.10104C15.1213 6.10104 15.0105 6.13254 14.9143 6.19194C14.818 6.25134 14.7403 6.33633 14.6896 6.43742L14.625 6.56536V4.27411C14.6265 4.19234 14.6115 4.11103 14.5809 4.03518C14.5503 3.95932 14.5048 3.89043 14.447 3.83255C14.3893 3.77466 14.3204 3.72908 14.2446 3.69835C14.1688 3.66763 14.0876 3.6524 14.0059 3.65372ZM9.08212 3.65372V3.66592C9.05775 3.66592 9.03338 3.67812 9.009 3.67812H9.00047C8.85137 3.7118 8.72038 3.80023 8.63346 3.92598C8.54655 4.05172 8.51007 4.20559 8.53125 4.35697V6.62755C8.52354 6.68294 8.52354 6.73908 8.53125 6.79447V9.06505C8.51061 9.21581 8.54713 9.36876 8.63362 9.49396C8.64094 9.50615 8.64825 9.51355 8.65556 9.52208C8.66044 9.53427 8.66409 9.53426 8.66897 9.54157H8.67384C8.7403 9.62088 8.82585 9.68195 8.92244 9.71906C9.01903 9.75616 9.12348 9.768 9.22594 9.75357H11.5757C12.3996 9.76576 12.3996 8.52263 11.5757 8.53482H9.75V7.31607H10.3594C11.1832 7.32826 11.1832 6.08513 10.3594 6.09732H9.75V4.87857H11.5757C12.3996 4.89076 12.3996 3.64763 11.5757 3.65982H9.08091L9.08212 3.65372ZM20.1094 3.66592C19.1076 3.66592 18.2812 4.49223 18.2812 5.49405C18.2812 6.49708 19.1076 7.32217 20.1094 7.32217H20.1191C20.4677 7.32217 20.7285 7.5842 20.7285 7.93155C20.7285 8.28011 20.4677 8.54092 20.1191 8.54092H18.9004C18.0765 8.52873 18.0765 9.77186 18.9004 9.75967H20.1191C21.1209 9.75967 21.9472 8.93458 21.9472 7.93155C21.9472 6.92973 21.1209 6.10342 20.1191 6.10342H20.1094C20.0288 6.10543 19.9487 6.09108 19.8738 6.06117C19.799 6.03126 19.731 5.98635 19.674 5.92936C19.617 5.87237 19.5722 5.80439 19.5423 5.72955C19.5124 5.65471 19.498 5.57462 19.5 5.49405C19.5 5.1467 19.7608 4.88467 20.1094 4.88467H21.3281C22.152 4.89686 22.152 3.65373 21.3281 3.66592H20.1094ZM26.8125 9.77187H32.9062V25.6034C32.9062 26.9648 31.8301 28.0409 30.4688 28.0409H29.25C27.8899 28.0409 26.8125 26.9648 26.8125 25.6034V11.4599V9.77187ZM3.65625 12.1972V13.4159H23.1562V12.1972H3.65625ZM4.26562 14.6347C4.10401 14.6347 3.94901 14.6989 3.83473 14.8132C3.72045 14.9275 3.65625 15.0824 3.65625 15.244V20.119C3.65625 20.2807 3.72045 20.4356 3.83473 20.5499C3.94901 20.6642 4.10401 20.7284 4.26562 20.7284H9.14062C9.30224 20.7284 9.45724 20.6642 9.57152 20.5499C9.6858 20.4356 9.75 20.2807 9.75 20.119V15.244C9.75 15.0824 9.6858 14.9275 9.57152 14.8132C9.45724 14.6989 9.30224 14.6347 9.14062 14.6347H4.26562ZM10.9688 14.6347V15.8534H23.1562V14.6347H10.9688ZM4.875 15.8534H8.53125V19.5097H4.875V15.8534ZM10.9688 17.0722V18.2909H23.1562V17.0722H10.9688ZM10.9688 19.5097V20.7284H23.1562V19.5097H10.9688ZM3.65625 21.9472V23.1659H17.0625V21.9472H3.65625ZM18.2812 21.9472V23.1659H23.1562V21.9472H18.2812ZM3.65625 24.3847V25.6034H17.0625V24.3847H3.65625ZM18.2812 24.3847V25.6034H23.1562V24.3847H18.2812Z" fill="url(#paint0_linear_280_519)"/>
<defs>
<linearGradient id="paint0_linear_280_519" x1="-3.50741" y1="-2.40056" x2="37.873" y2="4.98971" gradientUnits="userSpaceOnUse">
<stop stopColor="#FC365F"/>
<stop offset="0.984375" stopColor="#A00BFB"/>
</linearGradient>
</defs>
</svg>
