<svg width="39" height="39" viewBox="0 0 39 39" fill="none" xmlns="http://www.w3.org/2000/svg">
<path d="M11.6999 2C11.3409 2.00004 11.0499 2.29103 11.0499 2.65V8.5H9.85147H9.0999C8.74093 8.50004 8.44994 8.79103 8.4499 9.15V11.75H6.4999C5.07075 11.75 3.8999 12.9208 3.8999 14.35V26.05C3.8999 27.4792 5.07075 28.65 6.4999 28.65H8.4499V30.6C8.44994 30.959 8.74093 31.25 9.0999 31.25H11.0499V34.5C11.0499 34.859 11.3409 35.15 11.6999 35.15H27.2999C27.6589 35.15 27.9499 34.859 27.9499 34.5V31.25H29.8999C30.2589 31.25 30.5499 30.959 30.5499 30.6V28.65H32.4999C33.9291 28.65 35.0999 27.4792 35.0999 26.05V14.35C35.0999 12.9208 33.9291 11.75 32.4999 11.75H30.5499V9.15C30.5499 8.79103 30.2589 8.50004 29.8999 8.5H27.9499V2.65C27.9499 2.29103 27.6589 2.00004 27.2999 2H11.6999ZM12.3499 3.3H26.6499V11.75H12.3499V3.3ZM9.7499 9.8H9.85147H11.0499V11.75H9.7499V9.8ZM27.9499 9.8H29.2499V11.75H27.9499V9.8ZM6.4999 13.05H32.4999C33.2313 13.05 33.7999 13.6186 33.7999 14.35V19.55H29.7653C29.3258 19.5435 29.3258 20.2062 29.7653 20.2H33.7999V26.05C33.7999 26.7814 33.2313 27.35 32.4999 27.35H30.5499V24.75H31.5249C32.4039 24.7624 32.4039 23.4376 31.5249 23.45H7.4749C6.59589 23.4376 6.59589 24.7624 7.4749 24.75H8.4499V27.35H6.4999C5.76846 27.35 5.1999 26.7814 5.1999 26.05V18.25H7.7999C8.23941 18.2565 8.23941 17.5938 7.7999 17.6H5.1999V14.35C5.1999 13.6186 5.76846 13.05 6.4999 13.05ZM12.3499 14.35C11.6358 14.35 11.0499 14.9359 11.0499 15.65C11.0499 16.3641 11.6358 16.95 12.3499 16.95C13.064 16.95 13.6499 16.3641 13.6499 15.65C13.6499 14.9359 13.064 14.35 12.3499 14.35ZM8.38135 14.3526C7.97975 14.3741 7.60109 14.5812 7.36953 14.9277C7.06079 15.3898 7.08073 16.0001 7.41906 16.441C7.75736 16.8819 8.34138 17.0601 8.8676 16.8815C9.39378 16.7028 9.7499 16.2057 9.7499 15.65C9.7564 15.2105 9.09369 15.2105 9.0999 15.65C9.0999 15.9297 8.92421 16.1758 8.65938 16.2657C8.39454 16.3556 8.10473 16.2677 7.93447 16.0461C7.76421 15.8242 7.75373 15.522 7.90906 15.2895C8.06444 15.0569 8.34857 14.9492 8.61873 15.0216C9.05338 15.1628 9.23348 14.4888 8.7863 14.3944C8.65211 14.3585 8.51521 14.3455 8.38135 14.3526ZM12.3499 15C12.7127 15 12.9999 15.2872 12.9999 15.65C12.9999 16.0128 12.7127 16.3 12.3499 16.3C11.9871 16.3 11.6999 16.0128 11.6999 15.65C11.6999 15.2872 11.9871 15 12.3499 15ZM9.7499 17.6C9.3104 17.5935 9.3104 18.2562 9.7499 18.25H10.5243C10.9638 18.2565 10.9638 17.5938 10.5243 17.6H9.7499ZM12.2852 17.6C11.8457 17.5935 11.8457 18.2562 12.2852 18.25H32.4999C32.9394 18.2565 32.9394 17.5938 32.4999 17.6H12.2852ZM27.2352 19.55C26.7957 19.5435 26.7957 20.2062 27.2352 20.2H28.1162C28.5557 20.2065 28.5557 19.5438 28.1162 19.55H27.2352ZM9.7499 24.75H11.0499V29.95H9.7499V24.75ZM12.3499 24.75H26.6499V33.85H12.3499V24.75ZM27.9499 24.75H29.2499V29.95H27.9499V24.75ZM13.9749 26.05C13.5354 26.0435 13.5354 26.7062 13.9749 26.7H16.2499C16.6894 26.7065 16.6894 26.0438 16.2499 26.05H13.9749ZM18.1999 26.05C17.7604 26.0435 17.7604 26.7062 18.1999 26.7H25.0249C25.4644 26.7065 25.4644 26.0438 25.0249 26.05H18.1999ZM13.9749 27.35C13.5354 27.3435 13.5354 28.0062 13.9749 28H19.1432C19.5827 28.0065 19.5827 27.3438 19.1432 27.35H13.9749ZM20.3327 27.35C19.8932 27.3435 19.8932 28.0062 20.3327 28H25.0249C25.4644 28.0065 25.4644 27.3438 25.0249 27.35H20.3327ZM13.9749 28.65C13.5354 28.6435 13.5354 29.3062 13.9749 29.3H15.6672C16.1067 29.3065 16.1067 28.6438 15.6672 28.65H13.9749ZM17.0472 28.65C16.6077 28.6435 16.6077 29.3062 17.0472 29.3H25.0249C25.4644 29.3065 25.4644 28.6438 25.0249 28.65H17.0472ZM13.9749 29.95C13.5354 29.9435 13.5354 30.6062 13.9749 30.6H17.4242C17.8637 30.6065 17.8637 29.9438 17.4242 29.95H13.9749ZM18.5719 29.95C18.1324 29.9435 18.1324 30.6062 18.5719 30.6H20.824C21.2635 30.6065 21.2635 29.9438 20.824 29.95H18.5719ZM22.2053 29.95C21.7658 29.9435 21.7658 30.6062 22.2053 30.6H25.0249C25.4644 30.6065 25.4644 29.9438 25.0249 29.95H22.2053ZM13.9749 31.25C13.5354 31.2435 13.5354 31.9062 13.9749 31.9H16.1902C16.6297 31.9065 16.6297 31.2438 16.1902 31.25H13.9749ZM17.8571 31.25C17.4176 31.2435 17.4176 31.9062 17.8571 31.9H21.1249C21.5644 31.9065 21.5644 31.2438 21.1249 31.25H17.8571Z" fill="url(#paint0_linear_280_526)"/>
<defs>
<linearGradient id="paint0_linear_280_526" x1="0.693126" y1="-0.720632" x2="38.9395" y2="4.78972" gradientUnits="userSpaceOnUse">
<stop stop-color="#FC365F"/>
<stop offset="0.984375" stop-color="#A00BFB"/>
</linearGradient>
</defs>
</svg>
