<svg width="39" height="39" viewBox="0 0 39 39" fill="none" xmlns="http://www.w3.org/2000/svg">
<path d="M27.625 9.75V26.4538L30.0625 28.9092L32.5 26.4538V9.75H27.625ZM27.625 8.125H32.5V4.89892H27.625V8.125ZM34.125 11.375V26.7886C34.125 27.003 34.0402 27.2088 33.8891 27.361L30.6391 30.6349C30.3214 30.955 29.8036 30.955 29.4859 30.6349L26.2359 27.361C26.0848 27.2088 26 27.003 26 26.7886V22.75H25.1875C23.8413 22.75 22.75 21.6587 22.75 20.3125V15.4375C22.75 14.0913 23.8413 13 25.1875 13H26V11.375H9.75V23.5625C9.75 24.0112 9.38623 24.375 8.9375 24.375H8.125C5.43261 24.375 3.25 26.5576 3.25 29.25C3.25 31.9424 5.43261 34.125 8.125 34.125H35.75V11.375H34.125ZM34.125 9.75H36.5625C37.0112 9.75 37.375 10.1138 37.375 10.5625V34.9375C37.375 35.3862 37.0112 35.75 36.5625 35.75H8.125C4.53515 35.75 1.625 32.8399 1.625 29.25V10.5625C1.625 6.52392 4.89892 3.25 8.9375 3.25C9.38623 3.25 9.75 3.61377 9.75 4.0625V9.75H26V4.08642C26 3.63769 26.3638 3.27392 26.8125 3.27392H33.3125C33.7612 3.27392 34.125 3.63769 34.125 4.08642V9.75ZM26 14.625H25.1875C24.7388 14.625 24.375 14.9888 24.375 15.4375V20.3125C24.375 20.7612 24.7388 21.125 25.1875 21.125H26V14.625ZM3.25 24.9505C4.44103 23.6011 6.18362 22.75 8.125 22.75V4.9326C5.36876 5.32685 3.25 7.69724 3.25 10.5625V24.9505ZM13.8125 13H18.6875C20.0337 13 21.125 14.0913 21.125 15.4375V20.3125C21.125 21.6587 20.0337 22.75 18.6875 22.75H13.8125C12.4663 22.75 11.375 21.6587 11.375 20.3125V15.4375C11.375 14.0913 12.4663 13 13.8125 13ZM13.8125 14.625C13.3638 14.625 13 14.9888 13 15.4375V20.3125C13 20.7612 13.3638 21.125 13.8125 21.125H18.6875C19.1362 21.125 19.5 20.7612 19.5 20.3125V15.4375C19.5 14.9888 19.1362 14.625 18.6875 14.625H13.8125ZM12.1875 27.625C11.7388 27.625 11.375 27.2612 11.375 26.8125C11.375 26.3638 11.7388 26 12.1875 26H23.5625C24.0112 26 24.375 26.3638 24.375 26.8125C24.375 27.2612 24.0112 27.625 23.5625 27.625H12.1875ZM12.1875 30.875C11.7388 30.875 11.375 30.5112 11.375 30.0625C11.375 29.6138 11.7388 29.25 12.1875 29.25H25.1875C25.6362 29.25 26 29.6138 26 30.0625C26 30.5112 25.6362 30.875 25.1875 30.875H12.1875Z" fill="url(#paint0_linear_280_921)"/>
<defs>
<linearGradient id="paint0_linear_280_921" x1="-2.04943" y1="0.582714" x2="41.4508" y2="7.90762" gradientUnits="userSpaceOnUse">
<stop stopColor="#FC365F"/>
<stop offset="0.984375" stopColor="#A00BFB"/>
</linearGradient>
</defs>
</svg>
