<svg width="39" height="39" viewBox="0 0 39 39" fill="none" xmlns="http://www.w3.org/2000/svg">
<g clipPath="url(#clip0_280_927)">
<path d="M21.8705 37.6161L21.8192 37.6226C21.4819 37.6648 21.2425 37.9726 21.2846 38.3101C21.3236 38.6216 21.5888 38.8495 21.8949 38.8495C21.9204 38.8495 21.9461 38.8478 21.972 38.8446L22.0286 38.8373C22.3658 38.7938 22.6039 38.4849 22.5602 38.1477C22.5166 37.8104 22.207 37.5718 21.8705 37.6161Z" fill="url(#paint0_linear_280_927)"/>
<path d="M19.7364 37.7669C19.7338 37.7669 19.7312 37.7669 19.7287 37.767C19.6525 37.7679 19.5763 37.7684 19.5 37.7684C9.42673 37.7685 1.23155 29.5733 1.23155 19.5C1.23155 9.42673 9.42673 1.23155 19.5 1.23155C29.5733 1.23155 37.7685 9.42673 37.7685 19.5C37.7685 22.2835 37.1588 24.9557 35.9564 27.4424C35.8082 27.7486 35.9365 28.1169 36.2427 28.2649C36.5486 28.4128 36.9172 28.2848 37.0652 27.9785C38.349 25.3234 39 22.4708 39 19.5C39 14.2914 36.9717 9.39451 33.2886 5.71152C29.6055 2.0283 24.7086 0 19.5 0C14.2914 0 9.39451 2.0283 5.71144 5.71152C2.0283 9.39451 0 14.2914 0 19.5C0 24.7086 2.0283 29.6055 5.71144 33.2885C9.39451 36.9717 14.2914 39 19.5 39C19.5813 39 19.6626 38.9995 19.7438 38.9986C20.0838 38.9944 20.3561 38.7153 20.3519 38.3753C20.3478 38.0377 20.073 37.7669 19.7364 37.7669Z" fill="url(#paint1_linear_280_927)"/>
<path d="M32.76 21.2242H31.7599C31.464 21.2242 31.21 21.4346 31.1549 21.7252C31.0472 22.2934 30.8963 22.8577 30.7066 23.4027C30.5948 23.7238 30.7645 24.0749 31.0857 24.1867C31.4068 24.2984 31.7579 24.1288 31.8697 23.8076C32.0234 23.3662 32.154 22.9134 32.2597 22.4557H32.76C34.3899 22.4557 35.7158 21.1298 35.7158 19.5C35.7158 17.8701 34.3899 16.5442 32.76 16.5442H32.26C31.935 15.1319 31.3824 13.7983 30.6124 12.5679L30.9665 12.2138C32.1189 11.0613 32.1189 9.18613 30.9665 8.03357C29.8139 6.88124 27.9387 6.88132 26.7863 8.03357L26.4322 8.3877C25.2018 7.6176 23.8681 7.06505 22.4559 6.7401V6.23995C22.4559 4.6101 21.13 3.28418 19.5001 3.28418C17.8703 3.28418 16.5443 4.6101 16.5443 6.23995V6.74002C15.132 7.06497 13.7984 7.6176 12.568 8.38762L12.2139 8.0335C11.0614 6.88102 9.1862 6.88117 8.0338 8.0335C7.47546 8.59184 7.16811 9.33406 7.16811 10.1237C7.16811 10.9132 7.47561 11.6554 8.0338 12.2137L8.38785 12.5678C7.61775 13.7981 7.0652 15.1319 6.74017 16.5441H6.23995C4.6101 16.5441 3.28418 17.87 3.28418 19.4999C3.28418 21.1297 4.6101 22.4557 6.23995 22.4557H6.74002C7.06497 23.868 7.61767 25.2016 8.3877 26.432L8.03365 26.786C7.47531 27.3444 7.16795 28.0867 7.16795 28.8761C7.16795 29.6656 7.47546 30.4079 8.03365 30.9663C9.18605 32.1186 11.0613 32.1186 12.2137 30.9663L12.5679 30.6121C13.7983 31.3822 15.132 31.9348 16.5442 32.2597V32.7598C16.5442 34.3897 17.8701 35.7156 19.5 35.7156C21.1298 35.7156 22.4557 34.3897 22.4557 32.7598V32.2594C22.913 32.1539 23.366 32.0232 23.8076 31.8695C24.1288 31.7578 24.2986 31.4067 24.1868 31.0855C24.0751 30.7643 23.7241 30.5945 23.4028 30.7064C22.8572 30.8963 22.2929 31.047 21.7252 31.1546C21.4345 31.2098 21.2241 31.4638 21.2241 31.7597V32.7597C21.2241 33.7104 20.4506 34.484 19.4999 34.484C18.5491 34.484 17.7757 33.7104 17.7757 32.7597V31.7597C17.7757 31.4637 17.5652 31.2098 17.2747 31.1547C15.6754 30.8513 14.1808 30.2321 12.8323 29.3141C12.5877 29.1474 12.2595 29.1784 12.0503 29.3877L11.3429 30.0952C10.6706 30.7675 9.57666 30.7675 8.90452 30.0952C8.57881 29.7695 8.3995 29.3366 8.3995 28.8759C8.3995 28.4153 8.57881 27.9823 8.90452 27.6566L9.61201 26.9491C9.8211 26.74 9.8521 26.4116 9.68559 26.1672C8.76764 24.8188 8.14836 23.3242 7.84497 21.7249C7.78982 21.4343 7.53579 21.2239 7.23994 21.2239H6.23995C5.28918 21.2239 4.51573 20.4503 4.51573 19.4996C4.51573 18.5489 5.28918 17.7754 6.23995 17.7754H7.23994C7.53579 17.7754 7.78982 17.565 7.84497 17.2744C8.14844 15.6751 8.76764 14.1805 9.68559 12.8321C9.85202 12.5876 9.82117 12.2593 9.61201 12.0502L8.90452 11.3426C8.57881 11.017 8.3995 10.584 8.3995 10.1234C8.3995 9.66281 8.57881 9.22978 8.90452 8.90414C9.57681 8.23177 10.6706 8.23177 11.3429 8.90414L12.0503 9.61162C12.2596 9.82079 12.5878 9.85179 12.8323 9.68521C14.1807 8.76711 15.6754 8.14791 17.2746 7.84451C17.5653 7.78944 17.7756 7.53541 17.7756 7.23956V6.23995C17.7756 5.28925 18.549 4.51573 19.4998 4.51573C20.4505 4.51573 21.224 5.28925 21.224 6.23995V7.24001C21.224 7.53594 21.4345 7.7899 21.7251 7.84497C23.3244 8.14836 24.819 8.76756 26.1673 9.68559C26.4119 9.85225 26.7402 9.82117 26.9493 9.61201L27.6567 8.90452C28.329 8.23223 29.4229 8.23208 30.0951 8.90452C30.7674 9.57681 30.7674 10.6707 30.0951 11.3429L29.3876 12.0503C29.1785 12.2596 29.1476 12.5879 29.314 12.8323C30.232 14.1807 30.8512 15.6753 31.1546 17.2745C31.2097 17.5652 31.4637 17.7756 31.7596 17.7756H32.7598C33.7105 17.7756 34.484 18.5491 34.484 19.4998C34.4842 20.4506 33.7107 21.2242 32.76 21.2242Z" fill="url(#paint2_linear_280_927)"/>
<path d="M24.3048 37.1301L24.2395 37.1477C23.9111 37.236 23.7165 37.5738 23.8047 37.9022C23.8786 38.1771 24.1273 38.3584 24.399 38.3584C24.4519 38.3584 24.5057 38.3514 24.5592 38.3371L24.6283 38.3184C24.9564 38.2289 25.15 37.8905 25.0606 37.5624C24.9713 37.2342 24.6321 37.041 24.3048 37.1301Z" fill="url(#paint3_linear_280_927)"/>
<path d="M31.2497 25.7159C31.2495 25.7158 31.2493 25.7156 31.2491 25.7153C30.8226 25.2888 30.2556 25.054 29.6525 25.054C29.2606 25.054 28.8839 25.1532 28.5511 25.3396L27.4232 24.2117C29.541 20.6654 29.0748 15.9935 26.024 12.9428C22.4224 9.34135 16.5625 9.34135 12.9611 12.9428C11.2164 14.6874 10.2556 17.007 10.2556 19.4743C10.2556 21.9415 11.2164 24.2611 12.9611 26.0056C14.7057 27.7503 17.0252 28.7112 19.4924 28.7112C21.1883 28.7112 22.8144 28.2571 24.2319 27.4069L25.3578 28.5329C25.1714 28.8657 25.0722 29.2424 25.0722 29.6343C25.0722 30.2373 25.3071 30.8043 25.733 31.2302L32.8231 38.3386C33.2633 38.7787 33.8415 38.9988 34.4197 38.9988C34.9979 38.9988 35.5761 38.7787 36.0163 38.3386L38.3386 36.0163C39.2188 35.136 39.2189 33.7036 38.3392 32.8236L31.2497 25.7159ZM24.0069 26.0879C23.983 26.1018 23.9597 26.1175 23.9375 26.135C22.6327 27.0096 21.0987 27.4795 19.4925 27.4795C17.3542 27.4795 15.344 26.6468 13.832 25.1347C12.32 23.6227 11.4873 21.6124 11.4873 19.4742C11.4873 17.336 12.3199 15.3256 13.832 13.8137C15.3926 12.253 17.4425 11.4727 19.4925 11.4727C21.5425 11.4727 23.5925 12.253 25.1531 13.8137C27.9042 16.5648 28.2305 20.8367 26.1319 23.9484C26.1294 23.952 26.1268 23.9558 26.1243 23.9596C25.8437 24.3742 25.5201 24.7679 25.1532 25.1348C24.7971 25.4909 24.4133 25.8093 24.0069 26.0879ZM25.2587 26.6917C25.5243 26.4787 25.7796 26.2499 26.024 26.0056C26.2693 25.7603 26.4977 25.5047 26.7096 25.2399L27.6205 26.1508L26.169 27.6023L25.2587 26.6917ZM37.4677 35.1453L35.1454 37.4677C34.7453 37.8679 34.0942 37.8679 33.6946 37.4683L26.6045 30.3599C26.4106 30.1661 26.3038 29.9084 26.3038 29.6343C26.3038 29.3602 26.4106 29.1023 26.6045 28.9086L28.9268 26.5863C29.1206 26.3925 29.3783 26.2857 29.6524 26.2857C29.9264 26.2857 30.184 26.3923 30.3776 26.5858L37.4677 33.694C37.8679 34.0941 37.8679 34.7453 37.4677 35.1453Z" fill="url(#paint4_linear_280_927)"/>
<path d="M14.9931 14.975C12.5121 17.4561 12.5121 21.493 14.9931 23.974C16.2336 25.2144 17.8631 25.8347 19.4925 25.8347C21.122 25.8347 22.7515 25.2144 23.992 23.974C26.473 21.493 26.473 17.4561 23.992 14.975C21.5109 12.494 17.4741 12.494 14.9931 14.975ZM23.1212 23.103C22.1206 24.1034 20.8068 24.6037 19.4925 24.6036C18.1786 24.6034 16.8642 24.1033 15.864 23.1032C13.8633 21.1023 13.8633 17.8467 15.864 15.846C17.8648 13.8451 21.1206 13.8451 23.1211 15.846C25.1219 17.8466 25.1219 21.1023 23.1212 23.103Z" fill="url(#paint5_linear_280_927)"/>
<path d="M27.4423 35.9567L27.384 35.9849C27.0774 36.1321 26.948 36.4999 27.0952 36.8065C27.2011 37.0271 27.4214 37.156 27.6508 37.156C27.7402 37.156 27.8309 37.1364 27.9168 37.0952L27.9789 37.0654C28.285 36.9171 28.413 36.5489 28.2648 36.2428C28.1168 35.9366 27.7487 35.8085 27.4423 35.9567Z" fill="url(#paint6_linear_280_927)"/>
</g>
<defs>
<linearGradient id="paint0_linear_280_927" x1="21.1477" y1="37.5092" x2="22.7167" y2="37.7585" gradientUnits="userSpaceOnUse">
<stop stop-color="#FC365F"/>
<stop offset="0.984375" stop-color="#A00BFB"/>
</linearGradient>
<linearGradient id="paint1_linear_280_927" x1="-4.00847" y1="-3.20074" x2="43.6745" y2="4.09856" gradientUnits="userSpaceOnUse">
<stop stop-color="#FC365F"/>
<stop offset="0.984375" stop-color="#A00BFB"/>
</linearGradient>
<linearGradient id="paint2_linear_280_927" x1="-0.0491842" y1="0.622524" x2="39.603" y2="6.69252" gradientUnits="userSpaceOnUse">
<stop stop-color="#FC365F"/>
<stop offset="0.984375" stop-color="#A00BFB"/>
</linearGradient>
<linearGradient id="paint3_linear_280_927" x1="23.6499" y1="37.0058" x2="25.2352" y2="37.258" gradientUnits="userSpaceOnUse">
<stop stop-color="#FC365F"/>
<stop offset="0.984375" stop-color="#A00BFB"/>
</linearGradient>
<linearGradient id="paint4_linear_280_927" x1="7.30135" y1="7.88159" x2="42.4448" y2="13.2588" gradientUnits="userSpaceOnUse">
<stop stop-color="#FC365F"/>
<stop offset="0.984375" stop-color="#A00BFB"/>
</linearGradient>
<linearGradient id="paint5_linear_280_927" x1="11.8249" y1="12.0703" x2="27.3774" y2="14.4511" gradientUnits="userSpaceOnUse">
<stop stop-color="#FC365F"/>
<stop offset="0.984375" stop-color="#A00BFB"/>
</linearGradient>
<linearGradient id="paint6_linear_280_927" x1="26.9016" y1="35.7915" x2="28.4796" y2="36.039" gradientUnits="userSpaceOnUse">
<stop stop-color="#FC365F"/>
<stop offset="0.984375" stop-color="#A00BFB"/>
</linearGradient>
<clipPath id="clip0_280_927">
<rect width="39" height="39" fill="white"/>
</clipPath>
</defs>
</svg>
