<svg width="39" height="39" viewBox="0 0 39 39" fill="none" xmlns="http://www.w3.org/2000/svg">
<path d="M33.375 15.75C34.1081 15.7501 34.8279 15.9456 35.4603 16.3164C36.0928 16.6872 36.615 17.2198 36.9732 17.8594C37.3314 18.499 37.5127 19.2225 37.4984 19.9555C37.4841 20.6885 37.2747 21.4044 36.8918 22.0295C36.5089 22.6547 35.9663 23.1665 35.3199 23.5123C34.6734 23.8581 33.9465 24.0254 33.214 23.9969C32.4814 23.9684 31.7697 23.7452 31.1521 23.3503C30.5344 22.9554 30.0332 22.403 29.7 21.75H29.0175C24.975 21.795 23.55 23.025 21.285 27.255L21.1575 27.5025L21.0075 27.7875C19.6575 30.315 18.8925 31.4625 17.5125 32.6775C15.57 34.38 13.065 35.25 9.74997 35.25H9.29997C8.87891 36.0751 8.19238 36.7345 7.35095 37.1219C6.50953 37.5093 5.56219 37.6023 4.66152 37.3857C3.76085 37.1692 2.95928 36.6558 2.3859 35.9283C1.81253 35.2007 1.50073 34.3013 1.50073 33.375C1.50073 32.4487 1.81253 31.5493 2.3859 30.8217C2.95928 30.0942 3.76085 29.5808 4.66152 29.3643C5.56219 29.1478 6.50953 29.2407 7.35095 29.6281C8.19238 30.0155 8.87891 30.6749 9.29997 31.5H9.98247C14.1 31.455 15.5025 30.18 17.8425 25.7475L18 25.5C18.6394 24.1692 19.4215 22.9118 20.3325 21.75H9.29997C8.87891 22.5751 8.19238 23.2345 7.35095 23.6219C6.50953 24.0093 5.56219 24.1023 4.66152 23.8857C3.76085 23.6692 2.95928 23.1558 2.3859 22.4283C1.81253 21.7007 1.50073 20.8013 1.50073 19.875C1.50073 18.9487 1.81253 18.0493 2.3859 17.3217C2.95928 16.5942 3.76085 16.0808 4.66152 15.8643C5.56219 15.6477 6.50953 15.7407 7.35095 16.1281C8.19238 16.5155 8.87891 17.1749 9.29997 18H29.7C30.0343 17.3485 30.5352 16.7971 31.1517 16.4019C31.7682 16.0067 32.4784 15.7818 33.21 15.75H33.375ZM33.375 1.5C34.1081 1.50014 34.8279 1.69565 35.4603 2.0664C36.0928 2.43715 36.615 2.96976 36.9732 3.60938C37.3314 4.24901 37.5127 4.97254 37.4984 5.70551C37.4841 6.43847 37.2747 7.15438 36.8918 7.77954C36.5089 8.4047 35.9663 8.91652 35.3199 9.26231C34.6734 9.6081 33.9465 9.77536 33.214 9.74689C32.4814 9.71842 31.7697 9.49523 31.1521 9.10031C30.5344 8.70539 30.0332 8.153 29.7 7.5H9.29997C8.87891 8.32511 8.19238 8.98448 7.35095 9.3719C6.50953 9.75933 5.56219 9.85226 4.66152 9.63573C3.76085 9.4192 2.95928 8.90582 2.3859 8.17826C1.81253 7.45071 1.50073 6.55134 1.50073 5.625C1.50073 4.69867 1.81253 3.7993 2.3859 3.07175C2.95928 2.34419 3.76085 1.83081 4.66152 1.61428C5.56219 1.39775 6.50953 1.49068 7.35095 1.87811C8.19238 2.26553 8.87891 2.9249 9.29997 3.75H29.7C30.0456 3.07267 30.5718 2.50406 31.2203 2.10699C31.8689 1.70993 32.6145 1.49986 33.375 1.5Z" fill="url(#paint0_linear_280_925)"/>
<defs>
<linearGradient id="paint0_linear_280_925" x1="-2.19924" y1="-1.45453" x2="41.814" y2="5.28273" gradientUnits="userSpaceOnUse">
<stop stopColor="#FC365F"/>
<stop offset="0.984375" stopColor="#A00BFB"/>
</linearGradient>
</defs>
</svg>
