<svg width="39" height="39" viewBox="0 0 39 39" fill="none" xmlns="http://www.w3.org/2000/svg">
<path d="M35.75 17.875H19.5C19.069 17.875 18.6557 18.0462 18.351 18.351C18.0462 18.6557 17.875 19.069 17.875 19.5V35.75C17.875 36.181 18.0462 36.5943 18.351 36.899C18.6557 37.2038 19.069 37.375 19.5 37.375H35.75C36.181 37.375 36.5943 37.2038 36.899 36.899C37.2038 36.5943 37.375 36.181 37.375 35.75V19.5C37.375 19.069 37.2038 18.6557 36.899 18.351C36.5943 18.0462 36.181 17.875 35.75 17.875ZM34.125 34.125H21.125V21.125H34.125V34.125ZM3.25 21.125C2.81902 21.125 2.4057 20.9538 2.10095 20.649C1.7962 20.3443 1.625 19.931 1.625 19.5V3.25C1.625 2.81902 1.7962 2.4057 2.10095 2.10095C2.4057 1.7962 2.81902 1.625 3.25 1.625H19.5C19.931 1.625 20.3443 1.7962 20.649 2.10095C20.9538 2.4057 21.125 2.81902 21.125 3.25C21.125 3.68098 20.9538 4.0943 20.649 4.39905C20.3443 4.7038 19.931 4.875 19.5 4.875H4.875V19.5C4.875 19.931 4.7038 20.3443 4.39905 20.649C4.0943 20.9538 3.68098 21.125 3.25 21.125ZM27.625 9.75C28.056 9.75 28.4693 9.92121 28.774 10.226C29.0788 10.5307 29.25 10.944 29.25 11.375C29.25 11.806 29.0788 12.2193 28.774 12.524C28.4693 12.8288 28.056 13 27.625 13H13V27.625C13 28.056 12.8288 28.4693 12.524 28.774C12.2193 29.0788 11.806 29.25 11.375 29.25C10.944 29.25 10.5307 29.0788 10.226 28.774C9.92121 28.4693 9.75 28.056 9.75 27.625V11.375C9.75 10.944 9.92121 10.5307 10.226 10.226C10.5307 9.92121 10.944 9.75 11.375 9.75H27.625Z" fill="url(#paint0_linear_280_923)"/>
<defs>
<linearGradient id="paint0_linear_280_923" x1="-2.04943" y1="-1.30902" x2="41.6599" y2="5.38201" gradientUnits="userSpaceOnUse">
<stop stop-color="#FC365F"/>
<stop offset="0.984375" stop-color="#A00BFB"/>
</linearGradient>
</defs>
</svg>
