<svg width="74" height="74" viewBox="0 0 74 74" fill="none" xmlns="http://www.w3.org/2000/svg">
<g clipPath="url(#clip0_48_598)">
<path d="M57.365 15.645H33.8975C31.0173 15.645 28.6825 17.9799 28.6825 20.86V44.3275C28.6825 47.2077 31.0173 49.5425 33.8975 49.5425H57.365C60.2452 49.5425 62.58 47.2077 62.58 44.3275V20.86C62.58 17.9799 60.2452 15.645 57.365 15.645Z" stroke="white" stroke-width="5" stroke-linecap="round" stroke-linejoin="round"/>
<path d="M20.86 62.5799H60.5462C61.9143 62.5857 63.2253 63.1288 64.1967 64.0923L70.4025 70.4024M20.86 62.5799C20.8858 62.1457 20.8858 61.7104 20.86 61.2762C20.6912 58.9321 19.6195 56.745 17.8706 55.1752C16.1216 53.6054 13.8319 52.7753 11.4832 52.8598C9.13463 52.9443 6.91039 53.9367 5.27874 55.6281C3.64708 57.3195 2.73529 59.5779 2.73529 61.928C2.73529 64.2782 3.64708 66.5366 5.27874 68.228C6.91039 69.9194 9.13463 70.9118 11.4832 70.9963C13.8319 71.0808 16.1216 70.2507 17.8706 68.6809C19.6195 67.1111 20.6912 64.924 20.86 62.5799ZM2.60754 2.60742H7.82254C9.20565 2.60742 10.5321 3.15686 11.5101 4.13486C12.4881 5.11286 13.0375 6.43932 13.0375 7.82242V52.1499M44.3275 36.5049H49.5425" stroke="white" stroke-width="5" stroke-linecap="round" stroke-linejoin="round"/>
</g>
<defs>
<clipPath id="clip0_48_598">
<rect width="73.01" height="73.01" fill="white"/>
</clipPath>
</defs>
</svg>
