<svg width="30" height="28" viewBox="0 0 30 28" fill="none" xmlns="http://www.w3.org/2000/svg">
<path d="M0.05625 21.5249C0.14625 21.3799 0.29 21.3699 0.49125 21.4974C5.03625 24.1349 9.98375 25.4549 15.3287 25.4549C18.8937 25.4549 22.4137 24.7887 25.8875 23.4612L26.2812 23.2862C26.4537 23.2112 26.5738 23.1612 26.6475 23.1237C26.93 23.0137 27.135 23.0662 27.3038 23.2862C27.4538 23.5037 27.4163 23.7062 27.1537 23.8862C26.8337 24.1237 26.4037 24.3987 25.8962 24.7037C24.3412 25.6324 22.5962 26.3487 20.665 26.8612C16.1416 28.0832 11.3462 27.8306 6.97625 26.1399C4.48099 25.1623 2.1819 23.7439 0.18875 21.9524C0.06375 21.8599 0 21.7649 0 21.6774C0 21.6187 0.02625 21.5649 0.06375 21.5149L0.05625 21.5249ZM8.2625 13.7524C8.2625 12.4962 8.57125 11.4237 9.19125 10.5312C9.81 9.64369 10.6537 8.96869 11.7412 8.51244C12.7362 8.09369 13.9363 7.79369 15.3813 7.61244C15.8688 7.55494 16.6725 7.48369 17.7812 7.39494V6.93244C17.7812 5.76994 17.65 4.98494 17.4062 4.58869C17.0287 4.05119 16.4312 3.77619 15.6062 3.77619H15.3788C14.7788 3.83369 14.2587 4.02119 13.8212 4.35119C13.3837 4.68869 13.1025 5.13869 12.9775 5.72119C12.9025 6.09619 12.72 6.30244 12.4337 6.35869L9.28375 5.96494C8.97375 5.88994 8.81875 5.73994 8.81875 5.47744C8.81875 5.41994 8.8275 5.36494 8.84625 5.28994C9.155 3.67744 9.915 2.47744 11.1213 1.68994C12.3413 0.919941 13.7463 0.471191 15.3587 0.377441H16.0337C18.0962 0.377441 19.73 0.919941 20.8937 1.98994C21.0625 2.17744 21.2313 2.36494 21.4 2.58994C21.55 2.79619 21.68 2.98244 21.7537 3.15244C21.8475 3.31994 21.9412 3.56494 21.9975 3.86494C22.0725 4.18244 22.1287 4.38994 22.1663 4.50244C22.2038 4.63244 22.2437 4.87744 22.2612 5.27119C22.2738 5.66244 22.2863 5.88744 22.2863 5.96244V12.5624C22.2863 13.0324 22.3612 13.4624 22.4925 13.8574C22.6237 14.2487 22.755 14.5324 22.8862 14.6999L23.5238 15.5424C23.6362 15.7124 23.6938 15.8624 23.6938 15.9924C23.6938 16.1424 23.6187 16.2749 23.4688 16.3849C21.9688 17.6974 21.1438 18.4099 21.015 18.5224C20.8088 18.6912 20.5462 18.7099 20.2275 18.5787C19.9962 18.3853 19.7766 18.1783 19.57 17.9587L19.1825 17.5249C19.0455 17.3537 18.9134 17.1786 18.7863 16.9999L18.4113 16.4562C17.3988 17.5637 16.4075 18.2562 15.4113 18.5374C14.7938 18.7249 14.045 18.8212 13.1237 18.8212C11.7362 18.8212 10.5737 18.3924 9.67375 17.5287C8.77375 16.6662 8.32375 15.4474 8.32375 13.8537L8.26125 13.7587L8.2625 13.7524ZM12.9537 13.2049C12.9537 13.9124 13.1287 14.4799 13.485 14.9099C13.8413 15.3349 14.3287 15.5499 14.9288 15.5499C14.985 15.5499 15.0612 15.5412 15.1725 15.5249C15.285 15.5049 15.34 15.4962 15.38 15.4962C16.1475 15.2962 16.73 14.8049 17.16 14.0237C17.3662 13.6737 17.5163 13.2987 17.61 12.8862C17.7225 12.4862 17.76 12.1487 17.7787 11.8862C17.7975 11.6424 17.7975 11.2112 17.7975 10.6299V9.95494C16.7475 9.95494 15.9425 10.0299 15.3975 10.1799C13.8038 10.6299 12.9975 11.6424 12.9975 13.2174L12.9537 13.1924V13.2049ZM24.4062 21.9887C24.4438 21.9137 24.5 21.8512 24.5712 21.7762C25.0238 21.4724 25.4638 21.2637 25.8838 21.1512C26.5436 20.9837 27.2187 20.8831 27.8988 20.8512C28.0737 20.8362 28.2488 20.8512 28.4113 20.8887C29.2237 20.9637 29.7237 21.0987 29.8762 21.3012C29.955 21.4137 30 21.5862 30 21.7887V21.9762C30 22.6137 29.8138 23.3637 29.47 24.2262C29.1225 25.0887 28.64 25.7862 28.025 26.3262C27.9338 26.4012 27.85 26.4387 27.7787 26.4387C27.7412 26.4387 27.7037 26.4387 27.6662 26.4237C27.5537 26.3687 27.5325 26.2737 27.5863 26.1237C28.2612 24.5487 28.5938 23.4449 28.5938 22.8237C28.5938 22.6362 28.5562 22.4862 28.485 22.3937C28.3038 22.1862 27.7975 22.0724 26.955 22.0724C26.6512 22.0724 26.2887 22.0924 25.8675 22.1299C25.4137 22.1862 24.9925 22.2424 24.6175 22.2987C24.505 22.2987 24.4325 22.2812 24.3925 22.2437C24.355 22.2062 24.3475 22.1849 24.3675 22.1474C24.3675 22.1262 24.375 22.1099 24.3925 22.0687V21.9937L24.4062 21.9887Z" fill="url(#paint0_linear_295_495)"/>
<defs>
<linearGradient id="paint0_linear_295_495" x1="-3.27463" y1="-7.65036" x2="36.3324" y2="-2.71005" gradientUnits="userSpaceOnUse">
<stop stopColor="#FFBC21"/>
<stop offset="0.1344" stopColor="#FD843A"/>
<stop offset="0.2742" stopColor="#FC5554"/>
<stop offset="0.4301" stopColor="#FC365F"/>
<stop offset="0.6129" stopColor="#F02E6B"/>
<stop offset="0.817759" stopColor="#DD3578"/>
<stop offset="1" stopColor="#81399D"/>
</linearGradient>
</defs>
</svg>
