<svg width="30" height="30" viewBox="0 0 30 30" fill="none" xmlns="http://www.w3.org/2000/svg">
<g clipPath="url(#clip0_295_498)">
<path d="M21.875 16.9987C21.46 16.9417 21.0431 16.9004 20.625 16.8749C19.6304 16.8749 18.6766 17.27 17.9733 17.9733C17.2701 18.6766 16.875 19.6304 16.875 20.6249V21.8749H22.7213C22.9753 21.8748 23.226 21.8161 23.4537 21.7035C23.6815 21.5908 23.8802 21.4271 24.0345 21.2252C24.1887 21.0233 24.2944 20.7886 24.3433 20.5392C24.3921 20.2899 24.3829 20.0326 24.3162 19.7874L22.5 13.0449M8.75 25.6249H30M8.75 29.3749C7.5 29.3749 6.5625 27.4999 6.5625 27.4999C5.625 25.6249 5.625 24.3749 5.625 22.4999V21.2499L0.625 17.1874V16.8749L2.86125 10.6137C3.12137 9.88535 3.60032 9.25526 4.23248 8.80972C4.86465 8.36418 5.61911 8.125 6.3925 8.12494H8.125V12.4324C8.1249 12.7793 8.21767 13.1198 8.39367 13.4187C8.56967 13.7176 8.82248 13.9639 9.12584 14.132C9.4292 14.3001 9.77205 14.384 10.1188 14.3748C10.4655 14.3657 10.8034 14.2639 11.0975 14.0799L15.625 11.2499M0.625 29.6874C0.625 29.6874 2.5 26.2499 2.5 21.8749M29.8125 17.9774C28.3067 17.8014 26.8017 17.6185 25.2975 17.4287L29.8125 17.9774ZM14.375 19.8749C14.375 19.8749 13.125 21.8749 11.5625 21.8749C10.9823 21.8749 10.4259 21.6445 10.0157 21.2342C9.60547 20.824 9.375 20.2676 9.375 19.6874C9.375 18.4799 10.3537 17.5049 11.5625 17.5049C13.125 17.5049 14.375 19.4999 14.375 19.4999V19.8749ZM21.875 13.1249C21.212 13.1249 20.5761 12.8615 20.1072 12.3927C19.6384 11.9239 19.375 11.288 19.375 10.6249C19.375 9.9619 19.6384 9.32602 20.1072 8.85717C20.5761 8.38833 21.212 8.12494 21.875 8.12494C22.538 8.12494 23.1739 8.38833 23.6428 8.85717C24.1116 9.32602 24.375 9.9619 24.375 10.6249C24.375 11.288 24.1116 11.9239 23.6428 12.3927C23.1739 12.8615 22.538 13.1249 21.875 13.1249ZM8.875 5.62494C8.875 5.62494 6.875 4.37494 6.875 2.81244C6.875 2.23294 7.1052 1.67718 7.51497 1.26741C7.92474 0.857646 8.4805 0.627441 9.06 0.627441C9.6395 0.627441 10.1953 0.857646 10.605 1.26741C11.0148 1.67718 11.245 2.23294 11.245 2.81244C11.245 4.37494 9.25 5.62494 9.25 5.62494H8.875Z" stroke="url(#paint0_linear_295_498)"/>
</g>
<defs>
<linearGradient id="paint0_linear_295_498" x1="-2.3942" y1="-1.75752" x2="33.5029" y2="3.79717" gradientUnits="userSpaceOnUse">
<stop stopColor="#FC365F"/>
<stop offset="0.984375" stopColor="#A00BFB"/>
</linearGradient>
<clipPath id="clip0_295_498">
<rect width="30" height="30" fill="white"/>
</clipPath>
</defs>
</svg>
