<svg width="30" height="30" viewBox="0 0 30 30" fill="none" xmlns="http://www.w3.org/2000/svg">
<path d="M8.13981 11.7581C8.1395 11.7581 8.14004 11.7581 8.13981 11.7581H3.13905C2.79405 11.7579 2.51428 12.0374 2.51405 12.3823C2.51405 12.3821 2.51405 12.3826 2.51405 12.3823V27.3831C2.51382 27.7281 2.79336 28.0079 3.13828 28.0081C3.13805 28.0081 3.13859 28.0081 3.13828 28.0081H8.13905C8.48405 28.0083 8.76382 27.7288 8.76405 27.3838C8.76405 27.3836 8.76405 27.384 8.76405 27.3838V12.3831C8.76427 12.0381 8.48473 11.7583 8.13981 11.7581ZM7.51405 26.7581H3.76405V13.0081H7.51405V26.7581ZM21.264 11.7581C19.908 11.7582 18.5899 12.2057 17.514 13.0313V12.3831C17.5143 12.0381 17.2347 11.7583 16.8898 11.7581C16.8895 11.7581 16.89 11.7581 16.8898 11.7581H11.889C11.544 11.7579 11.2643 12.0374 11.264 12.3823C11.264 12.3821 11.264 12.3826 11.264 12.3823V27.3831C11.2638 27.7281 11.5434 28.0079 11.8884 28.0081C11.8881 28.0081 11.8886 28.0081 11.8884 28.0081H16.889C17.234 28.0083 17.5138 27.7288 17.514 27.3838C17.514 27.3836 17.514 27.384 17.514 27.3838V20.5081C17.514 19.4726 18.3535 18.6331 19.389 18.6331C20.4246 18.6331 21.264 19.4726 21.264 20.5081V27.3831C21.2638 27.7281 21.5434 28.0079 21.8884 28.0081C21.8881 28.0081 21.8886 28.0081 21.8884 28.0081H26.889C27.234 28.0083 27.5138 27.7288 27.514 27.3838C27.514 27.3836 27.514 27.384 27.514 27.3838V18.0081C27.51 14.558 24.7141 11.7621 21.264 11.7581ZM26.264 26.7581H22.514V20.5081C22.514 18.7822 21.115 17.3831 19.389 17.3831C17.6631 17.3831 16.264 18.7822 16.264 20.5081V26.7581H12.514V13.0081H16.264V14.512C16.264 14.7776 16.432 15.0141 16.6828 15.1016C16.933 15.1918 17.2128 15.1116 17.3774 14.9026C19.0806 12.7441 22.2111 12.3751 24.3696 14.0783C25.5719 15.0271 26.2707 16.4765 26.264 18.0081V26.7581ZM6.09902 3.01038C5.952 3.00008 5.80445 2.99932 5.65736 3.00809C3.77076 2.87923 2.13693 4.30418 2.00807 6.19077C2.00288 6.26669 2.00028 6.34267 2.00013 6.41874C1.98388 8.28931 3.4871 9.81886 5.35767 9.83511C5.43404 9.83579 5.51034 9.83381 5.58656 9.82931H5.62196C7.50497 9.96107 9.13819 8.54139 9.26995 6.65838C9.40171 4.77537 7.98203 3.14214 6.09902 3.01038ZM6.05584 8.58289C5.91149 8.59617 5.76608 8.59502 5.62196 8.57931H5.58656C4.39141 8.67117 3.34817 7.77685 3.25631 6.5817C3.16445 5.38663 4.05877 4.34332 5.25391 4.25146C5.38834 4.24116 5.52338 4.24337 5.65736 4.25809C6.85159 4.14808 7.90894 5.02698 8.01904 6.22121C8.12905 7.41552 7.25015 8.47288 6.05584 8.58289Z" fill="url(#paint0_linear_295_517)"/>
<defs>
<linearGradient id="paint0_linear_295_517" x1="-0.622366" y1="0.947577" x2="30.5429" y2="5.81488" gradientUnits="userSpaceOnUse">
<stop stopColor="#FC365F"/>
<stop offset="0.984375" stopColor="#A00BFB"/>
</linearGradient>
</defs>
</svg>
