<svg width="15" height="15" viewBox="0 0 15 15" fill="none" xmlns="http://www.w3.org/2000/svg">
<g clip-path="url(#clip0_295_522)">
<path d="M8.16094 0C8.03438 0 7.93359 0.100781 7.93359 0.227344V6.83906C7.93359 6.96563 8.03438 7.06641 8.16094 7.06641H14.7727C14.8992 7.06641 15 6.96563 15 6.83906C15 3.06797 11.932 0 8.16094 0ZM8.38828 6.61172V0.459375C11.7281 0.576563 14.4234 3.27187 14.5406 6.61172H8.38828Z" fill="black"/>
<path d="M13.4484 7.93359H7.06641V1.55156C7.06641 1.425 6.96563 1.32422 6.83906 1.32422C3.06797 1.32422 0 4.38984 0 8.16094C0 9.98672 0.710156 11.7047 2.00156 12.9961C3.29297 14.2898 5.01094 15 6.83906 15C10.6102 15 13.6781 11.932 13.6781 8.16094C13.6771 8.10054 13.6526 8.04293 13.6096 8.00044C13.5667 7.95795 13.5088 7.93395 13.4484 7.93359ZM6.61172 1.78125V8.06719L2.16797 12.5109C1.06172 11.325 0.454688 9.78984 0.454688 8.16094C0.454688 4.71797 3.19687 1.90078 6.61172 1.78125ZM6.83906 14.5453C5.21016 14.5453 3.675 13.9383 2.48906 12.832L6.93281 8.38828H13.2188C13.0992 11.8031 10.282 14.5453 6.83906 14.5453Z" fill="black"/>
</g>
<defs>
<clipPath id="clip0_295_522">
<rect width="15" height="15" fill="white"/>
</clipPath>
</defs>
</svg>
