<svg width="15" height="15" viewBox="0 0 15 15" fill="none" xmlns="http://www.w3.org/2000/svg">
<path d="M12.1875 8.14684V6.24996C12.1875 5.6698 11.957 5.1134 11.5468 4.70316C11.1366 4.29293 10.5802 4.06246 10 4.06246C9.41984 4.06246 8.86344 4.29293 8.45321 4.70316C8.04297 5.1134 7.8125 5.6698 7.8125 6.24996V9.68746C7.8125 10.1847 7.61496 10.6617 7.26333 11.0133C6.9117 11.3649 6.43478 11.5625 5.9375 11.5625C5.44022 11.5625 4.96331 11.3649 4.61168 11.0133C4.26005 10.6617 4.0625 10.1847 4.0625 9.68746V8.74996C4.8602 8.66979 5.59658 8.2861 6.11933 7.67825C6.64208 7.0704 6.91122 6.28489 6.87109 5.48418C6.83095 4.68347 6.48461 3.92881 5.90369 3.37628C5.32277 2.82375 4.55172 2.51562 3.75 2.51562C2.94829 2.51562 2.17723 2.82375 1.59632 3.37628C1.0154 3.92881 0.669058 4.68347 0.628922 5.48418C0.588786 6.28489 0.857926 7.0704 1.38068 7.67825C1.90343 8.2861 2.6398 8.66979 3.4375 8.74996V9.68746C3.4375 10.3505 3.7009 10.9864 4.16974 11.4552C4.63858 11.9241 5.27446 12.1875 5.9375 12.1875C6.60054 12.1875 7.23643 11.9241 7.70527 11.4552C8.17411 10.9864 8.4375 10.3505 8.4375 9.68746V6.24996C8.4375 5.83556 8.60212 5.43813 8.89515 5.14511C9.18818 4.85208 9.5856 4.68746 10 4.68746C10.4144 4.68746 10.8118 4.85208 11.1049 5.14511C11.3979 5.43813 11.5625 5.83556 11.5625 6.24996V8.14684C10.9587 8.2229 10.4035 8.51657 10.0008 8.97278C9.59804 9.429 9.37556 10.0164 9.375 10.625V12.5C9.375 13.163 9.6384 13.7989 10.1072 14.2677C10.5761 14.7366 11.212 15 11.875 15C12.538 15 13.1739 14.7366 13.6428 14.2677C14.1116 13.7989 14.375 13.163 14.375 12.5V10.625C14.3745 10.0164 14.152 9.429 13.7493 8.97278C13.3465 8.51657 12.7913 8.2229 12.1875 8.14684ZM1.25 5.62496C1.25 5.13051 1.39663 4.64716 1.67133 4.23603C1.94603 3.82491 2.33648 3.50448 2.79329 3.31526C3.25011 3.12604 3.75278 3.07653 4.23773 3.173C4.72268 3.26946 5.16814 3.50756 5.51777 3.85719C5.8674 4.20682 6.1055 4.65228 6.20197 5.13723C6.29843 5.62219 6.24892 6.12485 6.0597 6.58167C5.87048 7.03848 5.55005 7.42893 5.13893 7.70363C4.72781 7.97834 4.24446 8.12496 3.75 8.12496C3.08696 8.12496 2.45108 7.86157 1.98224 7.39273C1.5134 6.92389 1.25 6.288 1.25 5.62496ZM13.75 12.5C13.75 12.9972 13.5525 13.4742 13.2008 13.8258C12.8492 14.1774 12.3723 14.375 11.875 14.375C11.3777 14.375 10.9008 14.1774 10.5492 13.8258C10.1975 13.4742 10 12.9972 10 12.5V10.625C10 10.1277 10.1975 9.65077 10.5492 9.29914C10.9008 8.9475 11.3777 8.74996 11.875 8.74996C12.3723 8.74996 12.8492 8.9475 13.2008 9.29914C13.5525 9.65077 13.75 10.1277 13.75 10.625V12.5Z" fill="black"/>
<path d="M4.06235 7.13125C4.26903 7.05626 4.44277 6.91101 4.55322 6.7209C4.66366 6.53078 4.70377 6.3079 4.66654 6.09122C4.62931 5.87453 4.5171 5.67782 4.34954 5.53547C4.18197 5.39313 3.96971 5.31421 3.74985 5.3125C3.68804 5.3125 3.62762 5.29417 3.57623 5.25983C3.52484 5.2255 3.48479 5.17669 3.46114 5.11959C3.43749 5.06249 3.4313 4.99965 3.44335 4.93903C3.45541 4.87842 3.48518 4.82273 3.52888 4.77903C3.57258 4.73533 3.62827 4.70556 3.68888 4.6935C3.7495 4.68145 3.81234 4.68764 3.86944 4.71129C3.92654 4.73494 3.97535 4.77499 4.00968 4.82638C4.04402 4.87777 4.06235 4.93819 4.06235 5C4.06235 5.08288 4.09527 5.16237 4.15388 5.22097C4.21248 5.27958 4.29197 5.3125 4.37485 5.3125C4.45773 5.3125 4.53722 5.27958 4.59582 5.22097C4.65443 5.16237 4.68735 5.08288 4.68735 5C4.68681 4.80658 4.62645 4.61806 4.51456 4.46029C4.40266 4.30252 4.24471 4.18322 4.06235 4.11875C4.06235 4.03587 4.02943 3.95638 3.97082 3.89778C3.91222 3.83917 3.83273 3.80625 3.74985 3.80625C3.66697 3.80625 3.58748 3.83917 3.52888 3.89778C3.47027 3.95638 3.43735 4.03587 3.43735 4.11875C3.23067 4.19374 3.05693 4.33899 2.94648 4.5291C2.83604 4.71922 2.79593 4.9421 2.83316 5.15878C2.87039 5.37547 2.9826 5.57218 3.15016 5.71453C3.31773 5.85687 3.52999 5.93579 3.74985 5.9375C3.81166 5.9375 3.87208 5.95583 3.92347 5.99017C3.97486 6.0245 4.01491 6.07331 4.03856 6.13041C4.06221 6.18751 4.0684 6.25035 4.05635 6.31097C4.04429 6.37158 4.01452 6.42727 3.97082 6.47097C3.92712 6.51468 3.87143 6.54444 3.81082 6.5565C3.7502 6.56855 3.68736 6.56236 3.63026 6.53871C3.57316 6.51506 3.52435 6.47501 3.49002 6.42362C3.45568 6.37223 3.43735 6.31181 3.43735 6.25C3.43735 6.16712 3.40443 6.08763 3.34582 6.02903C3.28722 5.97042 3.20773 5.9375 3.12485 5.9375C3.04197 5.9375 2.96248 5.97042 2.90388 6.02903C2.84527 6.08763 2.81235 6.16712 2.81235 6.25C2.81289 6.44342 2.87325 6.63194 2.98514 6.78971C3.09704 6.94748 3.25499 7.06678 3.43735 7.13125C3.43735 7.21413 3.47027 7.29362 3.52888 7.35222C3.58748 7.41083 3.66697 7.44375 3.74985 7.44375C3.83273 7.44375 3.91222 7.41083 3.97082 7.35222C4.02943 7.29362 4.06235 7.21413 4.06235 7.13125ZM4.06235 1.25V0.3125C4.06235 0.22962 4.02943 0.150134 3.97082 0.0915291C3.91222 0.032924 3.83273 0 3.74985 0C3.66697 0 3.58748 0.032924 3.52888 0.0915291C3.47027 0.150134 3.43735 0.22962 3.43735 0.3125V1.25C3.43735 1.33288 3.47027 1.41237 3.52888 1.47097C3.58748 1.52958 3.66697 1.5625 3.74985 1.5625C3.83273 1.5625 3.91222 1.52958 3.97082 1.47097C4.02943 1.41237 4.06235 1.33288 4.06235 1.25ZM2.20298 2.01875C2.26276 2.06995 2.33966 2.0967 2.4183 2.09366C2.49695 2.09062 2.57156 2.05802 2.62721 2.00236C2.68287 1.94671 2.71547 1.8721 2.71851 1.79345C2.72155 1.71481 2.6948 1.63791 2.6436 1.57812L1.9811 0.915625C1.92132 0.864429 1.84442 0.837677 1.76577 0.840715C1.68712 0.843753 1.61252 0.876357 1.55686 0.932012C1.50121 0.987666 1.4686 1.06227 1.46557 1.14092C1.46253 1.21957 1.48928 1.29647 1.54047 1.35625L2.20298 2.01875ZM5.07485 2.1125C5.24673 2.1125 5.24985 2.06875 5.95923 1.35625C6.01042 1.29647 6.03717 1.21957 6.03414 1.14092C6.0311 1.06227 5.99849 0.987666 5.94284 0.932012C5.88718 0.876357 5.81258 0.843753 5.73393 0.840715C5.65528 0.837677 5.57838 0.864429 5.5186 0.915625L4.8561 1.57812C4.81222 1.62165 4.78223 1.6772 4.76992 1.73777C4.75761 1.79834 4.76354 1.86119 4.78695 1.91839C4.81037 1.97559 4.85022 2.02456 4.90146 2.05911C4.95271 2.09366 5.01305 2.11224 5.07485 2.1125ZM11.5624 10V10.625C11.5624 10.7079 11.5953 10.7874 11.6539 10.846C11.7125 10.9046 11.792 10.9375 11.8749 10.9375C11.9577 10.9375 12.0372 10.9046 12.0958 10.846C12.1544 10.7874 12.1874 10.7079 12.1874 10.625V10C12.1874 9.91712 12.1544 9.83763 12.0958 9.77903C12.0372 9.72042 11.9577 9.6875 11.8749 9.6875C11.792 9.6875 11.7125 9.72042 11.6539 9.77903C11.5953 9.83763 11.5624 9.91712 11.5624 10Z" fill="black"/>
</svg>
