<svg width="30" height="30" viewBox="0 0 30 30" fill="none" xmlns="http://www.w3.org/2000/svg">
<path d="M21.4158 1.77387C21.3776 1.73449 21.3319 1.70319 21.2813 1.68181C21.2308 1.66043 21.1765 1.64942 21.1216 1.64941H10.8091C10.2343 1.65005 9.68323 1.87866 9.2768 2.2851C8.87036 2.69153 8.64175 3.2426 8.64111 3.81738V5.76486H5.53564C4.96086 5.76551 4.40981 5.99413 4.00338 6.40057C3.59695 6.807 3.36833 7.35805 3.36768 7.93283V26.1826C3.36833 26.7574 3.59695 27.3085 4.00338 27.7149C4.40981 28.1213 4.96086 28.3499 5.53564 28.3506H19.1903C19.7651 28.3499 20.3162 28.1213 20.7226 27.7149C21.129 27.3085 21.3577 26.7574 21.3583 26.1826V24.2333H24.4638C25.0386 24.2327 25.5896 24.0041 25.9961 23.5976C26.4025 23.1912 26.6311 22.6401 26.6317 22.0654V7.31297C26.6317 7.20629 26.5902 7.1038 26.5158 7.02727L21.4158 1.77387ZM21.5317 3.0709L25.2515 6.90293H22.0768C21.9324 6.90276 21.7939 6.84529 21.6917 6.74314C21.5896 6.64098 21.5321 6.50248 21.5319 6.35801V3.0709H21.5317ZM20.538 26.1826C20.5376 26.5399 20.3955 26.8825 20.1428 27.1351C19.8902 27.3878 19.5476 27.5299 19.1903 27.5303H5.53588C5.17858 27.5299 4.83603 27.3878 4.58339 27.1351C4.33074 26.8825 4.18863 26.5399 4.18822 26.1826V7.93277C4.18863 7.57548 4.33074 7.23293 4.58339 6.98028C4.83603 6.72763 5.17858 6.58552 5.53588 6.58512H8.64135V22.0656C8.64198 22.6404 8.8706 23.1914 9.27703 23.5979C9.68347 24.0043 10.2345 24.2329 10.8093 24.2336H20.538V26.1826ZM24.4638 23.413H10.8093C10.452 23.4126 10.1095 23.2705 9.85681 23.0179C9.60416 22.7652 9.46205 22.4227 9.46166 22.0654V3.81721C9.46205 3.45991 9.60416 3.11735 9.85681 2.8647C10.1095 2.61205 10.452 2.46994 10.8093 2.46955H20.7117V6.35771C20.7121 6.71967 20.8561 7.06668 21.112 7.32262C21.3679 7.57856 21.7149 7.72253 22.0769 7.72295H25.8114V22.0654C25.811 22.4227 25.6689 22.7652 25.4162 23.0179C25.1636 23.2705 24.8211 23.4126 24.4638 23.413Z" fill="url(#paint0_linear_295_519)"/>
<path d="M22.9865 19.8808H11.9932C11.8844 19.8808 11.7801 19.924 11.7031 20.0009C11.6262 20.0778 11.583 20.1821 11.583 20.2909C11.583 20.3997 11.6262 20.504 11.7031 20.5809C11.7801 20.6579 11.8844 20.7011 11.9932 20.7011H22.9865C23.0953 20.7011 23.1996 20.6579 23.2765 20.5809C23.3535 20.504 23.3967 20.3997 23.3967 20.2909C23.3967 20.1821 23.3535 20.0778 23.2765 20.0009C23.1996 19.924 23.0953 19.8808 22.9865 19.8808ZM11.9932 18.1266H18.5744C18.6832 18.1266 18.7875 18.0834 18.8644 18.0065C18.9414 17.9295 18.9846 17.8252 18.9846 17.7164C18.9846 17.6076 18.9414 17.5033 18.8644 17.4264C18.7875 17.3495 18.6832 17.3063 18.5744 17.3063H11.9932C11.8844 17.3063 11.7801 17.3495 11.7031 17.4264C11.6262 17.5033 11.583 17.6076 11.583 17.7164C11.583 17.8252 11.6262 17.9295 11.7031 18.0065C11.7801 18.0834 11.8844 18.1266 11.9932 18.1266ZM13.5057 15.0911C13.5069 15.1835 13.5445 15.2718 13.6103 15.3367C13.6761 15.4017 13.7648 15.4381 13.8573 15.4381H13.861L21.4591 15.36C21.5053 15.3595 21.551 15.3499 21.5936 15.3317C21.6361 15.3136 21.6746 15.2872 21.707 15.2541C21.7393 15.221 21.7648 15.1819 21.7819 15.1389C21.7991 15.096 21.8076 15.0501 21.807 15.0038L21.7795 12.8993C21.8039 12.6024 21.7661 12.3037 21.6685 12.0223C21.5709 11.7408 21.4157 11.4828 21.2128 11.2647C21.0099 11.0466 20.7637 10.8733 20.49 10.7557C20.2163 10.6382 19.9211 10.579 19.6232 10.5819L19.1881 10.5863C19.1116 10.5871 19.0375 10.6128 18.9769 10.6595C18.9163 10.7063 18.8726 10.7715 18.8525 10.8453L18.4107 12.4647L18.18 12.0624L18.4698 11.1031C18.4856 11.0506 18.489 10.9951 18.4796 10.9411C18.4701 10.887 18.4482 10.8359 18.4155 10.7919C18.3828 10.7478 18.3402 10.712 18.2912 10.6874C18.2422 10.6627 18.1881 10.6499 18.1332 10.6499H18.1296L17.0293 10.6611C16.9741 10.6617 16.9199 10.6752 16.8709 10.7006C16.822 10.726 16.7797 10.7626 16.7475 10.8074C16.7153 10.8522 16.694 10.9039 16.6855 10.9584C16.677 11.0129 16.6815 11.0686 16.6985 11.1211L17.0097 12.0801L16.8392 12.4174L16.421 10.882C16.4007 10.8076 16.3565 10.7419 16.2952 10.695C16.2339 10.6482 16.1589 10.6228 16.0818 10.6228H15.588C15.29 10.6258 14.996 10.691 14.7246 10.8141C14.4532 10.9372 14.2105 11.1155 14.012 11.3378C13.8134 11.56 13.6635 11.8212 13.5716 12.1047C13.4798 12.3882 13.4481 12.6877 13.4786 12.9842L13.5057 15.0911ZM17.6581 11.3582L17.5888 11.5877L17.5147 11.3597L17.6581 11.3582ZM14.5317 11.8115C14.6648 11.6612 14.8278 11.5405 15.0103 11.4569C15.1927 11.3734 15.3907 11.3289 15.5913 11.3263H15.8129L16.4006 13.4851C16.4179 13.5487 16.4527 13.6061 16.501 13.6508C16.5493 13.6955 16.6093 13.7258 16.6739 13.7381C16.7386 13.7505 16.8055 13.7444 16.8669 13.7206C16.9283 13.6968 16.9817 13.6562 17.0212 13.6035C17.0336 13.587 17.0445 13.5695 17.0537 13.5511L17.6012 12.4678L18.2215 13.5495C18.2561 13.6098 18.3077 13.6585 18.3699 13.6895C18.4322 13.7204 18.5022 13.7322 18.5711 13.7234C18.64 13.7146 18.7048 13.6855 18.7572 13.6399C18.8097 13.5943 18.8474 13.5342 18.8657 13.4672L19.4604 11.287L19.6299 11.2853C19.831 11.2833 20.0304 11.3234 20.2151 11.4032C20.3998 11.483 20.5657 11.6007 20.7021 11.7485C20.8385 11.8964 20.9424 12.0713 21.007 12.2618C21.0717 12.4523 21.0957 12.6543 21.0774 12.8546C21.0763 12.8667 21.0758 12.8789 21.076 12.8911L21.0989 14.6606L14.2039 14.7315L14.1809 12.9592C14.1808 12.9477 14.1801 12.9362 14.1788 12.9247C14.1554 12.7248 14.1748 12.5221 14.2357 12.3302C14.2965 12.1383 14.3974 11.9615 14.5317 11.8115ZM17.523 10.5517C17.5302 10.5517 17.5373 10.5517 17.5445 10.5517C17.8169 10.5489 18.0862 10.4925 18.3369 10.3857C18.5875 10.2789 18.8147 10.1238 19.0054 9.92915C19.1962 9.73453 19.3467 9.50426 19.4484 9.25147C19.5501 8.99868 19.601 8.72833 19.5983 8.45586L19.5819 6.84576C19.5765 6.41478 19.4007 6.00348 19.0928 5.70183C18.7849 5.40018 18.3701 5.23274 17.9391 5.23613L16.0974 5.25483C16.0079 5.25573 15.9194 5.27426 15.837 5.30936C15.7547 5.34446 15.68 5.39544 15.6173 5.4594C15.5547 5.52335 15.5052 5.59902 15.4718 5.68209C15.4384 5.76516 15.4216 5.854 15.4225 5.94354L15.4485 8.49822C15.4547 9.04455 15.6759 9.56642 16.0642 9.95079C16.4525 10.3351 16.9766 10.551 17.523 10.5517ZM16.3771 6.63319C16.2922 6.67807 16.2109 6.72958 16.134 6.78723L16.1301 6.39776C16.2072 6.47686 16.2897 6.55584 16.3771 6.63319ZM18.503 9.4369C18.3131 9.63069 18.07 9.76382 17.8045 9.81945C17.5389 9.87509 17.2628 9.85074 17.0111 9.74947C16.7594 9.6482 16.5434 9.47457 16.3903 9.25053C16.2373 9.02648 16.1541 8.76209 16.1513 8.49078L16.1451 7.87403C16.3449 7.45414 16.6649 7.19897 17.0767 7.13147C17.4763 7.36257 17.9282 7.48795 18.3898 7.49574C18.5561 7.49565 18.722 7.47752 18.8844 7.44166L18.8948 8.46295C18.8972 8.64312 18.8638 8.82197 18.7966 8.98915C18.7294 9.15632 18.6296 9.30851 18.5032 9.4369H18.503ZM17.9461 5.93885C18.1675 5.93707 18.3823 6.01489 18.5513 6.15815C18.7202 6.30141 18.8321 6.50057 18.8665 6.71938C18.3035 6.89246 17.7205 6.76391 17.1301 6.33412C16.9724 6.21831 16.8238 6.09044 16.6859 5.95168L17.9461 5.93885Z" fill="url(#paint1_linear_295_519)"/>
<defs>
<linearGradient id="paint0_linear_295_519" x1="0.976566" y1="-0.541961" x2="29.5779" y2="3.27273" gradientUnits="userSpaceOnUse">
<stop stopColor="#FC365F"/>
<stop offset="0.984375" stopColor="#A00BFB"/>
</linearGradient>
<linearGradient id="paint1_linear_295_519" x1="10.3688" y1="3.96687" x2="24.9517" y2="5.67216" gradientUnits="userSpaceOnUse">
<stop stopColor="#FC365F"/>
<stop offset="0.984375" stopColor="#A00BFB"/>
</linearGradient>
</defs>
</svg>
