<svg width="30" height="30" viewBox="0 0 30 30" fill="none" xmlns="http://www.w3.org/2000/svg">
<path d="M24.8438 21.0938H5.15625C4.40625 21.0938 3.75 20.4375 3.75 19.6875V6.5625C3.75 5.8125 4.40625 5.15625 5.15625 5.15625H24.8438C25.5938 5.15625 26.25 5.8125 26.25 6.5625V19.6875C26.25 20.4375 25.5938 21.0938 24.8438 21.0938ZM5.15625 6.09375C4.875 6.09375 4.6875 6.28125 4.6875 6.5625V19.6875C4.6875 19.9688 4.875 20.1562 5.15625 20.1562H24.8438C25.125 20.1562 25.3125 19.9688 25.3125 19.6875V6.5625C25.3125 6.28125 25.125 6.09375 24.8438 6.09375H5.15625ZM21.0938 24.8438H8.90625C8.625 24.8438 8.4375 24.6562 8.4375 24.375C8.4375 24.0938 8.625 23.9062 8.90625 23.9062H21.0938C21.375 23.9062 21.5625 24.0938 21.5625 24.375C21.5625 24.6562 21.375 24.8438 21.0938 24.8438Z" fill="url(#paint0_linear_295_507)"/>
<path d="M25.7812 18.2812H4.21875C3.9375 18.2812 3.75 18.0938 3.75 17.8125C3.75 17.5312 3.9375 17.3438 4.21875 17.3438H25.7812C26.0625 17.3438 26.25 17.5312 26.25 17.8125C26.25 18.0938 26.0625 18.2812 25.7812 18.2812ZM23.9062 7.96875H17.3438C17.0625 7.96875 16.875 7.78125 16.875 7.5C16.875 7.21875 17.0625 7.03125 17.3438 7.03125H23.9062C24.1875 7.03125 24.375 7.21875 24.375 7.5C24.375 7.78125 24.1875 7.96875 23.9062 7.96875ZM23.9062 9.84375H17.3438C17.0625 9.84375 16.875 9.65625 16.875 9.375C16.875 9.09375 17.0625 8.90625 17.3438 8.90625H23.9062C24.1875 8.90625 24.375 9.09375 24.375 9.375C24.375 9.65625 24.1875 9.84375 23.9062 9.84375ZM17.3438 24.8438H12.6562C12.375 24.8438 12.1875 24.6562 12.1875 24.375V20.625C12.1875 20.3438 12.375 20.1562 12.6562 20.1562H17.3438C17.625 20.1562 17.8125 20.3438 17.8125 20.625V24.375C17.8125 24.6562 17.625 24.8438 17.3438 24.8438ZM13.125 23.9062H16.875V21.0938H13.125V23.9062ZM9.84375 16.4062C7.78125 16.4062 6.09375 14.7188 6.09375 12.6562V11.7188C6.09375 11.4375 6.28125 11.25 6.5625 11.25C6.84375 11.25 7.03125 11.4375 7.03125 11.7188V12.6562C7.03125 14.25 8.25 15.4688 9.84375 15.4688C11.4375 15.4688 12.6562 14.25 12.6562 12.6562V11.7188C12.6562 11.4375 12.8438 11.25 13.125 11.25C13.4062 11.25 13.5938 11.4375 13.5938 11.7188V12.6562C13.5938 14.7188 11.9062 16.4062 9.84375 16.4062Z" fill="url(#paint1_linear_295_507)"/>
<path d="M6.5625 12.3751H6.375C6.1875 12.2814 6.09375 12.1876 6.09375 12.0001L5.625 9.84387C5.53125 9.28137 5.625 8.81262 5.90625 8.34387C6.1875 7.87512 6.65625 7.59387 7.125 7.59387L10.5938 7.03137C11.25 6.93762 11.8125 7.03137 12.1875 7.40637C12.5625 7.68762 12.75 8.06262 12.8438 8.43762C13.2188 8.53137 13.5 8.71887 13.6875 9.00012C13.9688 9.37512 14.1563 9.93762 14.0625 10.4064L13.5938 12.0001C13.5938 12.1876 13.4063 12.2814 13.3125 12.2814C13.125 12.2814 13.0312 12.2814 12.8438 12.1876L11.625 11.2501C11.5312 11.1564 11.4375 11.1564 11.3438 11.1564H8.34375C8.25 11.1564 8.15625 11.1564 8.0625 11.2501L6.84375 12.1876C6.75 12.3751 6.65625 12.3751 6.5625 12.3751ZM8.34375 10.3126H11.3438C11.625 10.3126 12 10.4064 12.1875 10.5939L12.8438 11.1564L13.125 10.2189C13.125 10.0314 13.125 9.84387 12.9375 9.65637C12.75 9.46887 12.6562 9.37512 12.375 9.37512C12.0938 9.37512 11.9062 9.18762 11.9062 8.90637C11.9062 8.62512 11.8125 8.34387 11.5313 8.15637C11.3438 7.96887 11.0625 7.87512 10.7813 7.96887L7.40625 8.53137C7.125 8.53137 6.9375 8.71887 6.75 8.90637C6.5625 9.09387 6.5625 9.37512 6.5625 9.65637L6.84375 11.1564L7.5 10.5939C7.78125 10.4064 8.0625 10.3126 8.34375 10.3126Z" fill="url(#paint2_linear_295_507)"/>
<path d="M11.7188 14.625H10.3125C10.0312 14.625 9.84375 14.4375 9.84375 14.1562C9.84375 13.875 10.0312 13.6875 10.3125 13.6875H11.7188C12.2812 13.6875 12.6562 13.3125 12.6562 12.75V11.8125C12.6562 11.5312 12.8438 11.3438 13.125 11.3438C13.4062 11.3438 13.5938 11.5312 13.5938 11.8125V12.75C13.5938 13.7812 12.75 14.625 11.7188 14.625Z" fill="url(#paint3_linear_295_507)"/>
<path d="M15.4688 7.96875C15.7276 7.96875 15.9375 7.75888 15.9375 7.5C15.9375 7.24112 15.7276 7.03125 15.4688 7.03125C15.2099 7.03125 15 7.24112 15 7.5C15 7.75888 15.2099 7.96875 15.4688 7.96875Z" fill="url(#paint4_linear_295_507)"/>
<path d="M15.4688 9.84375C15.7276 9.84375 15.9375 9.63388 15.9375 9.375C15.9375 9.11612 15.7276 8.90625 15.4688 8.90625C15.2099 8.90625 15 9.11612 15 9.375C15 9.63388 15.2099 9.84375 15.4688 9.84375Z" fill="url(#paint5_linear_295_507)"/>
<path d="M23.9062 11.7188H17.3438C17.0625 11.7188 16.875 11.5312 16.875 11.25C16.875 10.9687 17.0625 10.7812 17.3438 10.7812H23.9062C24.1875 10.7812 24.375 10.9687 24.375 11.25C24.375 11.5312 24.1875 11.7188 23.9062 11.7188Z" fill="url(#paint6_linear_295_507)"/>
<path d="M15.4688 11.7188C15.7276 11.7188 15.9375 11.5089 15.9375 11.25C15.9375 10.9911 15.7276 10.7812 15.4688 10.7812C15.2099 10.7812 15 10.9911 15 11.25C15 11.5089 15.2099 11.7188 15.4688 11.7188Z" fill="url(#paint7_linear_295_507)"/>
<path d="M22.9688 16.4062H16.4062C15.6562 16.4062 15 15.75 15 15V14.0625C15 13.3125 15.6562 12.6562 16.4062 12.6562H22.9688C23.7188 12.6562 24.375 13.3125 24.375 14.0625V15C24.375 15.75 23.7188 16.4062 22.9688 16.4062ZM16.4062 13.5938C16.125 13.5938 15.9375 13.7812 15.9375 14.0625V15C15.9375 15.2812 16.125 15.4688 16.4062 15.4688H22.9688C23.25 15.4688 23.4375 15.2812 23.4375 15V14.0625C23.4375 13.7812 23.25 13.5938 22.9688 13.5938H16.4062Z" fill="url(#paint8_linear_295_507)"/>
<defs>
<linearGradient id="paint0_linear_295_507" x1="1.43742" y1="3.54049" x2="28.7553" y2="8.31972" gradientUnits="userSpaceOnUse">
<stop stop-color="#FC365F"/>
<stop offset="0.984375" stop-color="#A00BFB"/>
</linearGradient>
<linearGradient id="paint1_linear_295_507" x1="1.43742" y1="5.56937" x2="28.5767" y2="10.8171" gradientUnits="userSpaceOnUse">
<stop stop-color="#FC365F"/>
<stop offset="0.984375" stop-color="#A00BFB"/>
</linearGradient>
<linearGradient id="paint2_linear_295_507" x1="4.71651" y1="6.55622" x2="14.7611" y2="8.98581" gradientUnits="userSpaceOnUse">
<stop stop-color="#FC365F"/>
<stop offset="0.984375" stop-color="#A00BFB"/>
</linearGradient>
<linearGradient id="paint3_linear_295_507" x1="9.45832" y1="11.0745" x2="14.0113" y2="11.871" gradientUnits="userSpaceOnUse">
<stop stop-color="#FC365F"/>
<stop offset="0.984375" stop-color="#A00BFB"/>
</linearGradient>
<linearGradient id="paint4_linear_295_507" x1="14.9036" y1="6.95431" x2="16.0499" y2="7.12977" gradientUnits="userSpaceOnUse">
<stop stop-color="#FC365F"/>
<stop offset="0.984375" stop-color="#A00BFB"/>
</linearGradient>
<linearGradient id="paint5_linear_295_507" x1="14.9036" y1="8.82931" x2="16.0499" y2="9.00477" gradientUnits="userSpaceOnUse">
<stop stop-color="#FC365F"/>
<stop offset="0.984375" stop-color="#A00BFB"/>
</linearGradient>
<linearGradient id="paint6_linear_295_507" x1="16.1041" y1="10.7043" x2="19.8584" y2="15.3019" gradientUnits="userSpaceOnUse">
<stop stop-color="#FC365F"/>
<stop offset="0.984375" stop-color="#A00BFB"/>
</linearGradient>
<linearGradient id="paint7_linear_295_507" x1="14.9036" y1="10.7043" x2="16.0499" y2="10.8798" gradientUnits="userSpaceOnUse">
<stop stop-color="#FC365F"/>
<stop offset="0.984375" stop-color="#A00BFB"/>
</linearGradient>
<linearGradient id="paint8_linear_295_507" x1="14.0364" y1="12.3485" x2="24.2687" y2="16.2644" gradientUnits="userSpaceOnUse">
<stop stop-color="#FC365F"/>
<stop offset="0.984375" stop-color="#A00BFB"/>
</linearGradient>
</defs>
</svg>
