<svg width="16" height="15" viewBox="0 0 16 15" fill="none" xmlns="http://www.w3.org/2000/svg">
<g clipPath="url(#clip0_294_3541)">
<path d="M1.63065 14.4602L13.4164 14.4602C14.0081 14.4602 14.4994 13.9806 14.5136 13.3891L14.7977 1.6068C14.812 1.01524 14.3438 0.53568 13.7521 0.53568L1.96638 0.53568C1.37465 0.53568 0.883393 1.01524 0.86913 1.6068L0.585048 13.3891C0.570785 13.9806 1.03892 14.4602 1.63065 14.4602Z" stroke="black" stroke-linecap="round" stroke-linejoin="round"/>
<path d="M10.1044 6.96229C11.14 6.96229 11.9997 6.12307 12.0246 5.08783C12.0496 4.0526 11.2304 3.21338 10.1948 3.21338C9.15929 3.21338 8.29959 4.0526 8.27463 5.08783C8.24967 6.12307 9.0689 6.96229 10.1044 6.96229Z" stroke="black" stroke-linecap="round" stroke-linejoin="round"/>
<path d="M10.0843 14.4602C9.78362 12.6232 8.83688 10.9686 7.41304 9.79142C5.98919 8.61428 4.18086 7.99126 2.31071 8.03351C1.77147 8.03207 1.23208 8.08228 0.699949 8.18347" stroke="black" stroke-linecap="round" stroke-linejoin="round"/>
<path d="M14.5699 10.6148C13.714 10.3236 12.8128 10.1753 11.9019 10.1758C10.749 10.1733 9.60218 10.4065 8.53182 10.861" stroke="black" stroke-linecap="round" stroke-linejoin="round"/>
</g>
<defs>
<clipPath id="clip0_294_3541">
<rect width="15" height="15" fill="white" transform="matrix(1 0 -0.024104 0.999709 0.361328 0)"/>
</clipPath>
</defs>
</svg>
