<svg width="15" height="15" viewBox="0 0 15 15" fill="none" xmlns="http://www.w3.org/2000/svg">
<g clipPath="url(#clip0_295_532)">
<path d="M0.630091 0.000103812C0.581858 0.0170608 0.540253 0.0488937 0.511274 0.091015C0.482294 0.133136 0.467436 0.183371 0.468841 0.234479V10.0637C0.468841 10.1865 0.580404 10.2981 0.703216 10.2981H1.77243L2.00681 10.3126L3.80868 12.1145C3.93525 12.2579 4.224 12.144 4.21884 11.9532V10.3126L5.85947 10.2981H9.14072C9.20214 10.2958 9.26041 10.2703 9.30387 10.2269C9.34733 10.1834 9.37277 10.1251 9.37509 10.0637V2.57823C9.37359 2.51623 9.34851 2.45714 9.30496 2.41299C9.26142 2.36884 9.20268 2.34294 9.14072 2.34057C9.07875 2.34294 9.02001 2.36884 8.97647 2.41299C8.93292 2.45714 8.90785 2.51623 8.90634 2.57823V9.82932H5.85947L3.98447 9.84385C3.92305 9.84617 3.86477 9.87161 3.82131 9.91507C3.77785 9.95853 3.75241 10.0168 3.75009 10.0782V11.3818L2.27072 9.90245C2.22616 9.86348 2.16864 9.84258 2.10947 9.84385L1.77243 9.82932H0.937591V0.468854H6.79697C6.85896 0.467349 6.91805 0.442271 6.9622 0.398727C7.00636 0.355183 7.03226 0.296447 7.03462 0.234479C7.03226 0.172511 7.00636 0.113775 6.9622 0.0702308C6.91805 0.0266868 6.85896 0.00160896 6.79697 0.000103812H0.703216C0.678991 -0.00371438 0.654317 -0.00371438 0.630091 0.000103812ZM7.66134 0.000103812C7.61311 0.0170608 7.5715 0.0488937 7.54252 0.091015C7.51354 0.133136 7.49869 0.183371 7.50009 0.234479V1.64073C7.50009 1.76354 7.61165 1.8751 7.73447 1.8751H9.14072C9.3315 1.87979 9.4454 1.59151 9.30197 1.46495L7.89572 0.0586976C7.86537 0.0289973 7.82767 0.00791432 7.78648 -0.00238367C7.74528 -0.0126817 7.70209 -0.0118231 7.66134 0.000103812ZM7.96884 0.791354L8.58431 1.40635H7.96884V0.791354ZM1.87509 1.40635V1.8751H6.09384V1.40635H1.87509ZM1.87509 2.8126V3.28135H7.96884V2.8126H1.87509ZM1.87509 4.21885V4.6876H7.96884V4.21885H1.87509ZM1.87509 5.6251V6.09385H7.96884V5.6251H1.87509ZM1.87509 7.03135V7.5001H7.96884V7.03135H1.87509ZM1.87509 8.4376V8.90635H4.21884V8.4376H1.87509ZM12.7295 12.129L9.81478 12.1435L6.88509 12.1585C6.87526 12.1579 6.86539 12.1579 6.85556 12.1585C6.84573 12.1579 6.83586 12.1579 6.82603 12.1585C6.7965 12.1773 6.73837 12.2171 6.73837 12.2171L4.40915 13.3735C4.24884 13.4485 4.24884 13.7237 4.40915 13.7987L6.70884 14.9265L6.82603 14.9996H6.88509L9.82884 14.9851L12.7004 14.9701C12.7199 14.9725 12.7395 14.9725 12.759 14.9701C12.7684 14.971 12.7782 14.971 12.7881 14.9701H13.6524C14.2712 14.9701 14.7681 14.4601 14.7657 13.8423V13.2423C14.7634 12.6226 14.251 12.1267 13.6379 12.129H12.759C12.7492 12.1284 12.7393 12.1284 12.7295 12.129ZM12.5101 12.5978L12.5242 13.3449L7.11947 13.3299V12.6268L9.81478 12.6128L12.5101 12.5978ZM12.9788 12.5978H13.6379C13.9965 12.5978 14.2956 12.8781 14.297 13.2423V13.8428C14.2984 14.2089 14.0176 14.5023 13.6524 14.5023H12.9934L12.9788 12.5978ZM6.65072 12.7735V14.3701L5.05322 13.5798L6.65072 12.7735ZM7.11947 13.7992L12.5242 13.8132V14.5023L9.82884 14.5164L7.11947 14.5314V13.7992Z" fill="black"/>
</g>
<defs>
<clipPath id="clip0_295_532">
<rect width="15" height="15" fill="white"/>
</clipPath>
</defs>
</svg>
