<svg width="39" height="39" viewBox="0 0 39 39" fill="none" xmlns="http://www.w3.org/2000/svg">
<path d="M5.66925 24.1398C4.81779 24.1397 3.98543 24.3921 3.27744 24.8652C2.56946 25.3382 2.01763 26.0105 1.69177 26.7971C1.3659 27.5838 1.28062 28.4494 1.44672 29.2845C1.61282 30.1196 2.02283 30.8867 2.6249 31.4887C3.22697 32.0908 3.99407 32.5008 4.82917 32.6669C5.66427 32.833 6.52988 32.7477 7.31651 32.4219C8.10315 32.096 8.77548 31.5442 9.24849 30.8362C9.7215 30.1282 9.97394 29.2959 9.97388 28.4444C9.97258 27.3031 9.51865 26.209 8.71165 25.402C7.90466 24.595 6.81051 24.1411 5.66925 24.1398ZM5.66925 32.14C4.93833 32.14 4.2238 31.9233 3.61603 31.5173C3.00826 31.1113 2.53454 30.5341 2.25479 29.8588C1.97503 29.1836 1.9018 28.4405 2.04436 27.7236C2.18692 27.0067 2.53887 26.3482 3.05569 25.8314C3.57251 25.3145 4.23099 24.9625 4.94787 24.8199C5.66474 24.6773 6.40781 24.7504 7.0831 25.0301C7.75839 25.3098 8.33558 25.7835 8.74167 26.3912C9.14775 26.999 9.3645 27.7135 9.3645 28.4444C9.36345 29.4241 8.97381 30.3635 8.28105 31.0563C7.58829 31.7491 6.649 32.1388 5.66925 32.14Z" fill="url(#paint0_linear_280_496)"/>
<path d="M6.78206 25.9054C6.65288 25.8508 6.51403 25.8227 6.37378 25.8229H6.03283C5.75495 25.8232 5.48855 25.9337 5.29205 26.1302C5.09556 26.3267 4.98503 26.5931 4.98471 26.871V27.6687H4.67545C4.59464 27.6687 4.51714 27.7008 4.46 27.7579C4.40286 27.8151 4.37076 27.8925 4.37076 27.9734C4.37076 28.0542 4.40286 28.1317 4.46 28.1888C4.51714 28.2459 4.59464 28.278 4.67545 28.278H4.98593V30.7612C4.98593 30.8421 5.01803 30.9196 5.07517 30.9767C5.13231 31.0338 5.20981 31.0659 5.29062 31.0659C5.37142 31.0659 5.44892 31.0338 5.50606 30.9767C5.5632 30.9196 5.5953 30.8421 5.5953 30.7612V28.278H6.31254C6.39335 28.278 6.47084 28.2459 6.52798 28.1888C6.58512 28.1317 6.61722 28.0542 6.61722 27.9734C6.61722 27.8925 6.58512 27.8151 6.52798 27.7579C6.47084 27.7008 6.39335 27.6687 6.31254 27.6687H5.5953V26.871C5.59546 26.7547 5.64174 26.6432 5.72399 26.5609C5.80623 26.4787 5.91774 26.4324 6.03405 26.4322H6.37378C6.43239 26.4321 6.49043 26.4438 6.5444 26.4667C6.61883 26.4982 6.70272 26.4989 6.77763 26.4685C6.85255 26.4382 6.91233 26.3793 6.94385 26.3049C6.97536 26.2305 6.97602 26.1466 6.94568 26.0717C6.91534 25.9967 6.85649 25.937 6.78206 25.9054ZM6.60321 13.4449C7.45468 13.445 8.28705 13.1926 8.99505 12.7195C9.70304 12.2465 10.2549 11.5742 10.5807 10.7875C10.9066 10.0009 10.9918 9.13524 10.8257 8.30013C10.6596 7.46502 10.2496 6.69792 9.64745 6.09586C9.04535 5.4938 8.27823 5.08381 7.4431 4.91775C6.60798 4.75169 5.74237 4.83701 4.95574 5.16292C4.16911 5.48884 3.49679 6.04071 3.02382 6.74874C2.55085 7.45676 2.29846 8.28915 2.29858 9.14062C2.30004 10.2818 2.75403 11.3758 3.561 12.1827C4.36797 12.9897 5.46203 13.4436 6.60321 13.4449ZM6.60321 5.44446C7.33411 5.4444 8.04861 5.66107 8.65637 6.06708C9.26413 6.47309 9.73784 7.0502 10.0176 7.72544C10.2974 8.40067 10.3707 9.1437 10.2281 9.86057C10.0856 10.5774 9.73375 11.236 9.21699 11.7528C8.70023 12.2697 8.0418 12.6218 7.32497 12.7645C6.60813 12.9072 5.86508 12.8341 5.18978 12.5545C4.51448 12.2749 3.93725 11.8013 3.53109 11.1936C3.12493 10.586 2.90808 9.87152 2.90796 9.14062C2.90893 8.1608 3.29853 7.22136 3.99129 6.52843C4.68404 5.8355 5.62338 5.44567 6.60321 5.44446Z" fill="url(#paint1_linear_280_496)"/>
<path d="M4.96633 11.5084H8.2405C8.49004 11.5082 8.72929 11.4089 8.90575 11.2325C9.0822 11.056 9.18144 10.8168 9.18168 10.5672V7.71291C9.18144 7.46337 9.0822 7.22411 8.90575 7.04766C8.72929 6.87121 8.49004 6.77197 8.2405 6.77173H4.96633C4.71681 6.77205 4.4776 6.87131 4.30117 7.04775C4.12473 7.22419 4.02547 7.46339 4.02515 7.71291V10.5672C4.02547 10.8167 4.12473 11.0559 4.30117 11.2324C4.4776 11.4088 4.71681 11.5081 4.96633 11.5084ZM4.63422 7.71291C4.63438 7.6249 4.66943 7.54056 4.73169 7.47836C4.79394 7.41616 4.87832 7.38118 4.96633 7.3811H8.2405C8.32847 7.38118 8.41282 7.41617 8.47503 7.47838C8.53724 7.54058 8.57222 7.62493 8.5723 7.71291V10.5672C8.57222 10.6552 8.53724 10.7395 8.47503 10.8018C8.41282 10.864 8.32847 10.8989 8.2405 10.899H4.96633C4.87835 10.8989 4.794 10.864 4.73179 10.8018C4.66959 10.7395 4.6346 10.6552 4.63452 10.5672L4.63422 7.71291Z" fill="url(#paint2_linear_280_496)"/>
<path d="M6.60321 10.5693C6.86663 10.5694 7.12415 10.4913 7.3432 10.345C7.56225 10.1987 7.733 9.99076 7.83384 9.74742C7.93469 9.50407 7.96111 9.23628 7.90975 8.97792C7.8584 8.71956 7.73158 8.48223 7.54534 8.29594C7.3591 8.10966 7.1218 7.98279 6.86345 7.93137C6.6051 7.87996 6.3373 7.90632 6.09393 8.00711C5.85056 8.1079 5.64255 8.2786 5.4962 8.49762C5.34984 8.71664 5.27173 8.97414 5.27173 9.23755C5.27213 9.59059 5.41253 9.92905 5.66214 10.1787C5.91174 10.4284 6.25018 10.5689 6.60321 10.5693ZM6.60321 8.51514C6.74611 8.51508 6.88581 8.55739 7.00465 8.63674C7.12349 8.71608 7.21613 8.82889 7.27085 8.96088C7.32558 9.09288 7.33993 9.23815 7.31209 9.3783C7.28425 9.51846 7.21547 9.64721 7.11445 9.74827C7.01343 9.84933 6.88471 9.91816 6.74457 9.94606C6.60442 9.97396 6.45915 9.95967 6.32713 9.905C6.19511 9.85034 6.08227 9.75774 6.00287 9.63893C5.92348 9.52013 5.8811 9.38044 5.8811 9.23755C5.88135 9.04608 5.95749 8.86252 6.09285 8.7271C6.22821 8.59168 6.41174 8.51546 6.60321 8.51514Z" fill="url(#paint3_linear_280_496)"/>
<path d="M8.04264 8.1169C8.15572 8.1169 8.24739 8.02523 8.24739 7.91215C8.24739 7.79907 8.15572 7.7074 8.04264 7.7074C7.92956 7.7074 7.83789 7.79907 7.83789 7.91215C7.83789 8.02523 7.92956 8.1169 8.04264 8.1169Z" fill="url(#paint4_linear_280_496)"/>
<path d="M37.4766 20.0789C37.4775 19.2404 37.2335 18.4199 36.7746 17.7181C36.3157 17.0163 35.6618 16.4638 34.8933 16.1284C34.1248 15.7931 33.275 15.6895 32.4484 15.8303C31.6218 15.9712 30.8544 16.3504 30.2403 16.9214C29.6262 17.4924 29.1922 18.2302 28.9917 19.0444C28.7911 19.8586 28.8327 20.7136 29.1113 21.5045C29.3899 22.2954 29.8934 22.9877 30.56 23.4963C31.2266 24.005 32.0272 24.308 32.8636 24.368C32.857 24.5523 32.8219 24.7344 32.7594 24.9079L33.3288 25.1248C33.4191 24.8823 33.4694 24.6267 33.4778 24.368C34.5628 24.2902 35.5781 23.8047 36.3199 23.0091C37.0617 22.2135 37.4749 21.1667 37.4766 20.0789ZM33.1707 23.7732C32.4398 23.7731 31.7253 23.5561 31.1177 23.1499C30.5101 22.7437 30.0365 22.1664 29.757 21.491C29.4775 20.8156 29.4045 20.0726 29.5473 19.3557C29.6901 18.6389 30.0422 17.9805 30.5592 17.4638C31.0762 16.9471 31.7348 16.5953 32.4517 16.4529C33.1687 16.3105 33.9117 16.384 34.5869 16.6639C35.2621 16.9438 35.8391 17.4177 36.245 18.0255C36.6509 18.6334 36.8674 19.348 36.8672 20.0789C36.8658 21.0587 36.4759 21.9978 35.7829 22.6904C35.0899 23.383 34.1505 23.7724 33.1707 23.7732Z" fill="url(#paint5_linear_280_496)"/>
<path d="M35.9309 18.4873C35.9058 18.4631 35.8769 18.4431 35.8453 18.4281C35.8706 18.3674 35.8758 18.3002 35.86 18.2363C35.8443 18.1724 35.8085 18.1152 35.7579 18.0732C35.7031 18.0274 35.6337 18.0029 35.5623 18.004C35.4909 18.0052 35.4223 18.032 35.3691 18.0796C35.2519 18.1395 35.1296 18.1885 35.0035 18.2261C34.8156 18.0785 34.5912 17.9847 34.3541 17.9548C34.1171 17.9249 33.8763 17.9601 33.6577 18.0566C33.4391 18.153 33.2509 18.3071 33.1132 18.5023C32.9754 18.6976 32.8934 18.9266 32.8758 19.1649C32.2478 19.0766 31.6782 18.7492 31.286 18.2508C31.2574 18.2134 31.2205 18.1831 31.1782 18.1623C31.1359 18.1415 31.0894 18.1308 31.0422 18.1311C30.9949 18.1311 30.9483 18.1421 30.906 18.1632C30.8637 18.1844 30.8269 18.2151 30.7985 18.2529C30.6916 18.4293 30.6245 18.6268 30.6018 18.8317C30.5791 19.0366 30.6014 19.244 30.6672 19.4394C30.6345 19.4671 30.6081 19.5015 30.5896 19.5401C30.5711 19.5787 30.561 19.6208 30.5599 19.6637C30.5557 20.0321 30.6968 20.3874 30.9527 20.6527C30.9344 20.7182 30.9385 20.788 30.9642 20.851C31.0486 21.1087 31.21 21.3343 31.4267 21.4973C31.1972 21.5693 30.9555 21.595 30.7159 21.5728C30.6481 21.5665 30.5802 21.583 30.5229 21.6198C30.4656 21.6566 30.4223 21.7115 30.3998 21.7757C30.3774 21.84 30.3771 21.91 30.399 21.9744C30.421 22.0389 30.4639 22.0941 30.5209 22.1313C31.0261 22.448 31.6042 22.6296 32.1997 22.6587C32.3017 22.6589 32.4036 22.6513 32.5044 22.6359C33.1372 22.5806 33.7418 22.3493 34.25 21.9683C34.8166 21.5169 35.2147 20.8879 35.3801 20.1825C35.4171 20.0253 35.4437 19.8658 35.4596 19.7051C35.4675 19.6249 35.4732 19.5446 35.4767 19.4644C35.4767 19.4543 35.4767 19.4339 35.4767 19.4083C35.655 19.2534 35.8162 19.0798 35.9574 18.8904C36.0016 18.8309 36.0231 18.7578 36.0182 18.6839C36.0134 18.6101 35.9824 18.5404 35.9309 18.4873ZM34.8712 19.4373C34.8685 19.5061 34.8633 19.575 34.8566 19.6435C34.8434 19.7769 34.8213 19.9092 34.7905 20.0396C34.6577 20.6152 34.3325 21.1283 33.8685 21.4939C33.4434 21.8046 32.9401 21.9909 32.4152 22.0317C32.213 22.0587 32.0077 22.0495 31.8088 22.0046C32.0063 21.9273 32.1921 21.8229 32.3609 21.6944C32.406 21.6576 32.4395 21.6087 32.4577 21.5534C32.4758 21.4982 32.4777 21.4389 32.4633 21.3826C32.4488 21.3262 32.4185 21.2752 32.3759 21.2356C32.3334 21.1959 32.2804 21.1693 32.2232 21.1588C32.0542 21.1393 31.8928 21.0775 31.754 20.979C31.7934 20.9616 31.8288 20.9361 31.8576 20.9041C31.8865 20.8721 31.9082 20.8343 31.9214 20.7933C31.9346 20.7523 31.939 20.7089 31.9341 20.6661C31.9293 20.6232 31.9155 20.5819 31.8935 20.5448L31.8768 20.5165C31.8559 20.4812 31.8282 20.4505 31.7952 20.4262C31.7622 20.4019 31.7247 20.3846 31.6848 20.3751C31.6051 20.3585 31.5295 20.3262 31.4624 20.2802C31.3952 20.2341 31.3379 20.1753 31.2936 20.107C31.354 20.1037 31.412 20.0825 31.4603 20.0462C31.5086 20.0098 31.545 19.9599 31.5649 19.9028C31.5848 19.8457 31.5872 19.784 31.5719 19.7255C31.5565 19.667 31.5242 19.6144 31.4788 19.5744C31.4009 19.5097 31.3367 19.4301 31.29 19.3402C31.2432 19.2504 31.2148 19.1522 31.2065 19.0512C31.7672 19.5187 32.4688 19.7841 33.1985 19.8047C33.2454 19.8074 33.2921 19.7984 33.3347 19.7786C33.3772 19.7588 33.4142 19.7287 33.4423 19.6911C33.4716 19.6547 33.4922 19.612 33.5024 19.5663C33.5126 19.5207 33.5121 19.4733 33.5011 19.4278C33.4878 19.3733 33.4811 19.3173 33.4813 19.2612C33.4815 19.0732 33.5562 18.8931 33.6891 18.7602C33.8219 18.6273 34.002 18.5525 34.19 18.5522C34.2872 18.5517 34.3834 18.5714 34.4726 18.6101C34.5618 18.6488 34.6419 18.7057 34.7079 18.777C34.7317 18.8027 34.7597 18.824 34.7908 18.8401C34.7753 18.9104 34.7853 18.9839 34.8188 19.0476C34.8383 19.0849 34.8654 19.1177 34.8984 19.1439C34.8685 19.2386 34.8593 19.3386 34.8712 19.4373ZM28.9758 10.2561C29.6603 10.2563 30.3294 10.0535 30.8986 9.67341C31.4678 9.2933 31.9115 8.75294 32.1736 8.12066C32.4357 7.48838 32.5044 6.79257 32.3711 6.12124C32.2377 5.44991 31.9083 4.83319 31.4244 4.34908C30.9406 3.86498 30.3241 3.53522 29.6528 3.40151C28.9815 3.26781 28.2857 3.33616 27.6533 3.59792C27.0208 3.85968 26.4803 4.30309 26.0998 4.87209C25.7194 5.44109 25.5163 6.11012 25.5161 6.79457C25.5168 7.71209 25.8815 8.59185 26.5301 9.24081C27.1787 9.88977 28.0583 10.2549 28.9758 10.2561ZM28.9758 3.94452C29.5399 3.94434 30.0913 4.11144 30.5603 4.42469C31.0293 4.73793 31.3949 5.18325 31.6108 5.7043C31.8267 6.22536 31.8833 6.79874 31.7733 7.35193C31.6632 7.90511 31.3916 8.41324 30.9928 8.81204C30.594 9.21084 30.0858 9.48239 29.5326 9.59235C28.9794 9.7023 28.406 9.64571 27.885 9.42975C27.364 9.21378 26.9187 8.84814 26.6055 8.37907C26.2923 7.91 26.1252 7.35858 26.1255 6.79457C26.1267 6.03901 26.4274 5.31474 26.9617 4.78051C27.496 4.24627 28.2203 3.94565 28.9758 3.94452Z" fill="url(#paint6_linear_280_496)"/>
<path d="M28.4465 8.77799C28.4632 8.78223 28.4803 8.78499 28.4974 8.78622C28.5145 8.78622 28.5328 8.78957 28.5514 8.79231C28.5489 8.80328 28.5465 8.81394 28.5437 8.82278C28.5395 8.83847 28.5364 8.85446 28.5346 8.87061L28.5166 9.0324C28.5112 9.09927 28.5225 9.16643 28.5495 9.22785C28.5764 9.28928 28.6182 9.34304 28.6711 9.38432C28.7385 9.434 28.8204 9.46012 28.9042 9.45866C28.975 9.45742 29.0449 9.44349 29.1108 9.41753C29.7689 9.07532 30.3772 8.64478 30.9188 8.13784C31.7155 7.27222 31.7957 6.31794 31.1577 5.47091C31.1302 5.42734 30.4617 4.40664 28.6857 4.5404C28.6784 4.5404 28.6489 4.54527 28.6415 4.54649C28.2068 4.61169 26.7644 4.93649 26.467 6.38954C26.4646 6.40813 26.1852 8.21554 28.4465 8.77799ZM27.0663 6.50197C27.2769 5.47487 28.3018 5.21375 28.7326 5.14916L28.7442 5.14703C30.1281 5.04739 30.6251 5.7692 30.6577 5.81734C31.1324 6.44926 31.0714 7.07326 30.4709 7.7256C30.0779 8.09627 29.6429 8.41971 29.1747 8.68932C29.1758 8.62808 29.1669 8.56707 29.1485 8.50865C29.0712 8.27617 28.7972 8.20152 28.5696 8.18111C26.8948 7.75241 27.0608 6.54097 27.0663 6.50197Z" fill="url(#paint7_linear_280_496)"/>
<path d="M28.087 6.96213C28.1412 6.96213 28.1942 6.94605 28.2393 6.91592C28.2844 6.88579 28.3196 6.84296 28.3403 6.79285C28.3611 6.74275 28.3665 6.68761 28.3559 6.63442C28.3453 6.58122 28.3192 6.53236 28.2809 6.49401C28.2425 6.45566 28.1937 6.42955 28.1405 6.41897C28.0873 6.40838 28.0321 6.41382 27.982 6.43457C27.9319 6.45533 27.8891 6.49047 27.859 6.53557C27.8288 6.58066 27.8127 6.63368 27.8127 6.68792C27.8125 6.72398 27.8195 6.75973 27.8332 6.79309C27.8469 6.82645 27.8671 6.85676 27.8926 6.88227C27.9181 6.90777 27.9484 6.92796 27.9818 6.94167C28.0152 6.95538 28.0509 6.96234 28.087 6.96213ZM29.1439 6.96213C29.1982 6.96244 29.2514 6.94661 29.2967 6.91666C29.342 6.88671 29.3774 6.84399 29.3984 6.79391C29.4193 6.74383 29.425 6.68865 29.4146 6.63536C29.4042 6.58206 29.3782 6.53306 29.3399 6.49456C29.3016 6.45606 29.2527 6.42979 29.1995 6.41908C29.1463 6.40838 29.0911 6.41372 29.0409 6.43443C28.9907 6.45514 28.9478 6.49028 28.9176 6.53541C28.8874 6.58054 28.8712 6.63362 28.8712 6.68792C28.871 6.72385 28.8779 6.75948 28.8916 6.79274C28.9052 6.826 28.9252 6.85624 28.9506 6.88173C28.9759 6.90721 29.006 6.92743 29.0392 6.94123C29.0724 6.95503 29.108 6.96213 29.1439 6.96213Z" fill="url(#paint8_linear_280_496)"/>
<path d="M30.2007 6.96214C30.3513 6.96214 30.4734 6.84005 30.4734 6.68944C30.4734 6.53884 30.3513 6.41675 30.2007 6.41675C30.0501 6.41675 29.928 6.53884 29.928 6.68944C29.928 6.84005 30.0501 6.96214 30.2007 6.96214Z" fill="url(#paint9_linear_280_496)"/>
<path d="M12.5749 34.3305L11.7725 34.6566L12.0019 35.2211L12.8044 34.895L12.5749 34.3305Z" fill="url(#paint10_linear_280_496)"/>
<path d="M6.44205 35.2112C6.72049 35.3963 7.02427 35.5399 7.34393 35.6378L7.52674 35.0562C7.26345 34.9761 7.01329 34.858 6.78422 34.7055L6.44205 35.2112ZM8.36037 35.224L8.2976 35.8301C8.52488 35.8531 8.75318 35.8645 8.98162 35.8642C9.06937 35.8642 9.15946 35.8626 9.25188 35.8593L9.23055 35.2499C8.94024 35.2616 8.64947 35.253 8.36037 35.224ZM10.7622 35.0677C10.5386 35.1104 10.3195 35.1464 10.1111 35.1741L10.1918 35.7783C10.421 35.7478 10.6617 35.7079 10.9069 35.6604C10.9264 35.6566 10.9455 35.651 10.9639 35.6436L11.1553 35.5656L10.9258 35.0013L10.7622 35.0677ZM5.32202 33.5077C5.37335 33.8625 5.50816 34.2 5.71537 34.4925L6.21902 34.1491C6.07147 33.9399 5.97229 33.7006 5.92865 33.4483L5.32202 33.5077ZM11.7092 7.98925C11.903 7.98967 12.0965 8.00464 12.2881 8.03404L12.3795 7.43167C12.1577 7.3977 11.9336 7.38038 11.7092 7.37987C11.6007 7.37881 11.4923 7.384 11.3844 7.39541L11.4575 8.00052C11.5411 7.99217 11.6252 7.9884 11.7092 7.98925ZM15.3523 11.598L15.9565 11.5172C15.9153 11.2015 15.8525 10.889 15.7685 10.5818L15.1811 10.7442C15.2576 11.0246 15.3148 11.3098 15.3523 11.598ZM14.1942 8.16292C13.9269 7.96786 13.636 7.80754 13.3283 7.68578L13.1031 8.2525C13.3624 8.35451 13.6076 8.48915 13.8329 8.65316L14.1942 8.16292ZM15.4316 9.6763C15.2896 9.38086 15.1145 9.10252 14.9096 8.84664L14.4352 9.22933C14.6111 9.44911 14.7614 9.68821 14.8831 9.94199L15.4316 9.6763ZM25.4719 7.29456L25.4025 6.68884C25.1337 6.71931 24.875 6.76227 24.634 6.81468L24.7641 7.41034C24.9979 7.35979 25.2342 7.32115 25.4719 7.29456ZM22.5993 8.61721L22.1204 8.24244C21.9128 8.50822 21.7483 8.80494 21.6329 9.12177L22.2054 9.33079C22.2985 9.07376 22.4314 8.83296 22.5993 8.61721ZM23.9381 7.65866L23.7111 7.09316C23.4059 7.21375 23.1157 7.36915 22.8461 7.55629L23.1962 8.05506C23.4274 7.89478 23.6764 7.76176 23.9381 7.65866ZM22.0786 10.96C22.0419 10.7715 22.0243 10.5798 22.0262 10.3877C22.0262 10.3107 22.0286 10.2278 22.035 10.1406L21.4275 10.0959C21.4199 10.1988 21.4168 10.2966 21.4168 10.3877C21.4145 10.6263 21.4374 10.8645 21.4851 11.0983L22.0786 10.96ZM31.647 25.999L31.9142 26.5475C32.218 26.4033 32.4982 26.2139 32.7451 25.9856L32.3274 25.5426C32.1251 25.7284 31.8957 25.8823 31.647 25.999ZM29.9834 26.4737L30.0727 27.0767C30.387 27.0311 30.6983 26.9665 31.0047 26.8832L30.8426 26.2958C30.5602 26.3726 30.2732 26.4321 29.9834 26.4737ZM19.2752 19.0363C18.5574 19.0363 17.8557 19.2492 17.2589 19.6479C16.6621 20.0467 16.1969 20.6135 15.9223 21.2767C15.6476 21.9399 15.5758 22.6696 15.7158 23.3736C15.8559 24.0775 16.2015 24.7242 16.7091 25.2317C17.2167 25.7393 17.8634 26.0849 18.5674 26.2249C19.2714 26.3649 20.0011 26.293 20.6642 26.0182C21.3273 25.7435 21.8941 25.2783 22.2928 24.6815C22.6916 24.0846 22.9044 23.3829 22.9043 22.6651C22.9032 21.703 22.5205 20.7806 21.8401 20.1003C21.1597 19.42 20.2373 19.0374 19.2752 19.0363ZM21.5987 20.7392C21.2137 20.8443 20.8219 20.9224 20.426 20.9732C20.2701 20.5119 20.0429 20.078 19.7526 19.6871C20.4752 19.8023 21.1313 20.1762 21.5987 20.7392ZM19.2292 25.4314C18.9665 25.0895 18.7607 24.7075 18.6198 24.3001C19.0257 24.2754 19.4327 24.276 19.8386 24.3019C19.6974 24.7089 19.4917 25.0905 19.2292 25.432V25.4314ZM18.4516 23.6947C18.4042 23.4656 18.3736 23.2333 18.3602 22.9997H20.0969C20.0837 23.2338 20.0531 23.4666 20.0055 23.6962C19.4883 23.6564 18.9688 23.6562 18.4516 23.6956V23.6947ZM19.7999 21.0293C19.4196 21.0513 19.0384 21.0513 18.6582 21.0293C18.7965 20.6602 18.989 20.3137 19.2292 20.0012C19.4695 20.3139 19.6618 20.6607 19.7999 21.0302V21.0293ZM19.2158 21.6642C19.4629 21.6642 19.7206 21.6542 19.986 21.6338C20.0429 21.8826 20.0799 22.1356 20.0966 22.3903H18.3623C18.3788 22.1365 18.4155 21.8845 18.472 21.6365C18.7079 21.6542 18.9553 21.6651 19.2158 21.6651V21.6642ZM17.7533 22.3903H16.2704C16.3044 22.0179 16.4077 21.6552 16.575 21.3209C16.9991 21.4349 17.4304 21.52 17.866 21.5756C17.8082 21.8442 17.771 22.1169 17.7548 22.3912L17.7533 22.3903ZM17.7511 22.9997C17.7637 23.2541 17.7943 23.5073 17.8425 23.7574C17.415 23.8128 16.9915 23.8964 16.575 24.0079C16.4162 23.6922 16.3148 23.3508 16.2755 22.9997H17.7511ZM20.7045 22.9997H22.2736C22.2324 23.3705 22.1223 23.7303 21.9488 24.0606C21.512 23.9295 21.066 23.8309 20.6146 23.7657C20.6634 23.5132 20.6939 23.2575 20.706 23.0006L20.7045 22.9997ZM20.7026 22.3903C20.6861 22.1136 20.6485 21.8386 20.5899 21.5676C21.0502 21.5035 21.505 21.4045 21.9503 21.2715C22.1323 21.6193 22.2441 21.9994 22.2794 22.3903H20.7026ZM18.6938 19.702C18.4082 20.0894 18.1843 20.5187 18.0302 20.9747C17.6566 20.9304 17.2858 20.8647 16.9196 20.7779C17.3659 20.2209 17.995 19.8401 18.6954 19.703L18.6938 19.702ZM16.9212 24.5518C17.2765 24.4676 17.6363 24.4033 17.9989 24.3592C18.1399 24.8034 18.3457 25.2244 18.6097 25.6084C17.9437 25.4571 17.3485 25.0846 16.9212 24.5518ZM19.8334 25.631C20.1046 25.2415 20.3156 24.8134 20.4592 24.361C20.8437 24.4121 21.2243 24.4891 21.5984 24.5914C21.1493 25.1331 20.5249 25.5008 19.8334 25.631ZM20.7322 31.9743H17.9312C17.7332 31.9743 17.5434 32.0529 17.4034 32.1929C17.2634 32.3329 17.1847 32.5228 17.1847 32.7207C17.1847 32.9187 17.2634 33.1086 17.4034 33.2486C17.5434 33.3886 17.7332 33.4672 17.9312 33.4672H20.7322C20.9302 33.4672 21.1201 33.3886 21.26 33.2486C21.4 33.1086 21.4787 32.9187 21.4787 32.7207C21.4787 32.5228 21.4 32.3329 21.26 32.1929C21.1201 32.0529 20.9302 31.9743 20.7322 31.9743ZM20.7322 32.8578H17.9312C17.895 32.8578 17.8603 32.8433 17.8347 32.8177C17.8091 32.792 17.7947 32.7573 17.7947 32.721C17.7952 32.685 17.8097 32.6505 17.8352 32.625C17.8607 32.5995 17.8952 32.585 17.9312 32.5845H20.7322C20.7682 32.5851 20.8026 32.5997 20.828 32.6251C20.8534 32.6506 20.8679 32.685 20.8684 32.721C20.8682 32.7571 20.8538 32.7916 20.8283 32.8171C20.8028 32.8425 20.7682 32.8568 20.7322 32.8569V32.8578Z" fill="url(#paint11_linear_280_496)"/>
<path d="M29.9248 33.7359C29.8992 33.6573 29.8301 33.4769 29.7481 33.2642C29.6329 32.9659 29.4212 32.4175 29.3922 32.281C29.3959 31.7399 29.4227 31.1866 29.4462 30.6509C29.5101 29.6795 29.5155 28.705 29.4623 27.7329C29.3569 26.7438 29.1295 25.7716 28.7853 24.8384L28.2816 23.2814C28.2082 23.0537 28.1705 22.816 28.1698 22.5767V18.4619C28.1698 18.4215 28.1618 18.3816 28.1463 18.3444C28.1307 18.3071 28.1079 18.2734 28.0792 18.245C28.0505 18.2167 28.0164 18.1943 27.979 18.1792C27.9416 18.1642 27.9015 18.1567 27.8612 18.1572C27.5174 18.1605 27.1777 18.2329 26.8625 18.3701C26.5472 18.5073 26.2628 18.7064 26.026 18.9558C26.026 18.9098 26.026 18.8616 26.026 18.8175L26.0157 12.8959C26.0154 12.7113 25.942 12.5343 25.8115 12.4037C25.681 12.2732 25.5041 12.1997 25.3195 12.1993H13.3453C13.1606 12.1996 12.9836 12.273 12.853 12.4036C12.7224 12.5342 12.649 12.7112 12.6487 12.8959V18.5603H12.3297C12.0805 18.5606 11.8416 18.6597 11.6653 18.8358C11.489 19.0119 11.3897 19.2508 11.3892 19.5V20.8263C11.3897 20.9946 11.4356 21.1596 11.522 21.304C11.6083 21.4485 11.732 21.567 11.88 21.6471C11.7321 21.7273 11.6085 21.8458 11.5221 21.9902C11.4357 22.1347 11.3898 22.2996 11.3892 22.4679V23.7961C11.3897 23.9643 11.4356 24.1294 11.522 24.2738C11.6083 24.4183 11.732 24.5368 11.88 24.6169C11.7321 24.6971 11.6084 24.8156 11.522 24.96C11.4357 25.1044 11.3898 25.2694 11.3892 25.4377V26.764C11.39 26.9326 11.4363 27.0978 11.5232 27.2422C11.61 27.3867 11.7343 27.5051 11.8828 27.5848C11.7341 27.6649 11.6098 27.7835 11.523 27.9283C11.4362 28.0731 11.39 28.2387 11.3895 28.4075V29.7308C11.3897 29.9801 11.4889 30.2192 11.6652 30.3956C11.8416 30.5719 12.0807 30.6711 12.33 30.6713H12.6503V33.5835C12.6504 33.7682 12.7238 33.9453 12.8544 34.076C12.985 34.2066 13.1621 34.2801 13.3468 34.2803H18.7224C19.3074 34.972 19.9164 35.5393 20.9825 35.6514L21.7525 38.6828C21.7691 38.7484 21.8072 38.8066 21.8606 38.8482C21.914 38.8898 21.9797 38.9124 22.0474 38.9125C22.0679 38.9124 22.0883 38.9103 22.1084 38.9061L30.5351 37.159C30.5759 37.1506 30.6145 37.1338 30.6486 37.1099C30.6827 37.0859 30.7115 37.0552 30.7332 37.0196C30.755 36.984 30.7692 36.9444 30.775 36.9031C30.7808 36.8619 30.7781 36.8199 30.767 36.7797L29.9248 33.7359ZM13.2584 12.8952C13.2585 12.8722 13.2677 12.85 13.284 12.8337C13.3004 12.8174 13.3225 12.8082 13.3456 12.8081H25.3195C25.3426 12.8084 25.3647 12.8178 25.381 12.8342C25.3972 12.8506 25.4065 12.8727 25.4066 12.8959L25.417 18.8175C25.417 19.0131 25.417 19.2315 25.4139 19.4384C25.4139 19.6736 25.4109 19.8954 25.4118 20.0502C25.3528 20.2626 25.3216 20.4818 25.3189 20.7023L25.2658 25.4414C25.1846 25.5023 25.1049 25.565 25.0267 25.6294V14.0908C25.0265 13.9099 24.9546 13.7364 24.8267 13.6084C24.6988 13.4804 24.5254 13.4084 24.3445 13.408H14.3687C14.1877 13.4082 14.0141 13.4802 13.8861 13.6082C13.758 13.7362 13.6861 13.9098 13.6859 14.0908V18.6145C13.6466 18.6039 13.6064 18.5981 13.5665 18.5908C13.5427 18.5865 13.5195 18.5801 13.4955 18.5768C13.4207 18.5661 13.3452 18.5606 13.2697 18.5603L13.2584 12.8952ZM23.1166 31.2152H14.3687C14.359 31.2153 14.3494 31.2134 14.3405 31.2098C14.3316 31.2061 14.3234 31.2007 14.3166 31.1939C14.3098 31.187 14.3044 31.1789 14.3007 31.17C14.297 31.161 14.2952 31.1514 14.2953 31.1418V30.2999C14.3318 30.2694 14.3675 30.2368 14.4022 30.2021C14.5748 30.0318 14.7059 29.8241 14.7856 29.5951C14.8652 29.3661 14.8913 29.1219 14.8617 28.8813C14.8592 28.8603 14.8547 28.8402 14.8513 28.8203C14.8449 28.7792 14.8379 28.7381 14.8285 28.6985C14.8227 28.6744 14.8151 28.6509 14.8081 28.6272C14.7977 28.5915 14.787 28.5559 14.7745 28.5211C14.7654 28.4962 14.7547 28.4718 14.7441 28.4474C14.7304 28.4151 14.716 28.3831 14.7005 28.352C14.688 28.3274 14.6749 28.303 14.6609 28.2789C14.6441 28.2485 14.6265 28.221 14.6079 28.1927C14.5893 28.1644 14.5774 28.1455 14.5594 28.1226C14.5415 28.0998 14.5183 28.0696 14.4967 28.044C14.475 28.0184 14.4604 28.0001 14.4409 27.9794C14.4168 27.9535 14.3912 27.9294 14.3653 27.9054C14.3458 27.8871 14.327 27.8679 14.3062 27.8505C14.3023 27.8472 14.2989 27.8432 14.295 27.8399V27.332C14.3315 27.3015 14.3672 27.269 14.4019 27.2345C14.5521 27.0862 14.6712 26.9094 14.7521 26.7145C14.8331 26.5196 14.8742 26.3105 14.8733 26.0995C14.873 26.0363 14.869 25.9733 14.8614 25.9106C14.8589 25.8899 14.8544 25.8694 14.851 25.8496C14.8446 25.8085 14.8376 25.7677 14.8282 25.7278C14.8224 25.7034 14.8148 25.6799 14.8078 25.6562C14.7974 25.6205 14.7867 25.5852 14.7742 25.5504C14.7651 25.5255 14.7544 25.5011 14.7438 25.4764C14.7301 25.4441 14.7157 25.4124 14.7002 25.3813C14.6877 25.3564 14.6746 25.3323 14.6606 25.3082C14.6438 25.2777 14.6262 25.25 14.6076 25.222C14.589 25.194 14.5771 25.1748 14.5591 25.1516C14.5412 25.1285 14.518 25.0986 14.4964 25.073C14.4747 25.0474 14.4601 25.0291 14.4406 25.0084C14.4165 24.9828 14.3909 24.9587 14.365 24.9344C14.3455 24.9161 14.3267 24.8969 14.3059 24.8792L14.2947 24.8689V24.364C14.3316 24.3333 14.3677 24.3004 14.4028 24.2653C14.5522 24.1168 14.6706 23.9402 14.7513 23.7456C14.832 23.5511 14.8734 23.3424 14.873 23.1318C14.8727 23.0687 14.8687 23.0056 14.8611 22.9429C14.8586 22.9219 14.8541 22.9015 14.8507 22.882C14.8443 22.8409 14.8373 22.8 14.8279 22.7601C14.8221 22.736 14.8145 22.7123 14.8074 22.6885C14.7971 22.6529 14.7864 22.6175 14.7739 22.5828C14.7648 22.5578 14.7541 22.5334 14.7435 22.5087C14.7298 22.4768 14.7154 22.4448 14.6999 22.4137C14.6874 22.389 14.6743 22.3646 14.6603 22.3406C14.6435 22.3101 14.6259 22.2827 14.6073 22.2543C14.5917 22.2306 14.5768 22.2071 14.5588 22.1843C14.5408 22.1614 14.5177 22.1312 14.4961 22.1053C14.4744 22.0794 14.4598 22.0618 14.4403 22.0407C14.4162 22.0152 14.3906 21.9911 14.3647 21.967C14.3452 21.9484 14.3263 21.9292 14.3056 21.9119C14.3017 21.9085 14.2983 21.9046 14.2944 21.9012V21.3963C14.3309 21.3657 14.3666 21.3331 14.4013 21.2985C14.5515 21.1503 14.6705 20.9736 14.7514 20.7788C14.8324 20.5839 14.8736 20.3749 14.8727 20.1639C14.8724 20.1007 14.8684 20.0376 14.8608 19.975C14.8583 19.9539 14.8538 19.9338 14.8504 19.914C14.844 19.8732 14.837 19.8321 14.8276 19.7922C14.8218 19.7681 14.8142 19.7446 14.8071 19.7206C14.7968 19.6849 14.7861 19.6496 14.7736 19.6148C14.7645 19.5898 14.7538 19.5655 14.7432 19.5408C14.7294 19.5088 14.7151 19.4771 14.6996 19.4457C14.6871 19.421 14.674 19.3967 14.66 19.3726C14.6432 19.3421 14.6256 19.3147 14.607 19.2864C14.5914 19.2626 14.5765 19.2391 14.5585 19.2163C14.5405 19.1934 14.5174 19.1633 14.4958 19.1374C14.4741 19.1115 14.4595 19.0938 14.44 19.0731C14.4159 19.0472 14.3903 19.0231 14.3644 18.9991C14.3449 18.9805 14.326 18.9613 14.3053 18.9439C14.3014 18.9406 14.298 18.9366 14.2941 18.9335V14.0908C14.294 14.0812 14.2958 14.0716 14.2995 14.0626C14.3031 14.0537 14.3085 14.0456 14.3154 14.0387C14.3222 14.0319 14.3303 14.0265 14.3393 14.0228C14.3482 14.0192 14.3578 14.0173 14.3675 14.0174H24.3445C24.3639 14.0176 24.3824 14.0255 24.3961 14.0392C24.4099 14.0529 24.4177 14.0714 24.4179 14.0908V26.2275C23.742 27.013 23.2845 27.9625 23.0913 28.9806C22.9595 29.7205 22.968 30.4785 23.1166 31.2152ZM13.8209 22.3052C13.9434 22.3865 14.0464 22.494 14.1222 22.62C14.1981 22.746 14.245 22.8872 14.2596 23.0335C14.2742 23.1799 14.2561 23.3276 14.2065 23.4661C14.157 23.6045 14.0773 23.7303 13.9732 23.8341C13.7867 24.0205 13.534 24.1254 13.2703 24.126H12.3297C12.2422 24.1259 12.1582 24.0911 12.0961 24.0293C12.0341 23.9675 11.999 23.8836 11.9985 23.7961V22.4685C11.9987 22.3808 12.0337 22.2967 12.0957 22.2346C12.1578 22.1726 12.242 22.1377 12.3297 22.1376H13.2697C13.4661 22.1367 13.6582 22.1951 13.8209 22.3052ZM13.8209 25.2732C13.9571 25.3637 14.0689 25.4865 14.1462 25.6307C14.2236 25.7749 14.2641 25.9359 14.2642 26.0995C14.2649 26.2301 14.2395 26.3596 14.1894 26.4803C14.1393 26.6009 14.0656 26.7103 13.9726 26.8021C13.9263 26.849 13.8752 26.891 13.8203 26.9273C13.6584 27.0369 13.4673 27.095 13.2718 27.094H12.3297C12.2419 27.0938 12.1578 27.0589 12.0957 26.9968C12.0336 26.9347 11.9987 26.8506 11.9985 26.7628V25.4365C11.9989 25.3489 12.034 25.2649 12.096 25.2031C12.1581 25.1412 12.2421 25.1064 12.3297 25.1062H13.2697C13.4661 25.1049 13.6582 25.1631 13.8209 25.2732ZM11.9985 19.5C11.9987 19.4122 12.0337 19.3281 12.0957 19.2661C12.1578 19.204 12.242 19.1691 12.3297 19.1691H13.2697C13.4657 19.1681 13.6575 19.2263 13.82 19.336H13.8218C13.9578 19.4267 14.0693 19.5496 14.1464 19.6936C14.2236 19.8377 14.2641 19.9986 14.2642 20.162C14.2647 20.2924 14.2392 20.4215 14.1891 20.5419C14.139 20.6622 14.0654 20.7713 13.9726 20.8628C13.9263 20.9098 13.8752 20.9519 13.8203 20.9884C13.6583 21.0977 13.4672 21.1557 13.2718 21.1547H12.3297C12.2419 21.1546 12.1578 21.1196 12.0957 21.0575C12.0336 20.9955 11.9987 20.9113 11.9985 20.8235V19.5ZM12.3297 30.061C12.2419 30.061 12.1577 30.026 12.0956 29.9639C12.0335 29.9018 11.9986 29.8177 11.9985 29.7298V28.4072C11.9987 28.3194 12.0336 28.2353 12.0957 28.1732C12.1578 28.1111 12.2419 28.0762 12.3297 28.076H13.2697C13.4662 28.0749 13.6583 28.1335 13.8209 28.2439C13.9571 28.3344 14.0689 28.4572 14.1463 28.6014C14.2236 28.7455 14.2641 28.9066 14.2642 29.0702C14.2649 29.2006 14.2395 29.3298 14.1894 29.4501C14.1393 29.5705 14.0656 29.6796 13.9726 29.771C13.9264 29.8181 13.8753 29.8601 13.8203 29.8965C13.6583 30.0058 13.4672 30.0638 13.2718 30.0629H12.3297V30.061ZM13.2593 33.5826V30.6704H13.2697C13.3451 30.6702 13.4205 30.6647 13.4952 30.654C13.5204 30.6506 13.5451 30.6439 13.5701 30.6393C13.6088 30.632 13.6478 30.6265 13.6859 30.6165V31.1412C13.6861 31.3222 13.758 31.4958 13.8861 31.6238C14.0141 31.7518 14.1877 31.8238 14.3687 31.824H23.2704C23.3277 32.0141 23.3938 32.2004 23.4688 32.3831C23.4813 32.4135 23.4935 32.444 23.506 32.4745C23.5246 32.5177 23.5431 32.5604 23.5626 32.6027C23.5998 32.6877 23.6394 32.7703 23.6769 32.8428C23.7042 32.9027 23.7347 32.9611 23.7683 33.0177C23.8591 33.1896 23.9586 33.3568 24.0663 33.5186C24.0787 33.5365 24.085 33.5579 24.0843 33.5796C24.0836 33.5942 24.0797 33.6085 24.0727 33.6213C24.0647 33.6365 24.0525 33.6492 24.0377 33.6578C24.0228 33.6664 24.0058 33.6707 23.9886 33.6701H13.3453C13.3224 33.6697 13.3007 33.6604 13.2846 33.6441C13.2686 33.6279 13.2595 33.606 13.2593 33.5832V33.5826ZM22.2726 38.2516L21.5947 35.5875C21.6366 35.5447 21.665 35.4905 21.6763 35.4318C21.6876 35.373 21.6813 35.3121 21.6583 35.2569C21.6352 35.2016 21.5964 35.1544 21.5467 35.1211C21.497 35.0877 21.4385 35.0698 21.3786 35.0695C21.0334 35.0826 20.6896 35.0187 20.3722 34.8823C20.0548 34.746 19.7717 34.5407 19.5435 34.2813H23.9877C24.1154 34.2814 24.2408 34.2468 24.3503 34.1811C24.4599 34.1155 24.5496 34.0213 24.6097 33.9086C24.6699 33.7959 24.6983 33.669 24.6918 33.5414C24.6854 33.4139 24.6444 33.2905 24.5733 33.1844C24.5614 33.1664 24.5514 33.1487 24.5398 33.1308C24.5017 33.0717 24.4636 33.0128 24.4289 32.9543C24.3838 32.8785 24.3411 32.802 24.3006 32.7252C24.2733 32.6784 24.2484 32.6302 24.2259 32.5808C24.1434 32.419 24.0718 32.2527 24.0057 32.0842L23.9514 31.9379C23.921 31.8517 23.8951 31.7642 23.8685 31.6768C23.8445 31.5997 23.818 31.5245 23.7976 31.4455L23.7826 31.3876C23.5888 30.6386 23.5576 29.8567 23.6912 29.0946C23.8703 28.148 24.3049 27.2684 24.9481 26.551L24.9499 26.5492C25.186 26.2864 25.4519 26.0518 25.7421 25.8503L25.8719 25.7607L25.9285 20.712C25.9307 20.5451 25.9543 20.3791 25.9986 20.2181L26.0224 20.163V20.1453C26.1282 19.7997 26.3283 19.4904 26.6 19.2521C26.8718 19.0138 27.2046 18.8559 27.5611 18.7961V22.5773C27.5616 22.88 27.6092 23.1807 27.7021 23.4688L28.2061 25.0267C28.5335 25.9139 28.751 26.8379 28.8538 27.778C28.9046 28.7259 28.8988 29.676 28.8365 30.6232C28.8115 31.1649 28.7859 31.7249 28.7819 32.2786C28.7758 32.4041 28.8353 32.5942 29.178 33.4836C29.2548 33.6826 29.32 33.851 29.3401 33.9117L30.0927 36.6298L22.2726 38.2516Z" fill="url(#paint12_linear_280_496)"/>
<defs>
<linearGradient id="paint0_linear_280_496" x1="0.479081" y1="23.4332" x2="11.0058" y2="25.0446" gradientUnits="userSpaceOnUse">
<stop stopColor="#FC365F"/>
<stop offset="0.984375" stopColor="#A00BFB"/>
</linearGradient>
<linearGradient id="paint1_linear_280_496" x1="1.41365" y1="2.68231" x2="12.16" y2="3.22227" gradientUnits="userSpaceOnUse">
<stop stopColor="#FC365F"/>
<stop offset="0.984375" stopColor="#A00BFB"/>
</linearGradient>
<linearGradient id="paint2_linear_280_496" x1="3.49515" y1="6.38299" x2="9.77312" y2="7.42921" gradientUnits="userSpaceOnUse">
<stop stopColor="#FC365F"/>
<stop offset="0.984375" stopColor="#A00BFB"/>
</linearGradient>
<linearGradient id="paint3_linear_280_496" x1="4.99796" y1="7.68716" x2="8.25456" y2="8.18568" gradientUnits="userSpaceOnUse">
<stop stopColor="#FC365F"/>
<stop offset="0.984375" stopColor="#A00BFB"/>
</linearGradient>
<linearGradient id="paint4_linear_280_496" x1="7.7958" y1="7.67379" x2="8.29647" y2="7.75043" gradientUnits="userSpaceOnUse">
<stop stopColor="#FC365F"/>
<stop offset="0.984375" stopColor="#A00BFB"/>
</linearGradient>
<linearGradient id="paint5_linear_280_496" x1="27.9818" y1="15.0013" x2="38.5455" y2="16.4895" gradientUnits="userSpaceOnUse">
<stop stopColor="#FC365F"/>
<stop offset="0.984375" stopColor="#A00BFB"/>
</linearGradient>
<linearGradient id="paint6_linear_280_496" x1="24.4366" y1="1.74892" x2="37.4883" y2="2.83484" gradientUnits="userSpaceOnUse">
<stop stopColor="#FC365F"/>
<stop offset="0.984375" stopColor="#A00BFB"/>
</linearGradient>
<linearGradient id="paint7_linear_280_496" x1="25.9278" y1="4.12368" x2="32.1858" y2="5.12007" gradientUnits="userSpaceOnUse">
<stop stopColor="#FC365F"/>
<stop offset="0.984375" stopColor="#A00BFB"/>
</linearGradient>
<linearGradient id="paint8_linear_280_496" x1="27.6476" y1="6.36869" x2="29.3216" y2="7.1195" gradientUnits="userSpaceOnUse">
<stop stopColor="#FC365F"/>
<stop offset="0.984375" stopColor="#A00BFB"/>
</linearGradient>
<linearGradient id="paint9_linear_280_496" x1="29.8719" y1="6.37199" x2="30.5387" y2="6.47406" gradientUnits="userSpaceOnUse">
<stop stopColor="#FC365F"/>
<stop offset="0.984375" stopColor="#A00BFB"/>
</linearGradient>
<linearGradient id="paint10_linear_280_496" x1="11.6712" y1="34.6438" x2="12.7147" y2="34.4628" gradientUnits="userSpaceOnUse">
<stop stopColor="#FC365F"/>
<stop offset="0.984375" stopColor="#A00BFB"/>
</linearGradient>
<linearGradient id="paint11_linear_280_496" x1="2.50344" y1="4.29441" x2="36.1217" y2="9.13161" gradientUnits="userSpaceOnUse">
<stop stopColor="#FC365F"/>
<stop offset="0.984375" stopColor="#A00BFB"/>
</linearGradient>
<linearGradient id="paint12_linear_280_496" x1="9.39636" y1="10.007" x2="33.3615" y2="12.6697" gradientUnits="userSpaceOnUse">
<stop stopColor="#FC365F"/>
<stop offset="0.984375" stopColor="#A00BFB"/>
</linearGradient>
</defs>
</svg>
