<svg width="39" height="39" viewBox="0 0 39 39" fill="none" xmlns="http://www.w3.org/2000/svg">
<g clip-path="url(#clip0_280_493)">
<path d="M38.1875 32.5H37.375V12.1875C37.375 11.541 37.1182 10.921 36.6611 10.4639C36.204 10.0068 35.584 9.75 34.9375 9.75H32.5V2.4375C32.5 1.79103 32.2432 1.17105 31.7861 0.713927C31.329 0.256807 30.709 0 30.0625 0L8.9375 0C8.29103 0 7.67105 0.256807 7.21393 0.713927C6.75681 1.17105 6.5 1.79103 6.5 2.4375V9.75H4.0625C3.41603 9.75 2.79605 10.0068 2.33893 10.4639C1.88181 10.921 1.625 11.541 1.625 12.1875V32.5H0.8125C0.597012 32.5 0.390349 32.5856 0.237976 32.738C0.0856024 32.8903 0 33.097 0 33.3125L0 34.9375C0 35.471 0.10508 35.9993 0.309239 36.4922C0.513399 36.985 0.812641 37.4329 1.18988 37.8101C1.56712 38.1874 2.01496 38.4866 2.50785 38.6908C3.00073 38.8949 3.529 39 4.0625 39H34.9375C35.471 39 35.9993 38.8949 36.4922 38.6908C36.985 38.4866 37.4329 38.1874 37.8101 37.8101C38.1874 37.4329 38.4866 36.985 38.6908 36.4922C38.8949 35.9993 39 35.471 39 34.9375V33.3125C39 33.097 38.9144 32.8903 38.762 32.738C38.6097 32.5856 38.403 32.5 38.1875 32.5ZM8.125 6.5H30.875V25.1875C30.875 25.403 30.7894 25.6097 30.637 25.762C30.4847 25.9144 30.278 26 30.0625 26H8.9375C8.72201 26 8.51535 25.9144 8.36298 25.762C8.2106 25.6097 8.125 25.403 8.125 25.1875V6.5ZM8.125 2.4375C8.125 2.22201 8.2106 2.01535 8.36298 1.86298C8.51535 1.7106 8.72201 1.625 8.9375 1.625H30.0625C30.278 1.625 30.4847 1.7106 30.637 1.86298C30.7894 2.01535 30.875 2.22201 30.875 2.4375V4.875H8.125V2.4375ZM3.25 12.1875C3.25 11.972 3.3356 11.7653 3.48798 11.613C3.64035 11.4606 3.84701 11.375 4.0625 11.375H6.5V25.1875C6.5 25.834 6.75681 26.454 7.21393 26.9111C7.67105 27.3682 8.29103 27.625 8.9375 27.625H30.0625C30.709 27.625 31.329 27.3682 31.7861 26.9111C32.2432 26.454 32.5 25.834 32.5 25.1875V11.375H34.9375C35.153 11.375 35.3597 11.4606 35.512 11.613C35.6644 11.7653 35.75 11.972 35.75 12.1875V32.5C22.75 32.5 23.1563 32.3131 22.8394 32.9469L22.2462 34.125H16.7538C16.0956 32.8169 16.0388 32.5 15.4375 32.5H3.25V12.1875ZM37.375 34.9375C37.375 35.584 37.1182 36.204 36.6611 36.6611C36.204 37.1182 35.584 37.375 34.9375 37.375H4.0625C3.41603 37.375 2.79605 37.1182 2.33893 36.6611C1.88181 36.204 1.625 35.584 1.625 34.9375V34.125H14.9337C15.5919 35.4331 15.6487 35.75 16.25 35.75C23.2537 35.75 23.1725 35.9125 23.4731 35.3031L24.0663 34.125H37.375V34.9375Z" fill="url(#paint0_linear_280_493)"/>
<path d="M10.5625 2.4375C10.347 2.4375 10.1403 2.5231 9.98798 2.67548C9.8356 2.82785 9.75 3.03451 9.75 3.25C9.75 3.46549 9.8356 3.67215 9.98798 3.82452C10.1403 3.9769 10.347 4.0625 10.5625 4.0625C10.778 4.0625 10.9847 3.9769 11.137 3.82452C11.2894 3.67215 11.375 3.46549 11.375 3.25C11.375 3.03451 11.2894 2.82785 11.137 2.67548C10.9847 2.5231 10.778 2.4375 10.5625 2.4375ZM13.8125 2.4375C13.597 2.4375 13.3903 2.5231 13.238 2.67548C13.0856 2.82785 13 3.03451 13 3.25C13 3.46549 13.0856 3.67215 13.238 3.82452C13.3903 3.9769 13.597 4.0625 13.8125 4.0625C14.028 4.0625 14.2347 3.9769 14.387 3.82452C14.5394 3.67215 14.625 3.46549 14.625 3.25C14.625 3.03451 14.5394 2.82785 14.387 2.67548C14.2347 2.5231 14.028 2.4375 13.8125 2.4375ZM17.0625 2.4375C16.847 2.4375 16.6403 2.5231 16.488 2.67548C16.3356 2.82785 16.25 3.03451 16.25 3.25C16.25 3.46549 16.3356 3.67215 16.488 3.82452C16.6403 3.9769 16.847 4.0625 17.0625 4.0625C17.278 4.0625 17.4847 3.9769 17.637 3.82452C17.7894 3.67215 17.875 3.46549 17.875 3.25C17.875 3.03451 17.7894 2.82785 17.637 2.67548C17.4847 2.5231 17.278 2.4375 17.0625 2.4375ZM19.5 24.375C21.107 24.375 22.6779 23.8985 24.014 23.0057C25.3502 22.1129 26.3916 20.844 27.0065 19.3593C27.6215 17.8747 27.7824 16.241 27.4689 14.6649C27.1554 13.0888 26.3815 11.6411 25.2452 10.5048C24.1089 9.36846 22.6612 8.59462 21.0851 8.28112C19.509 7.96761 17.8753 8.12852 16.3907 8.74348C14.906 9.35844 13.6371 10.3998 12.7443 11.736C11.8515 13.0721 11.375 14.643 11.375 16.25C11.375 18.4049 12.231 20.4715 13.7548 21.9952C15.2785 23.519 17.3451 24.375 19.5 24.375ZM13.0569 17.0625H16.3069C16.3823 18.995 16.941 20.8778 17.9319 22.5387C16.6626 22.2225 15.5183 21.5306 14.6486 20.5536C13.7788 19.5765 13.2241 18.3598 13.0569 17.0625ZM19.5 10.465C20.4929 11.9394 21.0556 13.6613 21.125 15.4375H17.875C17.9444 13.6613 18.5071 11.9394 19.5 10.465ZM21.125 17.0625C21.0556 18.8387 20.4929 20.5606 19.5 22.035C18.5071 20.5606 17.9444 18.8387 17.875 17.0625H21.125ZM21.125 22.5387C22.1159 20.8778 22.6745 18.995 22.75 17.0625H26C25.8328 18.3598 25.2781 19.5765 24.4083 20.5536C23.5386 21.5306 22.3943 22.2225 21.125 22.5387ZM25.9431 15.4375H22.75C22.6745 13.505 22.1159 11.6222 21.125 9.96125C22.3837 10.2874 23.5157 10.9836 24.3746 11.9598C25.2335 12.9361 25.7799 14.1475 25.9431 15.4375ZM17.875 9.96125C16.8841 11.6222 16.3255 13.505 16.25 15.4375H13C13.1672 14.1402 13.7219 12.9235 14.5917 11.9464C15.4614 10.9694 16.6057 10.2775 17.875 9.96125Z" fill="url(#paint1_linear_280_493)"/>
</g>
<defs>
<linearGradient id="paint0_linear_280_493" x1="-4.00847" y1="-3.20074" x2="43.6745" y2="4.09856" gradientUnits="userSpaceOnUse">
<stop stop-color="#FC365F"/>
<stop offset="0.984375" stop-color="#A00BFB"/>
</linearGradient>
<linearGradient id="paint1_linear_280_493" x1="7.91278" y1="0.637082" x2="29.9369" y2="3.3842" gradientUnits="userSpaceOnUse">
<stop stop-color="#FC365F"/>
<stop offset="0.984375" stop-color="#A00BFB"/>
</linearGradient>
<clipPath id="clip0_280_493">
<rect width="39" height="39" fill="white"/>
</clipPath>
</defs>
</svg>
